<?xml version="1.0" standalone="no"?>
<!DOCTYPE svg PUBLIC "-//W3C//DTD SVG 20010904//EN"
 "http://www.w3.org/TR/2001/REC-SVG-20010904/DTD/svg10.dtd">
<svg version="1.0" xmlns="http://www.w3.org/2000/svg"
 width="670.000000pt" height="256.000000pt" viewBox="0 0 670.000000 256.000000"
 preserveAspectRatio="xMidYMid meet">

<g transform="translate(0.000000,256.000000) scale(0.100000,-0.100000)"
fill="#000000" stroke="none">
<path d="M535 1846 c-40 -17 -84 -63 -101 -103 -11 -26 -14 -136 -14 -550 0
-499 1 -518 20 -559 12 -24 39 -54 62 -70 l41 -29 2791 0 2791 0 36 24 c20 14
47 41 60 60 l24 35 3 515 c2 284 0 531 -3 549 -8 42 -59 100 -110 123 -38 18
-152 19 -2805 18 -2270 0 -2770 -2 -2795 -13z m5585 -54 c19 -9 45 -32 58 -51
l23 -35 -3 -522 -3 -522 -25 -27 c-14 -15 -37 -33 -52 -41 -41 -21 -5525 -21
-5566 0 -15 8 -38 26 -52 41 l-25 27 -3 521 c-2 507 -2 523 18 555 11 18 34
41 52 52 33 20 57 20 2788 20 2603 0 2757 -1 2790 -18z"/>
<path d="M1137 1611 c-17 -15 -52 -35 -77 -44 -86 -32 -110 -53 -110 -93 0
-70 33 -92 86 -58 13 9 27 14 31 10 3 -3 -28 -141 -70 -305 -43 -165 -77 -311
-77 -325 0 -34 35 -56 87 -56 85 0 103 22 144 178 l21 82 63 0 c219 0 379 90
431 242 27 78 25 190 -5 250 -28 58 -101 124 -150 138 -21 5 -105 10 -189 9
-152 0 -152 0 -185 -28z m321 -130 c38 -27 56 -79 49 -142 -10 -83 -53 -147
-124 -183 -31 -16 -171 -42 -179 -33 -3 2 13 82 36 178 22 96 40 177 40 181 0
13 64 27 107 24 22 -2 55 -13 71 -25z"/>
<path d="M2687 1625 c-136 -37 -292 -168 -355 -297 -101 -206 -95 -421 13
-516 126 -111 406 -91 564 38 52 43 101 119 101 156 0 48 -47 84 -109 84 -53
0 -76 -18 -126 -100 -34 -54 -46 -65 -105 -92 -73 -34 -143 -20 -189 38 -17
22 -21 41 -21 98 1 174 124 372 275 442 63 30 80 30 110 -1 19 -19 25 -35 25
-70 0 -26 5 -55 10 -65 23 -44 145 -33 176 15 26 39 15 132 -22 191 -44 72
-94 94 -208 93 -50 0 -113 -7 -139 -14z"/>
<path d="M3274 1632 c-6 -4 -16 -16 -22 -28 -17 -33 -142 -539 -142 -577 0
-104 73 -213 173 -258 46 -21 67 -24 172 -23 148 0 207 20 290 96 81 74 115
152 160 368 20 96 47 219 61 272 13 53 24 106 24 118 0 27 -35 40 -110 40 -55
0 -61 -2 -73 -27 -22 -43 -44 -125 -92 -351 -54 -250 -83 -318 -151 -358 -31
-19 -59 -26 -93 -26 -53 0 -82 12 -123 50 -54 50 -48 112 34 397 59 202 70
281 43 302 -20 14 -132 18 -151 5z"/>
<path d="M4186 1618 c-19 -30 -206 -776 -206 -823 0 -29 5 -37 28 -46 40 -16
142 -6 157 15 7 9 36 110 64 224 72 287 71 286 81 276 4 -5 45 -106 90 -224
45 -118 88 -229 97 -247 17 -37 55 -53 124 -53 62 0 72 14 104 151 14 57 56
238 95 403 38 164 70 302 70 306 0 12 -58 30 -98 30 -28 0 -43 -8 -73 -40 -45
-47 -62 -98 -113 -328 -19 -85 -37 -156 -40 -160 -12 -12 -24 17 -111 263 -48
138 -94 256 -103 263 -9 7 -44 12 -84 12 -59 0 -69 -3 -82 -22z"/>
<path d="M5275 1626 c-158 -52 -286 -192 -330 -363 -22 -85 -20 -236 6 -318
16 -53 31 -78 72 -120 61 -62 122 -85 228 -85 208 0 372 137 455 380 28 82 26
264 -5 342 -24 61 -80 126 -133 155 -43 23 -234 29 -293 9z m174 -127 c51 -18
66 -58 65 -174 0 -61 -8 -125 -18 -164 -34 -128 -112 -253 -177 -286 -105 -55
-202 61 -185 219 16 143 69 276 138 347 62 63 113 80 177 58z"/>
<path d="M2105 1623 c-120 -16 -262 -46 -277 -60 -24 -22 -23 -75 2 -98 15
-14 31 -17 75 -13 30 3 55 3 55 1 0 -26 -136 -538 -146 -547 -7 -7 -32 -16
-56 -20 -71 -11 -104 -57 -78 -106 21 -39 42 -41 172 -21 68 11 152 23 188 26
76 8 115 28 131 67 10 25 9 32 -11 53 -19 21 -33 25 -77 25 -29 0 -53 3 -53 8
1 4 31 129 68 277 l68 270 42 6 c81 11 127 75 86 120 -14 16 -30 19 -88 18
-39 -1 -84 -4 -101 -6z"/>
</g>
</svg>
