%TF.GenerationSoftware,KiCad,Pcbnew,7.0.10*%
%TF.CreationDate,2024-01-11T23:08:57+05:30*%
%TF.ProjectId,rp2040-basic-m1,72703230-3430-42d6-9261-7369632d6d31,rev?*%
%TF.SameCoordinates,Original*%
%TF.FileFunction,Paste,Top*%
%TF.FilePolarity,Positive*%
%FSLAX46Y46*%
G04 Gerber Fmt 4.6, Leading zero omitted, Abs format (unit mm)*
G04 Created by KiCad (PCBNEW 7.0.10) date 2024-01-11 23:08:57*
%MOMM*%
%LPD*%
G01*
G04 APERTURE LIST*
G04 Aperture macros list*
%AMRoundRect*
0 Rectangle with rounded corners*
0 $1 Rounding radius*
0 $2 $3 $4 $5 $6 $7 $8 $9 X,Y pos of 4 corners*
0 Add a 4 corners polygon primitive as box body*
4,1,4,$2,$3,$4,$5,$6,$7,$8,$9,$2,$3,0*
0 Add four circle primitives for the rounded corners*
1,1,$1+$1,$2,$3*
1,1,$1+$1,$4,$5*
1,1,$1+$1,$6,$7*
1,1,$1+$1,$8,$9*
0 Add four rect primitives between the rounded corners*
20,1,$1+$1,$2,$3,$4,$5,0*
20,1,$1+$1,$4,$5,$6,$7,0*
20,1,$1+$1,$6,$7,$8,$9,0*
20,1,$1+$1,$8,$9,$2,$3,0*%
G04 Aperture macros list end*
%ADD10RoundRect,0.250000X0.475000X-0.337500X0.475000X0.337500X-0.475000X0.337500X-0.475000X-0.337500X0*%
%ADD11RoundRect,0.237500X-0.300000X-0.237500X0.300000X-0.237500X0.300000X0.237500X-0.300000X0.237500X0*%
%ADD12R,2.000000X1.500000*%
%ADD13R,2.000000X3.800000*%
%ADD14RoundRect,0.250000X0.450000X-0.350000X0.450000X0.350000X-0.450000X0.350000X-0.450000X-0.350000X0*%
%ADD15RoundRect,0.250000X-0.450000X0.350000X-0.450000X-0.350000X0.450000X-0.350000X0.450000X0.350000X0*%
%ADD16RoundRect,0.250000X-0.337500X-0.475000X0.337500X-0.475000X0.337500X0.475000X-0.337500X0.475000X0*%
%ADD17RoundRect,0.237500X0.300000X0.237500X-0.300000X0.237500X-0.300000X-0.237500X0.300000X-0.237500X0*%
%ADD18RoundRect,0.150000X-0.150000X0.587500X-0.150000X-0.587500X0.150000X-0.587500X0.150000X0.587500X0*%
%ADD19RoundRect,0.250000X0.337500X0.475000X-0.337500X0.475000X-0.337500X-0.475000X0.337500X-0.475000X0*%
%ADD20RoundRect,0.237500X0.237500X-0.300000X0.237500X0.300000X-0.237500X0.300000X-0.237500X-0.300000X0*%
%ADD21RoundRect,0.237500X-0.237500X0.250000X-0.237500X-0.250000X0.237500X-0.250000X0.237500X0.250000X0*%
%ADD22RoundRect,0.249999X-0.395001X-0.395001X0.395001X-0.395001X0.395001X0.395001X-0.395001X0.395001X0*%
%ADD23RoundRect,0.050000X-0.387500X-0.050000X0.387500X-0.050000X0.387500X0.050000X-0.387500X0.050000X0*%
%ADD24RoundRect,0.050000X-0.050000X-0.387500X0.050000X-0.387500X0.050000X0.387500X-0.050000X0.387500X0*%
%ADD25R,0.600000X1.240000*%
%ADD26R,0.300000X1.240000*%
%ADD27RoundRect,0.237500X-0.237500X0.300000X-0.237500X-0.300000X0.237500X-0.300000X0.237500X0.300000X0*%
%ADD28RoundRect,0.150000X-0.650000X-0.150000X0.650000X-0.150000X0.650000X0.150000X-0.650000X0.150000X0*%
%ADD29RoundRect,0.250000X-0.450000X0.325000X-0.450000X-0.325000X0.450000X-0.325000X0.450000X0.325000X0*%
%ADD30R,7.175000X5.600000*%
%ADD31RoundRect,0.250000X0.450000X-0.325000X0.450000X0.325000X-0.450000X0.325000X-0.450000X-0.325000X0*%
G04 APERTURE END LIST*
D10*
%TO.C,C12*%
X253370000Y-62461500D03*
X253370000Y-60386500D03*
%TD*%
D11*
%TO.C,C6*%
X266687500Y-64610000D03*
X268412500Y-64610000D03*
%TD*%
D12*
%TO.C,U2*%
X266648000Y-50273700D03*
X266648000Y-52573700D03*
D13*
X272948000Y-52573700D03*
D12*
X266648000Y-54873700D03*
%TD*%
D14*
%TO.C,R16*%
X244104000Y-80458000D03*
X244104000Y-78458000D03*
%TD*%
D10*
%TO.C,C14*%
X262432000Y-52065700D03*
X262432000Y-49990700D03*
%TD*%
D14*
%TO.C,R33*%
X251440000Y-77290000D03*
X251440000Y-75290000D03*
%TD*%
D15*
%TO.C,R3*%
X250454000Y-53820000D03*
X250454000Y-55820000D03*
%TD*%
D14*
%TO.C,R7*%
X225275000Y-61200000D03*
X225275000Y-59200000D03*
%TD*%
D16*
%TO.C,C15*%
X240592500Y-56392000D03*
X242667500Y-56392000D03*
%TD*%
D17*
%TO.C,C7*%
X242934500Y-63964000D03*
X241209500Y-63964000D03*
%TD*%
D18*
%TO.C,D3*%
X254198000Y-53961000D03*
X252298000Y-53961000D03*
X253248000Y-55836000D03*
%TD*%
D19*
%TO.C,C5*%
X245137500Y-59062000D03*
X243062500Y-59062000D03*
%TD*%
D20*
%TO.C,C3*%
X245814300Y-57242000D03*
X245814300Y-55517000D03*
%TD*%
D11*
%TO.C,C9*%
X257487500Y-64260000D03*
X259212500Y-64260000D03*
%TD*%
D21*
%TO.C,R4*%
X251250000Y-60259500D03*
X251250000Y-62084500D03*
%TD*%
D15*
%TO.C,R2*%
X256042000Y-53820000D03*
X256042000Y-55820000D03*
%TD*%
D22*
%TO.C,U1*%
X247876000Y-67228000D03*
X247876000Y-68828000D03*
X249476000Y-67228000D03*
X249476000Y-68828000D03*
D23*
X245238500Y-65428000D03*
X245238500Y-65828000D03*
X245238500Y-66228000D03*
X245238500Y-66628000D03*
X245238500Y-67028000D03*
X245238500Y-67428000D03*
X245238500Y-67828000D03*
X245238500Y-68228000D03*
X245238500Y-68628000D03*
X245238500Y-69028000D03*
X245238500Y-69428000D03*
X245238500Y-69828000D03*
X245238500Y-70228000D03*
X245238500Y-70628000D03*
D24*
X246076000Y-71465500D03*
X246476000Y-71465500D03*
X246876000Y-71465500D03*
X247276000Y-71465500D03*
X247676000Y-71465500D03*
X248076000Y-71465500D03*
X248476000Y-71465500D03*
X248876000Y-71465500D03*
X249276000Y-71465500D03*
X249676000Y-71465500D03*
X250076000Y-71465500D03*
X250476000Y-71465500D03*
X250876000Y-71465500D03*
X251276000Y-71465500D03*
D23*
X252113500Y-70628000D03*
X252113500Y-70228000D03*
X252113500Y-69828000D03*
X252113500Y-69428000D03*
X252113500Y-69028000D03*
X252113500Y-68628000D03*
X252113500Y-68228000D03*
X252113500Y-67828000D03*
X252113500Y-67428000D03*
X252113500Y-67028000D03*
X252113500Y-66628000D03*
X252113500Y-66228000D03*
X252113500Y-65828000D03*
X252113500Y-65428000D03*
D24*
X251276000Y-64590500D03*
X250876000Y-64590500D03*
X250476000Y-64590500D03*
X250076000Y-64590500D03*
X249676000Y-64590500D03*
X249276000Y-64590500D03*
X248876000Y-64590500D03*
X248476000Y-64590500D03*
X248076000Y-64590500D03*
X247676000Y-64590500D03*
X247276000Y-64590500D03*
X246876000Y-64590500D03*
X246476000Y-64590500D03*
X246076000Y-64590500D03*
%TD*%
D19*
%TO.C,C13*%
X271762500Y-45675000D03*
X269687500Y-45675000D03*
%TD*%
D15*
%TO.C,R6*%
X225400000Y-55225000D03*
X225400000Y-57225000D03*
%TD*%
D25*
%TO.C,J1*%
X265125000Y-44700000D03*
X264325000Y-44700000D03*
D26*
X263175000Y-44700000D03*
X262175000Y-44700000D03*
X261675000Y-44700000D03*
X260675000Y-44700000D03*
D25*
X259525000Y-44700000D03*
X258725000Y-44700000D03*
X258725000Y-44700000D03*
X259525000Y-44700000D03*
D26*
X260175000Y-44700000D03*
X261175000Y-44700000D03*
X262675000Y-44700000D03*
X263675000Y-44700000D03*
D25*
X264325000Y-44700000D03*
X265125000Y-44700000D03*
%TD*%
D27*
%TO.C,C11*%
X248240000Y-75470000D03*
X248240000Y-77195000D03*
%TD*%
D21*
%TO.C,R5*%
X249740000Y-60229500D03*
X249740000Y-62054500D03*
%TD*%
D11*
%TO.C,C10*%
X257607500Y-62390000D03*
X259332500Y-62390000D03*
%TD*%
D28*
%TO.C,U3*%
X231106000Y-56471000D03*
X231106000Y-57741000D03*
X231106000Y-59011000D03*
X231106000Y-60281000D03*
X238306000Y-60281000D03*
X238306000Y-59011000D03*
X238306000Y-57741000D03*
X238306000Y-56471000D03*
%TD*%
D20*
%TO.C,C4*%
X247338300Y-57242000D03*
X247338300Y-55517000D03*
%TD*%
D29*
%TO.C,D2*%
X262575000Y-57825000D03*
X262575000Y-59875000D03*
%TD*%
D16*
%TO.C,C1*%
X248312500Y-80232000D03*
X250387500Y-80232000D03*
%TD*%
D11*
%TO.C,C8*%
X270037500Y-60700000D03*
X271762500Y-60700000D03*
%TD*%
D30*
%TO.C,Y1*%
X237345000Y-84962000D03*
X251520000Y-84962000D03*
%TD*%
D19*
%TO.C,C2*%
X239697500Y-79872000D03*
X237622500Y-79872000D03*
%TD*%
D31*
%TO.C,D1*%
X262432000Y-55854200D03*
X262432000Y-53804200D03*
%TD*%
M02*
