%TF.GenerationSoftware,KiCad,Pcbnew,7.0.10*%
%TF.CreationDate,2024-01-11T23:08:57+05:30*%
%TF.ProjectId,rp2040-basic-m1,72703230-3430-42d6-9261-7369632d6d31,rev?*%
%TF.SameCoordinates,Original*%
%TF.FileFunction,Legend,Bot*%
%TF.FilePolarity,Positive*%
%FSLAX46Y46*%
G04 Gerber Fmt 4.6, Leading zero omitted, Abs format (unit mm)*
G04 Created by KiCad (PCBNEW 7.0.10) date 2024-01-11 23:08:57*
%MOMM*%
%LPD*%
G01*
G04 APERTURE LIST*
%ADD10C,0.150000*%
%ADD11C,0.200000*%
%ADD12C,0.120000*%
G04 APERTURE END LIST*
D10*
X230692561Y-100539411D02*
X230740180Y-100634649D01*
X230740180Y-100634649D02*
X230740180Y-100777506D01*
X230740180Y-100777506D02*
X230692561Y-100920363D01*
X230692561Y-100920363D02*
X230597323Y-101015601D01*
X230597323Y-101015601D02*
X230502085Y-101063220D01*
X230502085Y-101063220D02*
X230311609Y-101110839D01*
X230311609Y-101110839D02*
X230168752Y-101110839D01*
X230168752Y-101110839D02*
X229978276Y-101063220D01*
X229978276Y-101063220D02*
X229883038Y-101015601D01*
X229883038Y-101015601D02*
X229787800Y-100920363D01*
X229787800Y-100920363D02*
X229740180Y-100777506D01*
X229740180Y-100777506D02*
X229740180Y-100682268D01*
X229740180Y-100682268D02*
X229787800Y-100539411D01*
X229787800Y-100539411D02*
X229835419Y-100491792D01*
X229835419Y-100491792D02*
X230168752Y-100491792D01*
X230168752Y-100491792D02*
X230168752Y-100682268D01*
X229740180Y-99491792D02*
X230216371Y-99825125D01*
X229740180Y-100063220D02*
X230740180Y-100063220D01*
X230740180Y-100063220D02*
X230740180Y-99682268D01*
X230740180Y-99682268D02*
X230692561Y-99587030D01*
X230692561Y-99587030D02*
X230644942Y-99539411D01*
X230644942Y-99539411D02*
X230549704Y-99491792D01*
X230549704Y-99491792D02*
X230406847Y-99491792D01*
X230406847Y-99491792D02*
X230311609Y-99539411D01*
X230311609Y-99539411D02*
X230263990Y-99587030D01*
X230263990Y-99587030D02*
X230216371Y-99682268D01*
X230216371Y-99682268D02*
X230216371Y-100063220D01*
X230740180Y-98872744D02*
X230740180Y-98682268D01*
X230740180Y-98682268D02*
X230692561Y-98587030D01*
X230692561Y-98587030D02*
X230597323Y-98491792D01*
X230597323Y-98491792D02*
X230406847Y-98444173D01*
X230406847Y-98444173D02*
X230073514Y-98444173D01*
X230073514Y-98444173D02*
X229883038Y-98491792D01*
X229883038Y-98491792D02*
X229787800Y-98587030D01*
X229787800Y-98587030D02*
X229740180Y-98682268D01*
X229740180Y-98682268D02*
X229740180Y-98872744D01*
X229740180Y-98872744D02*
X229787800Y-98967982D01*
X229787800Y-98967982D02*
X229883038Y-99063220D01*
X229883038Y-99063220D02*
X230073514Y-99110839D01*
X230073514Y-99110839D02*
X230406847Y-99110839D01*
X230406847Y-99110839D02*
X230597323Y-99063220D01*
X230597323Y-99063220D02*
X230692561Y-98967982D01*
X230692561Y-98967982D02*
X230740180Y-98872744D01*
X230740180Y-98015601D02*
X229930657Y-98015601D01*
X229930657Y-98015601D02*
X229835419Y-97967982D01*
X229835419Y-97967982D02*
X229787800Y-97920363D01*
X229787800Y-97920363D02*
X229740180Y-97825125D01*
X229740180Y-97825125D02*
X229740180Y-97634649D01*
X229740180Y-97634649D02*
X229787800Y-97539411D01*
X229787800Y-97539411D02*
X229835419Y-97491792D01*
X229835419Y-97491792D02*
X229930657Y-97444173D01*
X229930657Y-97444173D02*
X230740180Y-97444173D01*
X229740180Y-96967982D02*
X230740180Y-96967982D01*
X230740180Y-96967982D02*
X230740180Y-96587030D01*
X230740180Y-96587030D02*
X230692561Y-96491792D01*
X230692561Y-96491792D02*
X230644942Y-96444173D01*
X230644942Y-96444173D02*
X230549704Y-96396554D01*
X230549704Y-96396554D02*
X230406847Y-96396554D01*
X230406847Y-96396554D02*
X230311609Y-96444173D01*
X230311609Y-96444173D02*
X230263990Y-96491792D01*
X230263990Y-96491792D02*
X230216371Y-96587030D01*
X230216371Y-96587030D02*
X230216371Y-96967982D01*
X230740180Y-95015601D02*
X230740180Y-94825125D01*
X230740180Y-94825125D02*
X230692561Y-94729887D01*
X230692561Y-94729887D02*
X230597323Y-94634649D01*
X230597323Y-94634649D02*
X230406847Y-94587030D01*
X230406847Y-94587030D02*
X230073514Y-94587030D01*
X230073514Y-94587030D02*
X229883038Y-94634649D01*
X229883038Y-94634649D02*
X229787800Y-94729887D01*
X229787800Y-94729887D02*
X229740180Y-94825125D01*
X229740180Y-94825125D02*
X229740180Y-95015601D01*
X229740180Y-95015601D02*
X229787800Y-95110839D01*
X229787800Y-95110839D02*
X229883038Y-95206077D01*
X229883038Y-95206077D02*
X230073514Y-95253696D01*
X230073514Y-95253696D02*
X230406847Y-95253696D01*
X230406847Y-95253696D02*
X230597323Y-95206077D01*
X230597323Y-95206077D02*
X230692561Y-95110839D01*
X230692561Y-95110839D02*
X230740180Y-95015601D01*
X230263990Y-93825125D02*
X230263990Y-94158458D01*
X229740180Y-94158458D02*
X230740180Y-94158458D01*
X230740180Y-94158458D02*
X230740180Y-93682268D01*
X229835419Y-91967982D02*
X229787800Y-92015601D01*
X229787800Y-92015601D02*
X229740180Y-92158458D01*
X229740180Y-92158458D02*
X229740180Y-92253696D01*
X229740180Y-92253696D02*
X229787800Y-92396553D01*
X229787800Y-92396553D02*
X229883038Y-92491791D01*
X229883038Y-92491791D02*
X229978276Y-92539410D01*
X229978276Y-92539410D02*
X230168752Y-92587029D01*
X230168752Y-92587029D02*
X230311609Y-92587029D01*
X230311609Y-92587029D02*
X230502085Y-92539410D01*
X230502085Y-92539410D02*
X230597323Y-92491791D01*
X230597323Y-92491791D02*
X230692561Y-92396553D01*
X230692561Y-92396553D02*
X230740180Y-92253696D01*
X230740180Y-92253696D02*
X230740180Y-92158458D01*
X230740180Y-92158458D02*
X230692561Y-92015601D01*
X230692561Y-92015601D02*
X230644942Y-91967982D01*
X230740180Y-91348934D02*
X230740180Y-91158458D01*
X230740180Y-91158458D02*
X230692561Y-91063220D01*
X230692561Y-91063220D02*
X230597323Y-90967982D01*
X230597323Y-90967982D02*
X230406847Y-90920363D01*
X230406847Y-90920363D02*
X230073514Y-90920363D01*
X230073514Y-90920363D02*
X229883038Y-90967982D01*
X229883038Y-90967982D02*
X229787800Y-91063220D01*
X229787800Y-91063220D02*
X229740180Y-91158458D01*
X229740180Y-91158458D02*
X229740180Y-91348934D01*
X229740180Y-91348934D02*
X229787800Y-91444172D01*
X229787800Y-91444172D02*
X229883038Y-91539410D01*
X229883038Y-91539410D02*
X230073514Y-91587029D01*
X230073514Y-91587029D02*
X230406847Y-91587029D01*
X230406847Y-91587029D02*
X230597323Y-91539410D01*
X230597323Y-91539410D02*
X230692561Y-91444172D01*
X230692561Y-91444172D02*
X230740180Y-91348934D01*
X229740180Y-90491791D02*
X230740180Y-90491791D01*
X230740180Y-90491791D02*
X230025895Y-90158458D01*
X230025895Y-90158458D02*
X230740180Y-89825125D01*
X230740180Y-89825125D02*
X229740180Y-89825125D01*
X229740180Y-89348934D02*
X230740180Y-89348934D01*
X230740180Y-89348934D02*
X230740180Y-88967982D01*
X230740180Y-88967982D02*
X230692561Y-88872744D01*
X230692561Y-88872744D02*
X230644942Y-88825125D01*
X230644942Y-88825125D02*
X230549704Y-88777506D01*
X230549704Y-88777506D02*
X230406847Y-88777506D01*
X230406847Y-88777506D02*
X230311609Y-88825125D01*
X230311609Y-88825125D02*
X230263990Y-88872744D01*
X230263990Y-88872744D02*
X230216371Y-88967982D01*
X230216371Y-88967982D02*
X230216371Y-89348934D01*
X230025895Y-88396553D02*
X230025895Y-87920363D01*
X229740180Y-88491791D02*
X230740180Y-88158458D01*
X230740180Y-88158458D02*
X229740180Y-87825125D01*
X229740180Y-87491791D02*
X230740180Y-87491791D01*
X230740180Y-87491791D02*
X229740180Y-86920363D01*
X229740180Y-86920363D02*
X230740180Y-86920363D01*
X229740180Y-86444172D02*
X230740180Y-86444172D01*
X230263990Y-85967982D02*
X230263990Y-85634649D01*
X229740180Y-85491792D02*
X229740180Y-85967982D01*
X229740180Y-85967982D02*
X230740180Y-85967982D01*
X230740180Y-85967982D02*
X230740180Y-85491792D01*
X229787800Y-85110839D02*
X229740180Y-84967982D01*
X229740180Y-84967982D02*
X229740180Y-84729887D01*
X229740180Y-84729887D02*
X229787800Y-84634649D01*
X229787800Y-84634649D02*
X229835419Y-84587030D01*
X229835419Y-84587030D02*
X229930657Y-84539411D01*
X229930657Y-84539411D02*
X230025895Y-84539411D01*
X230025895Y-84539411D02*
X230121133Y-84587030D01*
X230121133Y-84587030D02*
X230168752Y-84634649D01*
X230168752Y-84634649D02*
X230216371Y-84729887D01*
X230216371Y-84729887D02*
X230263990Y-84920363D01*
X230263990Y-84920363D02*
X230311609Y-85015601D01*
X230311609Y-85015601D02*
X230359228Y-85063220D01*
X230359228Y-85063220D02*
X230454466Y-85110839D01*
X230454466Y-85110839D02*
X230549704Y-85110839D01*
X230549704Y-85110839D02*
X230644942Y-85063220D01*
X230644942Y-85063220D02*
X230692561Y-85015601D01*
X230692561Y-85015601D02*
X230740180Y-84920363D01*
X230740180Y-84920363D02*
X230740180Y-84682268D01*
X230740180Y-84682268D02*
X230692561Y-84539411D01*
G36*
X230429215Y-102703305D02*
G01*
X230447954Y-102704470D01*
X230466119Y-102706411D01*
X230483709Y-102709129D01*
X230500725Y-102712624D01*
X230517166Y-102716896D01*
X230533034Y-102721944D01*
X230548326Y-102727768D01*
X230563045Y-102734369D01*
X230577189Y-102741747D01*
X230590759Y-102749902D01*
X230603754Y-102758833D01*
X230616175Y-102768541D01*
X230628022Y-102779025D01*
X230639294Y-102790286D01*
X230649993Y-102802323D01*
X230655117Y-102808612D01*
X230664877Y-102821640D01*
X230673986Y-102835272D01*
X230682445Y-102849507D01*
X230690253Y-102864345D01*
X230697411Y-102879785D01*
X230703917Y-102895829D01*
X230709774Y-102912476D01*
X230714979Y-102929726D01*
X230719534Y-102947578D01*
X230723438Y-102966034D01*
X230726691Y-102985092D01*
X230728074Y-102994848D01*
X230729294Y-103004754D01*
X230730351Y-103014811D01*
X230731246Y-103025018D01*
X230731978Y-103035377D01*
X230732547Y-103045886D01*
X230732954Y-103056546D01*
X230733198Y-103067356D01*
X230733279Y-103078318D01*
X230733064Y-103096241D01*
X230732417Y-103113985D01*
X230731339Y-103131549D01*
X230729829Y-103148934D01*
X230727889Y-103166140D01*
X230725517Y-103183167D01*
X230722714Y-103200014D01*
X230719480Y-103216681D01*
X230715814Y-103233170D01*
X230711717Y-103249479D01*
X230707189Y-103265608D01*
X230702230Y-103281558D01*
X230696839Y-103297329D01*
X230691018Y-103312921D01*
X230684765Y-103328333D01*
X230678080Y-103343565D01*
X230670972Y-103358577D01*
X230663445Y-103373325D01*
X230655500Y-103387810D01*
X230647138Y-103402031D01*
X230638358Y-103415989D01*
X230629159Y-103429684D01*
X230619543Y-103443115D01*
X230609509Y-103456284D01*
X230599057Y-103469188D01*
X230588188Y-103481830D01*
X230576900Y-103494208D01*
X230565194Y-103506323D01*
X230553071Y-103518174D01*
X230540530Y-103529762D01*
X230527571Y-103541087D01*
X230514193Y-103552149D01*
X230500455Y-103562896D01*
X230486350Y-103573276D01*
X230471878Y-103583290D01*
X230457041Y-103592937D01*
X230441837Y-103602219D01*
X230426266Y-103611133D01*
X230410329Y-103619682D01*
X230394026Y-103627864D01*
X230377356Y-103635680D01*
X230360321Y-103643129D01*
X230342918Y-103650212D01*
X230325150Y-103656929D01*
X230307015Y-103663279D01*
X230288513Y-103669263D01*
X230279125Y-103672118D01*
X230269645Y-103674881D01*
X230260074Y-103677552D01*
X230250411Y-103680132D01*
X230244661Y-103681605D01*
X230233283Y-103684410D01*
X230222067Y-103687028D01*
X230211013Y-103689459D01*
X230200121Y-103691703D01*
X230189392Y-103693760D01*
X230178824Y-103695630D01*
X230168419Y-103697313D01*
X230158176Y-103698809D01*
X230148096Y-103700118D01*
X230138177Y-103701240D01*
X230128421Y-103702175D01*
X230114090Y-103703226D01*
X230100125Y-103703858D01*
X230086524Y-103704068D01*
X230067211Y-103703680D01*
X230048472Y-103702515D01*
X230030307Y-103700573D01*
X230012717Y-103697855D01*
X229995701Y-103694360D01*
X229979260Y-103690089D01*
X229963392Y-103685041D01*
X229948100Y-103679216D01*
X229933381Y-103672615D01*
X229919237Y-103665237D01*
X229905667Y-103657083D01*
X229892672Y-103648152D01*
X229880251Y-103638444D01*
X229868404Y-103627960D01*
X229857132Y-103616699D01*
X229846434Y-103604661D01*
X229841309Y-103598374D01*
X229831549Y-103585357D01*
X229822440Y-103571748D01*
X229813981Y-103557547D01*
X229806173Y-103542756D01*
X229799015Y-103527372D01*
X229792509Y-103511397D01*
X229786652Y-103494830D01*
X229781447Y-103477672D01*
X229776892Y-103459923D01*
X229772988Y-103441582D01*
X229769735Y-103422649D01*
X229768352Y-103412961D01*
X229767132Y-103403125D01*
X229766075Y-103393141D01*
X229765180Y-103383009D01*
X229764448Y-103372730D01*
X229763879Y-103362302D01*
X229763472Y-103351727D01*
X229763228Y-103341003D01*
X229763147Y-103330132D01*
X229763365Y-103312383D01*
X229763532Y-103307906D01*
X229887711Y-103307906D01*
X229887730Y-103309980D01*
X229888398Y-103319819D01*
X229890458Y-103330460D01*
X229893893Y-103339831D01*
X229899637Y-103349158D01*
X229907250Y-103356755D01*
X229909816Y-103358618D01*
X229918623Y-103363487D01*
X229929095Y-103367273D01*
X229939095Y-103369602D01*
X229950252Y-103371180D01*
X229960010Y-103371901D01*
X229970509Y-103372142D01*
X229980237Y-103371923D01*
X229990918Y-103371268D01*
X230002554Y-103370176D01*
X230015144Y-103368646D01*
X230028688Y-103366680D01*
X230043186Y-103364276D01*
X230058639Y-103361436D01*
X230075045Y-103358159D01*
X230092405Y-103354445D01*
X230110720Y-103350294D01*
X230120235Y-103348054D01*
X230129988Y-103345705D01*
X230139980Y-103343248D01*
X230150211Y-103340680D01*
X230160680Y-103338004D01*
X230171387Y-103335218D01*
X230182333Y-103332323D01*
X230193518Y-103329319D01*
X230204941Y-103326206D01*
X230216603Y-103322983D01*
X230228503Y-103319651D01*
X230240642Y-103316210D01*
X230257384Y-103311498D01*
X230273660Y-103306826D01*
X230289471Y-103302194D01*
X230304816Y-103297602D01*
X230319696Y-103293050D01*
X230334110Y-103288538D01*
X230348059Y-103284067D01*
X230361542Y-103279635D01*
X230374559Y-103275243D01*
X230387111Y-103270892D01*
X230399197Y-103266580D01*
X230410818Y-103262309D01*
X230421973Y-103258078D01*
X230432662Y-103253886D01*
X230442886Y-103249735D01*
X230452644Y-103245624D01*
X230462032Y-103241501D01*
X230471085Y-103237373D01*
X230484033Y-103231175D01*
X230496226Y-103224968D01*
X230507664Y-103218753D01*
X230518346Y-103212529D01*
X230528272Y-103206297D01*
X230537442Y-103200056D01*
X230545857Y-103193806D01*
X230553517Y-103187548D01*
X230562554Y-103179190D01*
X230570453Y-103170634D01*
X230577300Y-103161818D01*
X230583093Y-103152743D01*
X230587833Y-103143408D01*
X230591519Y-103133814D01*
X230594153Y-103123961D01*
X230595732Y-103113847D01*
X230596259Y-103103475D01*
X230595776Y-103093811D01*
X230593921Y-103083301D01*
X230589999Y-103072537D01*
X230584184Y-103063386D01*
X230576475Y-103055847D01*
X230573935Y-103053984D01*
X230565133Y-103049115D01*
X230554563Y-103045329D01*
X230544404Y-103043000D01*
X230533015Y-103041422D01*
X230523021Y-103040700D01*
X230512240Y-103040460D01*
X230507227Y-103040513D01*
X230496530Y-103040939D01*
X230484936Y-103041790D01*
X230472446Y-103043066D01*
X230459058Y-103044768D01*
X230444774Y-103046896D01*
X230429592Y-103049449D01*
X230413514Y-103052428D01*
X230396540Y-103055832D01*
X230378668Y-103059662D01*
X230359899Y-103063917D01*
X230350179Y-103066204D01*
X230340234Y-103068597D01*
X230330065Y-103071097D01*
X230319672Y-103073704D01*
X230309054Y-103076416D01*
X230298213Y-103079235D01*
X230287147Y-103082161D01*
X230275857Y-103085193D01*
X230264343Y-103088331D01*
X230252604Y-103091575D01*
X230240642Y-103094926D01*
X230224227Y-103099814D01*
X230208260Y-103104646D01*
X230192742Y-103109423D01*
X230177673Y-103114145D01*
X230163051Y-103118811D01*
X230148879Y-103123422D01*
X230135154Y-103127978D01*
X230121878Y-103132479D01*
X230109051Y-103136924D01*
X230096672Y-103141313D01*
X230084741Y-103145648D01*
X230073259Y-103149927D01*
X230062225Y-103154150D01*
X230051640Y-103158319D01*
X230041502Y-103162432D01*
X230031814Y-103166489D01*
X230022540Y-103170496D01*
X230013587Y-103174515D01*
X230000759Y-103180569D01*
X229988652Y-103186654D01*
X229977266Y-103192768D01*
X229966601Y-103198913D01*
X229956658Y-103205087D01*
X229947436Y-103211292D01*
X229938935Y-103217526D01*
X229931155Y-103223791D01*
X229921905Y-103232191D01*
X229913890Y-103240747D01*
X229906945Y-103249562D01*
X229901068Y-103258638D01*
X229896259Y-103267972D01*
X229892519Y-103277566D01*
X229889848Y-103287420D01*
X229888245Y-103297533D01*
X229887711Y-103307906D01*
X229763532Y-103307906D01*
X229764021Y-103294797D01*
X229765113Y-103277373D01*
X229766642Y-103260111D01*
X229768609Y-103243011D01*
X229771012Y-103226073D01*
X229773852Y-103209298D01*
X229777130Y-103192684D01*
X229780844Y-103176233D01*
X229784995Y-103159944D01*
X229789583Y-103143818D01*
X229794608Y-103127853D01*
X229800070Y-103112051D01*
X229805969Y-103096411D01*
X229812305Y-103080933D01*
X229819078Y-103065617D01*
X229826307Y-103050514D01*
X229833950Y-103035674D01*
X229842008Y-103021098D01*
X229850479Y-103006785D01*
X229859364Y-102992735D01*
X229868663Y-102978949D01*
X229878377Y-102965426D01*
X229888504Y-102952166D01*
X229899046Y-102939170D01*
X229910002Y-102926437D01*
X229921371Y-102913967D01*
X229933155Y-102901761D01*
X229945353Y-102889818D01*
X229957965Y-102878138D01*
X229970991Y-102866721D01*
X229984431Y-102855568D01*
X229998264Y-102844727D01*
X230012469Y-102834247D01*
X230027046Y-102824127D01*
X230041996Y-102814368D01*
X230057317Y-102804969D01*
X230073011Y-102795931D01*
X230089076Y-102787254D01*
X230105514Y-102778937D01*
X230122324Y-102770981D01*
X230139506Y-102763386D01*
X230157060Y-102756151D01*
X230174986Y-102749277D01*
X230193284Y-102742763D01*
X230202573Y-102739642D01*
X230211954Y-102736611D01*
X230221429Y-102733669D01*
X230230997Y-102730818D01*
X230240657Y-102728057D01*
X230250411Y-102725387D01*
X230261052Y-102722666D01*
X230271603Y-102720120D01*
X230282065Y-102717750D01*
X230292436Y-102715556D01*
X230302718Y-102713537D01*
X230312911Y-102711694D01*
X230323013Y-102710026D01*
X230333026Y-102708534D01*
X230342950Y-102707217D01*
X230352783Y-102706076D01*
X230367366Y-102704694D01*
X230381746Y-102703706D01*
X230395925Y-102703114D01*
X230409902Y-102702916D01*
X230429215Y-102703305D01*
G37*
G36*
X230712519Y-101699323D02*
G01*
X230712197Y-101689065D01*
X230710766Y-101676958D01*
X230708190Y-101666644D01*
X230703360Y-101656275D01*
X230696741Y-101648708D01*
X230686437Y-101643327D01*
X230675882Y-101641926D01*
X230665864Y-101642403D01*
X230661960Y-101643147D01*
X230652378Y-101646994D01*
X230643934Y-101652401D01*
X230640223Y-101655847D01*
X230633708Y-101663804D01*
X230627629Y-101672425D01*
X230622882Y-101679783D01*
X230617196Y-101688634D01*
X230611254Y-101696807D01*
X230604148Y-101705317D01*
X230596707Y-101712942D01*
X230594794Y-101714710D01*
X230586047Y-101721411D01*
X230576665Y-101726849D01*
X230567340Y-101731194D01*
X230556830Y-101735247D01*
X230547166Y-101738401D01*
X229925568Y-101912058D01*
X229915262Y-101915067D01*
X229905350Y-101918172D01*
X229895830Y-101921372D01*
X229882287Y-101926351D01*
X229869629Y-101931544D01*
X229857855Y-101936952D01*
X229846966Y-101942575D01*
X229836961Y-101948413D01*
X229827841Y-101954465D01*
X229819605Y-101960732D01*
X229812253Y-101967213D01*
X229807843Y-101971653D01*
X229800001Y-101980996D01*
X229793204Y-101991193D01*
X229787453Y-102002245D01*
X229782747Y-102014152D01*
X229779904Y-102023643D01*
X229777650Y-102033615D01*
X229775983Y-102044068D01*
X229774905Y-102055001D01*
X229774415Y-102066416D01*
X229774382Y-102070327D01*
X229774670Y-102080649D01*
X229775533Y-102090641D01*
X229777578Y-102103448D01*
X229780646Y-102115668D01*
X229784737Y-102127300D01*
X229789851Y-102138344D01*
X229795988Y-102148801D01*
X229803147Y-102158670D01*
X229807110Y-102163384D01*
X229815911Y-102172589D01*
X229823242Y-102179392D01*
X229831201Y-102186110D01*
X229839786Y-102192742D01*
X229848998Y-102199288D01*
X229858837Y-102205748D01*
X229869303Y-102212122D01*
X229880395Y-102218410D01*
X229892115Y-102224613D01*
X229904461Y-102230729D01*
X229908715Y-102232749D01*
X230353970Y-102444019D01*
X229945108Y-102561744D01*
X229935269Y-102563751D01*
X229925109Y-102565211D01*
X229914868Y-102565880D01*
X229913112Y-102565896D01*
X229903310Y-102565394D01*
X229893598Y-102563657D01*
X229884347Y-102560315D01*
X229882826Y-102559546D01*
X229873896Y-102554096D01*
X229865468Y-102547894D01*
X229858401Y-102541960D01*
X229850668Y-102535965D01*
X229841549Y-102530420D01*
X229831663Y-102526949D01*
X229827627Y-102526573D01*
X229817610Y-102527330D01*
X229814926Y-102528039D01*
X229804863Y-102532319D01*
X229796654Y-102538841D01*
X229790300Y-102547603D01*
X229787571Y-102553440D01*
X229784621Y-102562923D01*
X229782669Y-102572540D01*
X229781249Y-102583531D01*
X229780473Y-102593740D01*
X229780066Y-102604903D01*
X229780000Y-102612058D01*
X229780000Y-102764710D01*
X229780319Y-102774967D01*
X229781741Y-102787075D01*
X229784300Y-102797388D01*
X229789098Y-102807758D01*
X229795672Y-102815325D01*
X229805908Y-102820706D01*
X229816392Y-102822107D01*
X229826409Y-102821535D01*
X229830314Y-102820642D01*
X229840011Y-102816909D01*
X229848423Y-102811470D01*
X229852051Y-102807941D01*
X229858724Y-102800025D01*
X229864874Y-102791500D01*
X229869637Y-102784249D01*
X229875227Y-102775399D01*
X229881097Y-102767226D01*
X229888149Y-102758715D01*
X229895568Y-102751090D01*
X229897480Y-102749323D01*
X229906319Y-102742514D01*
X229915731Y-102737008D01*
X229925044Y-102732623D01*
X229935508Y-102728547D01*
X229945108Y-102725387D01*
X230573789Y-102547578D01*
X230619951Y-102570048D01*
X230630235Y-102574780D01*
X230640021Y-102578532D01*
X230650808Y-102581673D01*
X230660918Y-102583481D01*
X230669043Y-102583970D01*
X230679233Y-102583096D01*
X230690059Y-102579546D01*
X230698763Y-102573265D01*
X230705344Y-102564252D01*
X230709080Y-102555076D01*
X230711457Y-102544152D01*
X230712476Y-102531480D01*
X230712519Y-102528039D01*
X230712519Y-102320921D01*
X230712198Y-102310029D01*
X230711236Y-102299824D01*
X230709133Y-102288034D01*
X230706027Y-102277318D01*
X230701920Y-102267674D01*
X230696811Y-102259104D01*
X230692002Y-102253021D01*
X230684898Y-102245687D01*
X230676255Y-102238185D01*
X230668233Y-102232064D01*
X230659227Y-102225836D01*
X230649236Y-102219501D01*
X230638260Y-102213059D01*
X230629382Y-102208157D01*
X230619951Y-102203196D01*
X230209867Y-101998764D01*
X230547166Y-101902288D01*
X230557616Y-101900281D01*
X230567958Y-101898822D01*
X230577792Y-101898152D01*
X230579406Y-101898136D01*
X230590106Y-101898756D01*
X230600499Y-101900871D01*
X230609448Y-101904487D01*
X230618527Y-101909787D01*
X230627031Y-101915914D01*
X230634117Y-101921828D01*
X230642818Y-101928560D01*
X230651804Y-101933834D01*
X230661632Y-101936975D01*
X230664891Y-101937215D01*
X230674684Y-101936458D01*
X230677348Y-101935750D01*
X230687411Y-101931607D01*
X230695620Y-101925222D01*
X230701974Y-101916597D01*
X230704703Y-101910837D01*
X230707748Y-101901258D01*
X230709763Y-101891578D01*
X230711229Y-101880541D01*
X230712030Y-101870308D01*
X230712450Y-101859132D01*
X230712519Y-101851974D01*
X230712519Y-101699323D01*
G37*
X229830180Y-106033220D02*
X230830180Y-106033220D01*
X230496847Y-105699887D02*
X230496847Y-105318935D01*
X230830180Y-105557030D02*
X229973038Y-105557030D01*
X229973038Y-105557030D02*
X229877800Y-105509411D01*
X229877800Y-105509411D02*
X229830180Y-105414173D01*
X229830180Y-105414173D02*
X229830180Y-105318935D01*
X230830180Y-104937982D02*
X230639704Y-105033220D01*
X229877800Y-104557030D02*
X229830180Y-104461792D01*
X229830180Y-104461792D02*
X229830180Y-104271316D01*
X229830180Y-104271316D02*
X229877800Y-104176078D01*
X229877800Y-104176078D02*
X229973038Y-104128459D01*
X229973038Y-104128459D02*
X230020657Y-104128459D01*
X230020657Y-104128459D02*
X230115895Y-104176078D01*
X230115895Y-104176078D02*
X230163514Y-104271316D01*
X230163514Y-104271316D02*
X230163514Y-104414173D01*
X230163514Y-104414173D02*
X230211133Y-104509411D01*
X230211133Y-104509411D02*
X230306371Y-104557030D01*
X230306371Y-104557030D02*
X230353990Y-104557030D01*
X230353990Y-104557030D02*
X230449228Y-104509411D01*
X230449228Y-104509411D02*
X230496847Y-104414173D01*
X230496847Y-104414173D02*
X230496847Y-104271316D01*
X230496847Y-104271316D02*
X230449228Y-104176078D01*
X234170180Y-105852744D02*
X234170180Y-105662268D01*
X234170180Y-105662268D02*
X234122561Y-105567030D01*
X234122561Y-105567030D02*
X234027323Y-105471792D01*
X234027323Y-105471792D02*
X233836847Y-105424173D01*
X233836847Y-105424173D02*
X233503514Y-105424173D01*
X233503514Y-105424173D02*
X233313038Y-105471792D01*
X233313038Y-105471792D02*
X233217800Y-105567030D01*
X233217800Y-105567030D02*
X233170180Y-105662268D01*
X233170180Y-105662268D02*
X233170180Y-105852744D01*
X233170180Y-105852744D02*
X233217800Y-105947982D01*
X233217800Y-105947982D02*
X233313038Y-106043220D01*
X233313038Y-106043220D02*
X233503514Y-106090839D01*
X233503514Y-106090839D02*
X233836847Y-106090839D01*
X233836847Y-106090839D02*
X234027323Y-106043220D01*
X234027323Y-106043220D02*
X234122561Y-105947982D01*
X234122561Y-105947982D02*
X234170180Y-105852744D01*
X233170180Y-104995601D02*
X234170180Y-104995601D01*
X234170180Y-104995601D02*
X234170180Y-104614649D01*
X234170180Y-104614649D02*
X234122561Y-104519411D01*
X234122561Y-104519411D02*
X234074942Y-104471792D01*
X234074942Y-104471792D02*
X233979704Y-104424173D01*
X233979704Y-104424173D02*
X233836847Y-104424173D01*
X233836847Y-104424173D02*
X233741609Y-104471792D01*
X233741609Y-104471792D02*
X233693990Y-104519411D01*
X233693990Y-104519411D02*
X233646371Y-104614649D01*
X233646371Y-104614649D02*
X233646371Y-104995601D01*
X233693990Y-103995601D02*
X233693990Y-103662268D01*
X233170180Y-103519411D02*
X233170180Y-103995601D01*
X233170180Y-103995601D02*
X234170180Y-103995601D01*
X234170180Y-103995601D02*
X234170180Y-103519411D01*
X233170180Y-103090839D02*
X234170180Y-103090839D01*
X234170180Y-103090839D02*
X233170180Y-102519411D01*
X233170180Y-102519411D02*
X234170180Y-102519411D01*
X233551133Y-102043220D02*
X233551133Y-101281316D01*
X233217800Y-100852744D02*
X233170180Y-100709887D01*
X233170180Y-100709887D02*
X233170180Y-100471792D01*
X233170180Y-100471792D02*
X233217800Y-100376554D01*
X233217800Y-100376554D02*
X233265419Y-100328935D01*
X233265419Y-100328935D02*
X233360657Y-100281316D01*
X233360657Y-100281316D02*
X233455895Y-100281316D01*
X233455895Y-100281316D02*
X233551133Y-100328935D01*
X233551133Y-100328935D02*
X233598752Y-100376554D01*
X233598752Y-100376554D02*
X233646371Y-100471792D01*
X233646371Y-100471792D02*
X233693990Y-100662268D01*
X233693990Y-100662268D02*
X233741609Y-100757506D01*
X233741609Y-100757506D02*
X233789228Y-100805125D01*
X233789228Y-100805125D02*
X233884466Y-100852744D01*
X233884466Y-100852744D02*
X233979704Y-100852744D01*
X233979704Y-100852744D02*
X234074942Y-100805125D01*
X234074942Y-100805125D02*
X234122561Y-100757506D01*
X234122561Y-100757506D02*
X234170180Y-100662268D01*
X234170180Y-100662268D02*
X234170180Y-100424173D01*
X234170180Y-100424173D02*
X234122561Y-100281316D01*
X234170180Y-99662268D02*
X234170180Y-99471792D01*
X234170180Y-99471792D02*
X234122561Y-99376554D01*
X234122561Y-99376554D02*
X234027323Y-99281316D01*
X234027323Y-99281316D02*
X233836847Y-99233697D01*
X233836847Y-99233697D02*
X233503514Y-99233697D01*
X233503514Y-99233697D02*
X233313038Y-99281316D01*
X233313038Y-99281316D02*
X233217800Y-99376554D01*
X233217800Y-99376554D02*
X233170180Y-99471792D01*
X233170180Y-99471792D02*
X233170180Y-99662268D01*
X233170180Y-99662268D02*
X233217800Y-99757506D01*
X233217800Y-99757506D02*
X233313038Y-99852744D01*
X233313038Y-99852744D02*
X233503514Y-99900363D01*
X233503514Y-99900363D02*
X233836847Y-99900363D01*
X233836847Y-99900363D02*
X234027323Y-99852744D01*
X234027323Y-99852744D02*
X234122561Y-99757506D01*
X234122561Y-99757506D02*
X234170180Y-99662268D01*
X234170180Y-98805125D02*
X233360657Y-98805125D01*
X233360657Y-98805125D02*
X233265419Y-98757506D01*
X233265419Y-98757506D02*
X233217800Y-98709887D01*
X233217800Y-98709887D02*
X233170180Y-98614649D01*
X233170180Y-98614649D02*
X233170180Y-98424173D01*
X233170180Y-98424173D02*
X233217800Y-98328935D01*
X233217800Y-98328935D02*
X233265419Y-98281316D01*
X233265419Y-98281316D02*
X233360657Y-98233697D01*
X233360657Y-98233697D02*
X234170180Y-98233697D01*
X233170180Y-97186078D02*
X233646371Y-97519411D01*
X233170180Y-97757506D02*
X234170180Y-97757506D01*
X234170180Y-97757506D02*
X234170180Y-97376554D01*
X234170180Y-97376554D02*
X234122561Y-97281316D01*
X234122561Y-97281316D02*
X234074942Y-97233697D01*
X234074942Y-97233697D02*
X233979704Y-97186078D01*
X233979704Y-97186078D02*
X233836847Y-97186078D01*
X233836847Y-97186078D02*
X233741609Y-97233697D01*
X233741609Y-97233697D02*
X233693990Y-97281316D01*
X233693990Y-97281316D02*
X233646371Y-97376554D01*
X233646371Y-97376554D02*
X233646371Y-97757506D01*
X233265419Y-96186078D02*
X233217800Y-96233697D01*
X233217800Y-96233697D02*
X233170180Y-96376554D01*
X233170180Y-96376554D02*
X233170180Y-96471792D01*
X233170180Y-96471792D02*
X233217800Y-96614649D01*
X233217800Y-96614649D02*
X233313038Y-96709887D01*
X233313038Y-96709887D02*
X233408276Y-96757506D01*
X233408276Y-96757506D02*
X233598752Y-96805125D01*
X233598752Y-96805125D02*
X233741609Y-96805125D01*
X233741609Y-96805125D02*
X233932085Y-96757506D01*
X233932085Y-96757506D02*
X234027323Y-96709887D01*
X234027323Y-96709887D02*
X234122561Y-96614649D01*
X234122561Y-96614649D02*
X234170180Y-96471792D01*
X234170180Y-96471792D02*
X234170180Y-96376554D01*
X234170180Y-96376554D02*
X234122561Y-96233697D01*
X234122561Y-96233697D02*
X234074942Y-96186078D01*
X233693990Y-95757506D02*
X233693990Y-95424173D01*
X233170180Y-95281316D02*
X233170180Y-95757506D01*
X233170180Y-95757506D02*
X234170180Y-95757506D01*
X234170180Y-95757506D02*
X234170180Y-95281316D01*
X233170180Y-94090839D02*
X234170180Y-94090839D01*
X233693990Y-94090839D02*
X233693990Y-93519411D01*
X233170180Y-93519411D02*
X234170180Y-93519411D01*
X233455895Y-93090839D02*
X233455895Y-92614649D01*
X233170180Y-93186077D02*
X234170180Y-92852744D01*
X234170180Y-92852744D02*
X233170180Y-92519411D01*
X233170180Y-91614649D02*
X233646371Y-91947982D01*
X233170180Y-92186077D02*
X234170180Y-92186077D01*
X234170180Y-92186077D02*
X234170180Y-91805125D01*
X234170180Y-91805125D02*
X234122561Y-91709887D01*
X234122561Y-91709887D02*
X234074942Y-91662268D01*
X234074942Y-91662268D02*
X233979704Y-91614649D01*
X233979704Y-91614649D02*
X233836847Y-91614649D01*
X233836847Y-91614649D02*
X233741609Y-91662268D01*
X233741609Y-91662268D02*
X233693990Y-91709887D01*
X233693990Y-91709887D02*
X233646371Y-91805125D01*
X233646371Y-91805125D02*
X233646371Y-92186077D01*
X233170180Y-91186077D02*
X234170180Y-91186077D01*
X234170180Y-91186077D02*
X234170180Y-90947982D01*
X234170180Y-90947982D02*
X234122561Y-90805125D01*
X234122561Y-90805125D02*
X234027323Y-90709887D01*
X234027323Y-90709887D02*
X233932085Y-90662268D01*
X233932085Y-90662268D02*
X233741609Y-90614649D01*
X233741609Y-90614649D02*
X233598752Y-90614649D01*
X233598752Y-90614649D02*
X233408276Y-90662268D01*
X233408276Y-90662268D02*
X233313038Y-90709887D01*
X233313038Y-90709887D02*
X233217800Y-90805125D01*
X233217800Y-90805125D02*
X233170180Y-90947982D01*
X233170180Y-90947982D02*
X233170180Y-91186077D01*
X234170180Y-90281315D02*
X233170180Y-90043220D01*
X233170180Y-90043220D02*
X233884466Y-89852744D01*
X233884466Y-89852744D02*
X233170180Y-89662268D01*
X233170180Y-89662268D02*
X234170180Y-89424173D01*
X233455895Y-89090839D02*
X233455895Y-88614649D01*
X233170180Y-89186077D02*
X234170180Y-88852744D01*
X234170180Y-88852744D02*
X233170180Y-88519411D01*
X233170180Y-87614649D02*
X233646371Y-87947982D01*
X233170180Y-88186077D02*
X234170180Y-88186077D01*
X234170180Y-88186077D02*
X234170180Y-87805125D01*
X234170180Y-87805125D02*
X234122561Y-87709887D01*
X234122561Y-87709887D02*
X234074942Y-87662268D01*
X234074942Y-87662268D02*
X233979704Y-87614649D01*
X233979704Y-87614649D02*
X233836847Y-87614649D01*
X233836847Y-87614649D02*
X233741609Y-87662268D01*
X233741609Y-87662268D02*
X233693990Y-87709887D01*
X233693990Y-87709887D02*
X233646371Y-87805125D01*
X233646371Y-87805125D02*
X233646371Y-88186077D01*
X233693990Y-87186077D02*
X233693990Y-86852744D01*
X233170180Y-86709887D02*
X233170180Y-87186077D01*
X233170180Y-87186077D02*
X234170180Y-87186077D01*
X234170180Y-87186077D02*
X234170180Y-86709887D01*
X231560180Y-106043220D02*
X232560180Y-106043220D01*
X232560180Y-106043220D02*
X232560180Y-105662268D01*
X232560180Y-105662268D02*
X232512561Y-105567030D01*
X232512561Y-105567030D02*
X232464942Y-105519411D01*
X232464942Y-105519411D02*
X232369704Y-105471792D01*
X232369704Y-105471792D02*
X232226847Y-105471792D01*
X232226847Y-105471792D02*
X232131609Y-105519411D01*
X232131609Y-105519411D02*
X232083990Y-105567030D01*
X232083990Y-105567030D02*
X232036371Y-105662268D01*
X232036371Y-105662268D02*
X232036371Y-106043220D01*
X231560180Y-104471792D02*
X232036371Y-104805125D01*
X231560180Y-105043220D02*
X232560180Y-105043220D01*
X232560180Y-105043220D02*
X232560180Y-104662268D01*
X232560180Y-104662268D02*
X232512561Y-104567030D01*
X232512561Y-104567030D02*
X232464942Y-104519411D01*
X232464942Y-104519411D02*
X232369704Y-104471792D01*
X232369704Y-104471792D02*
X232226847Y-104471792D01*
X232226847Y-104471792D02*
X232131609Y-104519411D01*
X232131609Y-104519411D02*
X232083990Y-104567030D01*
X232083990Y-104567030D02*
X232036371Y-104662268D01*
X232036371Y-104662268D02*
X232036371Y-105043220D01*
X232560180Y-103852744D02*
X232560180Y-103662268D01*
X232560180Y-103662268D02*
X232512561Y-103567030D01*
X232512561Y-103567030D02*
X232417323Y-103471792D01*
X232417323Y-103471792D02*
X232226847Y-103424173D01*
X232226847Y-103424173D02*
X231893514Y-103424173D01*
X231893514Y-103424173D02*
X231703038Y-103471792D01*
X231703038Y-103471792D02*
X231607800Y-103567030D01*
X231607800Y-103567030D02*
X231560180Y-103662268D01*
X231560180Y-103662268D02*
X231560180Y-103852744D01*
X231560180Y-103852744D02*
X231607800Y-103947982D01*
X231607800Y-103947982D02*
X231703038Y-104043220D01*
X231703038Y-104043220D02*
X231893514Y-104090839D01*
X231893514Y-104090839D02*
X232226847Y-104090839D01*
X232226847Y-104090839D02*
X232417323Y-104043220D01*
X232417323Y-104043220D02*
X232512561Y-103947982D01*
X232512561Y-103947982D02*
X232560180Y-103852744D01*
X231560180Y-102995601D02*
X232560180Y-102995601D01*
X232560180Y-102995601D02*
X232560180Y-102757506D01*
X232560180Y-102757506D02*
X232512561Y-102614649D01*
X232512561Y-102614649D02*
X232417323Y-102519411D01*
X232417323Y-102519411D02*
X232322085Y-102471792D01*
X232322085Y-102471792D02*
X232131609Y-102424173D01*
X232131609Y-102424173D02*
X231988752Y-102424173D01*
X231988752Y-102424173D02*
X231798276Y-102471792D01*
X231798276Y-102471792D02*
X231703038Y-102519411D01*
X231703038Y-102519411D02*
X231607800Y-102614649D01*
X231607800Y-102614649D02*
X231560180Y-102757506D01*
X231560180Y-102757506D02*
X231560180Y-102995601D01*
X232560180Y-101995601D02*
X231750657Y-101995601D01*
X231750657Y-101995601D02*
X231655419Y-101947982D01*
X231655419Y-101947982D02*
X231607800Y-101900363D01*
X231607800Y-101900363D02*
X231560180Y-101805125D01*
X231560180Y-101805125D02*
X231560180Y-101614649D01*
X231560180Y-101614649D02*
X231607800Y-101519411D01*
X231607800Y-101519411D02*
X231655419Y-101471792D01*
X231655419Y-101471792D02*
X231750657Y-101424173D01*
X231750657Y-101424173D02*
X232560180Y-101424173D01*
X231655419Y-100376554D02*
X231607800Y-100424173D01*
X231607800Y-100424173D02*
X231560180Y-100567030D01*
X231560180Y-100567030D02*
X231560180Y-100662268D01*
X231560180Y-100662268D02*
X231607800Y-100805125D01*
X231607800Y-100805125D02*
X231703038Y-100900363D01*
X231703038Y-100900363D02*
X231798276Y-100947982D01*
X231798276Y-100947982D02*
X231988752Y-100995601D01*
X231988752Y-100995601D02*
X232131609Y-100995601D01*
X232131609Y-100995601D02*
X232322085Y-100947982D01*
X232322085Y-100947982D02*
X232417323Y-100900363D01*
X232417323Y-100900363D02*
X232512561Y-100805125D01*
X232512561Y-100805125D02*
X232560180Y-100662268D01*
X232560180Y-100662268D02*
X232560180Y-100567030D01*
X232560180Y-100567030D02*
X232512561Y-100424173D01*
X232512561Y-100424173D02*
X232464942Y-100376554D01*
X232560180Y-100090839D02*
X232560180Y-99519411D01*
X231560180Y-99805125D02*
X232560180Y-99805125D01*
X231560180Y-99186077D02*
X232560180Y-99186077D01*
X232560180Y-98519411D02*
X232560180Y-98328935D01*
X232560180Y-98328935D02*
X232512561Y-98233697D01*
X232512561Y-98233697D02*
X232417323Y-98138459D01*
X232417323Y-98138459D02*
X232226847Y-98090840D01*
X232226847Y-98090840D02*
X231893514Y-98090840D01*
X231893514Y-98090840D02*
X231703038Y-98138459D01*
X231703038Y-98138459D02*
X231607800Y-98233697D01*
X231607800Y-98233697D02*
X231560180Y-98328935D01*
X231560180Y-98328935D02*
X231560180Y-98519411D01*
X231560180Y-98519411D02*
X231607800Y-98614649D01*
X231607800Y-98614649D02*
X231703038Y-98709887D01*
X231703038Y-98709887D02*
X231893514Y-98757506D01*
X231893514Y-98757506D02*
X232226847Y-98757506D01*
X232226847Y-98757506D02*
X232417323Y-98709887D01*
X232417323Y-98709887D02*
X232512561Y-98614649D01*
X232512561Y-98614649D02*
X232560180Y-98519411D01*
X231560180Y-97662268D02*
X232560180Y-97662268D01*
X232560180Y-97662268D02*
X231560180Y-97090840D01*
X231560180Y-97090840D02*
X232560180Y-97090840D01*
X232560180Y-95662268D02*
X232560180Y-95471792D01*
X232560180Y-95471792D02*
X232512561Y-95376554D01*
X232512561Y-95376554D02*
X232417323Y-95281316D01*
X232417323Y-95281316D02*
X232226847Y-95233697D01*
X232226847Y-95233697D02*
X231893514Y-95233697D01*
X231893514Y-95233697D02*
X231703038Y-95281316D01*
X231703038Y-95281316D02*
X231607800Y-95376554D01*
X231607800Y-95376554D02*
X231560180Y-95471792D01*
X231560180Y-95471792D02*
X231560180Y-95662268D01*
X231560180Y-95662268D02*
X231607800Y-95757506D01*
X231607800Y-95757506D02*
X231703038Y-95852744D01*
X231703038Y-95852744D02*
X231893514Y-95900363D01*
X231893514Y-95900363D02*
X232226847Y-95900363D01*
X232226847Y-95900363D02*
X232417323Y-95852744D01*
X232417323Y-95852744D02*
X232512561Y-95757506D01*
X232512561Y-95757506D02*
X232560180Y-95662268D01*
X232083990Y-94471792D02*
X232083990Y-94805125D01*
X231560180Y-94805125D02*
X232560180Y-94805125D01*
X232560180Y-94805125D02*
X232560180Y-94328935D01*
X232083990Y-93186077D02*
X232083990Y-92852744D01*
X231560180Y-92709887D02*
X231560180Y-93186077D01*
X231560180Y-93186077D02*
X232560180Y-93186077D01*
X232560180Y-93186077D02*
X232560180Y-92709887D01*
X231607800Y-92328934D02*
X231560180Y-92186077D01*
X231560180Y-92186077D02*
X231560180Y-91947982D01*
X231560180Y-91947982D02*
X231607800Y-91852744D01*
X231607800Y-91852744D02*
X231655419Y-91805125D01*
X231655419Y-91805125D02*
X231750657Y-91757506D01*
X231750657Y-91757506D02*
X231845895Y-91757506D01*
X231845895Y-91757506D02*
X231941133Y-91805125D01*
X231941133Y-91805125D02*
X231988752Y-91852744D01*
X231988752Y-91852744D02*
X232036371Y-91947982D01*
X232036371Y-91947982D02*
X232083990Y-92138458D01*
X232083990Y-92138458D02*
X232131609Y-92233696D01*
X232131609Y-92233696D02*
X232179228Y-92281315D01*
X232179228Y-92281315D02*
X232274466Y-92328934D01*
X232274466Y-92328934D02*
X232369704Y-92328934D01*
X232369704Y-92328934D02*
X232464942Y-92281315D01*
X232464942Y-92281315D02*
X232512561Y-92233696D01*
X232512561Y-92233696D02*
X232560180Y-92138458D01*
X232560180Y-92138458D02*
X232560180Y-91900363D01*
X232560180Y-91900363D02*
X232512561Y-91757506D01*
X231655419Y-90757506D02*
X231607800Y-90805125D01*
X231607800Y-90805125D02*
X231560180Y-90947982D01*
X231560180Y-90947982D02*
X231560180Y-91043220D01*
X231560180Y-91043220D02*
X231607800Y-91186077D01*
X231607800Y-91186077D02*
X231703038Y-91281315D01*
X231703038Y-91281315D02*
X231798276Y-91328934D01*
X231798276Y-91328934D02*
X231988752Y-91376553D01*
X231988752Y-91376553D02*
X232131609Y-91376553D01*
X232131609Y-91376553D02*
X232322085Y-91328934D01*
X232322085Y-91328934D02*
X232417323Y-91281315D01*
X232417323Y-91281315D02*
X232512561Y-91186077D01*
X232512561Y-91186077D02*
X232560180Y-91043220D01*
X232560180Y-91043220D02*
X232560180Y-90947982D01*
X232560180Y-90947982D02*
X232512561Y-90805125D01*
X232512561Y-90805125D02*
X232464942Y-90757506D01*
X231607800Y-89900363D02*
X231560180Y-89995601D01*
X231560180Y-89995601D02*
X231560180Y-90186077D01*
X231560180Y-90186077D02*
X231607800Y-90281315D01*
X231607800Y-90281315D02*
X231655419Y-90328934D01*
X231655419Y-90328934D02*
X231750657Y-90376553D01*
X231750657Y-90376553D02*
X232036371Y-90376553D01*
X232036371Y-90376553D02*
X232131609Y-90328934D01*
X232131609Y-90328934D02*
X232179228Y-90281315D01*
X232179228Y-90281315D02*
X232226847Y-90186077D01*
X232226847Y-90186077D02*
X232226847Y-89995601D01*
X232226847Y-89995601D02*
X232179228Y-89900363D01*
X231560180Y-89471791D02*
X232226847Y-89471791D01*
X232036371Y-89471791D02*
X232131609Y-89424172D01*
X232131609Y-89424172D02*
X232179228Y-89376553D01*
X232179228Y-89376553D02*
X232226847Y-89281315D01*
X232226847Y-89281315D02*
X232226847Y-89186077D01*
X231560180Y-88424172D02*
X232083990Y-88424172D01*
X232083990Y-88424172D02*
X232179228Y-88471791D01*
X232179228Y-88471791D02*
X232226847Y-88567029D01*
X232226847Y-88567029D02*
X232226847Y-88757505D01*
X232226847Y-88757505D02*
X232179228Y-88852743D01*
X231607800Y-88424172D02*
X231560180Y-88519410D01*
X231560180Y-88519410D02*
X231560180Y-88757505D01*
X231560180Y-88757505D02*
X231607800Y-88852743D01*
X231607800Y-88852743D02*
X231703038Y-88900362D01*
X231703038Y-88900362D02*
X231798276Y-88900362D01*
X231798276Y-88900362D02*
X231893514Y-88852743D01*
X231893514Y-88852743D02*
X231941133Y-88757505D01*
X231941133Y-88757505D02*
X231941133Y-88519410D01*
X231941133Y-88519410D02*
X231988752Y-88424172D01*
X231607800Y-87995600D02*
X231560180Y-87900362D01*
X231560180Y-87900362D02*
X231560180Y-87709886D01*
X231560180Y-87709886D02*
X231607800Y-87614648D01*
X231607800Y-87614648D02*
X231703038Y-87567029D01*
X231703038Y-87567029D02*
X231750657Y-87567029D01*
X231750657Y-87567029D02*
X231845895Y-87614648D01*
X231845895Y-87614648D02*
X231893514Y-87709886D01*
X231893514Y-87709886D02*
X231893514Y-87852743D01*
X231893514Y-87852743D02*
X231941133Y-87947981D01*
X231941133Y-87947981D02*
X232036371Y-87995600D01*
X232036371Y-87995600D02*
X232083990Y-87995600D01*
X232083990Y-87995600D02*
X232179228Y-87947981D01*
X232179228Y-87947981D02*
X232226847Y-87852743D01*
X232226847Y-87852743D02*
X232226847Y-87709886D01*
X232226847Y-87709886D02*
X232179228Y-87614648D01*
X231607800Y-86709886D02*
X231560180Y-86805124D01*
X231560180Y-86805124D02*
X231560180Y-86995600D01*
X231560180Y-86995600D02*
X231607800Y-87090838D01*
X231607800Y-87090838D02*
X231655419Y-87138457D01*
X231655419Y-87138457D02*
X231750657Y-87186076D01*
X231750657Y-87186076D02*
X232036371Y-87186076D01*
X232036371Y-87186076D02*
X232131609Y-87138457D01*
X232131609Y-87138457D02*
X232179228Y-87090838D01*
X232179228Y-87090838D02*
X232226847Y-86995600D01*
X232226847Y-86995600D02*
X232226847Y-86805124D01*
X232226847Y-86805124D02*
X232179228Y-86709886D01*
X231560180Y-86281314D02*
X232226847Y-86281314D01*
X232560180Y-86281314D02*
X232512561Y-86328933D01*
X232512561Y-86328933D02*
X232464942Y-86281314D01*
X232464942Y-86281314D02*
X232512561Y-86233695D01*
X232512561Y-86233695D02*
X232560180Y-86281314D01*
X232560180Y-86281314D02*
X232464942Y-86281314D01*
G36*
X234497816Y-105589570D02*
G01*
X234507613Y-105591939D01*
X234512707Y-105593442D01*
X234522458Y-105596724D01*
X234532353Y-105600311D01*
X234542540Y-105604152D01*
X234739644Y-105683775D01*
X234741759Y-105684630D01*
X234752126Y-105688912D01*
X234762147Y-105693207D01*
X234771823Y-105697513D01*
X234781152Y-105701832D01*
X234790136Y-105706162D01*
X234800460Y-105711374D01*
X234803824Y-105713091D01*
X234813619Y-105718320D01*
X234822967Y-105723669D01*
X234831868Y-105729139D01*
X234840323Y-105734729D01*
X234848332Y-105740439D01*
X234853426Y-105744328D01*
X234861883Y-105751335D01*
X234869755Y-105758600D01*
X234877043Y-105766122D01*
X234883747Y-105773900D01*
X234887391Y-105778423D01*
X234893384Y-105786649D01*
X234898885Y-105795273D01*
X234903896Y-105804294D01*
X234908415Y-105813712D01*
X234909276Y-105811262D01*
X234912833Y-105801614D01*
X234916573Y-105792211D01*
X234920496Y-105783052D01*
X234924602Y-105774137D01*
X234929993Y-105763337D01*
X234935669Y-105752918D01*
X234941632Y-105742882D01*
X234944133Y-105738977D01*
X234950627Y-105729518D01*
X234957466Y-105720488D01*
X234964652Y-105711887D01*
X234972183Y-105703715D01*
X234980060Y-105695973D01*
X234988283Y-105688660D01*
X234991673Y-105685862D01*
X235000423Y-105679236D01*
X235009566Y-105673135D01*
X235019103Y-105667558D01*
X235029034Y-105662507D01*
X235039358Y-105657980D01*
X235050076Y-105653977D01*
X235054478Y-105652528D01*
X235065801Y-105649314D01*
X235077576Y-105646684D01*
X235087323Y-105645001D01*
X235097360Y-105643692D01*
X235107687Y-105642757D01*
X235118304Y-105642196D01*
X235129211Y-105642009D01*
X235140503Y-105642219D01*
X235151544Y-105642849D01*
X235162333Y-105643898D01*
X235172869Y-105645368D01*
X235183154Y-105647257D01*
X235193187Y-105649566D01*
X235202968Y-105652294D01*
X235212498Y-105655443D01*
X235217167Y-105657145D01*
X235226311Y-105660869D01*
X235235195Y-105665022D01*
X235245936Y-105670813D01*
X235256271Y-105677272D01*
X235264247Y-105682920D01*
X235271963Y-105688995D01*
X235279420Y-105695498D01*
X235286587Y-105702414D01*
X235293434Y-105709726D01*
X235299960Y-105717435D01*
X235306165Y-105725540D01*
X235312050Y-105734043D01*
X235317614Y-105742943D01*
X235322857Y-105752239D01*
X235327780Y-105761933D01*
X235332383Y-105771954D01*
X235336665Y-105782357D01*
X235340626Y-105793142D01*
X235344267Y-105804309D01*
X235347587Y-105815857D01*
X235350587Y-105827786D01*
X235353266Y-105840098D01*
X235355624Y-105852791D01*
X235356586Y-105861996D01*
X235357517Y-105871781D01*
X235358418Y-105882146D01*
X235359288Y-105893091D01*
X235359495Y-105895914D01*
X235360114Y-105906501D01*
X235360515Y-105916450D01*
X235360795Y-105927206D01*
X235360956Y-105938770D01*
X235360997Y-105949023D01*
X235360997Y-106137822D01*
X235360955Y-106139800D01*
X235359486Y-106149489D01*
X235355918Y-106158843D01*
X235350251Y-106167864D01*
X235343992Y-106173955D01*
X235334542Y-106178727D01*
X235324002Y-106181120D01*
X235313126Y-106181786D01*
X234491981Y-106181786D01*
X234491632Y-106181783D01*
X234482212Y-106179099D01*
X234481026Y-106178158D01*
X234475861Y-106169574D01*
X234473473Y-106160876D01*
X234471709Y-106151256D01*
X234470736Y-106142810D01*
X234470166Y-106132921D01*
X234470000Y-106122679D01*
X234470106Y-106114497D01*
X234470602Y-106104443D01*
X234471709Y-106094347D01*
X234473095Y-106086459D01*
X234475861Y-106076517D01*
X234476499Y-106074922D01*
X234482456Y-106066748D01*
X234491981Y-106063572D01*
X234872512Y-106063572D01*
X234970209Y-106063572D01*
X235263300Y-106063572D01*
X235263300Y-105964166D01*
X235263298Y-105961981D01*
X235263223Y-105951457D01*
X235262991Y-105939711D01*
X235262605Y-105928926D01*
X235261959Y-105917559D01*
X235261102Y-105907501D01*
X235260275Y-105899513D01*
X235258878Y-105889369D01*
X235256905Y-105878651D01*
X235254508Y-105868667D01*
X235252506Y-105861920D01*
X235249210Y-105852263D01*
X235245562Y-105843159D01*
X235240151Y-105831881D01*
X235234113Y-105821589D01*
X235227450Y-105812281D01*
X235220161Y-105803958D01*
X235212246Y-105796619D01*
X235203705Y-105790265D01*
X235194664Y-105784769D01*
X235185127Y-105780006D01*
X235175094Y-105775976D01*
X235164565Y-105772679D01*
X235153540Y-105770115D01*
X235142018Y-105768283D01*
X235130001Y-105767184D01*
X235117487Y-105766817D01*
X235113537Y-105766859D01*
X235101917Y-105767489D01*
X235090640Y-105768874D01*
X235079706Y-105771015D01*
X235069116Y-105773912D01*
X235058869Y-105777564D01*
X235055538Y-105778954D01*
X235045878Y-105783685D01*
X235036716Y-105789258D01*
X235028052Y-105795672D01*
X235019887Y-105802928D01*
X235012219Y-105811025D01*
X235005100Y-105819864D01*
X234998583Y-105829527D01*
X234993611Y-105838209D01*
X234989057Y-105847463D01*
X234984919Y-105857290D01*
X234981200Y-105867690D01*
X234979869Y-105871983D01*
X234976917Y-105883150D01*
X234974502Y-105894938D01*
X234972957Y-105904815D01*
X234971754Y-105915088D01*
X234970896Y-105925758D01*
X234970381Y-105936826D01*
X234970209Y-105948290D01*
X234970209Y-106063572D01*
X234872512Y-106063572D01*
X234872512Y-105984682D01*
X234872464Y-105979660D01*
X234871927Y-105967505D01*
X234870794Y-105955922D01*
X234869065Y-105944912D01*
X234866740Y-105934475D01*
X234863818Y-105924610D01*
X234860300Y-105915317D01*
X234858765Y-105911744D01*
X234853705Y-105901380D01*
X234847958Y-105891548D01*
X234841523Y-105882249D01*
X234834402Y-105873482D01*
X234826594Y-105865247D01*
X234818151Y-105857402D01*
X234809123Y-105849986D01*
X234801154Y-105844134D01*
X234792780Y-105838580D01*
X234784000Y-105833324D01*
X234774815Y-105828367D01*
X234771036Y-105826447D01*
X234761391Y-105821681D01*
X234751459Y-105816963D01*
X234741241Y-105812293D01*
X234730736Y-105807671D01*
X234719946Y-105803096D01*
X234708869Y-105798569D01*
X234498332Y-105716748D01*
X234493404Y-105714973D01*
X234484410Y-105710397D01*
X234481561Y-105707967D01*
X234475861Y-105699651D01*
X234473114Y-105691713D01*
X234471221Y-105681577D01*
X234470525Y-105672934D01*
X234470119Y-105662791D01*
X234470000Y-105652267D01*
X234470001Y-105650978D01*
X234470119Y-105640127D01*
X234470477Y-105629656D01*
X234471221Y-105619295D01*
X234472737Y-105609471D01*
X234475373Y-105600000D01*
X234475933Y-105598760D01*
X234482456Y-105591207D01*
X234492226Y-105589009D01*
X234497816Y-105589570D01*
G37*
G36*
X235114667Y-104875797D02*
G01*
X235126723Y-104876461D01*
X235138511Y-104877567D01*
X235150033Y-104879117D01*
X235161287Y-104881109D01*
X235172274Y-104883544D01*
X235182994Y-104886421D01*
X235193447Y-104889741D01*
X235203610Y-104893470D01*
X235213459Y-104897572D01*
X235222996Y-104902049D01*
X235232220Y-104906899D01*
X235241131Y-104912124D01*
X235249730Y-104917722D01*
X235258015Y-104923695D01*
X235265987Y-104930041D01*
X235273707Y-104936697D01*
X235281115Y-104943719D01*
X235288209Y-104951107D01*
X235294991Y-104958862D01*
X235301459Y-104966983D01*
X235307615Y-104975471D01*
X235313458Y-104984324D01*
X235318988Y-104993545D01*
X235320318Y-104995879D01*
X235325370Y-105005193D01*
X235329996Y-105014468D01*
X235334194Y-105023705D01*
X235337964Y-105032905D01*
X235342076Y-105044350D01*
X235345520Y-105055736D01*
X235348297Y-105067062D01*
X235350167Y-105075893D01*
X235352268Y-105086523D01*
X235354107Y-105096701D01*
X235355968Y-105108316D01*
X235357450Y-105119278D01*
X235358555Y-105129588D01*
X235358851Y-105132895D01*
X235359624Y-105142930D01*
X235360225Y-105153136D01*
X235360654Y-105163515D01*
X235360912Y-105174065D01*
X235360997Y-105184787D01*
X235360997Y-105375052D01*
X235360894Y-105378365D01*
X235359063Y-105388974D01*
X235354941Y-105398916D01*
X235349274Y-105407292D01*
X235347776Y-105409037D01*
X235339477Y-105415496D01*
X235329959Y-105419324D01*
X235319978Y-105421196D01*
X235310195Y-105421702D01*
X234491981Y-105421702D01*
X234491632Y-105421700D01*
X234482212Y-105419016D01*
X234481026Y-105418075D01*
X234475861Y-105409490D01*
X234473473Y-105400793D01*
X234471709Y-105391172D01*
X234470736Y-105382726D01*
X234470166Y-105372837D01*
X234470000Y-105362595D01*
X234470106Y-105354413D01*
X234470602Y-105344359D01*
X234471709Y-105334263D01*
X234473095Y-105326375D01*
X234475861Y-105316434D01*
X234476499Y-105314838D01*
X234482456Y-105306664D01*
X234491981Y-105303489D01*
X234813893Y-105303489D01*
X234911591Y-105303489D01*
X235263300Y-105303489D01*
X235263300Y-105194312D01*
X235263181Y-105184876D01*
X235262723Y-105173427D01*
X235261922Y-105161841D01*
X235260991Y-105152081D01*
X235259823Y-105142225D01*
X235258415Y-105132274D01*
X235257785Y-105128284D01*
X235255766Y-105118381D01*
X235253115Y-105108587D01*
X235249831Y-105098899D01*
X235245916Y-105089319D01*
X235241369Y-105079846D01*
X235236189Y-105070481D01*
X235231507Y-105063123D01*
X235224848Y-105054355D01*
X235217296Y-105046064D01*
X235208849Y-105038250D01*
X235199507Y-105030914D01*
X235191390Y-105025388D01*
X235182700Y-105020167D01*
X235180439Y-105018920D01*
X235171051Y-105014327D01*
X235161113Y-105010367D01*
X235150626Y-105007042D01*
X235139589Y-105004349D01*
X235128003Y-105002290D01*
X235115867Y-105000865D01*
X235103182Y-105000073D01*
X235093307Y-104999895D01*
X235088414Y-104999943D01*
X235076372Y-105000491D01*
X235064605Y-105001647D01*
X235053112Y-105003410D01*
X235041893Y-105005782D01*
X235030949Y-105008763D01*
X235020279Y-105012351D01*
X235016132Y-105013953D01*
X235006083Y-105018350D01*
X234996488Y-105023308D01*
X234987345Y-105028826D01*
X234978656Y-105034905D01*
X234970420Y-105041544D01*
X234962637Y-105048743D01*
X234959685Y-105051780D01*
X234952656Y-105059765D01*
X234946128Y-105068310D01*
X234940101Y-105077415D01*
X234934574Y-105087081D01*
X234929549Y-105097307D01*
X234925024Y-105108094D01*
X234921154Y-105119609D01*
X234918530Y-105129464D01*
X234916326Y-105139892D01*
X234914542Y-105150893D01*
X234913178Y-105162466D01*
X234912233Y-105174611D01*
X234911709Y-105187329D01*
X234911591Y-105197243D01*
X234911591Y-105303489D01*
X234813893Y-105303489D01*
X234813893Y-105202616D01*
X234813913Y-105197494D01*
X234814074Y-105187385D01*
X234814394Y-105177455D01*
X234815176Y-105162896D01*
X234816318Y-105148741D01*
X234817820Y-105134990D01*
X234819684Y-105121642D01*
X234821908Y-105108697D01*
X234824492Y-105096157D01*
X234827437Y-105084019D01*
X234830743Y-105072286D01*
X234834410Y-105060956D01*
X234837040Y-105053580D01*
X234841233Y-105042791D01*
X234845721Y-105032333D01*
X234850506Y-105022206D01*
X234855587Y-105012409D01*
X234860965Y-105002943D01*
X234866638Y-104993808D01*
X234872608Y-104985003D01*
X234878874Y-104976529D01*
X234885437Y-104968385D01*
X234892295Y-104960572D01*
X234897058Y-104955517D01*
X234904431Y-104948214D01*
X234912079Y-104941246D01*
X234920002Y-104934613D01*
X234928199Y-104928314D01*
X234936671Y-104922351D01*
X234945418Y-104916723D01*
X234954440Y-104911429D01*
X234963736Y-104906470D01*
X234973308Y-104901846D01*
X234983154Y-104897557D01*
X234989859Y-104894895D01*
X235000103Y-104891224D01*
X235010570Y-104887940D01*
X235021260Y-104885042D01*
X235032174Y-104882530D01*
X235043311Y-104880405D01*
X235054671Y-104878666D01*
X235066254Y-104877314D01*
X235078061Y-104876348D01*
X235090091Y-104875768D01*
X235102344Y-104875575D01*
X235114667Y-104875797D01*
G37*
G36*
X234521535Y-104182170D02*
G01*
X234511150Y-104182497D01*
X234501164Y-104183574D01*
X234499309Y-104183879D01*
X234489322Y-104186267D01*
X234482944Y-104188764D01*
X234474976Y-104194626D01*
X234473175Y-104197069D01*
X234470077Y-104206419D01*
X234470000Y-104208304D01*
X234470000Y-104699476D01*
X234470772Y-104709497D01*
X234472442Y-104716329D01*
X234477186Y-104725260D01*
X234480258Y-104728785D01*
X234488651Y-104733929D01*
X234496378Y-104736357D01*
X234506456Y-104737859D01*
X234516508Y-104738478D01*
X234522023Y-104738555D01*
X234531949Y-104738418D01*
X234542228Y-104737910D01*
X234546203Y-104737578D01*
X234556095Y-104735990D01*
X234564766Y-104733182D01*
X234573756Y-104728794D01*
X234580642Y-104724633D01*
X234588946Y-104718710D01*
X234596613Y-104712225D01*
X234597739Y-104711200D01*
X234778478Y-104538764D01*
X234786425Y-104531378D01*
X234794266Y-104524178D01*
X234802003Y-104517166D01*
X234809634Y-104510341D01*
X234817161Y-104503702D01*
X234824583Y-104497251D01*
X234835519Y-104487924D01*
X234846218Y-104479018D01*
X234856682Y-104470533D01*
X234866909Y-104462469D01*
X234876901Y-104454825D01*
X234886656Y-104447603D01*
X234893028Y-104443021D01*
X234902474Y-104436389D01*
X234911761Y-104430050D01*
X234920890Y-104424002D01*
X234929859Y-104418246D01*
X234938670Y-104412782D01*
X234947322Y-104407610D01*
X234955815Y-104402730D01*
X234966891Y-104396677D01*
X234977686Y-104391143D01*
X234985596Y-104387334D01*
X234995915Y-104382659D01*
X235005990Y-104378404D01*
X235015821Y-104374568D01*
X235025408Y-104371153D01*
X235034750Y-104368157D01*
X235046084Y-104365002D01*
X235057037Y-104362504D01*
X235061311Y-104361688D01*
X235071890Y-104359859D01*
X235082253Y-104358339D01*
X235092402Y-104357130D01*
X235102337Y-104356231D01*
X235113974Y-104355561D01*
X235125303Y-104355338D01*
X235136274Y-104355681D01*
X235147022Y-104356712D01*
X235157546Y-104358429D01*
X235167847Y-104360833D01*
X235177925Y-104363925D01*
X235181235Y-104365108D01*
X235190978Y-104368989D01*
X235200240Y-104373488D01*
X235209021Y-104378606D01*
X235217322Y-104384342D01*
X235225141Y-104390696D01*
X235227641Y-104392951D01*
X235234859Y-104400064D01*
X235241494Y-104407846D01*
X235247545Y-104416298D01*
X235253012Y-104425420D01*
X235257894Y-104435212D01*
X235259392Y-104438625D01*
X235263377Y-104449175D01*
X235266536Y-104460309D01*
X235268540Y-104470033D01*
X235269971Y-104480163D01*
X235270830Y-104490699D01*
X235271116Y-104501639D01*
X235270914Y-104512004D01*
X235270307Y-104522095D01*
X235269296Y-104531910D01*
X235267463Y-104543793D01*
X235264998Y-104555247D01*
X235261900Y-104566271D01*
X235258171Y-104576866D01*
X235254072Y-104587050D01*
X235249866Y-104596840D01*
X235245552Y-104606236D01*
X235241131Y-104615239D01*
X235235685Y-104625523D01*
X235230083Y-104635240D01*
X235224482Y-104644382D01*
X235219035Y-104652940D01*
X235212876Y-104662187D01*
X235206927Y-104670638D01*
X235201995Y-104677250D01*
X235195738Y-104686034D01*
X235190871Y-104694881D01*
X235189050Y-104702163D01*
X235191981Y-104710956D01*
X235200102Y-104716593D01*
X235201263Y-104717062D01*
X235211128Y-104719733D01*
X235218604Y-104720969D01*
X235228849Y-104721804D01*
X235238969Y-104722148D01*
X235244494Y-104722191D01*
X235254691Y-104722008D01*
X235263300Y-104721458D01*
X235273228Y-104719989D01*
X235276978Y-104719016D01*
X235286174Y-104715435D01*
X235287725Y-104714619D01*
X235295508Y-104708674D01*
X235300425Y-104703628D01*
X235306859Y-104695717D01*
X235312677Y-104687575D01*
X235318562Y-104678748D01*
X235320942Y-104675052D01*
X235326677Y-104665692D01*
X235331537Y-104656888D01*
X235336345Y-104647362D01*
X235341102Y-104637115D01*
X235345027Y-104628026D01*
X235346587Y-104624249D01*
X235350455Y-104614560D01*
X235354119Y-104604572D01*
X235357582Y-104594285D01*
X235360841Y-104583701D01*
X235363898Y-104572819D01*
X235366751Y-104561638D01*
X235367836Y-104557083D01*
X235370369Y-104545468D01*
X235372473Y-104533674D01*
X235374147Y-104521702D01*
X235375392Y-104509551D01*
X235376079Y-104499701D01*
X235376492Y-104489736D01*
X235376629Y-104479658D01*
X235376468Y-104467709D01*
X235375985Y-104456044D01*
X235375180Y-104444663D01*
X235374053Y-104433564D01*
X235372604Y-104422749D01*
X235370833Y-104412218D01*
X235368740Y-104401970D01*
X235366325Y-104392005D01*
X235363588Y-104382323D01*
X235360529Y-104372925D01*
X235358311Y-104366817D01*
X235353521Y-104354930D01*
X235348312Y-104343568D01*
X235342683Y-104332734D01*
X235336634Y-104322426D01*
X235330166Y-104312645D01*
X235323277Y-104303391D01*
X235315969Y-104294663D01*
X235308241Y-104286461D01*
X235300139Y-104278714D01*
X235291709Y-104271471D01*
X235282950Y-104264731D01*
X235273864Y-104258496D01*
X235264449Y-104252764D01*
X235254706Y-104247535D01*
X235244635Y-104242811D01*
X235234235Y-104238590D01*
X235223645Y-104234869D01*
X235212879Y-104231644D01*
X235201938Y-104228916D01*
X235190821Y-104226683D01*
X235179529Y-104224947D01*
X235168061Y-104223706D01*
X235156417Y-104222962D01*
X235144598Y-104222714D01*
X235133855Y-104222832D01*
X235123120Y-104223187D01*
X235112393Y-104223779D01*
X235101673Y-104224607D01*
X235090960Y-104225672D01*
X235080256Y-104226973D01*
X235069558Y-104228511D01*
X235058869Y-104230286D01*
X235048134Y-104232442D01*
X235037177Y-104235125D01*
X235025999Y-104238334D01*
X235014600Y-104242070D01*
X235002979Y-104246333D01*
X234991137Y-104251123D01*
X234982111Y-104255060D01*
X234972959Y-104259294D01*
X234966789Y-104262281D01*
X234957438Y-104267052D01*
X234947884Y-104272205D01*
X234938129Y-104277740D01*
X234928172Y-104283656D01*
X234918014Y-104289956D01*
X234907653Y-104296637D01*
X234897091Y-104303700D01*
X234886327Y-104311145D01*
X234875361Y-104318973D01*
X234864193Y-104327182D01*
X234856636Y-104332868D01*
X234845118Y-104341743D01*
X234837260Y-104347956D01*
X234829259Y-104354406D01*
X234821115Y-104361092D01*
X234812828Y-104368015D01*
X234804398Y-104375174D01*
X234795824Y-104382570D01*
X234787108Y-104390203D01*
X234778249Y-104398072D01*
X234769246Y-104406178D01*
X234760100Y-104414520D01*
X234750811Y-104423099D01*
X234741379Y-104431915D01*
X234731804Y-104440967D01*
X234722086Y-104450256D01*
X234717173Y-104454989D01*
X234571605Y-104595673D01*
X234571605Y-104209036D01*
X234568997Y-104199256D01*
X234568429Y-104198290D01*
X234561530Y-104191170D01*
X234558904Y-104189497D01*
X234549936Y-104185471D01*
X234543272Y-104183879D01*
X234533197Y-104182597D01*
X234523079Y-104182176D01*
X234521535Y-104182170D01*
G37*
G36*
X234931429Y-103443393D02*
G01*
X234944964Y-103443568D01*
X234958303Y-103443859D01*
X234971445Y-103444266D01*
X234984391Y-103444790D01*
X234997140Y-103445430D01*
X235009693Y-103446187D01*
X235022049Y-103447060D01*
X235034209Y-103448049D01*
X235046172Y-103449155D01*
X235057939Y-103450377D01*
X235069509Y-103451716D01*
X235080882Y-103453171D01*
X235092059Y-103454742D01*
X235103040Y-103456430D01*
X235113824Y-103458234D01*
X235119140Y-103459170D01*
X235129614Y-103461162D01*
X235139876Y-103463314D01*
X235149926Y-103465627D01*
X235159764Y-103468100D01*
X235169391Y-103470733D01*
X235183434Y-103474984D01*
X235197000Y-103479595D01*
X235210090Y-103484566D01*
X235222703Y-103489899D01*
X235234839Y-103495592D01*
X235246499Y-103501645D01*
X235257683Y-103508060D01*
X235264898Y-103512513D01*
X235275303Y-103519523D01*
X235285206Y-103526927D01*
X235294606Y-103534727D01*
X235303504Y-103542921D01*
X235311900Y-103551511D01*
X235319793Y-103560495D01*
X235327184Y-103569875D01*
X235334072Y-103579649D01*
X235340459Y-103589819D01*
X235346343Y-103600383D01*
X235351755Y-103611384D01*
X235356635Y-103622860D01*
X235360983Y-103634814D01*
X235364798Y-103647244D01*
X235368081Y-103660150D01*
X235370832Y-103673533D01*
X235373050Y-103687393D01*
X235374736Y-103701729D01*
X235375564Y-103711551D01*
X235376156Y-103721585D01*
X235376511Y-103731831D01*
X235376629Y-103742288D01*
X235376596Y-103747757D01*
X235376333Y-103758534D01*
X235375806Y-103769098D01*
X235375016Y-103779448D01*
X235373963Y-103789584D01*
X235372646Y-103799506D01*
X235370178Y-103813989D01*
X235367116Y-103827991D01*
X235363463Y-103841512D01*
X235359217Y-103854552D01*
X235354378Y-103867112D01*
X235348947Y-103879190D01*
X235342923Y-103890788D01*
X235338632Y-103898238D01*
X235331787Y-103909074D01*
X235324453Y-103919502D01*
X235316629Y-103929522D01*
X235308315Y-103939134D01*
X235299513Y-103948338D01*
X235290220Y-103957134D01*
X235280439Y-103965523D01*
X235270168Y-103973503D01*
X235259407Y-103981076D01*
X235248157Y-103988241D01*
X235244302Y-103990526D01*
X235232453Y-103997144D01*
X235220179Y-104003406D01*
X235207480Y-104009312D01*
X235194356Y-104014861D01*
X235180807Y-104020054D01*
X235171538Y-104023317D01*
X235162081Y-104026423D01*
X235152434Y-104029370D01*
X235142599Y-104032159D01*
X235132574Y-104034789D01*
X235122361Y-104037261D01*
X235111958Y-104039575D01*
X235101367Y-104041730D01*
X235090615Y-104043712D01*
X235079729Y-104045566D01*
X235068709Y-104047291D01*
X235057556Y-104048890D01*
X235046270Y-104050360D01*
X235034849Y-104051702D01*
X235023295Y-104052917D01*
X235011608Y-104054003D01*
X234999787Y-104054962D01*
X234987832Y-104055793D01*
X234975744Y-104056496D01*
X234963523Y-104057072D01*
X234951167Y-104057519D01*
X234938679Y-104057839D01*
X234926056Y-104058030D01*
X234913300Y-104058094D01*
X234899568Y-104058037D01*
X234886033Y-104057865D01*
X234872694Y-104057579D01*
X234859552Y-104057178D01*
X234846606Y-104056663D01*
X234833856Y-104056034D01*
X234821304Y-104055289D01*
X234808948Y-104054431D01*
X234796788Y-104053458D01*
X234784825Y-104052370D01*
X234773058Y-104051168D01*
X234761488Y-104049851D01*
X234750115Y-104048420D01*
X234738938Y-104046875D01*
X234727957Y-104045214D01*
X234717173Y-104043440D01*
X234711857Y-104042504D01*
X234701381Y-104040514D01*
X234691115Y-104038365D01*
X234681059Y-104036058D01*
X234671213Y-104033593D01*
X234661577Y-104030969D01*
X234647516Y-104026737D01*
X234633928Y-104022148D01*
X234620812Y-104017203D01*
X234608168Y-104011901D01*
X234595996Y-104006243D01*
X234584297Y-104000229D01*
X234573070Y-103993859D01*
X234565883Y-103989375D01*
X234555514Y-103982325D01*
X234545638Y-103974884D01*
X234536257Y-103967052D01*
X234527369Y-103958830D01*
X234518975Y-103950217D01*
X234511074Y-103941213D01*
X234503668Y-103931818D01*
X234496755Y-103922033D01*
X234490335Y-103911857D01*
X234484410Y-103901290D01*
X234479041Y-103890297D01*
X234474200Y-103878839D01*
X234469888Y-103866918D01*
X234466103Y-103854533D01*
X234462847Y-103841685D01*
X234460118Y-103828373D01*
X234457918Y-103814597D01*
X234456246Y-103800357D01*
X234455424Y-103790607D01*
X234454837Y-103780650D01*
X234454485Y-103770487D01*
X234454368Y-103760118D01*
X234454450Y-103753279D01*
X234552065Y-103753279D01*
X234552378Y-103765385D01*
X234553317Y-103777032D01*
X234554882Y-103788221D01*
X234557072Y-103798953D01*
X234559889Y-103809226D01*
X234563331Y-103819042D01*
X234567399Y-103828399D01*
X234572093Y-103837299D01*
X234577478Y-103845779D01*
X234583618Y-103853877D01*
X234590514Y-103861593D01*
X234598166Y-103868928D01*
X234606573Y-103875882D01*
X234615736Y-103882453D01*
X234625655Y-103888643D01*
X234636329Y-103894452D01*
X234639132Y-103895829D01*
X234650852Y-103901105D01*
X234660173Y-103904817D01*
X234669949Y-103908318D01*
X234680180Y-103911609D01*
X234690866Y-103914689D01*
X234702007Y-103917559D01*
X234713604Y-103920219D01*
X234725655Y-103922668D01*
X234738161Y-103924907D01*
X234751123Y-103926936D01*
X234760033Y-103928178D01*
X234773838Y-103929891D01*
X234788172Y-103931424D01*
X234798021Y-103932346D01*
X234808104Y-103933187D01*
X234818422Y-103933948D01*
X234828975Y-103934630D01*
X234839763Y-103935231D01*
X234850786Y-103935752D01*
X234862043Y-103936192D01*
X234873534Y-103936553D01*
X234885261Y-103936834D01*
X234897222Y-103937034D01*
X234909418Y-103937154D01*
X234921849Y-103937194D01*
X234931153Y-103937166D01*
X234944966Y-103937015D01*
X234958607Y-103936736D01*
X234972077Y-103936328D01*
X234985375Y-103935792D01*
X234998501Y-103935126D01*
X235011455Y-103934332D01*
X235024238Y-103933409D01*
X235036849Y-103932357D01*
X235049288Y-103931176D01*
X235061556Y-103929867D01*
X235069612Y-103928868D01*
X235081453Y-103927173D01*
X235093002Y-103925242D01*
X235104259Y-103923074D01*
X235115224Y-103920671D01*
X235125897Y-103918031D01*
X235136279Y-103915155D01*
X235146368Y-103912043D01*
X235156165Y-103908695D01*
X235165671Y-103905111D01*
X235174884Y-103901290D01*
X235186707Y-103895799D01*
X235197874Y-103889826D01*
X235208384Y-103883373D01*
X235218237Y-103876439D01*
X235227435Y-103869024D01*
X235235976Y-103861128D01*
X235243860Y-103852751D01*
X235251088Y-103843893D01*
X235256064Y-103836877D01*
X235261937Y-103826920D01*
X235266941Y-103816276D01*
X235271074Y-103804946D01*
X235274337Y-103792928D01*
X235276729Y-103780224D01*
X235277953Y-103770245D01*
X235278687Y-103759879D01*
X235278932Y-103749127D01*
X235278855Y-103743003D01*
X235278382Y-103733053D01*
X235277249Y-103721538D01*
X235275497Y-103710487D01*
X235273127Y-103699900D01*
X235270139Y-103689776D01*
X235269029Y-103686472D01*
X235265208Y-103676847D01*
X235260649Y-103667650D01*
X235255351Y-103658883D01*
X235249315Y-103650546D01*
X235242540Y-103642637D01*
X235237613Y-103637600D01*
X235229607Y-103630387D01*
X235220863Y-103623586D01*
X235211381Y-103617198D01*
X235202914Y-103612189D01*
X235193935Y-103607466D01*
X235186429Y-103603829D01*
X235176541Y-103599530D01*
X235166093Y-103595505D01*
X235155084Y-103591754D01*
X235143514Y-103588278D01*
X235133855Y-103585694D01*
X235123838Y-103583286D01*
X235121276Y-103582711D01*
X235110781Y-103580493D01*
X235099889Y-103578413D01*
X235088601Y-103576471D01*
X235076915Y-103574666D01*
X235064833Y-103572998D01*
X235052354Y-103571468D01*
X235039477Y-103570075D01*
X235029560Y-103569120D01*
X235022850Y-103568529D01*
X235012581Y-103567713D01*
X235002067Y-103566983D01*
X234991309Y-103566339D01*
X234980306Y-103565781D01*
X234969058Y-103565309D01*
X234957565Y-103564922D01*
X234945828Y-103564622D01*
X234933846Y-103564407D01*
X234921620Y-103564278D01*
X234909148Y-103564235D01*
X234896749Y-103564285D01*
X234884464Y-103564434D01*
X234872294Y-103564682D01*
X234860239Y-103565029D01*
X234848297Y-103565476D01*
X234836471Y-103566021D01*
X234824758Y-103566666D01*
X234813161Y-103567411D01*
X234801781Y-103568284D01*
X234790599Y-103569319D01*
X234779615Y-103570513D01*
X234768831Y-103571868D01*
X234758244Y-103573383D01*
X234747856Y-103575058D01*
X234737667Y-103576894D01*
X234727676Y-103578890D01*
X234720363Y-103580453D01*
X234710799Y-103582697D01*
X234699145Y-103585759D01*
X234687825Y-103589108D01*
X234676839Y-103592743D01*
X234666187Y-103596664D01*
X234655868Y-103600872D01*
X234651844Y-103602610D01*
X234642101Y-103607206D01*
X234632810Y-103612160D01*
X234623973Y-103617472D01*
X234615589Y-103623142D01*
X234607658Y-103629169D01*
X234600181Y-103635554D01*
X234595925Y-103639522D01*
X234587979Y-103647908D01*
X234580789Y-103656896D01*
X234574355Y-103666484D01*
X234568676Y-103676674D01*
X234564521Y-103685624D01*
X234563013Y-103689294D01*
X234559668Y-103698796D01*
X234556931Y-103708762D01*
X234554802Y-103719194D01*
X234553282Y-103730091D01*
X234552369Y-103741452D01*
X234552065Y-103753279D01*
X234454450Y-103753279D01*
X234454499Y-103749146D01*
X234454891Y-103738396D01*
X234455544Y-103727867D01*
X234456459Y-103717559D01*
X234457636Y-103707472D01*
X234459073Y-103697607D01*
X234460773Y-103687963D01*
X234463812Y-103673913D01*
X234467439Y-103660360D01*
X234471654Y-103647306D01*
X234476458Y-103634749D01*
X234481849Y-103622691D01*
X234487829Y-103611130D01*
X234492150Y-103603649D01*
X234499036Y-103592768D01*
X234506407Y-103582294D01*
X234514263Y-103572228D01*
X234522604Y-103562571D01*
X234531431Y-103553321D01*
X234540742Y-103544478D01*
X234550539Y-103536044D01*
X234560821Y-103528018D01*
X234571588Y-103520399D01*
X234582840Y-103513189D01*
X234586694Y-103510859D01*
X234598536Y-103504121D01*
X234610794Y-103497761D01*
X234623469Y-103491779D01*
X234636560Y-103486175D01*
X234650068Y-103480949D01*
X234659304Y-103477674D01*
X234668725Y-103474568D01*
X234678332Y-103471629D01*
X234688124Y-103468859D01*
X234698100Y-103466256D01*
X234708262Y-103463821D01*
X234718609Y-103461554D01*
X234729141Y-103459455D01*
X234739867Y-103457503D01*
X234750734Y-103455677D01*
X234761742Y-103453977D01*
X234772891Y-103452403D01*
X234784182Y-103450954D01*
X234795613Y-103449632D01*
X234807186Y-103448436D01*
X234818900Y-103447365D01*
X234830756Y-103446421D01*
X234842752Y-103445602D01*
X234854890Y-103444909D01*
X234867169Y-103444343D01*
X234879589Y-103443902D01*
X234892150Y-103443587D01*
X234904853Y-103443398D01*
X234917697Y-103443335D01*
X234931429Y-103443393D01*
G37*
G36*
X234728027Y-102726108D02*
G01*
X234738773Y-102727024D01*
X234748966Y-102729150D01*
X234758695Y-102733321D01*
X234760877Y-102734688D01*
X234768223Y-102742088D01*
X234770907Y-102751884D01*
X234770907Y-102852267D01*
X235337062Y-102852267D01*
X235339291Y-102852465D01*
X235347564Y-102857885D01*
X235351485Y-102863996D01*
X235354891Y-102873517D01*
X235356475Y-102880572D01*
X235358124Y-102890739D01*
X235359288Y-102900628D01*
X235359954Y-102908281D01*
X235360570Y-102918946D01*
X235360891Y-102929204D01*
X235360997Y-102940195D01*
X235360982Y-102945240D01*
X235360836Y-102955978D01*
X235360536Y-102965865D01*
X235360020Y-102975854D01*
X235359585Y-102981370D01*
X235358303Y-102991422D01*
X235356113Y-103001500D01*
X235353688Y-103009230D01*
X235349274Y-103018353D01*
X235347121Y-103021345D01*
X235339748Y-103028122D01*
X234800949Y-103348325D01*
X234793275Y-103352151D01*
X234784096Y-103356385D01*
X234777070Y-103359143D01*
X234767487Y-103362002D01*
X234758511Y-103363651D01*
X234748681Y-103364689D01*
X234745409Y-103364900D01*
X234735552Y-103365301D01*
X234725478Y-103365422D01*
X234719473Y-103365362D01*
X234708802Y-103364881D01*
X234698611Y-103363712D01*
X234691570Y-103362052D01*
X234682735Y-103357606D01*
X234680832Y-103355840D01*
X234675163Y-103347592D01*
X234674133Y-103343842D01*
X234673210Y-103333914D01*
X234673210Y-102967062D01*
X234770907Y-102967062D01*
X234770907Y-103257466D01*
X235257438Y-102968283D01*
X235257438Y-102967062D01*
X234770907Y-102967062D01*
X234673210Y-102967062D01*
X234490760Y-102967062D01*
X234481723Y-102964619D01*
X234480823Y-102963948D01*
X234475373Y-102955826D01*
X234472991Y-102948133D01*
X234471221Y-102938241D01*
X234470577Y-102930823D01*
X234470119Y-102920473D01*
X234470000Y-102910642D01*
X234470076Y-102902475D01*
X234470430Y-102892491D01*
X234471221Y-102882554D01*
X234472613Y-102874309D01*
X234475373Y-102864724D01*
X234475885Y-102863478D01*
X234481723Y-102855198D01*
X234490760Y-102852267D01*
X234673210Y-102852267D01*
X234673210Y-102751884D01*
X234673665Y-102747493D01*
X234678266Y-102738717D01*
X234686154Y-102732833D01*
X234690509Y-102730863D01*
X234700612Y-102727924D01*
X234711296Y-102726421D01*
X234722058Y-102725994D01*
X234728027Y-102726108D01*
G37*
G36*
X234931429Y-102024831D02*
G01*
X234944964Y-102025005D01*
X234958303Y-102025296D01*
X234971445Y-102025704D01*
X234984391Y-102026228D01*
X234997140Y-102026868D01*
X235009693Y-102027624D01*
X235022049Y-102028497D01*
X235034209Y-102029487D01*
X235046172Y-102030593D01*
X235057939Y-102031815D01*
X235069509Y-102033153D01*
X235080882Y-102034608D01*
X235092059Y-102036180D01*
X235103040Y-102037867D01*
X235113824Y-102039672D01*
X235119140Y-102040607D01*
X235129614Y-102042600D01*
X235139876Y-102044752D01*
X235149926Y-102047065D01*
X235159764Y-102049538D01*
X235169391Y-102052171D01*
X235183434Y-102056421D01*
X235197000Y-102061032D01*
X235210090Y-102066004D01*
X235222703Y-102071336D01*
X235234839Y-102077029D01*
X235246499Y-102083083D01*
X235257683Y-102089497D01*
X235264898Y-102093951D01*
X235275303Y-102100960D01*
X235285206Y-102108365D01*
X235294606Y-102116164D01*
X235303504Y-102124359D01*
X235311900Y-102132948D01*
X235319793Y-102141933D01*
X235327184Y-102151312D01*
X235334072Y-102161087D01*
X235340459Y-102171256D01*
X235346343Y-102181821D01*
X235351755Y-102192821D01*
X235356635Y-102204298D01*
X235360983Y-102216251D01*
X235364798Y-102228681D01*
X235368081Y-102241588D01*
X235370832Y-102254971D01*
X235373050Y-102268830D01*
X235374736Y-102283166D01*
X235375564Y-102292989D01*
X235376156Y-102303023D01*
X235376511Y-102313268D01*
X235376629Y-102323726D01*
X235376596Y-102329195D01*
X235376333Y-102339972D01*
X235375806Y-102350535D01*
X235375016Y-102360885D01*
X235373963Y-102371021D01*
X235372646Y-102380944D01*
X235370178Y-102395426D01*
X235367116Y-102409428D01*
X235363463Y-102422950D01*
X235359217Y-102435990D01*
X235354378Y-102448549D01*
X235348947Y-102460628D01*
X235342923Y-102472226D01*
X235338632Y-102479676D01*
X235331787Y-102490512D01*
X235324453Y-102500939D01*
X235316629Y-102510959D01*
X235308315Y-102520571D01*
X235299513Y-102529776D01*
X235290220Y-102538572D01*
X235280439Y-102546960D01*
X235270168Y-102554941D01*
X235259407Y-102562514D01*
X235248157Y-102569678D01*
X235244302Y-102571964D01*
X235232453Y-102578582D01*
X235220179Y-102584844D01*
X235207480Y-102590749D01*
X235194356Y-102596298D01*
X235180807Y-102601491D01*
X235171538Y-102604755D01*
X235162081Y-102607861D01*
X235152434Y-102610808D01*
X235142599Y-102613596D01*
X235132574Y-102616227D01*
X235122361Y-102618699D01*
X235111958Y-102621012D01*
X235101367Y-102623168D01*
X235090615Y-102625149D01*
X235079729Y-102627003D01*
X235068709Y-102628729D01*
X235057556Y-102630327D01*
X235046270Y-102631797D01*
X235034849Y-102633140D01*
X235023295Y-102634354D01*
X235011608Y-102635441D01*
X234999787Y-102636400D01*
X234987832Y-102637231D01*
X234975744Y-102637934D01*
X234963523Y-102638509D01*
X234951167Y-102638957D01*
X234938679Y-102639276D01*
X234926056Y-102639468D01*
X234913300Y-102639532D01*
X234899568Y-102639475D01*
X234886033Y-102639303D01*
X234872694Y-102639017D01*
X234859552Y-102638616D01*
X234846606Y-102638101D01*
X234833856Y-102637471D01*
X234821304Y-102636727D01*
X234808948Y-102635868D01*
X234796788Y-102634895D01*
X234784825Y-102633808D01*
X234773058Y-102632605D01*
X234761488Y-102631289D01*
X234750115Y-102629858D01*
X234738938Y-102628312D01*
X234727957Y-102626652D01*
X234717173Y-102624877D01*
X234711857Y-102623942D01*
X234701381Y-102621951D01*
X234691115Y-102619803D01*
X234681059Y-102617496D01*
X234671213Y-102615031D01*
X234661577Y-102612407D01*
X234647516Y-102608174D01*
X234633928Y-102603586D01*
X234620812Y-102598640D01*
X234608168Y-102593339D01*
X234595996Y-102587681D01*
X234584297Y-102581667D01*
X234573070Y-102575296D01*
X234565883Y-102570813D01*
X234555514Y-102563763D01*
X234545638Y-102556321D01*
X234536257Y-102548490D01*
X234527369Y-102540267D01*
X234518975Y-102531654D01*
X234511074Y-102522650D01*
X234503668Y-102513256D01*
X234496755Y-102503471D01*
X234490335Y-102493295D01*
X234484410Y-102482728D01*
X234479041Y-102471734D01*
X234474200Y-102460277D01*
X234469888Y-102448356D01*
X234466103Y-102435971D01*
X234462847Y-102423122D01*
X234460118Y-102409810D01*
X234457918Y-102396034D01*
X234456246Y-102381795D01*
X234455424Y-102372044D01*
X234454837Y-102362087D01*
X234454485Y-102351925D01*
X234454368Y-102341556D01*
X234454450Y-102334717D01*
X234552065Y-102334717D01*
X234552378Y-102346822D01*
X234553317Y-102358469D01*
X234554882Y-102369659D01*
X234557072Y-102380390D01*
X234559889Y-102390664D01*
X234563331Y-102400479D01*
X234567399Y-102409837D01*
X234572093Y-102418736D01*
X234577478Y-102427216D01*
X234583618Y-102435314D01*
X234590514Y-102443031D01*
X234598166Y-102450366D01*
X234606573Y-102457319D01*
X234615736Y-102463891D01*
X234625655Y-102470081D01*
X234636329Y-102475889D01*
X234639132Y-102477267D01*
X234650852Y-102482543D01*
X234660173Y-102486254D01*
X234669949Y-102489756D01*
X234680180Y-102493046D01*
X234690866Y-102496127D01*
X234702007Y-102498997D01*
X234713604Y-102501657D01*
X234725655Y-102504106D01*
X234738161Y-102506345D01*
X234751123Y-102508374D01*
X234760033Y-102509616D01*
X234773838Y-102511329D01*
X234788172Y-102512862D01*
X234798021Y-102513783D01*
X234808104Y-102514625D01*
X234818422Y-102515386D01*
X234828975Y-102516067D01*
X234839763Y-102516668D01*
X234850786Y-102517189D01*
X234862043Y-102517630D01*
X234873534Y-102517991D01*
X234885261Y-102518271D01*
X234897222Y-102518471D01*
X234909418Y-102518592D01*
X234921849Y-102518632D01*
X234931153Y-102518603D01*
X234944966Y-102518453D01*
X234958607Y-102518174D01*
X234972077Y-102517766D01*
X234985375Y-102517229D01*
X234998501Y-102516564D01*
X235011455Y-102515770D01*
X235024238Y-102514846D01*
X235036849Y-102513795D01*
X235049288Y-102512614D01*
X235061556Y-102511304D01*
X235069612Y-102510306D01*
X235081453Y-102508610D01*
X235093002Y-102506679D01*
X235104259Y-102504512D01*
X235115224Y-102502108D01*
X235125897Y-102499468D01*
X235136279Y-102496593D01*
X235146368Y-102493481D01*
X235156165Y-102490133D01*
X235165671Y-102486548D01*
X235174884Y-102482728D01*
X235186707Y-102477236D01*
X235197874Y-102471264D01*
X235208384Y-102464811D01*
X235218237Y-102457876D01*
X235227435Y-102450461D01*
X235235976Y-102442565D01*
X235243860Y-102434189D01*
X235251088Y-102425331D01*
X235256064Y-102418314D01*
X235261937Y-102408358D01*
X235266941Y-102397714D01*
X235271074Y-102386383D01*
X235274337Y-102374366D01*
X235276729Y-102361661D01*
X235277953Y-102351682D01*
X235278687Y-102341317D01*
X235278932Y-102330565D01*
X235278855Y-102324440D01*
X235278382Y-102314491D01*
X235277249Y-102302976D01*
X235275497Y-102291925D01*
X235273127Y-102281337D01*
X235270139Y-102271214D01*
X235269029Y-102267910D01*
X235265208Y-102258284D01*
X235260649Y-102249088D01*
X235255351Y-102240321D01*
X235249315Y-102231983D01*
X235242540Y-102224075D01*
X235237613Y-102219037D01*
X235229607Y-102211825D01*
X235220863Y-102205024D01*
X235211381Y-102198635D01*
X235202914Y-102193627D01*
X235193935Y-102188904D01*
X235186429Y-102185267D01*
X235176541Y-102180968D01*
X235166093Y-102176943D01*
X235155084Y-102173192D01*
X235143514Y-102169716D01*
X235133855Y-102167132D01*
X235123838Y-102164724D01*
X235121276Y-102164148D01*
X235110781Y-102161931D01*
X235099889Y-102159851D01*
X235088601Y-102157908D01*
X235076915Y-102156103D01*
X235064833Y-102154436D01*
X235052354Y-102152905D01*
X235039477Y-102151512D01*
X235029560Y-102150558D01*
X235022850Y-102149966D01*
X235012581Y-102149151D01*
X235002067Y-102148421D01*
X234991309Y-102147777D01*
X234980306Y-102147219D01*
X234969058Y-102146746D01*
X234957565Y-102146360D01*
X234945828Y-102146059D01*
X234933846Y-102145845D01*
X234921620Y-102145716D01*
X234909148Y-102145673D01*
X234896749Y-102145723D01*
X234884464Y-102145871D01*
X234872294Y-102146119D01*
X234860239Y-102146467D01*
X234848297Y-102146913D01*
X234836471Y-102147459D01*
X234824758Y-102148104D01*
X234813161Y-102148848D01*
X234801781Y-102149722D01*
X234790599Y-102150756D01*
X234779615Y-102151951D01*
X234768831Y-102153306D01*
X234758244Y-102154821D01*
X234747856Y-102156496D01*
X234737667Y-102158332D01*
X234727676Y-102160327D01*
X234720363Y-102161890D01*
X234710799Y-102164134D01*
X234699145Y-102167197D01*
X234687825Y-102170546D01*
X234676839Y-102174181D01*
X234666187Y-102178102D01*
X234655868Y-102182309D01*
X234651844Y-102184048D01*
X234642101Y-102188644D01*
X234632810Y-102193598D01*
X234623973Y-102198910D01*
X234615589Y-102204579D01*
X234607658Y-102210607D01*
X234600181Y-102216992D01*
X234595925Y-102220960D01*
X234587979Y-102229346D01*
X234580789Y-102238333D01*
X234574355Y-102247922D01*
X234568676Y-102258111D01*
X234564521Y-102267062D01*
X234563013Y-102270732D01*
X234559668Y-102280233D01*
X234556931Y-102290200D01*
X234554802Y-102300631D01*
X234553282Y-102311528D01*
X234552369Y-102322890D01*
X234552065Y-102334717D01*
X234454450Y-102334717D01*
X234454499Y-102330584D01*
X234454891Y-102319833D01*
X234455544Y-102309304D01*
X234456459Y-102298996D01*
X234457636Y-102288910D01*
X234459073Y-102279045D01*
X234460773Y-102269401D01*
X234463812Y-102255350D01*
X234467439Y-102241798D01*
X234471654Y-102228743D01*
X234476458Y-102216187D01*
X234481849Y-102204128D01*
X234487829Y-102192568D01*
X234492150Y-102185087D01*
X234499036Y-102174205D01*
X234506407Y-102163732D01*
X234514263Y-102153666D01*
X234522604Y-102144008D01*
X234531431Y-102134758D01*
X234540742Y-102125916D01*
X234550539Y-102117482D01*
X234560821Y-102109455D01*
X234571588Y-102101837D01*
X234582840Y-102094626D01*
X234586694Y-102092296D01*
X234598536Y-102085559D01*
X234610794Y-102079199D01*
X234623469Y-102073217D01*
X234636560Y-102067613D01*
X234650068Y-102062386D01*
X234659304Y-102059112D01*
X234668725Y-102056005D01*
X234678332Y-102053067D01*
X234688124Y-102050296D01*
X234698100Y-102047693D01*
X234708262Y-102045259D01*
X234718609Y-102042992D01*
X234729141Y-102040893D01*
X234739867Y-102038941D01*
X234750734Y-102037115D01*
X234761742Y-102035414D01*
X234772891Y-102033840D01*
X234784182Y-102032392D01*
X234795613Y-102031070D01*
X234807186Y-102029873D01*
X234818900Y-102028803D01*
X234830756Y-102027858D01*
X234842752Y-102027040D01*
X234854890Y-102026347D01*
X234867169Y-102025780D01*
X234879589Y-102025339D01*
X234892150Y-102025025D01*
X234904853Y-102024836D01*
X234917697Y-102024773D01*
X234931429Y-102024831D01*
G37*
G36*
X234814138Y-101596615D02*
G01*
X234803273Y-101596907D01*
X234792775Y-101597957D01*
X234782528Y-101600342D01*
X234777257Y-101602721D01*
X234769894Y-101609680D01*
X234767039Y-101619107D01*
X234766999Y-101620551D01*
X234766999Y-101907780D01*
X234769009Y-101917344D01*
X234775624Y-101925101D01*
X234777501Y-101926343D01*
X234786679Y-101929819D01*
X234796850Y-101931590D01*
X234807902Y-101932353D01*
X234814138Y-101932449D01*
X234824812Y-101932157D01*
X234835150Y-101931107D01*
X234845282Y-101928722D01*
X234850530Y-101926343D01*
X234857893Y-101919101D01*
X234860748Y-101909284D01*
X234860788Y-101907780D01*
X234860788Y-101620551D01*
X234858590Y-101610781D01*
X234851492Y-101603583D01*
X234850774Y-101603210D01*
X234841434Y-101599536D01*
X234836120Y-101598325D01*
X234826228Y-101597042D01*
X234815769Y-101596622D01*
X234814138Y-101596615D01*
G37*
G36*
X234518115Y-100915177D02*
G01*
X234507886Y-100915540D01*
X234497786Y-100916860D01*
X234495401Y-100917376D01*
X234485789Y-100920213D01*
X234480502Y-100922749D01*
X234473102Y-100929481D01*
X234472442Y-100930565D01*
X234470000Y-100939846D01*
X234470000Y-101404152D01*
X234472442Y-101413189D01*
X234479477Y-101420514D01*
X234480502Y-101421249D01*
X234489563Y-101425426D01*
X234495401Y-101427110D01*
X234505720Y-101428576D01*
X234515633Y-101429047D01*
X234518115Y-101429064D01*
X234528574Y-101428690D01*
X234538327Y-101427460D01*
X234540097Y-101427110D01*
X234549913Y-101424156D01*
X234555240Y-101421737D01*
X234563228Y-101415771D01*
X234564521Y-101414166D01*
X234567684Y-101404849D01*
X234567697Y-101404152D01*
X234567697Y-101218771D01*
X235235945Y-101218771D01*
X235126524Y-101390474D01*
X235122002Y-101399496D01*
X235118571Y-101408841D01*
X235117976Y-101411479D01*
X235119122Y-101421200D01*
X235121151Y-101424180D01*
X235129766Y-101429223D01*
X235136294Y-101430774D01*
X235146773Y-101431943D01*
X235157466Y-101432424D01*
X235163405Y-101432484D01*
X235173389Y-101432297D01*
X235183628Y-101431567D01*
X235184166Y-101431507D01*
X235194123Y-101429588D01*
X235198332Y-101428332D01*
X235207040Y-101423363D01*
X235208101Y-101422470D01*
X235214822Y-101415022D01*
X235216650Y-101412456D01*
X235352449Y-101207780D01*
X235355868Y-101200942D01*
X235358616Y-101191439D01*
X235358799Y-101190683D01*
X235360275Y-101180672D01*
X235360509Y-101176273D01*
X235360890Y-101166278D01*
X235360997Y-101156287D01*
X235360997Y-101155512D01*
X235360824Y-101144897D01*
X235360240Y-101134765D01*
X235359532Y-101128157D01*
X235358005Y-101118387D01*
X235355868Y-101111060D01*
X235350215Y-101103017D01*
X235349762Y-101102756D01*
X235341946Y-101100558D01*
X234567697Y-101100558D01*
X234567697Y-100939846D01*
X234564906Y-100930200D01*
X234564521Y-100929588D01*
X234557077Y-100922736D01*
X234555240Y-100921772D01*
X234546074Y-100918236D01*
X234540097Y-100916887D01*
X234529961Y-100915605D01*
X234519690Y-100915184D01*
X234518115Y-100915177D01*
G37*
G36*
X234521535Y-100207850D02*
G01*
X234511150Y-100208177D01*
X234501164Y-100209254D01*
X234499309Y-100209560D01*
X234489322Y-100211947D01*
X234482944Y-100214445D01*
X234474976Y-100220307D01*
X234473175Y-100222749D01*
X234470077Y-100232100D01*
X234470000Y-100233984D01*
X234470000Y-100725157D01*
X234470772Y-100735177D01*
X234472442Y-100742009D01*
X234477186Y-100750940D01*
X234480258Y-100754466D01*
X234488651Y-100759609D01*
X234496378Y-100762037D01*
X234506456Y-100763540D01*
X234516508Y-100764158D01*
X234522023Y-100764235D01*
X234531949Y-100764098D01*
X234542228Y-100763590D01*
X234546203Y-100763258D01*
X234556095Y-100761671D01*
X234564766Y-100758862D01*
X234573756Y-100754474D01*
X234580642Y-100750314D01*
X234588946Y-100744391D01*
X234596613Y-100737906D01*
X234597739Y-100736880D01*
X234778478Y-100564445D01*
X234786425Y-100557058D01*
X234794266Y-100549859D01*
X234802003Y-100542846D01*
X234809634Y-100536021D01*
X234817161Y-100529383D01*
X234824583Y-100522931D01*
X234835519Y-100513605D01*
X234846218Y-100504699D01*
X234856682Y-100496214D01*
X234866909Y-100488149D01*
X234876901Y-100480506D01*
X234886656Y-100473283D01*
X234893028Y-100468702D01*
X234902474Y-100462070D01*
X234911761Y-100455730D01*
X234920890Y-100449682D01*
X234929859Y-100443926D01*
X234938670Y-100438462D01*
X234947322Y-100433290D01*
X234955815Y-100428410D01*
X234966891Y-100422357D01*
X234977686Y-100416824D01*
X234985596Y-100413014D01*
X234995915Y-100408339D01*
X235005990Y-100404084D01*
X235015821Y-100400249D01*
X235025408Y-100396833D01*
X235034750Y-100393837D01*
X235046084Y-100390683D01*
X235057037Y-100388184D01*
X235061311Y-100387369D01*
X235071890Y-100385539D01*
X235082253Y-100384020D01*
X235092402Y-100382811D01*
X235102337Y-100381911D01*
X235113974Y-100381242D01*
X235125303Y-100381018D01*
X235136274Y-100381362D01*
X235147022Y-100382392D01*
X235157546Y-100384110D01*
X235167847Y-100386514D01*
X235177925Y-100389605D01*
X235181235Y-100390788D01*
X235190978Y-100394669D01*
X235200240Y-100399169D01*
X235209021Y-100404286D01*
X235217322Y-100410022D01*
X235225141Y-100416376D01*
X235227641Y-100418632D01*
X235234859Y-100425744D01*
X235241494Y-100433527D01*
X235247545Y-100441979D01*
X235253012Y-100451101D01*
X235257894Y-100460892D01*
X235259392Y-100464305D01*
X235263377Y-100474855D01*
X235266536Y-100485989D01*
X235268540Y-100495714D01*
X235269971Y-100505844D01*
X235270830Y-100516379D01*
X235271116Y-100527320D01*
X235270914Y-100537685D01*
X235270307Y-100547775D01*
X235269296Y-100557591D01*
X235267463Y-100569474D01*
X235264998Y-100580927D01*
X235261900Y-100591952D01*
X235258171Y-100602547D01*
X235254072Y-100612730D01*
X235249866Y-100622520D01*
X235245552Y-100631917D01*
X235241131Y-100640919D01*
X235235685Y-100651203D01*
X235230083Y-100660921D01*
X235224482Y-100670063D01*
X235219035Y-100678621D01*
X235212876Y-100687867D01*
X235206927Y-100696319D01*
X235201995Y-100702930D01*
X235195738Y-100711715D01*
X235190871Y-100720562D01*
X235189050Y-100727843D01*
X235191981Y-100736636D01*
X235200102Y-100742273D01*
X235201263Y-100742742D01*
X235211128Y-100745413D01*
X235218604Y-100746650D01*
X235228849Y-100747485D01*
X235238969Y-100747828D01*
X235244494Y-100747871D01*
X235254691Y-100747688D01*
X235263300Y-100747138D01*
X235273228Y-100745669D01*
X235276978Y-100744696D01*
X235286174Y-100741115D01*
X235287725Y-100740300D01*
X235295508Y-100734354D01*
X235300425Y-100729309D01*
X235306859Y-100721397D01*
X235312677Y-100713255D01*
X235318562Y-100704428D01*
X235320942Y-100700732D01*
X235326677Y-100691372D01*
X235331537Y-100682568D01*
X235336345Y-100673043D01*
X235341102Y-100662796D01*
X235345027Y-100653706D01*
X235346587Y-100649930D01*
X235350455Y-100640240D01*
X235354119Y-100630252D01*
X235357582Y-100619966D01*
X235360841Y-100609382D01*
X235363898Y-100598499D01*
X235366751Y-100587319D01*
X235367836Y-100582763D01*
X235370369Y-100571148D01*
X235372473Y-100559355D01*
X235374147Y-100547382D01*
X235375392Y-100535231D01*
X235376079Y-100525381D01*
X235376492Y-100515417D01*
X235376629Y-100505338D01*
X235376468Y-100493390D01*
X235375985Y-100481725D01*
X235375180Y-100470343D01*
X235374053Y-100459245D01*
X235372604Y-100448430D01*
X235370833Y-100437898D01*
X235368740Y-100427650D01*
X235366325Y-100417685D01*
X235363588Y-100408004D01*
X235360529Y-100398606D01*
X235358311Y-100392498D01*
X235353521Y-100380610D01*
X235348312Y-100369249D01*
X235342683Y-100358414D01*
X235336634Y-100348107D01*
X235330166Y-100338325D01*
X235323277Y-100329071D01*
X235315969Y-100320343D01*
X235308241Y-100312142D01*
X235300139Y-100304395D01*
X235291709Y-100297151D01*
X235282950Y-100290412D01*
X235273864Y-100284176D01*
X235264449Y-100278444D01*
X235254706Y-100273216D01*
X235244635Y-100268491D01*
X235234235Y-100264270D01*
X235223645Y-100260549D01*
X235212879Y-100257325D01*
X235201938Y-100254596D01*
X235190821Y-100252363D01*
X235179529Y-100250627D01*
X235168061Y-100249387D01*
X235156417Y-100248643D01*
X235144598Y-100248394D01*
X235133855Y-100248513D01*
X235123120Y-100248868D01*
X235112393Y-100249459D01*
X235101673Y-100250287D01*
X235090960Y-100251352D01*
X235080256Y-100252653D01*
X235069558Y-100254191D01*
X235058869Y-100255966D01*
X235048134Y-100258122D01*
X235037177Y-100260805D01*
X235025999Y-100264015D01*
X235014600Y-100267751D01*
X235002979Y-100272014D01*
X234991137Y-100276803D01*
X234982111Y-100280741D01*
X234972959Y-100284975D01*
X234966789Y-100287962D01*
X234957438Y-100292732D01*
X234947884Y-100297885D01*
X234938129Y-100303420D01*
X234928172Y-100309337D01*
X234918014Y-100315636D01*
X234907653Y-100322317D01*
X234897091Y-100329380D01*
X234886327Y-100336826D01*
X234875361Y-100344653D01*
X234864193Y-100352863D01*
X234856636Y-100358548D01*
X234845118Y-100367424D01*
X234837260Y-100373637D01*
X234829259Y-100380086D01*
X234821115Y-100386772D01*
X234812828Y-100393695D01*
X234804398Y-100400854D01*
X234795824Y-100408250D01*
X234787108Y-100415883D01*
X234778249Y-100423752D01*
X234769246Y-100431858D01*
X234760100Y-100440200D01*
X234750811Y-100448780D01*
X234741379Y-100457595D01*
X234731804Y-100466647D01*
X234722086Y-100475936D01*
X234717173Y-100480669D01*
X234571605Y-100621353D01*
X234571605Y-100234717D01*
X234568997Y-100224936D01*
X234568429Y-100223970D01*
X234561530Y-100216850D01*
X234558904Y-100215177D01*
X234549936Y-100211151D01*
X234543272Y-100209560D01*
X234533197Y-100208278D01*
X234523079Y-100207857D01*
X234521535Y-100207850D01*
G37*
G36*
X234702309Y-99478105D02*
G01*
X234714373Y-99478695D01*
X234726103Y-99479942D01*
X234737500Y-99481844D01*
X234748562Y-99484402D01*
X234759291Y-99487616D01*
X234769685Y-99491486D01*
X234773793Y-99493213D01*
X234783936Y-99497947D01*
X234793900Y-99503278D01*
X234803685Y-99509205D01*
X234813291Y-99515729D01*
X234822719Y-99522849D01*
X234831967Y-99530565D01*
X234839295Y-99537175D01*
X234846500Y-99544181D01*
X234853583Y-99551585D01*
X234860544Y-99559385D01*
X234867383Y-99567583D01*
X234874099Y-99576177D01*
X234880694Y-99585168D01*
X234887166Y-99594556D01*
X234891962Y-99601793D01*
X234898316Y-99611729D01*
X234904624Y-99621992D01*
X234910887Y-99632585D01*
X234917104Y-99643505D01*
X234923275Y-99654753D01*
X234927873Y-99663405D01*
X234932445Y-99672242D01*
X234936992Y-99681263D01*
X234942594Y-99671146D01*
X234948288Y-99661311D01*
X234954074Y-99651759D01*
X234959951Y-99642489D01*
X234965919Y-99633502D01*
X234971980Y-99624797D01*
X234978131Y-99616374D01*
X234984375Y-99608234D01*
X234990782Y-99600391D01*
X234997305Y-99592862D01*
X235003941Y-99585645D01*
X235012398Y-99577065D01*
X235021033Y-99568973D01*
X235029848Y-99561370D01*
X235038841Y-99554256D01*
X235042488Y-99551551D01*
X235051721Y-99545153D01*
X235061121Y-99539281D01*
X235070688Y-99533934D01*
X235080422Y-99529111D01*
X235090322Y-99524813D01*
X235100390Y-99521039D01*
X235104462Y-99519649D01*
X235114742Y-99516566D01*
X235125166Y-99514044D01*
X235135732Y-99512082D01*
X235146442Y-99510681D01*
X235157294Y-99509840D01*
X235168290Y-99509560D01*
X235179075Y-99509796D01*
X235189692Y-99510506D01*
X235200141Y-99511689D01*
X235210422Y-99513346D01*
X235220535Y-99515475D01*
X235230480Y-99518078D01*
X235240257Y-99521154D01*
X235249867Y-99524703D01*
X235259236Y-99528752D01*
X235268292Y-99533328D01*
X235277035Y-99538430D01*
X235285465Y-99544059D01*
X235293583Y-99550215D01*
X235301387Y-99556897D01*
X235308878Y-99564106D01*
X235316057Y-99571842D01*
X235322892Y-99580108D01*
X235329353Y-99588908D01*
X235335440Y-99598243D01*
X235341153Y-99608112D01*
X235346492Y-99618515D01*
X235351457Y-99629453D01*
X235356048Y-99640924D01*
X235360265Y-99652930D01*
X235362246Y-99659138D01*
X235364979Y-99668713D01*
X235367424Y-99678606D01*
X235369581Y-99688817D01*
X235371451Y-99699346D01*
X235373033Y-99710192D01*
X235374328Y-99721357D01*
X235375335Y-99732838D01*
X235376054Y-99744638D01*
X235376485Y-99756755D01*
X235376629Y-99769190D01*
X235376559Y-99777884D01*
X235376194Y-99790672D01*
X235375515Y-99803155D01*
X235374522Y-99815333D01*
X235373216Y-99827206D01*
X235371597Y-99838775D01*
X235369664Y-99850038D01*
X235367418Y-99860997D01*
X235364859Y-99871651D01*
X235361986Y-99882000D01*
X235358799Y-99892044D01*
X235356550Y-99898536D01*
X235352988Y-99908001D01*
X235349197Y-99917140D01*
X235343790Y-99928818D01*
X235337978Y-99939916D01*
X235331761Y-99950433D01*
X235325140Y-99960371D01*
X235318114Y-99969729D01*
X235310683Y-99978506D01*
X235302940Y-99986726D01*
X235294853Y-99994412D01*
X235286423Y-100001564D01*
X235277650Y-100008182D01*
X235268532Y-100014265D01*
X235259072Y-100019814D01*
X235249268Y-100024828D01*
X235239120Y-100029309D01*
X235228767Y-100033259D01*
X235218222Y-100036682D01*
X235207487Y-100039578D01*
X235196561Y-100041948D01*
X235185444Y-100043791D01*
X235174136Y-100045108D01*
X235162638Y-100045898D01*
X235150949Y-100046161D01*
X235146298Y-100046118D01*
X235134857Y-100045624D01*
X235123677Y-100044581D01*
X235112760Y-100042991D01*
X235102106Y-100040851D01*
X235091713Y-100038163D01*
X235081584Y-100034926D01*
X235077629Y-100033450D01*
X235067868Y-100029401D01*
X235058285Y-100024840D01*
X235048882Y-100019765D01*
X235039657Y-100014178D01*
X235030611Y-100008078D01*
X235021744Y-100001465D01*
X235016514Y-99997260D01*
X235007960Y-99989879D01*
X234999608Y-99982033D01*
X234991459Y-99973721D01*
X234983513Y-99964945D01*
X234975769Y-99955704D01*
X234969720Y-99947976D01*
X234963832Y-99939889D01*
X234958012Y-99931505D01*
X234952261Y-99922823D01*
X234946578Y-99913843D01*
X234940965Y-99904565D01*
X234935420Y-99894990D01*
X234929943Y-99885118D01*
X234924535Y-99874947D01*
X234923053Y-99877914D01*
X234918578Y-99886701D01*
X234912552Y-99898150D01*
X234906458Y-99909294D01*
X234900294Y-99920132D01*
X234894062Y-99930665D01*
X234887762Y-99940893D01*
X234881392Y-99950815D01*
X234874954Y-99960432D01*
X234868421Y-99969652D01*
X234861765Y-99978506D01*
X234854987Y-99986994D01*
X234848087Y-99995115D01*
X234841065Y-100002869D01*
X234833921Y-100010258D01*
X234826655Y-100017280D01*
X234819267Y-100023935D01*
X234815520Y-100027094D01*
X234805961Y-100034583D01*
X234796129Y-100041486D01*
X234786021Y-100047806D01*
X234775640Y-100053541D01*
X234764984Y-100058692D01*
X234754054Y-100063258D01*
X234751849Y-100064100D01*
X234740616Y-100067907D01*
X234729037Y-100071046D01*
X234717112Y-100073517D01*
X234707323Y-100075013D01*
X234697313Y-100076081D01*
X234687082Y-100076722D01*
X234676629Y-100076936D01*
X234673313Y-100076917D01*
X234663501Y-100076627D01*
X234650739Y-100075700D01*
X234638344Y-100074154D01*
X234626315Y-100071990D01*
X234614652Y-100069208D01*
X234603356Y-100065808D01*
X234592426Y-100061789D01*
X234581863Y-100057152D01*
X234571685Y-100051871D01*
X234561911Y-100046039D01*
X234552542Y-100039658D01*
X234543578Y-100032728D01*
X234535018Y-100025248D01*
X234526862Y-100017219D01*
X234519111Y-100008640D01*
X234511765Y-99999511D01*
X234504900Y-99989791D01*
X234498469Y-99979559D01*
X234492474Y-99968817D01*
X234486913Y-99957562D01*
X234481788Y-99945797D01*
X234478230Y-99936637D01*
X234474916Y-99927189D01*
X234471847Y-99917454D01*
X234469023Y-99907431D01*
X234467248Y-99900568D01*
X234464801Y-99890065D01*
X234462611Y-99879313D01*
X234460679Y-99868312D01*
X234459005Y-99857062D01*
X234457588Y-99845563D01*
X234456429Y-99833815D01*
X234455527Y-99821818D01*
X234454883Y-99809572D01*
X234454497Y-99797077D01*
X234454368Y-99784333D01*
X234454428Y-99775540D01*
X234548157Y-99775540D01*
X234548300Y-99786692D01*
X234548730Y-99797492D01*
X234549445Y-99807941D01*
X234550447Y-99818039D01*
X234552486Y-99832527D01*
X234555170Y-99846226D01*
X234558497Y-99859134D01*
X234562468Y-99871253D01*
X234567084Y-99882582D01*
X234572343Y-99893120D01*
X234578246Y-99902869D01*
X234584794Y-99911828D01*
X234589491Y-99917359D01*
X234596982Y-99924986D01*
X234605005Y-99931810D01*
X234613560Y-99937831D01*
X234622647Y-99943050D01*
X234632267Y-99947466D01*
X234642420Y-99951078D01*
X234653104Y-99953888D01*
X234664321Y-99955896D01*
X234676071Y-99957100D01*
X234688353Y-99957501D01*
X234692118Y-99957460D01*
X234703175Y-99956845D01*
X234713871Y-99955491D01*
X234724207Y-99953399D01*
X234734182Y-99950568D01*
X234743796Y-99946999D01*
X234746960Y-99945615D01*
X234756328Y-99940984D01*
X234765508Y-99935632D01*
X234774498Y-99929558D01*
X234783299Y-99922763D01*
X234791912Y-99915247D01*
X234794745Y-99912577D01*
X234801779Y-99905508D01*
X234808741Y-99897879D01*
X234815632Y-99889690D01*
X234822451Y-99880940D01*
X234829199Y-99871629D01*
X234835875Y-99861758D01*
X234841249Y-99853412D01*
X234846622Y-99844737D01*
X234851995Y-99835735D01*
X234857369Y-99826404D01*
X234862742Y-99816745D01*
X234868115Y-99806758D01*
X234873489Y-99796442D01*
X234878862Y-99785799D01*
X234873206Y-99774311D01*
X234870995Y-99769923D01*
X234981200Y-99769923D01*
X234983879Y-99775038D01*
X234989191Y-99785007D01*
X234994442Y-99794624D01*
X234999632Y-99803890D01*
X235004762Y-99812805D01*
X235009830Y-99821368D01*
X235016079Y-99831579D01*
X235022233Y-99841242D01*
X235028433Y-99850303D01*
X235034669Y-99858863D01*
X235040941Y-99866923D01*
X235047248Y-99874482D01*
X235054865Y-99882891D01*
X235062533Y-99890579D01*
X235070404Y-99897545D01*
X235078447Y-99903791D01*
X235086661Y-99909315D01*
X235096462Y-99914848D01*
X235106496Y-99919399D01*
X235113837Y-99922073D01*
X235124414Y-99925055D01*
X235135342Y-99927149D01*
X235146620Y-99928354D01*
X235156566Y-99928681D01*
X235163796Y-99928532D01*
X235174276Y-99927750D01*
X235184318Y-99926299D01*
X235197026Y-99923323D01*
X235208956Y-99919155D01*
X235220107Y-99913797D01*
X235230480Y-99907248D01*
X235240074Y-99899509D01*
X235248890Y-99890579D01*
X235250979Y-99888162D01*
X235258670Y-99877789D01*
X235263743Y-99869269D01*
X235268219Y-99860112D01*
X235272098Y-99850321D01*
X235275380Y-99839894D01*
X235278066Y-99828831D01*
X235280154Y-99817133D01*
X235281646Y-99804800D01*
X235282541Y-99791831D01*
X235282840Y-99778227D01*
X235282831Y-99775960D01*
X235282531Y-99764855D01*
X235281801Y-99754131D01*
X235280642Y-99743789D01*
X235279053Y-99733828D01*
X235277035Y-99724249D01*
X235274047Y-99713258D01*
X235273505Y-99711482D01*
X235269921Y-99701212D01*
X235265771Y-99691612D01*
X235261054Y-99682682D01*
X235255770Y-99674422D01*
X235248890Y-99665631D01*
X235244688Y-99660952D01*
X235236803Y-99653462D01*
X235228239Y-99646861D01*
X235218998Y-99641147D01*
X235209078Y-99636322D01*
X235207607Y-99635706D01*
X235197004Y-99631941D01*
X235187487Y-99629476D01*
X235177575Y-99627716D01*
X235167268Y-99626660D01*
X235156566Y-99626308D01*
X235143579Y-99626888D01*
X235130875Y-99628628D01*
X235118453Y-99631529D01*
X235106313Y-99635589D01*
X235094456Y-99640810D01*
X235085748Y-99645487D01*
X235077200Y-99650816D01*
X235068810Y-99656798D01*
X235060579Y-99663433D01*
X235055174Y-99668199D01*
X235047178Y-99675822D01*
X235039314Y-99684010D01*
X235031584Y-99692766D01*
X235023987Y-99702088D01*
X235016523Y-99711977D01*
X235009192Y-99722433D01*
X235001995Y-99733455D01*
X234994930Y-99745044D01*
X234987998Y-99757200D01*
X234981200Y-99769923D01*
X234870995Y-99769923D01*
X234867596Y-99763176D01*
X234862032Y-99752391D01*
X234856514Y-99741957D01*
X234851041Y-99731874D01*
X234845614Y-99722143D01*
X234840233Y-99712762D01*
X234834898Y-99703733D01*
X234830947Y-99697196D01*
X234825639Y-99688800D01*
X234818939Y-99678820D01*
X234812167Y-99669413D01*
X234805324Y-99660578D01*
X234798409Y-99652316D01*
X234791423Y-99644626D01*
X234787223Y-99640289D01*
X234780081Y-99633528D01*
X234771274Y-99626187D01*
X234762209Y-99619687D01*
X234752887Y-99614028D01*
X234743307Y-99609211D01*
X234738401Y-99607116D01*
X234728281Y-99603544D01*
X234717748Y-99600796D01*
X234706802Y-99598873D01*
X234695445Y-99597774D01*
X234685666Y-99597487D01*
X234677802Y-99597664D01*
X234666401Y-99598590D01*
X234655471Y-99600311D01*
X234645014Y-99602827D01*
X234635029Y-99606136D01*
X234625517Y-99610240D01*
X234616477Y-99615138D01*
X234607908Y-99620830D01*
X234599813Y-99627316D01*
X234592189Y-99634597D01*
X234585038Y-99642672D01*
X234578447Y-99651476D01*
X234572504Y-99661036D01*
X234567210Y-99671352D01*
X234562564Y-99682423D01*
X234558566Y-99694249D01*
X234555216Y-99706832D01*
X234552515Y-99720170D01*
X234550462Y-99734263D01*
X234549454Y-99744079D01*
X234548733Y-99754230D01*
X234548301Y-99764717D01*
X234548157Y-99775540D01*
X234454428Y-99775540D01*
X234454430Y-99775208D01*
X234454756Y-99761764D01*
X234455360Y-99748613D01*
X234456244Y-99735753D01*
X234457407Y-99723185D01*
X234458849Y-99710909D01*
X234460569Y-99698924D01*
X234462569Y-99687232D01*
X234464848Y-99675832D01*
X234467407Y-99664724D01*
X234470244Y-99653907D01*
X234472288Y-99646836D01*
X234475581Y-99636500D01*
X234479143Y-99626491D01*
X234482977Y-99616808D01*
X234487080Y-99607452D01*
X234491454Y-99598421D01*
X234496099Y-99589717D01*
X234502713Y-99578620D01*
X234509807Y-99568102D01*
X234517383Y-99558164D01*
X234525416Y-99548742D01*
X234533884Y-99539892D01*
X234542788Y-99531614D01*
X234552126Y-99523909D01*
X234561900Y-99516776D01*
X234572108Y-99510216D01*
X234582752Y-99504228D01*
X234593831Y-99498813D01*
X234599559Y-99496299D01*
X234611313Y-99491758D01*
X234623464Y-99487865D01*
X234636012Y-99484621D01*
X234645684Y-99482614D01*
X234655578Y-99480972D01*
X234665696Y-99479695D01*
X234676037Y-99478782D01*
X234686602Y-99478235D01*
X234697390Y-99478053D01*
X234702309Y-99478105D01*
G37*
G36*
X234491981Y-98339392D02*
G01*
X234482473Y-98342143D01*
X234482212Y-98342323D01*
X234476332Y-98350603D01*
X234475861Y-98351849D01*
X234473219Y-98361348D01*
X234471709Y-98369434D01*
X234470540Y-98379886D01*
X234470081Y-98389869D01*
X234470000Y-98397034D01*
X234470202Y-98407429D01*
X234470883Y-98417584D01*
X234471709Y-98424389D01*
X234473602Y-98434464D01*
X234475861Y-98442219D01*
X234481258Y-98450714D01*
X234482212Y-98451500D01*
X234491632Y-98454184D01*
X234491981Y-98454187D01*
X235264277Y-98454187D01*
X235264277Y-98455408D01*
X234488562Y-98772191D01*
X234480473Y-98777810D01*
X234480258Y-98778053D01*
X234475183Y-98786843D01*
X234474396Y-98789043D01*
X234471915Y-98799042D01*
X234470976Y-98806140D01*
X234470275Y-98816334D01*
X234470015Y-98826470D01*
X234470000Y-98829832D01*
X234470171Y-98840090D01*
X234470745Y-98849963D01*
X234471221Y-98854745D01*
X234473053Y-98864679D01*
X234475129Y-98871842D01*
X234479541Y-98880739D01*
X234480990Y-98882588D01*
X234488562Y-98887473D01*
X235264277Y-99190579D01*
X235264277Y-99191311D01*
X234491981Y-99191311D01*
X234482473Y-99193833D01*
X234482212Y-99193998D01*
X234476332Y-99202278D01*
X234475861Y-99203524D01*
X234473219Y-99213108D01*
X234471709Y-99221353D01*
X234470602Y-99231331D01*
X234470106Y-99241412D01*
X234470000Y-99249685D01*
X234470202Y-99260301D01*
X234470883Y-99270433D01*
X234471709Y-99277041D01*
X234473602Y-99286933D01*
X234475861Y-99294626D01*
X234481258Y-99302988D01*
X234482212Y-99303663D01*
X234491981Y-99305861D01*
X235307508Y-99305861D01*
X235317732Y-99305329D01*
X235328184Y-99303362D01*
X235338183Y-99299340D01*
X235346105Y-99293425D01*
X235348541Y-99290718D01*
X235354562Y-99281949D01*
X235358613Y-99272678D01*
X235360693Y-99262904D01*
X235360997Y-99257257D01*
X235360997Y-99185694D01*
X235360738Y-99175054D01*
X235359959Y-99165116D01*
X235358463Y-99154776D01*
X235356845Y-99147348D01*
X235353773Y-99137397D01*
X235349747Y-99128304D01*
X235344216Y-99119295D01*
X235343656Y-99118527D01*
X235337034Y-99110454D01*
X235329257Y-99103362D01*
X235321186Y-99097766D01*
X235312160Y-99092791D01*
X235303222Y-99088680D01*
X235293510Y-99084917D01*
X235288946Y-99083356D01*
X234646831Y-98825680D01*
X234646831Y-98822260D01*
X235286992Y-98554326D01*
X235296868Y-98550464D01*
X235305982Y-98546449D01*
X235315322Y-98541750D01*
X235321919Y-98537962D01*
X235330353Y-98532171D01*
X235338308Y-98525470D01*
X235344877Y-98518422D01*
X235350602Y-98510053D01*
X235354952Y-98501066D01*
X235357090Y-98494731D01*
X235359314Y-98485202D01*
X235360616Y-98474749D01*
X235360997Y-98464445D01*
X235360997Y-98389462D01*
X235360204Y-98379448D01*
X235357822Y-98369923D01*
X235353674Y-98360889D01*
X235348297Y-98354291D01*
X235340325Y-98347974D01*
X235331688Y-98343545D01*
X235322252Y-98340706D01*
X235311898Y-98339494D01*
X235307508Y-98339392D01*
X234491981Y-98339392D01*
G37*
G36*
X234733419Y-97523350D02*
G01*
X234744299Y-97524003D01*
X234754943Y-97525091D01*
X234765350Y-97526613D01*
X234775521Y-97528571D01*
X234785454Y-97530964D01*
X234795152Y-97533792D01*
X234804612Y-97537055D01*
X234809246Y-97538803D01*
X234820505Y-97543518D01*
X234831300Y-97548721D01*
X234841629Y-97554413D01*
X234851493Y-97560594D01*
X234860891Y-97567265D01*
X234869825Y-97574424D01*
X234873296Y-97577416D01*
X234881623Y-97585163D01*
X234889448Y-97593292D01*
X234896773Y-97601802D01*
X234903597Y-97610694D01*
X234909920Y-97619967D01*
X234915743Y-97629623D01*
X234917958Y-97633581D01*
X234923112Y-97643653D01*
X234927718Y-97653974D01*
X234931775Y-97664547D01*
X234935284Y-97675370D01*
X234938244Y-97686443D01*
X234940655Y-97697766D01*
X234942240Y-97694160D01*
X234947326Y-97683661D01*
X234952911Y-97673644D01*
X234958993Y-97664107D01*
X234965573Y-97655051D01*
X234972651Y-97646475D01*
X234975143Y-97643727D01*
X234982848Y-97635836D01*
X234990897Y-97628477D01*
X234999289Y-97621650D01*
X235008025Y-97615356D01*
X235017103Y-97609595D01*
X235020235Y-97607761D01*
X235029835Y-97602603D01*
X235039744Y-97597961D01*
X235049962Y-97593833D01*
X235060489Y-97590221D01*
X235071325Y-97587124D01*
X235078695Y-97585350D01*
X235089906Y-97583132D01*
X235101306Y-97581446D01*
X235112895Y-97580292D01*
X235122697Y-97579738D01*
X235132630Y-97579553D01*
X235135978Y-97579570D01*
X235145888Y-97579820D01*
X235158795Y-97580621D01*
X235171350Y-97581957D01*
X235183555Y-97583827D01*
X235195408Y-97586231D01*
X235206911Y-97589170D01*
X235218062Y-97592643D01*
X235228862Y-97596650D01*
X235239338Y-97601191D01*
X235249394Y-97606267D01*
X235259030Y-97611877D01*
X235268246Y-97618021D01*
X235277043Y-97624700D01*
X235285420Y-97631912D01*
X235293376Y-97639660D01*
X235300914Y-97647941D01*
X235302732Y-97650079D01*
X235309733Y-97658962D01*
X235316299Y-97668371D01*
X235322430Y-97678306D01*
X235328126Y-97688769D01*
X235333386Y-97699758D01*
X235338212Y-97711273D01*
X235342603Y-97723316D01*
X235345610Y-97732693D01*
X235348360Y-97742472D01*
X235350839Y-97752757D01*
X235353048Y-97763549D01*
X235354987Y-97774848D01*
X235356655Y-97786653D01*
X235358052Y-97798965D01*
X235359179Y-97811783D01*
X235360036Y-97825109D01*
X235360622Y-97838940D01*
X235360937Y-97853279D01*
X235360997Y-97863119D01*
X235360997Y-98065108D01*
X235360955Y-98067085D01*
X235359486Y-98076774D01*
X235355918Y-98086129D01*
X235350251Y-98095150D01*
X235343977Y-98101240D01*
X235334473Y-98106012D01*
X235323853Y-98108405D01*
X235312882Y-98109071D01*
X234518115Y-98109071D01*
X234508607Y-98108582D01*
X234497692Y-98106407D01*
X234487822Y-98101879D01*
X234480502Y-98095150D01*
X234479230Y-98093372D01*
X234474102Y-98084285D01*
X234471025Y-98074863D01*
X234470000Y-98065108D01*
X234470000Y-97992323D01*
X234567697Y-97992323D01*
X234876420Y-97992323D01*
X234970209Y-97992323D01*
X235263300Y-97992323D01*
X235263300Y-97869958D01*
X235263291Y-97866802D01*
X235263062Y-97854571D01*
X235262527Y-97842965D01*
X235261688Y-97831986D01*
X235260543Y-97821632D01*
X235258683Y-97809570D01*
X235256345Y-97798487D01*
X235253531Y-97788381D01*
X235252275Y-97784550D01*
X235248096Y-97773619D01*
X235243299Y-97763530D01*
X235237884Y-97754282D01*
X235231850Y-97745876D01*
X235225198Y-97738311D01*
X235222847Y-97735940D01*
X235215413Y-97729320D01*
X235207413Y-97723438D01*
X235198847Y-97718294D01*
X235189714Y-97713889D01*
X235180013Y-97710223D01*
X235173262Y-97708105D01*
X235162778Y-97705457D01*
X235151864Y-97703445D01*
X235140521Y-97702068D01*
X235130741Y-97701406D01*
X235120662Y-97701186D01*
X235116976Y-97701219D01*
X235106008Y-97701720D01*
X235095177Y-97702822D01*
X235084484Y-97704525D01*
X235073928Y-97706829D01*
X235063510Y-97709734D01*
X235060086Y-97710842D01*
X235050137Y-97714634D01*
X235040669Y-97719131D01*
X235031682Y-97724332D01*
X235023175Y-97730236D01*
X235015150Y-97736845D01*
X235012617Y-97739203D01*
X235005410Y-97746722D01*
X234998787Y-97754911D01*
X234992748Y-97763769D01*
X234987292Y-97773298D01*
X234982421Y-97783496D01*
X234978903Y-97792714D01*
X234975981Y-97802816D01*
X234973655Y-97813799D01*
X234971926Y-97825666D01*
X234970972Y-97835794D01*
X234970400Y-97846487D01*
X234970209Y-97857745D01*
X234970209Y-97992323D01*
X234876420Y-97992323D01*
X234876420Y-97850907D01*
X234876409Y-97847445D01*
X234876255Y-97837283D01*
X234875763Y-97824254D01*
X234874943Y-97811820D01*
X234873794Y-97799982D01*
X234872317Y-97788739D01*
X234870512Y-97778092D01*
X234868379Y-97768040D01*
X234865917Y-97758583D01*
X234864566Y-97754021D01*
X234860855Y-97743044D01*
X234856666Y-97732674D01*
X234852001Y-97722913D01*
X234846859Y-97713760D01*
X234841239Y-97705215D01*
X234835143Y-97697278D01*
X234828575Y-97689932D01*
X234820080Y-97681872D01*
X234810915Y-97674636D01*
X234802766Y-97669236D01*
X234794152Y-97664408D01*
X234785073Y-97660153D01*
X234781311Y-97658615D01*
X234771581Y-97655204D01*
X234761385Y-97652414D01*
X234750724Y-97650243D01*
X234739599Y-97648693D01*
X234728008Y-97647762D01*
X234715952Y-97647452D01*
X234713671Y-97647465D01*
X234702523Y-97647916D01*
X234691803Y-97649011D01*
X234681514Y-97650750D01*
X234671653Y-97653132D01*
X234662222Y-97656159D01*
X234651472Y-97660642D01*
X234648057Y-97662300D01*
X234638237Y-97667755D01*
X234629052Y-97673932D01*
X234620503Y-97680830D01*
X234612589Y-97688449D01*
X234605310Y-97696789D01*
X234601909Y-97701159D01*
X234595583Y-97710283D01*
X234589893Y-97719923D01*
X234584839Y-97730079D01*
X234580419Y-97740749D01*
X234577222Y-97750034D01*
X234575520Y-97755760D01*
X234573055Y-97765712D01*
X234571055Y-97776177D01*
X234569520Y-97787155D01*
X234568450Y-97798645D01*
X234567845Y-97810649D01*
X234567697Y-97820621D01*
X234567697Y-97992323D01*
X234470000Y-97992323D01*
X234470000Y-97833077D01*
X234470110Y-97820678D01*
X234470442Y-97808637D01*
X234470996Y-97796956D01*
X234471770Y-97785633D01*
X234472766Y-97774669D01*
X234473984Y-97764063D01*
X234475422Y-97753816D01*
X234477083Y-97743928D01*
X234477996Y-97739093D01*
X234480520Y-97727172D01*
X234483391Y-97715489D01*
X234486607Y-97704045D01*
X234490170Y-97692840D01*
X234494078Y-97681873D01*
X234498332Y-97671144D01*
X234500159Y-97666927D01*
X234504952Y-97656618D01*
X234510067Y-97646643D01*
X234515504Y-97637002D01*
X234521263Y-97627695D01*
X234527344Y-97618722D01*
X234533747Y-97610083D01*
X234536429Y-97606725D01*
X234543359Y-97598596D01*
X234550611Y-97590849D01*
X234558185Y-97583484D01*
X234566081Y-97576500D01*
X234574300Y-97569898D01*
X234582840Y-97563677D01*
X234586348Y-97561300D01*
X234595360Y-97555656D01*
X234604719Y-97550442D01*
X234614423Y-97545658D01*
X234624473Y-97541302D01*
X234634868Y-97537376D01*
X234645610Y-97533879D01*
X234656756Y-97530784D01*
X234668212Y-97528212D01*
X234679978Y-97526166D01*
X234692054Y-97524644D01*
X234701939Y-97523804D01*
X234712021Y-97523301D01*
X234722302Y-97523133D01*
X234733419Y-97523350D01*
G37*
X235905895Y-106000839D02*
X235905895Y-105524649D01*
X235620180Y-106096077D02*
X236620180Y-105762744D01*
X236620180Y-105762744D02*
X235620180Y-105429411D01*
X236620180Y-105238934D02*
X236620180Y-104667506D01*
X235620180Y-104953220D02*
X236620180Y-104953220D01*
X235620180Y-103762744D02*
X236096371Y-104096077D01*
X235620180Y-104334172D02*
X236620180Y-104334172D01*
X236620180Y-104334172D02*
X236620180Y-103953220D01*
X236620180Y-103953220D02*
X236572561Y-103857982D01*
X236572561Y-103857982D02*
X236524942Y-103810363D01*
X236524942Y-103810363D02*
X236429704Y-103762744D01*
X236429704Y-103762744D02*
X236286847Y-103762744D01*
X236286847Y-103762744D02*
X236191609Y-103810363D01*
X236191609Y-103810363D02*
X236143990Y-103857982D01*
X236143990Y-103857982D02*
X236096371Y-103953220D01*
X236096371Y-103953220D02*
X236096371Y-104334172D01*
X235620180Y-103334172D02*
X236620180Y-103334172D01*
X236620180Y-103000839D02*
X235620180Y-102667506D01*
X235620180Y-102667506D02*
X236620180Y-102334173D01*
X235905895Y-102048458D02*
X235905895Y-101572268D01*
X235620180Y-102143696D02*
X236620180Y-101810363D01*
X236620180Y-101810363D02*
X235620180Y-101477030D01*
X236620180Y-101286553D02*
X236620180Y-100715125D01*
X235620180Y-101000839D02*
X236620180Y-101000839D01*
X236143990Y-100381791D02*
X236143990Y-100048458D01*
X235620180Y-99905601D02*
X235620180Y-100381791D01*
X235620180Y-100381791D02*
X236620180Y-100381791D01*
X236620180Y-100381791D02*
X236620180Y-99905601D01*
X235715419Y-98905601D02*
X235667800Y-98953220D01*
X235667800Y-98953220D02*
X235620180Y-99096077D01*
X235620180Y-99096077D02*
X235620180Y-99191315D01*
X235620180Y-99191315D02*
X235667800Y-99334172D01*
X235667800Y-99334172D02*
X235763038Y-99429410D01*
X235763038Y-99429410D02*
X235858276Y-99477029D01*
X235858276Y-99477029D02*
X236048752Y-99524648D01*
X236048752Y-99524648D02*
X236191609Y-99524648D01*
X236191609Y-99524648D02*
X236382085Y-99477029D01*
X236382085Y-99477029D02*
X236477323Y-99429410D01*
X236477323Y-99429410D02*
X236572561Y-99334172D01*
X236572561Y-99334172D02*
X236620180Y-99191315D01*
X236620180Y-99191315D02*
X236620180Y-99096077D01*
X236620180Y-99096077D02*
X236572561Y-98953220D01*
X236572561Y-98953220D02*
X236524942Y-98905601D01*
X235620180Y-98477029D02*
X236620180Y-98477029D01*
X236143990Y-98477029D02*
X236143990Y-97905601D01*
X235620180Y-97905601D02*
X236620180Y-97905601D01*
X235715419Y-97429410D02*
X235667800Y-97381791D01*
X235667800Y-97381791D02*
X235620180Y-97429410D01*
X235620180Y-97429410D02*
X235667800Y-97477029D01*
X235667800Y-97477029D02*
X235715419Y-97429410D01*
X235715419Y-97429410D02*
X235620180Y-97429410D01*
X235715419Y-96381792D02*
X235667800Y-96429411D01*
X235667800Y-96429411D02*
X235620180Y-96572268D01*
X235620180Y-96572268D02*
X235620180Y-96667506D01*
X235620180Y-96667506D02*
X235667800Y-96810363D01*
X235667800Y-96810363D02*
X235763038Y-96905601D01*
X235763038Y-96905601D02*
X235858276Y-96953220D01*
X235858276Y-96953220D02*
X236048752Y-97000839D01*
X236048752Y-97000839D02*
X236191609Y-97000839D01*
X236191609Y-97000839D02*
X236382085Y-96953220D01*
X236382085Y-96953220D02*
X236477323Y-96905601D01*
X236477323Y-96905601D02*
X236572561Y-96810363D01*
X236572561Y-96810363D02*
X236620180Y-96667506D01*
X236620180Y-96667506D02*
X236620180Y-96572268D01*
X236620180Y-96572268D02*
X236572561Y-96429411D01*
X236572561Y-96429411D02*
X236524942Y-96381792D01*
X236620180Y-95762744D02*
X236620180Y-95572268D01*
X236620180Y-95572268D02*
X236572561Y-95477030D01*
X236572561Y-95477030D02*
X236477323Y-95381792D01*
X236477323Y-95381792D02*
X236286847Y-95334173D01*
X236286847Y-95334173D02*
X235953514Y-95334173D01*
X235953514Y-95334173D02*
X235763038Y-95381792D01*
X235763038Y-95381792D02*
X235667800Y-95477030D01*
X235667800Y-95477030D02*
X235620180Y-95572268D01*
X235620180Y-95572268D02*
X235620180Y-95762744D01*
X235620180Y-95762744D02*
X235667800Y-95857982D01*
X235667800Y-95857982D02*
X235763038Y-95953220D01*
X235763038Y-95953220D02*
X235953514Y-96000839D01*
X235953514Y-96000839D02*
X236286847Y-96000839D01*
X236286847Y-96000839D02*
X236477323Y-95953220D01*
X236477323Y-95953220D02*
X236572561Y-95857982D01*
X236572561Y-95857982D02*
X236620180Y-95762744D01*
X235620180Y-94905601D02*
X236620180Y-94905601D01*
X236620180Y-94905601D02*
X235905895Y-94572268D01*
X235905895Y-94572268D02*
X236620180Y-94238935D01*
X236620180Y-94238935D02*
X235620180Y-94238935D01*
X236950180Y-106063220D02*
X237950180Y-106063220D01*
X237950180Y-106063220D02*
X237950180Y-105825125D01*
X237950180Y-105825125D02*
X237902561Y-105682268D01*
X237902561Y-105682268D02*
X237807323Y-105587030D01*
X237807323Y-105587030D02*
X237712085Y-105539411D01*
X237712085Y-105539411D02*
X237521609Y-105491792D01*
X237521609Y-105491792D02*
X237378752Y-105491792D01*
X237378752Y-105491792D02*
X237188276Y-105539411D01*
X237188276Y-105539411D02*
X237093038Y-105587030D01*
X237093038Y-105587030D02*
X236997800Y-105682268D01*
X236997800Y-105682268D02*
X236950180Y-105825125D01*
X236950180Y-105825125D02*
X236950180Y-106063220D01*
X237473990Y-105063220D02*
X237473990Y-104729887D01*
X236950180Y-104587030D02*
X236950180Y-105063220D01*
X236950180Y-105063220D02*
X237950180Y-105063220D01*
X237950180Y-105063220D02*
X237950180Y-104587030D01*
X236997800Y-104206077D02*
X236950180Y-104063220D01*
X236950180Y-104063220D02*
X236950180Y-103825125D01*
X236950180Y-103825125D02*
X236997800Y-103729887D01*
X236997800Y-103729887D02*
X237045419Y-103682268D01*
X237045419Y-103682268D02*
X237140657Y-103634649D01*
X237140657Y-103634649D02*
X237235895Y-103634649D01*
X237235895Y-103634649D02*
X237331133Y-103682268D01*
X237331133Y-103682268D02*
X237378752Y-103729887D01*
X237378752Y-103729887D02*
X237426371Y-103825125D01*
X237426371Y-103825125D02*
X237473990Y-104015601D01*
X237473990Y-104015601D02*
X237521609Y-104110839D01*
X237521609Y-104110839D02*
X237569228Y-104158458D01*
X237569228Y-104158458D02*
X237664466Y-104206077D01*
X237664466Y-104206077D02*
X237759704Y-104206077D01*
X237759704Y-104206077D02*
X237854942Y-104158458D01*
X237854942Y-104158458D02*
X237902561Y-104110839D01*
X237902561Y-104110839D02*
X237950180Y-104015601D01*
X237950180Y-104015601D02*
X237950180Y-103777506D01*
X237950180Y-103777506D02*
X237902561Y-103634649D01*
X236950180Y-103206077D02*
X237950180Y-103206077D01*
X237902561Y-102206078D02*
X237950180Y-102301316D01*
X237950180Y-102301316D02*
X237950180Y-102444173D01*
X237950180Y-102444173D02*
X237902561Y-102587030D01*
X237902561Y-102587030D02*
X237807323Y-102682268D01*
X237807323Y-102682268D02*
X237712085Y-102729887D01*
X237712085Y-102729887D02*
X237521609Y-102777506D01*
X237521609Y-102777506D02*
X237378752Y-102777506D01*
X237378752Y-102777506D02*
X237188276Y-102729887D01*
X237188276Y-102729887D02*
X237093038Y-102682268D01*
X237093038Y-102682268D02*
X236997800Y-102587030D01*
X236997800Y-102587030D02*
X236950180Y-102444173D01*
X236950180Y-102444173D02*
X236950180Y-102348935D01*
X236950180Y-102348935D02*
X236997800Y-102206078D01*
X236997800Y-102206078D02*
X237045419Y-102158459D01*
X237045419Y-102158459D02*
X237378752Y-102158459D01*
X237378752Y-102158459D02*
X237378752Y-102348935D01*
X236950180Y-101729887D02*
X237950180Y-101729887D01*
X237950180Y-101729887D02*
X236950180Y-101158459D01*
X236950180Y-101158459D02*
X237950180Y-101158459D01*
X237473990Y-100682268D02*
X237473990Y-100348935D01*
X236950180Y-100206078D02*
X236950180Y-100682268D01*
X236950180Y-100682268D02*
X237950180Y-100682268D01*
X237950180Y-100682268D02*
X237950180Y-100206078D01*
X236950180Y-99777506D02*
X237950180Y-99777506D01*
X237950180Y-99777506D02*
X237950180Y-99539411D01*
X237950180Y-99539411D02*
X237902561Y-99396554D01*
X237902561Y-99396554D02*
X237807323Y-99301316D01*
X237807323Y-99301316D02*
X237712085Y-99253697D01*
X237712085Y-99253697D02*
X237521609Y-99206078D01*
X237521609Y-99206078D02*
X237378752Y-99206078D01*
X237378752Y-99206078D02*
X237188276Y-99253697D01*
X237188276Y-99253697D02*
X237093038Y-99301316D01*
X237093038Y-99301316D02*
X236997800Y-99396554D01*
X236997800Y-99396554D02*
X236950180Y-99539411D01*
X236950180Y-99539411D02*
X236950180Y-99777506D01*
X236950180Y-97206077D02*
X236950180Y-97253697D01*
X236950180Y-97253697D02*
X236997800Y-97348935D01*
X236997800Y-97348935D02*
X237140657Y-97491792D01*
X237140657Y-97491792D02*
X237426371Y-97729887D01*
X237426371Y-97729887D02*
X237569228Y-97825125D01*
X237569228Y-97825125D02*
X237712085Y-97872744D01*
X237712085Y-97872744D02*
X237807323Y-97872744D01*
X237807323Y-97872744D02*
X237902561Y-97825125D01*
X237902561Y-97825125D02*
X237950180Y-97729887D01*
X237950180Y-97729887D02*
X237950180Y-97682268D01*
X237950180Y-97682268D02*
X237902561Y-97587030D01*
X237902561Y-97587030D02*
X237807323Y-97539411D01*
X237807323Y-97539411D02*
X237759704Y-97539411D01*
X237759704Y-97539411D02*
X237664466Y-97587030D01*
X237664466Y-97587030D02*
X237616847Y-97634649D01*
X237616847Y-97634649D02*
X237426371Y-97920363D01*
X237426371Y-97920363D02*
X237378752Y-97967982D01*
X237378752Y-97967982D02*
X237283514Y-98015601D01*
X237283514Y-98015601D02*
X237140657Y-98015601D01*
X237140657Y-98015601D02*
X237045419Y-97967982D01*
X237045419Y-97967982D02*
X236997800Y-97920363D01*
X236997800Y-97920363D02*
X236950180Y-97825125D01*
X236950180Y-97825125D02*
X236950180Y-97682268D01*
X236950180Y-97682268D02*
X236997800Y-97587030D01*
X236997800Y-97587030D02*
X237045419Y-97539411D01*
X237045419Y-97539411D02*
X237235895Y-97396554D01*
X237235895Y-97396554D02*
X237378752Y-97348935D01*
X237378752Y-97348935D02*
X237473990Y-97348935D01*
X237235895Y-96063220D02*
X237235895Y-95587030D01*
X236950180Y-96158458D02*
X237950180Y-95825125D01*
X237950180Y-95825125D02*
X236950180Y-95491792D01*
X236997800Y-95206077D02*
X236950180Y-95063220D01*
X236950180Y-95063220D02*
X236950180Y-94825125D01*
X236950180Y-94825125D02*
X236997800Y-94729887D01*
X236997800Y-94729887D02*
X237045419Y-94682268D01*
X237045419Y-94682268D02*
X237140657Y-94634649D01*
X237140657Y-94634649D02*
X237235895Y-94634649D01*
X237235895Y-94634649D02*
X237331133Y-94682268D01*
X237331133Y-94682268D02*
X237378752Y-94729887D01*
X237378752Y-94729887D02*
X237426371Y-94825125D01*
X237426371Y-94825125D02*
X237473990Y-95015601D01*
X237473990Y-95015601D02*
X237521609Y-95110839D01*
X237521609Y-95110839D02*
X237569228Y-95158458D01*
X237569228Y-95158458D02*
X237664466Y-95206077D01*
X237664466Y-95206077D02*
X237759704Y-95206077D01*
X237759704Y-95206077D02*
X237854942Y-95158458D01*
X237854942Y-95158458D02*
X237902561Y-95110839D01*
X237902561Y-95110839D02*
X237950180Y-95015601D01*
X237950180Y-95015601D02*
X237950180Y-94777506D01*
X237950180Y-94777506D02*
X237902561Y-94634649D01*
X236997800Y-94253696D02*
X236950180Y-94110839D01*
X236950180Y-94110839D02*
X236950180Y-93872744D01*
X236950180Y-93872744D02*
X236997800Y-93777506D01*
X236997800Y-93777506D02*
X237045419Y-93729887D01*
X237045419Y-93729887D02*
X237140657Y-93682268D01*
X237140657Y-93682268D02*
X237235895Y-93682268D01*
X237235895Y-93682268D02*
X237331133Y-93729887D01*
X237331133Y-93729887D02*
X237378752Y-93777506D01*
X237378752Y-93777506D02*
X237426371Y-93872744D01*
X237426371Y-93872744D02*
X237473990Y-94063220D01*
X237473990Y-94063220D02*
X237521609Y-94158458D01*
X237521609Y-94158458D02*
X237569228Y-94206077D01*
X237569228Y-94206077D02*
X237664466Y-94253696D01*
X237664466Y-94253696D02*
X237759704Y-94253696D01*
X237759704Y-94253696D02*
X237854942Y-94206077D01*
X237854942Y-94206077D02*
X237902561Y-94158458D01*
X237902561Y-94158458D02*
X237950180Y-94063220D01*
X237950180Y-94063220D02*
X237950180Y-93825125D01*
X237950180Y-93825125D02*
X237902561Y-93682268D01*
X237473990Y-93253696D02*
X237473990Y-92920363D01*
X236950180Y-92777506D02*
X236950180Y-93253696D01*
X236950180Y-93253696D02*
X237950180Y-93253696D01*
X237950180Y-93253696D02*
X237950180Y-92777506D01*
X236950180Y-92348934D02*
X237950180Y-92348934D01*
X237950180Y-92348934D02*
X237235895Y-92015601D01*
X237235895Y-92015601D02*
X237950180Y-91682268D01*
X237950180Y-91682268D02*
X236950180Y-91682268D01*
X237473990Y-90872744D02*
X237426371Y-90729887D01*
X237426371Y-90729887D02*
X237378752Y-90682268D01*
X237378752Y-90682268D02*
X237283514Y-90634649D01*
X237283514Y-90634649D02*
X237140657Y-90634649D01*
X237140657Y-90634649D02*
X237045419Y-90682268D01*
X237045419Y-90682268D02*
X236997800Y-90729887D01*
X236997800Y-90729887D02*
X236950180Y-90825125D01*
X236950180Y-90825125D02*
X236950180Y-91206077D01*
X236950180Y-91206077D02*
X237950180Y-91206077D01*
X237950180Y-91206077D02*
X237950180Y-90872744D01*
X237950180Y-90872744D02*
X237902561Y-90777506D01*
X237902561Y-90777506D02*
X237854942Y-90729887D01*
X237854942Y-90729887D02*
X237759704Y-90682268D01*
X237759704Y-90682268D02*
X237664466Y-90682268D01*
X237664466Y-90682268D02*
X237569228Y-90729887D01*
X237569228Y-90729887D02*
X237521609Y-90777506D01*
X237521609Y-90777506D02*
X237473990Y-90872744D01*
X237473990Y-90872744D02*
X237473990Y-91206077D01*
X236950180Y-89729887D02*
X236950180Y-90206077D01*
X236950180Y-90206077D02*
X237950180Y-90206077D01*
X237473990Y-89396553D02*
X237473990Y-89063220D01*
X236950180Y-88920363D02*
X236950180Y-89396553D01*
X236950180Y-89396553D02*
X237950180Y-89396553D01*
X237950180Y-89396553D02*
X237950180Y-88920363D01*
X236950180Y-88491791D02*
X237950180Y-88491791D01*
X237950180Y-88491791D02*
X237950180Y-88253696D01*
X237950180Y-88253696D02*
X237902561Y-88110839D01*
X237902561Y-88110839D02*
X237807323Y-88015601D01*
X237807323Y-88015601D02*
X237712085Y-87967982D01*
X237712085Y-87967982D02*
X237521609Y-87920363D01*
X237521609Y-87920363D02*
X237378752Y-87920363D01*
X237378752Y-87920363D02*
X237188276Y-87967982D01*
X237188276Y-87967982D02*
X237093038Y-88015601D01*
X237093038Y-88015601D02*
X236997800Y-88110839D01*
X236997800Y-88110839D02*
X236950180Y-88253696D01*
X236950180Y-88253696D02*
X236950180Y-88491791D01*
X236950180Y-86729886D02*
X237950180Y-86729886D01*
X236950180Y-86253696D02*
X237950180Y-86253696D01*
X237950180Y-86253696D02*
X236950180Y-85682268D01*
X236950180Y-85682268D02*
X237950180Y-85682268D01*
X236950180Y-84444172D02*
X237950180Y-84444172D01*
X236950180Y-83967982D02*
X237950180Y-83967982D01*
X237950180Y-83967982D02*
X236950180Y-83396554D01*
X236950180Y-83396554D02*
X237950180Y-83396554D01*
X236950180Y-82920363D02*
X237950180Y-82920363D01*
X237950180Y-82920363D02*
X237950180Y-82682268D01*
X237950180Y-82682268D02*
X237902561Y-82539411D01*
X237902561Y-82539411D02*
X237807323Y-82444173D01*
X237807323Y-82444173D02*
X237712085Y-82396554D01*
X237712085Y-82396554D02*
X237521609Y-82348935D01*
X237521609Y-82348935D02*
X237378752Y-82348935D01*
X237378752Y-82348935D02*
X237188276Y-82396554D01*
X237188276Y-82396554D02*
X237093038Y-82444173D01*
X237093038Y-82444173D02*
X236997800Y-82539411D01*
X236997800Y-82539411D02*
X236950180Y-82682268D01*
X236950180Y-82682268D02*
X236950180Y-82920363D01*
X236950180Y-81920363D02*
X237950180Y-81920363D01*
X237235895Y-81491792D02*
X237235895Y-81015602D01*
X236950180Y-81587030D02*
X237950180Y-81253697D01*
X237950180Y-81253697D02*
X236950180Y-80920364D01*
D11*
G36*
X241726056Y-87513501D02*
G01*
X241689694Y-87513980D01*
X241652981Y-87515635D01*
X241617084Y-87518821D01*
X241611062Y-87519554D01*
X241575421Y-87525470D01*
X241541743Y-87534779D01*
X241534110Y-87537711D01*
X241504186Y-87555206D01*
X241491744Y-87567972D01*
X241478397Y-87600331D01*
X241477910Y-87608609D01*
X241477910Y-88396278D01*
X238924688Y-88396278D01*
X238890806Y-88405519D01*
X238880593Y-88412706D01*
X238858775Y-88440265D01*
X238848602Y-88464583D01*
X238839480Y-88498369D01*
X238832876Y-88533644D01*
X238828715Y-88563150D01*
X238825372Y-88600142D01*
X238823318Y-88637159D01*
X238822231Y-88672740D01*
X238821805Y-88711300D01*
X238821799Y-88717052D01*
X238822129Y-88756079D01*
X238823122Y-88792210D01*
X238825068Y-88829956D01*
X238828290Y-88867898D01*
X238828715Y-88871819D01*
X238834001Y-88907738D01*
X238841458Y-88944376D01*
X238848602Y-88969521D01*
X238863659Y-89002492D01*
X238880593Y-89022263D01*
X238912854Y-89036853D01*
X238924688Y-89037826D01*
X241477910Y-89037826D01*
X241477910Y-89825494D01*
X241486354Y-89859100D01*
X241491744Y-89866996D01*
X241519224Y-89889174D01*
X241534110Y-89896393D01*
X241568047Y-89906985D01*
X241602305Y-89913362D01*
X241611062Y-89914550D01*
X241646105Y-89917996D01*
X241682041Y-89919887D01*
X241717704Y-89920579D01*
X241726056Y-89920602D01*
X241763322Y-89920124D01*
X241800879Y-89918469D01*
X241837511Y-89915283D01*
X241843644Y-89914550D01*
X241880262Y-89908634D01*
X241914003Y-89899325D01*
X241921460Y-89896393D01*
X241952596Y-89878272D01*
X241962962Y-89866996D01*
X241975475Y-89834330D01*
X241975931Y-89825494D01*
X241975931Y-87608609D01*
X241967369Y-87574933D01*
X241962962Y-87567972D01*
X241936628Y-87544998D01*
X241921460Y-87537711D01*
X241887740Y-87527119D01*
X241852703Y-87520742D01*
X241843644Y-87519554D01*
X241807904Y-87516108D01*
X241771158Y-87514216D01*
X241734621Y-87513525D01*
X241726056Y-87513501D01*
G37*
G36*
X239070809Y-85289699D02*
G01*
X239033193Y-85290178D01*
X238995568Y-85291833D01*
X238959253Y-85295019D01*
X238953221Y-85295752D01*
X238918139Y-85301668D01*
X238884754Y-85310977D01*
X238877134Y-85313909D01*
X238847210Y-85331404D01*
X238834768Y-85344170D01*
X238822254Y-85376530D01*
X238821799Y-85384808D01*
X238821799Y-86965332D01*
X238824771Y-87003592D01*
X238833687Y-87038825D01*
X238848548Y-87071032D01*
X238869353Y-87100213D01*
X238896858Y-87124044D01*
X238931821Y-87141066D01*
X238968531Y-87150375D01*
X239004541Y-87154205D01*
X239024120Y-87154684D01*
X241773610Y-87154684D01*
X241811718Y-87152769D01*
X241850874Y-87145694D01*
X241884322Y-87133406D01*
X241915556Y-87112980D01*
X241928377Y-87100213D01*
X241949182Y-87071032D01*
X241964043Y-87038825D01*
X241972959Y-87003592D01*
X241975931Y-86965332D01*
X241975931Y-85394318D01*
X241966663Y-85359801D01*
X241963826Y-85355411D01*
X241937046Y-85333233D01*
X241921460Y-85326013D01*
X241886875Y-85315422D01*
X241852409Y-85309044D01*
X241843644Y-85307856D01*
X241808480Y-85304411D01*
X241771194Y-85302519D01*
X241733304Y-85301828D01*
X241724327Y-85301804D01*
X241687965Y-85302283D01*
X241651252Y-85303938D01*
X241615354Y-85307124D01*
X241609332Y-85307856D01*
X241574251Y-85313773D01*
X241540865Y-85323082D01*
X241533246Y-85326013D01*
X241502127Y-85344135D01*
X241490879Y-85355411D01*
X241478227Y-85387669D01*
X241477910Y-85394318D01*
X241477910Y-86518324D01*
X240703211Y-86518324D01*
X240703211Y-85567242D01*
X240694078Y-85533566D01*
X240689377Y-85526605D01*
X240661897Y-85503631D01*
X240647011Y-85496344D01*
X240611757Y-85485190D01*
X240576895Y-85478967D01*
X240570924Y-85478187D01*
X240535184Y-85474741D01*
X240498438Y-85472849D01*
X240461901Y-85472158D01*
X240453336Y-85472134D01*
X240418643Y-85472512D01*
X240383489Y-85473842D01*
X240346096Y-85476768D01*
X240334018Y-85478187D01*
X240299080Y-85484103D01*
X240264306Y-85494127D01*
X240258796Y-85496344D01*
X240228050Y-85514837D01*
X240217295Y-85526605D01*
X240205486Y-85560323D01*
X240205190Y-85567242D01*
X240205190Y-86518324D01*
X239319819Y-86518324D01*
X239319819Y-85384808D01*
X239310687Y-85351131D01*
X239305986Y-85344170D01*
X239278856Y-85321196D01*
X239263619Y-85313909D01*
X239230331Y-85303317D01*
X239196282Y-85296940D01*
X239187533Y-85295752D01*
X239152675Y-85292306D01*
X239116199Y-85290415D01*
X239079472Y-85289723D01*
X239070809Y-85289699D01*
G37*
G36*
X239337976Y-82633588D02*
G01*
X239300193Y-82633996D01*
X239263636Y-82635374D01*
X239239410Y-82637046D01*
X239203782Y-82641238D01*
X239169376Y-82648286D01*
X239136007Y-82658959D01*
X239119228Y-82667308D01*
X239090014Y-82686864D01*
X239064757Y-82706216D01*
X239039819Y-82730569D01*
X239015919Y-82759309D01*
X238995156Y-82787147D01*
X238979159Y-82809970D01*
X238959533Y-82840012D01*
X238940211Y-82872425D01*
X238921193Y-82907210D01*
X238902478Y-82944365D01*
X238887115Y-82977138D01*
X238877999Y-82997593D01*
X238863518Y-83032958D01*
X238849797Y-83069886D01*
X238836836Y-83108376D01*
X238824636Y-83148428D01*
X238813195Y-83190042D01*
X238804589Y-83224458D01*
X238798454Y-83250926D01*
X238790956Y-83286740D01*
X238784458Y-83323284D01*
X238778959Y-83360557D01*
X238774461Y-83398560D01*
X238770962Y-83437292D01*
X238768462Y-83476754D01*
X238766963Y-83516945D01*
X238766463Y-83557866D01*
X238766855Y-83598041D01*
X238768030Y-83637722D01*
X238769989Y-83676910D01*
X238772731Y-83715605D01*
X238776257Y-83753807D01*
X238780567Y-83791516D01*
X238785660Y-83828732D01*
X238791537Y-83865455D01*
X238798197Y-83901684D01*
X238805641Y-83937421D01*
X238813868Y-83972664D01*
X238822879Y-84007414D01*
X238832674Y-84041672D01*
X238843252Y-84075436D01*
X238854614Y-84108707D01*
X238866759Y-84141484D01*
X238879681Y-84173712D01*
X238900508Y-84220913D01*
X238923067Y-84266746D01*
X238947359Y-84311212D01*
X238973384Y-84354309D01*
X239001141Y-84396039D01*
X239030631Y-84436401D01*
X239061854Y-84475395D01*
X239094809Y-84513021D01*
X239129497Y-84549279D01*
X239165917Y-84584170D01*
X239204078Y-84617632D01*
X239243986Y-84649604D01*
X239285642Y-84680087D01*
X239314384Y-84699581D01*
X239343903Y-84718414D01*
X239374198Y-84736584D01*
X239405271Y-84754093D01*
X239437120Y-84770939D01*
X239469746Y-84787124D01*
X239503148Y-84802647D01*
X239537328Y-84817507D01*
X239572284Y-84831706D01*
X239608017Y-84845243D01*
X239644527Y-84858117D01*
X239663073Y-84864307D01*
X239700742Y-84876033D01*
X239739173Y-84887003D01*
X239778368Y-84897216D01*
X239818327Y-84906673D01*
X239859048Y-84915373D01*
X239900533Y-84923317D01*
X239942781Y-84930504D01*
X239985793Y-84936935D01*
X240029567Y-84942609D01*
X240074106Y-84947526D01*
X240119407Y-84951687D01*
X240165472Y-84955092D01*
X240212299Y-84957740D01*
X240259891Y-84959631D01*
X240308245Y-84960766D01*
X240357363Y-84961144D01*
X240407376Y-84960725D01*
X240456686Y-84959469D01*
X240505294Y-84957375D01*
X240553199Y-84954443D01*
X240600402Y-84950674D01*
X240646903Y-84946067D01*
X240692700Y-84940623D01*
X240737796Y-84934341D01*
X240782189Y-84927221D01*
X240825879Y-84919264D01*
X240868867Y-84910469D01*
X240911152Y-84900837D01*
X240952735Y-84890367D01*
X240993615Y-84879059D01*
X241033793Y-84866914D01*
X241073268Y-84853931D01*
X241112000Y-84840199D01*
X241149949Y-84825804D01*
X241187114Y-84810747D01*
X241223496Y-84795029D01*
X241259094Y-84778648D01*
X241293908Y-84761606D01*
X241327939Y-84743902D01*
X241361186Y-84725535D01*
X241393650Y-84706507D01*
X241425330Y-84686816D01*
X241456227Y-84666464D01*
X241486340Y-84645450D01*
X241515670Y-84623773D01*
X241544216Y-84601435D01*
X241571978Y-84578435D01*
X241598957Y-84554773D01*
X241625142Y-84530479D01*
X241650523Y-84505584D01*
X241675101Y-84480088D01*
X241698875Y-84453990D01*
X241721844Y-84427292D01*
X241744010Y-84399992D01*
X241765373Y-84372091D01*
X241785931Y-84343589D01*
X241805685Y-84314486D01*
X241824636Y-84284782D01*
X241842783Y-84254476D01*
X241860126Y-84223569D01*
X241876665Y-84192061D01*
X241892401Y-84159952D01*
X241907332Y-84127242D01*
X241921460Y-84093930D01*
X241934757Y-84060106D01*
X241947196Y-84025855D01*
X241958777Y-83991179D01*
X241969500Y-83956078D01*
X241979366Y-83920551D01*
X241988374Y-83884598D01*
X241996523Y-83848220D01*
X242003815Y-83811416D01*
X242010249Y-83774187D01*
X242015825Y-83736532D01*
X242020543Y-83698451D01*
X242024404Y-83659945D01*
X242027406Y-83621014D01*
X242029551Y-83581657D01*
X242030838Y-83541874D01*
X242031267Y-83501666D01*
X242030718Y-83460850D01*
X242029071Y-83420540D01*
X242026327Y-83380737D01*
X242022485Y-83341441D01*
X242017546Y-83302651D01*
X242011509Y-83264368D01*
X242008787Y-83249197D01*
X242001673Y-83211564D01*
X241993842Y-83174860D01*
X241985292Y-83139085D01*
X241976026Y-83104238D01*
X241966041Y-83070320D01*
X241955339Y-83037331D01*
X241950857Y-83024396D01*
X241937138Y-82986218D01*
X241922568Y-82949498D01*
X241907147Y-82914238D01*
X241890874Y-82880437D01*
X241873751Y-82848095D01*
X241867854Y-82837638D01*
X241848048Y-82803724D01*
X241826932Y-82770841D01*
X241805115Y-82741341D01*
X241787444Y-82721779D01*
X241760681Y-82697002D01*
X241732108Y-82676819D01*
X241698942Y-82663714D01*
X241674179Y-82657797D01*
X241638906Y-82651452D01*
X241603726Y-82647489D01*
X241592040Y-82646557D01*
X241557182Y-82644588D01*
X241520706Y-82643507D01*
X241483979Y-82643112D01*
X241475316Y-82643099D01*
X241439489Y-82643423D01*
X241402412Y-82644563D01*
X241365227Y-82646792D01*
X241348217Y-82648286D01*
X241311984Y-82652623D01*
X241276474Y-82660448D01*
X241263484Y-82664714D01*
X241231287Y-82680917D01*
X241215930Y-82694111D01*
X241201591Y-82726370D01*
X241201232Y-82733019D01*
X241209341Y-82768600D01*
X241227090Y-82801897D01*
X241243598Y-82825533D01*
X241265808Y-82855687D01*
X241286217Y-82885440D01*
X241307536Y-82918338D01*
X241326534Y-82949039D01*
X241339571Y-82970789D01*
X241358984Y-83005077D01*
X241377668Y-83041796D01*
X241392681Y-83074253D01*
X241407187Y-83108399D01*
X241421186Y-83144234D01*
X241434679Y-83181757D01*
X241447133Y-83221285D01*
X241457477Y-83263136D01*
X241464232Y-83298288D01*
X241469635Y-83334926D01*
X241473688Y-83373050D01*
X241476390Y-83412661D01*
X241477741Y-83453757D01*
X241477910Y-83474863D01*
X241477241Y-83509685D01*
X241474269Y-83555003D01*
X241468919Y-83599051D01*
X241461192Y-83641830D01*
X241451087Y-83683338D01*
X241438604Y-83723577D01*
X241423743Y-83762546D01*
X241406505Y-83800244D01*
X241401824Y-83809471D01*
X241381775Y-83845541D01*
X241359673Y-83880261D01*
X241335518Y-83913630D01*
X241309309Y-83945648D01*
X241281047Y-83976315D01*
X241250731Y-84005631D01*
X241218362Y-84033596D01*
X241183939Y-84060210D01*
X241147571Y-84085163D01*
X241109366Y-84108575D01*
X241069323Y-84130447D01*
X241038086Y-84145841D01*
X241005814Y-84160368D01*
X240972510Y-84174028D01*
X240938171Y-84186823D01*
X240902800Y-84198751D01*
X240866394Y-84209813D01*
X240841550Y-84216706D01*
X240803491Y-84226286D01*
X240764535Y-84234924D01*
X240724682Y-84242620D01*
X240683933Y-84249373D01*
X240642286Y-84255184D01*
X240599744Y-84260052D01*
X240556304Y-84263978D01*
X240511968Y-84266962D01*
X240466735Y-84269004D01*
X240420605Y-84270103D01*
X240389354Y-84270313D01*
X240338285Y-84269811D01*
X240288508Y-84268307D01*
X240240022Y-84265799D01*
X240192829Y-84262288D01*
X240146927Y-84257774D01*
X240102317Y-84252257D01*
X240058999Y-84245737D01*
X240016973Y-84238214D01*
X239976239Y-84229688D01*
X239936797Y-84220158D01*
X239911219Y-84213248D01*
X239874062Y-84202123D01*
X239838135Y-84190146D01*
X239803440Y-84177319D01*
X239769976Y-84163640D01*
X239737742Y-84149111D01*
X239706740Y-84133730D01*
X239667319Y-84111898D01*
X239630086Y-84088554D01*
X239595042Y-84063696D01*
X239578341Y-84050699D01*
X239546742Y-84023437D01*
X239517223Y-83994823D01*
X239489785Y-83964859D01*
X239464427Y-83933543D01*
X239441150Y-83900877D01*
X239419953Y-83866860D01*
X239400837Y-83831491D01*
X239383801Y-83794772D01*
X239368806Y-83756796D01*
X239355809Y-83717659D01*
X239344812Y-83677359D01*
X239335815Y-83635898D01*
X239328817Y-83593275D01*
X239323818Y-83549490D01*
X239320819Y-83504543D01*
X239319819Y-83458435D01*
X239320495Y-83416582D01*
X239322521Y-83376188D01*
X239325899Y-83337253D01*
X239330627Y-83299777D01*
X239336707Y-83263760D01*
X239344137Y-83229203D01*
X239355325Y-83188057D01*
X239363050Y-83164464D01*
X239377020Y-83126422D01*
X239391370Y-83090110D01*
X239406100Y-83055530D01*
X239421210Y-83022680D01*
X239436699Y-82991561D01*
X239455788Y-82956504D01*
X239459023Y-82950903D01*
X239478437Y-82918632D01*
X239497121Y-82888610D01*
X239517996Y-82856427D01*
X239537879Y-82827306D01*
X239554131Y-82804782D01*
X239574611Y-82774735D01*
X239590540Y-82743584D01*
X239596498Y-82716591D01*
X239589727Y-82682509D01*
X239586987Y-82677683D01*
X239558011Y-82656573D01*
X239549808Y-82653474D01*
X239514067Y-82644158D01*
X239478173Y-82639340D01*
X239471992Y-82638775D01*
X239437357Y-82636040D01*
X239400554Y-82634444D01*
X239363362Y-82633714D01*
X239337976Y-82633588D01*
G37*
G36*
X238922959Y-79732789D02*
G01*
X238889563Y-79742029D01*
X238879728Y-79749217D01*
X238858653Y-79776776D01*
X238848602Y-79801094D01*
X238839480Y-79834594D01*
X238832876Y-79869183D01*
X238828715Y-79897931D01*
X238825372Y-79934506D01*
X238823318Y-79971266D01*
X238822231Y-80006711D01*
X238821805Y-80045218D01*
X238821799Y-80050969D01*
X238822129Y-80091006D01*
X238823122Y-80127900D01*
X238825068Y-80166213D01*
X238828290Y-80204407D01*
X238828715Y-80208330D01*
X238834001Y-80244164D01*
X238841458Y-80280478D01*
X238848602Y-80305167D01*
X238863659Y-80336789D01*
X238880593Y-80356180D01*
X238912854Y-80370770D01*
X238924688Y-80371743D01*
X240205190Y-80371743D01*
X240205190Y-81549355D01*
X238924688Y-81549355D01*
X238890806Y-81557623D01*
X238880593Y-81564053D01*
X238857843Y-81592654D01*
X238848602Y-81615066D01*
X238839480Y-81648709D01*
X238832876Y-81683641D01*
X238828715Y-81712768D01*
X238825372Y-81749480D01*
X238823318Y-81786591D01*
X238822231Y-81822520D01*
X238821805Y-81861677D01*
X238821799Y-81867535D01*
X238822129Y-81906562D01*
X238823122Y-81942692D01*
X238825068Y-81980439D01*
X238828290Y-82018381D01*
X238828715Y-82022302D01*
X238834001Y-82058221D01*
X238841458Y-82094859D01*
X238848602Y-82120004D01*
X238863415Y-82152975D01*
X238879728Y-82172745D01*
X238911179Y-82187336D01*
X238922959Y-82188309D01*
X241874771Y-82188309D01*
X241909431Y-82178810D01*
X241918002Y-82172745D01*
X241939077Y-82144443D01*
X241949128Y-82120004D01*
X241958107Y-82086360D01*
X241964367Y-82051429D01*
X241968150Y-82022302D01*
X241971911Y-81984891D01*
X241974221Y-81947618D01*
X241975445Y-81911901D01*
X241975923Y-81873287D01*
X241975931Y-81867535D01*
X241975600Y-81827917D01*
X241974607Y-81791526D01*
X241972662Y-81753888D01*
X241969440Y-81716583D01*
X241969014Y-81712768D01*
X241964184Y-81676849D01*
X241957051Y-81640211D01*
X241949992Y-81615066D01*
X241935179Y-81582583D01*
X241918866Y-81564053D01*
X241885936Y-81549871D01*
X241877364Y-81549355D01*
X240758547Y-81549355D01*
X240758547Y-80371743D01*
X241877364Y-80371743D01*
X241910674Y-80362244D01*
X241918866Y-80356180D01*
X241939941Y-80328552D01*
X241949992Y-80305167D01*
X241959591Y-80269184D01*
X241965740Y-80233946D01*
X241969014Y-80208330D01*
X241972358Y-80170714D01*
X241974411Y-80132913D01*
X241975499Y-80096469D01*
X241975924Y-80056881D01*
X241975931Y-80050969D01*
X241975559Y-80012025D01*
X241974442Y-79976142D01*
X241972253Y-79938882D01*
X241968628Y-79901745D01*
X241968150Y-79897931D01*
X241963320Y-79862468D01*
X241956187Y-79826154D01*
X241949128Y-79801094D01*
X241934315Y-79768367D01*
X241918002Y-79749217D01*
X241886551Y-79733815D01*
X241874771Y-79732789D01*
X238922959Y-79732789D01*
G37*
G36*
X241340584Y-104244094D02*
G01*
X241340584Y-104246688D01*
X239989183Y-104691102D01*
X239989183Y-103798815D01*
X241340584Y-104244094D01*
G37*
G36*
X241029199Y-98801556D02*
G01*
X241065580Y-98804879D01*
X241100422Y-98810418D01*
X241141808Y-98820458D01*
X241180788Y-98833959D01*
X241217361Y-98850922D01*
X241251528Y-98871347D01*
X241283221Y-98895449D01*
X241311832Y-98923984D01*
X241337361Y-98956952D01*
X241355565Y-98986518D01*
X241371797Y-99018921D01*
X241386056Y-99054161D01*
X241398343Y-99092238D01*
X241401107Y-99102200D01*
X241408816Y-99137123D01*
X241414760Y-99171708D01*
X241419691Y-99208995D01*
X241420129Y-99212872D01*
X241423890Y-99251582D01*
X241425965Y-99286797D01*
X241427295Y-99326480D01*
X241427842Y-99364050D01*
X241427910Y-99384066D01*
X241427910Y-99671120D01*
X240542540Y-99671120D01*
X240542540Y-99345159D01*
X240543321Y-99303561D01*
X240545664Y-99263611D01*
X240549569Y-99225307D01*
X240555036Y-99188649D01*
X240562065Y-99153638D01*
X240572562Y-99113798D01*
X240574531Y-99107388D01*
X240587763Y-99070051D01*
X240602820Y-99035206D01*
X240619700Y-99002854D01*
X240638404Y-98972994D01*
X240662531Y-98941308D01*
X240666180Y-98937058D01*
X240693357Y-98908830D01*
X240722684Y-98883911D01*
X240754164Y-98862302D01*
X240787794Y-98844003D01*
X240807978Y-98835033D01*
X240844824Y-98821557D01*
X240883490Y-98811391D01*
X240918082Y-98805312D01*
X240954011Y-98801664D01*
X240991277Y-98800448D01*
X241029199Y-98801556D01*
G37*
G36*
X241340584Y-92402263D02*
G01*
X241340584Y-92404856D01*
X239989183Y-92849271D01*
X239989183Y-91956983D01*
X241340584Y-92402263D01*
G37*
G36*
X242431645Y-106163839D02*
G01*
X238266085Y-106163839D01*
X238266085Y-105376745D01*
X238771799Y-105376745D01*
X238772042Y-105416900D01*
X238772771Y-105453710D01*
X238774237Y-105492430D01*
X238776723Y-105531108D01*
X238778715Y-105552263D01*
X238785521Y-105587912D01*
X238798814Y-105620659D01*
X238814165Y-105639590D01*
X238845043Y-105655447D01*
X238879795Y-105658125D01*
X238891981Y-105656882D01*
X238927156Y-105649908D01*
X238964446Y-105640021D01*
X239002070Y-105628362D01*
X239027726Y-105619704D01*
X241800561Y-104649600D01*
X241833140Y-104635912D01*
X241863077Y-104618241D01*
X241866272Y-104615880D01*
X241890172Y-104588407D01*
X241904357Y-104556253D01*
X241905180Y-104553628D01*
X241914097Y-104517232D01*
X241919298Y-104479844D01*
X241922000Y-104445314D01*
X241922473Y-104436039D01*
X241923820Y-104400476D01*
X241924837Y-104360361D01*
X241925445Y-104322355D01*
X241925810Y-104281006D01*
X241925928Y-104243993D01*
X241925931Y-104236312D01*
X241925877Y-104201349D01*
X241925658Y-104160229D01*
X241925269Y-104121980D01*
X241924712Y-104086601D01*
X241923820Y-104047936D01*
X241922473Y-104008053D01*
X241920463Y-103972465D01*
X241916951Y-103936354D01*
X241911449Y-103901542D01*
X241905180Y-103875766D01*
X241892360Y-103841552D01*
X241871892Y-103813067D01*
X241865408Y-103807461D01*
X241833849Y-103788223D01*
X241801205Y-103774821D01*
X241792780Y-103772011D01*
X239022538Y-102799314D01*
X238986407Y-102787529D01*
X238949269Y-102776694D01*
X238912786Y-102767864D01*
X238885064Y-102763000D01*
X238848314Y-102762945D01*
X238815840Y-102776713D01*
X238808977Y-102782886D01*
X238790678Y-102813692D01*
X238781409Y-102849274D01*
X238777851Y-102877130D01*
X238775203Y-102914471D01*
X238773507Y-102952375D01*
X238772514Y-102988750D01*
X238771946Y-103028711D01*
X238771799Y-103064752D01*
X238771883Y-103102081D01*
X238772136Y-103136793D01*
X238772663Y-103174991D01*
X238773585Y-103214793D01*
X238774838Y-103249464D01*
X238775257Y-103258427D01*
X238777818Y-103294736D01*
X238782620Y-103332055D01*
X238789956Y-103363911D01*
X238804094Y-103396394D01*
X238820217Y-103414923D01*
X238851159Y-103431981D01*
X238871230Y-103439133D01*
X239491162Y-103650965D01*
X239491162Y-103798815D01*
X239491162Y-104832035D01*
X238887658Y-105031762D01*
X238854758Y-105043820D01*
X238830593Y-105057701D01*
X238806946Y-105083193D01*
X238794279Y-105108713D01*
X238784420Y-105144767D01*
X238778764Y-105181222D01*
X238776122Y-105208145D01*
X238774032Y-105247349D01*
X238772879Y-105282286D01*
X238772140Y-105321112D01*
X238771836Y-105357487D01*
X238771799Y-105376745D01*
X238266085Y-105376745D01*
X238266085Y-101872442D01*
X238771799Y-101872442D01*
X238772129Y-101911469D01*
X238773122Y-101947600D01*
X238775068Y-101985346D01*
X238778290Y-102023289D01*
X238778715Y-102027209D01*
X238784001Y-102063128D01*
X238791458Y-102099766D01*
X238798602Y-102124911D01*
X238813659Y-102157882D01*
X238830593Y-102177653D01*
X238862854Y-102192243D01*
X238874688Y-102193216D01*
X241427910Y-102193216D01*
X241427910Y-102980884D01*
X241436354Y-103014490D01*
X241441744Y-103022386D01*
X241469224Y-103044564D01*
X241484110Y-103051783D01*
X241518047Y-103062375D01*
X241552305Y-103068752D01*
X241561062Y-103069940D01*
X241596105Y-103073386D01*
X241632041Y-103075277D01*
X241667704Y-103075969D01*
X241676056Y-103075993D01*
X241713322Y-103075514D01*
X241750879Y-103073859D01*
X241787511Y-103070673D01*
X241793644Y-103069940D01*
X241830262Y-103064024D01*
X241864003Y-103054715D01*
X241871460Y-103051783D01*
X241902596Y-103033662D01*
X241912962Y-103022386D01*
X241925475Y-102989720D01*
X241925931Y-102980884D01*
X241925931Y-100764000D01*
X241917369Y-100730323D01*
X241912962Y-100723362D01*
X241886628Y-100700388D01*
X241871460Y-100693101D01*
X241837740Y-100682509D01*
X241802703Y-100676132D01*
X241793644Y-100674944D01*
X241757904Y-100671498D01*
X241721158Y-100669607D01*
X241684621Y-100668915D01*
X241676056Y-100668891D01*
X241639694Y-100669370D01*
X241602981Y-100671025D01*
X241567084Y-100674211D01*
X241561062Y-100674944D01*
X241525421Y-100680860D01*
X241491743Y-100690169D01*
X241484110Y-100693101D01*
X241454186Y-100710596D01*
X241441744Y-100723362D01*
X241428397Y-100755721D01*
X241427910Y-100764000D01*
X241427910Y-101551668D01*
X238874688Y-101551668D01*
X238840806Y-101560909D01*
X238830593Y-101568096D01*
X238808775Y-101595656D01*
X238798602Y-101619973D01*
X238789480Y-101653759D01*
X238782876Y-101689034D01*
X238778715Y-101718540D01*
X238775372Y-101755533D01*
X238773318Y-101792549D01*
X238772231Y-101828130D01*
X238771805Y-101866690D01*
X238771799Y-101872442D01*
X238266085Y-101872442D01*
X238266085Y-99991894D01*
X238771799Y-99991894D01*
X238772129Y-100030921D01*
X238773122Y-100067052D01*
X238775068Y-100104798D01*
X238778290Y-100142741D01*
X238778715Y-100146661D01*
X238784001Y-100182580D01*
X238791458Y-100219218D01*
X238798602Y-100244363D01*
X238813415Y-100276846D01*
X238829728Y-100295376D01*
X238861989Y-100309156D01*
X238873824Y-100310074D01*
X241724475Y-100310074D01*
X241762552Y-100308159D01*
X241801596Y-100301084D01*
X241834849Y-100288796D01*
X241865759Y-100268370D01*
X241878377Y-100255603D01*
X241899182Y-100226422D01*
X241914043Y-100194215D01*
X241922959Y-100158982D01*
X241925931Y-100120722D01*
X241925931Y-99306251D01*
X241925804Y-99268440D01*
X241925424Y-99232826D01*
X241924634Y-99192986D01*
X241923479Y-99156307D01*
X241921670Y-99117510D01*
X241920743Y-99102200D01*
X241918366Y-99062914D01*
X241915556Y-99025465D01*
X241912313Y-98989854D01*
X241908639Y-98956080D01*
X241903264Y-98920756D01*
X241897189Y-98886116D01*
X241890416Y-98852161D01*
X241880297Y-98807950D01*
X241868935Y-98764956D01*
X241856331Y-98723177D01*
X241842483Y-98682614D01*
X241827393Y-98643267D01*
X241815260Y-98614555D01*
X241798184Y-98577241D01*
X241779810Y-98541387D01*
X241760140Y-98506991D01*
X241739173Y-98474054D01*
X241716909Y-98442577D01*
X241693348Y-98412558D01*
X241668491Y-98383999D01*
X241642336Y-98356898D01*
X241615127Y-98331108D01*
X241586676Y-98306912D01*
X241556982Y-98284311D01*
X241526044Y-98263303D01*
X241493864Y-98243890D01*
X241460441Y-98226071D01*
X241425776Y-98209845D01*
X241389867Y-98195214D01*
X241352675Y-98182042D01*
X241314159Y-98170627D01*
X241274319Y-98160967D01*
X241233155Y-98153064D01*
X241190667Y-98146917D01*
X241146855Y-98142527D01*
X241101719Y-98139892D01*
X241066998Y-98139069D01*
X241055259Y-98139014D01*
X241015919Y-98139649D01*
X240977443Y-98141554D01*
X240939832Y-98144729D01*
X240903086Y-98149173D01*
X240867204Y-98154888D01*
X240832187Y-98161873D01*
X240798035Y-98170127D01*
X240764747Y-98179651D01*
X240724374Y-98193009D01*
X240685394Y-98208224D01*
X240647808Y-98225297D01*
X240611615Y-98244228D01*
X240576815Y-98265016D01*
X240543408Y-98287661D01*
X240530435Y-98297240D01*
X240498936Y-98322444D01*
X240468746Y-98349421D01*
X240439865Y-98378171D01*
X240412293Y-98408694D01*
X240386029Y-98440991D01*
X240361074Y-98475061D01*
X240351459Y-98489185D01*
X240328399Y-98525632D01*
X240310985Y-98555914D01*
X240294490Y-98587195D01*
X240278913Y-98619477D01*
X240264255Y-98652758D01*
X240250516Y-98687039D01*
X240237695Y-98722319D01*
X240228683Y-98749436D01*
X240210904Y-98714581D01*
X240191288Y-98680915D01*
X240169834Y-98648437D01*
X240146544Y-98617149D01*
X240124746Y-98590286D01*
X240100962Y-98564167D01*
X240075192Y-98538794D01*
X240047437Y-98514165D01*
X240030685Y-98500425D01*
X239999891Y-98476547D01*
X239967277Y-98453330D01*
X239937873Y-98433958D01*
X239907132Y-98415071D01*
X239875053Y-98396671D01*
X239841515Y-98378575D01*
X239806397Y-98360600D01*
X239769698Y-98342747D01*
X239737908Y-98327962D01*
X239705020Y-98313262D01*
X239677920Y-98301563D01*
X239066634Y-98036124D01*
X239034292Y-98023358D01*
X239000862Y-98010615D01*
X238964690Y-97997635D01*
X238933482Y-97987706D01*
X238898374Y-97979017D01*
X238867771Y-97975601D01*
X238832430Y-97981437D01*
X238822811Y-97985976D01*
X238800633Y-98013495D01*
X238793414Y-98031801D01*
X238784721Y-98067014D01*
X238779587Y-98101869D01*
X238776122Y-98139014D01*
X238774230Y-98177274D01*
X238773019Y-98216070D01*
X238772309Y-98253276D01*
X238771904Y-98294129D01*
X238771799Y-98330960D01*
X238771950Y-98367760D01*
X238772512Y-98407006D01*
X238773487Y-98442280D01*
X238775108Y-98477729D01*
X238776122Y-98493508D01*
X238780124Y-98528887D01*
X238786933Y-98564876D01*
X238794279Y-98589481D01*
X238810011Y-98621290D01*
X238827134Y-98639629D01*
X238857721Y-98656687D01*
X238876417Y-98663838D01*
X239563790Y-98945704D01*
X239599612Y-98961604D01*
X239634125Y-98977418D01*
X239667329Y-98993149D01*
X239699225Y-99008795D01*
X239735772Y-99027458D01*
X239770434Y-99046000D01*
X239803415Y-99064552D01*
X239834267Y-99083895D01*
X239862992Y-99104028D01*
X239893816Y-99128515D01*
X239921743Y-99154078D01*
X239946815Y-99181047D01*
X239969074Y-99209754D01*
X239988519Y-99240199D01*
X240005151Y-99272382D01*
X240013392Y-99291552D01*
X240025521Y-99326755D01*
X240034670Y-99364275D01*
X240040841Y-99404111D01*
X240043759Y-99440101D01*
X240044519Y-99471393D01*
X240044519Y-99671120D01*
X238872094Y-99671120D01*
X238838698Y-99680361D01*
X238828863Y-99687548D01*
X238807788Y-99715108D01*
X238797737Y-99739425D01*
X238788564Y-99775834D01*
X238782285Y-99810942D01*
X238778715Y-99836263D01*
X238775372Y-99873043D01*
X238773318Y-99910329D01*
X238772231Y-99946502D01*
X238771805Y-99985984D01*
X238771799Y-99991894D01*
X238266085Y-99991894D01*
X238266085Y-97201766D01*
X238771799Y-97201766D01*
X238772129Y-97240793D01*
X238773122Y-97276924D01*
X238775068Y-97314670D01*
X238778290Y-97352613D01*
X238778715Y-97356533D01*
X238784001Y-97392452D01*
X238791458Y-97429090D01*
X238798602Y-97454235D01*
X238813415Y-97487207D01*
X238829728Y-97506977D01*
X238861179Y-97521568D01*
X238872959Y-97522540D01*
X241824771Y-97522540D01*
X241859431Y-97513041D01*
X241868002Y-97506977D01*
X241889077Y-97478337D01*
X241899128Y-97453371D01*
X241908107Y-97418750D01*
X241914367Y-97383661D01*
X241918150Y-97354804D01*
X241921911Y-97318229D01*
X241924221Y-97281469D01*
X241925445Y-97246024D01*
X241925923Y-97207517D01*
X241925931Y-97201766D01*
X241925559Y-97161812D01*
X241924442Y-97125167D01*
X241922253Y-97087339D01*
X241918628Y-97049951D01*
X241918150Y-97046135D01*
X241913320Y-97010672D01*
X241906187Y-96974358D01*
X241899128Y-96949297D01*
X241884315Y-96916570D01*
X241868002Y-96897420D01*
X241836551Y-96882019D01*
X241824771Y-96880993D01*
X238872959Y-96880993D01*
X238839563Y-96890233D01*
X238829728Y-96897420D01*
X238808653Y-96924980D01*
X238798602Y-96949297D01*
X238789480Y-96982798D01*
X238782876Y-97017386D01*
X238778715Y-97046135D01*
X238775372Y-97082915D01*
X238773318Y-97120202D01*
X238772231Y-97156374D01*
X238771805Y-97195856D01*
X238771799Y-97201766D01*
X238266085Y-97201766D01*
X238266085Y-95046270D01*
X238771799Y-95046270D01*
X238771829Y-95081905D01*
X238771941Y-95120943D01*
X238772136Y-95157252D01*
X238772460Y-95195403D01*
X238772663Y-95213141D01*
X238773841Y-95250408D01*
X238775631Y-95287965D01*
X238778185Y-95324596D01*
X238778715Y-95330729D01*
X238783644Y-95367216D01*
X238791104Y-95402223D01*
X238793414Y-95410274D01*
X238806537Y-95442857D01*
X238817623Y-95461287D01*
X238842589Y-95486253D01*
X238852208Y-95492413D01*
X238884284Y-95506421D01*
X238904950Y-95513164D01*
X241674327Y-96449547D01*
X241710753Y-96461291D01*
X241748026Y-96471978D01*
X241784404Y-96480511D01*
X241811801Y-96484997D01*
X241846413Y-96484429D01*
X241879419Y-96469358D01*
X241887888Y-96460787D01*
X241905681Y-96429208D01*
X241914901Y-96395400D01*
X241919879Y-96357898D01*
X241922237Y-96322973D01*
X241924016Y-96282503D01*
X241925080Y-96243403D01*
X241925641Y-96207708D01*
X241925907Y-96169184D01*
X241925931Y-96152983D01*
X241925749Y-96112859D01*
X241925202Y-96076140D01*
X241924102Y-96037603D01*
X241922238Y-95999236D01*
X241920743Y-95978330D01*
X241917282Y-95941752D01*
X241911121Y-95905438D01*
X241904316Y-95881492D01*
X241888038Y-95850846D01*
X241868002Y-95833938D01*
X241834986Y-95818120D01*
X241807478Y-95808000D01*
X239396919Y-95041946D01*
X239396919Y-95039353D01*
X241795374Y-94287998D01*
X241830672Y-94277942D01*
X241861949Y-94263789D01*
X241888067Y-94239324D01*
X241901722Y-94214505D01*
X241911952Y-94180708D01*
X241917933Y-94144309D01*
X241920743Y-94113345D01*
X241923013Y-94077463D01*
X241924467Y-94041102D01*
X241925318Y-94006247D01*
X241925804Y-93967988D01*
X241925931Y-93933504D01*
X241925658Y-93893147D01*
X241924837Y-93856377D01*
X241923188Y-93818012D01*
X241920391Y-93780145D01*
X241918150Y-93759715D01*
X241911800Y-93724607D01*
X241898831Y-93692508D01*
X241883565Y-93674118D01*
X241850061Y-93658771D01*
X241814244Y-93658080D01*
X241804884Y-93659420D01*
X241770164Y-93666850D01*
X241733141Y-93677002D01*
X241695638Y-93688783D01*
X241670004Y-93697463D01*
X238897168Y-94635575D01*
X238864424Y-94647656D01*
X238833892Y-94665111D01*
X238830593Y-94667566D01*
X238807124Y-94694853D01*
X238792560Y-94727952D01*
X238791685Y-94730683D01*
X238783295Y-94767727D01*
X238778347Y-94805655D01*
X238775726Y-94840618D01*
X238775257Y-94850001D01*
X238773909Y-94885103D01*
X238772893Y-94924591D01*
X238772285Y-94961929D01*
X238771920Y-95002488D01*
X238771802Y-95038749D01*
X238771799Y-95046270D01*
X238266085Y-95046270D01*
X238266085Y-93534914D01*
X238771799Y-93534914D01*
X238772042Y-93575069D01*
X238772771Y-93611879D01*
X238774237Y-93650599D01*
X238776723Y-93689277D01*
X238778715Y-93710432D01*
X238785521Y-93746081D01*
X238798814Y-93778828D01*
X238814165Y-93797759D01*
X238845043Y-93813616D01*
X238879795Y-93816294D01*
X238891981Y-93815051D01*
X238927156Y-93808077D01*
X238964446Y-93798190D01*
X239002070Y-93786531D01*
X239027726Y-93777872D01*
X241800561Y-92807769D01*
X241833140Y-92794081D01*
X241863077Y-92776410D01*
X241866272Y-92774049D01*
X241890172Y-92746575D01*
X241904357Y-92714422D01*
X241905180Y-92711796D01*
X241914097Y-92675401D01*
X241919298Y-92638013D01*
X241922000Y-92603483D01*
X241922473Y-92594208D01*
X241923820Y-92558645D01*
X241924837Y-92518530D01*
X241925445Y-92480524D01*
X241925810Y-92439174D01*
X241925928Y-92402162D01*
X241925931Y-92394481D01*
X241925877Y-92359518D01*
X241925658Y-92318398D01*
X241925269Y-92280149D01*
X241924712Y-92244770D01*
X241923820Y-92206105D01*
X241922473Y-92166221D01*
X241920463Y-92130634D01*
X241916951Y-92094523D01*
X241911449Y-92059711D01*
X241905180Y-92033935D01*
X241892360Y-91999720D01*
X241871892Y-91971236D01*
X241865408Y-91965630D01*
X241833849Y-91946392D01*
X241801205Y-91932989D01*
X241792780Y-91930180D01*
X239022538Y-90957483D01*
X238986407Y-90945698D01*
X238949269Y-90934863D01*
X238912786Y-90926033D01*
X238885064Y-90921169D01*
X238848314Y-90921114D01*
X238815840Y-90934881D01*
X238808977Y-90941055D01*
X238790678Y-90971861D01*
X238781409Y-91007443D01*
X238777851Y-91035299D01*
X238775203Y-91072640D01*
X238773507Y-91110544D01*
X238772514Y-91146918D01*
X238771946Y-91186880D01*
X238771799Y-91222921D01*
X238771883Y-91260250D01*
X238772136Y-91294962D01*
X238772663Y-91333160D01*
X238773585Y-91372962D01*
X238774838Y-91407632D01*
X238775257Y-91416596D01*
X238777818Y-91452905D01*
X238782620Y-91490224D01*
X238789956Y-91522080D01*
X238804094Y-91554563D01*
X238820217Y-91573092D01*
X238851159Y-91590150D01*
X238871230Y-91597302D01*
X239491162Y-91809133D01*
X239491162Y-91956983D01*
X239491162Y-92990204D01*
X238887658Y-93189931D01*
X238854758Y-93201989D01*
X238830593Y-93215870D01*
X238806946Y-93241362D01*
X238794279Y-93266882D01*
X238784420Y-93302936D01*
X238778764Y-93339391D01*
X238776122Y-93366314D01*
X238774032Y-93405518D01*
X238772879Y-93440455D01*
X238772140Y-93479281D01*
X238771836Y-93515655D01*
X238771799Y-93534914D01*
X238266085Y-93534914D01*
X238266085Y-90415400D01*
X242431645Y-90415400D01*
X242431645Y-106163839D01*
G37*
D10*
X223224819Y-71291666D02*
X222748628Y-70958333D01*
X223224819Y-70720238D02*
X222224819Y-70720238D01*
X222224819Y-70720238D02*
X222224819Y-71101190D01*
X222224819Y-71101190D02*
X222272438Y-71196428D01*
X222272438Y-71196428D02*
X222320057Y-71244047D01*
X222320057Y-71244047D02*
X222415295Y-71291666D01*
X222415295Y-71291666D02*
X222558152Y-71291666D01*
X222558152Y-71291666D02*
X222653390Y-71244047D01*
X222653390Y-71244047D02*
X222701009Y-71196428D01*
X222701009Y-71196428D02*
X222748628Y-71101190D01*
X222748628Y-71101190D02*
X222748628Y-70720238D01*
X222701009Y-71720238D02*
X222701009Y-72053571D01*
X223224819Y-72196428D02*
X223224819Y-71720238D01*
X223224819Y-71720238D02*
X222224819Y-71720238D01*
X222224819Y-71720238D02*
X222224819Y-72196428D01*
X222701009Y-72958333D02*
X222701009Y-72625000D01*
X223224819Y-72625000D02*
X222224819Y-72625000D01*
X222224819Y-72625000D02*
X222224819Y-73101190D01*
X222224819Y-73625000D02*
X222462914Y-73625000D01*
X222367676Y-73386905D02*
X222462914Y-73625000D01*
X222462914Y-73625000D02*
X222367676Y-73863095D01*
X222653390Y-73482143D02*
X222462914Y-73625000D01*
X222462914Y-73625000D02*
X222653390Y-73767857D01*
X222224819Y-74386905D02*
X222462914Y-74386905D01*
X222367676Y-74148810D02*
X222462914Y-74386905D01*
X222462914Y-74386905D02*
X222367676Y-74625000D01*
X222653390Y-74244048D02*
X222462914Y-74386905D01*
X222462914Y-74386905D02*
X222653390Y-74529762D01*
D12*
%TO.C,REF\u002A\u002A*%
X229120000Y-112125000D02*
X226580000Y-109585000D01*
X261890000Y-112125000D02*
X229120000Y-112125000D01*
X223910000Y-109585000D02*
X223910000Y-43285000D01*
X226580000Y-109585000D02*
X223910000Y-109585000D01*
X264430000Y-109585000D02*
X261890000Y-112125000D01*
X275860000Y-109585000D02*
X264430000Y-109585000D01*
X277510000Y-107935000D02*
X275860000Y-109585000D01*
X223910000Y-43285000D02*
X227090000Y-43285000D01*
X227090000Y-43285000D02*
X227090000Y-41385000D01*
X236230000Y-43285000D02*
X256300000Y-43285000D01*
X256300000Y-43285000D02*
X256300000Y-36935000D01*
X267980000Y-43285000D02*
X277510000Y-43285000D01*
X277510000Y-43285000D02*
X277510000Y-107935000D01*
X227090000Y-41385000D02*
X236230000Y-41385000D01*
X236230000Y-41385000D02*
X236230000Y-43285000D01*
X256300000Y-36935000D02*
X267980000Y-36935000D01*
X267980000Y-36935000D02*
X267980000Y-43285000D01*
%TD*%
M02*
