%TF.GenerationSoftware,KiCad,Pcbnew,7.0.10*%
%TF.CreationDate,2024-02-09T23:31:33+05:30*%
%TF.ProjectId,rp2040-basic-m1,72703230-3430-42d6-9261-7369632d6d31,V2.2.1*%
%TF.SameCoordinates,Original*%
%TF.FileFunction,Copper,L2,Bot*%
%TF.FilePolarity,Positive*%
%FSLAX46Y46*%
G04 Gerber Fmt 4.6, Leading zero omitted, Abs format (unit mm)*
G04 Created by KiCad (PCBNEW 7.0.10) date 2024-02-09 23:31:33*
%MOMM*%
%LPD*%
G01*
G04 APERTURE LIST*
G04 Aperture macros list*
%AMRoundRect*
0 Rectangle with rounded corners*
0 $1 Rounding radius*
0 $2 $3 $4 $5 $6 $7 $8 $9 X,Y pos of 4 corners*
0 Add a 4 corners polygon primitive as box body*
4,1,4,$2,$3,$4,$5,$6,$7,$8,$9,$2,$3,0*
0 Add four circle primitives for the rounded corners*
1,1,$1+$1,$2,$3*
1,1,$1+$1,$4,$5*
1,1,$1+$1,$6,$7*
1,1,$1+$1,$8,$9*
0 Add four rect primitives between the rounded corners*
20,1,$1+$1,$2,$3,$4,$5,0*
20,1,$1+$1,$4,$5,$6,$7,0*
20,1,$1+$1,$6,$7,$8,$9,0*
20,1,$1+$1,$8,$9,$2,$3,0*%
G04 Aperture macros list end*
%TA.AperFunction,ComponentPad*%
%ADD10R,1.700000X1.700000*%
%TD*%
%TA.AperFunction,ComponentPad*%
%ADD11O,1.700000X1.700000*%
%TD*%
%TA.AperFunction,ComponentPad*%
%ADD12O,1.000000X2.100000*%
%TD*%
%TA.AperFunction,ComponentPad*%
%ADD13O,1.000000X1.800000*%
%TD*%
%TA.AperFunction,ComponentPad*%
%ADD14R,3.500000X3.500000*%
%TD*%
%TA.AperFunction,ComponentPad*%
%ADD15RoundRect,0.750000X-1.000000X0.750000X-1.000000X-0.750000X1.000000X-0.750000X1.000000X0.750000X0*%
%TD*%
%TA.AperFunction,ComponentPad*%
%ADD16RoundRect,0.875000X-0.875000X0.875000X-0.875000X-0.875000X0.875000X-0.875000X0.875000X0.875000X0*%
%TD*%
%TA.AperFunction,ViaPad*%
%ADD17C,0.800000*%
%TD*%
%TA.AperFunction,ViaPad*%
%ADD18C,0.600000*%
%TD*%
%TA.AperFunction,Conductor*%
%ADD19C,0.250000*%
%TD*%
%TA.AperFunction,Conductor*%
%ADD20C,0.200000*%
%TD*%
%TA.AperFunction,Conductor*%
%ADD21C,0.500000*%
%TD*%
%TA.AperFunction,Conductor*%
%ADD22C,0.350000*%
%TD*%
G04 APERTURE END LIST*
D10*
%TO.P,J7,1,Pin_1*%
%TO.N,Net-(J7-Pin_1)*%
X107850000Y-71680500D03*
D11*
%TO.P,J7,2,Pin_2*%
%TO.N,Net-(J7-Pin_2)*%
X107850000Y-74220500D03*
%TO.P,J7,3,Pin_3*%
%TO.N,20*%
X107850000Y-76760500D03*
%TO.P,J7,4,Pin_4*%
%TO.N,21*%
X107850000Y-79300500D03*
%TO.P,J7,5,Pin_5*%
%TO.N,Net-(J7-Pin_5)*%
X107850000Y-81840500D03*
%TO.P,J7,6,Pin_6*%
%TO.N,Net-(J7-Pin_6)*%
X107850000Y-84380500D03*
%TD*%
D10*
%TO.P,J5,1,Pin_1*%
%TO.N,Net-(J5-Pin_1)*%
X74200000Y-85200000D03*
D11*
%TO.P,J5,2,Pin_2*%
%TO.N,Net-(J5-Pin_2)*%
X74200000Y-82660000D03*
%TO.P,J5,3,Pin_3*%
%TO.N,Net-(J5-Pin_3)*%
X74200000Y-80120000D03*
%TO.P,J5,4,Pin_4*%
%TO.N,Net-(J5-Pin_4)*%
X74200000Y-77580000D03*
%TO.P,J5,5,Pin_5*%
%TO.N,Net-(J5-Pin_5)*%
X74200000Y-75040000D03*
%TO.P,J5,6,Pin_6*%
%TO.N,Net-(J5-Pin_6)*%
X74200000Y-72500000D03*
%TD*%
D10*
%TO.P,J6,1,Pin_1*%
%TO.N,3V*%
X74400000Y-49690500D03*
D11*
%TO.P,J6,2,Pin_2*%
%TO.N,GND*%
X74400000Y-52230500D03*
%TO.P,J6,3,Pin_3*%
%TO.N,3V*%
X74400000Y-54770500D03*
%TO.P,J6,4,Pin_4*%
X74400000Y-57310500D03*
%TO.P,J6,5,Pin_5*%
%TO.N,5V*%
X74400000Y-59850500D03*
%TO.P,J6,6,Pin_6*%
%TO.N,GND*%
X74400000Y-62390500D03*
%TO.P,J6,7,Pin_7*%
X74400000Y-64930500D03*
%TO.P,J6,8,Pin_8*%
%TO.N,3V*%
X74400000Y-67470500D03*
%TD*%
D10*
%TO.P,J3,1,Pin_1*%
%TO.N,Net-(J3-Pin_1)*%
X122720000Y-63620500D03*
D11*
%TO.P,J3,2,Pin_2*%
%TO.N,Net-(J3-Pin_2)*%
X122720000Y-61080500D03*
%TO.P,J3,3,Pin_3*%
%TO.N,Net-(J3-Pin_3)*%
X122720000Y-58540500D03*
%TO.P,J3,4,Pin_4*%
%TO.N,Net-(J3-Pin_4)*%
X122720000Y-56000500D03*
%TO.P,J3,5,Pin_5*%
%TO.N,Net-(J3-Pin_5)*%
X122720000Y-53460500D03*
%TO.P,J3,6,Pin_6*%
%TO.N,Net-(J3-Pin_6)*%
X122720000Y-50920500D03*
%TO.P,J3,7,Pin_7*%
%TO.N,GND*%
X122720000Y-48380500D03*
%TO.P,J3,8,Pin_8*%
%TO.N,Net-(J3-Pin_8)*%
X122720000Y-45840500D03*
%TO.P,J3,9,Pin_9*%
%TO.N,Net-(J3-Pin_9)*%
X122720000Y-43300500D03*
%TO.P,J3,10,Pin_10*%
%TO.N,17*%
X122720000Y-40760500D03*
%TD*%
D10*
%TO.P,J10,1,Pin_1*%
%TO.N,Net-(D2-VDD)*%
X115350000Y-42695000D03*
D11*
%TO.P,J10,2,Pin_2*%
%TO.N,3V*%
X115350000Y-40155000D03*
%TD*%
D12*
%TO.P,J1,S1,SHIELD*%
%TO.N,GND*%
X113795000Y-22610500D03*
D13*
X113795000Y-18410500D03*
D12*
X105155000Y-22610500D03*
D13*
X105155000Y-18410500D03*
%TD*%
D10*
%TO.P,J4,1,Pin_1*%
%TO.N,RX*%
X122775000Y-85480000D03*
D11*
%TO.P,J4,2,Pin_2*%
%TO.N,Net-(J4-Pin_2)*%
X122775000Y-82940000D03*
%TO.P,J4,3,Pin_3*%
%TO.N,Net-(J4-Pin_3)*%
X122775000Y-80400000D03*
%TO.P,J4,4,Pin_4*%
%TO.N,Net-(J4-Pin_4)*%
X122775000Y-77860000D03*
%TO.P,J4,5,Pin_5*%
%TO.N,Net-(J4-Pin_5)*%
X122775000Y-75320000D03*
%TO.P,J4,6,Pin_6*%
%TO.N,Net-(J4-Pin_6)*%
X122775000Y-72780000D03*
%TO.P,J4,7,Pin_7*%
%TO.N,Net-(J4-Pin_7)*%
X122775000Y-70240000D03*
%TO.P,J4,8,Pin_8*%
%TO.N,Net-(J4-Pin_8)*%
X122775000Y-67700000D03*
%TD*%
D14*
%TO.P,J9,1*%
%TO.N,Net-(F1-Pad1)*%
X79198000Y-30992500D03*
D15*
%TO.P,J9,2*%
%TO.N,GND*%
X79198000Y-24992500D03*
D16*
%TO.P,J9,3*%
%TO.N,unconnected-(J9-Pad3)*%
X74498000Y-27992500D03*
%TD*%
D10*
%TO.P,J8,1,Pin_1*%
%TO.N,Net-(J8-Pin_1)*%
X97820000Y-88200000D03*
D11*
%TO.P,J8,2,Pin_2*%
%TO.N,GND*%
X100360000Y-88200000D03*
%TO.P,J8,3,Pin_3*%
%TO.N,Net-(J8-Pin_3)*%
X102900000Y-88200000D03*
%TD*%
D17*
%TO.N,GND*%
X110500000Y-35100000D03*
X83795000Y-47638780D03*
X115000000Y-23530500D03*
X88200000Y-89510000D03*
X94540000Y-58790000D03*
X104034765Y-29715235D03*
X106480000Y-40960500D03*
X89450000Y-37522500D03*
X98640000Y-29560000D03*
X92780000Y-53070500D03*
X107034264Y-38234264D03*
X94520000Y-73060000D03*
X118481300Y-51272200D03*
X95210000Y-46538500D03*
X109730000Y-45290000D03*
X88140000Y-72970000D03*
X96219750Y-85280250D03*
X96950000Y-55690500D03*
X80550000Y-38760500D03*
X102068000Y-38918500D03*
X103975000Y-36935500D03*
X96700000Y-77400000D03*
X97496000Y-45522500D03*
X92780000Y-53070500D03*
X97496000Y-46538500D03*
X95210000Y-45522500D03*
X98004000Y-34330500D03*
X119312500Y-39210500D03*
X96226000Y-46538500D03*
X94080000Y-48321000D03*
X122300000Y-30960500D03*
X96158000Y-33874000D03*
X85800000Y-27710500D03*
X110180000Y-27500000D03*
X88750000Y-58382500D03*
X109620000Y-31800000D03*
X92094000Y-33874000D03*
X91590000Y-34922500D03*
X96226000Y-45522500D03*
X111825263Y-50435249D03*
X100580000Y-27140000D03*
X103710000Y-23410500D03*
X100460000Y-35802500D03*
X114600000Y-32300000D03*
X88759500Y-42474500D03*
X78429400Y-42566800D03*
X106884000Y-55218500D03*
X93910000Y-89410000D03*
X93300000Y-64700000D03*
X111700000Y-55250000D03*
X95210000Y-47554500D03*
X78780000Y-64940500D03*
X92570000Y-56830500D03*
X92000000Y-27810500D03*
X109760000Y-33030000D03*
X89440000Y-60390000D03*
%TO.N,VBUS*%
X111500000Y-33000000D03*
X88770000Y-30950000D03*
%TO.N,Net-(R6-Pad1)*%
X91900000Y-23860500D03*
X85750000Y-23860500D03*
%TO.N,Net-(J3-Pin_3)*%
X89753000Y-49591800D03*
X113098000Y-62058500D03*
%TO.N,Net-(J3-Pin_4)*%
X90550000Y-50260500D03*
X88612000Y-53005800D03*
X109789000Y-68043100D03*
%TO.N,Net-(J3-Pin_5)*%
X119455600Y-53389200D03*
X113980500Y-59470900D03*
X111978000Y-67595500D03*
X90540000Y-51490500D03*
X89760000Y-54360500D03*
%TO.N,Net-(J3-Pin_6)*%
X119823400Y-52312000D03*
X91520000Y-51830500D03*
X98416344Y-56992271D03*
X104022000Y-52349800D03*
%TO.N,Net-(J3-Pin_8)*%
X93509056Y-52120100D03*
%TO.N,Net-(J5-Pin_1)*%
X103830000Y-47110500D03*
X114225000Y-83050000D03*
%TO.N,Net-(J5-Pin_2)*%
X104020000Y-45800500D03*
%TO.N,Net-(J5-Pin_3)*%
X109161000Y-52834700D03*
X112857000Y-59529400D03*
X111098000Y-73956200D03*
X104010000Y-44710500D03*
%TO.N,Net-(J5-Pin_4)*%
X103040000Y-43900500D03*
%TO.N,Net-(J5-Pin_5)*%
X102005000Y-43564600D03*
%TO.N,Net-(J5-Pin_6)*%
X101050000Y-43010500D03*
%TO.N,Net-(J7-Pin_1)*%
X101351000Y-51767100D03*
X107850000Y-58571000D03*
%TO.N,Net-(J7-Pin_2)*%
X106675000Y-56794300D03*
X102360000Y-51360500D03*
%TO.N,Net-(J3-Pin_1)*%
X79706000Y-44296500D03*
X75464000Y-35728300D03*
X75500000Y-33260500D03*
X124588500Y-38318300D03*
X75700000Y-40760500D03*
X84900000Y-29660500D03*
%TO.N,Net-(J3-Pin_2)*%
X88637303Y-49589197D03*
%TO.N,Net-(J7-Pin_5)*%
X107704574Y-50702676D03*
%TO.N,Net-(J7-Pin_6)*%
X108436000Y-51384600D03*
%TO.N,Net-(J8-Pin_1)*%
X97024336Y-52727811D03*
X102091873Y-57708101D03*
%TO.N,Net-(J8-Pin_3)*%
X103301000Y-58916700D03*
X97600000Y-51910500D03*
%TO.N,14*%
X113250000Y-49860500D03*
X120450000Y-49710500D03*
X92518055Y-51892879D03*
X119554000Y-62127800D03*
X119549300Y-55639100D03*
%TO.N,26*%
X94540000Y-76870000D03*
X88140000Y-76810000D03*
X102100000Y-56700000D03*
X98900000Y-53900000D03*
D18*
%TO.N,3V*%
X115280000Y-72350000D03*
X115500000Y-68820000D03*
D17*
X113500305Y-84000000D03*
X111000000Y-84000000D03*
D18*
X115460000Y-75830000D03*
D17*
X110900000Y-82000000D03*
X95900000Y-83900000D03*
X113600000Y-82200000D03*
D18*
X115280000Y-79020000D03*
D17*
X103600000Y-38100000D03*
X115696000Y-53481700D03*
X104200000Y-53559600D03*
X98100000Y-35900000D03*
%TO.N,Net-(J3-Pin_9)*%
X99180000Y-52190500D03*
X116995000Y-50097200D03*
%TO.N,Net-(D2-VDD)*%
X113080000Y-40210000D03*
D18*
%TO.N,5V*%
X120560000Y-74220000D03*
D17*
X121100000Y-27300000D03*
D18*
X120560000Y-77690000D03*
X120430000Y-70660000D03*
D17*
X86800000Y-77600000D03*
X125200000Y-27400000D03*
X86800000Y-84400000D03*
D18*
X120540000Y-81030000D03*
D17*
X120850000Y-86850000D03*
X86800000Y-82100000D03*
%TO.N,RX*%
X111825000Y-79075000D03*
X113450000Y-79950000D03*
X117515000Y-83915000D03*
X111900000Y-75200000D03*
X89782000Y-44029300D03*
%TO.N,Net-(J4-Pin_2)*%
X121700000Y-84002948D03*
X90740000Y-43730500D03*
X99772000Y-42787900D03*
%TO.N,Net-(J4-Pin_7)*%
X86896911Y-46233144D03*
%TO.N,Net-(J4-Pin_8)*%
X86659000Y-47203830D03*
D18*
%TO.N,Net-(Q3-S)*%
X115240000Y-80840000D03*
D17*
X88783000Y-44045500D03*
D18*
X113350000Y-77640000D03*
%TO.N,Net-(Q4-S)*%
X115400000Y-77650000D03*
D17*
X87844000Y-44386400D03*
D18*
%TO.N,Net-(Q5-S)*%
X115300000Y-74280000D03*
D17*
X87235000Y-45179600D03*
%TO.N,Net-(Q6-S)*%
X115696000Y-61636600D03*
X105581000Y-65483000D03*
D18*
X115340000Y-70720000D03*
D17*
X113500000Y-67500000D03*
X87859000Y-45960400D03*
X105906000Y-60294900D03*
%TO.N,Net-(F1-Pad1)*%
X85790000Y-30960000D03*
%TO.N,20*%
X104954000Y-60796900D03*
X94500000Y-81630000D03*
X106000000Y-76730000D03*
X90960000Y-83835500D03*
X103020000Y-50400500D03*
%TO.N,21*%
X103760000Y-51220500D03*
X105230000Y-79290000D03*
X92420000Y-83650000D03*
X95050000Y-82440000D03*
%TO.N,17*%
X115900000Y-48100000D03*
X112387347Y-47917347D03*
X100500000Y-52290500D03*
X114400000Y-50547200D03*
X113020000Y-45240000D03*
%TD*%
D19*
%TO.N,GND*%
X93860763Y-58245456D02*
X93860763Y-58121263D01*
X76144500Y-52230500D02*
X77500000Y-50875000D01*
D20*
X104510000Y-22610500D02*
X103710000Y-23410500D01*
D19*
X78780000Y-64940500D02*
X78780000Y-63770000D01*
X119083000Y-39440000D02*
X119312500Y-39210500D01*
X93860763Y-58121263D02*
X92570000Y-56830500D01*
X109620000Y-31800000D02*
X109760000Y-31940000D01*
X88759500Y-42474500D02*
X86124500Y-42474500D01*
X110350000Y-35100000D02*
X106531500Y-38918500D01*
X98004000Y-34330500D02*
X96614500Y-34330500D01*
D21*
X106910000Y-26610500D02*
X107900000Y-26610500D01*
X93810000Y-89510000D02*
X93910000Y-89410000D01*
D19*
X103500000Y-30250000D02*
X98825000Y-30250000D01*
X118930000Y-39440000D02*
X119083000Y-39440000D01*
X85175000Y-27710500D02*
X85800000Y-27710500D01*
X79275000Y-25885500D02*
X83350000Y-25885500D01*
X97496000Y-46538500D02*
X96226000Y-46538500D01*
X78780000Y-63770000D02*
X84167500Y-58382500D01*
X108070000Y-30250000D02*
X109620000Y-31800000D01*
X91710500Y-28100000D02*
X92000000Y-27810500D01*
X115939500Y-30960500D02*
X114600000Y-32300000D01*
X108789500Y-27500000D02*
X107900000Y-26610500D01*
X109589500Y-44070000D02*
X116636104Y-44070000D01*
X83350000Y-25885500D02*
X85175000Y-27710500D01*
D21*
X74400000Y-62390500D02*
X74400000Y-64930500D01*
D19*
X95210000Y-46538500D02*
X96226000Y-46538500D01*
X106480000Y-40960500D02*
X109589500Y-44070000D01*
D21*
X115000000Y-23530500D02*
X115000000Y-24460500D01*
D19*
X98988000Y-34330500D02*
X100460000Y-35802500D01*
X107034264Y-40406236D02*
X107034264Y-38234264D01*
X118930000Y-41776104D02*
X118930000Y-39440000D01*
X104569530Y-30250000D02*
X108070000Y-30250000D01*
X110500000Y-35100000D02*
X111800000Y-35100000D01*
X89275000Y-37697500D02*
X89450000Y-37522500D01*
X77500000Y-50875000D02*
X77500000Y-47704500D01*
X96614500Y-34330500D02*
X96158000Y-33874000D01*
X86189500Y-28100000D02*
X91710500Y-28100000D01*
X86124500Y-42474500D02*
X82410500Y-38760500D01*
X77500000Y-47704500D02*
X77900000Y-47304500D01*
X110180000Y-27500000D02*
X108789500Y-27500000D01*
X88759500Y-42474500D02*
X89275000Y-41959000D01*
X98825000Y-30250000D02*
X98640000Y-30065000D01*
D20*
X113795000Y-22610500D02*
X114080000Y-22610500D01*
D19*
X85700000Y-27660500D02*
X85750000Y-27610500D01*
D21*
X115000000Y-24460500D02*
X112850000Y-26610500D01*
D19*
X85800000Y-27710500D02*
X86189500Y-28100000D01*
D20*
X89440000Y-59072500D02*
X88750000Y-58382500D01*
X89440000Y-60390000D02*
X89440000Y-59072500D01*
D19*
X106531500Y-38918500D02*
X102068000Y-38918500D01*
D21*
X88200000Y-89510000D02*
X93810000Y-89510000D01*
X107900000Y-26610500D02*
X112850000Y-26610500D01*
X78770000Y-64930500D02*
X78780000Y-64940500D01*
D19*
X85800000Y-27710500D02*
X85700000Y-27660500D01*
X101593000Y-36935500D02*
X100460000Y-35802500D01*
D20*
X105155000Y-18410500D02*
X105155000Y-22610500D01*
D19*
X82410500Y-38760500D02*
X80550000Y-38760500D01*
D21*
X94540000Y-58790000D02*
X94405307Y-58790000D01*
D19*
X109760000Y-31940000D02*
X109760000Y-33030000D01*
X110500000Y-35100000D02*
X110350000Y-35100000D01*
D20*
X111668500Y-55218500D02*
X106884000Y-55218500D01*
D19*
X98640000Y-30065000D02*
X98640000Y-29560000D01*
X112662214Y-51272200D02*
X118481300Y-51272200D01*
X74400000Y-52230500D02*
X76144500Y-52230500D01*
X77900000Y-43096200D02*
X78429400Y-42566800D01*
D21*
X74400000Y-64930500D02*
X78770000Y-64930500D01*
X103710000Y-23410500D02*
X106910000Y-26610500D01*
D19*
X104034765Y-29715235D02*
X104569530Y-30250000D01*
D20*
X113795000Y-18410500D02*
X113795000Y-22610500D01*
D19*
X77900000Y-47304500D02*
X77900000Y-43096200D01*
D20*
X105155000Y-22610500D02*
X104510000Y-22610500D01*
D19*
X122300000Y-30960500D02*
X115939500Y-30960500D01*
X106480000Y-40960500D02*
X107034264Y-40406236D01*
X98004000Y-34330500D02*
X98988000Y-34330500D01*
X89275000Y-41959000D02*
X89275000Y-37697500D01*
X104034765Y-29715235D02*
X103500000Y-30250000D01*
X83460720Y-47304500D02*
X77900000Y-47304500D01*
D22*
X88140000Y-72970000D02*
X94430000Y-72970000D01*
D20*
X114080000Y-22610500D02*
X115000000Y-23530500D01*
D19*
X84167500Y-58382500D02*
X88750000Y-58382500D01*
D22*
X94430000Y-72970000D02*
X94520000Y-73060000D01*
D19*
X116636104Y-44070000D02*
X118930000Y-41776104D01*
X111825263Y-50435249D02*
X112662214Y-51272200D01*
X88775000Y-58407500D02*
X88750000Y-58382500D01*
D20*
X111700000Y-55250000D02*
X111668500Y-55218500D01*
D19*
X83795000Y-47638780D02*
X83460720Y-47304500D01*
X103975000Y-36935500D02*
X101593000Y-36935500D01*
X111800000Y-35100000D02*
X114600000Y-32300000D01*
D21*
X94405307Y-58790000D02*
X93860763Y-58245456D01*
D19*
%TO.N,VBUS*%
X102709500Y-30970000D02*
X105814500Y-34075000D01*
D21*
X102564500Y-30825000D02*
X102709500Y-30970000D01*
D19*
X88610000Y-30970000D02*
X88750000Y-30970000D01*
D21*
X110620000Y-33880000D02*
X105619500Y-33880000D01*
X88770000Y-30950000D02*
X88895000Y-30825000D01*
D19*
X110425000Y-34075000D02*
X111500000Y-33000000D01*
D21*
X111500000Y-33000000D02*
X110620000Y-33880000D01*
X105619500Y-33880000D02*
X102709500Y-30970000D01*
X88895000Y-30825000D02*
X102564500Y-30825000D01*
D19*
X88750000Y-30970000D02*
X88770000Y-30950000D01*
X105814500Y-34075000D02*
X110425000Y-34075000D01*
%TO.N,Net-(R6-Pad1)*%
X85775000Y-23885500D02*
X85750000Y-23860500D01*
X85725000Y-23885500D02*
X85700000Y-23885500D01*
X85725000Y-23860500D02*
X85700000Y-23885500D01*
X91875000Y-23885500D02*
X85775000Y-23885500D01*
X92200000Y-23885500D02*
X91925000Y-23885500D01*
X85750000Y-23860500D02*
X85725000Y-23860500D01*
X91925000Y-23885500D02*
X91900000Y-23860500D01*
X85750000Y-23860500D02*
X85725000Y-23885500D01*
X91900000Y-23860500D02*
X91875000Y-23885500D01*
%TO.N,Net-(J3-Pin_3)*%
X98955971Y-56267271D02*
X98567271Y-56267271D01*
X89829000Y-49515800D02*
X89753000Y-49591800D01*
X95704000Y-53527800D02*
X95704000Y-51537000D01*
X96769500Y-54469500D02*
X96646000Y-54469500D01*
X93683000Y-49515800D02*
X89829000Y-49515800D01*
X96646000Y-54469500D02*
X95704000Y-53527800D01*
X100391000Y-57702300D02*
X98955971Y-56267271D01*
X113098000Y-62058500D02*
X104748000Y-62058500D01*
X95704000Y-51537000D02*
X93683000Y-49515800D01*
X98567271Y-56267271D02*
X96769500Y-54469500D01*
X104748000Y-62058500D02*
X100391000Y-57702300D01*
%TO.N,Net-(J3-Pin_4)*%
X88612000Y-54658800D02*
X88612000Y-53005800D01*
X101996000Y-68043100D02*
X88612000Y-54658800D01*
X109789000Y-68043100D02*
X101996000Y-68043100D01*
%TO.N,Net-(J3-Pin_5)*%
X116871000Y-55039000D02*
X116871000Y-56151396D01*
X113980500Y-59042206D02*
X113980500Y-59470900D01*
X89760000Y-54360500D02*
X89760000Y-55170000D01*
X89760000Y-55170000D02*
X101908000Y-67318000D01*
X116871000Y-56151396D02*
X116737489Y-56284907D01*
X119455600Y-53389200D02*
X118520800Y-53389200D01*
X101908000Y-67318000D02*
X111701000Y-67318000D01*
X111701000Y-67318000D02*
X111978000Y-67595500D01*
X118520800Y-53389200D02*
X116871000Y-55039000D01*
X116737489Y-56284907D02*
X113980500Y-59042206D01*
%TO.N,Net-(J3-Pin_6)*%
X104262000Y-52109600D02*
X104022000Y-52349800D01*
X94459000Y-50944900D02*
X92406000Y-50944900D01*
X95254000Y-55060000D02*
X95254000Y-51739700D01*
X98416344Y-56992271D02*
X97186271Y-56992271D01*
X92406000Y-50944900D02*
X91520000Y-51830500D01*
X119984000Y-52109600D02*
X119621000Y-52109600D01*
X119621000Y-52109600D02*
X119823400Y-52312000D01*
X119621000Y-52109600D02*
X104262000Y-52109600D01*
X95254000Y-51739700D02*
X94459000Y-50944900D01*
X97186271Y-56992271D02*
X95254000Y-55060000D01*
%TO.N,Net-(J3-Pin_8)*%
X103679000Y-64757900D02*
X105882000Y-64757900D01*
X105882000Y-64757900D02*
X106031000Y-64907300D01*
X93509056Y-54587956D02*
X103679000Y-64757900D01*
X121200000Y-64640400D02*
X121200000Y-53943496D01*
X121200000Y-53943496D02*
X121448700Y-53694796D01*
X121200000Y-46200000D02*
X121559500Y-45840500D01*
X121200000Y-51221504D02*
X121200000Y-46200000D01*
X121448700Y-51470204D02*
X121200000Y-51221504D01*
X121559500Y-45840500D02*
X122720000Y-45840500D01*
X121448700Y-53694796D02*
X121448700Y-51470204D01*
X120933100Y-64907300D02*
X121200000Y-64640400D01*
X93509056Y-52120100D02*
X93509056Y-54587956D01*
X106031000Y-64907300D02*
X120933100Y-64907300D01*
%TO.N,Net-(J5-Pin_1)*%
X123895000Y-79225000D02*
X124728000Y-78392000D01*
X77240500Y-85490500D02*
X77359500Y-85490500D01*
X85614805Y-83110500D02*
X114164500Y-83110500D01*
X124728000Y-43078000D02*
X123775500Y-42125500D01*
X119217000Y-42125500D02*
X114232000Y-47110500D01*
X114164500Y-83110500D02*
X114225000Y-83050000D01*
X124728000Y-78392000D02*
X124728000Y-43078000D01*
X79739500Y-83110500D02*
X84985195Y-83110500D01*
X114225000Y-83050000D02*
X114285500Y-83110500D01*
X114232000Y-47110500D02*
X103830000Y-47110500D01*
X120070000Y-83050000D02*
X121600000Y-81520000D01*
X123775500Y-42125500D02*
X119217000Y-42125500D01*
X84999695Y-83125000D02*
X85600305Y-83125000D01*
X121600000Y-81520000D02*
X121600000Y-79913299D01*
D20*
X77240500Y-85490500D02*
X74160000Y-85490500D01*
D19*
X122288299Y-79225000D02*
X123895000Y-79225000D01*
X121600000Y-79913299D02*
X122288299Y-79225000D01*
X85600305Y-83125000D02*
X85614805Y-83110500D01*
X77359500Y-85490500D02*
X79739500Y-83110500D01*
X114225000Y-83050000D02*
X120070000Y-83050000D01*
X84985195Y-83110500D02*
X84999695Y-83125000D01*
%TO.N,Net-(J5-Pin_2)*%
X91289000Y-33100600D02*
X90311000Y-34079000D01*
X104736000Y-45084700D02*
X104736000Y-44323100D01*
X71775000Y-40442400D02*
X71775000Y-77627800D01*
X78139000Y-34079000D02*
X71775000Y-40442400D01*
X93513000Y-33100600D02*
X91289000Y-33100600D01*
D20*
X72122617Y-77627800D02*
X72122774Y-77627957D01*
D19*
X90311000Y-34079000D02*
X78139000Y-34079000D01*
D20*
X71775000Y-77627800D02*
X72122617Y-77627800D01*
D19*
X104736000Y-44323100D02*
X93513000Y-33100600D01*
X74160000Y-82950500D02*
X73150500Y-82950500D01*
X72122774Y-81922774D02*
X72122774Y-77627957D01*
D20*
X72122774Y-77627957D02*
X72006974Y-77627957D01*
D19*
X104020000Y-45800500D02*
X104736000Y-45084700D01*
X73150500Y-82950500D02*
X72122774Y-81922774D01*
%TO.N,Net-(J5-Pin_3)*%
X74160000Y-80410500D02*
X75814500Y-80410500D01*
X108501201Y-75750000D02*
X109304200Y-75750000D01*
X86900305Y-75675000D02*
X86975305Y-75750000D01*
X107198799Y-75750000D02*
X107363299Y-75585500D01*
X116421000Y-55965000D02*
X116421000Y-53115600D01*
X107363299Y-75585500D02*
X108336701Y-75585500D01*
X116049000Y-52743600D02*
X109252000Y-52743600D01*
X108336701Y-75585500D02*
X108501201Y-75750000D01*
X112857000Y-59529400D02*
X116421000Y-55965000D01*
X86975305Y-75750000D02*
X107198799Y-75750000D01*
X80475000Y-75750000D02*
X86224695Y-75750000D01*
X116421000Y-53115600D02*
X116049000Y-52743600D01*
X86224695Y-75750000D02*
X86299695Y-75675000D01*
X86299695Y-75675000D02*
X86900305Y-75675000D01*
X75814500Y-80410500D02*
X80475000Y-75750000D01*
X109252000Y-52743600D02*
X109161000Y-52834700D01*
X109304200Y-75750000D02*
X111098000Y-73956200D01*
%TO.N,Net-(J5-Pin_4)*%
X103040000Y-43336500D02*
X95528000Y-35824900D01*
X73070500Y-77870500D02*
X74160000Y-77870500D01*
X72237000Y-40617400D02*
X72237000Y-77037000D01*
X72237000Y-77037000D02*
X73070500Y-77870500D01*
X103040000Y-43900500D02*
X103040000Y-43336500D01*
X95528000Y-35824900D02*
X77029000Y-35824900D01*
X77029000Y-35824900D02*
X72237000Y-40617400D01*
%TO.N,Net-(J5-Pin_5)*%
X73130500Y-75330500D02*
X74160000Y-75330500D01*
X77216000Y-36275100D02*
X72695000Y-40795600D01*
X102005000Y-43564600D02*
X102005000Y-42938100D01*
X72695000Y-40795600D02*
X72695000Y-74895000D01*
X72695000Y-74895000D02*
X73130500Y-75330500D01*
X102005000Y-42938100D02*
X95342000Y-36275100D01*
X95342000Y-36275100D02*
X77216000Y-36275100D01*
%TO.N,Net-(J5-Pin_6)*%
X94786000Y-36746700D02*
X77381000Y-36746700D01*
X73161000Y-40966400D02*
X73161000Y-72261000D01*
X77381000Y-36746700D02*
X73161000Y-40966400D01*
X73432500Y-72532500D02*
X74160000Y-72532500D01*
X73161000Y-72261000D02*
X73432500Y-72532500D01*
X101050000Y-43010500D02*
X94786000Y-36746700D01*
%TO.N,Net-(J7-Pin_1)*%
X101351000Y-51767100D02*
X101351000Y-52495800D01*
X101351000Y-52495800D02*
X107426000Y-58570900D01*
X107850000Y-58570900D02*
X107850000Y-58571000D01*
X107426000Y-58570900D02*
X107850000Y-58570900D01*
%TO.N,Net-(J7-Pin_2)*%
X102360000Y-52745100D02*
X106409000Y-56794300D01*
X106409000Y-56794300D02*
X106675000Y-56794300D01*
X102360000Y-51360500D02*
X102360000Y-52745100D01*
%TO.N,Net-(J3-Pin_1)*%
X93175264Y-29610500D02*
X93025000Y-29610500D01*
X123175000Y-28225000D02*
X124588500Y-29638500D01*
X94560764Y-28225000D02*
X123175000Y-28225000D01*
X93175264Y-29610500D02*
X84950000Y-29610500D01*
X124588500Y-29638500D02*
X124588500Y-38318300D01*
X84950000Y-29610500D02*
X84900000Y-29660500D01*
X93194632Y-29591132D02*
X93175264Y-29610500D01*
X84850000Y-29610500D02*
X84800000Y-29610500D01*
X75464000Y-33224500D02*
X75500000Y-33260500D01*
X79706000Y-42751300D02*
X79706000Y-44296500D01*
X75700000Y-40760500D02*
X77715200Y-40760500D01*
X84900000Y-29660500D02*
X84850000Y-29610500D01*
X77715200Y-40760500D02*
X79706000Y-42751300D01*
X75464000Y-33296500D02*
X75464000Y-35728300D01*
X75500000Y-33260500D02*
X75464000Y-33296500D01*
X93194632Y-29591132D02*
X94560764Y-28225000D01*
%TO.N,Net-(J3-Pin_2)*%
X90432800Y-48866800D02*
X89359700Y-48866800D01*
X123912400Y-45353000D02*
X123129900Y-44570500D01*
X117567800Y-48922200D02*
X116151904Y-48922200D01*
X123912400Y-60762600D02*
X123912400Y-45353000D01*
X116151904Y-48922200D02*
X116028104Y-49046000D01*
X123594500Y-61080500D02*
X123912400Y-60762600D01*
X121919500Y-44570500D02*
X117567800Y-48922200D01*
X116028104Y-49046000D02*
X90612000Y-49046000D01*
X122720000Y-61080500D02*
X123594500Y-61080500D01*
X123129900Y-44570500D02*
X121919500Y-44570500D01*
X90612000Y-49046000D02*
X90432800Y-48866800D01*
X89359700Y-48866800D02*
X88637303Y-49589197D01*
%TO.N,Net-(J8-Pin_1)*%
X99103667Y-55367271D02*
X97024336Y-53287940D01*
X97024336Y-53287940D02*
X97024336Y-52727811D01*
X99751043Y-55367271D02*
X99103667Y-55367271D01*
X102091873Y-57708101D02*
X99751043Y-55367271D01*
%TO.N,Net-(J8-Pin_3)*%
X98605000Y-52915500D02*
X99268608Y-52915500D01*
X99268608Y-52915500D02*
X102743000Y-56389851D01*
X103301000Y-56965500D02*
X103301000Y-58916700D01*
X97600000Y-51910500D02*
X98605000Y-52915500D01*
X102743000Y-56407300D02*
X103301000Y-56965500D01*
X102743000Y-56389851D02*
X102743000Y-56407300D01*
%TO.N,14*%
X120111700Y-49372200D02*
X120450000Y-49710500D01*
X94201000Y-51395100D02*
X94804000Y-51998000D01*
X115888300Y-49822200D02*
X116338300Y-49372200D01*
X94804000Y-55246500D02*
X102341000Y-62783600D01*
X116338300Y-49372200D02*
X120111700Y-49372200D01*
X92518055Y-51892879D02*
X93015834Y-51395100D01*
X118898000Y-62783600D02*
X119554000Y-62127800D01*
X113288300Y-49822200D02*
X115888300Y-49822200D01*
X93015834Y-51395100D02*
X94201000Y-51395100D01*
X102341000Y-62783600D02*
X118898000Y-62783600D01*
X94804000Y-51998000D02*
X94804000Y-55246500D01*
X113250000Y-49860500D02*
X113288300Y-49822200D01*
X119549300Y-62123100D02*
X119549300Y-55639100D01*
X119554000Y-62127800D02*
X119549300Y-62123100D01*
%TO.N,26*%
X99300000Y-53900000D02*
X98900000Y-53900000D01*
X102100000Y-56700000D02*
X99300000Y-53900000D01*
D22*
X88140000Y-76810000D02*
X94480000Y-76810000D01*
X94480000Y-76810000D02*
X94540000Y-76870000D01*
D19*
%TO.N,3V*%
X109444500Y-85555500D02*
X97555500Y-85555500D01*
D21*
X115551828Y-79260000D02*
X115520000Y-79260000D01*
D19*
X115618000Y-53559800D02*
X115696000Y-53481700D01*
X104200000Y-53559800D02*
X115618000Y-53559800D01*
X103600000Y-38100000D02*
X100300000Y-38100000D01*
D21*
X111000000Y-84000000D02*
X113500305Y-84000000D01*
X113600000Y-81211828D02*
X115551828Y-79260000D01*
D19*
X97555500Y-85555500D02*
X95900000Y-83900000D01*
X100300000Y-38100000D02*
X98100000Y-35900000D01*
D21*
X110900000Y-82000000D02*
X113400000Y-82000000D01*
D19*
X113500305Y-84000000D02*
X113575305Y-83925000D01*
D21*
X113400000Y-82000000D02*
X113600000Y-82200000D01*
D19*
X111000000Y-84000000D02*
X109444500Y-85555500D01*
D21*
X113600000Y-82200000D02*
X113600000Y-81211828D01*
X115520000Y-79260000D02*
X115280000Y-79020000D01*
D19*
X104200000Y-53559600D02*
X104200000Y-53559800D01*
%TO.N,Net-(J3-Pin_9)*%
X118310000Y-55440000D02*
X118310000Y-55985188D01*
X117371308Y-56923880D02*
X115155500Y-59139938D01*
X119439300Y-50097200D02*
X120998700Y-51656600D01*
X119040800Y-54709200D02*
X118310000Y-55440000D01*
X114376701Y-60736400D02*
X107726000Y-60736400D01*
X107726000Y-60736400D02*
X99180000Y-52190500D01*
X118310000Y-55985188D02*
X117371308Y-56923880D01*
X115155500Y-59139938D02*
X115155500Y-59957601D01*
X119797900Y-54709200D02*
X119040800Y-54709200D01*
X120998700Y-53508400D02*
X119797900Y-54709200D01*
X116995000Y-50097200D02*
X119439300Y-50097200D01*
X115155500Y-59957601D02*
X114376701Y-60736400D01*
X120998700Y-51656600D02*
X120998700Y-53508400D01*
D21*
%TO.N,5V*%
X120540000Y-81030000D02*
X119060000Y-79550000D01*
D19*
X125200000Y-27400000D02*
X125449757Y-27649757D01*
X121274711Y-88163979D02*
X120900000Y-87789268D01*
D21*
X119060000Y-74160000D02*
X119060000Y-71400000D01*
D19*
X124492000Y-26300000D02*
X125492000Y-27300000D01*
X125449757Y-27649757D02*
X125449757Y-86317742D01*
D21*
X119800000Y-70660000D02*
X120430000Y-70660000D01*
D19*
X120524633Y-88164635D02*
X117074712Y-88167656D01*
D21*
X119060000Y-71400000D02*
X119800000Y-70660000D01*
X119060000Y-77350000D02*
X119060000Y-74160000D01*
D19*
X86800000Y-77600000D02*
X86800000Y-82100000D01*
X121100000Y-27300000D02*
X122100000Y-26300000D01*
X117074252Y-88168116D02*
X116550000Y-88168116D01*
X120900000Y-87789268D02*
X120524633Y-88164635D01*
D21*
X119120000Y-74220000D02*
X119060000Y-74160000D01*
D19*
X120850000Y-87739268D02*
X120900000Y-87789268D01*
D21*
X120560000Y-74220000D02*
X119120000Y-74220000D01*
D19*
X122100000Y-26300000D02*
X124492000Y-26300000D01*
X123281549Y-88162221D02*
X121274711Y-88163979D01*
D21*
X120560000Y-77690000D02*
X119400000Y-77690000D01*
D19*
X125449757Y-86317742D02*
X125080796Y-86686703D01*
D21*
X119400000Y-77690000D02*
X119060000Y-77350000D01*
D19*
X86800000Y-84400000D02*
X86800000Y-85200000D01*
X86800000Y-85200000D02*
X87700000Y-86100000D01*
D21*
X119060000Y-79550000D02*
X119060000Y-77350000D01*
D19*
X112375000Y-86100000D02*
X114444959Y-88169959D01*
X117074712Y-88167656D02*
X117074252Y-88168116D01*
X125080796Y-86686703D02*
X123281549Y-88162221D01*
X120850000Y-86850000D02*
X120850000Y-87739268D01*
X114444959Y-88169959D02*
X117074712Y-88167656D01*
X120850000Y-86837500D02*
X120850000Y-86850000D01*
X87700000Y-86100000D02*
X112375000Y-86100000D01*
%TO.N,RX*%
X111900000Y-75200000D02*
X111900000Y-73732895D01*
X111022805Y-72855700D02*
X104262000Y-72855700D01*
X112700000Y-79950000D02*
X111825000Y-79075000D01*
X84520000Y-53113500D02*
X84520000Y-45460000D01*
X89032000Y-43201700D02*
X89782000Y-43951200D01*
X89782000Y-43951200D02*
X89782000Y-44029300D01*
X111825000Y-79075000D02*
X111900000Y-75200000D01*
X86779000Y-43201700D02*
X89032000Y-43201700D01*
X111900000Y-73732895D02*
X111022805Y-72855700D01*
X113450000Y-79950000D02*
X112700000Y-79950000D01*
D21*
X117515000Y-83915000D02*
X119080000Y-85480000D01*
X119080000Y-85480000D02*
X122775000Y-85480000D01*
D19*
X104262000Y-72855700D02*
X84520000Y-53113500D01*
X111900000Y-79100000D02*
X111825000Y-79075000D01*
X84520000Y-45460000D02*
X86779000Y-43201700D01*
%TO.N,Net-(J4-Pin_2)*%
X91683000Y-42787900D02*
X90740000Y-43730500D01*
D21*
X121712052Y-84002948D02*
X122775000Y-82940000D01*
X121700000Y-84002948D02*
X121712052Y-84002948D01*
X122775000Y-82940000D02*
X122510000Y-82675000D01*
D19*
X99772000Y-42787900D02*
X91683000Y-42787900D01*
D21*
%TO.N,Net-(J4-Pin_3)*%
X122775000Y-80400000D02*
X122775000Y-80087500D01*
D19*
%TO.N,Net-(J4-Pin_7)*%
X106300000Y-66000000D02*
X105882200Y-66417800D01*
X90934000Y-53547300D02*
X87109000Y-49722300D01*
X124000000Y-69700000D02*
X124000000Y-66300000D01*
X123700000Y-66000000D02*
X106300000Y-66000000D01*
X92093000Y-54471000D02*
X92093000Y-54235600D01*
X105882200Y-66417800D02*
X104040000Y-66417800D01*
X124000000Y-66300000D02*
X123700000Y-66000000D01*
X123499500Y-70200500D02*
X124000000Y-69700000D01*
X92093000Y-54235600D02*
X91405000Y-53547300D01*
X87384000Y-46758400D02*
X86896911Y-46271311D01*
X87109000Y-47831153D02*
X87384000Y-47556153D01*
X122800000Y-70200500D02*
X123499500Y-70200500D01*
X91405000Y-53547300D02*
X90934000Y-53547300D01*
X86896911Y-46271311D02*
X86896911Y-46233144D01*
X87109000Y-49722300D02*
X87109000Y-47831153D01*
X104040000Y-66417800D02*
X92093000Y-54471000D01*
X87384000Y-47556153D02*
X87384000Y-46758400D01*
%TO.N,Net-(J4-Pin_8)*%
X106700000Y-66500000D02*
X106332000Y-66868000D01*
X91643000Y-54697400D02*
X91643000Y-54422100D01*
X106332000Y-66868000D02*
X103813600Y-66868000D01*
X122800000Y-67660500D02*
X121620500Y-67660500D01*
X86659000Y-49988400D02*
X86659000Y-47203830D01*
X91218000Y-53997400D02*
X90668000Y-53997400D01*
X121620500Y-67660500D02*
X120460000Y-66500000D01*
X90668000Y-53997400D02*
X86659000Y-49988400D01*
X103813600Y-66868000D02*
X91643000Y-54697400D01*
X120460000Y-66500000D02*
X106700000Y-66500000D01*
X91643000Y-54422100D02*
X91218000Y-53997400D01*
D20*
%TO.N,Net-(Q3-S)*%
X112625000Y-76915000D02*
X113350000Y-77640000D01*
D19*
X112500000Y-74774695D02*
X112625000Y-74899695D01*
X102549000Y-70505300D02*
X85001000Y-52957400D01*
X112500000Y-74774695D02*
X112500000Y-71235300D01*
X112500000Y-71235300D02*
X111770000Y-70505300D01*
X85001000Y-52957400D02*
X85001000Y-45685800D01*
X87035000Y-43651900D02*
X88389000Y-43651900D01*
X85001000Y-45685800D02*
X87035000Y-43651900D01*
X88389000Y-43651900D02*
X88783000Y-44045500D01*
X112625000Y-74899695D02*
X112625000Y-75512500D01*
D20*
X112625000Y-75512500D02*
X112625000Y-76915000D01*
D19*
X111770000Y-70505300D02*
X102549000Y-70505300D01*
%TO.N,Net-(Q4-S)*%
X112200000Y-70055200D02*
X113100000Y-70955200D01*
X87844000Y-44386400D02*
X86952000Y-44386400D01*
D20*
X115400000Y-77650000D02*
X113100000Y-75350000D01*
D19*
X102735000Y-70055200D02*
X112200000Y-70055200D01*
X86952000Y-44386400D02*
X85472000Y-45866300D01*
X85472000Y-45866300D02*
X85472000Y-52792000D01*
D20*
X113100000Y-75350000D02*
X113100000Y-73700000D01*
D19*
X85472000Y-52792000D02*
X102735000Y-70055200D01*
X113100000Y-70955200D02*
X113100000Y-73700000D01*
%TO.N,Net-(Q5-S)*%
X86926000Y-45179600D02*
X85934000Y-46172200D01*
D20*
X114680000Y-73660000D02*
X115300000Y-74280000D01*
D19*
X85934000Y-52617200D02*
X102916800Y-69600000D01*
X85934000Y-46172200D02*
X85934000Y-52617200D01*
D20*
X113350000Y-69600000D02*
X114680000Y-70930000D01*
X114680000Y-70930000D02*
X114680000Y-73660000D01*
D19*
X87235000Y-45179600D02*
X86926000Y-45179600D01*
X102916800Y-69600000D02*
X113350000Y-69600000D01*
%TO.N,Net-(Q6-S)*%
X106945000Y-61333400D02*
X105906000Y-60294900D01*
X115393000Y-61333400D02*
X106945000Y-61333400D01*
D20*
X113500000Y-68880000D02*
X113500000Y-67500000D01*
D19*
X92543000Y-54049100D02*
X91591000Y-53097200D01*
X103742000Y-65483000D02*
X92543000Y-54284500D01*
X92543000Y-54284500D02*
X92543000Y-54049100D01*
X91120000Y-53097200D02*
X87580000Y-49557200D01*
X87834000Y-46572004D02*
X87641000Y-46379004D01*
X87834000Y-47742549D02*
X87834000Y-46572004D01*
X87580000Y-47996549D02*
X87834000Y-47742549D01*
X105581000Y-65483000D02*
X103742000Y-65483000D01*
D20*
X115340000Y-70720000D02*
X113500000Y-68880000D01*
D19*
X87641000Y-46178400D02*
X87859000Y-45960400D01*
X87641000Y-46379004D02*
X87641000Y-46178400D01*
X91591000Y-53097200D02*
X91120000Y-53097200D01*
X87580000Y-49557200D02*
X87580000Y-47996549D01*
X115696000Y-61636600D02*
X115393000Y-61333400D01*
D20*
%TO.N,Net-(F1-Pad1)*%
X79452000Y-31885500D02*
X79275000Y-31885500D01*
D19*
X79198000Y-31631500D02*
X79452000Y-31885500D01*
D21*
X79198000Y-30992500D02*
X85757500Y-30992500D01*
X85757500Y-30992500D02*
X85790000Y-30960000D01*
D19*
X79198000Y-30992500D02*
X79198000Y-31631500D01*
%TO.N,20*%
X104156000Y-60796800D02*
X101000000Y-57641700D01*
X98031000Y-50400500D02*
X103020000Y-50400500D01*
X101000000Y-57641700D02*
X99175571Y-55817271D01*
X104954000Y-60796800D02*
X104156000Y-60796800D01*
X96154000Y-52277400D02*
X98031000Y-50400500D01*
X96154000Y-53054000D02*
X96154000Y-52277400D01*
X99175571Y-55817271D02*
X98917271Y-55817271D01*
X98917271Y-55817271D02*
X96154000Y-53054000D01*
X94500000Y-81630000D02*
X99400000Y-76730000D01*
X99400000Y-76730000D02*
X106000000Y-76730000D01*
X104954000Y-60796900D02*
X104954000Y-60796800D01*
%TO.N,21*%
X95050000Y-82440000D02*
X98200000Y-79290000D01*
X98200000Y-79290000D02*
X105230000Y-79290000D01*
%TO.N,17*%
X120548600Y-51947400D02*
X120548600Y-53321900D01*
X112570000Y-48100000D02*
X112387347Y-47917347D01*
X117905995Y-50822200D02*
X118180995Y-50547200D01*
X108464000Y-60254500D02*
X100500000Y-52290500D01*
X114705490Y-59771215D02*
X114222205Y-60254500D01*
X114675000Y-50822200D02*
X117905995Y-50822200D01*
X117321000Y-55779000D02*
X117321000Y-56338057D01*
X117321000Y-56338057D02*
X114705490Y-58953567D01*
X114222205Y-60254500D02*
X108464000Y-60254500D01*
X114705490Y-58953567D02*
X114705490Y-59771215D01*
X119148400Y-50547200D02*
X120548600Y-51947400D01*
X119611400Y-54259100D02*
X118840900Y-54259100D01*
X114400000Y-50547200D02*
X114675000Y-50822200D01*
X118840900Y-54259100D02*
X117321000Y-55779000D01*
X115900000Y-48100000D02*
X112570000Y-48100000D01*
X120548600Y-53321900D02*
X119611400Y-54259100D01*
X118180995Y-50547200D02*
X119148400Y-50547200D01*
%TD*%
%TA.AperFunction,Conductor*%
%TO.N,GND*%
G36*
X94666854Y-37091885D02*
G01*
X94687495Y-37108517D01*
X96053035Y-38474014D01*
X99429840Y-41850712D01*
X99601923Y-42022789D01*
X99635409Y-42084112D01*
X99630425Y-42153804D01*
X99588555Y-42209738D01*
X99561697Y-42225033D01*
X99469159Y-42263364D01*
X99343716Y-42359619D01*
X99302077Y-42413886D01*
X99245649Y-42455089D01*
X99203701Y-42462400D01*
X91702679Y-42462400D01*
X91691845Y-42461926D01*
X91654263Y-42458629D01*
X91654262Y-42458629D01*
X91617725Y-42468411D01*
X91607195Y-42470745D01*
X91569955Y-42477312D01*
X91564811Y-42479184D01*
X91548332Y-42486008D01*
X91543379Y-42488316D01*
X91512396Y-42510000D01*
X91503301Y-42515793D01*
X91470548Y-42534704D01*
X91470543Y-42534708D01*
X91446296Y-42563603D01*
X91438972Y-42571594D01*
X90911815Y-43098526D01*
X90850484Y-43131998D01*
X90807968Y-43133765D01*
X90740003Y-43124818D01*
X90739998Y-43124818D01*
X90583239Y-43145455D01*
X90583237Y-43145456D01*
X90437160Y-43205963D01*
X90311716Y-43302219D01*
X90215462Y-43427662D01*
X90211396Y-43434704D01*
X90209613Y-43433674D01*
X90172675Y-43479503D01*
X90106379Y-43501561D01*
X90054513Y-43492201D01*
X89938765Y-43444257D01*
X89938760Y-43444255D01*
X89782002Y-43423618D01*
X89773874Y-43423618D01*
X89773874Y-43422064D01*
X89713960Y-43412718D01*
X89679163Y-43388258D01*
X89603290Y-43312436D01*
X89276010Y-42985375D01*
X89268678Y-42977374D01*
X89244458Y-42948508D01*
X89244452Y-42948503D01*
X89211676Y-42929580D01*
X89202588Y-42923793D01*
X89172793Y-42902946D01*
X89171584Y-42902100D01*
X89171581Y-42902099D01*
X89166521Y-42899741D01*
X89150289Y-42893021D01*
X89145045Y-42891112D01*
X89145044Y-42891111D01*
X89145039Y-42891110D01*
X89107769Y-42884537D01*
X89097256Y-42882209D01*
X89086921Y-42879443D01*
X89060697Y-42872427D01*
X89060695Y-42872427D01*
X89023143Y-42875725D01*
X89012295Y-42876200D01*
X86798657Y-42876200D01*
X86787830Y-42875726D01*
X86786319Y-42875593D01*
X86750249Y-42872431D01*
X86750246Y-42872432D01*
X86750245Y-42872432D01*
X86713719Y-42882212D01*
X86703189Y-42884546D01*
X86688002Y-42887224D01*
X86665955Y-42891112D01*
X86665954Y-42891112D01*
X86665950Y-42891113D01*
X86660844Y-42892971D01*
X86644308Y-42899819D01*
X86639360Y-42902125D01*
X86608391Y-42923802D01*
X86599290Y-42929599D01*
X86566543Y-42948506D01*
X86542286Y-42977414D01*
X86534967Y-42985400D01*
X84303719Y-45215957D01*
X84295759Y-45223250D01*
X84266804Y-45247546D01*
X84247937Y-45280224D01*
X84242119Y-45289356D01*
X84220468Y-45320269D01*
X84218280Y-45324959D01*
X84211176Y-45342104D01*
X84209411Y-45346954D01*
X84202859Y-45384114D01*
X84200514Y-45394688D01*
X84190740Y-45431142D01*
X84194030Y-45468805D01*
X84194500Y-45479593D01*
X84194500Y-53093872D01*
X84194028Y-53104681D01*
X84190735Y-53142306D01*
X84200511Y-53178792D01*
X84202851Y-53189347D01*
X84209411Y-53226544D01*
X84211231Y-53231546D01*
X84218191Y-53248347D01*
X84220445Y-53253181D01*
X84242102Y-53284110D01*
X84247910Y-53293226D01*
X84266806Y-53325955D01*
X84295748Y-53350241D01*
X84303708Y-53357535D01*
X91982796Y-61036701D01*
X104017960Y-73071986D01*
X104025268Y-73079962D01*
X104049544Y-73108893D01*
X104049543Y-73108893D01*
X104082259Y-73127781D01*
X104091380Y-73133591D01*
X104122315Y-73155253D01*
X104122317Y-73155253D01*
X104122318Y-73155254D01*
X104127172Y-73157518D01*
X104143904Y-73164448D01*
X104148949Y-73166285D01*
X104148955Y-73166288D01*
X104185860Y-73172795D01*
X104186138Y-73172844D01*
X104196703Y-73175186D01*
X104233192Y-73184964D01*
X104233194Y-73184963D01*
X104233195Y-73184964D01*
X104263465Y-73182315D01*
X104270822Y-73181671D01*
X104281629Y-73181200D01*
X107113921Y-73181200D01*
X107180960Y-73200885D01*
X107226715Y-73253689D01*
X107236659Y-73322847D01*
X107207634Y-73386403D01*
X107192585Y-73401054D01*
X107103589Y-73474089D01*
X106972317Y-73634047D01*
X106972315Y-73634050D01*
X106959682Y-73657685D01*
X106874769Y-73816543D01*
X106814699Y-74014567D01*
X106794417Y-74220500D01*
X106814699Y-74426432D01*
X106822925Y-74453550D01*
X106859338Y-74573589D01*
X106874769Y-74624456D01*
X106880964Y-74636046D01*
X106972315Y-74806950D01*
X106994569Y-74834067D01*
X107103589Y-74966910D01*
X107242685Y-75081062D01*
X107282020Y-75138808D01*
X107283891Y-75208653D01*
X107247704Y-75268421D01*
X107231948Y-75278936D01*
X107232500Y-75279724D01*
X107192680Y-75307605D01*
X107183563Y-75313414D01*
X107150847Y-75332304D01*
X107150842Y-75332308D01*
X107126560Y-75361245D01*
X107119256Y-75369215D01*
X107100292Y-75388179D01*
X107038971Y-75421666D01*
X107012610Y-75424500D01*
X87150653Y-75424500D01*
X87088649Y-75407885D01*
X87080038Y-75402913D01*
X87070921Y-75397104D01*
X87039989Y-75375446D01*
X87035166Y-75373197D01*
X87018360Y-75366235D01*
X87013347Y-75364411D01*
X86976157Y-75357852D01*
X86965603Y-75355512D01*
X86929113Y-75345735D01*
X86891486Y-75349028D01*
X86880677Y-75349500D01*
X86319323Y-75349500D01*
X86308514Y-75349028D01*
X86270887Y-75345735D01*
X86270886Y-75345735D01*
X86234398Y-75355512D01*
X86223843Y-75357852D01*
X86186655Y-75364410D01*
X86181656Y-75366229D01*
X86164812Y-75373206D01*
X86160008Y-75375446D01*
X86129076Y-75397105D01*
X86119966Y-75402910D01*
X86111358Y-75407881D01*
X86049347Y-75424500D01*
X80494617Y-75424500D01*
X80483808Y-75424028D01*
X80446192Y-75420736D01*
X80446191Y-75420736D01*
X80409711Y-75430511D01*
X80399156Y-75432852D01*
X80361954Y-75439412D01*
X80356962Y-75441229D01*
X80340117Y-75448206D01*
X80335313Y-75450446D01*
X80304378Y-75472107D01*
X80295261Y-75477916D01*
X80262548Y-75496804D01*
X80262545Y-75496806D01*
X80262543Y-75496807D01*
X80262542Y-75496809D01*
X80238261Y-75525744D01*
X80230956Y-75533715D01*
X75715993Y-80048681D01*
X75654670Y-80082166D01*
X75628312Y-80085000D01*
X75364523Y-80085000D01*
X75297484Y-80065315D01*
X75251729Y-80012511D01*
X75241120Y-79973154D01*
X75237378Y-79935166D01*
X75235300Y-79914066D01*
X75175232Y-79716046D01*
X75077685Y-79533550D01*
X75008023Y-79448666D01*
X74946410Y-79373589D01*
X74806190Y-79258515D01*
X74786450Y-79242315D01*
X74603954Y-79144768D01*
X74405934Y-79084700D01*
X74405932Y-79084699D01*
X74405934Y-79084699D01*
X74200000Y-79064417D01*
X73994067Y-79084699D01*
X73834059Y-79133237D01*
X73802475Y-79142818D01*
X73796043Y-79144769D01*
X73701263Y-79195431D01*
X73613550Y-79242315D01*
X73613548Y-79242316D01*
X73613547Y-79242317D01*
X73453589Y-79373589D01*
X73323896Y-79531623D01*
X73322315Y-79533550D01*
X73316470Y-79544486D01*
X73224769Y-79716043D01*
X73164699Y-79914067D01*
X73144417Y-80120000D01*
X73164699Y-80325932D01*
X73173845Y-80356082D01*
X73224768Y-80523954D01*
X73322315Y-80706450D01*
X73346566Y-80736000D01*
X73453589Y-80866410D01*
X73522415Y-80922893D01*
X73613550Y-80997685D01*
X73796046Y-81095232D01*
X73994066Y-81155300D01*
X73994065Y-81155300D01*
X74012529Y-81157118D01*
X74200000Y-81175583D01*
X74405934Y-81155300D01*
X74603954Y-81095232D01*
X74786450Y-80997685D01*
X74946410Y-80866410D01*
X75016228Y-80781336D01*
X75073974Y-80742001D01*
X75112082Y-80736000D01*
X75794872Y-80736000D01*
X75805680Y-80736471D01*
X75843307Y-80739764D01*
X75879819Y-80729979D01*
X75890330Y-80727649D01*
X75927545Y-80721088D01*
X75927550Y-80721084D01*
X75932599Y-80719247D01*
X75949324Y-80712319D01*
X75954181Y-80710054D01*
X75954184Y-80710054D01*
X75985125Y-80688387D01*
X75994244Y-80682579D01*
X76026955Y-80663694D01*
X76026957Y-80663692D01*
X76051236Y-80634756D01*
X76058536Y-80626788D01*
X80573508Y-76111819D01*
X80634831Y-76078334D01*
X80661189Y-76075500D01*
X86205067Y-76075500D01*
X86215875Y-76075971D01*
X86253502Y-76079264D01*
X86290014Y-76069479D01*
X86300525Y-76067149D01*
X86337740Y-76060588D01*
X86337745Y-76060584D01*
X86342794Y-76058747D01*
X86359519Y-76051819D01*
X86364376Y-76049554D01*
X86364379Y-76049554D01*
X86395320Y-76027887D01*
X86404439Y-76022079D01*
X86410261Y-76018717D01*
X86413052Y-76017107D01*
X86475042Y-76000500D01*
X86724958Y-76000500D01*
X86786957Y-76017112D01*
X86795568Y-76022083D01*
X86804684Y-76027892D01*
X86835621Y-76049554D01*
X86835624Y-76049554D01*
X86840481Y-76051820D01*
X86857238Y-76058760D01*
X86862254Y-76060585D01*
X86862255Y-76060585D01*
X86862260Y-76060588D01*
X86899478Y-76067150D01*
X86909980Y-76069478D01*
X86946498Y-76079264D01*
X86984124Y-76075971D01*
X86994933Y-76075500D01*
X87745497Y-76075500D01*
X87812536Y-76095185D01*
X87858291Y-76147989D01*
X87868235Y-76217147D01*
X87839210Y-76280703D01*
X87820986Y-76297873D01*
X87746147Y-76355300D01*
X87711718Y-76381718D01*
X87615463Y-76507160D01*
X87554956Y-76653237D01*
X87554955Y-76653239D01*
X87534318Y-76809998D01*
X87534318Y-76810001D01*
X87554955Y-76966760D01*
X87554956Y-76966762D01*
X87611318Y-77102833D01*
X87615464Y-77112841D01*
X87711718Y-77238282D01*
X87837159Y-77334536D01*
X87983238Y-77395044D01*
X88050294Y-77403872D01*
X88139999Y-77415682D01*
X88140000Y-77415682D01*
X88140001Y-77415682D01*
X88229706Y-77403872D01*
X88296762Y-77395044D01*
X88442841Y-77334536D01*
X88568282Y-77238282D01*
X88571557Y-77234014D01*
X88571559Y-77234012D01*
X88627987Y-77192810D01*
X88669933Y-77185500D01*
X93964028Y-77185500D01*
X94031067Y-77205185D01*
X94062404Y-77234014D01*
X94099299Y-77282098D01*
X94111718Y-77298282D01*
X94237159Y-77394536D01*
X94383238Y-77455044D01*
X94461619Y-77465363D01*
X94539999Y-77475682D01*
X94540000Y-77475682D01*
X94540001Y-77475682D01*
X94592254Y-77468802D01*
X94696762Y-77455044D01*
X94842841Y-77394536D01*
X94968282Y-77298282D01*
X95064536Y-77172841D01*
X95125044Y-77026762D01*
X95145682Y-76870000D01*
X95140888Y-76833589D01*
X95125044Y-76713239D01*
X95125044Y-76713238D01*
X95064536Y-76567159D01*
X94968282Y-76441718D01*
X94842841Y-76345464D01*
X94842836Y-76345462D01*
X94806712Y-76330499D01*
X94767026Y-76314060D01*
X94712624Y-76270220D01*
X94690559Y-76203926D01*
X94707838Y-76136227D01*
X94758975Y-76088616D01*
X94814480Y-76075500D01*
X105501239Y-76075500D01*
X105568278Y-76095185D01*
X105614033Y-76147989D01*
X105623977Y-76217147D01*
X105594952Y-76280703D01*
X105576730Y-76297872D01*
X105571718Y-76301718D01*
X105571717Y-76301719D01*
X105530077Y-76355986D01*
X105473649Y-76397189D01*
X105431701Y-76404500D01*
X99419616Y-76404500D01*
X99408807Y-76404028D01*
X99371192Y-76400736D01*
X99334717Y-76410510D01*
X99324161Y-76412850D01*
X99286958Y-76419411D01*
X99281983Y-76421221D01*
X99265118Y-76428207D01*
X99260313Y-76430447D01*
X99229376Y-76452108D01*
X99220262Y-76457915D01*
X99187545Y-76476805D01*
X99163261Y-76505744D01*
X99155956Y-76513715D01*
X94671684Y-80997988D01*
X94610361Y-81031473D01*
X94567818Y-81033246D01*
X94500001Y-81024318D01*
X94499999Y-81024318D01*
X94343239Y-81044955D01*
X94343237Y-81044956D01*
X94197160Y-81105463D01*
X94071718Y-81201718D01*
X93975463Y-81327160D01*
X93914956Y-81473237D01*
X93914955Y-81473239D01*
X93894318Y-81629998D01*
X93894318Y-81630001D01*
X93914955Y-81786760D01*
X93914956Y-81786762D01*
X93967489Y-81913589D01*
X93975464Y-81932841D01*
X94071718Y-82058282D01*
X94197159Y-82154536D01*
X94343238Y-82215044D01*
X94348763Y-82215771D01*
X94412659Y-82244032D01*
X94451134Y-82302354D01*
X94455522Y-82354895D01*
X94444318Y-82439998D01*
X94444318Y-82440001D01*
X94464955Y-82596760D01*
X94464956Y-82596762D01*
X94471909Y-82613547D01*
X94479378Y-82683016D01*
X94448103Y-82745496D01*
X94388014Y-82781148D01*
X94357348Y-82785000D01*
X87259012Y-82785000D01*
X87191973Y-82765315D01*
X87146218Y-82712511D01*
X87136274Y-82643353D01*
X87165299Y-82579797D01*
X87183523Y-82562626D01*
X87228282Y-82528282D01*
X87324536Y-82402841D01*
X87385044Y-82256762D01*
X87405682Y-82100000D01*
X87402199Y-82073547D01*
X87385044Y-81943239D01*
X87385044Y-81943238D01*
X87324536Y-81797159D01*
X87228282Y-81671718D01*
X87228280Y-81671716D01*
X87228279Y-81671715D01*
X87174012Y-81630074D01*
X87132810Y-81573646D01*
X87125500Y-81531699D01*
X87125500Y-78168298D01*
X87145185Y-78101259D01*
X87174010Y-78069925D01*
X87228282Y-78028282D01*
X87324536Y-77902841D01*
X87385044Y-77756762D01*
X87405682Y-77600000D01*
X87385044Y-77443238D01*
X87324536Y-77297159D01*
X87228282Y-77171718D01*
X87102841Y-77075464D01*
X87102167Y-77075185D01*
X86956762Y-77014956D01*
X86956760Y-77014955D01*
X86800001Y-76994318D01*
X86799999Y-76994318D01*
X86643239Y-77014955D01*
X86643237Y-77014956D01*
X86497160Y-77075463D01*
X86371718Y-77171718D01*
X86275463Y-77297160D01*
X86214956Y-77443237D01*
X86214955Y-77443239D01*
X86194318Y-77599998D01*
X86194318Y-77600001D01*
X86214955Y-77756760D01*
X86214956Y-77756762D01*
X86246309Y-77832456D01*
X86275464Y-77902841D01*
X86371718Y-78028282D01*
X86425987Y-78069924D01*
X86467189Y-78126349D01*
X86474500Y-78168298D01*
X86474500Y-81531699D01*
X86454815Y-81598738D01*
X86425988Y-81630074D01*
X86371720Y-81671715D01*
X86275463Y-81797160D01*
X86214956Y-81943237D01*
X86214955Y-81943239D01*
X86194318Y-82099998D01*
X86194318Y-82100001D01*
X86214955Y-82256760D01*
X86214956Y-82256762D01*
X86275464Y-82402841D01*
X86371718Y-82528282D01*
X86416474Y-82562624D01*
X86457677Y-82619052D01*
X86461832Y-82688798D01*
X86427620Y-82749718D01*
X86365903Y-82782471D01*
X86340988Y-82785000D01*
X85634424Y-82785000D01*
X85623617Y-82784528D01*
X85621329Y-82784327D01*
X85585997Y-82781236D01*
X85585996Y-82781236D01*
X85549516Y-82791011D01*
X85538961Y-82793351D01*
X85514783Y-82797615D01*
X85493247Y-82799500D01*
X85106753Y-82799500D01*
X85085214Y-82797615D01*
X85061045Y-82793352D01*
X85050493Y-82791012D01*
X85014003Y-82781235D01*
X84976376Y-82784528D01*
X84965567Y-82785000D01*
X79759119Y-82785000D01*
X79748312Y-82784528D01*
X79746024Y-82784327D01*
X79710692Y-82781236D01*
X79710691Y-82781236D01*
X79674211Y-82791011D01*
X79663656Y-82793352D01*
X79626454Y-82799912D01*
X79621462Y-82801729D01*
X79604617Y-82808706D01*
X79599813Y-82810946D01*
X79568878Y-82832607D01*
X79559761Y-82838416D01*
X79527048Y-82857304D01*
X79527045Y-82857306D01*
X79527043Y-82857307D01*
X79527042Y-82857309D01*
X79502761Y-82886244D01*
X79495456Y-82894215D01*
X77255027Y-85134646D01*
X77193704Y-85168131D01*
X77188879Y-85169081D01*
X77127450Y-85179912D01*
X77120279Y-85182523D01*
X77077873Y-85190000D01*
X75374500Y-85190000D01*
X75307461Y-85170315D01*
X75261706Y-85117511D01*
X75250500Y-85066000D01*
X75250500Y-84330249D01*
X75250499Y-84330247D01*
X75238868Y-84271770D01*
X75238867Y-84271769D01*
X75194552Y-84205447D01*
X75128230Y-84161132D01*
X75128229Y-84161131D01*
X75069752Y-84149500D01*
X75069748Y-84149500D01*
X73330252Y-84149500D01*
X73330247Y-84149500D01*
X73271770Y-84161131D01*
X73271769Y-84161132D01*
X73205447Y-84205447D01*
X73161132Y-84271769D01*
X73161131Y-84271770D01*
X73149500Y-84330247D01*
X73149500Y-86069752D01*
X73161131Y-86128229D01*
X73161132Y-86128230D01*
X73205447Y-86194552D01*
X73271769Y-86238867D01*
X73271770Y-86238868D01*
X73330247Y-86250499D01*
X73330250Y-86250500D01*
X73330252Y-86250500D01*
X75069750Y-86250500D01*
X75069751Y-86250499D01*
X75084568Y-86247552D01*
X75128229Y-86238868D01*
X75128229Y-86238867D01*
X75128231Y-86238867D01*
X75194552Y-86194552D01*
X75238867Y-86128231D01*
X75238867Y-86128229D01*
X75238868Y-86128229D01*
X75250499Y-86069752D01*
X75250500Y-86069750D01*
X75250500Y-85915000D01*
X75270185Y-85847961D01*
X75322989Y-85802206D01*
X75374500Y-85791000D01*
X77077873Y-85791000D01*
X77120279Y-85798477D01*
X77127450Y-85801086D01*
X77127452Y-85801086D01*
X77127455Y-85801088D01*
X77212025Y-85816000D01*
X77339872Y-85816000D01*
X77350680Y-85816471D01*
X77388307Y-85819764D01*
X77424819Y-85809979D01*
X77435330Y-85807649D01*
X77472545Y-85801088D01*
X77472550Y-85801084D01*
X77477599Y-85799247D01*
X77494324Y-85792319D01*
X77499181Y-85790054D01*
X77499184Y-85790054D01*
X77530125Y-85768387D01*
X77539244Y-85762579D01*
X77571955Y-85743694D01*
X77571957Y-85743692D01*
X77596236Y-85714756D01*
X77603536Y-85706788D01*
X79838008Y-83472319D01*
X79899331Y-83438834D01*
X79925689Y-83436000D01*
X84878141Y-83436000D01*
X84899663Y-83437882D01*
X84923853Y-83442147D01*
X84934399Y-83444486D01*
X84952628Y-83449370D01*
X84970888Y-83454263D01*
X85008506Y-83450971D01*
X85019313Y-83450500D01*
X85580677Y-83450500D01*
X85591485Y-83450971D01*
X85629112Y-83454264D01*
X85665624Y-83444479D01*
X85676140Y-83442148D01*
X85700335Y-83437882D01*
X85721859Y-83436000D01*
X90289922Y-83436000D01*
X90356961Y-83455685D01*
X90402716Y-83508489D01*
X90412660Y-83577647D01*
X90404483Y-83607452D01*
X90374957Y-83678734D01*
X90374955Y-83678739D01*
X90354318Y-83835498D01*
X90354318Y-83835501D01*
X90374955Y-83992260D01*
X90374956Y-83992262D01*
X90434847Y-84136853D01*
X90435464Y-84138341D01*
X90531718Y-84263782D01*
X90657159Y-84360036D01*
X90803238Y-84420544D01*
X90871266Y-84429500D01*
X90959999Y-84441182D01*
X90960000Y-84441182D01*
X90960001Y-84441182D01*
X91035593Y-84431230D01*
X91116762Y-84420544D01*
X91262841Y-84360036D01*
X91388282Y-84263782D01*
X91484536Y-84138341D01*
X91545044Y-83992262D01*
X91560421Y-83875463D01*
X91565682Y-83835501D01*
X91565682Y-83835498D01*
X91545044Y-83678739D01*
X91545042Y-83678734D01*
X91515517Y-83607452D01*
X91508048Y-83537983D01*
X91539324Y-83475504D01*
X91599413Y-83439852D01*
X91630078Y-83436000D01*
X91701097Y-83436000D01*
X91768136Y-83455685D01*
X91813891Y-83508489D01*
X91824035Y-83576185D01*
X91816262Y-83635232D01*
X91814318Y-83650000D01*
X91814318Y-83650001D01*
X91834955Y-83806760D01*
X91834956Y-83806762D01*
X91886231Y-83930552D01*
X91895464Y-83952841D01*
X91991718Y-84078282D01*
X92117159Y-84174536D01*
X92263238Y-84235044D01*
X92325478Y-84243238D01*
X92419999Y-84255682D01*
X92420000Y-84255682D01*
X92420001Y-84255682D01*
X92514514Y-84243239D01*
X92576762Y-84235044D01*
X92722841Y-84174536D01*
X92848282Y-84078282D01*
X92944536Y-83952841D01*
X93005044Y-83806762D01*
X93020889Y-83686410D01*
X93025682Y-83650001D01*
X93025682Y-83650000D01*
X93023738Y-83635232D01*
X93015964Y-83576185D01*
X93026729Y-83507150D01*
X93073109Y-83454894D01*
X93138903Y-83436000D01*
X95256639Y-83436000D01*
X95323678Y-83455685D01*
X95369433Y-83508489D01*
X95379377Y-83577647D01*
X95371200Y-83607453D01*
X95314956Y-83743237D01*
X95314955Y-83743239D01*
X95294318Y-83899998D01*
X95294318Y-83900001D01*
X95314955Y-84056760D01*
X95314956Y-84056762D01*
X95363752Y-84174567D01*
X95375464Y-84202841D01*
X95471718Y-84328282D01*
X95597159Y-84424536D01*
X95743238Y-84485044D01*
X95771548Y-84488771D01*
X95899999Y-84505682D01*
X95900000Y-84505682D01*
X95900001Y-84505682D01*
X95935708Y-84500980D01*
X95967818Y-84496753D01*
X96036853Y-84507518D01*
X96071685Y-84532011D01*
X97102493Y-85562819D01*
X97135978Y-85624142D01*
X97130994Y-85693834D01*
X97089122Y-85749767D01*
X97023658Y-85774184D01*
X97014812Y-85774500D01*
X87886189Y-85774500D01*
X87819150Y-85754815D01*
X87798508Y-85738181D01*
X87161819Y-85101492D01*
X87128334Y-85040169D01*
X87125500Y-85013811D01*
X87125500Y-84968298D01*
X87145185Y-84901259D01*
X87174010Y-84869925D01*
X87228282Y-84828282D01*
X87324536Y-84702841D01*
X87385044Y-84556762D01*
X87402977Y-84420544D01*
X87405682Y-84400001D01*
X87405682Y-84399998D01*
X87387749Y-84263782D01*
X87385044Y-84243238D01*
X87324536Y-84097159D01*
X87228282Y-83971718D01*
X87102841Y-83875464D01*
X87032155Y-83846185D01*
X86956762Y-83814956D01*
X86956760Y-83814955D01*
X86800001Y-83794318D01*
X86799999Y-83794318D01*
X86643239Y-83814955D01*
X86643237Y-83814956D01*
X86497160Y-83875463D01*
X86371718Y-83971718D01*
X86275463Y-84097160D01*
X86214956Y-84243237D01*
X86214955Y-84243239D01*
X86194318Y-84399998D01*
X86194318Y-84400001D01*
X86214955Y-84556760D01*
X86214956Y-84556762D01*
X86275464Y-84702841D01*
X86371718Y-84828282D01*
X86425987Y-84869924D01*
X86467189Y-84926349D01*
X86474500Y-84968298D01*
X86474500Y-85180372D01*
X86474028Y-85191181D01*
X86470735Y-85228808D01*
X86480512Y-85265298D01*
X86482852Y-85275852D01*
X86489411Y-85313042D01*
X86491235Y-85318055D01*
X86498197Y-85334861D01*
X86500446Y-85339684D01*
X86522104Y-85370616D01*
X86527914Y-85379734D01*
X86546806Y-85412455D01*
X86575743Y-85436736D01*
X86583718Y-85444044D01*
X87455955Y-86316282D01*
X87463262Y-86324256D01*
X87487541Y-86353190D01*
X87487543Y-86353191D01*
X87487545Y-86353194D01*
X87487547Y-86353195D01*
X87487548Y-86353196D01*
X87520253Y-86372078D01*
X87529376Y-86377890D01*
X87560316Y-86399554D01*
X87560319Y-86399554D01*
X87565176Y-86401820D01*
X87581933Y-86408760D01*
X87586952Y-86410586D01*
X87586955Y-86410588D01*
X87624141Y-86417144D01*
X87634704Y-86419486D01*
X87652933Y-86424370D01*
X87671193Y-86429263D01*
X87708811Y-86425971D01*
X87719618Y-86425500D01*
X106778921Y-86425500D01*
X106845960Y-86445185D01*
X106891715Y-86497989D01*
X106901659Y-86567147D01*
X106872634Y-86630703D01*
X106843711Y-86655227D01*
X106686346Y-86751660D01*
X106686343Y-86751661D01*
X106494776Y-86915276D01*
X106331161Y-87106843D01*
X106331160Y-87106846D01*
X106199533Y-87321640D01*
X106103126Y-87554389D01*
X106044317Y-87799348D01*
X106024551Y-88050500D01*
X106044317Y-88301651D01*
X106103126Y-88546610D01*
X106199533Y-88779359D01*
X106331160Y-88994153D01*
X106331161Y-88994156D01*
X106331164Y-88994159D01*
X106494776Y-89185724D01*
X106603272Y-89278388D01*
X106686343Y-89349338D01*
X106686346Y-89349339D01*
X106901140Y-89480966D01*
X107133889Y-89577373D01*
X107378852Y-89636183D01*
X107567118Y-89651000D01*
X107567126Y-89651000D01*
X107692874Y-89651000D01*
X107692882Y-89651000D01*
X107881148Y-89636183D01*
X108126111Y-89577373D01*
X108358859Y-89480966D01*
X108573659Y-89349336D01*
X108765224Y-89185724D01*
X108928836Y-88994159D01*
X109060466Y-88779359D01*
X109156873Y-88546611D01*
X109215683Y-88301648D01*
X109235449Y-88050500D01*
X109215683Y-87799352D01*
X109156873Y-87554389D01*
X109115121Y-87453590D01*
X109060466Y-87321640D01*
X108928839Y-87106846D01*
X108928838Y-87106843D01*
X108843360Y-87006762D01*
X108765224Y-86915276D01*
X108638571Y-86807104D01*
X108573656Y-86751661D01*
X108573653Y-86751660D01*
X108416289Y-86655227D01*
X108369414Y-86603416D01*
X108357991Y-86534486D01*
X108385648Y-86470323D01*
X108443604Y-86431298D01*
X108481079Y-86425500D01*
X112188812Y-86425500D01*
X112255851Y-86445185D01*
X112276493Y-86461819D01*
X113576161Y-87761487D01*
X113609646Y-87822810D01*
X113604662Y-87892502D01*
X113562790Y-87948435D01*
X113497326Y-87972852D01*
X113487388Y-87973163D01*
X112050000Y-87960500D01*
X112049999Y-87960500D01*
X111131254Y-88861910D01*
X111116297Y-88874435D01*
X109345786Y-90134105D01*
X109279750Y-90156930D01*
X109273939Y-90157068D01*
X77008940Y-90166911D01*
X76941894Y-90147247D01*
X76922086Y-90131449D01*
X74697354Y-87950000D01*
X78194551Y-87950000D01*
X78214317Y-88201151D01*
X78273126Y-88446110D01*
X78369533Y-88678859D01*
X78501160Y-88893653D01*
X78501161Y-88893656D01*
X78501164Y-88893659D01*
X78664776Y-89085224D01*
X78792783Y-89194552D01*
X78856343Y-89248838D01*
X78856346Y-89248839D01*
X79071140Y-89380466D01*
X79247601Y-89453558D01*
X79303889Y-89476873D01*
X79548852Y-89535683D01*
X79737118Y-89550500D01*
X79737126Y-89550500D01*
X79862874Y-89550500D01*
X79862882Y-89550500D01*
X80051148Y-89535683D01*
X80296111Y-89476873D01*
X80528859Y-89380466D01*
X80743659Y-89248836D01*
X80935224Y-89085224D01*
X80948438Y-89069752D01*
X96769500Y-89069752D01*
X96781131Y-89128229D01*
X96781132Y-89128230D01*
X96825447Y-89194552D01*
X96891769Y-89238867D01*
X96891770Y-89238868D01*
X96950247Y-89250499D01*
X96950250Y-89250500D01*
X96950252Y-89250500D01*
X98689750Y-89250500D01*
X98689751Y-89250499D01*
X98704568Y-89247552D01*
X98748229Y-89238868D01*
X98748229Y-89238867D01*
X98748231Y-89238867D01*
X98814552Y-89194552D01*
X98858867Y-89128231D01*
X98858867Y-89128229D01*
X98858868Y-89128229D01*
X98868922Y-89077682D01*
X98870500Y-89069748D01*
X98870500Y-88759456D01*
X98890185Y-88692417D01*
X98942989Y-88646662D01*
X99012147Y-88636718D01*
X99075703Y-88665743D01*
X99106882Y-88707051D01*
X99186400Y-88877578D01*
X99321894Y-89071082D01*
X99488917Y-89238105D01*
X99682421Y-89373600D01*
X99896507Y-89473429D01*
X99896516Y-89473433D01*
X100110000Y-89530634D01*
X100110000Y-88635501D01*
X100217685Y-88684680D01*
X100324237Y-88700000D01*
X100395763Y-88700000D01*
X100502315Y-88684680D01*
X100610000Y-88635501D01*
X100610000Y-89530633D01*
X100823483Y-89473433D01*
X100823492Y-89473429D01*
X101037578Y-89373600D01*
X101231082Y-89238105D01*
X101398105Y-89071082D01*
X101533600Y-88877578D01*
X101633429Y-88663492D01*
X101633433Y-88663483D01*
X101666158Y-88541350D01*
X101702522Y-88481690D01*
X101765369Y-88451160D01*
X101834745Y-88459454D01*
X101888623Y-88503939D01*
X101904593Y-88537447D01*
X101924768Y-88603954D01*
X102022315Y-88786450D01*
X102032643Y-88799035D01*
X102153589Y-88946410D01*
X102250209Y-89025702D01*
X102313550Y-89077685D01*
X102496046Y-89175232D01*
X102694066Y-89235300D01*
X102694065Y-89235300D01*
X102712529Y-89237118D01*
X102900000Y-89255583D01*
X103105934Y-89235300D01*
X103303954Y-89175232D01*
X103486450Y-89077685D01*
X103646410Y-88946410D01*
X103777685Y-88786450D01*
X103875232Y-88603954D01*
X103935300Y-88405934D01*
X103955583Y-88200000D01*
X103935300Y-87994066D01*
X103875232Y-87796046D01*
X103777685Y-87613550D01*
X103691137Y-87508090D01*
X103646410Y-87453589D01*
X103496121Y-87330252D01*
X103486450Y-87322315D01*
X103303954Y-87224768D01*
X103105934Y-87164700D01*
X103105932Y-87164699D01*
X103105934Y-87164699D01*
X102900000Y-87144417D01*
X102694067Y-87164699D01*
X102496043Y-87224769D01*
X102408114Y-87271769D01*
X102313550Y-87322315D01*
X102313548Y-87322316D01*
X102313547Y-87322317D01*
X102153589Y-87453589D01*
X102023612Y-87611969D01*
X102022315Y-87613550D01*
X102004298Y-87647258D01*
X101924767Y-87796046D01*
X101904593Y-87862552D01*
X101866296Y-87920990D01*
X101802483Y-87949447D01*
X101733416Y-87938886D01*
X101681023Y-87892661D01*
X101666158Y-87858649D01*
X101633433Y-87736516D01*
X101633429Y-87736507D01*
X101533600Y-87522422D01*
X101533599Y-87522420D01*
X101398113Y-87328926D01*
X101398108Y-87328920D01*
X101231082Y-87161894D01*
X101037578Y-87026399D01*
X100823492Y-86926570D01*
X100823486Y-86926567D01*
X100610000Y-86869364D01*
X100610000Y-87764498D01*
X100502315Y-87715320D01*
X100395763Y-87700000D01*
X100324237Y-87700000D01*
X100217685Y-87715320D01*
X100110000Y-87764498D01*
X100110000Y-86869364D01*
X100109999Y-86869364D01*
X99896513Y-86926567D01*
X99896507Y-86926570D01*
X99682422Y-87026399D01*
X99682420Y-87026400D01*
X99488926Y-87161886D01*
X99488920Y-87161891D01*
X99321891Y-87328920D01*
X99321886Y-87328926D01*
X99186400Y-87522420D01*
X99186399Y-87522422D01*
X99106882Y-87692948D01*
X99060710Y-87745387D01*
X98993516Y-87764539D01*
X98926635Y-87744323D01*
X98881300Y-87691158D01*
X98870500Y-87640543D01*
X98870500Y-87330249D01*
X98870499Y-87330247D01*
X98858868Y-87271770D01*
X98858867Y-87271769D01*
X98814552Y-87205447D01*
X98748230Y-87161132D01*
X98748229Y-87161131D01*
X98689752Y-87149500D01*
X98689748Y-87149500D01*
X96950252Y-87149500D01*
X96950247Y-87149500D01*
X96891770Y-87161131D01*
X96891769Y-87161132D01*
X96825447Y-87205447D01*
X96781132Y-87271769D01*
X96781131Y-87271770D01*
X96769500Y-87330247D01*
X96769500Y-89069752D01*
X80948438Y-89069752D01*
X81098836Y-88893659D01*
X81230466Y-88678859D01*
X81326873Y-88446111D01*
X81385683Y-88201148D01*
X81405449Y-87950000D01*
X81385683Y-87698852D01*
X81326873Y-87453889D01*
X81286802Y-87357149D01*
X81230466Y-87221140D01*
X81098839Y-87006346D01*
X81098838Y-87006343D01*
X81030705Y-86926570D01*
X80935224Y-86814776D01*
X80808571Y-86706604D01*
X80743656Y-86651161D01*
X80743653Y-86651160D01*
X80528859Y-86519533D01*
X80296110Y-86423126D01*
X80051151Y-86364317D01*
X79862887Y-86349500D01*
X79862882Y-86349500D01*
X79737118Y-86349500D01*
X79737112Y-86349500D01*
X79548848Y-86364317D01*
X79303889Y-86423126D01*
X79071140Y-86519533D01*
X78856346Y-86651160D01*
X78856343Y-86651161D01*
X78664776Y-86814776D01*
X78501161Y-87006343D01*
X78501160Y-87006346D01*
X78369533Y-87221140D01*
X78273126Y-87453889D01*
X78214317Y-87698848D01*
X78194551Y-87950000D01*
X74697354Y-87950000D01*
X74595979Y-87850597D01*
X74583872Y-87836827D01*
X74580372Y-87832197D01*
X74569183Y-87817392D01*
X74540363Y-87794941D01*
X74534351Y-87789682D01*
X74534298Y-87789744D01*
X74531221Y-87787099D01*
X74531217Y-87787095D01*
X74525000Y-87782420D01*
X74505482Y-87767746D01*
X74503797Y-87766457D01*
X74447975Y-87722972D01*
X74444725Y-87721064D01*
X74444475Y-87720897D01*
X74442803Y-87719935D01*
X74442541Y-87719806D01*
X74439252Y-87717950D01*
X74394683Y-87700000D01*
X74373592Y-87691505D01*
X74371642Y-87690700D01*
X74306470Y-87663146D01*
X74302817Y-87662138D01*
X74302528Y-87662040D01*
X74300691Y-87661551D01*
X74300387Y-87661491D01*
X74296734Y-87660550D01*
X74226504Y-87652005D01*
X74224402Y-87651731D01*
X74192507Y-87647295D01*
X74188455Y-87647000D01*
X74188460Y-87646919D01*
X74180474Y-87646405D01*
X74144221Y-87641994D01*
X74144220Y-87641994D01*
X74144219Y-87641994D01*
X74138230Y-87642842D01*
X74120100Y-87645410D01*
X74101807Y-87646632D01*
X72116911Y-87632143D01*
X72050017Y-87611969D01*
X72004649Y-87558833D01*
X71993816Y-87508092D01*
X71996050Y-82555681D01*
X72015765Y-82488651D01*
X72068589Y-82442920D01*
X72137752Y-82433008D01*
X72201295Y-82462062D01*
X72207731Y-82468057D01*
X72906450Y-83166776D01*
X72913757Y-83174750D01*
X72938041Y-83203690D01*
X72938043Y-83203691D01*
X72938045Y-83203694D01*
X72938047Y-83203695D01*
X72938048Y-83203696D01*
X72970756Y-83222580D01*
X72979879Y-83228392D01*
X73010816Y-83250054D01*
X73010819Y-83250054D01*
X73015676Y-83252320D01*
X73032433Y-83259260D01*
X73037449Y-83261085D01*
X73037450Y-83261085D01*
X73037455Y-83261088D01*
X73074673Y-83267650D01*
X73085175Y-83269978D01*
X73121693Y-83279764D01*
X73159319Y-83276471D01*
X73170128Y-83276000D01*
X73287918Y-83276000D01*
X73354957Y-83295685D01*
X73383772Y-83321336D01*
X73453589Y-83406410D01*
X73533901Y-83472319D01*
X73613550Y-83537685D01*
X73796046Y-83635232D01*
X73994066Y-83695300D01*
X73994065Y-83695300D01*
X74012529Y-83697118D01*
X74200000Y-83715583D01*
X74405934Y-83695300D01*
X74603954Y-83635232D01*
X74786450Y-83537685D01*
X74946410Y-83406410D01*
X75077685Y-83246450D01*
X75175232Y-83063954D01*
X75235300Y-82865934D01*
X75255583Y-82660000D01*
X75235300Y-82454066D01*
X75175232Y-82256046D01*
X75077685Y-82073550D01*
X75017325Y-82000001D01*
X74946410Y-81913589D01*
X74804539Y-81797160D01*
X74786450Y-81782315D01*
X74603954Y-81684768D01*
X74405934Y-81624700D01*
X74405932Y-81624699D01*
X74405934Y-81624699D01*
X74200000Y-81604417D01*
X73994067Y-81624699D01*
X73796043Y-81684769D01*
X73699102Y-81736586D01*
X73613550Y-81782315D01*
X73613548Y-81782316D01*
X73613547Y-81782317D01*
X73453589Y-81913589D01*
X73322317Y-82073547D01*
X73224768Y-82256045D01*
X73213044Y-82294693D01*
X73174746Y-82353131D01*
X73110933Y-82381587D01*
X73041866Y-82371025D01*
X73006703Y-82346377D01*
X72484593Y-81824267D01*
X72451108Y-81762944D01*
X72448274Y-81736586D01*
X72448274Y-78007962D01*
X72467959Y-77940923D01*
X72520763Y-77895168D01*
X72589921Y-77885224D01*
X72653477Y-77914249D01*
X72659955Y-77920281D01*
X72826450Y-78086776D01*
X72833757Y-78094750D01*
X72858041Y-78123690D01*
X72858043Y-78123691D01*
X72858045Y-78123694D01*
X72858047Y-78123695D01*
X72858048Y-78123696D01*
X72890756Y-78142580D01*
X72899879Y-78148392D01*
X72902890Y-78150500D01*
X72930816Y-78170054D01*
X72930819Y-78170054D01*
X72935676Y-78172320D01*
X72952433Y-78179260D01*
X72957449Y-78181085D01*
X72957450Y-78181085D01*
X72957455Y-78181088D01*
X72994673Y-78187650D01*
X73005175Y-78189978D01*
X73041693Y-78199764D01*
X73079319Y-78196471D01*
X73090128Y-78196000D01*
X73287918Y-78196000D01*
X73354957Y-78215685D01*
X73383772Y-78241336D01*
X73453589Y-78326410D01*
X73516192Y-78377786D01*
X73613550Y-78457685D01*
X73796046Y-78555232D01*
X73994066Y-78615300D01*
X73994065Y-78615300D01*
X74012529Y-78617118D01*
X74200000Y-78635583D01*
X74405934Y-78615300D01*
X74603954Y-78555232D01*
X74786450Y-78457685D01*
X74946410Y-78326410D01*
X75077685Y-78166450D01*
X75175232Y-77983954D01*
X75235300Y-77785934D01*
X75255583Y-77580000D01*
X75235300Y-77374066D01*
X75175232Y-77176046D01*
X75077685Y-76993550D01*
X75010341Y-76911491D01*
X74946410Y-76833589D01*
X74799761Y-76713239D01*
X74786450Y-76702315D01*
X74603954Y-76604768D01*
X74405934Y-76544700D01*
X74405932Y-76544699D01*
X74405934Y-76544699D01*
X74200000Y-76524417D01*
X73994067Y-76544699D01*
X73796043Y-76604769D01*
X73705366Y-76653238D01*
X73613550Y-76702315D01*
X73613548Y-76702316D01*
X73613547Y-76702317D01*
X73453589Y-76833589D01*
X73329338Y-76984992D01*
X73322315Y-76993550D01*
X73289226Y-77055455D01*
X73224769Y-77176043D01*
X73224768Y-77176045D01*
X73224768Y-77176046D01*
X73205890Y-77238281D01*
X73194426Y-77276072D01*
X73156128Y-77334511D01*
X73092316Y-77362967D01*
X73023249Y-77352407D01*
X72988084Y-77327758D01*
X72598819Y-76938493D01*
X72565334Y-76877170D01*
X72562500Y-76850812D01*
X72562500Y-75522188D01*
X72582185Y-75455149D01*
X72634989Y-75409394D01*
X72704147Y-75399450D01*
X72767703Y-75428475D01*
X72774181Y-75434507D01*
X72886450Y-75546776D01*
X72893757Y-75554750D01*
X72918041Y-75583690D01*
X72918043Y-75583691D01*
X72918045Y-75583694D01*
X72918047Y-75583695D01*
X72918048Y-75583696D01*
X72950756Y-75602580D01*
X72959879Y-75608392D01*
X72984376Y-75625545D01*
X72990816Y-75630054D01*
X72990819Y-75630054D01*
X72995676Y-75632320D01*
X73012433Y-75639260D01*
X73017449Y-75641085D01*
X73017450Y-75641085D01*
X73017455Y-75641088D01*
X73054673Y-75647650D01*
X73065175Y-75649978D01*
X73101693Y-75659764D01*
X73139319Y-75656471D01*
X73150128Y-75656000D01*
X73287918Y-75656000D01*
X73354957Y-75675685D01*
X73383772Y-75701336D01*
X73453589Y-75786410D01*
X73510109Y-75832794D01*
X73613550Y-75917685D01*
X73796046Y-76015232D01*
X73994066Y-76075300D01*
X73994065Y-76075300D01*
X74012529Y-76077118D01*
X74200000Y-76095583D01*
X74405934Y-76075300D01*
X74603954Y-76015232D01*
X74786450Y-75917685D01*
X74946410Y-75786410D01*
X75077685Y-75626450D01*
X75175232Y-75443954D01*
X75235300Y-75245934D01*
X75255583Y-75040000D01*
X75235300Y-74834066D01*
X75175232Y-74636046D01*
X75077685Y-74453550D01*
X75021003Y-74384482D01*
X74946410Y-74293589D01*
X74786452Y-74162317D01*
X74786453Y-74162317D01*
X74786450Y-74162315D01*
X74603954Y-74064768D01*
X74405934Y-74004700D01*
X74405932Y-74004699D01*
X74405934Y-74004699D01*
X74200000Y-73984417D01*
X73994067Y-74004699D01*
X73796043Y-74064769D01*
X73685898Y-74123643D01*
X73613550Y-74162315D01*
X73613548Y-74162316D01*
X73613547Y-74162317D01*
X73453589Y-74293589D01*
X73322317Y-74453547D01*
X73322315Y-74453550D01*
X73307784Y-74480736D01*
X73253858Y-74581623D01*
X73204895Y-74631467D01*
X73136757Y-74646927D01*
X73071078Y-74623095D01*
X73028709Y-74567537D01*
X73020500Y-74523169D01*
X73020500Y-73016830D01*
X73040185Y-72949791D01*
X73092989Y-72904036D01*
X73162147Y-72894092D01*
X73225703Y-72923117D01*
X73253856Y-72958373D01*
X73322315Y-73086450D01*
X73340734Y-73108894D01*
X73453589Y-73246410D01*
X73486554Y-73273463D01*
X73613550Y-73377685D01*
X73796046Y-73475232D01*
X73994066Y-73535300D01*
X73994065Y-73535300D01*
X74012529Y-73537118D01*
X74200000Y-73555583D01*
X74405934Y-73535300D01*
X74603954Y-73475232D01*
X74786450Y-73377685D01*
X74946410Y-73246410D01*
X75077685Y-73086450D01*
X75175232Y-72903954D01*
X75235300Y-72705934D01*
X75255583Y-72500000D01*
X75235300Y-72294066D01*
X75175232Y-72096046D01*
X75077685Y-71913550D01*
X75010651Y-71831868D01*
X74946410Y-71753589D01*
X74828677Y-71656969D01*
X74786450Y-71622315D01*
X74603954Y-71524768D01*
X74405934Y-71464700D01*
X74405932Y-71464699D01*
X74405934Y-71464699D01*
X74200000Y-71444417D01*
X73994067Y-71464699D01*
X73796041Y-71524769D01*
X73668953Y-71592700D01*
X73600550Y-71606942D01*
X73535307Y-71581942D01*
X73493936Y-71525637D01*
X73486500Y-71483342D01*
X73486500Y-68341959D01*
X73506185Y-68274920D01*
X73558989Y-68229165D01*
X73628147Y-68219221D01*
X73689164Y-68246105D01*
X73813550Y-68348185D01*
X73996046Y-68445732D01*
X74194066Y-68505800D01*
X74194065Y-68505800D01*
X74212529Y-68507618D01*
X74400000Y-68526083D01*
X74605934Y-68505800D01*
X74803954Y-68445732D01*
X74986450Y-68348185D01*
X75146410Y-68216910D01*
X75277685Y-68056950D01*
X75375232Y-67874454D01*
X75435300Y-67676434D01*
X75455583Y-67470500D01*
X75435300Y-67264566D01*
X75375232Y-67066546D01*
X75277685Y-66884050D01*
X75192966Y-66780819D01*
X75146410Y-66724089D01*
X74986452Y-66592817D01*
X74986453Y-66592817D01*
X74986450Y-66592815D01*
X74803954Y-66495268D01*
X74737447Y-66475093D01*
X74679009Y-66436796D01*
X74650553Y-66372984D01*
X74661113Y-66303917D01*
X74707337Y-66251523D01*
X74741350Y-66236658D01*
X74863483Y-66203933D01*
X74863492Y-66203929D01*
X75077578Y-66104100D01*
X75271082Y-65968605D01*
X75438105Y-65801582D01*
X75573600Y-65608078D01*
X75673429Y-65393992D01*
X75673432Y-65393986D01*
X75730636Y-65180500D01*
X74833686Y-65180500D01*
X74859493Y-65140344D01*
X74900000Y-65002389D01*
X74900000Y-64858611D01*
X74859493Y-64720656D01*
X74833686Y-64680500D01*
X75730636Y-64680500D01*
X75730635Y-64680499D01*
X75673432Y-64467013D01*
X75673429Y-64467007D01*
X75573600Y-64252922D01*
X75573599Y-64252920D01*
X75438113Y-64059426D01*
X75438108Y-64059420D01*
X75271082Y-63892394D01*
X75084968Y-63762075D01*
X75041344Y-63707498D01*
X75034151Y-63637999D01*
X75065673Y-63575645D01*
X75084968Y-63558925D01*
X75271082Y-63428605D01*
X75438105Y-63261582D01*
X75573600Y-63068078D01*
X75673429Y-62853992D01*
X75673432Y-62853986D01*
X75730636Y-62640500D01*
X74833686Y-62640500D01*
X74859493Y-62600344D01*
X74900000Y-62462389D01*
X74900000Y-62318611D01*
X74859493Y-62180656D01*
X74833686Y-62140500D01*
X75730636Y-62140500D01*
X75730635Y-62140499D01*
X75673432Y-61927013D01*
X75673429Y-61927007D01*
X75573600Y-61712922D01*
X75573599Y-61712920D01*
X75438113Y-61519426D01*
X75438108Y-61519420D01*
X75271082Y-61352394D01*
X75077578Y-61216899D01*
X74863492Y-61117070D01*
X74863486Y-61117067D01*
X74741349Y-61084341D01*
X74681689Y-61047976D01*
X74651160Y-60985129D01*
X74659455Y-60915753D01*
X74703940Y-60861875D01*
X74737444Y-60845907D01*
X74803954Y-60825732D01*
X74986450Y-60728185D01*
X75146410Y-60596910D01*
X75277685Y-60436950D01*
X75375232Y-60254454D01*
X75435300Y-60056434D01*
X75455583Y-59850500D01*
X75435300Y-59644566D01*
X75375232Y-59446546D01*
X75277685Y-59264050D01*
X75225702Y-59200709D01*
X75146410Y-59104089D01*
X74986452Y-58972817D01*
X74986453Y-58972817D01*
X74986450Y-58972815D01*
X74803954Y-58875268D01*
X74605934Y-58815200D01*
X74605932Y-58815199D01*
X74605934Y-58815199D01*
X74400000Y-58794917D01*
X74194067Y-58815199D01*
X73996043Y-58875269D01*
X73813546Y-58972817D01*
X73689164Y-59074894D01*
X73624854Y-59102206D01*
X73555986Y-59090414D01*
X73504427Y-59043262D01*
X73486500Y-58979040D01*
X73486500Y-58181959D01*
X73506185Y-58114920D01*
X73558989Y-58069165D01*
X73628147Y-58059221D01*
X73689164Y-58086105D01*
X73813550Y-58188185D01*
X73996046Y-58285732D01*
X74194066Y-58345800D01*
X74194065Y-58345800D01*
X74212529Y-58347618D01*
X74400000Y-58366083D01*
X74605934Y-58345800D01*
X74803954Y-58285732D01*
X74986450Y-58188185D01*
X75146410Y-58056910D01*
X75277685Y-57896950D01*
X75375232Y-57714454D01*
X75435300Y-57516434D01*
X75455583Y-57310500D01*
X75435300Y-57104566D01*
X75375232Y-56906546D01*
X75277685Y-56724050D01*
X75200872Y-56630452D01*
X75146410Y-56564089D01*
X74986452Y-56432817D01*
X74986453Y-56432817D01*
X74986450Y-56432815D01*
X74803954Y-56335268D01*
X74605934Y-56275200D01*
X74605932Y-56275199D01*
X74605934Y-56275199D01*
X74400000Y-56254917D01*
X74194067Y-56275199D01*
X73996043Y-56335269D01*
X73813546Y-56432817D01*
X73689164Y-56534894D01*
X73624854Y-56562206D01*
X73555986Y-56550414D01*
X73504427Y-56503262D01*
X73486500Y-56439040D01*
X73486500Y-55641959D01*
X73506185Y-55574920D01*
X73558989Y-55529165D01*
X73628147Y-55519221D01*
X73689164Y-55546105D01*
X73718506Y-55570185D01*
X73813550Y-55648185D01*
X73996046Y-55745732D01*
X74194066Y-55805800D01*
X74194065Y-55805800D01*
X74212529Y-55807618D01*
X74400000Y-55826083D01*
X74605934Y-55805800D01*
X74803954Y-55745732D01*
X74986450Y-55648185D01*
X75146410Y-55516910D01*
X75277685Y-55356950D01*
X75375232Y-55174454D01*
X75435300Y-54976434D01*
X75455583Y-54770500D01*
X75435300Y-54564566D01*
X75375232Y-54366546D01*
X75277685Y-54184050D01*
X75219988Y-54113746D01*
X75146410Y-54024089D01*
X75023785Y-53923455D01*
X74986450Y-53892815D01*
X74803954Y-53795268D01*
X74737447Y-53775093D01*
X74679009Y-53736796D01*
X74650553Y-53672984D01*
X74661113Y-53603917D01*
X74707337Y-53551523D01*
X74741350Y-53536658D01*
X74863483Y-53503933D01*
X74863492Y-53503929D01*
X75077578Y-53404100D01*
X75271082Y-53268605D01*
X75438105Y-53101582D01*
X75573600Y-52908078D01*
X75673429Y-52693992D01*
X75673432Y-52693986D01*
X75730636Y-52480500D01*
X74833686Y-52480500D01*
X74859493Y-52440344D01*
X74900000Y-52302389D01*
X74900000Y-52158611D01*
X74859493Y-52020656D01*
X74833686Y-51980500D01*
X75730636Y-51980500D01*
X75730635Y-51980499D01*
X75673432Y-51767013D01*
X75673429Y-51767007D01*
X75573600Y-51552922D01*
X75573599Y-51552920D01*
X75438113Y-51359426D01*
X75438108Y-51359420D01*
X75271082Y-51192394D01*
X75077578Y-51056899D01*
X74907052Y-50977382D01*
X74854613Y-50931210D01*
X74835461Y-50864016D01*
X74855677Y-50797135D01*
X74908842Y-50751800D01*
X74959457Y-50741000D01*
X75269750Y-50741000D01*
X75269751Y-50740999D01*
X75284568Y-50738052D01*
X75328229Y-50729368D01*
X75328229Y-50729367D01*
X75328231Y-50729367D01*
X75394552Y-50685052D01*
X75438867Y-50618731D01*
X75438867Y-50618729D01*
X75438868Y-50618729D01*
X75450499Y-50560252D01*
X75450500Y-50560250D01*
X75450500Y-48820749D01*
X75450499Y-48820747D01*
X75438868Y-48762270D01*
X75438867Y-48762269D01*
X75394552Y-48695947D01*
X75328230Y-48651632D01*
X75328229Y-48651631D01*
X75269752Y-48640000D01*
X75269748Y-48640000D01*
X73610500Y-48640000D01*
X73543461Y-48620315D01*
X73497706Y-48567511D01*
X73486500Y-48516000D01*
X73486500Y-41152597D01*
X73506185Y-41085558D01*
X73522819Y-41064916D01*
X73827256Y-40760501D01*
X75094318Y-40760501D01*
X75114955Y-40917260D01*
X75114956Y-40917262D01*
X75162764Y-41032682D01*
X75175464Y-41063341D01*
X75271718Y-41188782D01*
X75397159Y-41285036D01*
X75543238Y-41345544D01*
X75621619Y-41355863D01*
X75699999Y-41366182D01*
X75700000Y-41366182D01*
X75700001Y-41366182D01*
X75752254Y-41359302D01*
X75856762Y-41345544D01*
X76002841Y-41285036D01*
X76128282Y-41188782D01*
X76169923Y-41134513D01*
X76226351Y-41093311D01*
X76268299Y-41086000D01*
X77529012Y-41086000D01*
X77596051Y-41105685D01*
X77616693Y-41122319D01*
X79344181Y-42849807D01*
X79377666Y-42911130D01*
X79380500Y-42937488D01*
X79380500Y-43728199D01*
X79360815Y-43795238D01*
X79331988Y-43826574D01*
X79277720Y-43868215D01*
X79181463Y-43993660D01*
X79120956Y-44139737D01*
X79120955Y-44139739D01*
X79100318Y-44296498D01*
X79100318Y-44296501D01*
X79120955Y-44453260D01*
X79120956Y-44453262D01*
X79162574Y-44553738D01*
X79181464Y-44599341D01*
X79277718Y-44724782D01*
X79403159Y-44821036D01*
X79549238Y-44881544D01*
X79627619Y-44891863D01*
X79705999Y-44902182D01*
X79706000Y-44902182D01*
X79706001Y-44902182D01*
X79758254Y-44895302D01*
X79862762Y-44881544D01*
X80008841Y-44821036D01*
X80134282Y-44724782D01*
X80230536Y-44599341D01*
X80291044Y-44453262D01*
X80307916Y-44325104D01*
X80311682Y-44296501D01*
X80311682Y-44296498D01*
X80291044Y-44139739D01*
X80291044Y-44139738D01*
X80230536Y-43993659D01*
X80134282Y-43868218D01*
X80134280Y-43868216D01*
X80134279Y-43868215D01*
X80080012Y-43826574D01*
X80038810Y-43770146D01*
X80031500Y-43728199D01*
X80031500Y-42770915D01*
X80031972Y-42760106D01*
X80033620Y-42741269D01*
X80035263Y-42722493D01*
X80035262Y-42722492D01*
X80035263Y-42722491D01*
X80025486Y-42686004D01*
X80023144Y-42675439D01*
X80016588Y-42638255D01*
X80016586Y-42638252D01*
X80014760Y-42633233D01*
X80007820Y-42616476D01*
X80005554Y-42611619D01*
X80005554Y-42611616D01*
X79983890Y-42580676D01*
X79978078Y-42571553D01*
X79972562Y-42562000D01*
X79959194Y-42538845D01*
X79954261Y-42534706D01*
X79930262Y-42514568D01*
X79922286Y-42507259D01*
X77959244Y-40544218D01*
X77951934Y-40536241D01*
X77927656Y-40507307D01*
X77927655Y-40507306D01*
X77894934Y-40488414D01*
X77885816Y-40482604D01*
X77854884Y-40460946D01*
X77850061Y-40458697D01*
X77833255Y-40451735D01*
X77828242Y-40449911D01*
X77791052Y-40443352D01*
X77780498Y-40441012D01*
X77744008Y-40431235D01*
X77706381Y-40434528D01*
X77695572Y-40435000D01*
X76268299Y-40435000D01*
X76201260Y-40415315D01*
X76169923Y-40386486D01*
X76128283Y-40332219D01*
X76128282Y-40332218D01*
X76002841Y-40235964D01*
X75940158Y-40210000D01*
X75856762Y-40175456D01*
X75856760Y-40175455D01*
X75700001Y-40154818D01*
X75699999Y-40154818D01*
X75543239Y-40175455D01*
X75543237Y-40175456D01*
X75397160Y-40235963D01*
X75271718Y-40332218D01*
X75175463Y-40457660D01*
X75114956Y-40603737D01*
X75114955Y-40603739D01*
X75094318Y-40760498D01*
X75094318Y-40760501D01*
X73827256Y-40760501D01*
X77479501Y-37108515D01*
X77540825Y-37075033D01*
X77567179Y-37072200D01*
X94599815Y-37072200D01*
X94666854Y-37091885D01*
G37*
%TD.AperFunction*%
%TA.AperFunction,Conductor*%
G36*
X90520947Y-54294979D02*
G01*
X90526583Y-54296489D01*
X90549933Y-54306160D01*
X90554952Y-54307986D01*
X90554955Y-54307988D01*
X90592141Y-54314544D01*
X90602704Y-54316886D01*
X90620933Y-54321770D01*
X90639193Y-54326663D01*
X90676811Y-54323371D01*
X90687618Y-54322900D01*
X91031905Y-54322900D01*
X91098944Y-54342585D01*
X91119553Y-54359186D01*
X91281150Y-54520669D01*
X91314657Y-54581979D01*
X91317500Y-54608380D01*
X91317500Y-54677772D01*
X91317028Y-54688581D01*
X91313735Y-54726208D01*
X91323512Y-54762698D01*
X91325852Y-54773252D01*
X91332411Y-54810442D01*
X91334235Y-54815455D01*
X91341197Y-54832261D01*
X91343446Y-54837084D01*
X91365104Y-54868016D01*
X91370914Y-54877134D01*
X91389806Y-54909855D01*
X91412992Y-54929310D01*
X91418743Y-54934136D01*
X91426718Y-54941444D01*
X103266093Y-66780819D01*
X103299578Y-66842142D01*
X103294594Y-66911834D01*
X103252722Y-66967767D01*
X103187258Y-66992184D01*
X103178412Y-66992500D01*
X102094189Y-66992500D01*
X102027150Y-66972815D01*
X102006508Y-66956181D01*
X90121819Y-55071492D01*
X90088334Y-55010169D01*
X90085500Y-54983811D01*
X90085500Y-54928798D01*
X90105185Y-54861759D01*
X90134010Y-54830425D01*
X90188282Y-54788782D01*
X90284536Y-54663341D01*
X90345044Y-54517262D01*
X90360897Y-54396844D01*
X90389163Y-54332948D01*
X90447488Y-54294477D01*
X90517353Y-54293646D01*
X90520947Y-54294979D01*
G37*
%TD.AperFunction*%
%TA.AperFunction,Conductor*%
G36*
X74650000Y-64494998D02*
G01*
X74542315Y-64445820D01*
X74435763Y-64430500D01*
X74364237Y-64430500D01*
X74257685Y-64445820D01*
X74150000Y-64494998D01*
X74150000Y-62826001D01*
X74257685Y-62875180D01*
X74364237Y-62890500D01*
X74435763Y-62890500D01*
X74542315Y-62875180D01*
X74650000Y-62826001D01*
X74650000Y-64494998D01*
G37*
%TD.AperFunction*%
%TA.AperFunction,Conductor*%
G36*
X115260499Y-53904985D02*
G01*
X115268930Y-53910912D01*
X115393159Y-54006236D01*
X115539238Y-54066744D01*
X115603407Y-54075192D01*
X115695999Y-54087382D01*
X115696000Y-54087382D01*
X115696001Y-54087382D01*
X115764818Y-54078322D01*
X115852762Y-54066744D01*
X115924049Y-54037215D01*
X115993516Y-54029747D01*
X116055995Y-54061022D01*
X116091648Y-54121110D01*
X116095500Y-54151777D01*
X116095500Y-55778826D01*
X116075815Y-55845865D01*
X116059186Y-55866502D01*
X113028650Y-58897377D01*
X112967329Y-58930866D01*
X112924781Y-58932640D01*
X112857004Y-58923718D01*
X112856999Y-58923718D01*
X112700239Y-58944355D01*
X112700237Y-58944356D01*
X112554160Y-59004863D01*
X112428718Y-59101118D01*
X112332463Y-59226560D01*
X112271956Y-59372637D01*
X112271955Y-59372639D01*
X112251318Y-59529398D01*
X112251318Y-59529401D01*
X112271955Y-59686160D01*
X112271956Y-59686162D01*
X112301525Y-59757547D01*
X112308994Y-59827017D01*
X112277719Y-59889496D01*
X112217630Y-59925148D01*
X112186964Y-59929000D01*
X108650188Y-59929000D01*
X108583149Y-59909315D01*
X108562507Y-59892681D01*
X108010076Y-59340250D01*
X107976591Y-59278927D01*
X107981575Y-59209235D01*
X108023447Y-59153302D01*
X108050302Y-59138009D01*
X108152841Y-59095536D01*
X108278282Y-58999282D01*
X108374536Y-58873841D01*
X108435044Y-58727762D01*
X108455682Y-58571000D01*
X108435044Y-58414238D01*
X108374536Y-58268159D01*
X108278282Y-58142718D01*
X108152841Y-58046464D01*
X108067083Y-58010942D01*
X108006762Y-57985956D01*
X108006760Y-57985955D01*
X107850001Y-57965318D01*
X107849999Y-57965318D01*
X107693239Y-57985955D01*
X107693237Y-57985956D01*
X107547156Y-58046465D01*
X107528600Y-58060703D01*
X107463430Y-58085895D01*
X107394986Y-58071855D01*
X107365435Y-58050005D01*
X107301387Y-57985956D01*
X106866125Y-57550686D01*
X106832642Y-57489364D01*
X106837627Y-57419672D01*
X106879498Y-57363739D01*
X106906356Y-57348446D01*
X106932888Y-57337456D01*
X106977841Y-57318836D01*
X107103282Y-57222582D01*
X107199536Y-57097141D01*
X107260044Y-56951062D01*
X107280682Y-56794300D01*
X107271433Y-56724050D01*
X107260044Y-56637539D01*
X107260044Y-56637538D01*
X107199536Y-56491459D01*
X107103282Y-56366018D01*
X106977841Y-56269764D01*
X106941997Y-56254917D01*
X106831762Y-56209256D01*
X106831760Y-56209255D01*
X106675001Y-56188618D01*
X106674999Y-56188618D01*
X106518239Y-56209255D01*
X106518234Y-56209257D01*
X106429364Y-56246068D01*
X106359895Y-56253537D01*
X106297416Y-56222261D01*
X106294229Y-56219186D01*
X104391123Y-54315985D01*
X104357640Y-54254662D01*
X104362626Y-54184971D01*
X104404499Y-54129038D01*
X104431351Y-54113747D01*
X104502841Y-54084136D01*
X104628282Y-53987882D01*
X104664246Y-53941013D01*
X104669771Y-53933813D01*
X104726199Y-53892611D01*
X104768146Y-53885300D01*
X115193460Y-53885300D01*
X115260499Y-53904985D01*
G37*
%TD.AperFunction*%
%TA.AperFunction,Conductor*%
G36*
X95784703Y-54069174D02*
G01*
X95791157Y-54075183D01*
X96030595Y-54314544D01*
X96401970Y-54685802D01*
X96409293Y-54693792D01*
X96433543Y-54722692D01*
X96433545Y-54722694D01*
X96466282Y-54741595D01*
X96475388Y-54747395D01*
X96506359Y-54769073D01*
X96506361Y-54769073D01*
X96506364Y-54769076D01*
X96506367Y-54769076D01*
X96511317Y-54771384D01*
X96527829Y-54778221D01*
X96532951Y-54780086D01*
X96532955Y-54780088D01*
X96570192Y-54786653D01*
X96580723Y-54788987D01*
X96614093Y-54797923D01*
X96669695Y-54830021D01*
X98123239Y-56283565D01*
X98156724Y-56344888D01*
X98151740Y-56414580D01*
X98111044Y-56469621D01*
X97988062Y-56563989D01*
X97970444Y-56586950D01*
X97946421Y-56618257D01*
X97889993Y-56659460D01*
X97848045Y-56666771D01*
X97372459Y-56666771D01*
X97305420Y-56647086D01*
X97284778Y-56630452D01*
X95615819Y-54961493D01*
X95582334Y-54900170D01*
X95579500Y-54873812D01*
X95579500Y-54162887D01*
X95599185Y-54095848D01*
X95651989Y-54050093D01*
X95721147Y-54040149D01*
X95784703Y-54069174D01*
G37*
%TD.AperFunction*%
%TA.AperFunction,Conductor*%
G36*
X90948672Y-52049658D02*
G01*
X90978738Y-52092961D01*
X90995464Y-52133341D01*
X91091718Y-52258782D01*
X91217159Y-52355036D01*
X91363238Y-52415544D01*
X91419409Y-52422939D01*
X91519999Y-52436182D01*
X91520000Y-52436182D01*
X91520001Y-52436182D01*
X91572254Y-52429302D01*
X91676762Y-52415544D01*
X91822841Y-52355036D01*
X91908838Y-52289047D01*
X91974002Y-52263855D01*
X92042447Y-52277893D01*
X92082697Y-52311939D01*
X92088069Y-52318941D01*
X92089773Y-52321161D01*
X92215214Y-52417415D01*
X92361293Y-52477923D01*
X92386671Y-52481264D01*
X92518054Y-52498561D01*
X92518055Y-52498561D01*
X92518056Y-52498561D01*
X92579999Y-52490406D01*
X92674817Y-52477923D01*
X92820896Y-52417415D01*
X92822834Y-52415927D01*
X92824764Y-52415181D01*
X92827931Y-52413353D01*
X92828216Y-52413846D01*
X92887998Y-52390731D01*
X92956444Y-52404764D01*
X92996699Y-52438813D01*
X93029272Y-52481263D01*
X93049472Y-52507589D01*
X93080774Y-52548382D01*
X93135043Y-52590024D01*
X93176245Y-52646449D01*
X93183556Y-52688398D01*
X93183556Y-54165357D01*
X93163871Y-54232396D01*
X93111067Y-54278151D01*
X93041909Y-54288095D01*
X92978353Y-54259070D01*
X92971877Y-54253040D01*
X92904821Y-54185987D01*
X92871334Y-54124665D01*
X92868500Y-54098304D01*
X92868500Y-54068714D01*
X92868971Y-54057913D01*
X92869929Y-54046952D01*
X92872262Y-54020276D01*
X92862485Y-53983795D01*
X92860142Y-53973227D01*
X92857066Y-53955782D01*
X92853588Y-53936055D01*
X92853587Y-53936053D01*
X92851772Y-53931065D01*
X92844797Y-53914226D01*
X92842548Y-53909406D01*
X92842547Y-53909401D01*
X92820892Y-53878479D01*
X92815077Y-53869352D01*
X92811752Y-53863593D01*
X92796194Y-53836645D01*
X92796191Y-53836642D01*
X92781390Y-53824223D01*
X92767244Y-53812352D01*
X92759287Y-53805062D01*
X91835029Y-52880902D01*
X91827720Y-52872924D01*
X91803458Y-52844008D01*
X91803455Y-52844006D01*
X91787336Y-52834700D01*
X91770728Y-52825111D01*
X91761615Y-52819306D01*
X91730668Y-52797638D01*
X91725825Y-52795380D01*
X91709080Y-52788445D01*
X91704045Y-52786612D01*
X91666843Y-52780052D01*
X91656292Y-52777713D01*
X91619791Y-52767935D01*
X91619789Y-52767935D01*
X91582171Y-52771228D01*
X91571358Y-52771700D01*
X91306188Y-52771700D01*
X91239149Y-52752015D01*
X91218507Y-52735381D01*
X90926031Y-52442905D01*
X90922919Y-52437207D01*
X90922151Y-52436931D01*
X90907594Y-52424468D01*
X90730340Y-52247214D01*
X90696855Y-52185891D01*
X90701839Y-52116199D01*
X90743711Y-52060266D01*
X90770561Y-52044975D01*
X90816727Y-52025852D01*
X90886192Y-52018384D01*
X90948672Y-52049658D01*
G37*
%TD.AperFunction*%
%TA.AperFunction,Conductor*%
G36*
X112685208Y-49391185D02*
G01*
X112730963Y-49443989D01*
X112740907Y-49513147D01*
X112728159Y-49549979D01*
X112728574Y-49550151D01*
X112725688Y-49557116D01*
X112725555Y-49557503D01*
X112725461Y-49557664D01*
X112664956Y-49703737D01*
X112664955Y-49703739D01*
X112644318Y-49860498D01*
X112644318Y-49860501D01*
X112664955Y-50017260D01*
X112664956Y-50017262D01*
X112712808Y-50132788D01*
X112725464Y-50163341D01*
X112821718Y-50288782D01*
X112947159Y-50385036D01*
X113093238Y-50445544D01*
X113117112Y-50448687D01*
X113249999Y-50466182D01*
X113250000Y-50466182D01*
X113250001Y-50466182D01*
X113302254Y-50459302D01*
X113406762Y-50445544D01*
X113552841Y-50385036D01*
X113607702Y-50342939D01*
X113672870Y-50317745D01*
X113741315Y-50331783D01*
X113791305Y-50380596D01*
X113806969Y-50448687D01*
X113806127Y-50457500D01*
X113794318Y-50547198D01*
X113794318Y-50547201D01*
X113814955Y-50703960D01*
X113814956Y-50703962D01*
X113853549Y-50797135D01*
X113875464Y-50850041D01*
X113971718Y-50975482D01*
X114097159Y-51071736D01*
X114243238Y-51132244D01*
X114314965Y-51141687D01*
X114399999Y-51152882D01*
X114400000Y-51152882D01*
X114400001Y-51152882D01*
X114453316Y-51145862D01*
X114539048Y-51134576D01*
X114576763Y-51135398D01*
X114599143Y-51139345D01*
X114609706Y-51141687D01*
X114646193Y-51151464D01*
X114683823Y-51148171D01*
X114694630Y-51147700D01*
X117886367Y-51147700D01*
X117897175Y-51148171D01*
X117934802Y-51151464D01*
X117971314Y-51141679D01*
X117981825Y-51139349D01*
X118019040Y-51132788D01*
X118019045Y-51132784D01*
X118024094Y-51130947D01*
X118040819Y-51124019D01*
X118045676Y-51121754D01*
X118045679Y-51121754D01*
X118076620Y-51100087D01*
X118085739Y-51094279D01*
X118091795Y-51090783D01*
X118118450Y-51075394D01*
X118121520Y-51071736D01*
X118142731Y-51046456D01*
X118150019Y-51038500D01*
X118279503Y-50909017D01*
X118340826Y-50875534D01*
X118367183Y-50872700D01*
X118962212Y-50872700D01*
X119029251Y-50892385D01*
X119049893Y-50909019D01*
X119677678Y-51536804D01*
X119711163Y-51598127D01*
X119706179Y-51667819D01*
X119664307Y-51723752D01*
X119637449Y-51739046D01*
X119590709Y-51758407D01*
X119551468Y-51774661D01*
X119504015Y-51784100D01*
X109106078Y-51784100D01*
X109039039Y-51764415D01*
X108993284Y-51711611D01*
X108983340Y-51642453D01*
X108991517Y-51612648D01*
X109005434Y-51579046D01*
X109021044Y-51541362D01*
X109039697Y-51399678D01*
X109041682Y-51384601D01*
X109041682Y-51384598D01*
X109024982Y-51257749D01*
X109021044Y-51227838D01*
X108960536Y-51081759D01*
X108864282Y-50956318D01*
X108738841Y-50860064D01*
X108718257Y-50851538D01*
X108592762Y-50799556D01*
X108592760Y-50799555D01*
X108436001Y-50778918D01*
X108429038Y-50778918D01*
X108361999Y-50759233D01*
X108316244Y-50706429D01*
X108306099Y-50671103D01*
X108305966Y-50670094D01*
X108289618Y-50545914D01*
X108229110Y-50399835D01*
X108132856Y-50274394D01*
X108007415Y-50178140D01*
X108004286Y-50176844D01*
X107861336Y-50117632D01*
X107861334Y-50117631D01*
X107704575Y-50096994D01*
X107704573Y-50096994D01*
X107547813Y-50117631D01*
X107547811Y-50117632D01*
X107401734Y-50178139D01*
X107276292Y-50274394D01*
X107180037Y-50399836D01*
X107119530Y-50545913D01*
X107119529Y-50545915D01*
X107098892Y-50702674D01*
X107098892Y-50702677D01*
X107119529Y-50859436D01*
X107119530Y-50859438D01*
X107171080Y-50983892D01*
X107180038Y-51005517D01*
X107276292Y-51130958D01*
X107401733Y-51227212D01*
X107547812Y-51287720D01*
X107604241Y-51295149D01*
X107704573Y-51308358D01*
X107711536Y-51308358D01*
X107778575Y-51328043D01*
X107824330Y-51380847D01*
X107834474Y-51416170D01*
X107838751Y-51448654D01*
X107850955Y-51541360D01*
X107850957Y-51541365D01*
X107880483Y-51612648D01*
X107887952Y-51682117D01*
X107856676Y-51744596D01*
X107796587Y-51780248D01*
X107765922Y-51784100D01*
X104335896Y-51784100D01*
X104268857Y-51764415D01*
X104223102Y-51711611D01*
X104213158Y-51642453D01*
X104237520Y-51584614D01*
X104270708Y-51541362D01*
X104284536Y-51523341D01*
X104345044Y-51377262D01*
X104362396Y-51245457D01*
X104365682Y-51220501D01*
X104365682Y-51220498D01*
X104349065Y-51094279D01*
X104345044Y-51063738D01*
X104284536Y-50917659D01*
X104188282Y-50792218D01*
X104062841Y-50695964D01*
X104052561Y-50691706D01*
X103916762Y-50635456D01*
X103916760Y-50635455D01*
X103760001Y-50614818D01*
X103760000Y-50614818D01*
X103754812Y-50615500D01*
X103685778Y-50604733D01*
X103633524Y-50558352D01*
X103614640Y-50491082D01*
X103615690Y-50476391D01*
X103625682Y-50400500D01*
X103625594Y-50399835D01*
X103605044Y-50243739D01*
X103605044Y-50243738D01*
X103544536Y-50097659D01*
X103448282Y-49972218D01*
X103322841Y-49875964D01*
X103296171Y-49864917D01*
X103176762Y-49815456D01*
X103176760Y-49815455D01*
X103020001Y-49794818D01*
X103019999Y-49794818D01*
X102863239Y-49815455D01*
X102863237Y-49815456D01*
X102717160Y-49875963D01*
X102591716Y-49972219D01*
X102550077Y-50026486D01*
X102493649Y-50067689D01*
X102451701Y-50075000D01*
X98050628Y-50075000D01*
X98039817Y-50074528D01*
X98002202Y-50071235D01*
X97965709Y-50081012D01*
X97955160Y-50083350D01*
X97917956Y-50089911D01*
X97912941Y-50091736D01*
X97896167Y-50098684D01*
X97891325Y-50100941D01*
X97860366Y-50122615D01*
X97851258Y-50128417D01*
X97818546Y-50147304D01*
X97794277Y-50176226D01*
X97786969Y-50184201D01*
X96241179Y-51729910D01*
X96179855Y-51763393D01*
X96110163Y-51758407D01*
X96054231Y-51716534D01*
X96029816Y-51651069D01*
X96029500Y-51642226D01*
X96029500Y-51556637D01*
X96029972Y-51545823D01*
X96030362Y-51541365D01*
X96033265Y-51508209D01*
X96023484Y-51471699D01*
X96021147Y-51461154D01*
X96017663Y-51441397D01*
X96014588Y-51423955D01*
X96014584Y-51423948D01*
X96012740Y-51418881D01*
X96005836Y-51402209D01*
X96003563Y-51397335D01*
X96003561Y-51397332D01*
X96003561Y-51397331D01*
X95981888Y-51366376D01*
X95976087Y-51357269D01*
X95957195Y-51324545D01*
X95957193Y-51324544D01*
X95928270Y-51300275D01*
X95920289Y-51292962D01*
X95917493Y-51290166D01*
X94210673Y-49583176D01*
X94177192Y-49521852D01*
X94182180Y-49452161D01*
X94224055Y-49396229D01*
X94289520Y-49371815D01*
X94298360Y-49371500D01*
X112618169Y-49371500D01*
X112685208Y-49391185D01*
G37*
%TD.AperFunction*%
%TA.AperFunction,Conductor*%
G36*
X100441676Y-43134270D02*
G01*
X100467518Y-43173447D01*
X100525464Y-43313341D01*
X100621718Y-43438782D01*
X100747159Y-43535036D01*
X100893238Y-43595544D01*
X100943712Y-43602189D01*
X101049999Y-43616182D01*
X101050000Y-43616182D01*
X101050001Y-43616182D01*
X101102254Y-43609302D01*
X101206762Y-43595544D01*
X101243924Y-43580150D01*
X101313392Y-43572681D01*
X101375872Y-43603955D01*
X101411525Y-43664043D01*
X101414316Y-43678524D01*
X101419956Y-43721361D01*
X101419956Y-43721362D01*
X101423741Y-43730501D01*
X101480464Y-43867441D01*
X101576718Y-43992882D01*
X101702159Y-44089136D01*
X101848238Y-44149644D01*
X101917641Y-44158781D01*
X102004999Y-44170282D01*
X102005000Y-44170282D01*
X102005001Y-44170282D01*
X102057254Y-44163402D01*
X102161762Y-44149644D01*
X102307841Y-44089136D01*
X102307847Y-44089131D01*
X102314765Y-44085138D01*
X102382665Y-44068664D01*
X102448692Y-44091515D01*
X102491327Y-44145070D01*
X102515464Y-44203341D01*
X102611718Y-44328782D01*
X102737159Y-44425036D01*
X102883238Y-44485544D01*
X102899106Y-44487633D01*
X103039999Y-44506182D01*
X103040000Y-44506182D01*
X103040001Y-44506182D01*
X103079190Y-44501022D01*
X103196762Y-44485544D01*
X103249190Y-44463827D01*
X103318656Y-44456359D01*
X103381135Y-44487633D01*
X103416788Y-44547722D01*
X103419579Y-44594573D01*
X103404318Y-44710497D01*
X103404318Y-44710501D01*
X103424955Y-44867260D01*
X103424956Y-44867262D01*
X103478841Y-44997353D01*
X103485464Y-45013341D01*
X103581718Y-45138782D01*
X103610622Y-45160961D01*
X103651825Y-45217387D01*
X103655980Y-45287133D01*
X103621769Y-45348054D01*
X103610624Y-45357710D01*
X103591721Y-45372215D01*
X103591719Y-45372216D01*
X103591718Y-45372218D01*
X103572885Y-45396762D01*
X103495463Y-45497660D01*
X103434956Y-45643737D01*
X103434955Y-45643739D01*
X103414318Y-45800498D01*
X103414318Y-45800501D01*
X103434955Y-45957260D01*
X103434956Y-45957262D01*
X103495464Y-46103341D01*
X103515517Y-46129474D01*
X103591719Y-46228783D01*
X103700995Y-46312633D01*
X103742198Y-46369061D01*
X103746353Y-46438807D01*
X103712141Y-46499727D01*
X103672962Y-46525570D01*
X103527160Y-46585963D01*
X103401718Y-46682218D01*
X103305463Y-46807660D01*
X103244956Y-46953737D01*
X103244955Y-46953739D01*
X103224318Y-47110498D01*
X103224318Y-47110501D01*
X103244955Y-47267260D01*
X103244956Y-47267262D01*
X103295130Y-47388394D01*
X103305464Y-47413341D01*
X103401718Y-47538782D01*
X103527159Y-47635036D01*
X103673238Y-47695544D01*
X103722360Y-47702011D01*
X103829999Y-47716182D01*
X103830000Y-47716182D01*
X103830001Y-47716182D01*
X103882254Y-47709302D01*
X103986762Y-47695544D01*
X104132841Y-47635036D01*
X104258282Y-47538782D01*
X104299923Y-47484513D01*
X104356351Y-47443311D01*
X104398299Y-47436000D01*
X111751172Y-47436000D01*
X111818211Y-47455685D01*
X111863966Y-47508489D01*
X111873910Y-47577647D01*
X111865733Y-47607453D01*
X111862812Y-47614504D01*
X111862811Y-47614506D01*
X111839113Y-47671718D01*
X111802303Y-47760584D01*
X111802302Y-47760586D01*
X111781665Y-47917345D01*
X111781665Y-47917348D01*
X111802302Y-48074107D01*
X111802303Y-48074109D01*
X111862811Y-48220188D01*
X111959065Y-48345629D01*
X112084506Y-48441883D01*
X112181210Y-48481939D01*
X112235613Y-48525780D01*
X112257678Y-48592074D01*
X112240399Y-48659773D01*
X112189262Y-48707384D01*
X112133757Y-48720500D01*
X90798188Y-48720500D01*
X90731149Y-48700815D01*
X90710507Y-48684181D01*
X90676844Y-48650518D01*
X90669534Y-48642541D01*
X90645256Y-48613607D01*
X90645255Y-48613606D01*
X90612534Y-48594714D01*
X90603416Y-48588904D01*
X90572484Y-48567246D01*
X90567661Y-48564997D01*
X90550855Y-48558035D01*
X90545842Y-48556211D01*
X90508652Y-48549652D01*
X90498098Y-48547312D01*
X90461608Y-48537535D01*
X90423981Y-48540828D01*
X90413172Y-48541300D01*
X89379328Y-48541300D01*
X89368519Y-48540828D01*
X89330892Y-48537535D01*
X89330891Y-48537535D01*
X89294403Y-48547312D01*
X89283848Y-48549652D01*
X89246660Y-48556210D01*
X89241661Y-48558029D01*
X89224817Y-48565006D01*
X89220013Y-48567246D01*
X89189081Y-48588905D01*
X89179964Y-48594714D01*
X89147248Y-48613604D01*
X89147240Y-48613610D01*
X89122962Y-48642543D01*
X89115656Y-48650516D01*
X88808987Y-48957185D01*
X88747664Y-48990670D01*
X88705121Y-48992443D01*
X88637304Y-48983515D01*
X88637302Y-48983515D01*
X88480542Y-49004152D01*
X88480540Y-49004153D01*
X88334463Y-49064660D01*
X88209021Y-49160915D01*
X88127876Y-49266666D01*
X88071448Y-49307868D01*
X88001702Y-49312023D01*
X87940781Y-49277810D01*
X87908029Y-49216093D01*
X87905500Y-49191179D01*
X87905500Y-48182737D01*
X87925185Y-48115698D01*
X87941814Y-48095059D01*
X88050305Y-47986568D01*
X88058246Y-47979291D01*
X88087194Y-47955004D01*
X88106082Y-47922287D01*
X88111881Y-47913184D01*
X88133554Y-47882233D01*
X88133554Y-47882230D01*
X88135819Y-47877373D01*
X88142747Y-47860648D01*
X88144587Y-47855595D01*
X88144588Y-47855594D01*
X88151150Y-47818371D01*
X88153479Y-47807865D01*
X88163263Y-47771356D01*
X88159972Y-47733737D01*
X88159500Y-47722929D01*
X88159500Y-46591622D01*
X88159972Y-46580815D01*
X88164074Y-46533927D01*
X88189526Y-46468858D01*
X88212112Y-46446361D01*
X88287282Y-46388682D01*
X88383536Y-46263241D01*
X88444044Y-46117162D01*
X88464682Y-45960400D01*
X88444044Y-45803638D01*
X88383536Y-45657559D01*
X88287282Y-45532118D01*
X88161841Y-45435864D01*
X88015762Y-45375356D01*
X87941269Y-45365548D01*
X87877374Y-45337282D01*
X87838903Y-45278958D01*
X87834517Y-45226426D01*
X87840682Y-45179600D01*
X87832657Y-45118643D01*
X87843422Y-45049609D01*
X87889802Y-44997353D01*
X87939408Y-44979521D01*
X88000762Y-44971444D01*
X88146841Y-44910936D01*
X88272282Y-44814682D01*
X88368536Y-44689241D01*
X88379575Y-44662588D01*
X88423415Y-44608187D01*
X88489708Y-44586121D01*
X88541588Y-44595480D01*
X88626238Y-44630544D01*
X88704619Y-44640863D01*
X88782999Y-44651182D01*
X88783000Y-44651182D01*
X88783001Y-44651182D01*
X88835254Y-44644302D01*
X88939762Y-44630544D01*
X89085841Y-44570036D01*
X89211282Y-44473782D01*
X89211283Y-44473780D01*
X89217569Y-44468957D01*
X89282738Y-44443762D01*
X89351183Y-44457800D01*
X89368538Y-44468953D01*
X89417055Y-44506182D01*
X89479157Y-44553835D01*
X89479158Y-44553835D01*
X89479159Y-44553836D01*
X89625238Y-44614344D01*
X89703619Y-44624663D01*
X89781999Y-44634982D01*
X89782000Y-44634982D01*
X89782001Y-44634982D01*
X89834254Y-44628102D01*
X89938762Y-44614344D01*
X90084841Y-44553836D01*
X90210282Y-44457582D01*
X90306536Y-44332141D01*
X90306536Y-44332138D01*
X90306539Y-44332136D01*
X90310599Y-44325104D01*
X90312382Y-44326133D01*
X90349306Y-44280308D01*
X90415598Y-44258238D01*
X90467485Y-44267597D01*
X90583238Y-44315544D01*
X90596645Y-44317309D01*
X90739999Y-44336182D01*
X90740000Y-44336182D01*
X90740001Y-44336182D01*
X90824146Y-44325104D01*
X90896762Y-44315544D01*
X91042841Y-44255036D01*
X91168282Y-44158782D01*
X91264536Y-44033341D01*
X91325044Y-43887262D01*
X91345682Y-43730500D01*
X91336773Y-43662832D01*
X91347538Y-43593798D01*
X91372050Y-43558947D01*
X91781472Y-43149700D01*
X91842802Y-43116228D01*
X91869134Y-43113400D01*
X99203701Y-43113400D01*
X99270740Y-43133085D01*
X99302077Y-43161914D01*
X99341142Y-43212826D01*
X99343718Y-43216182D01*
X99469159Y-43312436D01*
X99615238Y-43372944D01*
X99693619Y-43383263D01*
X99771999Y-43393582D01*
X99772000Y-43393582D01*
X99772001Y-43393582D01*
X99824254Y-43386702D01*
X99928762Y-43372944D01*
X100074841Y-43312436D01*
X100200282Y-43216182D01*
X100254583Y-43145415D01*
X100311010Y-43104213D01*
X100380756Y-43100058D01*
X100441676Y-43134270D01*
G37*
%TD.AperFunction*%
%TA.AperFunction,Conductor*%
G36*
X115071338Y-15916367D02*
G01*
X115117314Y-15968979D01*
X115128736Y-16020572D01*
X115146358Y-21606556D01*
X115145375Y-21622536D01*
X115141472Y-21653330D01*
X115141472Y-21653339D01*
X115145119Y-21680049D01*
X115151819Y-21729108D01*
X115154580Y-21749580D01*
X115162004Y-21804631D01*
X115162102Y-21804988D01*
X115162160Y-21805201D01*
X115162255Y-21805551D01*
X115162259Y-21805562D01*
X115162260Y-21805564D01*
X115191802Y-21875924D01*
X115218691Y-21940264D01*
X115221248Y-21946381D01*
X115221510Y-21946830D01*
X115221621Y-21947020D01*
X115221737Y-21947219D01*
X115221738Y-21947221D01*
X115221739Y-21947222D01*
X115268455Y-22007499D01*
X115305550Y-22055528D01*
X115315163Y-22067975D01*
X115315339Y-22068149D01*
X115315454Y-22068262D01*
X115315854Y-22068659D01*
X115376196Y-22114500D01*
X115376362Y-22114626D01*
X115437341Y-22161112D01*
X115437343Y-22161113D01*
X115438177Y-22161591D01*
X115438193Y-22161597D01*
X115438195Y-22161599D01*
X115508171Y-22190190D01*
X115508337Y-22190322D01*
X115508360Y-22190267D01*
X115579470Y-22219459D01*
X115579660Y-22219509D01*
X115579794Y-22219544D01*
X115580416Y-22219708D01*
X115580418Y-22219708D01*
X115580420Y-22219709D01*
X115654182Y-22229058D01*
X115655870Y-22229272D01*
X115655862Y-22229330D01*
X115656075Y-22229298D01*
X115720368Y-22237557D01*
X115731856Y-22239033D01*
X115731856Y-22239032D01*
X115731857Y-22239033D01*
X115762621Y-22234883D01*
X115778588Y-22233772D01*
X124975012Y-22189415D01*
X125042145Y-22208776D01*
X125088154Y-22261359D01*
X125099609Y-22313510D01*
X125096641Y-26145049D01*
X125076904Y-26212073D01*
X125024065Y-26257787D01*
X124954899Y-26267677D01*
X124891366Y-26238603D01*
X124884960Y-26232634D01*
X124736044Y-26083718D01*
X124728734Y-26075741D01*
X124704456Y-26046807D01*
X124704455Y-26046806D01*
X124671734Y-26027914D01*
X124662616Y-26022104D01*
X124631684Y-26000446D01*
X124626861Y-25998197D01*
X124610055Y-25991235D01*
X124605042Y-25989411D01*
X124567852Y-25982852D01*
X124557298Y-25980512D01*
X124520808Y-25970735D01*
X124483181Y-25974028D01*
X124472372Y-25974500D01*
X122119628Y-25974500D01*
X122108819Y-25974028D01*
X122071192Y-25970735D01*
X122071191Y-25970735D01*
X122034703Y-25980512D01*
X122024148Y-25982852D01*
X121986960Y-25989410D01*
X121981961Y-25991229D01*
X121965117Y-25998206D01*
X121960313Y-26000446D01*
X121929381Y-26022105D01*
X121920264Y-26027914D01*
X121887548Y-26046804D01*
X121887540Y-26046810D01*
X121863262Y-26075743D01*
X121855956Y-26083716D01*
X121271684Y-26667988D01*
X121210361Y-26701473D01*
X121167818Y-26703246D01*
X121100001Y-26694318D01*
X121099999Y-26694318D01*
X120943239Y-26714955D01*
X120943237Y-26714956D01*
X120797160Y-26775463D01*
X120671718Y-26871718D01*
X120575463Y-26997160D01*
X120514956Y-27143237D01*
X120514955Y-27143239D01*
X120494318Y-27299998D01*
X120494318Y-27300001D01*
X120514955Y-27456760D01*
X120514956Y-27456762D01*
X120575464Y-27602842D01*
X120650027Y-27700014D01*
X120675221Y-27765183D01*
X120661183Y-27833628D01*
X120612369Y-27883617D01*
X120551651Y-27899500D01*
X94580380Y-27899500D01*
X94569571Y-27899028D01*
X94531956Y-27895736D01*
X94495481Y-27905510D01*
X94484925Y-27907850D01*
X94447722Y-27914411D01*
X94442747Y-27916221D01*
X94425882Y-27923207D01*
X94421077Y-27925447D01*
X94390140Y-27947108D01*
X94381026Y-27952915D01*
X94348309Y-27971805D01*
X94324025Y-28000744D01*
X94316720Y-28008715D01*
X93076757Y-29248681D01*
X93015434Y-29282166D01*
X92989076Y-29285000D01*
X85429933Y-29285000D01*
X85362894Y-29265315D01*
X85331559Y-29236488D01*
X85328284Y-29232221D01*
X85328282Y-29232218D01*
X85202841Y-29135964D01*
X85111062Y-29097948D01*
X85056762Y-29075456D01*
X85056760Y-29075455D01*
X84900001Y-29054818D01*
X84899999Y-29054818D01*
X84743239Y-29075455D01*
X84743237Y-29075456D01*
X84597160Y-29135963D01*
X84471718Y-29232218D01*
X84375463Y-29357660D01*
X84314956Y-29503737D01*
X84314955Y-29503739D01*
X84294318Y-29660498D01*
X84294318Y-29660501D01*
X84314955Y-29817260D01*
X84314956Y-29817262D01*
X84361067Y-29928585D01*
X84375464Y-29963341D01*
X84471718Y-30088782D01*
X84597159Y-30185036D01*
X84743238Y-30245544D01*
X84821619Y-30255863D01*
X84899999Y-30266182D01*
X84900000Y-30266182D01*
X84900001Y-30266182D01*
X84952254Y-30259302D01*
X85056762Y-30245544D01*
X85202841Y-30185036D01*
X85328282Y-30088782D01*
X85408290Y-29984512D01*
X85464718Y-29943311D01*
X85506666Y-29936000D01*
X92996525Y-29936000D01*
X93155636Y-29936000D01*
X93166444Y-29936471D01*
X93204071Y-29939764D01*
X93240583Y-29929979D01*
X93251094Y-29927649D01*
X93288309Y-29921088D01*
X93288314Y-29921084D01*
X93293363Y-29919247D01*
X93310088Y-29912319D01*
X93314945Y-29910054D01*
X93314948Y-29910054D01*
X93345889Y-29888387D01*
X93355008Y-29882579D01*
X93387719Y-29863694D01*
X93412004Y-29834750D01*
X93419290Y-29826799D01*
X93444930Y-29801161D01*
X93444932Y-29801157D01*
X94659272Y-28586819D01*
X94720595Y-28553334D01*
X94746953Y-28550500D01*
X122988812Y-28550500D01*
X123055851Y-28570185D01*
X123076493Y-28586819D01*
X124226681Y-29737007D01*
X124260166Y-29798330D01*
X124263000Y-29824688D01*
X124263000Y-37749999D01*
X124243315Y-37817038D01*
X124214488Y-37848374D01*
X124160220Y-37890015D01*
X124063963Y-38015460D01*
X124003456Y-38161537D01*
X124003455Y-38161539D01*
X123982818Y-38318298D01*
X123982818Y-38318301D01*
X124003455Y-38475060D01*
X124003456Y-38475062D01*
X124063964Y-38621141D01*
X124160218Y-38746582D01*
X124285659Y-38842836D01*
X124431738Y-38903344D01*
X124510119Y-38913663D01*
X124588499Y-38923982D01*
X124588500Y-38923982D01*
X124588501Y-38923982D01*
X124640754Y-38917102D01*
X124745262Y-38903344D01*
X124891341Y-38842836D01*
X124891345Y-38842832D01*
X124898381Y-38838772D01*
X124899754Y-38841151D01*
X124952366Y-38820791D01*
X125020816Y-38834805D01*
X125070823Y-38883601D01*
X125086727Y-38944453D01*
X125083838Y-42674245D01*
X125064101Y-42741269D01*
X125011262Y-42786983D01*
X124942096Y-42796873D01*
X124878563Y-42767799D01*
X124872157Y-42761830D01*
X124019544Y-41909218D01*
X124012234Y-41901241D01*
X123987956Y-41872307D01*
X123987955Y-41872306D01*
X123955234Y-41853414D01*
X123946116Y-41847604D01*
X123915184Y-41825946D01*
X123910361Y-41823697D01*
X123893555Y-41816735D01*
X123888542Y-41814911D01*
X123851352Y-41808352D01*
X123840798Y-41806012D01*
X123804308Y-41796235D01*
X123766681Y-41799528D01*
X123755872Y-41800000D01*
X123455836Y-41800000D01*
X123388797Y-41780315D01*
X123343042Y-41727511D01*
X123333098Y-41658353D01*
X123362123Y-41594797D01*
X123377171Y-41580147D01*
X123423351Y-41542247D01*
X123466410Y-41506910D01*
X123597685Y-41346950D01*
X123695232Y-41164454D01*
X123755300Y-40966434D01*
X123775583Y-40760500D01*
X123755300Y-40554566D01*
X123695232Y-40356546D01*
X123597685Y-40174050D01*
X123498537Y-40053237D01*
X123466410Y-40014089D01*
X123306452Y-39882817D01*
X123306453Y-39882817D01*
X123306450Y-39882815D01*
X123123954Y-39785268D01*
X122925934Y-39725200D01*
X122925932Y-39725199D01*
X122925934Y-39725199D01*
X122720000Y-39704917D01*
X122514067Y-39725199D01*
X122316043Y-39785269D01*
X122205898Y-39844143D01*
X122133550Y-39882815D01*
X122133548Y-39882816D01*
X122133547Y-39882817D01*
X121973589Y-40014089D01*
X121842317Y-40174047D01*
X121842315Y-40174050D01*
X121823100Y-40209998D01*
X121744769Y-40356543D01*
X121684699Y-40554567D01*
X121664417Y-40760500D01*
X121684699Y-40966432D01*
X121684700Y-40966434D01*
X121744768Y-41164454D01*
X121842315Y-41346950D01*
X121973590Y-41506910D01*
X122062829Y-41580147D01*
X122102163Y-41637892D01*
X122104034Y-41707737D01*
X122067847Y-41767505D01*
X122005091Y-41798221D01*
X121984164Y-41800000D01*
X119236628Y-41800000D01*
X119225819Y-41799528D01*
X119188192Y-41796235D01*
X119188191Y-41796235D01*
X119151703Y-41806012D01*
X119141148Y-41808352D01*
X119103960Y-41814910D01*
X119098961Y-41816729D01*
X119082117Y-41823706D01*
X119077313Y-41825946D01*
X119046381Y-41847605D01*
X119037264Y-41853414D01*
X119004548Y-41872304D01*
X119004540Y-41872310D01*
X118980262Y-41901243D01*
X118972956Y-41909216D01*
X114133493Y-46748681D01*
X114072170Y-46782166D01*
X114045812Y-46785000D01*
X104398299Y-46785000D01*
X104331260Y-46765315D01*
X104299923Y-46736486D01*
X104258283Y-46682219D01*
X104202784Y-46639633D01*
X104149002Y-46598364D01*
X104107801Y-46541938D01*
X104103646Y-46472192D01*
X104137858Y-46411271D01*
X104177035Y-46385430D01*
X104322841Y-46325036D01*
X104448282Y-46228782D01*
X104544536Y-46103341D01*
X104605044Y-45957262D01*
X104625682Y-45800500D01*
X104616766Y-45732778D01*
X104627531Y-45663745D01*
X104652033Y-45628904D01*
X104952288Y-45328733D01*
X104960244Y-45321446D01*
X104961647Y-45320269D01*
X104989194Y-45297155D01*
X105008071Y-45264456D01*
X105013889Y-45255327D01*
X105024624Y-45240001D01*
X112414318Y-45240001D01*
X112434955Y-45396760D01*
X112434956Y-45396762D01*
X112490108Y-45529912D01*
X112495464Y-45542841D01*
X112591718Y-45668282D01*
X112717159Y-45764536D01*
X112863238Y-45825044D01*
X112941619Y-45835363D01*
X113019999Y-45845682D01*
X113020000Y-45845682D01*
X113020001Y-45845682D01*
X113072254Y-45838802D01*
X113176762Y-45825044D01*
X113322841Y-45764536D01*
X113448282Y-45668282D01*
X113544536Y-45542841D01*
X113605044Y-45396762D01*
X113625682Y-45240000D01*
X113625028Y-45235036D01*
X113608934Y-45112784D01*
X113605044Y-45083238D01*
X113544536Y-44937159D01*
X113448282Y-44811718D01*
X113322841Y-44715464D01*
X113310859Y-44710501D01*
X113176762Y-44654956D01*
X113176760Y-44654955D01*
X113020001Y-44634318D01*
X113019999Y-44634318D01*
X112863239Y-44654955D01*
X112863237Y-44654956D01*
X112717160Y-44715463D01*
X112591718Y-44811718D01*
X112495463Y-44937160D01*
X112434956Y-45083237D01*
X112434955Y-45083239D01*
X112414318Y-45239998D01*
X112414318Y-45240001D01*
X105024624Y-45240001D01*
X105035534Y-45224426D01*
X105035534Y-45224423D01*
X105037751Y-45219673D01*
X105044790Y-45202684D01*
X105046587Y-45197746D01*
X105046588Y-45197745D01*
X105053140Y-45160577D01*
X105055484Y-45150007D01*
X105065259Y-45113553D01*
X105061970Y-45075896D01*
X105061500Y-45065107D01*
X105061500Y-44342713D01*
X105061972Y-44331906D01*
X105065263Y-44294288D01*
X105065263Y-44294287D01*
X105064813Y-44292607D01*
X105055483Y-44257795D01*
X105053145Y-44247248D01*
X105053022Y-44246551D01*
X105046588Y-44210055D01*
X105046587Y-44210054D01*
X105046587Y-44210050D01*
X105044767Y-44205052D01*
X105037812Y-44188261D01*
X105035551Y-44183412D01*
X105035550Y-44183411D01*
X105035550Y-44183409D01*
X105013885Y-44152471D01*
X105008077Y-44143353D01*
X105005989Y-44139737D01*
X104989194Y-44110645D01*
X104989191Y-44110643D01*
X104989190Y-44110641D01*
X104960246Y-44086353D01*
X104952275Y-44079049D01*
X104437955Y-43564752D01*
X114299500Y-43564752D01*
X114311131Y-43623229D01*
X114311132Y-43623230D01*
X114355447Y-43689552D01*
X114421769Y-43733867D01*
X114421770Y-43733868D01*
X114480247Y-43745499D01*
X114480250Y-43745500D01*
X114480252Y-43745500D01*
X116219750Y-43745500D01*
X116219751Y-43745499D01*
X116234568Y-43742552D01*
X116278229Y-43733868D01*
X116278229Y-43733867D01*
X116278231Y-43733867D01*
X116344552Y-43689552D01*
X116388867Y-43623231D01*
X116388867Y-43623229D01*
X116388868Y-43623229D01*
X116400499Y-43564752D01*
X116400500Y-43564750D01*
X116400500Y-41825249D01*
X116400499Y-41825247D01*
X116388868Y-41766770D01*
X116388867Y-41766769D01*
X116344552Y-41700447D01*
X116278230Y-41656132D01*
X116278229Y-41656131D01*
X116219752Y-41644500D01*
X116219748Y-41644500D01*
X114480252Y-41644500D01*
X114480247Y-41644500D01*
X114421770Y-41656131D01*
X114421769Y-41656132D01*
X114355447Y-41700447D01*
X114311132Y-41766769D01*
X114311131Y-41766770D01*
X114299500Y-41825247D01*
X114299500Y-43564752D01*
X104437955Y-43564752D01*
X101083055Y-40210001D01*
X112474318Y-40210001D01*
X112494955Y-40366760D01*
X112494956Y-40366762D01*
X112555464Y-40512841D01*
X112651718Y-40638282D01*
X112777159Y-40734536D01*
X112923238Y-40795044D01*
X113001619Y-40805363D01*
X113079999Y-40815682D01*
X113080000Y-40815682D01*
X113080001Y-40815682D01*
X113132254Y-40808802D01*
X113236762Y-40795044D01*
X113382841Y-40734536D01*
X113508282Y-40638282D01*
X113604536Y-40512841D01*
X113665044Y-40366762D01*
X113685682Y-40210000D01*
X113678441Y-40155000D01*
X114294417Y-40155000D01*
X114314699Y-40360932D01*
X114314700Y-40360934D01*
X114374768Y-40558954D01*
X114472315Y-40741450D01*
X114472317Y-40741452D01*
X114603589Y-40901410D01*
X114682820Y-40966432D01*
X114763550Y-41032685D01*
X114946046Y-41130232D01*
X115144066Y-41190300D01*
X115144065Y-41190300D01*
X115162529Y-41192118D01*
X115350000Y-41210583D01*
X115555934Y-41190300D01*
X115753954Y-41130232D01*
X115936450Y-41032685D01*
X116096410Y-40901410D01*
X116227685Y-40741450D01*
X116325232Y-40558954D01*
X116385300Y-40360934D01*
X116405583Y-40155000D01*
X116385300Y-39949066D01*
X116325232Y-39751046D01*
X116227685Y-39568550D01*
X116131311Y-39451117D01*
X116096410Y-39408589D01*
X115936452Y-39277317D01*
X115936453Y-39277317D01*
X115936450Y-39277315D01*
X115753954Y-39179768D01*
X115555934Y-39119700D01*
X115555932Y-39119699D01*
X115555934Y-39119699D01*
X115350000Y-39099417D01*
X115144067Y-39119699D01*
X114946043Y-39179769D01*
X114835898Y-39238643D01*
X114763550Y-39277315D01*
X114763548Y-39277316D01*
X114763547Y-39277317D01*
X114603589Y-39408589D01*
X114480598Y-39558457D01*
X114472315Y-39568550D01*
X114442166Y-39624955D01*
X114374769Y-39751043D01*
X114314699Y-39949067D01*
X114294417Y-40155000D01*
X113678441Y-40155000D01*
X113665044Y-40053238D01*
X113604536Y-39907159D01*
X113508282Y-39781718D01*
X113382841Y-39685464D01*
X113236762Y-39624956D01*
X113236760Y-39624955D01*
X113080001Y-39604318D01*
X113079999Y-39604318D01*
X112923239Y-39624955D01*
X112923237Y-39624956D01*
X112777160Y-39685463D01*
X112651718Y-39781718D01*
X112555463Y-39907160D01*
X112494956Y-40053237D01*
X112494955Y-40053239D01*
X112474318Y-40209998D01*
X112474318Y-40210001D01*
X101083055Y-40210001D01*
X98888415Y-38015459D01*
X96772863Y-35900001D01*
X97494318Y-35900001D01*
X97514955Y-36056760D01*
X97514956Y-36056762D01*
X97575464Y-36202841D01*
X97671718Y-36328282D01*
X97797159Y-36424536D01*
X97943238Y-36485044D01*
X97971548Y-36488771D01*
X98099999Y-36505682D01*
X98100000Y-36505682D01*
X98100001Y-36505682D01*
X98135708Y-36500980D01*
X98167818Y-36496753D01*
X98236853Y-36507518D01*
X98271685Y-36532011D01*
X100055950Y-38316276D01*
X100063257Y-38324250D01*
X100087541Y-38353190D01*
X100087543Y-38353191D01*
X100087545Y-38353194D01*
X100087547Y-38353195D01*
X100087548Y-38353196D01*
X100120256Y-38372080D01*
X100129379Y-38377892D01*
X100160316Y-38399554D01*
X100160319Y-38399554D01*
X100165176Y-38401820D01*
X100181933Y-38408760D01*
X100186953Y-38410587D01*
X100186955Y-38410588D01*
X100224143Y-38417145D01*
X100234706Y-38419487D01*
X100271193Y-38429264D01*
X100308823Y-38425971D01*
X100319630Y-38425500D01*
X103031701Y-38425500D01*
X103098740Y-38445185D01*
X103130076Y-38474013D01*
X103171718Y-38528282D01*
X103297159Y-38624536D01*
X103443238Y-38685044D01*
X103521619Y-38695363D01*
X103599999Y-38705682D01*
X103600000Y-38705682D01*
X103600001Y-38705682D01*
X103652254Y-38698802D01*
X103756762Y-38685044D01*
X103902841Y-38624536D01*
X104028282Y-38528282D01*
X104124536Y-38402841D01*
X104185044Y-38256762D01*
X104205682Y-38100000D01*
X104185044Y-37943238D01*
X104124536Y-37797159D01*
X104028282Y-37671718D01*
X103902841Y-37575464D01*
X103756762Y-37514956D01*
X103756760Y-37514955D01*
X103600001Y-37494318D01*
X103599999Y-37494318D01*
X103443239Y-37514955D01*
X103443237Y-37514956D01*
X103297160Y-37575463D01*
X103171716Y-37671719D01*
X103130077Y-37725986D01*
X103073649Y-37767189D01*
X103031701Y-37774500D01*
X100486188Y-37774500D01*
X100419149Y-37754815D01*
X100398507Y-37738181D01*
X98732011Y-36071685D01*
X98698526Y-36010362D01*
X98696753Y-35967818D01*
X98705682Y-35900000D01*
X98705682Y-35899998D01*
X98685044Y-35743239D01*
X98685044Y-35743238D01*
X98624536Y-35597159D01*
X98528282Y-35471718D01*
X98402841Y-35375464D01*
X98256762Y-35314956D01*
X98256760Y-35314955D01*
X98100001Y-35294318D01*
X98099999Y-35294318D01*
X97943239Y-35314955D01*
X97943237Y-35314956D01*
X97797160Y-35375463D01*
X97671718Y-35471718D01*
X97575463Y-35597160D01*
X97514956Y-35743237D01*
X97514955Y-35743239D01*
X97494318Y-35899998D01*
X97494318Y-35900001D01*
X96772863Y-35900001D01*
X93757035Y-32884307D01*
X93749726Y-32876332D01*
X93725455Y-32847406D01*
X93712426Y-32839883D01*
X93692731Y-32828512D01*
X93683613Y-32822703D01*
X93652676Y-32801042D01*
X93647867Y-32798799D01*
X93631050Y-32791833D01*
X93626045Y-32790012D01*
X93626039Y-32790011D01*
X93588836Y-32783450D01*
X93578288Y-32781111D01*
X93569259Y-32778692D01*
X93541797Y-32771335D01*
X93506436Y-32774430D01*
X93504176Y-32774628D01*
X93493368Y-32775100D01*
X91308577Y-32775100D01*
X91297795Y-32774630D01*
X91286859Y-32773675D01*
X91260130Y-32771342D01*
X91260126Y-32771342D01*
X91223679Y-32781115D01*
X91213103Y-32783460D01*
X91175955Y-32790011D01*
X91171150Y-32791760D01*
X91153908Y-32798904D01*
X91149250Y-32801077D01*
X91118360Y-32822716D01*
X91109218Y-32828541D01*
X91076547Y-32847403D01*
X91076542Y-32847407D01*
X91052224Y-32876387D01*
X91044937Y-32884340D01*
X90212457Y-33717163D01*
X90151141Y-33750661D01*
X90124758Y-33753500D01*
X78158641Y-33753500D01*
X78147828Y-33753028D01*
X78110209Y-33749735D01*
X78110207Y-33749735D01*
X78073707Y-33759513D01*
X78063156Y-33761852D01*
X78025955Y-33768412D01*
X78020935Y-33770239D01*
X78004180Y-33777178D01*
X77999326Y-33779441D01*
X77968379Y-33801108D01*
X77959266Y-33806914D01*
X77926546Y-33825805D01*
X77926542Y-33825809D01*
X77902262Y-33854743D01*
X77894953Y-33862718D01*
X76220370Y-35537143D01*
X76159045Y-35570625D01*
X76089354Y-35565638D01*
X76033422Y-35523764D01*
X76018132Y-35496910D01*
X75988537Y-35425461D01*
X75988536Y-35425460D01*
X75988536Y-35425459D01*
X75892282Y-35300018D01*
X75892280Y-35300016D01*
X75892279Y-35300015D01*
X75838012Y-35258374D01*
X75796810Y-35201946D01*
X75789500Y-35159999D01*
X75789500Y-33856422D01*
X75809185Y-33789383D01*
X75838011Y-33758048D01*
X75928282Y-33688782D01*
X76024536Y-33563341D01*
X76085044Y-33417262D01*
X76105682Y-33260500D01*
X76085044Y-33103738D01*
X76024536Y-32957659D01*
X75928282Y-32832218D01*
X75837100Y-32762252D01*
X77247500Y-32762252D01*
X77259131Y-32820729D01*
X77259132Y-32820730D01*
X77303447Y-32887052D01*
X77369769Y-32931367D01*
X77369770Y-32931368D01*
X77428247Y-32942999D01*
X77428250Y-32943000D01*
X77428252Y-32943000D01*
X80967750Y-32943000D01*
X80967751Y-32942999D01*
X80982568Y-32940052D01*
X81026229Y-32931368D01*
X81026229Y-32931367D01*
X81026231Y-32931367D01*
X81092552Y-32887052D01*
X81136867Y-32820731D01*
X81136867Y-32820729D01*
X81136868Y-32820729D01*
X81148499Y-32762252D01*
X81148500Y-32762250D01*
X81148500Y-31567000D01*
X81168185Y-31499961D01*
X81220989Y-31454206D01*
X81272500Y-31443000D01*
X85390936Y-31443000D01*
X85457975Y-31462685D01*
X85466423Y-31468625D01*
X85487157Y-31484535D01*
X85487158Y-31484535D01*
X85487159Y-31484536D01*
X85633238Y-31545044D01*
X85711619Y-31555363D01*
X85789999Y-31565682D01*
X85790000Y-31565682D01*
X85790001Y-31565682D01*
X85842254Y-31558802D01*
X85946762Y-31545044D01*
X86092841Y-31484536D01*
X86218282Y-31388282D01*
X86314536Y-31262841D01*
X86375044Y-31116762D01*
X86395682Y-30960000D01*
X86394365Y-30950001D01*
X88164318Y-30950001D01*
X88184955Y-31106760D01*
X88184956Y-31106762D01*
X88245464Y-31252841D01*
X88341718Y-31378282D01*
X88467159Y-31474536D01*
X88613238Y-31535044D01*
X88689188Y-31545043D01*
X88769999Y-31555682D01*
X88770000Y-31555682D01*
X88770001Y-31555682D01*
X88850804Y-31545044D01*
X88926762Y-31535044D01*
X89072841Y-31474536D01*
X89198282Y-31378282D01*
X89239923Y-31324013D01*
X89296351Y-31282811D01*
X89338299Y-31275500D01*
X102326534Y-31275500D01*
X102393573Y-31295185D01*
X102414215Y-31311819D01*
X105278134Y-34175738D01*
X105287399Y-34186105D01*
X105309621Y-34213970D01*
X105356835Y-34246160D01*
X105360617Y-34248843D01*
X105406621Y-34282795D01*
X105414172Y-34286785D01*
X105421822Y-34290468D01*
X105421827Y-34290472D01*
X105476465Y-34307325D01*
X105480853Y-34308769D01*
X105523986Y-34323862D01*
X105534800Y-34327646D01*
X105543188Y-34329232D01*
X105551595Y-34330500D01*
X105551598Y-34330500D01*
X105572803Y-34330500D01*
X105639842Y-34350185D01*
X105643926Y-34352925D01*
X105674813Y-34374552D01*
X105674816Y-34374554D01*
X105674819Y-34374554D01*
X105679676Y-34376820D01*
X105696433Y-34383760D01*
X105701452Y-34385586D01*
X105701455Y-34385588D01*
X105738641Y-34392144D01*
X105749204Y-34394486D01*
X105767433Y-34399370D01*
X105785693Y-34404263D01*
X105823311Y-34400971D01*
X105834118Y-34400500D01*
X110405372Y-34400500D01*
X110416180Y-34400971D01*
X110453807Y-34404264D01*
X110490319Y-34394479D01*
X110500830Y-34392149D01*
X110538045Y-34385588D01*
X110538050Y-34385584D01*
X110543099Y-34383747D01*
X110559824Y-34376819D01*
X110564679Y-34374555D01*
X110564684Y-34374554D01*
X110592917Y-34354784D01*
X110640982Y-34334523D01*
X110693219Y-34324638D01*
X110697726Y-34323872D01*
X110754287Y-34315348D01*
X110754291Y-34315345D01*
X110762447Y-34312830D01*
X110770469Y-34310024D01*
X110770470Y-34310023D01*
X110770472Y-34310023D01*
X110821088Y-34283270D01*
X110825093Y-34281248D01*
X110876642Y-34256425D01*
X110876643Y-34256423D01*
X110876645Y-34256423D01*
X110883695Y-34251616D01*
X110890534Y-34246567D01*
X110890538Y-34246566D01*
X110930974Y-34206128D01*
X110934260Y-34202962D01*
X110976194Y-34164055D01*
X110976196Y-34164050D01*
X110981987Y-34156790D01*
X110982643Y-34157313D01*
X110992032Y-34145070D01*
X111506423Y-33630679D01*
X111567744Y-33597196D01*
X111577898Y-33595426D01*
X111656762Y-33585044D01*
X111802841Y-33524536D01*
X111928282Y-33428282D01*
X112024536Y-33302841D01*
X112085044Y-33156762D01*
X112105682Y-33000000D01*
X112104836Y-32993577D01*
X112085044Y-32843239D01*
X112085044Y-32843238D01*
X112024536Y-32697159D01*
X111928282Y-32571718D01*
X111802841Y-32475464D01*
X111656762Y-32414956D01*
X111656760Y-32414955D01*
X111500001Y-32394318D01*
X111499999Y-32394318D01*
X111343239Y-32414955D01*
X111343237Y-32414956D01*
X111197160Y-32475463D01*
X111071718Y-32571718D01*
X110975463Y-32697160D01*
X110914956Y-32843238D01*
X110904575Y-32922083D01*
X110876308Y-32985979D01*
X110869318Y-32993577D01*
X110469714Y-33393182D01*
X110408394Y-33426666D01*
X110382035Y-33429500D01*
X105857465Y-33429500D01*
X105790426Y-33409815D01*
X105769784Y-33393181D01*
X103083136Y-30706533D01*
X103083134Y-30706530D01*
X102905867Y-30529263D01*
X102896601Y-30518895D01*
X102874379Y-30491029D01*
X102842817Y-30469511D01*
X102827133Y-30458818D01*
X102823369Y-30456147D01*
X102777386Y-30422209D01*
X102769797Y-30418198D01*
X102762175Y-30414528D01*
X102707549Y-30397679D01*
X102703144Y-30396230D01*
X102649195Y-30377352D01*
X102640826Y-30375768D01*
X102632404Y-30374500D01*
X102632402Y-30374500D01*
X102575238Y-30374500D01*
X102570601Y-30374413D01*
X102568585Y-30374337D01*
X102513489Y-30372275D01*
X102504256Y-30373316D01*
X102504162Y-30372486D01*
X102488864Y-30374500D01*
X88974468Y-30374500D01*
X88934736Y-30366597D01*
X88934613Y-30367060D01*
X88927557Y-30365169D01*
X88927018Y-30365062D01*
X88926762Y-30364956D01*
X88926760Y-30364955D01*
X88770001Y-30344318D01*
X88769999Y-30344318D01*
X88613239Y-30364955D01*
X88613237Y-30364956D01*
X88467160Y-30425463D01*
X88341718Y-30521718D01*
X88245463Y-30647160D01*
X88184956Y-30793237D01*
X88184955Y-30793239D01*
X88164318Y-30949998D01*
X88164318Y-30950001D01*
X86394365Y-30950001D01*
X86394365Y-30950000D01*
X86375044Y-30803239D01*
X86375044Y-30803238D01*
X86314536Y-30657159D01*
X86218282Y-30531718D01*
X86092841Y-30435464D01*
X86068696Y-30425463D01*
X85946762Y-30374956D01*
X85946760Y-30374955D01*
X85790001Y-30354318D01*
X85789999Y-30354318D01*
X85633239Y-30374955D01*
X85633237Y-30374956D01*
X85487157Y-30435464D01*
X85381711Y-30516376D01*
X85316542Y-30541570D01*
X85306225Y-30542000D01*
X81272500Y-30542000D01*
X81205461Y-30522315D01*
X81159706Y-30469511D01*
X81148500Y-30418000D01*
X81148500Y-29222749D01*
X81148499Y-29222747D01*
X81136868Y-29164270D01*
X81136867Y-29164269D01*
X81092552Y-29097947D01*
X81026230Y-29053632D01*
X81026229Y-29053631D01*
X80967752Y-29042000D01*
X80967748Y-29042000D01*
X77428252Y-29042000D01*
X77428247Y-29042000D01*
X77369770Y-29053631D01*
X77369769Y-29053632D01*
X77303447Y-29097947D01*
X77259132Y-29164269D01*
X77259131Y-29164270D01*
X77247500Y-29222747D01*
X77247500Y-32762252D01*
X75837100Y-32762252D01*
X75802841Y-32735964D01*
X75656762Y-32675456D01*
X75656760Y-32675455D01*
X75500001Y-32654818D01*
X75499999Y-32654818D01*
X75343239Y-32675455D01*
X75343237Y-32675456D01*
X75197160Y-32735963D01*
X75071718Y-32832218D01*
X74975463Y-32957660D01*
X74914956Y-33103737D01*
X74914955Y-33103739D01*
X74894318Y-33260498D01*
X74894318Y-33260501D01*
X74914955Y-33417260D01*
X74914956Y-33417262D01*
X74975464Y-33563341D01*
X75071718Y-33688782D01*
X75071719Y-33688783D01*
X75071721Y-33688785D01*
X75089983Y-33702797D01*
X75131188Y-33759223D01*
X75138500Y-33801175D01*
X75138500Y-35159999D01*
X75118815Y-35227038D01*
X75089988Y-35258374D01*
X75035720Y-35300015D01*
X74939463Y-35425460D01*
X74878956Y-35571537D01*
X74878955Y-35571539D01*
X74858318Y-35728298D01*
X74858318Y-35728301D01*
X74878955Y-35885060D01*
X74878956Y-35885062D01*
X74939464Y-36031141D01*
X75035718Y-36156582D01*
X75161159Y-36252836D01*
X75161160Y-36252836D01*
X75161161Y-36252837D01*
X75232547Y-36282406D01*
X75286951Y-36326247D01*
X75309016Y-36392541D01*
X75291737Y-36460240D01*
X75272772Y-36484652D01*
X72227174Y-39529962D01*
X72165849Y-39563444D01*
X72096158Y-39558457D01*
X72040226Y-39516583D01*
X72015813Y-39451117D01*
X72015497Y-39442221D01*
X72015615Y-39179768D01*
X72020229Y-28949618D01*
X72547500Y-28949618D01*
X72550249Y-28995763D01*
X72550249Y-28995767D01*
X72550250Y-28995768D01*
X72593907Y-29196461D01*
X72593909Y-29196468D01*
X72674760Y-29385271D01*
X72674763Y-29385277D01*
X72685920Y-29401762D01*
X72789882Y-29555368D01*
X72789890Y-29555377D01*
X72935122Y-29700609D01*
X72935131Y-29700617D01*
X73037849Y-29770137D01*
X73105223Y-29815737D01*
X73126126Y-29824688D01*
X73294031Y-29896590D01*
X73294038Y-29896592D01*
X73355923Y-29910054D01*
X73494737Y-29940251D01*
X73540882Y-29943000D01*
X73540893Y-29943000D01*
X75455107Y-29943000D01*
X75455118Y-29943000D01*
X75501263Y-29940251D01*
X75676954Y-29902031D01*
X75701961Y-29896592D01*
X75701968Y-29896590D01*
X75846342Y-29834765D01*
X75890777Y-29815737D01*
X76060875Y-29700612D01*
X76206112Y-29555375D01*
X76321237Y-29385277D01*
X76384952Y-29236488D01*
X76402090Y-29196468D01*
X76402092Y-29196461D01*
X76423522Y-29097947D01*
X76445751Y-28995763D01*
X76448500Y-28949618D01*
X76448500Y-27035382D01*
X76445751Y-26989237D01*
X76402091Y-26788535D01*
X76402090Y-26788531D01*
X76321239Y-26599728D01*
X76321237Y-26599723D01*
X76275637Y-26532349D01*
X76206117Y-26429631D01*
X76206109Y-26429622D01*
X76060877Y-26284390D01*
X76060868Y-26284382D01*
X75890781Y-26169266D01*
X75890777Y-26169263D01*
X75890773Y-26169261D01*
X75890771Y-26169260D01*
X75701968Y-26088409D01*
X75701961Y-26088407D01*
X75501268Y-26044750D01*
X75501267Y-26044749D01*
X75501263Y-26044749D01*
X75455118Y-26042000D01*
X73540882Y-26042000D01*
X73494737Y-26044749D01*
X73494732Y-26044749D01*
X73494731Y-26044750D01*
X73294038Y-26088407D01*
X73294031Y-26088409D01*
X73105228Y-26169260D01*
X73105218Y-26169266D01*
X72935131Y-26284382D01*
X72935122Y-26284390D01*
X72789890Y-26429622D01*
X72789882Y-26429631D01*
X72674766Y-26599718D01*
X72674760Y-26599728D01*
X72593909Y-26788531D01*
X72593907Y-26788538D01*
X72550250Y-26989231D01*
X72550249Y-26989237D01*
X72547500Y-27035382D01*
X72547500Y-28949618D01*
X72020229Y-28949618D01*
X72022127Y-24742500D01*
X76948000Y-24742500D01*
X77764314Y-24742500D01*
X77738507Y-24782656D01*
X77698000Y-24920611D01*
X77698000Y-25064389D01*
X77738507Y-25202344D01*
X77764314Y-25242500D01*
X76948001Y-25242500D01*
X76948001Y-25806697D01*
X76958400Y-25938832D01*
X77013377Y-26157019D01*
X77106428Y-26361874D01*
X77106431Y-26361880D01*
X77234559Y-26546823D01*
X77234569Y-26546835D01*
X77393664Y-26705930D01*
X77393676Y-26705940D01*
X77578619Y-26834068D01*
X77578625Y-26834071D01*
X77783480Y-26927122D01*
X78001667Y-26982099D01*
X78133810Y-26992499D01*
X78947999Y-26992499D01*
X78948000Y-26992498D01*
X78948000Y-25492500D01*
X79448000Y-25492500D01*
X79448000Y-26992499D01*
X80262182Y-26992499D01*
X80262197Y-26992498D01*
X80394332Y-26982099D01*
X80612519Y-26927122D01*
X80817374Y-26834071D01*
X80817380Y-26834068D01*
X81002323Y-26705940D01*
X81002335Y-26705930D01*
X81161430Y-26546835D01*
X81161440Y-26546823D01*
X81289568Y-26361880D01*
X81289571Y-26361874D01*
X81382622Y-26157019D01*
X81437599Y-25938832D01*
X81447999Y-25806696D01*
X81448000Y-25806684D01*
X81448000Y-25242500D01*
X80631686Y-25242500D01*
X80657493Y-25202344D01*
X80698000Y-25064389D01*
X80698000Y-24920611D01*
X80657493Y-24782656D01*
X80643254Y-24760500D01*
X94764551Y-24760500D01*
X94784317Y-25011651D01*
X94843126Y-25256610D01*
X94939533Y-25489359D01*
X95071160Y-25704153D01*
X95071161Y-25704156D01*
X95071164Y-25704159D01*
X95234776Y-25895724D01*
X95354767Y-25998206D01*
X95426343Y-26059338D01*
X95426346Y-26059339D01*
X95641140Y-26190966D01*
X95826338Y-26267677D01*
X95873889Y-26287373D01*
X96118852Y-26346183D01*
X96307118Y-26361000D01*
X96307126Y-26361000D01*
X96432874Y-26361000D01*
X96432882Y-26361000D01*
X96621148Y-26346183D01*
X96866111Y-26287373D01*
X97098859Y-26190966D01*
X97313659Y-26059336D01*
X97505224Y-25895724D01*
X97668836Y-25704159D01*
X97800466Y-25489359D01*
X97896873Y-25256611D01*
X97955683Y-25011648D01*
X97975449Y-24760500D01*
X97955683Y-24509352D01*
X97896873Y-24264389D01*
X97855017Y-24163339D01*
X97800466Y-24031640D01*
X97668839Y-23816846D01*
X97668838Y-23816843D01*
X97600820Y-23737205D01*
X97505224Y-23625276D01*
X97316857Y-23464395D01*
X97313656Y-23461661D01*
X97313653Y-23461660D01*
X97098859Y-23330033D01*
X96866110Y-23233626D01*
X96621151Y-23174817D01*
X96432887Y-23160000D01*
X96432882Y-23160000D01*
X96307118Y-23160000D01*
X96307112Y-23160000D01*
X96118848Y-23174817D01*
X95873889Y-23233626D01*
X95641140Y-23330033D01*
X95426346Y-23461660D01*
X95426343Y-23461661D01*
X95234776Y-23625276D01*
X95071161Y-23816843D01*
X95071160Y-23816846D01*
X94939533Y-24031640D01*
X94843126Y-24264389D01*
X94784317Y-24509348D01*
X94764551Y-24760500D01*
X80643254Y-24760500D01*
X80631686Y-24742500D01*
X81447999Y-24742500D01*
X81447999Y-24178317D01*
X81447998Y-24178302D01*
X81437599Y-24046167D01*
X81390816Y-23860501D01*
X85144318Y-23860501D01*
X85164955Y-24017260D01*
X85164956Y-24017262D01*
X85225464Y-24163341D01*
X85321718Y-24288782D01*
X85447159Y-24385036D01*
X85593238Y-24445544D01*
X85671619Y-24455863D01*
X85749999Y-24466182D01*
X85750000Y-24466182D01*
X85750001Y-24466182D01*
X85802254Y-24459302D01*
X85906762Y-24445544D01*
X86052841Y-24385036D01*
X86178282Y-24288782D01*
X86200741Y-24259511D01*
X86257168Y-24218311D01*
X86299116Y-24211000D01*
X91350884Y-24211000D01*
X91417923Y-24230685D01*
X91449257Y-24259510D01*
X91471718Y-24288782D01*
X91597159Y-24385036D01*
X91743238Y-24445544D01*
X91821619Y-24455863D01*
X91899999Y-24466182D01*
X91900000Y-24466182D01*
X91900001Y-24466182D01*
X91952254Y-24459302D01*
X92056762Y-24445544D01*
X92202841Y-24385036D01*
X92328282Y-24288782D01*
X92424536Y-24163341D01*
X92449171Y-24103864D01*
X92468743Y-24071612D01*
X92486240Y-24050761D01*
X92525500Y-23942894D01*
X92525500Y-23828106D01*
X92492413Y-23737204D01*
X92485996Y-23710974D01*
X92485044Y-23703739D01*
X92485044Y-23703738D01*
X92424536Y-23557659D01*
X92328282Y-23432218D01*
X92202841Y-23335964D01*
X92188522Y-23330033D01*
X92056762Y-23275456D01*
X92056760Y-23275455D01*
X91900001Y-23254818D01*
X91899999Y-23254818D01*
X91743239Y-23275455D01*
X91743237Y-23275456D01*
X91597160Y-23335963D01*
X91471716Y-23432219D01*
X91410894Y-23511486D01*
X91354466Y-23552689D01*
X91312518Y-23560000D01*
X86337482Y-23560000D01*
X86270443Y-23540315D01*
X86239106Y-23511486D01*
X86178283Y-23432219D01*
X86092128Y-23366110D01*
X86052841Y-23335964D01*
X86038522Y-23330033D01*
X85906762Y-23275456D01*
X85906760Y-23275455D01*
X85750001Y-23254818D01*
X85749999Y-23254818D01*
X85593239Y-23275455D01*
X85593237Y-23275456D01*
X85447160Y-23335963D01*
X85321718Y-23432218D01*
X85225463Y-23557660D01*
X85164956Y-23703737D01*
X85164955Y-23703739D01*
X85144318Y-23860498D01*
X85144318Y-23860501D01*
X81390816Y-23860501D01*
X81382622Y-23827980D01*
X81289571Y-23623125D01*
X81289568Y-23623119D01*
X81161440Y-23438176D01*
X81161430Y-23438164D01*
X81002335Y-23279069D01*
X81002323Y-23279059D01*
X80817380Y-23150931D01*
X80817374Y-23150928D01*
X80612519Y-23057877D01*
X80394332Y-23002900D01*
X80262196Y-22992500D01*
X79448000Y-22992500D01*
X79448000Y-24492500D01*
X78948000Y-24492500D01*
X78948000Y-22992500D01*
X78133817Y-22992500D01*
X78133802Y-22992501D01*
X78001667Y-23002900D01*
X77783480Y-23057877D01*
X77578625Y-23150928D01*
X77578619Y-23150931D01*
X77393676Y-23279059D01*
X77393664Y-23279069D01*
X77234569Y-23438164D01*
X77234559Y-23438176D01*
X77106431Y-23623119D01*
X77106428Y-23623125D01*
X77013377Y-23827980D01*
X76958400Y-24046167D01*
X76948000Y-24178303D01*
X76948000Y-24742500D01*
X72022127Y-24742500D01*
X72023182Y-22403393D01*
X72042897Y-22336364D01*
X72095721Y-22290633D01*
X72146379Y-22279454D01*
X74501928Y-22264257D01*
X74516536Y-22265025D01*
X74551316Y-22268926D01*
X74623026Y-22258077D01*
X74624131Y-22257917D01*
X74695989Y-22247986D01*
X74695992Y-22247984D01*
X74696530Y-22247837D01*
X74697074Y-22247721D01*
X74698798Y-22247224D01*
X74700346Y-22246788D01*
X74702165Y-22246287D01*
X74702706Y-22246096D01*
X74703217Y-22245948D01*
X74703226Y-22245947D01*
X74703233Y-22245943D01*
X74703236Y-22245943D01*
X74731091Y-22233772D01*
X74769511Y-22216984D01*
X74770843Y-22216412D01*
X74837550Y-22188277D01*
X74837555Y-22188272D01*
X74838023Y-22187999D01*
X74838508Y-22187751D01*
X74840073Y-22186808D01*
X74841468Y-22185979D01*
X74843084Y-22185031D01*
X74843545Y-22184715D01*
X74844002Y-22184438D01*
X74844012Y-22184434D01*
X74900482Y-22139350D01*
X74901634Y-22138442D01*
X74958834Y-22093964D01*
X74958837Y-22093959D01*
X74959233Y-22093560D01*
X74959632Y-22093200D01*
X74960861Y-22091924D01*
X74961959Y-22090798D01*
X74963327Y-22089411D01*
X74963713Y-22088959D01*
X74964066Y-22088590D01*
X74964082Y-22088578D01*
X75006964Y-22030408D01*
X75007885Y-22029176D01*
X75051565Y-21971486D01*
X75051565Y-21971485D01*
X75051574Y-21971474D01*
X75051579Y-21971460D01*
X75051848Y-21970989D01*
X75052149Y-21970527D01*
X75053006Y-21968974D01*
X75053809Y-21967541D01*
X75054736Y-21965910D01*
X75054980Y-21965400D01*
X75055240Y-21964925D01*
X75055250Y-21964913D01*
X75081678Y-21897467D01*
X75082144Y-21896298D01*
X75109452Y-21829153D01*
X75109452Y-21829150D01*
X75112515Y-21821620D01*
X75115556Y-21822856D01*
X75143589Y-21776110D01*
X75206213Y-21745128D01*
X75227526Y-21743259D01*
X83318305Y-21734670D01*
X83385365Y-21754283D01*
X83431176Y-21807039D01*
X83435056Y-21816530D01*
X83436482Y-21820479D01*
X83445902Y-21838679D01*
X83450360Y-21848277D01*
X83490164Y-21944508D01*
X83490165Y-21944509D01*
X83583633Y-22066446D01*
X83705475Y-22160037D01*
X83847388Y-22218904D01*
X83961461Y-22233981D01*
X103722391Y-22243974D01*
X103738896Y-22245087D01*
X103768132Y-22249032D01*
X103802507Y-22244616D01*
X103805816Y-22244298D01*
X103807943Y-22244018D01*
X103807949Y-22244019D01*
X103844968Y-22239164D01*
X103896639Y-22232528D01*
X103920514Y-22229463D01*
X103920516Y-22229462D01*
X103920519Y-22229462D01*
X103920521Y-22229461D01*
X103920653Y-22229426D01*
X103920847Y-22229375D01*
X103922021Y-22229063D01*
X103922031Y-22229058D01*
X103922037Y-22229058D01*
X103983607Y-22203590D01*
X104053077Y-22196157D01*
X104115541Y-22227463D01*
X104151163Y-22287570D01*
X104155000Y-22318176D01*
X104155000Y-22360500D01*
X104855000Y-22360500D01*
X104855000Y-22860500D01*
X104155000Y-22860500D01*
X104155000Y-23211213D01*
X104170418Y-23362838D01*
X104231299Y-23556881D01*
X104231304Y-23556891D01*
X104330005Y-23734715D01*
X104330005Y-23734716D01*
X104462478Y-23889030D01*
X104462479Y-23889031D01*
X104623304Y-24013518D01*
X104805907Y-24103089D01*
X104905000Y-24128744D01*
X104905000Y-23326610D01*
X104929457Y-23366110D01*
X105018962Y-23433701D01*
X105126840Y-23464395D01*
X105238521Y-23454046D01*
X105338922Y-23404052D01*
X105405000Y-23331569D01*
X105405000Y-24133866D01*
X105406944Y-24133569D01*
X105406945Y-24133569D01*
X105597660Y-24062936D01*
X105597664Y-24062934D01*
X105770267Y-23955350D01*
X105917668Y-23815235D01*
X105917669Y-23815233D01*
X106033856Y-23648304D01*
X106114059Y-23461407D01*
X106155000Y-23262190D01*
X106155000Y-22720884D01*
X106174685Y-22653845D01*
X106227489Y-22608090D01*
X106296647Y-22598146D01*
X106326454Y-22606323D01*
X106434764Y-22651187D01*
X106547280Y-22666000D01*
X106547287Y-22666000D01*
X106622713Y-22666000D01*
X106622720Y-22666000D01*
X106735236Y-22651187D01*
X106875233Y-22593198D01*
X106995451Y-22500951D01*
X107087698Y-22380733D01*
X107145687Y-22240736D01*
X107165466Y-22090500D01*
X111784534Y-22090500D01*
X111804312Y-22240734D01*
X111804313Y-22240736D01*
X111843923Y-22336364D01*
X111862302Y-22380733D01*
X111954549Y-22500951D01*
X112074767Y-22593198D01*
X112214764Y-22651187D01*
X112327280Y-22666000D01*
X112327287Y-22666000D01*
X112402713Y-22666000D01*
X112402720Y-22666000D01*
X112515236Y-22651187D01*
X112623547Y-22606323D01*
X112693017Y-22598854D01*
X112755496Y-22630129D01*
X112791148Y-22690218D01*
X112795000Y-22720884D01*
X112795000Y-23211213D01*
X112810418Y-23362838D01*
X112871299Y-23556881D01*
X112871304Y-23556891D01*
X112970005Y-23734715D01*
X112970005Y-23734716D01*
X113102478Y-23889030D01*
X113102479Y-23889031D01*
X113263304Y-24013518D01*
X113445907Y-24103089D01*
X113545000Y-24128744D01*
X113545000Y-23326610D01*
X113569457Y-23366110D01*
X113658962Y-23433701D01*
X113766840Y-23464395D01*
X113878521Y-23454046D01*
X113978922Y-23404052D01*
X114045000Y-23331569D01*
X114045000Y-24133866D01*
X114046944Y-24133569D01*
X114046945Y-24133569D01*
X114237660Y-24062936D01*
X114237664Y-24062934D01*
X114410267Y-23955350D01*
X114557668Y-23815235D01*
X114557669Y-23815233D01*
X114673856Y-23648304D01*
X114754059Y-23461407D01*
X114795000Y-23262190D01*
X114795000Y-22860500D01*
X114095000Y-22860500D01*
X114095000Y-22360500D01*
X114795000Y-22360500D01*
X114795000Y-22009786D01*
X114779581Y-21858161D01*
X114718700Y-21664118D01*
X114718695Y-21664108D01*
X114619994Y-21486284D01*
X114619994Y-21486283D01*
X114487521Y-21331969D01*
X114487520Y-21331968D01*
X114326695Y-21207481D01*
X114144093Y-21117911D01*
X114045000Y-21092253D01*
X114045000Y-21894389D01*
X114020543Y-21854890D01*
X113931038Y-21787299D01*
X113823160Y-21756605D01*
X113711479Y-21766954D01*
X113611078Y-21816948D01*
X113545000Y-21889430D01*
X113545000Y-21087133D01*
X113543053Y-21087431D01*
X113543047Y-21087433D01*
X113352342Y-21158062D01*
X113352335Y-21158065D01*
X113179732Y-21265649D01*
X113032331Y-21405764D01*
X113032330Y-21405766D01*
X112916143Y-21572696D01*
X112909531Y-21588103D01*
X112865002Y-21641945D01*
X112798432Y-21663165D01*
X112730958Y-21645027D01*
X112720095Y-21637573D01*
X112655234Y-21587802D01*
X112655230Y-21587800D01*
X112558947Y-21547919D01*
X112515236Y-21529813D01*
X112501171Y-21527961D01*
X112402727Y-21515000D01*
X112402720Y-21515000D01*
X112327280Y-21515000D01*
X112327272Y-21515000D01*
X112214764Y-21529813D01*
X112214763Y-21529813D01*
X112074770Y-21587800D01*
X112074767Y-21587801D01*
X112074767Y-21587802D01*
X111954549Y-21680049D01*
X111880839Y-21776110D01*
X111862300Y-21800270D01*
X111804313Y-21940263D01*
X111804312Y-21940265D01*
X111784534Y-22090499D01*
X111784534Y-22090500D01*
X107165466Y-22090500D01*
X107162523Y-22068149D01*
X107145687Y-21940265D01*
X107145687Y-21940264D01*
X107087698Y-21800267D01*
X106995451Y-21680049D01*
X106875233Y-21587802D01*
X106875229Y-21587800D01*
X106778947Y-21547919D01*
X106735236Y-21529813D01*
X106721171Y-21527961D01*
X106622727Y-21515000D01*
X106622720Y-21515000D01*
X106547280Y-21515000D01*
X106547272Y-21515000D01*
X106434764Y-21529813D01*
X106434763Y-21529813D01*
X106294769Y-21587800D01*
X106294766Y-21587802D01*
X106227636Y-21639313D01*
X106162467Y-21664507D01*
X106094022Y-21650468D01*
X106044032Y-21601654D01*
X106043731Y-21601114D01*
X105979997Y-21486288D01*
X105979994Y-21486283D01*
X105847521Y-21331969D01*
X105847520Y-21331968D01*
X105686695Y-21207481D01*
X105504093Y-21117911D01*
X105405000Y-21092253D01*
X105405000Y-21894389D01*
X105380543Y-21854890D01*
X105291038Y-21787299D01*
X105183160Y-21756605D01*
X105071479Y-21766954D01*
X104971078Y-21816948D01*
X104905000Y-21889430D01*
X104905000Y-21087133D01*
X104903053Y-21087431D01*
X104903047Y-21087433D01*
X104712342Y-21158062D01*
X104712330Y-21158067D01*
X104544690Y-21262558D01*
X104477385Y-21281314D01*
X104410624Y-21260705D01*
X104365603Y-21207273D01*
X104355101Y-21156939D01*
X104359688Y-19711854D01*
X104379584Y-19644884D01*
X104432533Y-19599297D01*
X104501723Y-19589573D01*
X104559587Y-19614198D01*
X104623303Y-19663518D01*
X104805907Y-19753089D01*
X104905000Y-19778744D01*
X104905000Y-18976610D01*
X104929457Y-19016110D01*
X105018962Y-19083701D01*
X105126840Y-19114395D01*
X105238521Y-19104046D01*
X105338922Y-19054052D01*
X105405000Y-18981569D01*
X105405000Y-19783866D01*
X105406944Y-19783569D01*
X105406945Y-19783569D01*
X105597660Y-19712936D01*
X105597664Y-19712934D01*
X105770267Y-19605350D01*
X105917668Y-19465235D01*
X105917669Y-19465233D01*
X106033856Y-19298304D01*
X106114059Y-19111407D01*
X106155000Y-18912190D01*
X106155000Y-18861213D01*
X112795000Y-18861213D01*
X112810418Y-19012838D01*
X112871299Y-19206881D01*
X112871304Y-19206891D01*
X112970005Y-19384715D01*
X112970005Y-19384716D01*
X113102478Y-19539030D01*
X113102479Y-19539031D01*
X113263304Y-19663518D01*
X113445907Y-19753089D01*
X113545000Y-19778744D01*
X113545000Y-18976610D01*
X113569457Y-19016110D01*
X113658962Y-19083701D01*
X113766840Y-19114395D01*
X113878521Y-19104046D01*
X113978922Y-19054052D01*
X114045000Y-18981569D01*
X114045000Y-19783866D01*
X114046944Y-19783569D01*
X114046945Y-19783569D01*
X114237660Y-19712936D01*
X114237664Y-19712934D01*
X114410267Y-19605350D01*
X114557668Y-19465235D01*
X114557669Y-19465233D01*
X114673856Y-19298304D01*
X114754059Y-19111407D01*
X114795000Y-18912190D01*
X114795000Y-18660500D01*
X114095000Y-18660500D01*
X114095000Y-18160500D01*
X114795000Y-18160500D01*
X114795000Y-17959786D01*
X114779581Y-17808161D01*
X114718700Y-17614118D01*
X114718695Y-17614108D01*
X114619994Y-17436284D01*
X114619994Y-17436283D01*
X114487521Y-17281969D01*
X114487520Y-17281968D01*
X114326695Y-17157481D01*
X114144093Y-17067911D01*
X114045000Y-17042253D01*
X114045000Y-17844389D01*
X114020543Y-17804890D01*
X113931038Y-17737299D01*
X113823160Y-17706605D01*
X113711479Y-17716954D01*
X113611078Y-17766948D01*
X113545000Y-17839430D01*
X113545000Y-17037133D01*
X113543053Y-17037431D01*
X113543047Y-17037433D01*
X113352342Y-17108062D01*
X113352335Y-17108065D01*
X113179732Y-17215649D01*
X113032331Y-17355764D01*
X113032330Y-17355766D01*
X112916143Y-17522695D01*
X112835940Y-17709592D01*
X112795000Y-17908809D01*
X112795000Y-18160500D01*
X113495000Y-18160500D01*
X113495000Y-18660500D01*
X112795000Y-18660500D01*
X112795000Y-18861213D01*
X106155000Y-18861213D01*
X106155000Y-18660500D01*
X105455000Y-18660500D01*
X105455000Y-18160500D01*
X106155000Y-18160500D01*
X106155000Y-17959786D01*
X106139581Y-17808161D01*
X106078700Y-17614118D01*
X106078695Y-17614108D01*
X105979994Y-17436284D01*
X105979994Y-17436283D01*
X105847521Y-17281969D01*
X105847520Y-17281968D01*
X105686695Y-17157481D01*
X105504093Y-17067911D01*
X105405000Y-17042253D01*
X105405000Y-17844389D01*
X105380543Y-17804890D01*
X105291038Y-17737299D01*
X105183160Y-17706605D01*
X105071479Y-17716954D01*
X104971078Y-17766948D01*
X104905000Y-17839430D01*
X104905000Y-17037133D01*
X104903053Y-17037431D01*
X104903047Y-17037433D01*
X104712342Y-17108062D01*
X104712330Y-17108067D01*
X104557572Y-17204529D01*
X104490267Y-17223285D01*
X104423506Y-17202676D01*
X104378485Y-17149245D01*
X104367983Y-17098908D01*
X104371266Y-16064652D01*
X104391163Y-15997677D01*
X104444112Y-15952090D01*
X104494741Y-15941048D01*
X115004219Y-15896964D01*
X115071338Y-15916367D01*
G37*
%TD.AperFunction*%
%TA.AperFunction,Conductor*%
G36*
X93393857Y-33445785D02*
G01*
X93414494Y-33462415D01*
X95210533Y-35258374D01*
X95239878Y-35287717D01*
X95273365Y-35349039D01*
X95268382Y-35418731D01*
X95226512Y-35474665D01*
X95161048Y-35499084D01*
X95152199Y-35499400D01*
X77478196Y-35499400D01*
X77411157Y-35479715D01*
X77365402Y-35426911D01*
X77355458Y-35357753D01*
X77384483Y-35294197D01*
X77390519Y-35287715D01*
X78237499Y-34440815D01*
X78298824Y-34407333D01*
X78325176Y-34404500D01*
X90291423Y-34404500D01*
X90302205Y-34404969D01*
X90307373Y-34405421D01*
X90339870Y-34408258D01*
X90339871Y-34408257D01*
X90339874Y-34408258D01*
X90376315Y-34398484D01*
X90386876Y-34396141D01*
X90424045Y-34389588D01*
X90424052Y-34389583D01*
X90428941Y-34387805D01*
X90446031Y-34380724D01*
X90450741Y-34378526D01*
X90450740Y-34378526D01*
X90450745Y-34378525D01*
X90481654Y-34356871D01*
X90490776Y-34351059D01*
X90523455Y-34332194D01*
X90547769Y-34303216D01*
X90555037Y-34295283D01*
X91387543Y-33462437D01*
X91448859Y-33428939D01*
X91475242Y-33426100D01*
X93326818Y-33426100D01*
X93393857Y-33445785D01*
G37*
%TD.AperFunction*%
%TD*%
M02*
