M48
; DRILL file {KiCad 7.0.10} date Tue Jan 30 02:55:59 2024
; FORMAT={-:-/ absolute / inch / decimal}
; #@! TF.CreationDate,2024-01-30T02:55:59+05:30
; #@! TF.GenerationSoftware,Kicad,Pcbnew,7.0.10
; #@! TF.FileFunction,Plated,1,2,PTH
FMAT,2
INCH
; #@! TA.AperFunction,Plated,PTH,ViaDrill
T1C0.0157
; #@! TA.AperFunction,Plated,PTH,ComponentDrill
T2C0.0236
; #@! TA.AperFunction,Plated,PTH,ComponentDrill
T3C0.0394
%
G90
G05
T1
X2.971Y-1.4066
X2.9724Y-1.3095
X2.9803Y-1.6047
X3.0878Y-1.6759
X3.1016Y-2.5567
X3.138Y-1.744
X3.1713Y-1.526
X3.299Y-1.8755
X3.3425Y-1.1677
X3.376Y-0.9394
X3.3776Y-1.2189
X3.378Y-1.091
X3.4118Y-1.8584
X3.4173Y-3.0551
X3.4173Y-3.2323
X3.4173Y-3.3228
X3.4211Y-1.8202
X3.4344Y-1.7787
X3.4584Y-1.7475
X3.459Y-1.8095
X3.4701Y-2.8728
X3.4701Y-3.024
X3.4724Y-3.524
X3.4887Y-2.0868
X3.4897Y-1.9523
X3.4941Y-2.2985
X3.4945Y-1.6722
X3.4949Y-1.2185
X3.4954Y-1.7341
X3.5213Y-2.3776
X3.5217Y-1.4773
X3.5336Y-1.9524
X3.5339Y-2.1402
X3.5347Y-1.7334
X3.5646Y-2.0272
X3.565Y-1.9788
X3.5724Y-1.7217
X3.5811Y-3.3006
X3.6031Y-2.0406
X3.6059Y-1.3749
X3.6181Y-0.9394
X3.622Y-1.0949
X3.6257Y-1.3336
X3.6386Y-3.2933
X3.6424Y-2.043
X3.6445Y-2.2374
X3.6528Y-2.0894
X3.6528Y-2.0894
X3.6732Y-2.5472
X3.6815Y-2.052
X3.6972Y-3.5201
X3.7039Y-1.9024
X3.7205Y-3.2138
X3.7213Y-2.8764
X3.722Y-2.3146
X3.722Y-3.0264
X3.7421Y-3.2457
X3.7484Y-1.7922
X3.7484Y-1.8322
X3.7484Y-1.8722
X3.7756Y-3.3031
X3.7857Y-1.3336
X3.7882Y-3.3575
X3.7884Y-1.7922
X3.7884Y-1.8322
X3.8071Y-3.0472
X3.8169Y-2.1925
X3.8199Y-2.0759
X3.8384Y-1.7922
X3.8384Y-1.8322
X3.8425Y-2.0437
X3.8584Y-1.3516
X3.8622Y-1.4134
X3.8747Y-2.2438
X3.8835Y-1.1638
X3.8937Y-2.122
X3.9047Y-2.0547
X3.928Y-1.6846
X3.9551Y-1.4095
X3.9567Y-2.0587
X3.9783Y-1.6933
X3.9902Y-2.0381
X4.0159Y-1.7151
X4.0184Y-1.5322
X4.0194Y-2.272
X4.0197Y-2.2323
X4.0299Y-2.0221
X4.0559Y-1.9843
X4.0567Y-1.7284
X4.067Y-2.3196
X4.0787Y-1.5
X4.0831Y-0.9217
X4.085Y-2.0166
X4.0878Y-1.8547
X4.0935Y-1.4542
X4.0949Y-1.7603
X4.0953Y-1.8032
X4.0954Y-2.061
X4.0959Y-1.1699
X4.1024Y-2.1086
X4.132Y-2.3936
X4.1429Y-3.1217
X4.1567Y-2.5781
X4.1695Y-2.3738
X4.1732Y-3.0209
X4.1998Y-2.236
X4.208Y-2.174
X4.2139Y-1.5053
X4.2403Y-1.9962
X4.2461Y-2.3059
X4.2691Y-2.023
X4.2831Y-1.6417
X4.2977Y-2.0801
X4.3157Y-1.252
X4.3213Y-1.3004
X4.3224Y-2.6789
X4.3378Y-1.0827
X4.3504Y-1.3819
X4.3661Y-3.2283
X4.3701Y-3.3071
X4.3739Y-2.9117
X4.3898Y-1.2992
X4.3976Y-2.1752
X4.4026Y-3.1132
X4.4026Y-1.9856
X4.4055Y-2.9606
X4.4086Y-2.6612
X4.4432Y-2.3437
X4.4527Y-2.4432
X4.4587Y-1.963
X4.4665Y-3.1476
X4.4685Y-2.6575
X4.4685Y-3.3071
X4.4724Y-3.2362
X4.4874Y-2.3414
X4.497Y-3.2697
X4.5039Y-1.99
X4.5118Y-1.2717
X4.5276Y-0.9264
X4.5423Y-2.753
X4.5463Y-3.0266
X4.5472Y-3.2244
X4.5482Y-2.8976
X4.5482Y-3.1585
X4.555Y-2.1056
X4.555Y-2.4266
X4.5669Y-1.7362
X4.5925Y-1.9723
X4.6646Y-2.0186
X4.703Y-2.1019
X4.7067Y-2.1905
X4.7069Y-2.446
X4.7175Y-2.0595
X4.7421Y-1.9571
X4.7549Y-2.7579
X4.7559Y-3.2884
X4.7569Y-2.8159
X4.7579Y-2.6831
X4.7579Y-3.0177
X4.7579Y-3.4193
X4.7589Y-3.1506
X4.7618Y-2.8888
X4.7677Y-1.0748
X4.7913Y-3.3072
X4.815Y-1.2189
X4.9051Y-1.5086
X4.9291Y-1.0787
T3
X2.9213Y-2.8543
X2.9213Y-2.9543
X2.9213Y-3.0543
X2.9213Y-3.1543
X2.9213Y-3.2543
X2.9213Y-3.3543
X2.9291Y-1.9563
X2.9291Y-2.0563
X2.9291Y-2.1563
X2.9291Y-2.2563
X2.9291Y-2.3563
X2.9291Y-2.4563
X2.9291Y-2.5563
X2.9291Y-2.6563
X3.8512Y-3.4724
X3.9512Y-3.4724
X4.0512Y-3.4724
X4.2461Y-2.8221
X4.2461Y-2.9221
X4.2461Y-3.0221
X4.2461Y-3.1221
X4.2461Y-3.2221
X4.2461Y-3.3221
X4.8315Y-1.6047
X4.8315Y-1.7047
X4.8315Y-1.8047
X4.8315Y-1.9047
X4.8315Y-2.0047
X4.8315Y-2.1047
X4.8315Y-2.2047
X4.8315Y-2.3047
X4.8315Y-2.4047
X4.8315Y-2.5047
X4.8337Y-2.6654
X4.8337Y-2.7654
X4.8337Y-2.8654
X4.8337Y-2.9654
X4.8337Y-3.0654
X4.8337Y-3.1654
X4.8337Y-3.2654
X4.8337Y-3.3654
T2
G00X4.14Y-0.7406
M15
G01X4.14Y-0.7091
M16
G05
G00X4.14Y-0.9118
M15
G01X4.14Y-0.8685
M16
G05
G00X4.4801Y-0.7406
M15
G01X4.4801Y-0.7091
M16
G05
G00X4.4801Y-0.9118
M15
G01X4.4801Y-0.8685
M16
G05
T3
G00X2.933Y-1.0627
M15
G01X2.933Y-1.1414
M16
G05
G00X3.1574Y-0.984
M15
G01X3.0787Y-0.984
M16
G05
G00X3.1574Y-1.2202
M15
G01X3.0787Y-1.2202
M16
G05
M30
