%TF.GenerationSoftware,KiCad,Pcbnew,7.0.10*%
%TF.CreationDate,2024-01-30T02:50:09+05:30*%
%TF.ProjectId,rp2040-basic-m1,72703230-3430-42d6-9261-7369632d6d31,rev?*%
%TF.SameCoordinates,Original*%
%TF.FileFunction,AssemblyDrawing,Bot*%
%FSLAX46Y46*%
G04 Gerber Fmt 4.6, Leading zero omitted, Abs format (unit mm)*
G04 Created by KiCad (PCBNEW 7.0.10) date 2024-01-30 02:50:09*
%MOMM*%
%LPD*%
G01*
G04 APERTURE LIST*
%ADD10C,0.150000*%
%ADD11C,0.050000*%
%ADD12C,0.060000*%
%ADD13C,0.100000*%
G04 APERTURE END LIST*
D10*
X120472023Y-66531009D02*
X120329166Y-66578628D01*
X120329166Y-66578628D02*
X120281547Y-66626247D01*
X120281547Y-66626247D02*
X120233928Y-66721485D01*
X120233928Y-66721485D02*
X120233928Y-66864342D01*
X120233928Y-66864342D02*
X120281547Y-66959580D01*
X120281547Y-66959580D02*
X120329166Y-67007200D01*
X120329166Y-67007200D02*
X120424404Y-67054819D01*
X120424404Y-67054819D02*
X120805356Y-67054819D01*
X120805356Y-67054819D02*
X120805356Y-66054819D01*
X120805356Y-66054819D02*
X120472023Y-66054819D01*
X120472023Y-66054819D02*
X120376785Y-66102438D01*
X120376785Y-66102438D02*
X120329166Y-66150057D01*
X120329166Y-66150057D02*
X120281547Y-66245295D01*
X120281547Y-66245295D02*
X120281547Y-66340533D01*
X120281547Y-66340533D02*
X120329166Y-66435771D01*
X120329166Y-66435771D02*
X120376785Y-66483390D01*
X120376785Y-66483390D02*
X120472023Y-66531009D01*
X120472023Y-66531009D02*
X120805356Y-66531009D01*
X119852975Y-67007200D02*
X119710118Y-67054819D01*
X119710118Y-67054819D02*
X119472023Y-67054819D01*
X119472023Y-67054819D02*
X119376785Y-67007200D01*
X119376785Y-67007200D02*
X119329166Y-66959580D01*
X119329166Y-66959580D02*
X119281547Y-66864342D01*
X119281547Y-66864342D02*
X119281547Y-66769104D01*
X119281547Y-66769104D02*
X119329166Y-66673866D01*
X119329166Y-66673866D02*
X119376785Y-66626247D01*
X119376785Y-66626247D02*
X119472023Y-66578628D01*
X119472023Y-66578628D02*
X119662499Y-66531009D01*
X119662499Y-66531009D02*
X119757737Y-66483390D01*
X119757737Y-66483390D02*
X119805356Y-66435771D01*
X119805356Y-66435771D02*
X119852975Y-66340533D01*
X119852975Y-66340533D02*
X119852975Y-66245295D01*
X119852975Y-66245295D02*
X119805356Y-66150057D01*
X119805356Y-66150057D02*
X119757737Y-66102438D01*
X119757737Y-66102438D02*
X119662499Y-66054819D01*
X119662499Y-66054819D02*
X119424404Y-66054819D01*
X119424404Y-66054819D02*
X119281547Y-66102438D01*
X118900594Y-67007200D02*
X118757737Y-67054819D01*
X118757737Y-67054819D02*
X118519642Y-67054819D01*
X118519642Y-67054819D02*
X118424404Y-67007200D01*
X118424404Y-67007200D02*
X118376785Y-66959580D01*
X118376785Y-66959580D02*
X118329166Y-66864342D01*
X118329166Y-66864342D02*
X118329166Y-66769104D01*
X118329166Y-66769104D02*
X118376785Y-66673866D01*
X118376785Y-66673866D02*
X118424404Y-66626247D01*
X118424404Y-66626247D02*
X118519642Y-66578628D01*
X118519642Y-66578628D02*
X118710118Y-66531009D01*
X118710118Y-66531009D02*
X118805356Y-66483390D01*
X118805356Y-66483390D02*
X118852975Y-66435771D01*
X118852975Y-66435771D02*
X118900594Y-66340533D01*
X118900594Y-66340533D02*
X118900594Y-66245295D01*
X118900594Y-66245295D02*
X118852975Y-66150057D01*
X118852975Y-66150057D02*
X118805356Y-66102438D01*
X118805356Y-66102438D02*
X118710118Y-66054819D01*
X118710118Y-66054819D02*
X118472023Y-66054819D01*
X118472023Y-66054819D02*
X118329166Y-66102438D01*
X117376785Y-67054819D02*
X117948213Y-67054819D01*
X117662499Y-67054819D02*
X117662499Y-66054819D01*
X117662499Y-66054819D02*
X117757737Y-66197676D01*
X117757737Y-66197676D02*
X117852975Y-66292914D01*
X117852975Y-66292914D02*
X117948213Y-66340533D01*
X117043451Y-66054819D02*
X116424404Y-66054819D01*
X116424404Y-66054819D02*
X116757737Y-66435771D01*
X116757737Y-66435771D02*
X116614880Y-66435771D01*
X116614880Y-66435771D02*
X116519642Y-66483390D01*
X116519642Y-66483390D02*
X116472023Y-66531009D01*
X116472023Y-66531009D02*
X116424404Y-66626247D01*
X116424404Y-66626247D02*
X116424404Y-66864342D01*
X116424404Y-66864342D02*
X116472023Y-66959580D01*
X116472023Y-66959580D02*
X116519642Y-67007200D01*
X116519642Y-67007200D02*
X116614880Y-67054819D01*
X116614880Y-67054819D02*
X116900594Y-67054819D01*
X116900594Y-67054819D02*
X116995832Y-67007200D01*
X116995832Y-67007200D02*
X117043451Y-66959580D01*
X115852975Y-66483390D02*
X115948213Y-66435771D01*
X115948213Y-66435771D02*
X115995832Y-66388152D01*
X115995832Y-66388152D02*
X116043451Y-66292914D01*
X116043451Y-66292914D02*
X116043451Y-66245295D01*
X116043451Y-66245295D02*
X115995832Y-66150057D01*
X115995832Y-66150057D02*
X115948213Y-66102438D01*
X115948213Y-66102438D02*
X115852975Y-66054819D01*
X115852975Y-66054819D02*
X115662499Y-66054819D01*
X115662499Y-66054819D02*
X115567261Y-66102438D01*
X115567261Y-66102438D02*
X115519642Y-66150057D01*
X115519642Y-66150057D02*
X115472023Y-66245295D01*
X115472023Y-66245295D02*
X115472023Y-66292914D01*
X115472023Y-66292914D02*
X115519642Y-66388152D01*
X115519642Y-66388152D02*
X115567261Y-66435771D01*
X115567261Y-66435771D02*
X115662499Y-66483390D01*
X115662499Y-66483390D02*
X115852975Y-66483390D01*
X115852975Y-66483390D02*
X115948213Y-66531009D01*
X115948213Y-66531009D02*
X115995832Y-66578628D01*
X115995832Y-66578628D02*
X116043451Y-66673866D01*
X116043451Y-66673866D02*
X116043451Y-66864342D01*
X116043451Y-66864342D02*
X115995832Y-66959580D01*
X115995832Y-66959580D02*
X115948213Y-67007200D01*
X115948213Y-67007200D02*
X115852975Y-67054819D01*
X115852975Y-67054819D02*
X115662499Y-67054819D01*
X115662499Y-67054819D02*
X115567261Y-67007200D01*
X115567261Y-67007200D02*
X115519642Y-66959580D01*
X115519642Y-66959580D02*
X115472023Y-66864342D01*
X115472023Y-66864342D02*
X115472023Y-66673866D01*
X115472023Y-66673866D02*
X115519642Y-66578628D01*
X115519642Y-66578628D02*
X115567261Y-66531009D01*
X115567261Y-66531009D02*
X115662499Y-66483390D01*
D11*
X118192976Y-69175914D02*
X118223452Y-69160676D01*
X118223452Y-69160676D02*
X118253928Y-69130200D01*
X118253928Y-69130200D02*
X118299642Y-69084485D01*
X118299642Y-69084485D02*
X118330119Y-69069247D01*
X118330119Y-69069247D02*
X118360595Y-69069247D01*
X118345357Y-69145438D02*
X118375833Y-69130200D01*
X118375833Y-69130200D02*
X118406309Y-69099723D01*
X118406309Y-69099723D02*
X118421547Y-69038771D01*
X118421547Y-69038771D02*
X118421547Y-68932104D01*
X118421547Y-68932104D02*
X118406309Y-68871152D01*
X118406309Y-68871152D02*
X118375833Y-68840676D01*
X118375833Y-68840676D02*
X118345357Y-68825438D01*
X118345357Y-68825438D02*
X118284404Y-68825438D01*
X118284404Y-68825438D02*
X118253928Y-68840676D01*
X118253928Y-68840676D02*
X118223452Y-68871152D01*
X118223452Y-68871152D02*
X118208214Y-68932104D01*
X118208214Y-68932104D02*
X118208214Y-69038771D01*
X118208214Y-69038771D02*
X118223452Y-69099723D01*
X118223452Y-69099723D02*
X118253928Y-69130200D01*
X118253928Y-69130200D02*
X118284404Y-69145438D01*
X118284404Y-69145438D02*
X118345357Y-69145438D01*
X117933928Y-68825438D02*
X117994881Y-68825438D01*
X117994881Y-68825438D02*
X118025357Y-68840676D01*
X118025357Y-68840676D02*
X118040595Y-68855914D01*
X118040595Y-68855914D02*
X118071071Y-68901628D01*
X118071071Y-68901628D02*
X118086309Y-68962580D01*
X118086309Y-68962580D02*
X118086309Y-69084485D01*
X118086309Y-69084485D02*
X118071071Y-69114961D01*
X118071071Y-69114961D02*
X118055833Y-69130200D01*
X118055833Y-69130200D02*
X118025357Y-69145438D01*
X118025357Y-69145438D02*
X117964404Y-69145438D01*
X117964404Y-69145438D02*
X117933928Y-69130200D01*
X117933928Y-69130200D02*
X117918690Y-69114961D01*
X117918690Y-69114961D02*
X117903452Y-69084485D01*
X117903452Y-69084485D02*
X117903452Y-69008295D01*
X117903452Y-69008295D02*
X117918690Y-68977819D01*
X117918690Y-68977819D02*
X117933928Y-68962580D01*
X117933928Y-68962580D02*
X117964404Y-68947342D01*
X117964404Y-68947342D02*
X118025357Y-68947342D01*
X118025357Y-68947342D02*
X118055833Y-68962580D01*
X118055833Y-68962580D02*
X118071071Y-68977819D01*
X118071071Y-68977819D02*
X118086309Y-69008295D01*
D10*
X122759819Y-75084523D02*
X122759819Y-74513095D01*
X122759819Y-74798809D02*
X121759819Y-74798809D01*
X121759819Y-74798809D02*
X121902676Y-74703571D01*
X121902676Y-74703571D02*
X121997914Y-74608333D01*
X121997914Y-74608333D02*
X122045533Y-74513095D01*
X121759819Y-75703571D02*
X121759819Y-75798809D01*
X121759819Y-75798809D02*
X121807438Y-75894047D01*
X121807438Y-75894047D02*
X121855057Y-75941666D01*
X121855057Y-75941666D02*
X121950295Y-75989285D01*
X121950295Y-75989285D02*
X122140771Y-76036904D01*
X122140771Y-76036904D02*
X122378866Y-76036904D01*
X122378866Y-76036904D02*
X122569342Y-75989285D01*
X122569342Y-75989285D02*
X122664580Y-75941666D01*
X122664580Y-75941666D02*
X122712200Y-75894047D01*
X122712200Y-75894047D02*
X122759819Y-75798809D01*
X122759819Y-75798809D02*
X122759819Y-75703571D01*
X122759819Y-75703571D02*
X122712200Y-75608333D01*
X122712200Y-75608333D02*
X122664580Y-75560714D01*
X122664580Y-75560714D02*
X122569342Y-75513095D01*
X122569342Y-75513095D02*
X122378866Y-75465476D01*
X122378866Y-75465476D02*
X122140771Y-75465476D01*
X122140771Y-75465476D02*
X121950295Y-75513095D01*
X121950295Y-75513095D02*
X121855057Y-75560714D01*
X121855057Y-75560714D02*
X121807438Y-75608333D01*
X121807438Y-75608333D02*
X121759819Y-75703571D01*
X122759819Y-76465476D02*
X121759819Y-76465476D01*
X122759819Y-77036904D02*
X122188390Y-76608333D01*
X121759819Y-77036904D02*
X122331247Y-76465476D01*
D12*
X121056927Y-75517857D02*
X120866451Y-75384524D01*
X121056927Y-75289286D02*
X120656927Y-75289286D01*
X120656927Y-75289286D02*
X120656927Y-75441667D01*
X120656927Y-75441667D02*
X120675975Y-75479762D01*
X120675975Y-75479762D02*
X120695022Y-75498809D01*
X120695022Y-75498809D02*
X120733118Y-75517857D01*
X120733118Y-75517857D02*
X120790260Y-75517857D01*
X120790260Y-75517857D02*
X120828356Y-75498809D01*
X120828356Y-75498809D02*
X120847403Y-75479762D01*
X120847403Y-75479762D02*
X120866451Y-75441667D01*
X120866451Y-75441667D02*
X120866451Y-75289286D01*
X120695022Y-75670238D02*
X120675975Y-75689286D01*
X120675975Y-75689286D02*
X120656927Y-75727381D01*
X120656927Y-75727381D02*
X120656927Y-75822619D01*
X120656927Y-75822619D02*
X120675975Y-75860714D01*
X120675975Y-75860714D02*
X120695022Y-75879762D01*
X120695022Y-75879762D02*
X120733118Y-75898809D01*
X120733118Y-75898809D02*
X120771213Y-75898809D01*
X120771213Y-75898809D02*
X120828356Y-75879762D01*
X120828356Y-75879762D02*
X121056927Y-75651190D01*
X121056927Y-75651190D02*
X121056927Y-75898809D01*
X121056927Y-76279761D02*
X121056927Y-76051190D01*
X121056927Y-76165476D02*
X120656927Y-76165476D01*
X120656927Y-76165476D02*
X120714070Y-76127380D01*
X120714070Y-76127380D02*
X120752165Y-76089285D01*
X120752165Y-76089285D02*
X120771213Y-76051190D01*
D10*
X120472023Y-69931009D02*
X120329166Y-69978628D01*
X120329166Y-69978628D02*
X120281547Y-70026247D01*
X120281547Y-70026247D02*
X120233928Y-70121485D01*
X120233928Y-70121485D02*
X120233928Y-70264342D01*
X120233928Y-70264342D02*
X120281547Y-70359580D01*
X120281547Y-70359580D02*
X120329166Y-70407200D01*
X120329166Y-70407200D02*
X120424404Y-70454819D01*
X120424404Y-70454819D02*
X120805356Y-70454819D01*
X120805356Y-70454819D02*
X120805356Y-69454819D01*
X120805356Y-69454819D02*
X120472023Y-69454819D01*
X120472023Y-69454819D02*
X120376785Y-69502438D01*
X120376785Y-69502438D02*
X120329166Y-69550057D01*
X120329166Y-69550057D02*
X120281547Y-69645295D01*
X120281547Y-69645295D02*
X120281547Y-69740533D01*
X120281547Y-69740533D02*
X120329166Y-69835771D01*
X120329166Y-69835771D02*
X120376785Y-69883390D01*
X120376785Y-69883390D02*
X120472023Y-69931009D01*
X120472023Y-69931009D02*
X120805356Y-69931009D01*
X119852975Y-70407200D02*
X119710118Y-70454819D01*
X119710118Y-70454819D02*
X119472023Y-70454819D01*
X119472023Y-70454819D02*
X119376785Y-70407200D01*
X119376785Y-70407200D02*
X119329166Y-70359580D01*
X119329166Y-70359580D02*
X119281547Y-70264342D01*
X119281547Y-70264342D02*
X119281547Y-70169104D01*
X119281547Y-70169104D02*
X119329166Y-70073866D01*
X119329166Y-70073866D02*
X119376785Y-70026247D01*
X119376785Y-70026247D02*
X119472023Y-69978628D01*
X119472023Y-69978628D02*
X119662499Y-69931009D01*
X119662499Y-69931009D02*
X119757737Y-69883390D01*
X119757737Y-69883390D02*
X119805356Y-69835771D01*
X119805356Y-69835771D02*
X119852975Y-69740533D01*
X119852975Y-69740533D02*
X119852975Y-69645295D01*
X119852975Y-69645295D02*
X119805356Y-69550057D01*
X119805356Y-69550057D02*
X119757737Y-69502438D01*
X119757737Y-69502438D02*
X119662499Y-69454819D01*
X119662499Y-69454819D02*
X119424404Y-69454819D01*
X119424404Y-69454819D02*
X119281547Y-69502438D01*
X118900594Y-70407200D02*
X118757737Y-70454819D01*
X118757737Y-70454819D02*
X118519642Y-70454819D01*
X118519642Y-70454819D02*
X118424404Y-70407200D01*
X118424404Y-70407200D02*
X118376785Y-70359580D01*
X118376785Y-70359580D02*
X118329166Y-70264342D01*
X118329166Y-70264342D02*
X118329166Y-70169104D01*
X118329166Y-70169104D02*
X118376785Y-70073866D01*
X118376785Y-70073866D02*
X118424404Y-70026247D01*
X118424404Y-70026247D02*
X118519642Y-69978628D01*
X118519642Y-69978628D02*
X118710118Y-69931009D01*
X118710118Y-69931009D02*
X118805356Y-69883390D01*
X118805356Y-69883390D02*
X118852975Y-69835771D01*
X118852975Y-69835771D02*
X118900594Y-69740533D01*
X118900594Y-69740533D02*
X118900594Y-69645295D01*
X118900594Y-69645295D02*
X118852975Y-69550057D01*
X118852975Y-69550057D02*
X118805356Y-69502438D01*
X118805356Y-69502438D02*
X118710118Y-69454819D01*
X118710118Y-69454819D02*
X118472023Y-69454819D01*
X118472023Y-69454819D02*
X118329166Y-69502438D01*
X117376785Y-70454819D02*
X117948213Y-70454819D01*
X117662499Y-70454819D02*
X117662499Y-69454819D01*
X117662499Y-69454819D02*
X117757737Y-69597676D01*
X117757737Y-69597676D02*
X117852975Y-69692914D01*
X117852975Y-69692914D02*
X117948213Y-69740533D01*
X117043451Y-69454819D02*
X116424404Y-69454819D01*
X116424404Y-69454819D02*
X116757737Y-69835771D01*
X116757737Y-69835771D02*
X116614880Y-69835771D01*
X116614880Y-69835771D02*
X116519642Y-69883390D01*
X116519642Y-69883390D02*
X116472023Y-69931009D01*
X116472023Y-69931009D02*
X116424404Y-70026247D01*
X116424404Y-70026247D02*
X116424404Y-70264342D01*
X116424404Y-70264342D02*
X116472023Y-70359580D01*
X116472023Y-70359580D02*
X116519642Y-70407200D01*
X116519642Y-70407200D02*
X116614880Y-70454819D01*
X116614880Y-70454819D02*
X116900594Y-70454819D01*
X116900594Y-70454819D02*
X116995832Y-70407200D01*
X116995832Y-70407200D02*
X117043451Y-70359580D01*
X115852975Y-69883390D02*
X115948213Y-69835771D01*
X115948213Y-69835771D02*
X115995832Y-69788152D01*
X115995832Y-69788152D02*
X116043451Y-69692914D01*
X116043451Y-69692914D02*
X116043451Y-69645295D01*
X116043451Y-69645295D02*
X115995832Y-69550057D01*
X115995832Y-69550057D02*
X115948213Y-69502438D01*
X115948213Y-69502438D02*
X115852975Y-69454819D01*
X115852975Y-69454819D02*
X115662499Y-69454819D01*
X115662499Y-69454819D02*
X115567261Y-69502438D01*
X115567261Y-69502438D02*
X115519642Y-69550057D01*
X115519642Y-69550057D02*
X115472023Y-69645295D01*
X115472023Y-69645295D02*
X115472023Y-69692914D01*
X115472023Y-69692914D02*
X115519642Y-69788152D01*
X115519642Y-69788152D02*
X115567261Y-69835771D01*
X115567261Y-69835771D02*
X115662499Y-69883390D01*
X115662499Y-69883390D02*
X115852975Y-69883390D01*
X115852975Y-69883390D02*
X115948213Y-69931009D01*
X115948213Y-69931009D02*
X115995832Y-69978628D01*
X115995832Y-69978628D02*
X116043451Y-70073866D01*
X116043451Y-70073866D02*
X116043451Y-70264342D01*
X116043451Y-70264342D02*
X115995832Y-70359580D01*
X115995832Y-70359580D02*
X115948213Y-70407200D01*
X115948213Y-70407200D02*
X115852975Y-70454819D01*
X115852975Y-70454819D02*
X115662499Y-70454819D01*
X115662499Y-70454819D02*
X115567261Y-70407200D01*
X115567261Y-70407200D02*
X115519642Y-70359580D01*
X115519642Y-70359580D02*
X115472023Y-70264342D01*
X115472023Y-70264342D02*
X115472023Y-70073866D01*
X115472023Y-70073866D02*
X115519642Y-69978628D01*
X115519642Y-69978628D02*
X115567261Y-69931009D01*
X115567261Y-69931009D02*
X115662499Y-69883390D01*
D11*
X118192976Y-72575914D02*
X118223452Y-72560676D01*
X118223452Y-72560676D02*
X118253928Y-72530200D01*
X118253928Y-72530200D02*
X118299642Y-72484485D01*
X118299642Y-72484485D02*
X118330119Y-72469247D01*
X118330119Y-72469247D02*
X118360595Y-72469247D01*
X118345357Y-72545438D02*
X118375833Y-72530200D01*
X118375833Y-72530200D02*
X118406309Y-72499723D01*
X118406309Y-72499723D02*
X118421547Y-72438771D01*
X118421547Y-72438771D02*
X118421547Y-72332104D01*
X118421547Y-72332104D02*
X118406309Y-72271152D01*
X118406309Y-72271152D02*
X118375833Y-72240676D01*
X118375833Y-72240676D02*
X118345357Y-72225438D01*
X118345357Y-72225438D02*
X118284404Y-72225438D01*
X118284404Y-72225438D02*
X118253928Y-72240676D01*
X118253928Y-72240676D02*
X118223452Y-72271152D01*
X118223452Y-72271152D02*
X118208214Y-72332104D01*
X118208214Y-72332104D02*
X118208214Y-72438771D01*
X118208214Y-72438771D02*
X118223452Y-72499723D01*
X118223452Y-72499723D02*
X118253928Y-72530200D01*
X118253928Y-72530200D02*
X118284404Y-72545438D01*
X118284404Y-72545438D02*
X118345357Y-72545438D01*
X117918690Y-72225438D02*
X118071071Y-72225438D01*
X118071071Y-72225438D02*
X118086309Y-72377819D01*
X118086309Y-72377819D02*
X118071071Y-72362580D01*
X118071071Y-72362580D02*
X118040595Y-72347342D01*
X118040595Y-72347342D02*
X117964404Y-72347342D01*
X117964404Y-72347342D02*
X117933928Y-72362580D01*
X117933928Y-72362580D02*
X117918690Y-72377819D01*
X117918690Y-72377819D02*
X117903452Y-72408295D01*
X117903452Y-72408295D02*
X117903452Y-72484485D01*
X117903452Y-72484485D02*
X117918690Y-72514961D01*
X117918690Y-72514961D02*
X117933928Y-72530200D01*
X117933928Y-72530200D02*
X117964404Y-72545438D01*
X117964404Y-72545438D02*
X118040595Y-72545438D01*
X118040595Y-72545438D02*
X118071071Y-72530200D01*
X118071071Y-72530200D02*
X118086309Y-72514961D01*
D10*
X117384819Y-75309523D02*
X117384819Y-74738095D01*
X117384819Y-75023809D02*
X116384819Y-75023809D01*
X116384819Y-75023809D02*
X116527676Y-74928571D01*
X116527676Y-74928571D02*
X116622914Y-74833333D01*
X116622914Y-74833333D02*
X116670533Y-74738095D01*
X116384819Y-75928571D02*
X116384819Y-76023809D01*
X116384819Y-76023809D02*
X116432438Y-76119047D01*
X116432438Y-76119047D02*
X116480057Y-76166666D01*
X116480057Y-76166666D02*
X116575295Y-76214285D01*
X116575295Y-76214285D02*
X116765771Y-76261904D01*
X116765771Y-76261904D02*
X117003866Y-76261904D01*
X117003866Y-76261904D02*
X117194342Y-76214285D01*
X117194342Y-76214285D02*
X117289580Y-76166666D01*
X117289580Y-76166666D02*
X117337200Y-76119047D01*
X117337200Y-76119047D02*
X117384819Y-76023809D01*
X117384819Y-76023809D02*
X117384819Y-75928571D01*
X117384819Y-75928571D02*
X117337200Y-75833333D01*
X117337200Y-75833333D02*
X117289580Y-75785714D01*
X117289580Y-75785714D02*
X117194342Y-75738095D01*
X117194342Y-75738095D02*
X117003866Y-75690476D01*
X117003866Y-75690476D02*
X116765771Y-75690476D01*
X116765771Y-75690476D02*
X116575295Y-75738095D01*
X116575295Y-75738095D02*
X116480057Y-75785714D01*
X116480057Y-75785714D02*
X116432438Y-75833333D01*
X116432438Y-75833333D02*
X116384819Y-75928571D01*
X117384819Y-76690476D02*
X116384819Y-76690476D01*
X117384819Y-77261904D02*
X116813390Y-76833333D01*
X116384819Y-77261904D02*
X116956247Y-76690476D01*
D12*
X115681927Y-75742857D02*
X115491451Y-75609524D01*
X115681927Y-75514286D02*
X115281927Y-75514286D01*
X115281927Y-75514286D02*
X115281927Y-75666667D01*
X115281927Y-75666667D02*
X115300975Y-75704762D01*
X115300975Y-75704762D02*
X115320022Y-75723809D01*
X115320022Y-75723809D02*
X115358118Y-75742857D01*
X115358118Y-75742857D02*
X115415260Y-75742857D01*
X115415260Y-75742857D02*
X115453356Y-75723809D01*
X115453356Y-75723809D02*
X115472403Y-75704762D01*
X115472403Y-75704762D02*
X115491451Y-75666667D01*
X115491451Y-75666667D02*
X115491451Y-75514286D01*
X115681927Y-76123809D02*
X115681927Y-75895238D01*
X115681927Y-76009524D02*
X115281927Y-76009524D01*
X115281927Y-76009524D02*
X115339070Y-75971428D01*
X115339070Y-75971428D02*
X115377165Y-75933333D01*
X115377165Y-75933333D02*
X115396213Y-75895238D01*
X115320022Y-76276190D02*
X115300975Y-76295238D01*
X115300975Y-76295238D02*
X115281927Y-76333333D01*
X115281927Y-76333333D02*
X115281927Y-76428571D01*
X115281927Y-76428571D02*
X115300975Y-76466666D01*
X115300975Y-76466666D02*
X115320022Y-76485714D01*
X115320022Y-76485714D02*
X115358118Y-76504761D01*
X115358118Y-76504761D02*
X115396213Y-76504761D01*
X115396213Y-76504761D02*
X115453356Y-76485714D01*
X115453356Y-76485714D02*
X115681927Y-76257142D01*
X115681927Y-76257142D02*
X115681927Y-76504761D01*
D10*
X117334819Y-68309523D02*
X117334819Y-67738095D01*
X117334819Y-68023809D02*
X116334819Y-68023809D01*
X116334819Y-68023809D02*
X116477676Y-67928571D01*
X116477676Y-67928571D02*
X116572914Y-67833333D01*
X116572914Y-67833333D02*
X116620533Y-67738095D01*
X116334819Y-68928571D02*
X116334819Y-69023809D01*
X116334819Y-69023809D02*
X116382438Y-69119047D01*
X116382438Y-69119047D02*
X116430057Y-69166666D01*
X116430057Y-69166666D02*
X116525295Y-69214285D01*
X116525295Y-69214285D02*
X116715771Y-69261904D01*
X116715771Y-69261904D02*
X116953866Y-69261904D01*
X116953866Y-69261904D02*
X117144342Y-69214285D01*
X117144342Y-69214285D02*
X117239580Y-69166666D01*
X117239580Y-69166666D02*
X117287200Y-69119047D01*
X117287200Y-69119047D02*
X117334819Y-69023809D01*
X117334819Y-69023809D02*
X117334819Y-68928571D01*
X117334819Y-68928571D02*
X117287200Y-68833333D01*
X117287200Y-68833333D02*
X117239580Y-68785714D01*
X117239580Y-68785714D02*
X117144342Y-68738095D01*
X117144342Y-68738095D02*
X116953866Y-68690476D01*
X116953866Y-68690476D02*
X116715771Y-68690476D01*
X116715771Y-68690476D02*
X116525295Y-68738095D01*
X116525295Y-68738095D02*
X116430057Y-68785714D01*
X116430057Y-68785714D02*
X116382438Y-68833333D01*
X116382438Y-68833333D02*
X116334819Y-68928571D01*
X117334819Y-69690476D02*
X116334819Y-69690476D01*
X117334819Y-70261904D02*
X116763390Y-69833333D01*
X116334819Y-70261904D02*
X116906247Y-69690476D01*
D12*
X115631927Y-68742857D02*
X115441451Y-68609524D01*
X115631927Y-68514286D02*
X115231927Y-68514286D01*
X115231927Y-68514286D02*
X115231927Y-68666667D01*
X115231927Y-68666667D02*
X115250975Y-68704762D01*
X115250975Y-68704762D02*
X115270022Y-68723809D01*
X115270022Y-68723809D02*
X115308118Y-68742857D01*
X115308118Y-68742857D02*
X115365260Y-68742857D01*
X115365260Y-68742857D02*
X115403356Y-68723809D01*
X115403356Y-68723809D02*
X115422403Y-68704762D01*
X115422403Y-68704762D02*
X115441451Y-68666667D01*
X115441451Y-68666667D02*
X115441451Y-68514286D01*
X115631927Y-69123809D02*
X115631927Y-68895238D01*
X115631927Y-69009524D02*
X115231927Y-69009524D01*
X115231927Y-69009524D02*
X115289070Y-68971428D01*
X115289070Y-68971428D02*
X115327165Y-68933333D01*
X115327165Y-68933333D02*
X115346213Y-68895238D01*
X115365260Y-69466666D02*
X115631927Y-69466666D01*
X115212880Y-69371428D02*
X115498594Y-69276190D01*
X115498594Y-69276190D02*
X115498594Y-69523809D01*
D10*
X122734819Y-68409523D02*
X122734819Y-67838095D01*
X122734819Y-68123809D02*
X121734819Y-68123809D01*
X121734819Y-68123809D02*
X121877676Y-68028571D01*
X121877676Y-68028571D02*
X121972914Y-67933333D01*
X121972914Y-67933333D02*
X122020533Y-67838095D01*
X121734819Y-69028571D02*
X121734819Y-69123809D01*
X121734819Y-69123809D02*
X121782438Y-69219047D01*
X121782438Y-69219047D02*
X121830057Y-69266666D01*
X121830057Y-69266666D02*
X121925295Y-69314285D01*
X121925295Y-69314285D02*
X122115771Y-69361904D01*
X122115771Y-69361904D02*
X122353866Y-69361904D01*
X122353866Y-69361904D02*
X122544342Y-69314285D01*
X122544342Y-69314285D02*
X122639580Y-69266666D01*
X122639580Y-69266666D02*
X122687200Y-69219047D01*
X122687200Y-69219047D02*
X122734819Y-69123809D01*
X122734819Y-69123809D02*
X122734819Y-69028571D01*
X122734819Y-69028571D02*
X122687200Y-68933333D01*
X122687200Y-68933333D02*
X122639580Y-68885714D01*
X122639580Y-68885714D02*
X122544342Y-68838095D01*
X122544342Y-68838095D02*
X122353866Y-68790476D01*
X122353866Y-68790476D02*
X122115771Y-68790476D01*
X122115771Y-68790476D02*
X121925295Y-68838095D01*
X121925295Y-68838095D02*
X121830057Y-68885714D01*
X121830057Y-68885714D02*
X121782438Y-68933333D01*
X121782438Y-68933333D02*
X121734819Y-69028571D01*
X122734819Y-69790476D02*
X121734819Y-69790476D01*
X122734819Y-70361904D02*
X122163390Y-69933333D01*
X121734819Y-70361904D02*
X122306247Y-69790476D01*
D12*
X121031927Y-68842857D02*
X120841451Y-68709524D01*
X121031927Y-68614286D02*
X120631927Y-68614286D01*
X120631927Y-68614286D02*
X120631927Y-68766667D01*
X120631927Y-68766667D02*
X120650975Y-68804762D01*
X120650975Y-68804762D02*
X120670022Y-68823809D01*
X120670022Y-68823809D02*
X120708118Y-68842857D01*
X120708118Y-68842857D02*
X120765260Y-68842857D01*
X120765260Y-68842857D02*
X120803356Y-68823809D01*
X120803356Y-68823809D02*
X120822403Y-68804762D01*
X120822403Y-68804762D02*
X120841451Y-68766667D01*
X120841451Y-68766667D02*
X120841451Y-68614286D01*
X120670022Y-68995238D02*
X120650975Y-69014286D01*
X120650975Y-69014286D02*
X120631927Y-69052381D01*
X120631927Y-69052381D02*
X120631927Y-69147619D01*
X120631927Y-69147619D02*
X120650975Y-69185714D01*
X120650975Y-69185714D02*
X120670022Y-69204762D01*
X120670022Y-69204762D02*
X120708118Y-69223809D01*
X120708118Y-69223809D02*
X120746213Y-69223809D01*
X120746213Y-69223809D02*
X120803356Y-69204762D01*
X120803356Y-69204762D02*
X121031927Y-68976190D01*
X121031927Y-68976190D02*
X121031927Y-69223809D01*
X120631927Y-69357142D02*
X120631927Y-69604761D01*
X120631927Y-69604761D02*
X120784308Y-69471428D01*
X120784308Y-69471428D02*
X120784308Y-69528571D01*
X120784308Y-69528571D02*
X120803356Y-69566666D01*
X120803356Y-69566666D02*
X120822403Y-69585714D01*
X120822403Y-69585714D02*
X120860499Y-69604761D01*
X120860499Y-69604761D02*
X120955737Y-69604761D01*
X120955737Y-69604761D02*
X120993832Y-69585714D01*
X120993832Y-69585714D02*
X121012880Y-69566666D01*
X121012880Y-69566666D02*
X121031927Y-69528571D01*
X121031927Y-69528571D02*
X121031927Y-69414285D01*
X121031927Y-69414285D02*
X121012880Y-69376190D01*
X121012880Y-69376190D02*
X120993832Y-69357142D01*
D10*
X122734819Y-71759523D02*
X122734819Y-71188095D01*
X122734819Y-71473809D02*
X121734819Y-71473809D01*
X121734819Y-71473809D02*
X121877676Y-71378571D01*
X121877676Y-71378571D02*
X121972914Y-71283333D01*
X121972914Y-71283333D02*
X122020533Y-71188095D01*
X121734819Y-72378571D02*
X121734819Y-72473809D01*
X121734819Y-72473809D02*
X121782438Y-72569047D01*
X121782438Y-72569047D02*
X121830057Y-72616666D01*
X121830057Y-72616666D02*
X121925295Y-72664285D01*
X121925295Y-72664285D02*
X122115771Y-72711904D01*
X122115771Y-72711904D02*
X122353866Y-72711904D01*
X122353866Y-72711904D02*
X122544342Y-72664285D01*
X122544342Y-72664285D02*
X122639580Y-72616666D01*
X122639580Y-72616666D02*
X122687200Y-72569047D01*
X122687200Y-72569047D02*
X122734819Y-72473809D01*
X122734819Y-72473809D02*
X122734819Y-72378571D01*
X122734819Y-72378571D02*
X122687200Y-72283333D01*
X122687200Y-72283333D02*
X122639580Y-72235714D01*
X122639580Y-72235714D02*
X122544342Y-72188095D01*
X122544342Y-72188095D02*
X122353866Y-72140476D01*
X122353866Y-72140476D02*
X122115771Y-72140476D01*
X122115771Y-72140476D02*
X121925295Y-72188095D01*
X121925295Y-72188095D02*
X121830057Y-72235714D01*
X121830057Y-72235714D02*
X121782438Y-72283333D01*
X121782438Y-72283333D02*
X121734819Y-72378571D01*
X122734819Y-73140476D02*
X121734819Y-73140476D01*
X122734819Y-73711904D02*
X122163390Y-73283333D01*
X121734819Y-73711904D02*
X122306247Y-73140476D01*
D12*
X121031927Y-72192857D02*
X120841451Y-72059524D01*
X121031927Y-71964286D02*
X120631927Y-71964286D01*
X120631927Y-71964286D02*
X120631927Y-72116667D01*
X120631927Y-72116667D02*
X120650975Y-72154762D01*
X120650975Y-72154762D02*
X120670022Y-72173809D01*
X120670022Y-72173809D02*
X120708118Y-72192857D01*
X120708118Y-72192857D02*
X120765260Y-72192857D01*
X120765260Y-72192857D02*
X120803356Y-72173809D01*
X120803356Y-72173809D02*
X120822403Y-72154762D01*
X120822403Y-72154762D02*
X120841451Y-72116667D01*
X120841451Y-72116667D02*
X120841451Y-71964286D01*
X120670022Y-72345238D02*
X120650975Y-72364286D01*
X120650975Y-72364286D02*
X120631927Y-72402381D01*
X120631927Y-72402381D02*
X120631927Y-72497619D01*
X120631927Y-72497619D02*
X120650975Y-72535714D01*
X120650975Y-72535714D02*
X120670022Y-72554762D01*
X120670022Y-72554762D02*
X120708118Y-72573809D01*
X120708118Y-72573809D02*
X120746213Y-72573809D01*
X120746213Y-72573809D02*
X120803356Y-72554762D01*
X120803356Y-72554762D02*
X121031927Y-72326190D01*
X121031927Y-72326190D02*
X121031927Y-72573809D01*
X120670022Y-72726190D02*
X120650975Y-72745238D01*
X120650975Y-72745238D02*
X120631927Y-72783333D01*
X120631927Y-72783333D02*
X120631927Y-72878571D01*
X120631927Y-72878571D02*
X120650975Y-72916666D01*
X120650975Y-72916666D02*
X120670022Y-72935714D01*
X120670022Y-72935714D02*
X120708118Y-72954761D01*
X120708118Y-72954761D02*
X120746213Y-72954761D01*
X120746213Y-72954761D02*
X120803356Y-72935714D01*
X120803356Y-72935714D02*
X121031927Y-72707142D01*
X121031927Y-72707142D02*
X121031927Y-72954761D01*
D10*
X120472023Y-76731009D02*
X120329166Y-76778628D01*
X120329166Y-76778628D02*
X120281547Y-76826247D01*
X120281547Y-76826247D02*
X120233928Y-76921485D01*
X120233928Y-76921485D02*
X120233928Y-77064342D01*
X120233928Y-77064342D02*
X120281547Y-77159580D01*
X120281547Y-77159580D02*
X120329166Y-77207200D01*
X120329166Y-77207200D02*
X120424404Y-77254819D01*
X120424404Y-77254819D02*
X120805356Y-77254819D01*
X120805356Y-77254819D02*
X120805356Y-76254819D01*
X120805356Y-76254819D02*
X120472023Y-76254819D01*
X120472023Y-76254819D02*
X120376785Y-76302438D01*
X120376785Y-76302438D02*
X120329166Y-76350057D01*
X120329166Y-76350057D02*
X120281547Y-76445295D01*
X120281547Y-76445295D02*
X120281547Y-76540533D01*
X120281547Y-76540533D02*
X120329166Y-76635771D01*
X120329166Y-76635771D02*
X120376785Y-76683390D01*
X120376785Y-76683390D02*
X120472023Y-76731009D01*
X120472023Y-76731009D02*
X120805356Y-76731009D01*
X119852975Y-77207200D02*
X119710118Y-77254819D01*
X119710118Y-77254819D02*
X119472023Y-77254819D01*
X119472023Y-77254819D02*
X119376785Y-77207200D01*
X119376785Y-77207200D02*
X119329166Y-77159580D01*
X119329166Y-77159580D02*
X119281547Y-77064342D01*
X119281547Y-77064342D02*
X119281547Y-76969104D01*
X119281547Y-76969104D02*
X119329166Y-76873866D01*
X119329166Y-76873866D02*
X119376785Y-76826247D01*
X119376785Y-76826247D02*
X119472023Y-76778628D01*
X119472023Y-76778628D02*
X119662499Y-76731009D01*
X119662499Y-76731009D02*
X119757737Y-76683390D01*
X119757737Y-76683390D02*
X119805356Y-76635771D01*
X119805356Y-76635771D02*
X119852975Y-76540533D01*
X119852975Y-76540533D02*
X119852975Y-76445295D01*
X119852975Y-76445295D02*
X119805356Y-76350057D01*
X119805356Y-76350057D02*
X119757737Y-76302438D01*
X119757737Y-76302438D02*
X119662499Y-76254819D01*
X119662499Y-76254819D02*
X119424404Y-76254819D01*
X119424404Y-76254819D02*
X119281547Y-76302438D01*
X118900594Y-77207200D02*
X118757737Y-77254819D01*
X118757737Y-77254819D02*
X118519642Y-77254819D01*
X118519642Y-77254819D02*
X118424404Y-77207200D01*
X118424404Y-77207200D02*
X118376785Y-77159580D01*
X118376785Y-77159580D02*
X118329166Y-77064342D01*
X118329166Y-77064342D02*
X118329166Y-76969104D01*
X118329166Y-76969104D02*
X118376785Y-76873866D01*
X118376785Y-76873866D02*
X118424404Y-76826247D01*
X118424404Y-76826247D02*
X118519642Y-76778628D01*
X118519642Y-76778628D02*
X118710118Y-76731009D01*
X118710118Y-76731009D02*
X118805356Y-76683390D01*
X118805356Y-76683390D02*
X118852975Y-76635771D01*
X118852975Y-76635771D02*
X118900594Y-76540533D01*
X118900594Y-76540533D02*
X118900594Y-76445295D01*
X118900594Y-76445295D02*
X118852975Y-76350057D01*
X118852975Y-76350057D02*
X118805356Y-76302438D01*
X118805356Y-76302438D02*
X118710118Y-76254819D01*
X118710118Y-76254819D02*
X118472023Y-76254819D01*
X118472023Y-76254819D02*
X118329166Y-76302438D01*
X117376785Y-77254819D02*
X117948213Y-77254819D01*
X117662499Y-77254819D02*
X117662499Y-76254819D01*
X117662499Y-76254819D02*
X117757737Y-76397676D01*
X117757737Y-76397676D02*
X117852975Y-76492914D01*
X117852975Y-76492914D02*
X117948213Y-76540533D01*
X117043451Y-76254819D02*
X116424404Y-76254819D01*
X116424404Y-76254819D02*
X116757737Y-76635771D01*
X116757737Y-76635771D02*
X116614880Y-76635771D01*
X116614880Y-76635771D02*
X116519642Y-76683390D01*
X116519642Y-76683390D02*
X116472023Y-76731009D01*
X116472023Y-76731009D02*
X116424404Y-76826247D01*
X116424404Y-76826247D02*
X116424404Y-77064342D01*
X116424404Y-77064342D02*
X116472023Y-77159580D01*
X116472023Y-77159580D02*
X116519642Y-77207200D01*
X116519642Y-77207200D02*
X116614880Y-77254819D01*
X116614880Y-77254819D02*
X116900594Y-77254819D01*
X116900594Y-77254819D02*
X116995832Y-77207200D01*
X116995832Y-77207200D02*
X117043451Y-77159580D01*
X115852975Y-76683390D02*
X115948213Y-76635771D01*
X115948213Y-76635771D02*
X115995832Y-76588152D01*
X115995832Y-76588152D02*
X116043451Y-76492914D01*
X116043451Y-76492914D02*
X116043451Y-76445295D01*
X116043451Y-76445295D02*
X115995832Y-76350057D01*
X115995832Y-76350057D02*
X115948213Y-76302438D01*
X115948213Y-76302438D02*
X115852975Y-76254819D01*
X115852975Y-76254819D02*
X115662499Y-76254819D01*
X115662499Y-76254819D02*
X115567261Y-76302438D01*
X115567261Y-76302438D02*
X115519642Y-76350057D01*
X115519642Y-76350057D02*
X115472023Y-76445295D01*
X115472023Y-76445295D02*
X115472023Y-76492914D01*
X115472023Y-76492914D02*
X115519642Y-76588152D01*
X115519642Y-76588152D02*
X115567261Y-76635771D01*
X115567261Y-76635771D02*
X115662499Y-76683390D01*
X115662499Y-76683390D02*
X115852975Y-76683390D01*
X115852975Y-76683390D02*
X115948213Y-76731009D01*
X115948213Y-76731009D02*
X115995832Y-76778628D01*
X115995832Y-76778628D02*
X116043451Y-76873866D01*
X116043451Y-76873866D02*
X116043451Y-77064342D01*
X116043451Y-77064342D02*
X115995832Y-77159580D01*
X115995832Y-77159580D02*
X115948213Y-77207200D01*
X115948213Y-77207200D02*
X115852975Y-77254819D01*
X115852975Y-77254819D02*
X115662499Y-77254819D01*
X115662499Y-77254819D02*
X115567261Y-77207200D01*
X115567261Y-77207200D02*
X115519642Y-77159580D01*
X115519642Y-77159580D02*
X115472023Y-77064342D01*
X115472023Y-77064342D02*
X115472023Y-76873866D01*
X115472023Y-76873866D02*
X115519642Y-76778628D01*
X115519642Y-76778628D02*
X115567261Y-76731009D01*
X115567261Y-76731009D02*
X115662499Y-76683390D01*
D11*
X118192976Y-79375914D02*
X118223452Y-79360676D01*
X118223452Y-79360676D02*
X118253928Y-79330200D01*
X118253928Y-79330200D02*
X118299642Y-79284485D01*
X118299642Y-79284485D02*
X118330119Y-79269247D01*
X118330119Y-79269247D02*
X118360595Y-79269247D01*
X118345357Y-79345438D02*
X118375833Y-79330200D01*
X118375833Y-79330200D02*
X118406309Y-79299723D01*
X118406309Y-79299723D02*
X118421547Y-79238771D01*
X118421547Y-79238771D02*
X118421547Y-79132104D01*
X118421547Y-79132104D02*
X118406309Y-79071152D01*
X118406309Y-79071152D02*
X118375833Y-79040676D01*
X118375833Y-79040676D02*
X118345357Y-79025438D01*
X118345357Y-79025438D02*
X118284404Y-79025438D01*
X118284404Y-79025438D02*
X118253928Y-79040676D01*
X118253928Y-79040676D02*
X118223452Y-79071152D01*
X118223452Y-79071152D02*
X118208214Y-79132104D01*
X118208214Y-79132104D02*
X118208214Y-79238771D01*
X118208214Y-79238771D02*
X118223452Y-79299723D01*
X118223452Y-79299723D02*
X118253928Y-79330200D01*
X118253928Y-79330200D02*
X118284404Y-79345438D01*
X118284404Y-79345438D02*
X118345357Y-79345438D01*
X118101547Y-79025438D02*
X117903452Y-79025438D01*
X117903452Y-79025438D02*
X118010119Y-79147342D01*
X118010119Y-79147342D02*
X117964404Y-79147342D01*
X117964404Y-79147342D02*
X117933928Y-79162580D01*
X117933928Y-79162580D02*
X117918690Y-79177819D01*
X117918690Y-79177819D02*
X117903452Y-79208295D01*
X117903452Y-79208295D02*
X117903452Y-79284485D01*
X117903452Y-79284485D02*
X117918690Y-79314961D01*
X117918690Y-79314961D02*
X117933928Y-79330200D01*
X117933928Y-79330200D02*
X117964404Y-79345438D01*
X117964404Y-79345438D02*
X118055833Y-79345438D01*
X118055833Y-79345438D02*
X118086309Y-79330200D01*
X118086309Y-79330200D02*
X118101547Y-79314961D01*
D10*
X120472023Y-73331009D02*
X120329166Y-73378628D01*
X120329166Y-73378628D02*
X120281547Y-73426247D01*
X120281547Y-73426247D02*
X120233928Y-73521485D01*
X120233928Y-73521485D02*
X120233928Y-73664342D01*
X120233928Y-73664342D02*
X120281547Y-73759580D01*
X120281547Y-73759580D02*
X120329166Y-73807200D01*
X120329166Y-73807200D02*
X120424404Y-73854819D01*
X120424404Y-73854819D02*
X120805356Y-73854819D01*
X120805356Y-73854819D02*
X120805356Y-72854819D01*
X120805356Y-72854819D02*
X120472023Y-72854819D01*
X120472023Y-72854819D02*
X120376785Y-72902438D01*
X120376785Y-72902438D02*
X120329166Y-72950057D01*
X120329166Y-72950057D02*
X120281547Y-73045295D01*
X120281547Y-73045295D02*
X120281547Y-73140533D01*
X120281547Y-73140533D02*
X120329166Y-73235771D01*
X120329166Y-73235771D02*
X120376785Y-73283390D01*
X120376785Y-73283390D02*
X120472023Y-73331009D01*
X120472023Y-73331009D02*
X120805356Y-73331009D01*
X119852975Y-73807200D02*
X119710118Y-73854819D01*
X119710118Y-73854819D02*
X119472023Y-73854819D01*
X119472023Y-73854819D02*
X119376785Y-73807200D01*
X119376785Y-73807200D02*
X119329166Y-73759580D01*
X119329166Y-73759580D02*
X119281547Y-73664342D01*
X119281547Y-73664342D02*
X119281547Y-73569104D01*
X119281547Y-73569104D02*
X119329166Y-73473866D01*
X119329166Y-73473866D02*
X119376785Y-73426247D01*
X119376785Y-73426247D02*
X119472023Y-73378628D01*
X119472023Y-73378628D02*
X119662499Y-73331009D01*
X119662499Y-73331009D02*
X119757737Y-73283390D01*
X119757737Y-73283390D02*
X119805356Y-73235771D01*
X119805356Y-73235771D02*
X119852975Y-73140533D01*
X119852975Y-73140533D02*
X119852975Y-73045295D01*
X119852975Y-73045295D02*
X119805356Y-72950057D01*
X119805356Y-72950057D02*
X119757737Y-72902438D01*
X119757737Y-72902438D02*
X119662499Y-72854819D01*
X119662499Y-72854819D02*
X119424404Y-72854819D01*
X119424404Y-72854819D02*
X119281547Y-72902438D01*
X118900594Y-73807200D02*
X118757737Y-73854819D01*
X118757737Y-73854819D02*
X118519642Y-73854819D01*
X118519642Y-73854819D02*
X118424404Y-73807200D01*
X118424404Y-73807200D02*
X118376785Y-73759580D01*
X118376785Y-73759580D02*
X118329166Y-73664342D01*
X118329166Y-73664342D02*
X118329166Y-73569104D01*
X118329166Y-73569104D02*
X118376785Y-73473866D01*
X118376785Y-73473866D02*
X118424404Y-73426247D01*
X118424404Y-73426247D02*
X118519642Y-73378628D01*
X118519642Y-73378628D02*
X118710118Y-73331009D01*
X118710118Y-73331009D02*
X118805356Y-73283390D01*
X118805356Y-73283390D02*
X118852975Y-73235771D01*
X118852975Y-73235771D02*
X118900594Y-73140533D01*
X118900594Y-73140533D02*
X118900594Y-73045295D01*
X118900594Y-73045295D02*
X118852975Y-72950057D01*
X118852975Y-72950057D02*
X118805356Y-72902438D01*
X118805356Y-72902438D02*
X118710118Y-72854819D01*
X118710118Y-72854819D02*
X118472023Y-72854819D01*
X118472023Y-72854819D02*
X118329166Y-72902438D01*
X117376785Y-73854819D02*
X117948213Y-73854819D01*
X117662499Y-73854819D02*
X117662499Y-72854819D01*
X117662499Y-72854819D02*
X117757737Y-72997676D01*
X117757737Y-72997676D02*
X117852975Y-73092914D01*
X117852975Y-73092914D02*
X117948213Y-73140533D01*
X117043451Y-72854819D02*
X116424404Y-72854819D01*
X116424404Y-72854819D02*
X116757737Y-73235771D01*
X116757737Y-73235771D02*
X116614880Y-73235771D01*
X116614880Y-73235771D02*
X116519642Y-73283390D01*
X116519642Y-73283390D02*
X116472023Y-73331009D01*
X116472023Y-73331009D02*
X116424404Y-73426247D01*
X116424404Y-73426247D02*
X116424404Y-73664342D01*
X116424404Y-73664342D02*
X116472023Y-73759580D01*
X116472023Y-73759580D02*
X116519642Y-73807200D01*
X116519642Y-73807200D02*
X116614880Y-73854819D01*
X116614880Y-73854819D02*
X116900594Y-73854819D01*
X116900594Y-73854819D02*
X116995832Y-73807200D01*
X116995832Y-73807200D02*
X117043451Y-73759580D01*
X115852975Y-73283390D02*
X115948213Y-73235771D01*
X115948213Y-73235771D02*
X115995832Y-73188152D01*
X115995832Y-73188152D02*
X116043451Y-73092914D01*
X116043451Y-73092914D02*
X116043451Y-73045295D01*
X116043451Y-73045295D02*
X115995832Y-72950057D01*
X115995832Y-72950057D02*
X115948213Y-72902438D01*
X115948213Y-72902438D02*
X115852975Y-72854819D01*
X115852975Y-72854819D02*
X115662499Y-72854819D01*
X115662499Y-72854819D02*
X115567261Y-72902438D01*
X115567261Y-72902438D02*
X115519642Y-72950057D01*
X115519642Y-72950057D02*
X115472023Y-73045295D01*
X115472023Y-73045295D02*
X115472023Y-73092914D01*
X115472023Y-73092914D02*
X115519642Y-73188152D01*
X115519642Y-73188152D02*
X115567261Y-73235771D01*
X115567261Y-73235771D02*
X115662499Y-73283390D01*
X115662499Y-73283390D02*
X115852975Y-73283390D01*
X115852975Y-73283390D02*
X115948213Y-73331009D01*
X115948213Y-73331009D02*
X115995832Y-73378628D01*
X115995832Y-73378628D02*
X116043451Y-73473866D01*
X116043451Y-73473866D02*
X116043451Y-73664342D01*
X116043451Y-73664342D02*
X115995832Y-73759580D01*
X115995832Y-73759580D02*
X115948213Y-73807200D01*
X115948213Y-73807200D02*
X115852975Y-73854819D01*
X115852975Y-73854819D02*
X115662499Y-73854819D01*
X115662499Y-73854819D02*
X115567261Y-73807200D01*
X115567261Y-73807200D02*
X115519642Y-73759580D01*
X115519642Y-73759580D02*
X115472023Y-73664342D01*
X115472023Y-73664342D02*
X115472023Y-73473866D01*
X115472023Y-73473866D02*
X115519642Y-73378628D01*
X115519642Y-73378628D02*
X115567261Y-73331009D01*
X115567261Y-73331009D02*
X115662499Y-73283390D01*
D11*
X118192976Y-75975914D02*
X118223452Y-75960676D01*
X118223452Y-75960676D02*
X118253928Y-75930200D01*
X118253928Y-75930200D02*
X118299642Y-75884485D01*
X118299642Y-75884485D02*
X118330119Y-75869247D01*
X118330119Y-75869247D02*
X118360595Y-75869247D01*
X118345357Y-75945438D02*
X118375833Y-75930200D01*
X118375833Y-75930200D02*
X118406309Y-75899723D01*
X118406309Y-75899723D02*
X118421547Y-75838771D01*
X118421547Y-75838771D02*
X118421547Y-75732104D01*
X118421547Y-75732104D02*
X118406309Y-75671152D01*
X118406309Y-75671152D02*
X118375833Y-75640676D01*
X118375833Y-75640676D02*
X118345357Y-75625438D01*
X118345357Y-75625438D02*
X118284404Y-75625438D01*
X118284404Y-75625438D02*
X118253928Y-75640676D01*
X118253928Y-75640676D02*
X118223452Y-75671152D01*
X118223452Y-75671152D02*
X118208214Y-75732104D01*
X118208214Y-75732104D02*
X118208214Y-75838771D01*
X118208214Y-75838771D02*
X118223452Y-75899723D01*
X118223452Y-75899723D02*
X118253928Y-75930200D01*
X118253928Y-75930200D02*
X118284404Y-75945438D01*
X118284404Y-75945438D02*
X118345357Y-75945438D01*
X117933928Y-75732104D02*
X117933928Y-75945438D01*
X118010119Y-75610200D02*
X118086309Y-75838771D01*
X118086309Y-75838771D02*
X117888214Y-75838771D01*
D10*
X117384819Y-71972023D02*
X117384819Y-71400595D01*
X117384819Y-71686309D02*
X116384819Y-71686309D01*
X116384819Y-71686309D02*
X116527676Y-71591071D01*
X116527676Y-71591071D02*
X116622914Y-71495833D01*
X116622914Y-71495833D02*
X116670533Y-71400595D01*
X116384819Y-72591071D02*
X116384819Y-72686309D01*
X116384819Y-72686309D02*
X116432438Y-72781547D01*
X116432438Y-72781547D02*
X116480057Y-72829166D01*
X116480057Y-72829166D02*
X116575295Y-72876785D01*
X116575295Y-72876785D02*
X116765771Y-72924404D01*
X116765771Y-72924404D02*
X117003866Y-72924404D01*
X117003866Y-72924404D02*
X117194342Y-72876785D01*
X117194342Y-72876785D02*
X117289580Y-72829166D01*
X117289580Y-72829166D02*
X117337200Y-72781547D01*
X117337200Y-72781547D02*
X117384819Y-72686309D01*
X117384819Y-72686309D02*
X117384819Y-72591071D01*
X117384819Y-72591071D02*
X117337200Y-72495833D01*
X117337200Y-72495833D02*
X117289580Y-72448214D01*
X117289580Y-72448214D02*
X117194342Y-72400595D01*
X117194342Y-72400595D02*
X117003866Y-72352976D01*
X117003866Y-72352976D02*
X116765771Y-72352976D01*
X116765771Y-72352976D02*
X116575295Y-72400595D01*
X116575295Y-72400595D02*
X116480057Y-72448214D01*
X116480057Y-72448214D02*
X116432438Y-72495833D01*
X116432438Y-72495833D02*
X116384819Y-72591071D01*
X117384819Y-73352976D02*
X116384819Y-73352976D01*
X117384819Y-73924404D02*
X116813390Y-73495833D01*
X116384819Y-73924404D02*
X116956247Y-73352976D01*
D12*
X115681927Y-72405357D02*
X115491451Y-72272024D01*
X115681927Y-72176786D02*
X115281927Y-72176786D01*
X115281927Y-72176786D02*
X115281927Y-72329167D01*
X115281927Y-72329167D02*
X115300975Y-72367262D01*
X115300975Y-72367262D02*
X115320022Y-72386309D01*
X115320022Y-72386309D02*
X115358118Y-72405357D01*
X115358118Y-72405357D02*
X115415260Y-72405357D01*
X115415260Y-72405357D02*
X115453356Y-72386309D01*
X115453356Y-72386309D02*
X115472403Y-72367262D01*
X115472403Y-72367262D02*
X115491451Y-72329167D01*
X115491451Y-72329167D02*
X115491451Y-72176786D01*
X115681927Y-72786309D02*
X115681927Y-72557738D01*
X115681927Y-72672024D02*
X115281927Y-72672024D01*
X115281927Y-72672024D02*
X115339070Y-72633928D01*
X115339070Y-72633928D02*
X115377165Y-72595833D01*
X115377165Y-72595833D02*
X115396213Y-72557738D01*
X115281927Y-72919642D02*
X115281927Y-73167261D01*
X115281927Y-73167261D02*
X115434308Y-73033928D01*
X115434308Y-73033928D02*
X115434308Y-73091071D01*
X115434308Y-73091071D02*
X115453356Y-73129166D01*
X115453356Y-73129166D02*
X115472403Y-73148214D01*
X115472403Y-73148214D02*
X115510499Y-73167261D01*
X115510499Y-73167261D02*
X115605737Y-73167261D01*
X115605737Y-73167261D02*
X115643832Y-73148214D01*
X115643832Y-73148214D02*
X115662880Y-73129166D01*
X115662880Y-73129166D02*
X115681927Y-73091071D01*
X115681927Y-73091071D02*
X115681927Y-72976785D01*
X115681927Y-72976785D02*
X115662880Y-72938690D01*
X115662880Y-72938690D02*
X115643832Y-72919642D01*
D10*
X117384819Y-78609523D02*
X117384819Y-78038095D01*
X117384819Y-78323809D02*
X116384819Y-78323809D01*
X116384819Y-78323809D02*
X116527676Y-78228571D01*
X116527676Y-78228571D02*
X116622914Y-78133333D01*
X116622914Y-78133333D02*
X116670533Y-78038095D01*
X116384819Y-79228571D02*
X116384819Y-79323809D01*
X116384819Y-79323809D02*
X116432438Y-79419047D01*
X116432438Y-79419047D02*
X116480057Y-79466666D01*
X116480057Y-79466666D02*
X116575295Y-79514285D01*
X116575295Y-79514285D02*
X116765771Y-79561904D01*
X116765771Y-79561904D02*
X117003866Y-79561904D01*
X117003866Y-79561904D02*
X117194342Y-79514285D01*
X117194342Y-79514285D02*
X117289580Y-79466666D01*
X117289580Y-79466666D02*
X117337200Y-79419047D01*
X117337200Y-79419047D02*
X117384819Y-79323809D01*
X117384819Y-79323809D02*
X117384819Y-79228571D01*
X117384819Y-79228571D02*
X117337200Y-79133333D01*
X117337200Y-79133333D02*
X117289580Y-79085714D01*
X117289580Y-79085714D02*
X117194342Y-79038095D01*
X117194342Y-79038095D02*
X117003866Y-78990476D01*
X117003866Y-78990476D02*
X116765771Y-78990476D01*
X116765771Y-78990476D02*
X116575295Y-79038095D01*
X116575295Y-79038095D02*
X116480057Y-79085714D01*
X116480057Y-79085714D02*
X116432438Y-79133333D01*
X116432438Y-79133333D02*
X116384819Y-79228571D01*
X117384819Y-79990476D02*
X116384819Y-79990476D01*
X117384819Y-80561904D02*
X116813390Y-80133333D01*
X116384819Y-80561904D02*
X116956247Y-79990476D01*
D12*
X115681927Y-79042857D02*
X115491451Y-78909524D01*
X115681927Y-78814286D02*
X115281927Y-78814286D01*
X115281927Y-78814286D02*
X115281927Y-78966667D01*
X115281927Y-78966667D02*
X115300975Y-79004762D01*
X115300975Y-79004762D02*
X115320022Y-79023809D01*
X115320022Y-79023809D02*
X115358118Y-79042857D01*
X115358118Y-79042857D02*
X115415260Y-79042857D01*
X115415260Y-79042857D02*
X115453356Y-79023809D01*
X115453356Y-79023809D02*
X115472403Y-79004762D01*
X115472403Y-79004762D02*
X115491451Y-78966667D01*
X115491451Y-78966667D02*
X115491451Y-78814286D01*
X115681927Y-79423809D02*
X115681927Y-79195238D01*
X115681927Y-79309524D02*
X115281927Y-79309524D01*
X115281927Y-79309524D02*
X115339070Y-79271428D01*
X115339070Y-79271428D02*
X115377165Y-79233333D01*
X115377165Y-79233333D02*
X115396213Y-79195238D01*
X115681927Y-79804761D02*
X115681927Y-79576190D01*
X115681927Y-79690476D02*
X115281927Y-79690476D01*
X115281927Y-79690476D02*
X115339070Y-79652380D01*
X115339070Y-79652380D02*
X115377165Y-79614285D01*
X115377165Y-79614285D02*
X115396213Y-79576190D01*
D10*
X122759819Y-78409523D02*
X122759819Y-77838095D01*
X122759819Y-78123809D02*
X121759819Y-78123809D01*
X121759819Y-78123809D02*
X121902676Y-78028571D01*
X121902676Y-78028571D02*
X121997914Y-77933333D01*
X121997914Y-77933333D02*
X122045533Y-77838095D01*
X121759819Y-79028571D02*
X121759819Y-79123809D01*
X121759819Y-79123809D02*
X121807438Y-79219047D01*
X121807438Y-79219047D02*
X121855057Y-79266666D01*
X121855057Y-79266666D02*
X121950295Y-79314285D01*
X121950295Y-79314285D02*
X122140771Y-79361904D01*
X122140771Y-79361904D02*
X122378866Y-79361904D01*
X122378866Y-79361904D02*
X122569342Y-79314285D01*
X122569342Y-79314285D02*
X122664580Y-79266666D01*
X122664580Y-79266666D02*
X122712200Y-79219047D01*
X122712200Y-79219047D02*
X122759819Y-79123809D01*
X122759819Y-79123809D02*
X122759819Y-79028571D01*
X122759819Y-79028571D02*
X122712200Y-78933333D01*
X122712200Y-78933333D02*
X122664580Y-78885714D01*
X122664580Y-78885714D02*
X122569342Y-78838095D01*
X122569342Y-78838095D02*
X122378866Y-78790476D01*
X122378866Y-78790476D02*
X122140771Y-78790476D01*
X122140771Y-78790476D02*
X121950295Y-78838095D01*
X121950295Y-78838095D02*
X121855057Y-78885714D01*
X121855057Y-78885714D02*
X121807438Y-78933333D01*
X121807438Y-78933333D02*
X121759819Y-79028571D01*
X122759819Y-79790476D02*
X121759819Y-79790476D01*
X122759819Y-80361904D02*
X122188390Y-79933333D01*
X121759819Y-80361904D02*
X122331247Y-79790476D01*
D12*
X121056927Y-78842857D02*
X120866451Y-78709524D01*
X121056927Y-78614286D02*
X120656927Y-78614286D01*
X120656927Y-78614286D02*
X120656927Y-78766667D01*
X120656927Y-78766667D02*
X120675975Y-78804762D01*
X120675975Y-78804762D02*
X120695022Y-78823809D01*
X120695022Y-78823809D02*
X120733118Y-78842857D01*
X120733118Y-78842857D02*
X120790260Y-78842857D01*
X120790260Y-78842857D02*
X120828356Y-78823809D01*
X120828356Y-78823809D02*
X120847403Y-78804762D01*
X120847403Y-78804762D02*
X120866451Y-78766667D01*
X120866451Y-78766667D02*
X120866451Y-78614286D01*
X120695022Y-78995238D02*
X120675975Y-79014286D01*
X120675975Y-79014286D02*
X120656927Y-79052381D01*
X120656927Y-79052381D02*
X120656927Y-79147619D01*
X120656927Y-79147619D02*
X120675975Y-79185714D01*
X120675975Y-79185714D02*
X120695022Y-79204762D01*
X120695022Y-79204762D02*
X120733118Y-79223809D01*
X120733118Y-79223809D02*
X120771213Y-79223809D01*
X120771213Y-79223809D02*
X120828356Y-79204762D01*
X120828356Y-79204762D02*
X121056927Y-78976190D01*
X121056927Y-78976190D02*
X121056927Y-79223809D01*
X120656927Y-79471428D02*
X120656927Y-79509523D01*
X120656927Y-79509523D02*
X120675975Y-79547619D01*
X120675975Y-79547619D02*
X120695022Y-79566666D01*
X120695022Y-79566666D02*
X120733118Y-79585714D01*
X120733118Y-79585714D02*
X120809308Y-79604761D01*
X120809308Y-79604761D02*
X120904546Y-79604761D01*
X120904546Y-79604761D02*
X120980737Y-79585714D01*
X120980737Y-79585714D02*
X121018832Y-79566666D01*
X121018832Y-79566666D02*
X121037880Y-79547619D01*
X121037880Y-79547619D02*
X121056927Y-79509523D01*
X121056927Y-79509523D02*
X121056927Y-79471428D01*
X121056927Y-79471428D02*
X121037880Y-79433333D01*
X121037880Y-79433333D02*
X121018832Y-79414285D01*
X121018832Y-79414285D02*
X120980737Y-79395238D01*
X120980737Y-79395238D02*
X120904546Y-79376190D01*
X120904546Y-79376190D02*
X120809308Y-79376190D01*
X120809308Y-79376190D02*
X120733118Y-79395238D01*
X120733118Y-79395238D02*
X120695022Y-79414285D01*
X120695022Y-79414285D02*
X120675975Y-79433333D01*
X120675975Y-79433333D02*
X120656927Y-79471428D01*
D13*
%TO.C,Q6*%
X117512500Y-67550000D02*
X117512500Y-70125000D01*
X117512500Y-70125000D02*
X117837500Y-70450000D01*
X117837500Y-70450000D02*
X118812500Y-70450000D01*
X118812500Y-67550000D02*
X117512500Y-67550000D01*
X118812500Y-70450000D02*
X118812500Y-67550000D01*
%TO.C,R21*%
X121287500Y-74975000D02*
X120462500Y-74975000D01*
X120462500Y-74975000D02*
X120462500Y-76575000D01*
X121287500Y-76575000D02*
X121287500Y-74975000D01*
X120462500Y-76575000D02*
X121287500Y-76575000D01*
%TO.C,Q5*%
X117512500Y-70950000D02*
X117512500Y-73525000D01*
X117512500Y-73525000D02*
X117837500Y-73850000D01*
X117837500Y-73850000D02*
X118812500Y-73850000D01*
X118812500Y-70950000D02*
X117512500Y-70950000D01*
X118812500Y-73850000D02*
X118812500Y-70950000D01*
%TO.C,R12*%
X115912500Y-75200000D02*
X115087500Y-75200000D01*
X115087500Y-75200000D02*
X115087500Y-76800000D01*
X115912500Y-76800000D02*
X115912500Y-75200000D01*
X115087500Y-76800000D02*
X115912500Y-76800000D01*
%TO.C,R14*%
X115862500Y-68200000D02*
X115037500Y-68200000D01*
X115037500Y-68200000D02*
X115037500Y-69800000D01*
X115862500Y-69800000D02*
X115862500Y-68200000D01*
X115037500Y-69800000D02*
X115862500Y-69800000D01*
%TO.C,R23*%
X121262500Y-68300000D02*
X120437500Y-68300000D01*
X120437500Y-68300000D02*
X120437500Y-69900000D01*
X121262500Y-69900000D02*
X121262500Y-68300000D01*
X120437500Y-69900000D02*
X121262500Y-69900000D01*
%TO.C,R22*%
X121262500Y-71650000D02*
X120437500Y-71650000D01*
X120437500Y-71650000D02*
X120437500Y-73250000D01*
X121262500Y-73250000D02*
X121262500Y-71650000D01*
X120437500Y-73250000D02*
X121262500Y-73250000D01*
%TO.C,Q3*%
X117512500Y-77750000D02*
X117512500Y-80325000D01*
X117512500Y-80325000D02*
X117837500Y-80650000D01*
X117837500Y-80650000D02*
X118812500Y-80650000D01*
X118812500Y-77750000D02*
X117512500Y-77750000D01*
X118812500Y-80650000D02*
X118812500Y-77750000D01*
%TO.C,Q4*%
X117512500Y-74350000D02*
X117512500Y-76925000D01*
X117512500Y-76925000D02*
X117837500Y-77250000D01*
X117837500Y-77250000D02*
X118812500Y-77250000D01*
X118812500Y-74350000D02*
X117512500Y-74350000D01*
X118812500Y-77250000D02*
X118812500Y-74350000D01*
%TO.C,R13*%
X115912500Y-71862500D02*
X115087500Y-71862500D01*
X115087500Y-71862500D02*
X115087500Y-73462500D01*
X115912500Y-73462500D02*
X115912500Y-71862500D01*
X115087500Y-73462500D02*
X115912500Y-73462500D01*
%TO.C,R11*%
X115912500Y-78500000D02*
X115087500Y-78500000D01*
X115087500Y-78500000D02*
X115087500Y-80100000D01*
X115912500Y-80100000D02*
X115912500Y-78500000D01*
X115087500Y-80100000D02*
X115912500Y-80100000D01*
%TO.C,R20*%
X121287500Y-78300000D02*
X120462500Y-78300000D01*
X120462500Y-78300000D02*
X120462500Y-79900000D01*
X121287500Y-79900000D02*
X121287500Y-78300000D01*
X120462500Y-79900000D02*
X121287500Y-79900000D01*
%TD*%
M02*
