%TF.GenerationSoftware,KiCad,Pcbnew,7.0.10*%
%TF.CreationDate,2024-04-20T18:17:20+05:30*%
%TF.ProjectId,rp2040-basic-m1,72703230-3430-42d6-9261-7369632d6d31,V2.2.5*%
%TF.SameCoordinates,Original*%
%TF.FileFunction,Soldermask,Top*%
%TF.FilePolarity,Negative*%
%FSLAX46Y46*%
G04 Gerber Fmt 4.6, Leading zero omitted, Abs format (unit mm)*
G04 Created by KiCad (PCBNEW 7.0.10) date 2024-04-20 18:17:20*
%MOMM*%
%LPD*%
G01*
G04 APERTURE LIST*
G04 Aperture macros list*
%AMRoundRect*
0 Rectangle with rounded corners*
0 $1 Rounding radius*
0 $2 $3 $4 $5 $6 $7 $8 $9 X,Y pos of 4 corners*
0 Add a 4 corners polygon primitive as box body*
4,1,4,$2,$3,$4,$5,$6,$7,$8,$9,$2,$3,0*
0 Add four circle primitives for the rounded corners*
1,1,$1+$1,$2,$3*
1,1,$1+$1,$4,$5*
1,1,$1+$1,$6,$7*
1,1,$1+$1,$8,$9*
0 Add four rect primitives between the rounded corners*
20,1,$1+$1,$2,$3,$4,$5,0*
20,1,$1+$1,$4,$5,$6,$7,0*
20,1,$1+$1,$6,$7,$8,$9,0*
20,1,$1+$1,$8,$9,$2,$3,0*%
%AMFreePoly0*
4,1,19,0.500000,-0.750000,0.000000,-0.750000,0.000000,-0.744911,-0.071157,-0.744911,-0.207708,-0.704816,-0.327430,-0.627875,-0.420627,-0.520320,-0.479746,-0.390866,-0.500000,-0.250000,-0.500000,0.250000,-0.479746,0.390866,-0.420627,0.520320,-0.327430,0.627875,-0.207708,0.704816,-0.071157,0.744911,0.000000,0.744911,0.000000,0.750000,0.500000,0.750000,0.500000,-0.750000,0.500000,-0.750000,
$1*%
%AMFreePoly1*
4,1,19,0.000000,0.744911,0.071157,0.744911,0.207708,0.704816,0.327430,0.627875,0.420627,0.520320,0.479746,0.390866,0.500000,0.250000,0.500000,-0.250000,0.479746,-0.390866,0.420627,-0.520320,0.327430,-0.627875,0.207708,-0.704816,0.071157,-0.744911,0.000000,-0.744911,0.000000,-0.750000,-0.500000,-0.750000,-0.500000,0.750000,0.000000,0.750000,0.000000,0.744911,0.000000,0.744911,
$1*%
G04 Aperture macros list end*
%ADD10R,1.700000X1.000000*%
%ADD11RoundRect,0.237500X0.300000X0.237500X-0.300000X0.237500X-0.300000X-0.237500X0.300000X-0.237500X0*%
%ADD12R,2.000000X1.500000*%
%ADD13R,2.000000X3.800000*%
%ADD14R,1.700000X1.700000*%
%ADD15O,1.700000X1.700000*%
%ADD16C,2.700000*%
%ADD17RoundRect,0.237500X-0.237500X0.250000X-0.237500X-0.250000X0.237500X-0.250000X0.237500X0.250000X0*%
%ADD18R,1.000000X1.500000*%
%ADD19RoundRect,0.150000X-0.587500X-0.150000X0.587500X-0.150000X0.587500X0.150000X-0.587500X0.150000X0*%
%ADD20RoundRect,0.237500X0.380070X-0.044194X-0.044194X0.380070X-0.380070X0.044194X0.044194X-0.380070X0*%
%ADD21RoundRect,0.237500X0.237500X-0.250000X0.237500X0.250000X-0.237500X0.250000X-0.237500X-0.250000X0*%
%ADD22RoundRect,0.237500X-0.300000X-0.237500X0.300000X-0.237500X0.300000X0.237500X-0.300000X0.237500X0*%
%ADD23RoundRect,0.150000X-0.150000X0.587500X-0.150000X-0.587500X0.150000X-0.587500X0.150000X0.587500X0*%
%ADD24R,1.400000X1.200000*%
%ADD25FreePoly0,0.000000*%
%ADD26FreePoly1,0.000000*%
%ADD27RoundRect,0.250001X-0.462499X-0.624999X0.462499X-0.624999X0.462499X0.624999X-0.462499X0.624999X0*%
%ADD28RoundRect,0.237500X0.237500X-0.300000X0.237500X0.300000X-0.237500X0.300000X-0.237500X-0.300000X0*%
%ADD29RoundRect,0.237500X-0.380070X0.044194X0.044194X-0.380070X0.380070X-0.044194X-0.044194X0.380070X0*%
%ADD30FreePoly0,180.000000*%
%ADD31FreePoly1,180.000000*%
%ADD32FreePoly0,90.000000*%
%ADD33FreePoly1,90.000000*%
%ADD34RoundRect,0.102000X-0.300000X-0.775000X0.300000X-0.775000X0.300000X0.775000X-0.300000X0.775000X0*%
%ADD35RoundRect,0.102000X0.600000X0.900000X-0.600000X0.900000X-0.600000X-0.900000X0.600000X-0.900000X0*%
%ADD36RoundRect,0.250000X0.450000X-0.325000X0.450000X0.325000X-0.450000X0.325000X-0.450000X-0.325000X0*%
%ADD37RoundRect,0.237500X0.008839X0.344715X-0.344715X-0.008839X-0.008839X-0.344715X0.344715X0.008839X0*%
%ADD38RoundRect,0.050000X-0.387500X-0.050000X0.387500X-0.050000X0.387500X0.050000X-0.387500X0.050000X0*%
%ADD39RoundRect,0.050000X-0.050000X-0.387500X0.050000X-0.387500X0.050000X0.387500X-0.050000X0.387500X0*%
%ADD40R,3.200000X3.200000*%
%ADD41C,0.650000*%
%ADD42R,0.600000X1.240000*%
%ADD43R,0.300000X1.240000*%
%ADD44O,1.000000X2.100000*%
%ADD45O,1.000000X1.800000*%
%ADD46RoundRect,0.237500X-0.237500X0.300000X-0.237500X-0.300000X0.237500X-0.300000X0.237500X0.300000X0*%
%ADD47RoundRect,0.250000X-0.450000X0.325000X-0.450000X-0.325000X0.450000X-0.325000X0.450000X0.325000X0*%
%ADD48RoundRect,0.150000X-0.650000X-0.150000X0.650000X-0.150000X0.650000X0.150000X-0.650000X0.150000X0*%
%ADD49R,0.900000X1.500000*%
%ADD50R,3.500000X3.500000*%
%ADD51RoundRect,0.750000X-1.000000X0.750000X-1.000000X-0.750000X1.000000X-0.750000X1.000000X0.750000X0*%
%ADD52RoundRect,0.875000X-0.875000X0.875000X-0.875000X-0.875000X0.875000X-0.875000X0.875000X0.875000X0*%
%ADD53RoundRect,0.250000X0.800000X-0.450000X0.800000X0.450000X-0.800000X0.450000X-0.800000X-0.450000X0*%
G04 APERTURE END LIST*
D10*
%TO.C,SW2*%
X85800000Y-23910500D03*
X92100000Y-23910500D03*
X85800000Y-27710500D03*
X92100000Y-27710500D03*
%TD*%
D11*
%TO.C,C6*%
X85692500Y-47640000D03*
X83967500Y-47640000D03*
%TD*%
D12*
%TO.C,U2*%
X114650000Y-32300000D03*
X114650000Y-34600000D03*
D13*
X120950000Y-34600000D03*
D12*
X114650000Y-36900000D03*
%TD*%
D14*
%TO.C,J7*%
X107850000Y-71680500D03*
D15*
X107850000Y-74220500D03*
X107850000Y-76760500D03*
X107850000Y-79300500D03*
X107850000Y-81840500D03*
X107850000Y-84380500D03*
%TD*%
D16*
%TO.C,REF\u002A\u002A*%
X96370000Y-24760500D03*
%TD*%
D14*
%TO.C,J5*%
X74200000Y-85200000D03*
D15*
X74200000Y-82660000D03*
X74200000Y-80120000D03*
X74200000Y-77580000D03*
X74200000Y-75040000D03*
X74200000Y-72500000D03*
%TD*%
D17*
%TO.C,R20*%
X120580000Y-79187500D03*
X120580000Y-81012500D03*
%TD*%
%TO.C,R8*%
X123630000Y-34957500D03*
X123630000Y-36782500D03*
%TD*%
D14*
%TO.C,J6*%
X74400000Y-49690500D03*
D15*
X74400000Y-52230500D03*
X74400000Y-54770500D03*
X74400000Y-57310500D03*
X74400000Y-59850500D03*
X74400000Y-62390500D03*
X74400000Y-64930500D03*
X74400000Y-67470500D03*
%TD*%
D18*
%TO.C,JP3*%
X120350000Y-47402500D03*
X119050000Y-47402500D03*
X117750000Y-47402500D03*
%TD*%
D19*
%TO.C,Q5*%
X117132500Y-72320000D03*
X117132500Y-74220000D03*
X119007500Y-73270000D03*
%TD*%
D20*
%TO.C,C5*%
X94959880Y-39449880D03*
X93740120Y-38230120D03*
%TD*%
D21*
%TO.C,R16*%
X90980000Y-58815000D03*
X90980000Y-56990000D03*
%TD*%
D14*
%TO.C,J3*%
X122720000Y-63620500D03*
D15*
X122720000Y-61080500D03*
X122720000Y-58540500D03*
X122720000Y-56000500D03*
X122720000Y-53460500D03*
X122720000Y-50920500D03*
X122720000Y-48380500D03*
X122720000Y-45840500D03*
X122720000Y-43300500D03*
X122720000Y-40760500D03*
%TD*%
D17*
%TO.C,R21*%
X120560000Y-75857500D03*
X120560000Y-77682500D03*
%TD*%
D11*
%TO.C,C7*%
X90484500Y-42474500D03*
X88759500Y-42474500D03*
%TD*%
D22*
%TO.C,C1*%
X93815000Y-60060000D03*
X95540000Y-60060000D03*
%TD*%
D23*
%TO.C,D3*%
X101748000Y-32471500D03*
X99848000Y-32471500D03*
X100798000Y-34346500D03*
%TD*%
D19*
%TO.C,Q4*%
X117090000Y-75780000D03*
X117090000Y-77680000D03*
X118965000Y-76730000D03*
%TD*%
D24*
%TO.C,Y1*%
X89130000Y-63950000D03*
X91330000Y-63950000D03*
X91330000Y-62250000D03*
X89130000Y-62250000D03*
%TD*%
D25*
%TO.C,JP4*%
X117270000Y-49880000D03*
D26*
X118570000Y-49880000D03*
%TD*%
D27*
%TO.C,F1*%
X85825000Y-30940000D03*
X88800000Y-30940000D03*
%TD*%
D22*
%TO.C,C15*%
X88265000Y-34920000D03*
X89990000Y-34920000D03*
%TD*%
D28*
%TO.C,C3*%
X93364300Y-35752500D03*
X93364300Y-34027500D03*
%TD*%
D21*
%TO.C,R14*%
X115440000Y-70692500D03*
X115440000Y-68867500D03*
%TD*%
D29*
%TO.C,C9*%
X104496120Y-49528620D03*
X105715880Y-50748380D03*
%TD*%
D12*
%TO.C,U4*%
X114600000Y-25000000D03*
X114600000Y-27300000D03*
D13*
X120900000Y-27300000D03*
D12*
X114600000Y-29600000D03*
%TD*%
D21*
%TO.C,R13*%
X115360000Y-74152500D03*
X115360000Y-72327500D03*
%TD*%
D30*
%TO.C,JP6*%
X84330000Y-51080000D03*
D31*
X83030000Y-51080000D03*
%TD*%
D17*
%TO.C,R4*%
X98800000Y-38770000D03*
X98800000Y-40595000D03*
%TD*%
D32*
%TO.C,JP2*%
X92920000Y-80340000D03*
D33*
X92920000Y-79040000D03*
%TD*%
D34*
%TO.C,J2*%
X89650000Y-85555000D03*
X90650000Y-85555000D03*
X91650000Y-85555000D03*
X92650000Y-85555000D03*
D35*
X88350000Y-89430000D03*
X93950000Y-89430000D03*
%TD*%
D28*
%TO.C,C14*%
X110480000Y-36895000D03*
X110480000Y-35170000D03*
%TD*%
D36*
%TO.C,D5*%
X123750000Y-29185500D03*
X123750000Y-27135500D03*
%TD*%
D28*
%TO.C,C12*%
X100520000Y-40652500D03*
X100520000Y-38927500D03*
%TD*%
D30*
%TO.C,JP5*%
X84330000Y-54630000D03*
D31*
X83030000Y-54630000D03*
%TD*%
D37*
%TO.C,R2*%
X105325235Y-28424765D03*
X104034765Y-29715235D03*
%TD*%
D17*
%TO.C,R1*%
X123760000Y-23607500D03*
X123760000Y-25432500D03*
%TD*%
D21*
%TO.C,R11*%
X115290000Y-80835000D03*
X115290000Y-79010000D03*
%TD*%
D14*
%TO.C,J10*%
X115070000Y-42685000D03*
D15*
X115070000Y-40145000D03*
%TD*%
D38*
%TO.C,U1*%
X92788500Y-43938500D03*
X92788500Y-44338500D03*
X92788500Y-44738500D03*
X92788500Y-45138500D03*
X92788500Y-45538500D03*
X92788500Y-45938500D03*
X92788500Y-46338500D03*
X92788500Y-46738500D03*
X92788500Y-47138500D03*
X92788500Y-47538500D03*
X92788500Y-47938500D03*
X92788500Y-48338500D03*
X92788500Y-48738500D03*
X92788500Y-49138500D03*
D39*
X93626000Y-49976000D03*
X94026000Y-49976000D03*
X94426000Y-49976000D03*
X94826000Y-49976000D03*
X95226000Y-49976000D03*
X95626000Y-49976000D03*
X96026000Y-49976000D03*
X96426000Y-49976000D03*
X96826000Y-49976000D03*
X97226000Y-49976000D03*
X97626000Y-49976000D03*
X98026000Y-49976000D03*
X98426000Y-49976000D03*
X98826000Y-49976000D03*
D38*
X99663500Y-49138500D03*
X99663500Y-48738500D03*
X99663500Y-48338500D03*
X99663500Y-47938500D03*
X99663500Y-47538500D03*
X99663500Y-47138500D03*
X99663500Y-46738500D03*
X99663500Y-46338500D03*
X99663500Y-45938500D03*
X99663500Y-45538500D03*
X99663500Y-45138500D03*
X99663500Y-44738500D03*
X99663500Y-44338500D03*
X99663500Y-43938500D03*
D39*
X98826000Y-43101000D03*
X98426000Y-43101000D03*
X98026000Y-43101000D03*
X97626000Y-43101000D03*
X97226000Y-43101000D03*
X96826000Y-43101000D03*
X96426000Y-43101000D03*
X96026000Y-43101000D03*
X95626000Y-43101000D03*
X95226000Y-43101000D03*
X94826000Y-43101000D03*
X94426000Y-43101000D03*
X94026000Y-43101000D03*
X93626000Y-43101000D03*
D40*
X96226000Y-46538500D03*
%TD*%
D19*
%TO.C,Q3*%
X117112500Y-79130000D03*
X117112500Y-81030000D03*
X118987500Y-80080000D03*
%TD*%
D17*
%TO.C,R22*%
X120600000Y-72377500D03*
X120600000Y-74202500D03*
%TD*%
D32*
%TO.C,JP1*%
X90390000Y-80330000D03*
D33*
X90390000Y-79030000D03*
%TD*%
D41*
%TO.C,J1*%
X112365000Y-22090500D03*
X106585000Y-22090500D03*
D42*
X112675000Y-23210500D03*
X111875000Y-23210500D03*
D43*
X110725000Y-23210500D03*
X109725000Y-23210500D03*
X109225000Y-23210500D03*
X108225000Y-23210500D03*
D42*
X107075000Y-23210500D03*
X106275000Y-23210500D03*
X106275000Y-23210500D03*
X107075000Y-23210500D03*
D43*
X107725000Y-23210500D03*
X108725000Y-23210500D03*
X110225000Y-23210500D03*
X111225000Y-23210500D03*
D42*
X111875000Y-23210500D03*
X112675000Y-23210500D03*
D44*
X113795000Y-22610500D03*
D45*
X113795000Y-18410500D03*
D44*
X105155000Y-22610500D03*
D45*
X105155000Y-18410500D03*
%TD*%
D17*
%TO.C,R6*%
X73000000Y-33847500D03*
X73000000Y-35672500D03*
%TD*%
D46*
%TO.C,C11*%
X95790000Y-53980500D03*
X95790000Y-55705500D03*
%TD*%
D17*
%TO.C,R5*%
X97290000Y-38740000D03*
X97290000Y-40565000D03*
%TD*%
D22*
%TO.C,C10*%
X103287500Y-40960500D03*
X105012500Y-40960500D03*
%TD*%
D47*
%TO.C,D4*%
X123750000Y-31285500D03*
X123750000Y-33335500D03*
%TD*%
D48*
%TO.C,U3*%
X78656000Y-34981500D03*
X78656000Y-36251500D03*
X78656000Y-37521500D03*
X78656000Y-38791500D03*
X85856000Y-38791500D03*
X85856000Y-37521500D03*
X85856000Y-36251500D03*
X85856000Y-34981500D03*
%TD*%
D10*
%TO.C,SW1*%
X88230000Y-73030000D03*
X94530000Y-73030000D03*
X88230000Y-76830000D03*
X94530000Y-76830000D03*
%TD*%
D19*
%TO.C,Q6*%
X117152500Y-68820000D03*
X117152500Y-70720000D03*
X119027500Y-69770000D03*
%TD*%
D21*
%TO.C,R12*%
X115380000Y-77652500D03*
X115380000Y-75827500D03*
%TD*%
D49*
%TO.C,D2*%
X112080000Y-40120000D03*
X108780000Y-40120000D03*
X108780000Y-45020000D03*
X112080000Y-45020000D03*
%TD*%
D17*
%TO.C,R23*%
X120450000Y-68857500D03*
X120450000Y-70682500D03*
%TD*%
D14*
%TO.C,J4*%
X122775000Y-85480000D03*
D15*
X122775000Y-82940000D03*
X122775000Y-80400000D03*
X122775000Y-77860000D03*
X122775000Y-75320000D03*
X122775000Y-72780000D03*
X122775000Y-70240000D03*
X122775000Y-67700000D03*
%TD*%
D28*
%TO.C,C4*%
X94888300Y-35752500D03*
X94888300Y-34027500D03*
%TD*%
D21*
%TO.C,R33*%
X98830000Y-55675000D03*
X98830000Y-53850000D03*
%TD*%
D50*
%TO.C,J9*%
X79198000Y-30992500D03*
D51*
X79198000Y-24992500D03*
D52*
X74498000Y-27992500D03*
%TD*%
D11*
%TO.C,C2*%
X87215000Y-58400000D03*
X85490000Y-58400000D03*
%TD*%
D14*
%TO.C,J8*%
X97820000Y-88200000D03*
D15*
X100360000Y-88200000D03*
X102900000Y-88200000D03*
%TD*%
D11*
%TO.C,C13*%
X111485000Y-33030000D03*
X109760000Y-33030000D03*
%TD*%
D37*
%TO.C,R3*%
X101885235Y-25834765D03*
X100594765Y-27125235D03*
%TD*%
D16*
%TO.C,REF\u002A\u002A*%
X107630000Y-88050500D03*
%TD*%
D22*
%TO.C,C8*%
X117587500Y-39210500D03*
X119312500Y-39210500D03*
%TD*%
D16*
%TO.C,REF\u002A\u002A*%
X79800000Y-87950000D03*
%TD*%
D21*
%TO.C,R15*%
X92460000Y-83662500D03*
X92460000Y-81837500D03*
%TD*%
%TO.C,R7*%
X72820000Y-39342500D03*
X72820000Y-37517500D03*
%TD*%
%TO.C,R17*%
X90960000Y-83562500D03*
X90960000Y-81737500D03*
%TD*%
D53*
%TO.C,D1*%
X111800000Y-30900000D03*
X111800000Y-26500000D03*
%TD*%
M02*
