%TF.GenerationSoftware,KiCad,Pcbnew,7.0.10*%
%TF.CreationDate,2024-04-20T18:17:25+05:30*%
%TF.ProjectId,rp2040-basic-m1,72703230-3430-42d6-9261-7369632d6d31,V2.2.5*%
%TF.SameCoordinates,Original*%
%TF.FileFunction,Drillmap*%
%TF.FilePolarity,Positive*%
%FSLAX45Y45*%
G04 Gerber Fmt 4.5, Leading zero omitted, Abs format (unit mm)*
G04 Created by KiCad (PCBNEW 7.0.10) date 2024-04-20 18:17:25*
%MOMM*%
%LPD*%
G01*
G04 APERTURE LIST*
%ADD10C,0.100000*%
%ADD11C,0.200000*%
G04 APERTURE END LIST*
D10*
X8398000Y-2113050D02*
X8401000Y-2164050D01*
X11573000Y-1530050D02*
X11574000Y-2161050D01*
X7454000Y-2168050D02*
X7455000Y-2114050D01*
X7143000Y-8821050D02*
X7144000Y-2171050D01*
X12620000Y-8670000D02*
X12352500Y-8883000D01*
X10949000Y-9075050D02*
X7674000Y-9076050D01*
X7455000Y-2114050D02*
X8398000Y-2113050D01*
X11212500Y-8885000D02*
X10949000Y-9075050D01*
X8401000Y-2164050D02*
X10375000Y-2165050D01*
X10379000Y-1534050D02*
X11573000Y-1530050D01*
X10375000Y-2165050D02*
X10379000Y-1534050D01*
X7419000Y-8823050D02*
X7143000Y-8821050D01*
X7674000Y-9076050D02*
X7419000Y-8823050D01*
X12352500Y-8883000D02*
X11212500Y-8885000D01*
X11574000Y-2161050D02*
X12620000Y-2160000D01*
X12620000Y-2160000D02*
X12620000Y-8670000D01*
X7144000Y-2171050D02*
X7454000Y-2168050D01*
D11*
D10*
X11317500Y-7746500D02*
X11352500Y-7781500D01*
X11352500Y-7746500D02*
X11317500Y-7781500D01*
X11506500Y-8066500D02*
X11541500Y-8101500D01*
X11541500Y-8066500D02*
X11506500Y-8101500D01*
X11510500Y-7217500D02*
X11545500Y-7252500D01*
X11545500Y-7217500D02*
X11510500Y-7252500D01*
X11510500Y-7884500D02*
X11545500Y-7919500D01*
X11545500Y-7884500D02*
X11510500Y-7919500D01*
X11512500Y-7410500D02*
X11547500Y-7445500D01*
X11547500Y-7410500D02*
X11512500Y-7445500D01*
X11516500Y-7054500D02*
X11551500Y-7089500D01*
X11551500Y-7054500D02*
X11516500Y-7089500D01*
X11522500Y-7747500D02*
X11557500Y-7782500D01*
X11557500Y-7747500D02*
X11522500Y-7782500D01*
X11528500Y-7565500D02*
X11563500Y-7600500D01*
X11563500Y-7565500D02*
X11528500Y-7600500D01*
X11532500Y-6864500D02*
X11567500Y-6899500D01*
X11567500Y-6864500D02*
X11532500Y-6899500D01*
X12025500Y-7048500D02*
X12060500Y-7083500D01*
X12060500Y-7048500D02*
X12025500Y-7083500D01*
X12036500Y-8085500D02*
X12071500Y-8120500D01*
X12071500Y-8085500D02*
X12036500Y-8120500D01*
X12038500Y-7404500D02*
X12073500Y-7439500D01*
X12073500Y-7404500D02*
X12038500Y-7439500D01*
X12038500Y-7751500D02*
X12073500Y-7786500D01*
X12073500Y-7751500D02*
X12038500Y-7786500D01*
X7566400Y-3572830D02*
G75*
G03*
X7526400Y-3572830I-20000J0D01*
G01*
X7526400Y-3572830D02*
G75*
G03*
X7566400Y-3572830I20000J0D01*
G01*
X7570000Y-3326050D02*
G75*
G03*
X7530000Y-3326050I-20000J0D01*
G01*
X7530000Y-3326050D02*
G75*
G03*
X7570000Y-3326050I20000J0D01*
G01*
X7590000Y-4076050D02*
G75*
G03*
X7550000Y-4076050I-20000J0D01*
G01*
X7550000Y-4076050D02*
G75*
G03*
X7590000Y-4076050I20000J0D01*
G01*
X7805000Y-5751000D02*
G75*
G03*
X7765000Y-5751000I-20000J0D01*
G01*
X7765000Y-5751000D02*
G75*
G03*
X7805000Y-5751000I20000J0D01*
G01*
X7862940Y-4256680D02*
G75*
G03*
X7822940Y-4256680I-20000J0D01*
G01*
X7822940Y-4256680D02*
G75*
G03*
X7862940Y-4256680I20000J0D01*
G01*
X7898000Y-5423000D02*
G75*
G03*
X7858000Y-5423000I-20000J0D01*
G01*
X7858000Y-5423000D02*
G75*
G03*
X7898000Y-5423000I20000J0D01*
G01*
X7898000Y-6494050D02*
G75*
G03*
X7858000Y-6494050I-20000J0D01*
G01*
X7858000Y-6494050D02*
G75*
G03*
X7898000Y-6494050I20000J0D01*
G01*
X7990600Y-4429650D02*
G75*
G03*
X7950600Y-4429650I-20000J0D01*
G01*
X7950600Y-4429650D02*
G75*
G03*
X7990600Y-4429650I20000J0D01*
G01*
X8008000Y-5751000D02*
G75*
G03*
X7968000Y-5751000I-20000J0D01*
G01*
X7968000Y-5751000D02*
G75*
G03*
X8008000Y-5751000I20000J0D01*
G01*
X8018000Y-7041000D02*
G75*
G03*
X7978000Y-7041000I-20000J0D01*
G01*
X7978000Y-7041000D02*
G75*
G03*
X8018000Y-7041000I20000J0D01*
G01*
X8075000Y-3876050D02*
G75*
G03*
X8035000Y-3876050I-20000J0D01*
G01*
X8035000Y-3876050D02*
G75*
G03*
X8075000Y-3876050I20000J0D01*
G01*
X8176000Y-6257000D02*
G75*
G03*
X8136000Y-6257000I-20000J0D01*
G01*
X8136000Y-6257000D02*
G75*
G03*
X8176000Y-6257000I20000J0D01*
G01*
X8180000Y-5026000D02*
G75*
G03*
X8140000Y-5026000I-20000J0D01*
G01*
X8140000Y-5026000D02*
G75*
G03*
X8180000Y-5026000I20000J0D01*
G01*
X8181000Y-3999000D02*
G75*
G03*
X8141000Y-3999000I-20000J0D01*
G01*
X8141000Y-3999000D02*
G75*
G03*
X8181000Y-3999000I20000J0D01*
G01*
X8203000Y-4578000D02*
G75*
G03*
X8163000Y-4578000I-20000J0D01*
G01*
X8163000Y-4578000D02*
G75*
G03*
X8203000Y-4578000I20000J0D01*
G01*
X8234000Y-4811000D02*
G75*
G03*
X8194000Y-4811000I-20000J0D01*
G01*
X8194000Y-4811000D02*
G75*
G03*
X8234000Y-4811000I20000J0D01*
G01*
X8276000Y-6767000D02*
G75*
G03*
X8236000Y-6767000I-20000J0D01*
G01*
X8236000Y-6767000D02*
G75*
G03*
X8276000Y-6767000I20000J0D01*
G01*
X8277000Y-7267000D02*
G75*
G03*
X8237000Y-7267000I-20000J0D01*
G01*
X8237000Y-7267000D02*
G75*
G03*
X8277000Y-7267000I20000J0D01*
G01*
X8303000Y-5117000D02*
G75*
G03*
X8263000Y-5117000I-20000J0D01*
G01*
X8263000Y-5117000D02*
G75*
G03*
X8303000Y-5117000I20000J0D01*
G01*
X8328000Y-5471000D02*
G75*
G03*
X8288000Y-5471000I-20000J0D01*
G01*
X8288000Y-5471000D02*
G75*
G03*
X8328000Y-5471000I20000J0D01*
G01*
X8331000Y-3453550D02*
G75*
G03*
X8291000Y-3453550I-20000J0D01*
G01*
X8291000Y-3453550D02*
G75*
G03*
X8331000Y-3453550I20000J0D01*
G01*
X8385000Y-5282000D02*
G75*
G03*
X8345000Y-5282000I-20000J0D01*
G01*
X8345000Y-5282000D02*
G75*
G03*
X8385000Y-5282000I20000J0D01*
G01*
X8399500Y-4763878D02*
G75*
G03*
X8359500Y-4763878I-20000J0D01*
G01*
X8359500Y-4763878D02*
G75*
G03*
X8399500Y-4763878I20000J0D01*
G01*
X8458000Y-5473000D02*
G75*
G03*
X8418000Y-5473000I-20000J0D01*
G01*
X8418000Y-5473000D02*
G75*
G03*
X8458000Y-5473000I20000J0D01*
G01*
X8595000Y-2386050D02*
G75*
G03*
X8555000Y-2386050I-20000J0D01*
G01*
X8555000Y-2386050D02*
G75*
G03*
X8595000Y-2386050I20000J0D01*
G01*
X8599000Y-3096000D02*
G75*
G03*
X8559000Y-3096000I-20000J0D01*
G01*
X8559000Y-3096000D02*
G75*
G03*
X8599000Y-3096000I20000J0D01*
G01*
X8600000Y-2771050D02*
G75*
G03*
X8560000Y-2771050I-20000J0D01*
G01*
X8560000Y-2771050D02*
G75*
G03*
X8600000Y-2771050I20000J0D01*
G01*
X8685900Y-4720383D02*
G75*
G03*
X8645900Y-4720383I-20000J0D01*
G01*
X8645900Y-4720383D02*
G75*
G03*
X8685900Y-4720383I20000J0D01*
G01*
X8700000Y-7760000D02*
G75*
G03*
X8660000Y-7760000I-20000J0D01*
G01*
X8660000Y-7760000D02*
G75*
G03*
X8700000Y-7760000I20000J0D01*
G01*
X8700000Y-8210000D02*
G75*
G03*
X8660000Y-8210000I-20000J0D01*
G01*
X8660000Y-8210000D02*
G75*
G03*
X8700000Y-8210000I20000J0D01*
G01*
X8700000Y-8440000D02*
G75*
G03*
X8660000Y-8440000I-20000J0D01*
G01*
X8660000Y-8440000D02*
G75*
G03*
X8700000Y-8440000I20000J0D01*
G01*
X8709691Y-4623314D02*
G75*
G03*
X8669691Y-4623314I-20000J0D01*
G01*
X8669691Y-4623314D02*
G75*
G03*
X8709691Y-4623314I20000J0D01*
G01*
X8743500Y-4517960D02*
G75*
G03*
X8703500Y-4517960I-20000J0D01*
G01*
X8703500Y-4517960D02*
G75*
G03*
X8743500Y-4517960I20000J0D01*
G01*
X8804400Y-4438640D02*
G75*
G03*
X8764400Y-4438640I-20000J0D01*
G01*
X8764400Y-4438640D02*
G75*
G03*
X8804400Y-4438640I20000J0D01*
G01*
X8805900Y-4596040D02*
G75*
G03*
X8765900Y-4596040I-20000J0D01*
G01*
X8765900Y-4596040D02*
G75*
G03*
X8805900Y-4596040I20000J0D01*
G01*
X8834000Y-7297000D02*
G75*
G03*
X8794000Y-7297000I-20000J0D01*
G01*
X8794000Y-7297000D02*
G75*
G03*
X8834000Y-7297000I20000J0D01*
G01*
X8834000Y-7681000D02*
G75*
G03*
X8794000Y-7681000I-20000J0D01*
G01*
X8794000Y-7681000D02*
G75*
G03*
X8834000Y-7681000I20000J0D01*
G01*
X8840000Y-8951000D02*
G75*
G03*
X8800000Y-8951000I-20000J0D01*
G01*
X8800000Y-8951000D02*
G75*
G03*
X8840000Y-8951000I20000J0D01*
G01*
X8881200Y-5300580D02*
G75*
G03*
X8841200Y-5300580I-20000J0D01*
G01*
X8841200Y-5300580D02*
G75*
G03*
X8881200Y-5300580I20000J0D01*
G01*
X8883730Y-4958920D02*
G75*
G03*
X8843730Y-4958920I-20000J0D01*
G01*
X8843730Y-4958920D02*
G75*
G03*
X8883730Y-4958920I20000J0D01*
G01*
X8895000Y-5838250D02*
G75*
G03*
X8855000Y-5838250I-20000J0D01*
G01*
X8855000Y-5838250D02*
G75*
G03*
X8895000Y-5838250I20000J0D01*
G01*
X8895950Y-4247450D02*
G75*
G03*
X8855950Y-4247450I-20000J0D01*
G01*
X8855950Y-4247450D02*
G75*
G03*
X8895950Y-4247450I20000J0D01*
G01*
X8897000Y-3095000D02*
G75*
G03*
X8857000Y-3095000I-20000J0D01*
G01*
X8857000Y-3095000D02*
G75*
G03*
X8897000Y-3095000I20000J0D01*
G01*
X8898300Y-4404550D02*
G75*
G03*
X8858300Y-4404550I-20000J0D01*
G01*
X8858300Y-4404550D02*
G75*
G03*
X8898300Y-4404550I20000J0D01*
G01*
X8964000Y-6039000D02*
G75*
G03*
X8924000Y-6039000I-20000J0D01*
G01*
X8924000Y-6039000D02*
G75*
G03*
X8964000Y-6039000I20000J0D01*
G01*
X8995300Y-4959180D02*
G75*
G03*
X8955300Y-4959180I-20000J0D01*
G01*
X8955300Y-4959180D02*
G75*
G03*
X8995300Y-4959180I20000J0D01*
G01*
X8996000Y-5436050D02*
G75*
G03*
X8956000Y-5436050I-20000J0D01*
G01*
X8956000Y-5436050D02*
G75*
G03*
X8996000Y-5436050I20000J0D01*
G01*
X8998200Y-4402930D02*
G75*
G03*
X8958200Y-4402930I-20000J0D01*
G01*
X8958200Y-4402930D02*
G75*
G03*
X8998200Y-4402930I20000J0D01*
G01*
X9040000Y-3837250D02*
G75*
G03*
X9000000Y-3837250I-20000J0D01*
G01*
X9000000Y-3837250D02*
G75*
G03*
X9040000Y-3837250I20000J0D01*
G01*
X9074000Y-5149050D02*
G75*
G03*
X9034000Y-5149050I-20000J0D01*
G01*
X9034000Y-5149050D02*
G75*
G03*
X9074000Y-5149050I20000J0D01*
G01*
X9075000Y-5026050D02*
G75*
G03*
X9035000Y-5026050I-20000J0D01*
G01*
X9035000Y-5026050D02*
G75*
G03*
X9075000Y-5026050I20000J0D01*
G01*
X9094000Y-4373050D02*
G75*
G03*
X9054000Y-4373050I-20000J0D01*
G01*
X9054000Y-4373050D02*
G75*
G03*
X9094000Y-4373050I20000J0D01*
G01*
X9116000Y-8383550D02*
G75*
G03*
X9076000Y-8383550I-20000J0D01*
G01*
X9076000Y-8383550D02*
G75*
G03*
X9116000Y-8383550I20000J0D01*
G01*
X9172000Y-5183050D02*
G75*
G03*
X9132000Y-5183050I-20000J0D01*
G01*
X9132000Y-5183050D02*
G75*
G03*
X9172000Y-5183050I20000J0D01*
G01*
X9210000Y-2386050D02*
G75*
G03*
X9170000Y-2386050I-20000J0D01*
G01*
X9170000Y-2386050D02*
G75*
G03*
X9210000Y-2386050I20000J0D01*
G01*
X9220000Y-2781050D02*
G75*
G03*
X9180000Y-2781050I-20000J0D01*
G01*
X9180000Y-2781050D02*
G75*
G03*
X9220000Y-2781050I20000J0D01*
G01*
X9229400Y-3387400D02*
G75*
G03*
X9189400Y-3387400I-20000J0D01*
G01*
X9189400Y-3387400D02*
G75*
G03*
X9229400Y-3387400I20000J0D01*
G01*
X9253000Y-2987000D02*
G75*
G03*
X9213000Y-2987000I-20000J0D01*
G01*
X9213000Y-2987000D02*
G75*
G03*
X9253000Y-2987000I20000J0D01*
G01*
X9262000Y-8365000D02*
G75*
G03*
X9222000Y-8365000I-20000J0D01*
G01*
X9222000Y-8365000D02*
G75*
G03*
X9262000Y-8365000I20000J0D01*
G01*
X9271806Y-5189288D02*
G75*
G03*
X9231806Y-5189288I-20000J0D01*
G01*
X9231806Y-5189288D02*
G75*
G03*
X9271806Y-5189288I20000J0D01*
G01*
X9277000Y-5683050D02*
G75*
G03*
X9237000Y-5683050I-20000J0D01*
G01*
X9237000Y-5683050D02*
G75*
G03*
X9277000Y-5683050I20000J0D01*
G01*
X9298000Y-5307050D02*
G75*
G03*
X9258000Y-5307050I-20000J0D01*
G01*
X9258000Y-5307050D02*
G75*
G03*
X9298000Y-5307050I20000J0D01*
G01*
X9298000Y-5307050D02*
G75*
G03*
X9258000Y-5307050I-20000J0D01*
G01*
X9258000Y-5307050D02*
G75*
G03*
X9298000Y-5307050I20000J0D01*
G01*
X9350000Y-6470000D02*
G75*
G03*
X9310000Y-6470000I-20000J0D01*
G01*
X9310000Y-6470000D02*
G75*
G03*
X9350000Y-6470000I20000J0D01*
G01*
X9370906Y-5212010D02*
G75*
G03*
X9330906Y-5212010I-20000J0D01*
G01*
X9330906Y-5212010D02*
G75*
G03*
X9370906Y-5212010I20000J0D01*
G01*
X9411000Y-8941000D02*
G75*
G03*
X9371000Y-8941000I-20000J0D01*
G01*
X9371000Y-8941000D02*
G75*
G03*
X9411000Y-8941000I20000J0D01*
G01*
X9428000Y-4832100D02*
G75*
G03*
X9388000Y-4832100I-20000J0D01*
G01*
X9388000Y-4832100D02*
G75*
G03*
X9428000Y-4832100I20000J0D01*
G01*
X9472000Y-7306000D02*
G75*
G03*
X9432000Y-7306000I-20000J0D01*
G01*
X9432000Y-7306000D02*
G75*
G03*
X9472000Y-7306000I20000J0D01*
G01*
X9474000Y-5879000D02*
G75*
G03*
X9434000Y-5879000I-20000J0D01*
G01*
X9434000Y-5879000D02*
G75*
G03*
X9474000Y-5879000I20000J0D01*
G01*
X9474000Y-7687000D02*
G75*
G03*
X9434000Y-7687000I-20000J0D01*
G01*
X9434000Y-7687000D02*
G75*
G03*
X9474000Y-7687000I20000J0D01*
G01*
X9475000Y-8082000D02*
G75*
G03*
X9435000Y-8082000I-20000J0D01*
G01*
X9435000Y-8082000D02*
G75*
G03*
X9475000Y-8082000I20000J0D01*
G01*
X9513759Y-8174183D02*
G75*
G03*
X9473759Y-8174183I-20000J0D01*
G01*
X9473759Y-8174183D02*
G75*
G03*
X9513759Y-8174183I20000J0D01*
G01*
X9541000Y-4552250D02*
G75*
G03*
X9501000Y-4552250I-20000J0D01*
G01*
X9501000Y-4552250D02*
G75*
G03*
X9541000Y-4552250I20000J0D01*
G01*
X9541000Y-4653850D02*
G75*
G03*
X9501000Y-4653850I-20000J0D01*
G01*
X9501000Y-4653850D02*
G75*
G03*
X9541000Y-4653850I20000J0D01*
G01*
X9541000Y-4755450D02*
G75*
G03*
X9501000Y-4755450I-20000J0D01*
G01*
X9501000Y-4755450D02*
G75*
G03*
X9541000Y-4755450I20000J0D01*
G01*
X9610000Y-8390000D02*
G75*
G03*
X9570000Y-8390000I-20000J0D01*
G01*
X9570000Y-8390000D02*
G75*
G03*
X9610000Y-8390000I20000J0D01*
G01*
X9635800Y-3387400D02*
G75*
G03*
X9595800Y-3387400I-20000J0D01*
G01*
X9595800Y-3387400D02*
G75*
G03*
X9635800Y-3387400I20000J0D01*
G01*
X9641975Y-8528025D02*
G75*
G03*
X9601975Y-8528025I-20000J0D01*
G01*
X9601975Y-8528025D02*
G75*
G03*
X9641975Y-8528025I20000J0D01*
G01*
X9642600Y-4552250D02*
G75*
G03*
X9602600Y-4552250I-20000J0D01*
G01*
X9602600Y-4552250D02*
G75*
G03*
X9642600Y-4552250I20000J0D01*
G01*
X9642600Y-4653850D02*
G75*
G03*
X9602600Y-4653850I-20000J0D01*
G01*
X9602600Y-4653850D02*
G75*
G03*
X9642600Y-4653850I20000J0D01*
G01*
X9715000Y-5569050D02*
G75*
G03*
X9675000Y-5569050I-20000J0D01*
G01*
X9675000Y-5569050D02*
G75*
G03*
X9715000Y-5569050I20000J0D01*
G01*
X9722434Y-5272781D02*
G75*
G03*
X9682434Y-5272781I-20000J0D01*
G01*
X9682434Y-5272781D02*
G75*
G03*
X9722434Y-5272781I20000J0D01*
G01*
X9769600Y-4552250D02*
G75*
G03*
X9729600Y-4552250I-20000J0D01*
G01*
X9729600Y-4552250D02*
G75*
G03*
X9769600Y-4552250I20000J0D01*
G01*
X9769600Y-4653850D02*
G75*
G03*
X9729600Y-4653850I-20000J0D01*
G01*
X9729600Y-4653850D02*
G75*
G03*
X9769600Y-4653850I20000J0D01*
G01*
X9780000Y-5191050D02*
G75*
G03*
X9740000Y-5191050I-20000J0D01*
G01*
X9740000Y-5191050D02*
G75*
G03*
X9780000Y-5191050I20000J0D01*
G01*
X9820400Y-3433050D02*
G75*
G03*
X9780400Y-3433050I-20000J0D01*
G01*
X9780400Y-3433050D02*
G75*
G03*
X9820400Y-3433050I20000J0D01*
G01*
X9830000Y-3590000D02*
G75*
G03*
X9790000Y-3590000I-20000J0D01*
G01*
X9790000Y-3590000D02*
G75*
G03*
X9830000Y-3590000I20000J0D01*
G01*
X9861634Y-5699227D02*
G75*
G03*
X9821634Y-5699227I-20000J0D01*
G01*
X9821634Y-5699227D02*
G75*
G03*
X9861634Y-5699227I20000J0D01*
G01*
X9884000Y-2956000D02*
G75*
G03*
X9844000Y-2956000I-20000J0D01*
G01*
X9844000Y-2956000D02*
G75*
G03*
X9884000Y-2956000I20000J0D01*
G01*
X9910000Y-5390000D02*
G75*
G03*
X9870000Y-5390000I-20000J0D01*
G01*
X9870000Y-5390000D02*
G75*
G03*
X9910000Y-5390000I20000J0D01*
G01*
X9938000Y-5219050D02*
G75*
G03*
X9898000Y-5219050I-20000J0D01*
G01*
X9898000Y-5219050D02*
G75*
G03*
X9938000Y-5219050I20000J0D01*
G01*
X9997200Y-4278790D02*
G75*
G03*
X9957200Y-4278790I-20000J0D01*
G01*
X9957200Y-4278790D02*
G75*
G03*
X9997200Y-4278790I20000J0D01*
G01*
X10066000Y-3580250D02*
G75*
G03*
X10026000Y-3580250I-20000J0D01*
G01*
X10026000Y-3580250D02*
G75*
G03*
X10066000Y-3580250I20000J0D01*
G01*
X10070000Y-5229050D02*
G75*
G03*
X10030000Y-5229050I-20000J0D01*
G01*
X10030000Y-5229050D02*
G75*
G03*
X10070000Y-5229050I20000J0D01*
G01*
X10078000Y-2714000D02*
G75*
G03*
X10038000Y-2714000I-20000J0D01*
G01*
X10038000Y-2714000D02*
G75*
G03*
X10078000Y-2714000I20000J0D01*
G01*
X10125000Y-4301050D02*
G75*
G03*
X10085000Y-4301050I-20000J0D01*
G01*
X10085000Y-4301050D02*
G75*
G03*
X10125000Y-4301050I20000J0D01*
G01*
X10155100Y-5176710D02*
G75*
G03*
X10115100Y-5176710I-20000J0D01*
G01*
X10115100Y-5176710D02*
G75*
G03*
X10155100Y-5176710I20000J0D01*
G01*
X10220500Y-4356460D02*
G75*
G03*
X10180500Y-4356460I-20000J0D01*
G01*
X10180500Y-4356460D02*
G75*
G03*
X10220500Y-4356460I20000J0D01*
G01*
X10226800Y-3891850D02*
G75*
G03*
X10186800Y-3891850I-20000J0D01*
G01*
X10186800Y-3891850D02*
G75*
G03*
X10226800Y-3891850I20000J0D01*
G01*
X10229187Y-5770810D02*
G75*
G03*
X10189187Y-5770810I-20000J0D01*
G01*
X10189187Y-5770810D02*
G75*
G03*
X10229187Y-5770810I20000J0D01*
G01*
X10230000Y-5670000D02*
G75*
G03*
X10190000Y-5670000I-20000J0D01*
G01*
X10190000Y-5670000D02*
G75*
G03*
X10230000Y-5670000I20000J0D01*
G01*
X10256000Y-5136050D02*
G75*
G03*
X10216000Y-5136050I-20000J0D01*
G01*
X10216000Y-5136050D02*
G75*
G03*
X10256000Y-5136050I20000J0D01*
G01*
X10322000Y-5040050D02*
G75*
G03*
X10282000Y-5040050I-20000J0D01*
G01*
X10282000Y-5040050D02*
G75*
G03*
X10322000Y-5040050I20000J0D01*
G01*
X10324000Y-4390050D02*
G75*
G03*
X10284000Y-4390050I-20000J0D01*
G01*
X10284000Y-4390050D02*
G75*
G03*
X10324000Y-4390050I20000J0D01*
G01*
X10350100Y-5891670D02*
G75*
G03*
X10310100Y-5891670I-20000J0D01*
G01*
X10310100Y-5891670D02*
G75*
G03*
X10350100Y-5891670I20000J0D01*
G01*
X10380000Y-3810000D02*
G75*
G03*
X10340000Y-3810000I-20000J0D01*
G01*
X10340000Y-3810000D02*
G75*
G03*
X10380000Y-3810000I20000J0D01*
G01*
X10391000Y-2341050D02*
G75*
G03*
X10351000Y-2341050I-20000J0D01*
G01*
X10351000Y-2341050D02*
G75*
G03*
X10391000Y-2341050I20000J0D01*
G01*
X10396000Y-5122050D02*
G75*
G03*
X10356000Y-5122050I-20000J0D01*
G01*
X10356000Y-5122050D02*
G75*
G03*
X10396000Y-5122050I20000J0D01*
G01*
X10403000Y-4711050D02*
G75*
G03*
X10363000Y-4711050I-20000J0D01*
G01*
X10363000Y-4711050D02*
G75*
G03*
X10403000Y-4711050I20000J0D01*
G01*
X10417500Y-3693550D02*
G75*
G03*
X10377500Y-3693550I-20000J0D01*
G01*
X10377500Y-3693550D02*
G75*
G03*
X10417500Y-3693550I20000J0D01*
G01*
X10421000Y-4471050D02*
G75*
G03*
X10381000Y-4471050I-20000J0D01*
G01*
X10381000Y-4471050D02*
G75*
G03*
X10421000Y-4471050I20000J0D01*
G01*
X10422000Y-4580050D02*
G75*
G03*
X10382000Y-4580050I-20000J0D01*
G01*
X10382000Y-4580050D02*
G75*
G03*
X10422000Y-4580050I20000J0D01*
G01*
X10422200Y-5234980D02*
G75*
G03*
X10382200Y-5234980I-20000J0D01*
G01*
X10382200Y-5234980D02*
G75*
G03*
X10422200Y-5234980I20000J0D01*
G01*
X10423477Y-2971523D02*
G75*
G03*
X10383477Y-2971523I-20000J0D01*
G01*
X10383477Y-2971523D02*
G75*
G03*
X10423477Y-2971523I20000J0D01*
G01*
X10440000Y-5355960D02*
G75*
G03*
X10400000Y-5355960I-20000J0D01*
G01*
X10400000Y-5355960D02*
G75*
G03*
X10440000Y-5355960I20000J0D01*
G01*
X10515400Y-6079690D02*
G75*
G03*
X10475400Y-6079690I-20000J0D01*
G01*
X10475400Y-6079690D02*
G75*
G03*
X10515400Y-6079690I20000J0D01*
G01*
X10543000Y-7929000D02*
G75*
G03*
X10503000Y-7929000I-20000J0D01*
G01*
X10503000Y-7929000D02*
G75*
G03*
X10543000Y-7929000I20000J0D01*
G01*
X10578100Y-6548300D02*
G75*
G03*
X10538100Y-6548300I-20000J0D01*
G01*
X10538100Y-6548300D02*
G75*
G03*
X10578100Y-6548300I20000J0D01*
G01*
X10610600Y-6029490D02*
G75*
G03*
X10570600Y-6029490I-20000J0D01*
G01*
X10570600Y-6029490D02*
G75*
G03*
X10610600Y-6029490I20000J0D01*
G01*
X10620000Y-7673000D02*
G75*
G03*
X10580000Y-7673000I-20000J0D01*
G01*
X10580000Y-7673000D02*
G75*
G03*
X10620000Y-7673000I20000J0D01*
G01*
X10668000Y-4096050D02*
G75*
G03*
X10628000Y-4096050I-20000J0D01*
G01*
X10628000Y-4096050D02*
G75*
G03*
X10668000Y-4096050I20000J0D01*
G01*
X10687500Y-5679430D02*
G75*
G03*
X10647500Y-5679430I-20000J0D01*
G01*
X10647500Y-5679430D02*
G75*
G03*
X10687500Y-5679430I20000J0D01*
G01*
X10708400Y-5521850D02*
G75*
G03*
X10668400Y-5521850I-20000J0D01*
G01*
X10668400Y-5521850D02*
G75*
G03*
X10708400Y-5521850I20000J0D01*
G01*
X10723426Y-3823426D02*
G75*
G03*
X10683426Y-3823426I-20000J0D01*
G01*
X10683426Y-3823426D02*
G75*
G03*
X10723426Y-3823426I20000J0D01*
G01*
X10790457Y-5070268D02*
G75*
G03*
X10750457Y-5070268I-20000J0D01*
G01*
X10750457Y-5070268D02*
G75*
G03*
X10790457Y-5070268I20000J0D01*
G01*
X10805000Y-5857100D02*
G75*
G03*
X10765000Y-5857100I-20000J0D01*
G01*
X10765000Y-5857100D02*
G75*
G03*
X10805000Y-5857100I20000J0D01*
G01*
X10863600Y-5138460D02*
G75*
G03*
X10823600Y-5138460I-20000J0D01*
G01*
X10823600Y-5138460D02*
G75*
G03*
X10863600Y-5138460I20000J0D01*
G01*
X10898000Y-4502000D02*
G75*
G03*
X10858000Y-4502000I-20000J0D01*
G01*
X10858000Y-4502000D02*
G75*
G03*
X10898000Y-4502000I20000J0D01*
G01*
X10936100Y-5283470D02*
G75*
G03*
X10896100Y-5283470I-20000J0D01*
G01*
X10896100Y-5283470D02*
G75*
G03*
X10936100Y-5283470I20000J0D01*
G01*
X10982000Y-3180000D02*
G75*
G03*
X10942000Y-3180000I-20000J0D01*
G01*
X10942000Y-3180000D02*
G75*
G03*
X10982000Y-3180000I20000J0D01*
G01*
X10996000Y-3303000D02*
G75*
G03*
X10956000Y-3303000I-20000J0D01*
G01*
X10956000Y-3303000D02*
G75*
G03*
X10996000Y-3303000I20000J0D01*
G01*
X10998900Y-6804310D02*
G75*
G03*
X10958900Y-6804310I-20000J0D01*
G01*
X10958900Y-6804310D02*
G75*
G03*
X10998900Y-6804310I20000J0D01*
G01*
X11038000Y-2750000D02*
G75*
G03*
X10998000Y-2750000I-20000J0D01*
G01*
X10998000Y-2750000D02*
G75*
G03*
X11038000Y-2750000I20000J0D01*
G01*
X11070000Y-3510000D02*
G75*
G03*
X11030000Y-3510000I-20000J0D01*
G01*
X11030000Y-3510000D02*
G75*
G03*
X11070000Y-3510000I20000J0D01*
G01*
X11075000Y-4803000D02*
G75*
G03*
X11035000Y-4803000I-20000J0D01*
G01*
X11035000Y-4803000D02*
G75*
G03*
X11075000Y-4803000I20000J0D01*
G01*
X11110000Y-8200000D02*
G75*
G03*
X11070000Y-8200000I-20000J0D01*
G01*
X11070000Y-8200000D02*
G75*
G03*
X11110000Y-8200000I20000J0D01*
G01*
X11120000Y-8400000D02*
G75*
G03*
X11080000Y-8400000I-20000J0D01*
G01*
X11080000Y-8400000D02*
G75*
G03*
X11120000Y-8400000I20000J0D01*
G01*
X11129800Y-7395620D02*
G75*
G03*
X11089800Y-7395620I-20000J0D01*
G01*
X11089800Y-7395620D02*
G75*
G03*
X11129800Y-7395620I20000J0D01*
G01*
X11138002Y-4978998D02*
G75*
G03*
X11098002Y-4978998I-20000J0D01*
G01*
X11098002Y-4978998D02*
G75*
G03*
X11138002Y-4978998I20000J0D01*
G01*
X11170000Y-3300000D02*
G75*
G03*
X11130000Y-3300000I-20000J0D01*
G01*
X11130000Y-3300000D02*
G75*
G03*
X11170000Y-3300000I20000J0D01*
G01*
X11190000Y-5525000D02*
G75*
G03*
X11150000Y-5525000I-20000J0D01*
G01*
X11150000Y-5525000D02*
G75*
G03*
X11190000Y-5525000I20000J0D01*
G01*
X11202500Y-7907500D02*
G75*
G03*
X11162500Y-7907500I-20000J0D01*
G01*
X11162500Y-7907500D02*
G75*
G03*
X11202500Y-7907500I20000J0D01*
G01*
X11210000Y-7520000D02*
G75*
G03*
X11170000Y-7520000I-20000J0D01*
G01*
X11170000Y-7520000D02*
G75*
G03*
X11210000Y-7520000I20000J0D01*
G01*
X11217800Y-6759550D02*
G75*
G03*
X11177800Y-6759550I-20000J0D01*
G01*
X11177800Y-6759550D02*
G75*
G03*
X11217800Y-6759550I20000J0D01*
G01*
X11228000Y-4012000D02*
G75*
G03*
X11188000Y-4012000I-20000J0D01*
G01*
X11188000Y-4012000D02*
G75*
G03*
X11228000Y-4012000I20000J0D01*
G01*
X11228000Y-4502000D02*
G75*
G03*
X11188000Y-4502000I-20000J0D01*
G01*
X11188000Y-4502000D02*
G75*
G03*
X11228000Y-4502000I20000J0D01*
G01*
X11305700Y-5952940D02*
G75*
G03*
X11265700Y-5952940I-20000J0D01*
G01*
X11265700Y-5952940D02*
G75*
G03*
X11305700Y-5952940I20000J0D01*
G01*
X11329800Y-6205850D02*
G75*
G03*
X11289800Y-6205850I-20000J0D01*
G01*
X11289800Y-6205850D02*
G75*
G03*
X11329800Y-6205850I20000J0D01*
G01*
X11345000Y-4986050D02*
G75*
G03*
X11305000Y-4986050I-20000J0D01*
G01*
X11305000Y-4986050D02*
G75*
G03*
X11345000Y-4986050I20000J0D01*
G01*
X11365000Y-7995000D02*
G75*
G03*
X11325000Y-7995000I-20000J0D01*
G01*
X11325000Y-7995000D02*
G75*
G03*
X11365000Y-7995000I20000J0D01*
G01*
X11370000Y-6750000D02*
G75*
G03*
X11330000Y-6750000I-20000J0D01*
G01*
X11330000Y-6750000D02*
G75*
G03*
X11370000Y-6750000I20000J0D01*
G01*
X11370030Y-8400000D02*
G75*
G03*
X11330030Y-8400000I-20000J0D01*
G01*
X11330030Y-8400000D02*
G75*
G03*
X11370030Y-8400000I20000J0D01*
G01*
X11380000Y-8220000D02*
G75*
G03*
X11340000Y-8220000I-20000J0D01*
G01*
X11340000Y-8220000D02*
G75*
G03*
X11380000Y-8220000I20000J0D01*
G01*
X11418050Y-5947090D02*
G75*
G03*
X11378050Y-5947090I-20000J0D01*
G01*
X11378050Y-5947090D02*
G75*
G03*
X11418050Y-5947090I20000J0D01*
G01*
X11422800Y-5048876D02*
G75*
G03*
X11382800Y-5048876I-20000J0D01*
G01*
X11382800Y-5048876D02*
G75*
G03*
X11422800Y-5048876I20000J0D01*
G01*
X11432905Y-4804905D02*
G75*
G03*
X11392905Y-4804905I-20000J0D01*
G01*
X11392905Y-4804905D02*
G75*
G03*
X11432905Y-4804905I20000J0D01*
G01*
X11442500Y-8305000D02*
G75*
G03*
X11402500Y-8305000I-20000J0D01*
G01*
X11402500Y-8305000D02*
G75*
G03*
X11442500Y-8305000I20000J0D01*
G01*
X11480000Y-3230000D02*
G75*
G03*
X11440000Y-3230000I-20000J0D01*
G01*
X11440000Y-3230000D02*
G75*
G03*
X11480000Y-3230000I20000J0D01*
G01*
X11507151Y-4995164D02*
G75*
G03*
X11467151Y-4995164I-20000J0D01*
G01*
X11467151Y-4995164D02*
G75*
G03*
X11507151Y-4995164I20000J0D01*
G01*
X11520000Y-2353050D02*
G75*
G03*
X11480000Y-2353050I-20000J0D01*
G01*
X11480000Y-2353050D02*
G75*
G03*
X11520000Y-2353050I20000J0D01*
G01*
X11589600Y-5348170D02*
G75*
G03*
X11549600Y-5348170I-20000J0D01*
G01*
X11549600Y-5348170D02*
G75*
G03*
X11589600Y-5348170I20000J0D01*
G01*
X11589600Y-6163660D02*
G75*
G03*
X11549600Y-6163660I-20000J0D01*
G01*
X11549600Y-6163660D02*
G75*
G03*
X11589600Y-6163660I20000J0D01*
G01*
X11771500Y-8391500D02*
G75*
G03*
X11731500Y-8391500I-20000J0D01*
G01*
X11731500Y-8391500D02*
G75*
G03*
X11771500Y-8391500I20000J0D01*
G01*
X11868130Y-5127220D02*
G75*
G03*
X11828130Y-5127220I-20000J0D01*
G01*
X11828130Y-5127220D02*
G75*
G03*
X11868130Y-5127220I20000J0D01*
G01*
X11919000Y-4741000D02*
G75*
G03*
X11879000Y-4741000I-20000J0D01*
G01*
X11879000Y-4741000D02*
G75*
G03*
X11919000Y-4741000I20000J0D01*
G01*
X11951250Y-3921050D02*
G75*
G03*
X11911250Y-3921050I-20000J0D01*
G01*
X11911250Y-3921050D02*
G75*
G03*
X11951250Y-3921050I20000J0D01*
G01*
X11965560Y-5338920D02*
G75*
G03*
X11925560Y-5338920I-20000J0D01*
G01*
X11925560Y-5338920D02*
G75*
G03*
X11965560Y-5338920I20000J0D01*
G01*
X11974930Y-5563910D02*
G75*
G03*
X11934930Y-5563910I-20000J0D01*
G01*
X11934930Y-5563910D02*
G75*
G03*
X11974930Y-5563910I20000J0D01*
G01*
X11975400Y-6212780D02*
G75*
G03*
X11935400Y-6212780I-20000J0D01*
G01*
X11935400Y-6212780D02*
G75*
G03*
X11975400Y-6212780I20000J0D01*
G01*
X12002340Y-5231200D02*
G75*
G03*
X11962340Y-5231200I-20000J0D01*
G01*
X11962340Y-5231200D02*
G75*
G03*
X12002340Y-5231200I20000J0D01*
G01*
X12055000Y-4743000D02*
G75*
G03*
X12015000Y-4743000I-20000J0D01*
G01*
X12015000Y-4743000D02*
G75*
G03*
X12055000Y-4743000I20000J0D01*
G01*
X12067000Y-4977000D02*
G75*
G03*
X12027000Y-4977000I-20000J0D01*
G01*
X12027000Y-4977000D02*
G75*
G03*
X12067000Y-4977000I20000J0D01*
G01*
X12105000Y-8685000D02*
G75*
G03*
X12065000Y-8685000I-20000J0D01*
G01*
X12065000Y-8685000D02*
G75*
G03*
X12105000Y-8685000I20000J0D01*
G01*
X12130000Y-2730000D02*
G75*
G03*
X12090000Y-2730000I-20000J0D01*
G01*
X12090000Y-2730000D02*
G75*
G03*
X12130000Y-2730000I20000J0D01*
G01*
X12190000Y-8400295D02*
G75*
G03*
X12150000Y-8400295I-20000J0D01*
G01*
X12150000Y-8400295D02*
G75*
G03*
X12190000Y-8400295I20000J0D01*
G01*
X12250000Y-3096050D02*
G75*
G03*
X12210000Y-3096050I-20000J0D01*
G01*
X12210000Y-3096050D02*
G75*
G03*
X12250000Y-3096050I20000J0D01*
G01*
X12478850Y-3831830D02*
G75*
G03*
X12438850Y-3831830I-20000J0D01*
G01*
X12438850Y-3831830D02*
G75*
G03*
X12478850Y-3831830I20000J0D01*
G01*
X12540000Y-2740000D02*
G75*
G03*
X12500000Y-2740000I-20000J0D01*
G01*
X12500000Y-2740000D02*
G75*
G03*
X12540000Y-2740000I20000J0D01*
G01*
X10515500Y-1811050D02*
X10515500Y-1871050D01*
X10485500Y-1841050D02*
X10545500Y-1841050D01*
X10545500Y-1881050D02*
X10545500Y-1801050D01*
X10545500Y-1801050D02*
G75*
G03*
X10485500Y-1801050I-30000J0D01*
G01*
X10485500Y-1801050D02*
X10485500Y-1881050D01*
X10485500Y-1881050D02*
G75*
G03*
X10545500Y-1881050I30000J0D01*
G01*
X10515500Y-2231050D02*
X10515500Y-2291050D01*
X10485500Y-2261050D02*
X10545500Y-2261050D01*
X10545500Y-2316050D02*
X10545500Y-2206050D01*
X10545500Y-2206050D02*
G75*
G03*
X10485500Y-2206050I-30000J0D01*
G01*
X10485500Y-2206050D02*
X10485500Y-2316050D01*
X10485500Y-2316050D02*
G75*
G03*
X10545500Y-2316050I30000J0D01*
G01*
X11379500Y-1811050D02*
X11379500Y-1871050D01*
X11349500Y-1841050D02*
X11409500Y-1841050D01*
X11409500Y-1881050D02*
X11409500Y-1801050D01*
X11409500Y-1801050D02*
G75*
G03*
X11349500Y-1801050I-30000J0D01*
G01*
X11349500Y-1801050D02*
X11349500Y-1881050D01*
X11349500Y-1881050D02*
G75*
G03*
X11409500Y-1881050I30000J0D01*
G01*
X11379500Y-2231050D02*
X11379500Y-2291050D01*
X11349500Y-2261050D02*
X11409500Y-2261050D01*
X11409500Y-2316050D02*
X11409500Y-2206050D01*
X11409500Y-2206050D02*
G75*
G03*
X11349500Y-2206050I-30000J0D01*
G01*
X11349500Y-2206050D02*
X11349500Y-2316050D01*
X11349500Y-2316050D02*
G75*
G03*
X11409500Y-2316050I30000J0D01*
G01*
X7455356Y-7285356D02*
X7455356Y-7214644D01*
X7384644Y-7214644D01*
X7384644Y-7285356D01*
X7455356Y-7285356D01*
X7455356Y-7539356D02*
X7455356Y-7468644D01*
X7384644Y-7468644D01*
X7384644Y-7539356D01*
X7455356Y-7539356D01*
X7455356Y-7793356D02*
X7455356Y-7722644D01*
X7384644Y-7722644D01*
X7384644Y-7793356D01*
X7455356Y-7793356D01*
X7455356Y-8047356D02*
X7455356Y-7976644D01*
X7384644Y-7976644D01*
X7384644Y-8047356D01*
X7455356Y-8047356D01*
X7455356Y-8301356D02*
X7455356Y-8230644D01*
X7384644Y-8230644D01*
X7384644Y-8301356D01*
X7455356Y-8301356D01*
X7455356Y-8555356D02*
X7455356Y-8484644D01*
X7384644Y-8484644D01*
X7384644Y-8555356D01*
X7455356Y-8555356D01*
X7475356Y-5004406D02*
X7475356Y-4933694D01*
X7404644Y-4933694D01*
X7404644Y-5004406D01*
X7475356Y-5004406D01*
X7475356Y-5258406D02*
X7475356Y-5187694D01*
X7404644Y-5187694D01*
X7404644Y-5258406D01*
X7475356Y-5258406D01*
X7475356Y-5512406D02*
X7475356Y-5441694D01*
X7404644Y-5441694D01*
X7404644Y-5512406D01*
X7475356Y-5512406D01*
X7475356Y-5766406D02*
X7475356Y-5695694D01*
X7404644Y-5695694D01*
X7404644Y-5766406D01*
X7475356Y-5766406D01*
X7475356Y-6020406D02*
X7475356Y-5949694D01*
X7404644Y-5949694D01*
X7404644Y-6020406D01*
X7475356Y-6020406D01*
X7475356Y-6274406D02*
X7475356Y-6203694D01*
X7404644Y-6203694D01*
X7404644Y-6274406D01*
X7475356Y-6274406D01*
X7475356Y-6528406D02*
X7475356Y-6457694D01*
X7404644Y-6457694D01*
X7404644Y-6528406D01*
X7475356Y-6528406D01*
X7475356Y-6782406D02*
X7475356Y-6711694D01*
X7404644Y-6711694D01*
X7404644Y-6782406D01*
X7475356Y-6782406D01*
X7485156Y-2834606D02*
X7485156Y-2763894D01*
X7414444Y-2763894D01*
X7414444Y-2834606D01*
X7485156Y-2834606D01*
X7399800Y-2699250D02*
X7399800Y-2899250D01*
X7399800Y-2899250D02*
G75*
G03*
X7499800Y-2899250I50000J0D01*
G01*
X7499800Y-2899250D02*
X7499800Y-2699250D01*
X7499800Y-2699250D02*
G75*
G03*
X7399800Y-2699250I-50000J0D01*
G01*
X7955156Y-2534606D02*
X7955156Y-2463894D01*
X7884444Y-2463894D01*
X7884444Y-2534606D01*
X7955156Y-2534606D01*
X8019800Y-2449250D02*
X7819800Y-2449250D01*
X7819800Y-2449250D02*
G75*
G03*
X7819800Y-2549250I0J-50000D01*
G01*
X7819800Y-2549250D02*
X8019800Y-2549250D01*
X8019800Y-2549250D02*
G75*
G03*
X8019800Y-2449250I0J50000D01*
G01*
X7955156Y-3134606D02*
X7955156Y-3063894D01*
X7884444Y-3063894D01*
X7884444Y-3134606D01*
X7955156Y-3134606D01*
X8019800Y-3049250D02*
X7819800Y-3049250D01*
X7819800Y-3049250D02*
G75*
G03*
X7819800Y-3149250I0J-50000D01*
G01*
X7819800Y-3149250D02*
X8019800Y-3149250D01*
X8019800Y-3149250D02*
G75*
G03*
X8019800Y-3049250I0J50000D01*
G01*
X9817356Y-8855356D02*
X9817356Y-8784644D01*
X9746644Y-8784644D01*
X9746644Y-8855356D01*
X9817356Y-8855356D01*
X10071356Y-8855356D02*
X10071356Y-8784644D01*
X10000644Y-8784644D01*
X10000644Y-8855356D01*
X10071356Y-8855356D01*
X10325356Y-8855356D02*
X10325356Y-8784644D01*
X10254644Y-8784644D01*
X10254644Y-8855356D01*
X10325356Y-8855356D01*
X10820356Y-7203406D02*
X10820356Y-7132694D01*
X10749644Y-7132694D01*
X10749644Y-7203406D01*
X10820356Y-7203406D01*
X10820356Y-7457406D02*
X10820356Y-7386694D01*
X10749644Y-7386694D01*
X10749644Y-7457406D01*
X10820356Y-7457406D01*
X10820356Y-7711406D02*
X10820356Y-7640694D01*
X10749644Y-7640694D01*
X10749644Y-7711406D01*
X10820356Y-7711406D01*
X10820356Y-7965406D02*
X10820356Y-7894694D01*
X10749644Y-7894694D01*
X10749644Y-7965406D01*
X10820356Y-7965406D01*
X10820356Y-8219406D02*
X10820356Y-8148694D01*
X10749644Y-8148694D01*
X10749644Y-8219406D01*
X10820356Y-8219406D01*
X10820356Y-8473406D02*
X10820356Y-8402694D01*
X10749644Y-8402694D01*
X10749644Y-8473406D01*
X10820356Y-8473406D01*
X11542356Y-4049856D02*
X11542356Y-3979144D01*
X11471644Y-3979144D01*
X11471644Y-4049856D01*
X11542356Y-4049856D01*
X11542356Y-4303856D02*
X11542356Y-4233144D01*
X11471644Y-4233144D01*
X11471644Y-4303856D01*
X11542356Y-4303856D01*
X12307356Y-4111406D02*
X12307356Y-4040694D01*
X12236644Y-4040694D01*
X12236644Y-4111406D01*
X12307356Y-4111406D01*
X12307356Y-4365406D02*
X12307356Y-4294694D01*
X12236644Y-4294694D01*
X12236644Y-4365406D01*
X12307356Y-4365406D01*
X12307356Y-4619406D02*
X12307356Y-4548694D01*
X12236644Y-4548694D01*
X12236644Y-4619406D01*
X12307356Y-4619406D01*
X12307356Y-4873406D02*
X12307356Y-4802694D01*
X12236644Y-4802694D01*
X12236644Y-4873406D01*
X12307356Y-4873406D01*
X12307356Y-5127406D02*
X12307356Y-5056694D01*
X12236644Y-5056694D01*
X12236644Y-5127406D01*
X12307356Y-5127406D01*
X12307356Y-5381406D02*
X12307356Y-5310694D01*
X12236644Y-5310694D01*
X12236644Y-5381406D01*
X12307356Y-5381406D01*
X12307356Y-5635406D02*
X12307356Y-5564694D01*
X12236644Y-5564694D01*
X12236644Y-5635406D01*
X12307356Y-5635406D01*
X12307356Y-5889406D02*
X12307356Y-5818694D01*
X12236644Y-5818694D01*
X12236644Y-5889406D01*
X12307356Y-5889406D01*
X12307356Y-6143406D02*
X12307356Y-6072694D01*
X12236644Y-6072694D01*
X12236644Y-6143406D01*
X12307356Y-6143406D01*
X12307356Y-6397406D02*
X12307356Y-6326694D01*
X12236644Y-6326694D01*
X12236644Y-6397406D01*
X12307356Y-6397406D01*
X12312856Y-6805356D02*
X12312856Y-6734644D01*
X12242144Y-6734644D01*
X12242144Y-6805356D01*
X12312856Y-6805356D01*
X12312856Y-7059356D02*
X12312856Y-6988644D01*
X12242144Y-6988644D01*
X12242144Y-7059356D01*
X12312856Y-7059356D01*
X12312856Y-7313356D02*
X12312856Y-7242644D01*
X12242144Y-7242644D01*
X12242144Y-7313356D01*
X12312856Y-7313356D01*
X12312856Y-7567356D02*
X12312856Y-7496644D01*
X12242144Y-7496644D01*
X12242144Y-7567356D01*
X12312856Y-7567356D01*
X12312856Y-7821356D02*
X12312856Y-7750644D01*
X12242144Y-7750644D01*
X12242144Y-7821356D01*
X12312856Y-7821356D01*
X12312856Y-8075356D02*
X12312856Y-8004644D01*
X12242144Y-8004644D01*
X12242144Y-8075356D01*
X12312856Y-8075356D01*
X12312856Y-8329356D02*
X12312856Y-8258644D01*
X12242144Y-8258644D01*
X12242144Y-8329356D01*
X12312856Y-8329356D01*
X12312856Y-8583356D02*
X12312856Y-8512644D01*
X12242144Y-8512644D01*
X12242144Y-8583356D01*
X12312856Y-8583356D01*
D11*
X7398777Y-9392534D02*
X7398777Y-9192534D01*
X7398777Y-9192534D02*
X7446396Y-9192534D01*
X7446396Y-9192534D02*
X7474967Y-9202058D01*
X7474967Y-9202058D02*
X7494015Y-9221105D01*
X7494015Y-9221105D02*
X7503539Y-9240153D01*
X7503539Y-9240153D02*
X7513062Y-9278248D01*
X7513062Y-9278248D02*
X7513062Y-9306820D01*
X7513062Y-9306820D02*
X7503539Y-9344915D01*
X7503539Y-9344915D02*
X7494015Y-9363962D01*
X7494015Y-9363962D02*
X7474967Y-9383010D01*
X7474967Y-9383010D02*
X7446396Y-9392534D01*
X7446396Y-9392534D02*
X7398777Y-9392534D01*
X7598777Y-9392534D02*
X7598777Y-9259200D01*
X7598777Y-9297296D02*
X7608301Y-9278248D01*
X7608301Y-9278248D02*
X7617824Y-9268724D01*
X7617824Y-9268724D02*
X7636872Y-9259200D01*
X7636872Y-9259200D02*
X7655920Y-9259200D01*
X7722586Y-9392534D02*
X7722586Y-9259200D01*
X7722586Y-9192534D02*
X7713062Y-9202058D01*
X7713062Y-9202058D02*
X7722586Y-9211581D01*
X7722586Y-9211581D02*
X7732110Y-9202058D01*
X7732110Y-9202058D02*
X7722586Y-9192534D01*
X7722586Y-9192534D02*
X7722586Y-9211581D01*
X7846396Y-9392534D02*
X7827348Y-9383010D01*
X7827348Y-9383010D02*
X7817824Y-9363962D01*
X7817824Y-9363962D02*
X7817824Y-9192534D01*
X7951158Y-9392534D02*
X7932110Y-9383010D01*
X7932110Y-9383010D02*
X7922586Y-9363962D01*
X7922586Y-9363962D02*
X7922586Y-9192534D01*
X8179729Y-9392534D02*
X8179729Y-9192534D01*
X8179729Y-9192534D02*
X8246396Y-9335391D01*
X8246396Y-9335391D02*
X8313062Y-9192534D01*
X8313062Y-9192534D02*
X8313062Y-9392534D01*
X8494015Y-9392534D02*
X8494015Y-9287772D01*
X8494015Y-9287772D02*
X8484491Y-9268724D01*
X8484491Y-9268724D02*
X8465444Y-9259200D01*
X8465444Y-9259200D02*
X8427348Y-9259200D01*
X8427348Y-9259200D02*
X8408301Y-9268724D01*
X8494015Y-9383010D02*
X8474967Y-9392534D01*
X8474967Y-9392534D02*
X8427348Y-9392534D01*
X8427348Y-9392534D02*
X8408301Y-9383010D01*
X8408301Y-9383010D02*
X8398777Y-9363962D01*
X8398777Y-9363962D02*
X8398777Y-9344915D01*
X8398777Y-9344915D02*
X8408301Y-9325867D01*
X8408301Y-9325867D02*
X8427348Y-9316343D01*
X8427348Y-9316343D02*
X8474967Y-9316343D01*
X8474967Y-9316343D02*
X8494015Y-9306820D01*
X8589253Y-9259200D02*
X8589253Y-9459200D01*
X8589253Y-9268724D02*
X8608301Y-9259200D01*
X8608301Y-9259200D02*
X8646396Y-9259200D01*
X8646396Y-9259200D02*
X8665444Y-9268724D01*
X8665444Y-9268724D02*
X8674967Y-9278248D01*
X8674967Y-9278248D02*
X8684491Y-9297296D01*
X8684491Y-9297296D02*
X8684491Y-9354439D01*
X8684491Y-9354439D02*
X8674967Y-9373486D01*
X8674967Y-9373486D02*
X8665444Y-9383010D01*
X8665444Y-9383010D02*
X8646396Y-9392534D01*
X8646396Y-9392534D02*
X8608301Y-9392534D01*
X8608301Y-9392534D02*
X8589253Y-9383010D01*
X8770205Y-9373486D02*
X8779729Y-9383010D01*
X8779729Y-9383010D02*
X8770205Y-9392534D01*
X8770205Y-9392534D02*
X8760682Y-9383010D01*
X8760682Y-9383010D02*
X8770205Y-9373486D01*
X8770205Y-9373486D02*
X8770205Y-9392534D01*
X8770205Y-9268724D02*
X8779729Y-9278248D01*
X8779729Y-9278248D02*
X8770205Y-9287772D01*
X8770205Y-9287772D02*
X8760682Y-9278248D01*
X8760682Y-9278248D02*
X8770205Y-9268724D01*
X8770205Y-9268724D02*
X8770205Y-9287772D01*
D10*
X7103000Y-9703550D02*
X7138000Y-9738550D01*
X7138000Y-9703550D02*
X7103000Y-9738550D01*
D11*
X7436872Y-9612534D02*
X7455920Y-9612534D01*
X7455920Y-9612534D02*
X7474967Y-9622058D01*
X7474967Y-9622058D02*
X7484491Y-9631581D01*
X7484491Y-9631581D02*
X7494015Y-9650629D01*
X7494015Y-9650629D02*
X7503539Y-9688724D01*
X7503539Y-9688724D02*
X7503539Y-9736343D01*
X7503539Y-9736343D02*
X7494015Y-9774439D01*
X7494015Y-9774439D02*
X7484491Y-9793486D01*
X7484491Y-9793486D02*
X7474967Y-9803010D01*
X7474967Y-9803010D02*
X7455920Y-9812534D01*
X7455920Y-9812534D02*
X7436872Y-9812534D01*
X7436872Y-9812534D02*
X7417824Y-9803010D01*
X7417824Y-9803010D02*
X7408301Y-9793486D01*
X7408301Y-9793486D02*
X7398777Y-9774439D01*
X7398777Y-9774439D02*
X7389253Y-9736343D01*
X7389253Y-9736343D02*
X7389253Y-9688724D01*
X7389253Y-9688724D02*
X7398777Y-9650629D01*
X7398777Y-9650629D02*
X7408301Y-9631581D01*
X7408301Y-9631581D02*
X7417824Y-9622058D01*
X7417824Y-9622058D02*
X7436872Y-9612534D01*
X7589253Y-9793486D02*
X7598777Y-9803010D01*
X7598777Y-9803010D02*
X7589253Y-9812534D01*
X7589253Y-9812534D02*
X7579729Y-9803010D01*
X7579729Y-9803010D02*
X7589253Y-9793486D01*
X7589253Y-9793486D02*
X7589253Y-9812534D01*
X7665443Y-9612534D02*
X7789253Y-9612534D01*
X7789253Y-9612534D02*
X7722586Y-9688724D01*
X7722586Y-9688724D02*
X7751158Y-9688724D01*
X7751158Y-9688724D02*
X7770205Y-9698248D01*
X7770205Y-9698248D02*
X7779729Y-9707772D01*
X7779729Y-9707772D02*
X7789253Y-9726820D01*
X7789253Y-9726820D02*
X7789253Y-9774439D01*
X7789253Y-9774439D02*
X7779729Y-9793486D01*
X7779729Y-9793486D02*
X7770205Y-9803010D01*
X7770205Y-9803010D02*
X7751158Y-9812534D01*
X7751158Y-9812534D02*
X7694015Y-9812534D01*
X7694015Y-9812534D02*
X7674967Y-9803010D01*
X7674967Y-9803010D02*
X7665443Y-9793486D01*
X7970205Y-9612534D02*
X7874967Y-9612534D01*
X7874967Y-9612534D02*
X7865443Y-9707772D01*
X7865443Y-9707772D02*
X7874967Y-9698248D01*
X7874967Y-9698248D02*
X7894015Y-9688724D01*
X7894015Y-9688724D02*
X7941634Y-9688724D01*
X7941634Y-9688724D02*
X7960682Y-9698248D01*
X7960682Y-9698248D02*
X7970205Y-9707772D01*
X7970205Y-9707772D02*
X7979729Y-9726820D01*
X7979729Y-9726820D02*
X7979729Y-9774439D01*
X7979729Y-9774439D02*
X7970205Y-9793486D01*
X7970205Y-9793486D02*
X7960682Y-9803010D01*
X7960682Y-9803010D02*
X7941634Y-9812534D01*
X7941634Y-9812534D02*
X7894015Y-9812534D01*
X7894015Y-9812534D02*
X7874967Y-9803010D01*
X7874967Y-9803010D02*
X7865443Y-9793486D01*
X8103539Y-9612534D02*
X8122586Y-9612534D01*
X8122586Y-9612534D02*
X8141634Y-9622058D01*
X8141634Y-9622058D02*
X8151158Y-9631581D01*
X8151158Y-9631581D02*
X8160682Y-9650629D01*
X8160682Y-9650629D02*
X8170205Y-9688724D01*
X8170205Y-9688724D02*
X8170205Y-9736343D01*
X8170205Y-9736343D02*
X8160682Y-9774439D01*
X8160682Y-9774439D02*
X8151158Y-9793486D01*
X8151158Y-9793486D02*
X8141634Y-9803010D01*
X8141634Y-9803010D02*
X8122586Y-9812534D01*
X8122586Y-9812534D02*
X8103539Y-9812534D01*
X8103539Y-9812534D02*
X8084491Y-9803010D01*
X8084491Y-9803010D02*
X8074967Y-9793486D01*
X8074967Y-9793486D02*
X8065443Y-9774439D01*
X8065443Y-9774439D02*
X8055920Y-9736343D01*
X8055920Y-9736343D02*
X8055920Y-9688724D01*
X8055920Y-9688724D02*
X8065443Y-9650629D01*
X8065443Y-9650629D02*
X8074967Y-9631581D01*
X8074967Y-9631581D02*
X8084491Y-9622058D01*
X8084491Y-9622058D02*
X8103539Y-9612534D01*
X8255920Y-9812534D02*
X8255920Y-9679200D01*
X8255920Y-9698248D02*
X8265443Y-9688724D01*
X8265443Y-9688724D02*
X8284491Y-9679200D01*
X8284491Y-9679200D02*
X8313063Y-9679200D01*
X8313063Y-9679200D02*
X8332110Y-9688724D01*
X8332110Y-9688724D02*
X8341634Y-9707772D01*
X8341634Y-9707772D02*
X8341634Y-9812534D01*
X8341634Y-9707772D02*
X8351158Y-9688724D01*
X8351158Y-9688724D02*
X8370205Y-9679200D01*
X8370205Y-9679200D02*
X8398777Y-9679200D01*
X8398777Y-9679200D02*
X8417825Y-9688724D01*
X8417825Y-9688724D02*
X8427348Y-9707772D01*
X8427348Y-9707772D02*
X8427348Y-9812534D01*
X8522586Y-9812534D02*
X8522586Y-9679200D01*
X8522586Y-9698248D02*
X8532110Y-9688724D01*
X8532110Y-9688724D02*
X8551158Y-9679200D01*
X8551158Y-9679200D02*
X8579729Y-9679200D01*
X8579729Y-9679200D02*
X8598777Y-9688724D01*
X8598777Y-9688724D02*
X8608301Y-9707772D01*
X8608301Y-9707772D02*
X8608301Y-9812534D01*
X8608301Y-9707772D02*
X8617825Y-9688724D01*
X8617825Y-9688724D02*
X8636872Y-9679200D01*
X8636872Y-9679200D02*
X8665444Y-9679200D01*
X8665444Y-9679200D02*
X8684491Y-9688724D01*
X8684491Y-9688724D02*
X8694015Y-9707772D01*
X8694015Y-9707772D02*
X8694015Y-9812534D01*
X9084491Y-9603010D02*
X8913063Y-9860153D01*
X9341634Y-9612534D02*
X9360682Y-9612534D01*
X9360682Y-9612534D02*
X9379729Y-9622058D01*
X9379729Y-9622058D02*
X9389253Y-9631581D01*
X9389253Y-9631581D02*
X9398777Y-9650629D01*
X9398777Y-9650629D02*
X9408301Y-9688724D01*
X9408301Y-9688724D02*
X9408301Y-9736343D01*
X9408301Y-9736343D02*
X9398777Y-9774439D01*
X9398777Y-9774439D02*
X9389253Y-9793486D01*
X9389253Y-9793486D02*
X9379729Y-9803010D01*
X9379729Y-9803010D02*
X9360682Y-9812534D01*
X9360682Y-9812534D02*
X9341634Y-9812534D01*
X9341634Y-9812534D02*
X9322587Y-9803010D01*
X9322587Y-9803010D02*
X9313063Y-9793486D01*
X9313063Y-9793486D02*
X9303539Y-9774439D01*
X9303539Y-9774439D02*
X9294015Y-9736343D01*
X9294015Y-9736343D02*
X9294015Y-9688724D01*
X9294015Y-9688724D02*
X9303539Y-9650629D01*
X9303539Y-9650629D02*
X9313063Y-9631581D01*
X9313063Y-9631581D02*
X9322587Y-9622058D01*
X9322587Y-9622058D02*
X9341634Y-9612534D01*
X9494015Y-9793486D02*
X9503539Y-9803010D01*
X9503539Y-9803010D02*
X9494015Y-9812534D01*
X9494015Y-9812534D02*
X9484491Y-9803010D01*
X9484491Y-9803010D02*
X9494015Y-9793486D01*
X9494015Y-9793486D02*
X9494015Y-9812534D01*
X9627348Y-9612534D02*
X9646396Y-9612534D01*
X9646396Y-9612534D02*
X9665444Y-9622058D01*
X9665444Y-9622058D02*
X9674968Y-9631581D01*
X9674968Y-9631581D02*
X9684491Y-9650629D01*
X9684491Y-9650629D02*
X9694015Y-9688724D01*
X9694015Y-9688724D02*
X9694015Y-9736343D01*
X9694015Y-9736343D02*
X9684491Y-9774439D01*
X9684491Y-9774439D02*
X9674968Y-9793486D01*
X9674968Y-9793486D02*
X9665444Y-9803010D01*
X9665444Y-9803010D02*
X9646396Y-9812534D01*
X9646396Y-9812534D02*
X9627348Y-9812534D01*
X9627348Y-9812534D02*
X9608301Y-9803010D01*
X9608301Y-9803010D02*
X9598777Y-9793486D01*
X9598777Y-9793486D02*
X9589253Y-9774439D01*
X9589253Y-9774439D02*
X9579729Y-9736343D01*
X9579729Y-9736343D02*
X9579729Y-9688724D01*
X9579729Y-9688724D02*
X9589253Y-9650629D01*
X9589253Y-9650629D02*
X9598777Y-9631581D01*
X9598777Y-9631581D02*
X9608301Y-9622058D01*
X9608301Y-9622058D02*
X9627348Y-9612534D01*
X9884491Y-9812534D02*
X9770206Y-9812534D01*
X9827348Y-9812534D02*
X9827348Y-9612534D01*
X9827348Y-9612534D02*
X9808301Y-9641105D01*
X9808301Y-9641105D02*
X9789253Y-9660153D01*
X9789253Y-9660153D02*
X9770206Y-9669677D01*
X9951158Y-9612534D02*
X10074968Y-9612534D01*
X10074968Y-9612534D02*
X10008301Y-9688724D01*
X10008301Y-9688724D02*
X10036872Y-9688724D01*
X10036872Y-9688724D02*
X10055920Y-9698248D01*
X10055920Y-9698248D02*
X10065444Y-9707772D01*
X10065444Y-9707772D02*
X10074968Y-9726820D01*
X10074968Y-9726820D02*
X10074968Y-9774439D01*
X10074968Y-9774439D02*
X10065444Y-9793486D01*
X10065444Y-9793486D02*
X10055920Y-9803010D01*
X10055920Y-9803010D02*
X10036872Y-9812534D01*
X10036872Y-9812534D02*
X9979729Y-9812534D01*
X9979729Y-9812534D02*
X9960682Y-9803010D01*
X9960682Y-9803010D02*
X9951158Y-9793486D01*
X10189253Y-9698248D02*
X10170206Y-9688724D01*
X10170206Y-9688724D02*
X10160682Y-9679200D01*
X10160682Y-9679200D02*
X10151158Y-9660153D01*
X10151158Y-9660153D02*
X10151158Y-9650629D01*
X10151158Y-9650629D02*
X10160682Y-9631581D01*
X10160682Y-9631581D02*
X10170206Y-9622058D01*
X10170206Y-9622058D02*
X10189253Y-9612534D01*
X10189253Y-9612534D02*
X10227349Y-9612534D01*
X10227349Y-9612534D02*
X10246396Y-9622058D01*
X10246396Y-9622058D02*
X10255920Y-9631581D01*
X10255920Y-9631581D02*
X10265444Y-9650629D01*
X10265444Y-9650629D02*
X10265444Y-9660153D01*
X10265444Y-9660153D02*
X10255920Y-9679200D01*
X10255920Y-9679200D02*
X10246396Y-9688724D01*
X10246396Y-9688724D02*
X10227349Y-9698248D01*
X10227349Y-9698248D02*
X10189253Y-9698248D01*
X10189253Y-9698248D02*
X10170206Y-9707772D01*
X10170206Y-9707772D02*
X10160682Y-9717296D01*
X10160682Y-9717296D02*
X10151158Y-9736343D01*
X10151158Y-9736343D02*
X10151158Y-9774439D01*
X10151158Y-9774439D02*
X10160682Y-9793486D01*
X10160682Y-9793486D02*
X10170206Y-9803010D01*
X10170206Y-9803010D02*
X10189253Y-9812534D01*
X10189253Y-9812534D02*
X10227349Y-9812534D01*
X10227349Y-9812534D02*
X10246396Y-9803010D01*
X10246396Y-9803010D02*
X10255920Y-9793486D01*
X10255920Y-9793486D02*
X10265444Y-9774439D01*
X10265444Y-9774439D02*
X10265444Y-9736343D01*
X10265444Y-9736343D02*
X10255920Y-9717296D01*
X10255920Y-9717296D02*
X10246396Y-9707772D01*
X10246396Y-9707772D02*
X10227349Y-9698248D01*
X10341634Y-9612534D02*
X10341634Y-9650629D01*
X10417825Y-9612534D02*
X10417825Y-9650629D01*
X10713063Y-9888724D02*
X10703539Y-9879200D01*
X10703539Y-9879200D02*
X10684491Y-9850629D01*
X10684491Y-9850629D02*
X10674968Y-9831581D01*
X10674968Y-9831581D02*
X10665444Y-9803010D01*
X10665444Y-9803010D02*
X10655920Y-9755391D01*
X10655920Y-9755391D02*
X10655920Y-9717296D01*
X10655920Y-9717296D02*
X10665444Y-9669677D01*
X10665444Y-9669677D02*
X10674968Y-9641105D01*
X10674968Y-9641105D02*
X10684491Y-9622058D01*
X10684491Y-9622058D02*
X10703539Y-9593486D01*
X10703539Y-9593486D02*
X10713063Y-9583962D01*
X10894015Y-9812534D02*
X10779730Y-9812534D01*
X10836872Y-9812534D02*
X10836872Y-9612534D01*
X10836872Y-9612534D02*
X10817825Y-9641105D01*
X10817825Y-9641105D02*
X10798777Y-9660153D01*
X10798777Y-9660153D02*
X10779730Y-9669677D01*
X10960682Y-9612534D02*
X11084491Y-9612534D01*
X11084491Y-9612534D02*
X11017825Y-9688724D01*
X11017825Y-9688724D02*
X11046396Y-9688724D01*
X11046396Y-9688724D02*
X11065444Y-9698248D01*
X11065444Y-9698248D02*
X11074968Y-9707772D01*
X11074968Y-9707772D02*
X11084491Y-9726820D01*
X11084491Y-9726820D02*
X11084491Y-9774439D01*
X11084491Y-9774439D02*
X11074968Y-9793486D01*
X11074968Y-9793486D02*
X11065444Y-9803010D01*
X11065444Y-9803010D02*
X11046396Y-9812534D01*
X11046396Y-9812534D02*
X10989253Y-9812534D01*
X10989253Y-9812534D02*
X10970206Y-9803010D01*
X10970206Y-9803010D02*
X10960682Y-9793486D01*
X11322587Y-9812534D02*
X11322587Y-9612534D01*
X11408301Y-9812534D02*
X11408301Y-9707772D01*
X11408301Y-9707772D02*
X11398777Y-9688724D01*
X11398777Y-9688724D02*
X11379730Y-9679200D01*
X11379730Y-9679200D02*
X11351158Y-9679200D01*
X11351158Y-9679200D02*
X11332110Y-9688724D01*
X11332110Y-9688724D02*
X11322587Y-9698248D01*
X11532110Y-9812534D02*
X11513063Y-9803010D01*
X11513063Y-9803010D02*
X11503539Y-9793486D01*
X11503539Y-9793486D02*
X11494015Y-9774439D01*
X11494015Y-9774439D02*
X11494015Y-9717296D01*
X11494015Y-9717296D02*
X11503539Y-9698248D01*
X11503539Y-9698248D02*
X11513063Y-9688724D01*
X11513063Y-9688724D02*
X11532110Y-9679200D01*
X11532110Y-9679200D02*
X11560682Y-9679200D01*
X11560682Y-9679200D02*
X11579730Y-9688724D01*
X11579730Y-9688724D02*
X11589253Y-9698248D01*
X11589253Y-9698248D02*
X11598777Y-9717296D01*
X11598777Y-9717296D02*
X11598777Y-9774439D01*
X11598777Y-9774439D02*
X11589253Y-9793486D01*
X11589253Y-9793486D02*
X11579730Y-9803010D01*
X11579730Y-9803010D02*
X11560682Y-9812534D01*
X11560682Y-9812534D02*
X11532110Y-9812534D01*
X11713063Y-9812534D02*
X11694015Y-9803010D01*
X11694015Y-9803010D02*
X11684491Y-9783962D01*
X11684491Y-9783962D02*
X11684491Y-9612534D01*
X11865444Y-9803010D02*
X11846396Y-9812534D01*
X11846396Y-9812534D02*
X11808301Y-9812534D01*
X11808301Y-9812534D02*
X11789253Y-9803010D01*
X11789253Y-9803010D02*
X11779730Y-9783962D01*
X11779730Y-9783962D02*
X11779730Y-9707772D01*
X11779730Y-9707772D02*
X11789253Y-9688724D01*
X11789253Y-9688724D02*
X11808301Y-9679200D01*
X11808301Y-9679200D02*
X11846396Y-9679200D01*
X11846396Y-9679200D02*
X11865444Y-9688724D01*
X11865444Y-9688724D02*
X11874968Y-9707772D01*
X11874968Y-9707772D02*
X11874968Y-9726820D01*
X11874968Y-9726820D02*
X11779730Y-9745867D01*
X11951158Y-9803010D02*
X11970206Y-9812534D01*
X11970206Y-9812534D02*
X12008301Y-9812534D01*
X12008301Y-9812534D02*
X12027349Y-9803010D01*
X12027349Y-9803010D02*
X12036872Y-9783962D01*
X12036872Y-9783962D02*
X12036872Y-9774439D01*
X12036872Y-9774439D02*
X12027349Y-9755391D01*
X12027349Y-9755391D02*
X12008301Y-9745867D01*
X12008301Y-9745867D02*
X11979730Y-9745867D01*
X11979730Y-9745867D02*
X11960682Y-9736343D01*
X11960682Y-9736343D02*
X11951158Y-9717296D01*
X11951158Y-9717296D02*
X11951158Y-9707772D01*
X11951158Y-9707772D02*
X11960682Y-9688724D01*
X11960682Y-9688724D02*
X11979730Y-9679200D01*
X11979730Y-9679200D02*
X12008301Y-9679200D01*
X12008301Y-9679200D02*
X12027349Y-9688724D01*
X12103539Y-9888724D02*
X12113063Y-9879200D01*
X12113063Y-9879200D02*
X12132111Y-9850629D01*
X12132111Y-9850629D02*
X12141634Y-9831581D01*
X12141634Y-9831581D02*
X12151158Y-9803010D01*
X12151158Y-9803010D02*
X12160682Y-9755391D01*
X12160682Y-9755391D02*
X12160682Y-9717296D01*
X12160682Y-9717296D02*
X12151158Y-9669677D01*
X12151158Y-9669677D02*
X12141634Y-9641105D01*
X12141634Y-9641105D02*
X12132111Y-9622058D01*
X12132111Y-9622058D02*
X12113063Y-9593486D01*
X12113063Y-9593486D02*
X12103539Y-9583962D01*
D10*
X7138000Y-9985050D02*
G75*
G03*
X7098000Y-9985050I-20000J0D01*
G01*
X7098000Y-9985050D02*
G75*
G03*
X7138000Y-9985050I20000J0D01*
G01*
D11*
X7436872Y-9876534D02*
X7455920Y-9876534D01*
X7455920Y-9876534D02*
X7474967Y-9886058D01*
X7474967Y-9886058D02*
X7484491Y-9895581D01*
X7484491Y-9895581D02*
X7494015Y-9914629D01*
X7494015Y-9914629D02*
X7503539Y-9952724D01*
X7503539Y-9952724D02*
X7503539Y-10000343D01*
X7503539Y-10000343D02*
X7494015Y-10038439D01*
X7494015Y-10038439D02*
X7484491Y-10057486D01*
X7484491Y-10057486D02*
X7474967Y-10067010D01*
X7474967Y-10067010D02*
X7455920Y-10076534D01*
X7455920Y-10076534D02*
X7436872Y-10076534D01*
X7436872Y-10076534D02*
X7417824Y-10067010D01*
X7417824Y-10067010D02*
X7408301Y-10057486D01*
X7408301Y-10057486D02*
X7398777Y-10038439D01*
X7398777Y-10038439D02*
X7389253Y-10000343D01*
X7389253Y-10000343D02*
X7389253Y-9952724D01*
X7389253Y-9952724D02*
X7398777Y-9914629D01*
X7398777Y-9914629D02*
X7408301Y-9895581D01*
X7408301Y-9895581D02*
X7417824Y-9886058D01*
X7417824Y-9886058D02*
X7436872Y-9876534D01*
X7589253Y-10057486D02*
X7598777Y-10067010D01*
X7598777Y-10067010D02*
X7589253Y-10076534D01*
X7589253Y-10076534D02*
X7579729Y-10067010D01*
X7579729Y-10067010D02*
X7589253Y-10057486D01*
X7589253Y-10057486D02*
X7589253Y-10076534D01*
X7770205Y-9943200D02*
X7770205Y-10076534D01*
X7722586Y-9867010D02*
X7674967Y-10009867D01*
X7674967Y-10009867D02*
X7798777Y-10009867D01*
X7913062Y-9876534D02*
X7932110Y-9876534D01*
X7932110Y-9876534D02*
X7951158Y-9886058D01*
X7951158Y-9886058D02*
X7960682Y-9895581D01*
X7960682Y-9895581D02*
X7970205Y-9914629D01*
X7970205Y-9914629D02*
X7979729Y-9952724D01*
X7979729Y-9952724D02*
X7979729Y-10000343D01*
X7979729Y-10000343D02*
X7970205Y-10038439D01*
X7970205Y-10038439D02*
X7960682Y-10057486D01*
X7960682Y-10057486D02*
X7951158Y-10067010D01*
X7951158Y-10067010D02*
X7932110Y-10076534D01*
X7932110Y-10076534D02*
X7913062Y-10076534D01*
X7913062Y-10076534D02*
X7894015Y-10067010D01*
X7894015Y-10067010D02*
X7884491Y-10057486D01*
X7884491Y-10057486D02*
X7874967Y-10038439D01*
X7874967Y-10038439D02*
X7865443Y-10000343D01*
X7865443Y-10000343D02*
X7865443Y-9952724D01*
X7865443Y-9952724D02*
X7874967Y-9914629D01*
X7874967Y-9914629D02*
X7884491Y-9895581D01*
X7884491Y-9895581D02*
X7894015Y-9886058D01*
X7894015Y-9886058D02*
X7913062Y-9876534D01*
X8103539Y-9876534D02*
X8122586Y-9876534D01*
X8122586Y-9876534D02*
X8141634Y-9886058D01*
X8141634Y-9886058D02*
X8151158Y-9895581D01*
X8151158Y-9895581D02*
X8160682Y-9914629D01*
X8160682Y-9914629D02*
X8170205Y-9952724D01*
X8170205Y-9952724D02*
X8170205Y-10000343D01*
X8170205Y-10000343D02*
X8160682Y-10038439D01*
X8160682Y-10038439D02*
X8151158Y-10057486D01*
X8151158Y-10057486D02*
X8141634Y-10067010D01*
X8141634Y-10067010D02*
X8122586Y-10076534D01*
X8122586Y-10076534D02*
X8103539Y-10076534D01*
X8103539Y-10076534D02*
X8084491Y-10067010D01*
X8084491Y-10067010D02*
X8074967Y-10057486D01*
X8074967Y-10057486D02*
X8065443Y-10038439D01*
X8065443Y-10038439D02*
X8055920Y-10000343D01*
X8055920Y-10000343D02*
X8055920Y-9952724D01*
X8055920Y-9952724D02*
X8065443Y-9914629D01*
X8065443Y-9914629D02*
X8074967Y-9895581D01*
X8074967Y-9895581D02*
X8084491Y-9886058D01*
X8084491Y-9886058D02*
X8103539Y-9876534D01*
X8255920Y-10076534D02*
X8255920Y-9943200D01*
X8255920Y-9962248D02*
X8265443Y-9952724D01*
X8265443Y-9952724D02*
X8284491Y-9943200D01*
X8284491Y-9943200D02*
X8313063Y-9943200D01*
X8313063Y-9943200D02*
X8332110Y-9952724D01*
X8332110Y-9952724D02*
X8341634Y-9971772D01*
X8341634Y-9971772D02*
X8341634Y-10076534D01*
X8341634Y-9971772D02*
X8351158Y-9952724D01*
X8351158Y-9952724D02*
X8370205Y-9943200D01*
X8370205Y-9943200D02*
X8398777Y-9943200D01*
X8398777Y-9943200D02*
X8417825Y-9952724D01*
X8417825Y-9952724D02*
X8427348Y-9971772D01*
X8427348Y-9971772D02*
X8427348Y-10076534D01*
X8522586Y-10076534D02*
X8522586Y-9943200D01*
X8522586Y-9962248D02*
X8532110Y-9952724D01*
X8532110Y-9952724D02*
X8551158Y-9943200D01*
X8551158Y-9943200D02*
X8579729Y-9943200D01*
X8579729Y-9943200D02*
X8598777Y-9952724D01*
X8598777Y-9952724D02*
X8608301Y-9971772D01*
X8608301Y-9971772D02*
X8608301Y-10076534D01*
X8608301Y-9971772D02*
X8617825Y-9952724D01*
X8617825Y-9952724D02*
X8636872Y-9943200D01*
X8636872Y-9943200D02*
X8665444Y-9943200D01*
X8665444Y-9943200D02*
X8684491Y-9952724D01*
X8684491Y-9952724D02*
X8694015Y-9971772D01*
X8694015Y-9971772D02*
X8694015Y-10076534D01*
X9084491Y-9867010D02*
X8913063Y-10124153D01*
X9341634Y-9876534D02*
X9360682Y-9876534D01*
X9360682Y-9876534D02*
X9379729Y-9886058D01*
X9379729Y-9886058D02*
X9389253Y-9895581D01*
X9389253Y-9895581D02*
X9398777Y-9914629D01*
X9398777Y-9914629D02*
X9408301Y-9952724D01*
X9408301Y-9952724D02*
X9408301Y-10000343D01*
X9408301Y-10000343D02*
X9398777Y-10038439D01*
X9398777Y-10038439D02*
X9389253Y-10057486D01*
X9389253Y-10057486D02*
X9379729Y-10067010D01*
X9379729Y-10067010D02*
X9360682Y-10076534D01*
X9360682Y-10076534D02*
X9341634Y-10076534D01*
X9341634Y-10076534D02*
X9322587Y-10067010D01*
X9322587Y-10067010D02*
X9313063Y-10057486D01*
X9313063Y-10057486D02*
X9303539Y-10038439D01*
X9303539Y-10038439D02*
X9294015Y-10000343D01*
X9294015Y-10000343D02*
X9294015Y-9952724D01*
X9294015Y-9952724D02*
X9303539Y-9914629D01*
X9303539Y-9914629D02*
X9313063Y-9895581D01*
X9313063Y-9895581D02*
X9322587Y-9886058D01*
X9322587Y-9886058D02*
X9341634Y-9876534D01*
X9494015Y-10057486D02*
X9503539Y-10067010D01*
X9503539Y-10067010D02*
X9494015Y-10076534D01*
X9494015Y-10076534D02*
X9484491Y-10067010D01*
X9484491Y-10067010D02*
X9494015Y-10057486D01*
X9494015Y-10057486D02*
X9494015Y-10076534D01*
X9627348Y-9876534D02*
X9646396Y-9876534D01*
X9646396Y-9876534D02*
X9665444Y-9886058D01*
X9665444Y-9886058D02*
X9674968Y-9895581D01*
X9674968Y-9895581D02*
X9684491Y-9914629D01*
X9684491Y-9914629D02*
X9694015Y-9952724D01*
X9694015Y-9952724D02*
X9694015Y-10000343D01*
X9694015Y-10000343D02*
X9684491Y-10038439D01*
X9684491Y-10038439D02*
X9674968Y-10057486D01*
X9674968Y-10057486D02*
X9665444Y-10067010D01*
X9665444Y-10067010D02*
X9646396Y-10076534D01*
X9646396Y-10076534D02*
X9627348Y-10076534D01*
X9627348Y-10076534D02*
X9608301Y-10067010D01*
X9608301Y-10067010D02*
X9598777Y-10057486D01*
X9598777Y-10057486D02*
X9589253Y-10038439D01*
X9589253Y-10038439D02*
X9579729Y-10000343D01*
X9579729Y-10000343D02*
X9579729Y-9952724D01*
X9579729Y-9952724D02*
X9589253Y-9914629D01*
X9589253Y-9914629D02*
X9598777Y-9895581D01*
X9598777Y-9895581D02*
X9608301Y-9886058D01*
X9608301Y-9886058D02*
X9627348Y-9876534D01*
X9884491Y-10076534D02*
X9770206Y-10076534D01*
X9827348Y-10076534D02*
X9827348Y-9876534D01*
X9827348Y-9876534D02*
X9808301Y-9905105D01*
X9808301Y-9905105D02*
X9789253Y-9924153D01*
X9789253Y-9924153D02*
X9770206Y-9933677D01*
X10065444Y-9876534D02*
X9970206Y-9876534D01*
X9970206Y-9876534D02*
X9960682Y-9971772D01*
X9960682Y-9971772D02*
X9970206Y-9962248D01*
X9970206Y-9962248D02*
X9989253Y-9952724D01*
X9989253Y-9952724D02*
X10036872Y-9952724D01*
X10036872Y-9952724D02*
X10055920Y-9962248D01*
X10055920Y-9962248D02*
X10065444Y-9971772D01*
X10065444Y-9971772D02*
X10074968Y-9990820D01*
X10074968Y-9990820D02*
X10074968Y-10038439D01*
X10074968Y-10038439D02*
X10065444Y-10057486D01*
X10065444Y-10057486D02*
X10055920Y-10067010D01*
X10055920Y-10067010D02*
X10036872Y-10076534D01*
X10036872Y-10076534D02*
X9989253Y-10076534D01*
X9989253Y-10076534D02*
X9970206Y-10067010D01*
X9970206Y-10067010D02*
X9960682Y-10057486D01*
X10141634Y-9876534D02*
X10274968Y-9876534D01*
X10274968Y-9876534D02*
X10189253Y-10076534D01*
X10341634Y-9876534D02*
X10341634Y-9914629D01*
X10417825Y-9876534D02*
X10417825Y-9914629D01*
X10713063Y-10152724D02*
X10703539Y-10143200D01*
X10703539Y-10143200D02*
X10684491Y-10114629D01*
X10684491Y-10114629D02*
X10674968Y-10095581D01*
X10674968Y-10095581D02*
X10665444Y-10067010D01*
X10665444Y-10067010D02*
X10655920Y-10019391D01*
X10655920Y-10019391D02*
X10655920Y-9981296D01*
X10655920Y-9981296D02*
X10665444Y-9933677D01*
X10665444Y-9933677D02*
X10674968Y-9905105D01*
X10674968Y-9905105D02*
X10684491Y-9886058D01*
X10684491Y-9886058D02*
X10703539Y-9857486D01*
X10703539Y-9857486D02*
X10713063Y-9847962D01*
X10894015Y-10076534D02*
X10779730Y-10076534D01*
X10836872Y-10076534D02*
X10836872Y-9876534D01*
X10836872Y-9876534D02*
X10817825Y-9905105D01*
X10817825Y-9905105D02*
X10798777Y-9924153D01*
X10798777Y-9924153D02*
X10779730Y-9933677D01*
X10960682Y-9876534D02*
X11094015Y-9876534D01*
X11094015Y-9876534D02*
X11008301Y-10076534D01*
X11198777Y-9962248D02*
X11179730Y-9952724D01*
X11179730Y-9952724D02*
X11170206Y-9943200D01*
X11170206Y-9943200D02*
X11160682Y-9924153D01*
X11160682Y-9924153D02*
X11160682Y-9914629D01*
X11160682Y-9914629D02*
X11170206Y-9895581D01*
X11170206Y-9895581D02*
X11179730Y-9886058D01*
X11179730Y-9886058D02*
X11198777Y-9876534D01*
X11198777Y-9876534D02*
X11236872Y-9876534D01*
X11236872Y-9876534D02*
X11255920Y-9886058D01*
X11255920Y-9886058D02*
X11265444Y-9895581D01*
X11265444Y-9895581D02*
X11274968Y-9914629D01*
X11274968Y-9914629D02*
X11274968Y-9924153D01*
X11274968Y-9924153D02*
X11265444Y-9943200D01*
X11265444Y-9943200D02*
X11255920Y-9952724D01*
X11255920Y-9952724D02*
X11236872Y-9962248D01*
X11236872Y-9962248D02*
X11198777Y-9962248D01*
X11198777Y-9962248D02*
X11179730Y-9971772D01*
X11179730Y-9971772D02*
X11170206Y-9981296D01*
X11170206Y-9981296D02*
X11160682Y-10000343D01*
X11160682Y-10000343D02*
X11160682Y-10038439D01*
X11160682Y-10038439D02*
X11170206Y-10057486D01*
X11170206Y-10057486D02*
X11179730Y-10067010D01*
X11179730Y-10067010D02*
X11198777Y-10076534D01*
X11198777Y-10076534D02*
X11236872Y-10076534D01*
X11236872Y-10076534D02*
X11255920Y-10067010D01*
X11255920Y-10067010D02*
X11265444Y-10057486D01*
X11265444Y-10057486D02*
X11274968Y-10038439D01*
X11274968Y-10038439D02*
X11274968Y-10000343D01*
X11274968Y-10000343D02*
X11265444Y-9981296D01*
X11265444Y-9981296D02*
X11255920Y-9971772D01*
X11255920Y-9971772D02*
X11236872Y-9962248D01*
X11513063Y-10076534D02*
X11513063Y-9876534D01*
X11598777Y-10076534D02*
X11598777Y-9971772D01*
X11598777Y-9971772D02*
X11589253Y-9952724D01*
X11589253Y-9952724D02*
X11570206Y-9943200D01*
X11570206Y-9943200D02*
X11541634Y-9943200D01*
X11541634Y-9943200D02*
X11522587Y-9952724D01*
X11522587Y-9952724D02*
X11513063Y-9962248D01*
X11722587Y-10076534D02*
X11703539Y-10067010D01*
X11703539Y-10067010D02*
X11694015Y-10057486D01*
X11694015Y-10057486D02*
X11684491Y-10038439D01*
X11684491Y-10038439D02*
X11684491Y-9981296D01*
X11684491Y-9981296D02*
X11694015Y-9962248D01*
X11694015Y-9962248D02*
X11703539Y-9952724D01*
X11703539Y-9952724D02*
X11722587Y-9943200D01*
X11722587Y-9943200D02*
X11751158Y-9943200D01*
X11751158Y-9943200D02*
X11770206Y-9952724D01*
X11770206Y-9952724D02*
X11779730Y-9962248D01*
X11779730Y-9962248D02*
X11789253Y-9981296D01*
X11789253Y-9981296D02*
X11789253Y-10038439D01*
X11789253Y-10038439D02*
X11779730Y-10057486D01*
X11779730Y-10057486D02*
X11770206Y-10067010D01*
X11770206Y-10067010D02*
X11751158Y-10076534D01*
X11751158Y-10076534D02*
X11722587Y-10076534D01*
X11903539Y-10076534D02*
X11884491Y-10067010D01*
X11884491Y-10067010D02*
X11874968Y-10047962D01*
X11874968Y-10047962D02*
X11874968Y-9876534D01*
X12055920Y-10067010D02*
X12036872Y-10076534D01*
X12036872Y-10076534D02*
X11998777Y-10076534D01*
X11998777Y-10076534D02*
X11979730Y-10067010D01*
X11979730Y-10067010D02*
X11970206Y-10047962D01*
X11970206Y-10047962D02*
X11970206Y-9971772D01*
X11970206Y-9971772D02*
X11979730Y-9952724D01*
X11979730Y-9952724D02*
X11998777Y-9943200D01*
X11998777Y-9943200D02*
X12036872Y-9943200D01*
X12036872Y-9943200D02*
X12055920Y-9952724D01*
X12055920Y-9952724D02*
X12065444Y-9971772D01*
X12065444Y-9971772D02*
X12065444Y-9990820D01*
X12065444Y-9990820D02*
X11970206Y-10009867D01*
X12141634Y-10067010D02*
X12160682Y-10076534D01*
X12160682Y-10076534D02*
X12198777Y-10076534D01*
X12198777Y-10076534D02*
X12217825Y-10067010D01*
X12217825Y-10067010D02*
X12227349Y-10047962D01*
X12227349Y-10047962D02*
X12227349Y-10038439D01*
X12227349Y-10038439D02*
X12217825Y-10019391D01*
X12217825Y-10019391D02*
X12198777Y-10009867D01*
X12198777Y-10009867D02*
X12170206Y-10009867D01*
X12170206Y-10009867D02*
X12151158Y-10000343D01*
X12151158Y-10000343D02*
X12141634Y-9981296D01*
X12141634Y-9981296D02*
X12141634Y-9971772D01*
X12141634Y-9971772D02*
X12151158Y-9952724D01*
X12151158Y-9952724D02*
X12170206Y-9943200D01*
X12170206Y-9943200D02*
X12198777Y-9943200D01*
X12198777Y-9943200D02*
X12217825Y-9952724D01*
X12294015Y-10152724D02*
X12303539Y-10143200D01*
X12303539Y-10143200D02*
X12322587Y-10114629D01*
X12322587Y-10114629D02*
X12332111Y-10095581D01*
X12332111Y-10095581D02*
X12341634Y-10067010D01*
X12341634Y-10067010D02*
X12351158Y-10019391D01*
X12351158Y-10019391D02*
X12351158Y-9981296D01*
X12351158Y-9981296D02*
X12341634Y-9933677D01*
X12341634Y-9933677D02*
X12332111Y-9905105D01*
X12332111Y-9905105D02*
X12322587Y-9886058D01*
X12322587Y-9886058D02*
X12303539Y-9857486D01*
X12303539Y-9857486D02*
X12294015Y-9847962D01*
D10*
X7108000Y-10219050D02*
X7108000Y-10279050D01*
X7078000Y-10249050D02*
X7138000Y-10249050D01*
D11*
X7436872Y-10140534D02*
X7455920Y-10140534D01*
X7455920Y-10140534D02*
X7474967Y-10150058D01*
X7474967Y-10150058D02*
X7484491Y-10159581D01*
X7484491Y-10159581D02*
X7494015Y-10178629D01*
X7494015Y-10178629D02*
X7503539Y-10216724D01*
X7503539Y-10216724D02*
X7503539Y-10264343D01*
X7503539Y-10264343D02*
X7494015Y-10302439D01*
X7494015Y-10302439D02*
X7484491Y-10321486D01*
X7484491Y-10321486D02*
X7474967Y-10331010D01*
X7474967Y-10331010D02*
X7455920Y-10340534D01*
X7455920Y-10340534D02*
X7436872Y-10340534D01*
X7436872Y-10340534D02*
X7417824Y-10331010D01*
X7417824Y-10331010D02*
X7408301Y-10321486D01*
X7408301Y-10321486D02*
X7398777Y-10302439D01*
X7398777Y-10302439D02*
X7389253Y-10264343D01*
X7389253Y-10264343D02*
X7389253Y-10216724D01*
X7389253Y-10216724D02*
X7398777Y-10178629D01*
X7398777Y-10178629D02*
X7408301Y-10159581D01*
X7408301Y-10159581D02*
X7417824Y-10150058D01*
X7417824Y-10150058D02*
X7436872Y-10140534D01*
X7589253Y-10321486D02*
X7598777Y-10331010D01*
X7598777Y-10331010D02*
X7589253Y-10340534D01*
X7589253Y-10340534D02*
X7579729Y-10331010D01*
X7579729Y-10331010D02*
X7589253Y-10321486D01*
X7589253Y-10321486D02*
X7589253Y-10340534D01*
X7770205Y-10140534D02*
X7732110Y-10140534D01*
X7732110Y-10140534D02*
X7713062Y-10150058D01*
X7713062Y-10150058D02*
X7703539Y-10159581D01*
X7703539Y-10159581D02*
X7684491Y-10188153D01*
X7684491Y-10188153D02*
X7674967Y-10226248D01*
X7674967Y-10226248D02*
X7674967Y-10302439D01*
X7674967Y-10302439D02*
X7684491Y-10321486D01*
X7684491Y-10321486D02*
X7694015Y-10331010D01*
X7694015Y-10331010D02*
X7713062Y-10340534D01*
X7713062Y-10340534D02*
X7751158Y-10340534D01*
X7751158Y-10340534D02*
X7770205Y-10331010D01*
X7770205Y-10331010D02*
X7779729Y-10321486D01*
X7779729Y-10321486D02*
X7789253Y-10302439D01*
X7789253Y-10302439D02*
X7789253Y-10254820D01*
X7789253Y-10254820D02*
X7779729Y-10235772D01*
X7779729Y-10235772D02*
X7770205Y-10226248D01*
X7770205Y-10226248D02*
X7751158Y-10216724D01*
X7751158Y-10216724D02*
X7713062Y-10216724D01*
X7713062Y-10216724D02*
X7694015Y-10226248D01*
X7694015Y-10226248D02*
X7684491Y-10235772D01*
X7684491Y-10235772D02*
X7674967Y-10254820D01*
X7913062Y-10140534D02*
X7932110Y-10140534D01*
X7932110Y-10140534D02*
X7951158Y-10150058D01*
X7951158Y-10150058D02*
X7960682Y-10159581D01*
X7960682Y-10159581D02*
X7970205Y-10178629D01*
X7970205Y-10178629D02*
X7979729Y-10216724D01*
X7979729Y-10216724D02*
X7979729Y-10264343D01*
X7979729Y-10264343D02*
X7970205Y-10302439D01*
X7970205Y-10302439D02*
X7960682Y-10321486D01*
X7960682Y-10321486D02*
X7951158Y-10331010D01*
X7951158Y-10331010D02*
X7932110Y-10340534D01*
X7932110Y-10340534D02*
X7913062Y-10340534D01*
X7913062Y-10340534D02*
X7894015Y-10331010D01*
X7894015Y-10331010D02*
X7884491Y-10321486D01*
X7884491Y-10321486D02*
X7874967Y-10302439D01*
X7874967Y-10302439D02*
X7865443Y-10264343D01*
X7865443Y-10264343D02*
X7865443Y-10216724D01*
X7865443Y-10216724D02*
X7874967Y-10178629D01*
X7874967Y-10178629D02*
X7884491Y-10159581D01*
X7884491Y-10159581D02*
X7894015Y-10150058D01*
X7894015Y-10150058D02*
X7913062Y-10140534D01*
X8103539Y-10140534D02*
X8122586Y-10140534D01*
X8122586Y-10140534D02*
X8141634Y-10150058D01*
X8141634Y-10150058D02*
X8151158Y-10159581D01*
X8151158Y-10159581D02*
X8160682Y-10178629D01*
X8160682Y-10178629D02*
X8170205Y-10216724D01*
X8170205Y-10216724D02*
X8170205Y-10264343D01*
X8170205Y-10264343D02*
X8160682Y-10302439D01*
X8160682Y-10302439D02*
X8151158Y-10321486D01*
X8151158Y-10321486D02*
X8141634Y-10331010D01*
X8141634Y-10331010D02*
X8122586Y-10340534D01*
X8122586Y-10340534D02*
X8103539Y-10340534D01*
X8103539Y-10340534D02*
X8084491Y-10331010D01*
X8084491Y-10331010D02*
X8074967Y-10321486D01*
X8074967Y-10321486D02*
X8065443Y-10302439D01*
X8065443Y-10302439D02*
X8055920Y-10264343D01*
X8055920Y-10264343D02*
X8055920Y-10216724D01*
X8055920Y-10216724D02*
X8065443Y-10178629D01*
X8065443Y-10178629D02*
X8074967Y-10159581D01*
X8074967Y-10159581D02*
X8084491Y-10150058D01*
X8084491Y-10150058D02*
X8103539Y-10140534D01*
X8255920Y-10340534D02*
X8255920Y-10207200D01*
X8255920Y-10226248D02*
X8265443Y-10216724D01*
X8265443Y-10216724D02*
X8284491Y-10207200D01*
X8284491Y-10207200D02*
X8313063Y-10207200D01*
X8313063Y-10207200D02*
X8332110Y-10216724D01*
X8332110Y-10216724D02*
X8341634Y-10235772D01*
X8341634Y-10235772D02*
X8341634Y-10340534D01*
X8341634Y-10235772D02*
X8351158Y-10216724D01*
X8351158Y-10216724D02*
X8370205Y-10207200D01*
X8370205Y-10207200D02*
X8398777Y-10207200D01*
X8398777Y-10207200D02*
X8417825Y-10216724D01*
X8417825Y-10216724D02*
X8427348Y-10235772D01*
X8427348Y-10235772D02*
X8427348Y-10340534D01*
X8522586Y-10340534D02*
X8522586Y-10207200D01*
X8522586Y-10226248D02*
X8532110Y-10216724D01*
X8532110Y-10216724D02*
X8551158Y-10207200D01*
X8551158Y-10207200D02*
X8579729Y-10207200D01*
X8579729Y-10207200D02*
X8598777Y-10216724D01*
X8598777Y-10216724D02*
X8608301Y-10235772D01*
X8608301Y-10235772D02*
X8608301Y-10340534D01*
X8608301Y-10235772D02*
X8617825Y-10216724D01*
X8617825Y-10216724D02*
X8636872Y-10207200D01*
X8636872Y-10207200D02*
X8665444Y-10207200D01*
X8665444Y-10207200D02*
X8684491Y-10216724D01*
X8684491Y-10216724D02*
X8694015Y-10235772D01*
X8694015Y-10235772D02*
X8694015Y-10340534D01*
X9084491Y-10131010D02*
X8913063Y-10388153D01*
X9341634Y-10140534D02*
X9360682Y-10140534D01*
X9360682Y-10140534D02*
X9379729Y-10150058D01*
X9379729Y-10150058D02*
X9389253Y-10159581D01*
X9389253Y-10159581D02*
X9398777Y-10178629D01*
X9398777Y-10178629D02*
X9408301Y-10216724D01*
X9408301Y-10216724D02*
X9408301Y-10264343D01*
X9408301Y-10264343D02*
X9398777Y-10302439D01*
X9398777Y-10302439D02*
X9389253Y-10321486D01*
X9389253Y-10321486D02*
X9379729Y-10331010D01*
X9379729Y-10331010D02*
X9360682Y-10340534D01*
X9360682Y-10340534D02*
X9341634Y-10340534D01*
X9341634Y-10340534D02*
X9322587Y-10331010D01*
X9322587Y-10331010D02*
X9313063Y-10321486D01*
X9313063Y-10321486D02*
X9303539Y-10302439D01*
X9303539Y-10302439D02*
X9294015Y-10264343D01*
X9294015Y-10264343D02*
X9294015Y-10216724D01*
X9294015Y-10216724D02*
X9303539Y-10178629D01*
X9303539Y-10178629D02*
X9313063Y-10159581D01*
X9313063Y-10159581D02*
X9322587Y-10150058D01*
X9322587Y-10150058D02*
X9341634Y-10140534D01*
X9494015Y-10321486D02*
X9503539Y-10331010D01*
X9503539Y-10331010D02*
X9494015Y-10340534D01*
X9494015Y-10340534D02*
X9484491Y-10331010D01*
X9484491Y-10331010D02*
X9494015Y-10321486D01*
X9494015Y-10321486D02*
X9494015Y-10340534D01*
X9627348Y-10140534D02*
X9646396Y-10140534D01*
X9646396Y-10140534D02*
X9665444Y-10150058D01*
X9665444Y-10150058D02*
X9674968Y-10159581D01*
X9674968Y-10159581D02*
X9684491Y-10178629D01*
X9684491Y-10178629D02*
X9694015Y-10216724D01*
X9694015Y-10216724D02*
X9694015Y-10264343D01*
X9694015Y-10264343D02*
X9684491Y-10302439D01*
X9684491Y-10302439D02*
X9674968Y-10321486D01*
X9674968Y-10321486D02*
X9665444Y-10331010D01*
X9665444Y-10331010D02*
X9646396Y-10340534D01*
X9646396Y-10340534D02*
X9627348Y-10340534D01*
X9627348Y-10340534D02*
X9608301Y-10331010D01*
X9608301Y-10331010D02*
X9598777Y-10321486D01*
X9598777Y-10321486D02*
X9589253Y-10302439D01*
X9589253Y-10302439D02*
X9579729Y-10264343D01*
X9579729Y-10264343D02*
X9579729Y-10216724D01*
X9579729Y-10216724D02*
X9589253Y-10178629D01*
X9589253Y-10178629D02*
X9598777Y-10159581D01*
X9598777Y-10159581D02*
X9608301Y-10150058D01*
X9608301Y-10150058D02*
X9627348Y-10140534D01*
X9770206Y-10159581D02*
X9779729Y-10150058D01*
X9779729Y-10150058D02*
X9798777Y-10140534D01*
X9798777Y-10140534D02*
X9846396Y-10140534D01*
X9846396Y-10140534D02*
X9865444Y-10150058D01*
X9865444Y-10150058D02*
X9874968Y-10159581D01*
X9874968Y-10159581D02*
X9884491Y-10178629D01*
X9884491Y-10178629D02*
X9884491Y-10197677D01*
X9884491Y-10197677D02*
X9874968Y-10226248D01*
X9874968Y-10226248D02*
X9760682Y-10340534D01*
X9760682Y-10340534D02*
X9884491Y-10340534D01*
X9951158Y-10140534D02*
X10074968Y-10140534D01*
X10074968Y-10140534D02*
X10008301Y-10216724D01*
X10008301Y-10216724D02*
X10036872Y-10216724D01*
X10036872Y-10216724D02*
X10055920Y-10226248D01*
X10055920Y-10226248D02*
X10065444Y-10235772D01*
X10065444Y-10235772D02*
X10074968Y-10254820D01*
X10074968Y-10254820D02*
X10074968Y-10302439D01*
X10074968Y-10302439D02*
X10065444Y-10321486D01*
X10065444Y-10321486D02*
X10055920Y-10331010D01*
X10055920Y-10331010D02*
X10036872Y-10340534D01*
X10036872Y-10340534D02*
X9979729Y-10340534D01*
X9979729Y-10340534D02*
X9960682Y-10331010D01*
X9960682Y-10331010D02*
X9951158Y-10321486D01*
X10246396Y-10140534D02*
X10208301Y-10140534D01*
X10208301Y-10140534D02*
X10189253Y-10150058D01*
X10189253Y-10150058D02*
X10179729Y-10159581D01*
X10179729Y-10159581D02*
X10160682Y-10188153D01*
X10160682Y-10188153D02*
X10151158Y-10226248D01*
X10151158Y-10226248D02*
X10151158Y-10302439D01*
X10151158Y-10302439D02*
X10160682Y-10321486D01*
X10160682Y-10321486D02*
X10170206Y-10331010D01*
X10170206Y-10331010D02*
X10189253Y-10340534D01*
X10189253Y-10340534D02*
X10227349Y-10340534D01*
X10227349Y-10340534D02*
X10246396Y-10331010D01*
X10246396Y-10331010D02*
X10255920Y-10321486D01*
X10255920Y-10321486D02*
X10265444Y-10302439D01*
X10265444Y-10302439D02*
X10265444Y-10254820D01*
X10265444Y-10254820D02*
X10255920Y-10235772D01*
X10255920Y-10235772D02*
X10246396Y-10226248D01*
X10246396Y-10226248D02*
X10227349Y-10216724D01*
X10227349Y-10216724D02*
X10189253Y-10216724D01*
X10189253Y-10216724D02*
X10170206Y-10226248D01*
X10170206Y-10226248D02*
X10160682Y-10235772D01*
X10160682Y-10235772D02*
X10151158Y-10254820D01*
X10341634Y-10140534D02*
X10341634Y-10178629D01*
X10417825Y-10140534D02*
X10417825Y-10178629D01*
X10713063Y-10416724D02*
X10703539Y-10407200D01*
X10703539Y-10407200D02*
X10684491Y-10378629D01*
X10684491Y-10378629D02*
X10674968Y-10359581D01*
X10674968Y-10359581D02*
X10665444Y-10331010D01*
X10665444Y-10331010D02*
X10655920Y-10283391D01*
X10655920Y-10283391D02*
X10655920Y-10245296D01*
X10655920Y-10245296D02*
X10665444Y-10197677D01*
X10665444Y-10197677D02*
X10674968Y-10169105D01*
X10674968Y-10169105D02*
X10684491Y-10150058D01*
X10684491Y-10150058D02*
X10703539Y-10121486D01*
X10703539Y-10121486D02*
X10713063Y-10111962D01*
X10827349Y-10140534D02*
X10846396Y-10140534D01*
X10846396Y-10140534D02*
X10865444Y-10150058D01*
X10865444Y-10150058D02*
X10874968Y-10159581D01*
X10874968Y-10159581D02*
X10884491Y-10178629D01*
X10884491Y-10178629D02*
X10894015Y-10216724D01*
X10894015Y-10216724D02*
X10894015Y-10264343D01*
X10894015Y-10264343D02*
X10884491Y-10302439D01*
X10884491Y-10302439D02*
X10874968Y-10321486D01*
X10874968Y-10321486D02*
X10865444Y-10331010D01*
X10865444Y-10331010D02*
X10846396Y-10340534D01*
X10846396Y-10340534D02*
X10827349Y-10340534D01*
X10827349Y-10340534D02*
X10808301Y-10331010D01*
X10808301Y-10331010D02*
X10798777Y-10321486D01*
X10798777Y-10321486D02*
X10789253Y-10302439D01*
X10789253Y-10302439D02*
X10779730Y-10264343D01*
X10779730Y-10264343D02*
X10779730Y-10216724D01*
X10779730Y-10216724D02*
X10789253Y-10178629D01*
X10789253Y-10178629D02*
X10798777Y-10159581D01*
X10798777Y-10159581D02*
X10808301Y-10150058D01*
X10808301Y-10150058D02*
X10827349Y-10140534D01*
X11132111Y-10340534D02*
X11132111Y-10140534D01*
X11217825Y-10340534D02*
X11217825Y-10235772D01*
X11217825Y-10235772D02*
X11208301Y-10216724D01*
X11208301Y-10216724D02*
X11189253Y-10207200D01*
X11189253Y-10207200D02*
X11160682Y-10207200D01*
X11160682Y-10207200D02*
X11141634Y-10216724D01*
X11141634Y-10216724D02*
X11132111Y-10226248D01*
X11341634Y-10340534D02*
X11322587Y-10331010D01*
X11322587Y-10331010D02*
X11313063Y-10321486D01*
X11313063Y-10321486D02*
X11303539Y-10302439D01*
X11303539Y-10302439D02*
X11303539Y-10245296D01*
X11303539Y-10245296D02*
X11313063Y-10226248D01*
X11313063Y-10226248D02*
X11322587Y-10216724D01*
X11322587Y-10216724D02*
X11341634Y-10207200D01*
X11341634Y-10207200D02*
X11370206Y-10207200D01*
X11370206Y-10207200D02*
X11389253Y-10216724D01*
X11389253Y-10216724D02*
X11398777Y-10226248D01*
X11398777Y-10226248D02*
X11408301Y-10245296D01*
X11408301Y-10245296D02*
X11408301Y-10302439D01*
X11408301Y-10302439D02*
X11398777Y-10321486D01*
X11398777Y-10321486D02*
X11389253Y-10331010D01*
X11389253Y-10331010D02*
X11370206Y-10340534D01*
X11370206Y-10340534D02*
X11341634Y-10340534D01*
X11522587Y-10340534D02*
X11503539Y-10331010D01*
X11503539Y-10331010D02*
X11494015Y-10311962D01*
X11494015Y-10311962D02*
X11494015Y-10140534D01*
X11674968Y-10331010D02*
X11655920Y-10340534D01*
X11655920Y-10340534D02*
X11617825Y-10340534D01*
X11617825Y-10340534D02*
X11598777Y-10331010D01*
X11598777Y-10331010D02*
X11589253Y-10311962D01*
X11589253Y-10311962D02*
X11589253Y-10235772D01*
X11589253Y-10235772D02*
X11598777Y-10216724D01*
X11598777Y-10216724D02*
X11617825Y-10207200D01*
X11617825Y-10207200D02*
X11655920Y-10207200D01*
X11655920Y-10207200D02*
X11674968Y-10216724D01*
X11674968Y-10216724D02*
X11684491Y-10235772D01*
X11684491Y-10235772D02*
X11684491Y-10254820D01*
X11684491Y-10254820D02*
X11589253Y-10273867D01*
X11760682Y-10331010D02*
X11779730Y-10340534D01*
X11779730Y-10340534D02*
X11817825Y-10340534D01*
X11817825Y-10340534D02*
X11836872Y-10331010D01*
X11836872Y-10331010D02*
X11846396Y-10311962D01*
X11846396Y-10311962D02*
X11846396Y-10302439D01*
X11846396Y-10302439D02*
X11836872Y-10283391D01*
X11836872Y-10283391D02*
X11817825Y-10273867D01*
X11817825Y-10273867D02*
X11789253Y-10273867D01*
X11789253Y-10273867D02*
X11770206Y-10264343D01*
X11770206Y-10264343D02*
X11760682Y-10245296D01*
X11760682Y-10245296D02*
X11760682Y-10235772D01*
X11760682Y-10235772D02*
X11770206Y-10216724D01*
X11770206Y-10216724D02*
X11789253Y-10207200D01*
X11789253Y-10207200D02*
X11817825Y-10207200D01*
X11817825Y-10207200D02*
X11836872Y-10216724D01*
X12084492Y-10264343D02*
X12236873Y-10264343D01*
X12160682Y-10340534D02*
X12160682Y-10188153D01*
X12570206Y-10207200D02*
X12570206Y-10340534D01*
X12522587Y-10131010D02*
X12474968Y-10273867D01*
X12474968Y-10273867D02*
X12598777Y-10273867D01*
X12817825Y-10331010D02*
X12836873Y-10340534D01*
X12836873Y-10340534D02*
X12874968Y-10340534D01*
X12874968Y-10340534D02*
X12894015Y-10331010D01*
X12894015Y-10331010D02*
X12903539Y-10311962D01*
X12903539Y-10311962D02*
X12903539Y-10302439D01*
X12903539Y-10302439D02*
X12894015Y-10283391D01*
X12894015Y-10283391D02*
X12874968Y-10273867D01*
X12874968Y-10273867D02*
X12846396Y-10273867D01*
X12846396Y-10273867D02*
X12827349Y-10264343D01*
X12827349Y-10264343D02*
X12817825Y-10245296D01*
X12817825Y-10245296D02*
X12817825Y-10235772D01*
X12817825Y-10235772D02*
X12827349Y-10216724D01*
X12827349Y-10216724D02*
X12846396Y-10207200D01*
X12846396Y-10207200D02*
X12874968Y-10207200D01*
X12874968Y-10207200D02*
X12894015Y-10216724D01*
X13017825Y-10340534D02*
X12998777Y-10331010D01*
X12998777Y-10331010D02*
X12989254Y-10311962D01*
X12989254Y-10311962D02*
X12989254Y-10140534D01*
X13122587Y-10340534D02*
X13103539Y-10331010D01*
X13103539Y-10331010D02*
X13094015Y-10321486D01*
X13094015Y-10321486D02*
X13084492Y-10302439D01*
X13084492Y-10302439D02*
X13084492Y-10245296D01*
X13084492Y-10245296D02*
X13094015Y-10226248D01*
X13094015Y-10226248D02*
X13103539Y-10216724D01*
X13103539Y-10216724D02*
X13122587Y-10207200D01*
X13122587Y-10207200D02*
X13151158Y-10207200D01*
X13151158Y-10207200D02*
X13170206Y-10216724D01*
X13170206Y-10216724D02*
X13179730Y-10226248D01*
X13179730Y-10226248D02*
X13189254Y-10245296D01*
X13189254Y-10245296D02*
X13189254Y-10302439D01*
X13189254Y-10302439D02*
X13179730Y-10321486D01*
X13179730Y-10321486D02*
X13170206Y-10331010D01*
X13170206Y-10331010D02*
X13151158Y-10340534D01*
X13151158Y-10340534D02*
X13122587Y-10340534D01*
X13246396Y-10207200D02*
X13322587Y-10207200D01*
X13274968Y-10140534D02*
X13274968Y-10311962D01*
X13274968Y-10311962D02*
X13284492Y-10331010D01*
X13284492Y-10331010D02*
X13303539Y-10340534D01*
X13303539Y-10340534D02*
X13322587Y-10340534D01*
X13379730Y-10331010D02*
X13398777Y-10340534D01*
X13398777Y-10340534D02*
X13436873Y-10340534D01*
X13436873Y-10340534D02*
X13455920Y-10331010D01*
X13455920Y-10331010D02*
X13465444Y-10311962D01*
X13465444Y-10311962D02*
X13465444Y-10302439D01*
X13465444Y-10302439D02*
X13455920Y-10283391D01*
X13455920Y-10283391D02*
X13436873Y-10273867D01*
X13436873Y-10273867D02*
X13408301Y-10273867D01*
X13408301Y-10273867D02*
X13389254Y-10264343D01*
X13389254Y-10264343D02*
X13379730Y-10245296D01*
X13379730Y-10245296D02*
X13379730Y-10235772D01*
X13379730Y-10235772D02*
X13389254Y-10216724D01*
X13389254Y-10216724D02*
X13408301Y-10207200D01*
X13408301Y-10207200D02*
X13436873Y-10207200D01*
X13436873Y-10207200D02*
X13455920Y-10216724D01*
X13532111Y-10416724D02*
X13541635Y-10407200D01*
X13541635Y-10407200D02*
X13560682Y-10378629D01*
X13560682Y-10378629D02*
X13570206Y-10359581D01*
X13570206Y-10359581D02*
X13579730Y-10331010D01*
X13579730Y-10331010D02*
X13589254Y-10283391D01*
X13589254Y-10283391D02*
X13589254Y-10245296D01*
X13589254Y-10245296D02*
X13579730Y-10197677D01*
X13579730Y-10197677D02*
X13570206Y-10169105D01*
X13570206Y-10169105D02*
X13560682Y-10150058D01*
X13560682Y-10150058D02*
X13541635Y-10121486D01*
X13541635Y-10121486D02*
X13532111Y-10111962D01*
D10*
X7123356Y-10548406D02*
X7123356Y-10477694D01*
X7052644Y-10477694D01*
X7052644Y-10548406D01*
X7123356Y-10548406D01*
D11*
X7503539Y-10604534D02*
X7389253Y-10604534D01*
X7446396Y-10604534D02*
X7446396Y-10404534D01*
X7446396Y-10404534D02*
X7427348Y-10433105D01*
X7427348Y-10433105D02*
X7408301Y-10452153D01*
X7408301Y-10452153D02*
X7389253Y-10461677D01*
X7589253Y-10585486D02*
X7598777Y-10595010D01*
X7598777Y-10595010D02*
X7589253Y-10604534D01*
X7589253Y-10604534D02*
X7579729Y-10595010D01*
X7579729Y-10595010D02*
X7589253Y-10585486D01*
X7589253Y-10585486D02*
X7589253Y-10604534D01*
X7722586Y-10404534D02*
X7741634Y-10404534D01*
X7741634Y-10404534D02*
X7760682Y-10414058D01*
X7760682Y-10414058D02*
X7770205Y-10423581D01*
X7770205Y-10423581D02*
X7779729Y-10442629D01*
X7779729Y-10442629D02*
X7789253Y-10480724D01*
X7789253Y-10480724D02*
X7789253Y-10528343D01*
X7789253Y-10528343D02*
X7779729Y-10566439D01*
X7779729Y-10566439D02*
X7770205Y-10585486D01*
X7770205Y-10585486D02*
X7760682Y-10595010D01*
X7760682Y-10595010D02*
X7741634Y-10604534D01*
X7741634Y-10604534D02*
X7722586Y-10604534D01*
X7722586Y-10604534D02*
X7703539Y-10595010D01*
X7703539Y-10595010D02*
X7694015Y-10585486D01*
X7694015Y-10585486D02*
X7684491Y-10566439D01*
X7684491Y-10566439D02*
X7674967Y-10528343D01*
X7674967Y-10528343D02*
X7674967Y-10480724D01*
X7674967Y-10480724D02*
X7684491Y-10442629D01*
X7684491Y-10442629D02*
X7694015Y-10423581D01*
X7694015Y-10423581D02*
X7703539Y-10414058D01*
X7703539Y-10414058D02*
X7722586Y-10404534D01*
X7913062Y-10404534D02*
X7932110Y-10404534D01*
X7932110Y-10404534D02*
X7951158Y-10414058D01*
X7951158Y-10414058D02*
X7960682Y-10423581D01*
X7960682Y-10423581D02*
X7970205Y-10442629D01*
X7970205Y-10442629D02*
X7979729Y-10480724D01*
X7979729Y-10480724D02*
X7979729Y-10528343D01*
X7979729Y-10528343D02*
X7970205Y-10566439D01*
X7970205Y-10566439D02*
X7960682Y-10585486D01*
X7960682Y-10585486D02*
X7951158Y-10595010D01*
X7951158Y-10595010D02*
X7932110Y-10604534D01*
X7932110Y-10604534D02*
X7913062Y-10604534D01*
X7913062Y-10604534D02*
X7894015Y-10595010D01*
X7894015Y-10595010D02*
X7884491Y-10585486D01*
X7884491Y-10585486D02*
X7874967Y-10566439D01*
X7874967Y-10566439D02*
X7865443Y-10528343D01*
X7865443Y-10528343D02*
X7865443Y-10480724D01*
X7865443Y-10480724D02*
X7874967Y-10442629D01*
X7874967Y-10442629D02*
X7884491Y-10423581D01*
X7884491Y-10423581D02*
X7894015Y-10414058D01*
X7894015Y-10414058D02*
X7913062Y-10404534D01*
X8103539Y-10404534D02*
X8122586Y-10404534D01*
X8122586Y-10404534D02*
X8141634Y-10414058D01*
X8141634Y-10414058D02*
X8151158Y-10423581D01*
X8151158Y-10423581D02*
X8160682Y-10442629D01*
X8160682Y-10442629D02*
X8170205Y-10480724D01*
X8170205Y-10480724D02*
X8170205Y-10528343D01*
X8170205Y-10528343D02*
X8160682Y-10566439D01*
X8160682Y-10566439D02*
X8151158Y-10585486D01*
X8151158Y-10585486D02*
X8141634Y-10595010D01*
X8141634Y-10595010D02*
X8122586Y-10604534D01*
X8122586Y-10604534D02*
X8103539Y-10604534D01*
X8103539Y-10604534D02*
X8084491Y-10595010D01*
X8084491Y-10595010D02*
X8074967Y-10585486D01*
X8074967Y-10585486D02*
X8065443Y-10566439D01*
X8065443Y-10566439D02*
X8055920Y-10528343D01*
X8055920Y-10528343D02*
X8055920Y-10480724D01*
X8055920Y-10480724D02*
X8065443Y-10442629D01*
X8065443Y-10442629D02*
X8074967Y-10423581D01*
X8074967Y-10423581D02*
X8084491Y-10414058D01*
X8084491Y-10414058D02*
X8103539Y-10404534D01*
X8255920Y-10604534D02*
X8255920Y-10471200D01*
X8255920Y-10490248D02*
X8265443Y-10480724D01*
X8265443Y-10480724D02*
X8284491Y-10471200D01*
X8284491Y-10471200D02*
X8313063Y-10471200D01*
X8313063Y-10471200D02*
X8332110Y-10480724D01*
X8332110Y-10480724D02*
X8341634Y-10499772D01*
X8341634Y-10499772D02*
X8341634Y-10604534D01*
X8341634Y-10499772D02*
X8351158Y-10480724D01*
X8351158Y-10480724D02*
X8370205Y-10471200D01*
X8370205Y-10471200D02*
X8398777Y-10471200D01*
X8398777Y-10471200D02*
X8417825Y-10480724D01*
X8417825Y-10480724D02*
X8427348Y-10499772D01*
X8427348Y-10499772D02*
X8427348Y-10604534D01*
X8522586Y-10604534D02*
X8522586Y-10471200D01*
X8522586Y-10490248D02*
X8532110Y-10480724D01*
X8532110Y-10480724D02*
X8551158Y-10471200D01*
X8551158Y-10471200D02*
X8579729Y-10471200D01*
X8579729Y-10471200D02*
X8598777Y-10480724D01*
X8598777Y-10480724D02*
X8608301Y-10499772D01*
X8608301Y-10499772D02*
X8608301Y-10604534D01*
X8608301Y-10499772D02*
X8617825Y-10480724D01*
X8617825Y-10480724D02*
X8636872Y-10471200D01*
X8636872Y-10471200D02*
X8665444Y-10471200D01*
X8665444Y-10471200D02*
X8684491Y-10480724D01*
X8684491Y-10480724D02*
X8694015Y-10499772D01*
X8694015Y-10499772D02*
X8694015Y-10604534D01*
X9084491Y-10395010D02*
X8913063Y-10652153D01*
X9341634Y-10404534D02*
X9360682Y-10404534D01*
X9360682Y-10404534D02*
X9379729Y-10414058D01*
X9379729Y-10414058D02*
X9389253Y-10423581D01*
X9389253Y-10423581D02*
X9398777Y-10442629D01*
X9398777Y-10442629D02*
X9408301Y-10480724D01*
X9408301Y-10480724D02*
X9408301Y-10528343D01*
X9408301Y-10528343D02*
X9398777Y-10566439D01*
X9398777Y-10566439D02*
X9389253Y-10585486D01*
X9389253Y-10585486D02*
X9379729Y-10595010D01*
X9379729Y-10595010D02*
X9360682Y-10604534D01*
X9360682Y-10604534D02*
X9341634Y-10604534D01*
X9341634Y-10604534D02*
X9322587Y-10595010D01*
X9322587Y-10595010D02*
X9313063Y-10585486D01*
X9313063Y-10585486D02*
X9303539Y-10566439D01*
X9303539Y-10566439D02*
X9294015Y-10528343D01*
X9294015Y-10528343D02*
X9294015Y-10480724D01*
X9294015Y-10480724D02*
X9303539Y-10442629D01*
X9303539Y-10442629D02*
X9313063Y-10423581D01*
X9313063Y-10423581D02*
X9322587Y-10414058D01*
X9322587Y-10414058D02*
X9341634Y-10404534D01*
X9494015Y-10585486D02*
X9503539Y-10595010D01*
X9503539Y-10595010D02*
X9494015Y-10604534D01*
X9494015Y-10604534D02*
X9484491Y-10595010D01*
X9484491Y-10595010D02*
X9494015Y-10585486D01*
X9494015Y-10585486D02*
X9494015Y-10604534D01*
X9627348Y-10404534D02*
X9646396Y-10404534D01*
X9646396Y-10404534D02*
X9665444Y-10414058D01*
X9665444Y-10414058D02*
X9674968Y-10423581D01*
X9674968Y-10423581D02*
X9684491Y-10442629D01*
X9684491Y-10442629D02*
X9694015Y-10480724D01*
X9694015Y-10480724D02*
X9694015Y-10528343D01*
X9694015Y-10528343D02*
X9684491Y-10566439D01*
X9684491Y-10566439D02*
X9674968Y-10585486D01*
X9674968Y-10585486D02*
X9665444Y-10595010D01*
X9665444Y-10595010D02*
X9646396Y-10604534D01*
X9646396Y-10604534D02*
X9627348Y-10604534D01*
X9627348Y-10604534D02*
X9608301Y-10595010D01*
X9608301Y-10595010D02*
X9598777Y-10585486D01*
X9598777Y-10585486D02*
X9589253Y-10566439D01*
X9589253Y-10566439D02*
X9579729Y-10528343D01*
X9579729Y-10528343D02*
X9579729Y-10480724D01*
X9579729Y-10480724D02*
X9589253Y-10442629D01*
X9589253Y-10442629D02*
X9598777Y-10423581D01*
X9598777Y-10423581D02*
X9608301Y-10414058D01*
X9608301Y-10414058D02*
X9627348Y-10404534D01*
X9760682Y-10404534D02*
X9884491Y-10404534D01*
X9884491Y-10404534D02*
X9817825Y-10480724D01*
X9817825Y-10480724D02*
X9846396Y-10480724D01*
X9846396Y-10480724D02*
X9865444Y-10490248D01*
X9865444Y-10490248D02*
X9874968Y-10499772D01*
X9874968Y-10499772D02*
X9884491Y-10518820D01*
X9884491Y-10518820D02*
X9884491Y-10566439D01*
X9884491Y-10566439D02*
X9874968Y-10585486D01*
X9874968Y-10585486D02*
X9865444Y-10595010D01*
X9865444Y-10595010D02*
X9846396Y-10604534D01*
X9846396Y-10604534D02*
X9789253Y-10604534D01*
X9789253Y-10604534D02*
X9770206Y-10595010D01*
X9770206Y-10595010D02*
X9760682Y-10585486D01*
X9979729Y-10604534D02*
X10017825Y-10604534D01*
X10017825Y-10604534D02*
X10036872Y-10595010D01*
X10036872Y-10595010D02*
X10046396Y-10585486D01*
X10046396Y-10585486D02*
X10065444Y-10556915D01*
X10065444Y-10556915D02*
X10074968Y-10518820D01*
X10074968Y-10518820D02*
X10074968Y-10442629D01*
X10074968Y-10442629D02*
X10065444Y-10423581D01*
X10065444Y-10423581D02*
X10055920Y-10414058D01*
X10055920Y-10414058D02*
X10036872Y-10404534D01*
X10036872Y-10404534D02*
X9998777Y-10404534D01*
X9998777Y-10404534D02*
X9979729Y-10414058D01*
X9979729Y-10414058D02*
X9970206Y-10423581D01*
X9970206Y-10423581D02*
X9960682Y-10442629D01*
X9960682Y-10442629D02*
X9960682Y-10490248D01*
X9960682Y-10490248D02*
X9970206Y-10509296D01*
X9970206Y-10509296D02*
X9979729Y-10518820D01*
X9979729Y-10518820D02*
X9998777Y-10528343D01*
X9998777Y-10528343D02*
X10036872Y-10528343D01*
X10036872Y-10528343D02*
X10055920Y-10518820D01*
X10055920Y-10518820D02*
X10065444Y-10509296D01*
X10065444Y-10509296D02*
X10074968Y-10490248D01*
X10246396Y-10471200D02*
X10246396Y-10604534D01*
X10198777Y-10395010D02*
X10151158Y-10537867D01*
X10151158Y-10537867D02*
X10274968Y-10537867D01*
X10341634Y-10404534D02*
X10341634Y-10442629D01*
X10417825Y-10404534D02*
X10417825Y-10442629D01*
X10713063Y-10680724D02*
X10703539Y-10671200D01*
X10703539Y-10671200D02*
X10684491Y-10642629D01*
X10684491Y-10642629D02*
X10674968Y-10623581D01*
X10674968Y-10623581D02*
X10665444Y-10595010D01*
X10665444Y-10595010D02*
X10655920Y-10547391D01*
X10655920Y-10547391D02*
X10655920Y-10509296D01*
X10655920Y-10509296D02*
X10665444Y-10461677D01*
X10665444Y-10461677D02*
X10674968Y-10433105D01*
X10674968Y-10433105D02*
X10684491Y-10414058D01*
X10684491Y-10414058D02*
X10703539Y-10385486D01*
X10703539Y-10385486D02*
X10713063Y-10375962D01*
X10874968Y-10471200D02*
X10874968Y-10604534D01*
X10827349Y-10395010D02*
X10779730Y-10537867D01*
X10779730Y-10537867D02*
X10903539Y-10537867D01*
X10960682Y-10404534D02*
X11084491Y-10404534D01*
X11084491Y-10404534D02*
X11017825Y-10480724D01*
X11017825Y-10480724D02*
X11046396Y-10480724D01*
X11046396Y-10480724D02*
X11065444Y-10490248D01*
X11065444Y-10490248D02*
X11074968Y-10499772D01*
X11074968Y-10499772D02*
X11084491Y-10518820D01*
X11084491Y-10518820D02*
X11084491Y-10566439D01*
X11084491Y-10566439D02*
X11074968Y-10585486D01*
X11074968Y-10585486D02*
X11065444Y-10595010D01*
X11065444Y-10595010D02*
X11046396Y-10604534D01*
X11046396Y-10604534D02*
X10989253Y-10604534D01*
X10989253Y-10604534D02*
X10970206Y-10595010D01*
X10970206Y-10595010D02*
X10960682Y-10585486D01*
X11322587Y-10604534D02*
X11322587Y-10404534D01*
X11408301Y-10604534D02*
X11408301Y-10499772D01*
X11408301Y-10499772D02*
X11398777Y-10480724D01*
X11398777Y-10480724D02*
X11379730Y-10471200D01*
X11379730Y-10471200D02*
X11351158Y-10471200D01*
X11351158Y-10471200D02*
X11332110Y-10480724D01*
X11332110Y-10480724D02*
X11322587Y-10490248D01*
X11532110Y-10604534D02*
X11513063Y-10595010D01*
X11513063Y-10595010D02*
X11503539Y-10585486D01*
X11503539Y-10585486D02*
X11494015Y-10566439D01*
X11494015Y-10566439D02*
X11494015Y-10509296D01*
X11494015Y-10509296D02*
X11503539Y-10490248D01*
X11503539Y-10490248D02*
X11513063Y-10480724D01*
X11513063Y-10480724D02*
X11532110Y-10471200D01*
X11532110Y-10471200D02*
X11560682Y-10471200D01*
X11560682Y-10471200D02*
X11579730Y-10480724D01*
X11579730Y-10480724D02*
X11589253Y-10490248D01*
X11589253Y-10490248D02*
X11598777Y-10509296D01*
X11598777Y-10509296D02*
X11598777Y-10566439D01*
X11598777Y-10566439D02*
X11589253Y-10585486D01*
X11589253Y-10585486D02*
X11579730Y-10595010D01*
X11579730Y-10595010D02*
X11560682Y-10604534D01*
X11560682Y-10604534D02*
X11532110Y-10604534D01*
X11713063Y-10604534D02*
X11694015Y-10595010D01*
X11694015Y-10595010D02*
X11684491Y-10575962D01*
X11684491Y-10575962D02*
X11684491Y-10404534D01*
X11865444Y-10595010D02*
X11846396Y-10604534D01*
X11846396Y-10604534D02*
X11808301Y-10604534D01*
X11808301Y-10604534D02*
X11789253Y-10595010D01*
X11789253Y-10595010D02*
X11779730Y-10575962D01*
X11779730Y-10575962D02*
X11779730Y-10499772D01*
X11779730Y-10499772D02*
X11789253Y-10480724D01*
X11789253Y-10480724D02*
X11808301Y-10471200D01*
X11808301Y-10471200D02*
X11846396Y-10471200D01*
X11846396Y-10471200D02*
X11865444Y-10480724D01*
X11865444Y-10480724D02*
X11874968Y-10499772D01*
X11874968Y-10499772D02*
X11874968Y-10518820D01*
X11874968Y-10518820D02*
X11779730Y-10537867D01*
X11951158Y-10595010D02*
X11970206Y-10604534D01*
X11970206Y-10604534D02*
X12008301Y-10604534D01*
X12008301Y-10604534D02*
X12027349Y-10595010D01*
X12027349Y-10595010D02*
X12036872Y-10575962D01*
X12036872Y-10575962D02*
X12036872Y-10566439D01*
X12036872Y-10566439D02*
X12027349Y-10547391D01*
X12027349Y-10547391D02*
X12008301Y-10537867D01*
X12008301Y-10537867D02*
X11979730Y-10537867D01*
X11979730Y-10537867D02*
X11960682Y-10528343D01*
X11960682Y-10528343D02*
X11951158Y-10509296D01*
X11951158Y-10509296D02*
X11951158Y-10499772D01*
X11951158Y-10499772D02*
X11960682Y-10480724D01*
X11960682Y-10480724D02*
X11979730Y-10471200D01*
X11979730Y-10471200D02*
X12008301Y-10471200D01*
X12008301Y-10471200D02*
X12027349Y-10480724D01*
X12274968Y-10528343D02*
X12427349Y-10528343D01*
X12351158Y-10604534D02*
X12351158Y-10452153D01*
X12655920Y-10404534D02*
X12779730Y-10404534D01*
X12779730Y-10404534D02*
X12713063Y-10480724D01*
X12713063Y-10480724D02*
X12741634Y-10480724D01*
X12741634Y-10480724D02*
X12760682Y-10490248D01*
X12760682Y-10490248D02*
X12770206Y-10499772D01*
X12770206Y-10499772D02*
X12779730Y-10518820D01*
X12779730Y-10518820D02*
X12779730Y-10566439D01*
X12779730Y-10566439D02*
X12770206Y-10585486D01*
X12770206Y-10585486D02*
X12760682Y-10595010D01*
X12760682Y-10595010D02*
X12741634Y-10604534D01*
X12741634Y-10604534D02*
X12684492Y-10604534D01*
X12684492Y-10604534D02*
X12665444Y-10595010D01*
X12665444Y-10595010D02*
X12655920Y-10585486D01*
X13008301Y-10595010D02*
X13027349Y-10604534D01*
X13027349Y-10604534D02*
X13065444Y-10604534D01*
X13065444Y-10604534D02*
X13084492Y-10595010D01*
X13084492Y-10595010D02*
X13094015Y-10575962D01*
X13094015Y-10575962D02*
X13094015Y-10566439D01*
X13094015Y-10566439D02*
X13084492Y-10547391D01*
X13084492Y-10547391D02*
X13065444Y-10537867D01*
X13065444Y-10537867D02*
X13036873Y-10537867D01*
X13036873Y-10537867D02*
X13017825Y-10528343D01*
X13017825Y-10528343D02*
X13008301Y-10509296D01*
X13008301Y-10509296D02*
X13008301Y-10499772D01*
X13008301Y-10499772D02*
X13017825Y-10480724D01*
X13017825Y-10480724D02*
X13036873Y-10471200D01*
X13036873Y-10471200D02*
X13065444Y-10471200D01*
X13065444Y-10471200D02*
X13084492Y-10480724D01*
X13208301Y-10604534D02*
X13189254Y-10595010D01*
X13189254Y-10595010D02*
X13179730Y-10575962D01*
X13179730Y-10575962D02*
X13179730Y-10404534D01*
X13313063Y-10604534D02*
X13294015Y-10595010D01*
X13294015Y-10595010D02*
X13284492Y-10585486D01*
X13284492Y-10585486D02*
X13274968Y-10566439D01*
X13274968Y-10566439D02*
X13274968Y-10509296D01*
X13274968Y-10509296D02*
X13284492Y-10490248D01*
X13284492Y-10490248D02*
X13294015Y-10480724D01*
X13294015Y-10480724D02*
X13313063Y-10471200D01*
X13313063Y-10471200D02*
X13341635Y-10471200D01*
X13341635Y-10471200D02*
X13360682Y-10480724D01*
X13360682Y-10480724D02*
X13370206Y-10490248D01*
X13370206Y-10490248D02*
X13379730Y-10509296D01*
X13379730Y-10509296D02*
X13379730Y-10566439D01*
X13379730Y-10566439D02*
X13370206Y-10585486D01*
X13370206Y-10585486D02*
X13360682Y-10595010D01*
X13360682Y-10595010D02*
X13341635Y-10604534D01*
X13341635Y-10604534D02*
X13313063Y-10604534D01*
X13436873Y-10471200D02*
X13513063Y-10471200D01*
X13465444Y-10404534D02*
X13465444Y-10575962D01*
X13465444Y-10575962D02*
X13474968Y-10595010D01*
X13474968Y-10595010D02*
X13494015Y-10604534D01*
X13494015Y-10604534D02*
X13513063Y-10604534D01*
X13570206Y-10595010D02*
X13589254Y-10604534D01*
X13589254Y-10604534D02*
X13627349Y-10604534D01*
X13627349Y-10604534D02*
X13646396Y-10595010D01*
X13646396Y-10595010D02*
X13655920Y-10575962D01*
X13655920Y-10575962D02*
X13655920Y-10566439D01*
X13655920Y-10566439D02*
X13646396Y-10547391D01*
X13646396Y-10547391D02*
X13627349Y-10537867D01*
X13627349Y-10537867D02*
X13598777Y-10537867D01*
X13598777Y-10537867D02*
X13579730Y-10528343D01*
X13579730Y-10528343D02*
X13570206Y-10509296D01*
X13570206Y-10509296D02*
X13570206Y-10499772D01*
X13570206Y-10499772D02*
X13579730Y-10480724D01*
X13579730Y-10480724D02*
X13598777Y-10471200D01*
X13598777Y-10471200D02*
X13627349Y-10471200D01*
X13627349Y-10471200D02*
X13646396Y-10480724D01*
X13722587Y-10680724D02*
X13732111Y-10671200D01*
X13732111Y-10671200D02*
X13751158Y-10642629D01*
X13751158Y-10642629D02*
X13760682Y-10623581D01*
X13760682Y-10623581D02*
X13770206Y-10595010D01*
X13770206Y-10595010D02*
X13779730Y-10547391D01*
X13779730Y-10547391D02*
X13779730Y-10509296D01*
X13779730Y-10509296D02*
X13770206Y-10461677D01*
X13770206Y-10461677D02*
X13760682Y-10433105D01*
X13760682Y-10433105D02*
X13751158Y-10414058D01*
X13751158Y-10414058D02*
X13732111Y-10385486D01*
X13732111Y-10385486D02*
X13722587Y-10375962D01*
M02*
