%TF.GenerationSoftware,KiCad,Pcbnew,7.0.10*%
%TF.CreationDate,2024-01-28T16:32:00+05:30*%
%TF.ProjectId,rp2040-basic-m1,72703230-3430-42d6-9261-7369632d6d31,rev?*%
%TF.SameCoordinates,Original*%
%TF.FileFunction,Glue,Top*%
%TF.FilePolarity,Positive*%
%FSLAX46Y46*%
G04 Gerber Fmt 4.6, Leading zero omitted, Abs format (unit mm)*
G04 Created by KiCad (PCBNEW 7.0.10) date 2024-01-28 16:32:00*
%MOMM*%
%LPD*%
G01*
G04 APERTURE LIST*
%ADD10C,0.100000*%
%ADD11C,0.150000*%
%ADD12C,0.300000*%
%ADD13C,0.400000*%
G04 APERTURE END LIST*
D10*
D11*
X90007200Y-104005800D02*
X198007200Y-104005800D01*
X198007200Y-136005800D01*
X90007200Y-136005800D01*
X90007200Y-104005800D01*
D10*
D11*
X10000000Y-10000000D02*
X200007200Y-10000000D01*
X200007200Y-138005800D01*
X10000000Y-138005800D01*
X10000000Y-10000000D01*
D10*
D11*
X12000000Y-12000000D02*
X198007200Y-12000000D01*
X198007200Y-136005800D01*
X12000000Y-136005800D01*
X12000000Y-12000000D01*
D10*
D11*
X60000000Y-12000000D02*
X60000000Y-10000000D01*
D10*
D11*
X110000000Y-12000000D02*
X110000000Y-10000000D01*
D10*
D11*
X160000000Y-12000000D02*
X160000000Y-10000000D01*
D10*
D11*
X36089160Y-11593604D02*
X35346303Y-11593604D01*
X35717731Y-11593604D02*
X35717731Y-10293604D01*
X35717731Y-10293604D02*
X35593922Y-10479319D01*
X35593922Y-10479319D02*
X35470112Y-10603128D01*
X35470112Y-10603128D02*
X35346303Y-10665033D01*
D10*
D11*
X85346303Y-10417414D02*
X85408207Y-10355509D01*
X85408207Y-10355509D02*
X85532017Y-10293604D01*
X85532017Y-10293604D02*
X85841541Y-10293604D01*
X85841541Y-10293604D02*
X85965350Y-10355509D01*
X85965350Y-10355509D02*
X86027255Y-10417414D01*
X86027255Y-10417414D02*
X86089160Y-10541223D01*
X86089160Y-10541223D02*
X86089160Y-10665033D01*
X86089160Y-10665033D02*
X86027255Y-10850747D01*
X86027255Y-10850747D02*
X85284398Y-11593604D01*
X85284398Y-11593604D02*
X86089160Y-11593604D01*
D10*
D11*
X135284398Y-10293604D02*
X136089160Y-10293604D01*
X136089160Y-10293604D02*
X135655826Y-10788842D01*
X135655826Y-10788842D02*
X135841541Y-10788842D01*
X135841541Y-10788842D02*
X135965350Y-10850747D01*
X135965350Y-10850747D02*
X136027255Y-10912652D01*
X136027255Y-10912652D02*
X136089160Y-11036461D01*
X136089160Y-11036461D02*
X136089160Y-11345985D01*
X136089160Y-11345985D02*
X136027255Y-11469795D01*
X136027255Y-11469795D02*
X135965350Y-11531700D01*
X135965350Y-11531700D02*
X135841541Y-11593604D01*
X135841541Y-11593604D02*
X135470112Y-11593604D01*
X135470112Y-11593604D02*
X135346303Y-11531700D01*
X135346303Y-11531700D02*
X135284398Y-11469795D01*
D10*
D11*
X185965350Y-10726938D02*
X185965350Y-11593604D01*
X185655826Y-10231700D02*
X185346303Y-11160271D01*
X185346303Y-11160271D02*
X186151064Y-11160271D01*
D10*
D11*
X60000000Y-136005800D02*
X60000000Y-138005800D01*
D10*
D11*
X110000000Y-136005800D02*
X110000000Y-138005800D01*
D10*
D11*
X160000000Y-136005800D02*
X160000000Y-138005800D01*
D10*
D11*
X36089160Y-137599404D02*
X35346303Y-137599404D01*
X35717731Y-137599404D02*
X35717731Y-136299404D01*
X35717731Y-136299404D02*
X35593922Y-136485119D01*
X35593922Y-136485119D02*
X35470112Y-136608928D01*
X35470112Y-136608928D02*
X35346303Y-136670833D01*
D10*
D11*
X85346303Y-136423214D02*
X85408207Y-136361309D01*
X85408207Y-136361309D02*
X85532017Y-136299404D01*
X85532017Y-136299404D02*
X85841541Y-136299404D01*
X85841541Y-136299404D02*
X85965350Y-136361309D01*
X85965350Y-136361309D02*
X86027255Y-136423214D01*
X86027255Y-136423214D02*
X86089160Y-136547023D01*
X86089160Y-136547023D02*
X86089160Y-136670833D01*
X86089160Y-136670833D02*
X86027255Y-136856547D01*
X86027255Y-136856547D02*
X85284398Y-137599404D01*
X85284398Y-137599404D02*
X86089160Y-137599404D01*
D10*
D11*
X135284398Y-136299404D02*
X136089160Y-136299404D01*
X136089160Y-136299404D02*
X135655826Y-136794642D01*
X135655826Y-136794642D02*
X135841541Y-136794642D01*
X135841541Y-136794642D02*
X135965350Y-136856547D01*
X135965350Y-136856547D02*
X136027255Y-136918452D01*
X136027255Y-136918452D02*
X136089160Y-137042261D01*
X136089160Y-137042261D02*
X136089160Y-137351785D01*
X136089160Y-137351785D02*
X136027255Y-137475595D01*
X136027255Y-137475595D02*
X135965350Y-137537500D01*
X135965350Y-137537500D02*
X135841541Y-137599404D01*
X135841541Y-137599404D02*
X135470112Y-137599404D01*
X135470112Y-137599404D02*
X135346303Y-137537500D01*
X135346303Y-137537500D02*
X135284398Y-137475595D01*
D10*
D11*
X185965350Y-136732738D02*
X185965350Y-137599404D01*
X185655826Y-136237500D02*
X185346303Y-137166071D01*
X185346303Y-137166071D02*
X186151064Y-137166071D01*
D10*
D11*
X10000000Y-60000000D02*
X12000000Y-60000000D01*
D10*
D11*
X10000000Y-110000000D02*
X12000000Y-110000000D01*
D10*
D11*
X10690476Y-35222176D02*
X11309523Y-35222176D01*
X10566666Y-35593604D02*
X10999999Y-34293604D01*
X10999999Y-34293604D02*
X11433333Y-35593604D01*
D10*
D11*
X11092857Y-84912652D02*
X11278571Y-84974557D01*
X11278571Y-84974557D02*
X11340476Y-85036461D01*
X11340476Y-85036461D02*
X11402380Y-85160271D01*
X11402380Y-85160271D02*
X11402380Y-85345985D01*
X11402380Y-85345985D02*
X11340476Y-85469795D01*
X11340476Y-85469795D02*
X11278571Y-85531700D01*
X11278571Y-85531700D02*
X11154761Y-85593604D01*
X11154761Y-85593604D02*
X10659523Y-85593604D01*
X10659523Y-85593604D02*
X10659523Y-84293604D01*
X10659523Y-84293604D02*
X11092857Y-84293604D01*
X11092857Y-84293604D02*
X11216666Y-84355509D01*
X11216666Y-84355509D02*
X11278571Y-84417414D01*
X11278571Y-84417414D02*
X11340476Y-84541223D01*
X11340476Y-84541223D02*
X11340476Y-84665033D01*
X11340476Y-84665033D02*
X11278571Y-84788842D01*
X11278571Y-84788842D02*
X11216666Y-84850747D01*
X11216666Y-84850747D02*
X11092857Y-84912652D01*
X11092857Y-84912652D02*
X10659523Y-84912652D01*
D10*
D11*
X11402380Y-135469795D02*
X11340476Y-135531700D01*
X11340476Y-135531700D02*
X11154761Y-135593604D01*
X11154761Y-135593604D02*
X11030952Y-135593604D01*
X11030952Y-135593604D02*
X10845238Y-135531700D01*
X10845238Y-135531700D02*
X10721428Y-135407890D01*
X10721428Y-135407890D02*
X10659523Y-135284080D01*
X10659523Y-135284080D02*
X10597619Y-135036461D01*
X10597619Y-135036461D02*
X10597619Y-134850747D01*
X10597619Y-134850747D02*
X10659523Y-134603128D01*
X10659523Y-134603128D02*
X10721428Y-134479319D01*
X10721428Y-134479319D02*
X10845238Y-134355509D01*
X10845238Y-134355509D02*
X11030952Y-134293604D01*
X11030952Y-134293604D02*
X11154761Y-134293604D01*
X11154761Y-134293604D02*
X11340476Y-134355509D01*
X11340476Y-134355509D02*
X11402380Y-134417414D01*
D10*
D11*
X200007200Y-60000000D02*
X198007200Y-60000000D01*
D10*
D11*
X200007200Y-110000000D02*
X198007200Y-110000000D01*
D10*
D11*
X198697676Y-35222176D02*
X199316723Y-35222176D01*
X198573866Y-35593604D02*
X199007199Y-34293604D01*
X199007199Y-34293604D02*
X199440533Y-35593604D01*
D10*
D11*
X199100057Y-84912652D02*
X199285771Y-84974557D01*
X199285771Y-84974557D02*
X199347676Y-85036461D01*
X199347676Y-85036461D02*
X199409580Y-85160271D01*
X199409580Y-85160271D02*
X199409580Y-85345985D01*
X199409580Y-85345985D02*
X199347676Y-85469795D01*
X199347676Y-85469795D02*
X199285771Y-85531700D01*
X199285771Y-85531700D02*
X199161961Y-85593604D01*
X199161961Y-85593604D02*
X198666723Y-85593604D01*
X198666723Y-85593604D02*
X198666723Y-84293604D01*
X198666723Y-84293604D02*
X199100057Y-84293604D01*
X199100057Y-84293604D02*
X199223866Y-84355509D01*
X199223866Y-84355509D02*
X199285771Y-84417414D01*
X199285771Y-84417414D02*
X199347676Y-84541223D01*
X199347676Y-84541223D02*
X199347676Y-84665033D01*
X199347676Y-84665033D02*
X199285771Y-84788842D01*
X199285771Y-84788842D02*
X199223866Y-84850747D01*
X199223866Y-84850747D02*
X199100057Y-84912652D01*
X199100057Y-84912652D02*
X198666723Y-84912652D01*
D10*
D11*
X199409580Y-135469795D02*
X199347676Y-135531700D01*
X199347676Y-135531700D02*
X199161961Y-135593604D01*
X199161961Y-135593604D02*
X199038152Y-135593604D01*
X199038152Y-135593604D02*
X198852438Y-135531700D01*
X198852438Y-135531700D02*
X198728628Y-135407890D01*
X198728628Y-135407890D02*
X198666723Y-135284080D01*
X198666723Y-135284080D02*
X198604819Y-135036461D01*
X198604819Y-135036461D02*
X198604819Y-134850747D01*
X198604819Y-134850747D02*
X198666723Y-134603128D01*
X198666723Y-134603128D02*
X198728628Y-134479319D01*
X198728628Y-134479319D02*
X198852438Y-134355509D01*
X198852438Y-134355509D02*
X199038152Y-134293604D01*
X199038152Y-134293604D02*
X199161961Y-134293604D01*
X199161961Y-134293604D02*
X199347676Y-134355509D01*
X199347676Y-134355509D02*
X199409580Y-134417414D01*
D10*
D11*
X113463026Y-131791928D02*
X113463026Y-130291928D01*
X113463026Y-130291928D02*
X113820169Y-130291928D01*
X113820169Y-130291928D02*
X114034455Y-130363357D01*
X114034455Y-130363357D02*
X114177312Y-130506214D01*
X114177312Y-130506214D02*
X114248741Y-130649071D01*
X114248741Y-130649071D02*
X114320169Y-130934785D01*
X114320169Y-130934785D02*
X114320169Y-131149071D01*
X114320169Y-131149071D02*
X114248741Y-131434785D01*
X114248741Y-131434785D02*
X114177312Y-131577642D01*
X114177312Y-131577642D02*
X114034455Y-131720500D01*
X114034455Y-131720500D02*
X113820169Y-131791928D01*
X113820169Y-131791928D02*
X113463026Y-131791928D01*
X115605884Y-131791928D02*
X115605884Y-131006214D01*
X115605884Y-131006214D02*
X115534455Y-130863357D01*
X115534455Y-130863357D02*
X115391598Y-130791928D01*
X115391598Y-130791928D02*
X115105884Y-130791928D01*
X115105884Y-130791928D02*
X114963026Y-130863357D01*
X115605884Y-131720500D02*
X115463026Y-131791928D01*
X115463026Y-131791928D02*
X115105884Y-131791928D01*
X115105884Y-131791928D02*
X114963026Y-131720500D01*
X114963026Y-131720500D02*
X114891598Y-131577642D01*
X114891598Y-131577642D02*
X114891598Y-131434785D01*
X114891598Y-131434785D02*
X114963026Y-131291928D01*
X114963026Y-131291928D02*
X115105884Y-131220500D01*
X115105884Y-131220500D02*
X115463026Y-131220500D01*
X115463026Y-131220500D02*
X115605884Y-131149071D01*
X116105884Y-130791928D02*
X116677312Y-130791928D01*
X116320169Y-130291928D02*
X116320169Y-131577642D01*
X116320169Y-131577642D02*
X116391598Y-131720500D01*
X116391598Y-131720500D02*
X116534455Y-131791928D01*
X116534455Y-131791928D02*
X116677312Y-131791928D01*
X117748741Y-131720500D02*
X117605884Y-131791928D01*
X117605884Y-131791928D02*
X117320170Y-131791928D01*
X117320170Y-131791928D02*
X117177312Y-131720500D01*
X117177312Y-131720500D02*
X117105884Y-131577642D01*
X117105884Y-131577642D02*
X117105884Y-131006214D01*
X117105884Y-131006214D02*
X117177312Y-130863357D01*
X117177312Y-130863357D02*
X117320170Y-130791928D01*
X117320170Y-130791928D02*
X117605884Y-130791928D01*
X117605884Y-130791928D02*
X117748741Y-130863357D01*
X117748741Y-130863357D02*
X117820170Y-131006214D01*
X117820170Y-131006214D02*
X117820170Y-131149071D01*
X117820170Y-131149071D02*
X117105884Y-131291928D01*
X118463026Y-131649071D02*
X118534455Y-131720500D01*
X118534455Y-131720500D02*
X118463026Y-131791928D01*
X118463026Y-131791928D02*
X118391598Y-131720500D01*
X118391598Y-131720500D02*
X118463026Y-131649071D01*
X118463026Y-131649071D02*
X118463026Y-131791928D01*
X118463026Y-130863357D02*
X118534455Y-130934785D01*
X118534455Y-130934785D02*
X118463026Y-131006214D01*
X118463026Y-131006214D02*
X118391598Y-130934785D01*
X118391598Y-130934785D02*
X118463026Y-130863357D01*
X118463026Y-130863357D02*
X118463026Y-131006214D01*
D10*
D11*
X90007200Y-132505800D02*
X198007200Y-132505800D01*
D10*
D11*
X91463026Y-134591928D02*
X91463026Y-133091928D01*
X92320169Y-134591928D02*
X91677312Y-133734785D01*
X92320169Y-133091928D02*
X91463026Y-133949071D01*
X92963026Y-134591928D02*
X92963026Y-133591928D01*
X92963026Y-133091928D02*
X92891598Y-133163357D01*
X92891598Y-133163357D02*
X92963026Y-133234785D01*
X92963026Y-133234785D02*
X93034455Y-133163357D01*
X93034455Y-133163357D02*
X92963026Y-133091928D01*
X92963026Y-133091928D02*
X92963026Y-133234785D01*
X94534455Y-134449071D02*
X94463027Y-134520500D01*
X94463027Y-134520500D02*
X94248741Y-134591928D01*
X94248741Y-134591928D02*
X94105884Y-134591928D01*
X94105884Y-134591928D02*
X93891598Y-134520500D01*
X93891598Y-134520500D02*
X93748741Y-134377642D01*
X93748741Y-134377642D02*
X93677312Y-134234785D01*
X93677312Y-134234785D02*
X93605884Y-133949071D01*
X93605884Y-133949071D02*
X93605884Y-133734785D01*
X93605884Y-133734785D02*
X93677312Y-133449071D01*
X93677312Y-133449071D02*
X93748741Y-133306214D01*
X93748741Y-133306214D02*
X93891598Y-133163357D01*
X93891598Y-133163357D02*
X94105884Y-133091928D01*
X94105884Y-133091928D02*
X94248741Y-133091928D01*
X94248741Y-133091928D02*
X94463027Y-133163357D01*
X94463027Y-133163357D02*
X94534455Y-133234785D01*
X95820170Y-134591928D02*
X95820170Y-133806214D01*
X95820170Y-133806214D02*
X95748741Y-133663357D01*
X95748741Y-133663357D02*
X95605884Y-133591928D01*
X95605884Y-133591928D02*
X95320170Y-133591928D01*
X95320170Y-133591928D02*
X95177312Y-133663357D01*
X95820170Y-134520500D02*
X95677312Y-134591928D01*
X95677312Y-134591928D02*
X95320170Y-134591928D01*
X95320170Y-134591928D02*
X95177312Y-134520500D01*
X95177312Y-134520500D02*
X95105884Y-134377642D01*
X95105884Y-134377642D02*
X95105884Y-134234785D01*
X95105884Y-134234785D02*
X95177312Y-134091928D01*
X95177312Y-134091928D02*
X95320170Y-134020500D01*
X95320170Y-134020500D02*
X95677312Y-134020500D01*
X95677312Y-134020500D02*
X95820170Y-133949071D01*
X97177313Y-134591928D02*
X97177313Y-133091928D01*
X97177313Y-134520500D02*
X97034455Y-134591928D01*
X97034455Y-134591928D02*
X96748741Y-134591928D01*
X96748741Y-134591928D02*
X96605884Y-134520500D01*
X96605884Y-134520500D02*
X96534455Y-134449071D01*
X96534455Y-134449071D02*
X96463027Y-134306214D01*
X96463027Y-134306214D02*
X96463027Y-133877642D01*
X96463027Y-133877642D02*
X96534455Y-133734785D01*
X96534455Y-133734785D02*
X96605884Y-133663357D01*
X96605884Y-133663357D02*
X96748741Y-133591928D01*
X96748741Y-133591928D02*
X97034455Y-133591928D01*
X97034455Y-133591928D02*
X97177313Y-133663357D01*
X99034455Y-133806214D02*
X99534455Y-133806214D01*
X99748741Y-134591928D02*
X99034455Y-134591928D01*
X99034455Y-134591928D02*
X99034455Y-133091928D01*
X99034455Y-133091928D02*
X99748741Y-133091928D01*
X100391598Y-134449071D02*
X100463027Y-134520500D01*
X100463027Y-134520500D02*
X100391598Y-134591928D01*
X100391598Y-134591928D02*
X100320170Y-134520500D01*
X100320170Y-134520500D02*
X100391598Y-134449071D01*
X100391598Y-134449071D02*
X100391598Y-134591928D01*
X101105884Y-134591928D02*
X101105884Y-133091928D01*
X101105884Y-133091928D02*
X101463027Y-133091928D01*
X101463027Y-133091928D02*
X101677313Y-133163357D01*
X101677313Y-133163357D02*
X101820170Y-133306214D01*
X101820170Y-133306214D02*
X101891599Y-133449071D01*
X101891599Y-133449071D02*
X101963027Y-133734785D01*
X101963027Y-133734785D02*
X101963027Y-133949071D01*
X101963027Y-133949071D02*
X101891599Y-134234785D01*
X101891599Y-134234785D02*
X101820170Y-134377642D01*
X101820170Y-134377642D02*
X101677313Y-134520500D01*
X101677313Y-134520500D02*
X101463027Y-134591928D01*
X101463027Y-134591928D02*
X101105884Y-134591928D01*
X102605884Y-134449071D02*
X102677313Y-134520500D01*
X102677313Y-134520500D02*
X102605884Y-134591928D01*
X102605884Y-134591928D02*
X102534456Y-134520500D01*
X102534456Y-134520500D02*
X102605884Y-134449071D01*
X102605884Y-134449071D02*
X102605884Y-134591928D01*
X103248742Y-134163357D02*
X103963028Y-134163357D01*
X103105885Y-134591928D02*
X103605885Y-133091928D01*
X103605885Y-133091928D02*
X104105885Y-134591928D01*
X104605884Y-134449071D02*
X104677313Y-134520500D01*
X104677313Y-134520500D02*
X104605884Y-134591928D01*
X104605884Y-134591928D02*
X104534456Y-134520500D01*
X104534456Y-134520500D02*
X104605884Y-134449071D01*
X104605884Y-134449071D02*
X104605884Y-134591928D01*
X107605884Y-134591928D02*
X107605884Y-133091928D01*
X107748742Y-134020500D02*
X108177313Y-134591928D01*
X108177313Y-133591928D02*
X107605884Y-134163357D01*
X108820170Y-134591928D02*
X108820170Y-133591928D01*
X108820170Y-133091928D02*
X108748742Y-133163357D01*
X108748742Y-133163357D02*
X108820170Y-133234785D01*
X108820170Y-133234785D02*
X108891599Y-133163357D01*
X108891599Y-133163357D02*
X108820170Y-133091928D01*
X108820170Y-133091928D02*
X108820170Y-133234785D01*
X110177314Y-134520500D02*
X110034456Y-134591928D01*
X110034456Y-134591928D02*
X109748742Y-134591928D01*
X109748742Y-134591928D02*
X109605885Y-134520500D01*
X109605885Y-134520500D02*
X109534456Y-134449071D01*
X109534456Y-134449071D02*
X109463028Y-134306214D01*
X109463028Y-134306214D02*
X109463028Y-133877642D01*
X109463028Y-133877642D02*
X109534456Y-133734785D01*
X109534456Y-133734785D02*
X109605885Y-133663357D01*
X109605885Y-133663357D02*
X109748742Y-133591928D01*
X109748742Y-133591928D02*
X110034456Y-133591928D01*
X110034456Y-133591928D02*
X110177314Y-133663357D01*
X111463028Y-134591928D02*
X111463028Y-133806214D01*
X111463028Y-133806214D02*
X111391599Y-133663357D01*
X111391599Y-133663357D02*
X111248742Y-133591928D01*
X111248742Y-133591928D02*
X110963028Y-133591928D01*
X110963028Y-133591928D02*
X110820170Y-133663357D01*
X111463028Y-134520500D02*
X111320170Y-134591928D01*
X111320170Y-134591928D02*
X110963028Y-134591928D01*
X110963028Y-134591928D02*
X110820170Y-134520500D01*
X110820170Y-134520500D02*
X110748742Y-134377642D01*
X110748742Y-134377642D02*
X110748742Y-134234785D01*
X110748742Y-134234785D02*
X110820170Y-134091928D01*
X110820170Y-134091928D02*
X110963028Y-134020500D01*
X110963028Y-134020500D02*
X111320170Y-134020500D01*
X111320170Y-134020500D02*
X111463028Y-133949071D01*
X112820171Y-134591928D02*
X112820171Y-133091928D01*
X112820171Y-134520500D02*
X112677313Y-134591928D01*
X112677313Y-134591928D02*
X112391599Y-134591928D01*
X112391599Y-134591928D02*
X112248742Y-134520500D01*
X112248742Y-134520500D02*
X112177313Y-134449071D01*
X112177313Y-134449071D02*
X112105885Y-134306214D01*
X112105885Y-134306214D02*
X112105885Y-133877642D01*
X112105885Y-133877642D02*
X112177313Y-133734785D01*
X112177313Y-133734785D02*
X112248742Y-133663357D01*
X112248742Y-133663357D02*
X112391599Y-133591928D01*
X112391599Y-133591928D02*
X112677313Y-133591928D01*
X112677313Y-133591928D02*
X112820171Y-133663357D01*
X114534456Y-133091928D02*
X115534456Y-133091928D01*
X115534456Y-133091928D02*
X114891599Y-134591928D01*
X116105884Y-134449071D02*
X116177313Y-134520500D01*
X116177313Y-134520500D02*
X116105884Y-134591928D01*
X116105884Y-134591928D02*
X116034456Y-134520500D01*
X116034456Y-134520500D02*
X116105884Y-134449071D01*
X116105884Y-134449071D02*
X116105884Y-134591928D01*
X117105885Y-133091928D02*
X117248742Y-133091928D01*
X117248742Y-133091928D02*
X117391599Y-133163357D01*
X117391599Y-133163357D02*
X117463028Y-133234785D01*
X117463028Y-133234785D02*
X117534456Y-133377642D01*
X117534456Y-133377642D02*
X117605885Y-133663357D01*
X117605885Y-133663357D02*
X117605885Y-134020500D01*
X117605885Y-134020500D02*
X117534456Y-134306214D01*
X117534456Y-134306214D02*
X117463028Y-134449071D01*
X117463028Y-134449071D02*
X117391599Y-134520500D01*
X117391599Y-134520500D02*
X117248742Y-134591928D01*
X117248742Y-134591928D02*
X117105885Y-134591928D01*
X117105885Y-134591928D02*
X116963028Y-134520500D01*
X116963028Y-134520500D02*
X116891599Y-134449071D01*
X116891599Y-134449071D02*
X116820170Y-134306214D01*
X116820170Y-134306214D02*
X116748742Y-134020500D01*
X116748742Y-134020500D02*
X116748742Y-133663357D01*
X116748742Y-133663357D02*
X116820170Y-133377642D01*
X116820170Y-133377642D02*
X116891599Y-133234785D01*
X116891599Y-133234785D02*
X116963028Y-133163357D01*
X116963028Y-133163357D02*
X117105885Y-133091928D01*
X118248741Y-134449071D02*
X118320170Y-134520500D01*
X118320170Y-134520500D02*
X118248741Y-134591928D01*
X118248741Y-134591928D02*
X118177313Y-134520500D01*
X118177313Y-134520500D02*
X118248741Y-134449071D01*
X118248741Y-134449071D02*
X118248741Y-134591928D01*
X119748742Y-134591928D02*
X118891599Y-134591928D01*
X119320170Y-134591928D02*
X119320170Y-133091928D01*
X119320170Y-133091928D02*
X119177313Y-133306214D01*
X119177313Y-133306214D02*
X119034456Y-133449071D01*
X119034456Y-133449071D02*
X118891599Y-133520500D01*
X120677313Y-133091928D02*
X120820170Y-133091928D01*
X120820170Y-133091928D02*
X120963027Y-133163357D01*
X120963027Y-133163357D02*
X121034456Y-133234785D01*
X121034456Y-133234785D02*
X121105884Y-133377642D01*
X121105884Y-133377642D02*
X121177313Y-133663357D01*
X121177313Y-133663357D02*
X121177313Y-134020500D01*
X121177313Y-134020500D02*
X121105884Y-134306214D01*
X121105884Y-134306214D02*
X121034456Y-134449071D01*
X121034456Y-134449071D02*
X120963027Y-134520500D01*
X120963027Y-134520500D02*
X120820170Y-134591928D01*
X120820170Y-134591928D02*
X120677313Y-134591928D01*
X120677313Y-134591928D02*
X120534456Y-134520500D01*
X120534456Y-134520500D02*
X120463027Y-134449071D01*
X120463027Y-134449071D02*
X120391598Y-134306214D01*
X120391598Y-134306214D02*
X120320170Y-134020500D01*
X120320170Y-134020500D02*
X120320170Y-133663357D01*
X120320170Y-133663357D02*
X120391598Y-133377642D01*
X120391598Y-133377642D02*
X120463027Y-133234785D01*
X120463027Y-133234785D02*
X120534456Y-133163357D01*
X120534456Y-133163357D02*
X120677313Y-133091928D01*
D10*
D11*
X90007200Y-129505800D02*
X198007200Y-129505800D01*
D10*
D12*
X177418853Y-131784128D02*
X176918853Y-131069842D01*
X176561710Y-131784128D02*
X176561710Y-130284128D01*
X176561710Y-130284128D02*
X177133139Y-130284128D01*
X177133139Y-130284128D02*
X177275996Y-130355557D01*
X177275996Y-130355557D02*
X177347425Y-130426985D01*
X177347425Y-130426985D02*
X177418853Y-130569842D01*
X177418853Y-130569842D02*
X177418853Y-130784128D01*
X177418853Y-130784128D02*
X177347425Y-130926985D01*
X177347425Y-130926985D02*
X177275996Y-130998414D01*
X177275996Y-130998414D02*
X177133139Y-131069842D01*
X177133139Y-131069842D02*
X176561710Y-131069842D01*
X178633139Y-131712700D02*
X178490282Y-131784128D01*
X178490282Y-131784128D02*
X178204568Y-131784128D01*
X178204568Y-131784128D02*
X178061710Y-131712700D01*
X178061710Y-131712700D02*
X177990282Y-131569842D01*
X177990282Y-131569842D02*
X177990282Y-130998414D01*
X177990282Y-130998414D02*
X178061710Y-130855557D01*
X178061710Y-130855557D02*
X178204568Y-130784128D01*
X178204568Y-130784128D02*
X178490282Y-130784128D01*
X178490282Y-130784128D02*
X178633139Y-130855557D01*
X178633139Y-130855557D02*
X178704568Y-130998414D01*
X178704568Y-130998414D02*
X178704568Y-131141271D01*
X178704568Y-131141271D02*
X177990282Y-131284128D01*
X179204567Y-130784128D02*
X179561710Y-131784128D01*
X179561710Y-131784128D02*
X179918853Y-130784128D01*
X180490281Y-131641271D02*
X180561710Y-131712700D01*
X180561710Y-131712700D02*
X180490281Y-131784128D01*
X180490281Y-131784128D02*
X180418853Y-131712700D01*
X180418853Y-131712700D02*
X180490281Y-131641271D01*
X180490281Y-131641271D02*
X180490281Y-131784128D01*
X180490281Y-130855557D02*
X180561710Y-130926985D01*
X180561710Y-130926985D02*
X180490281Y-130998414D01*
X180490281Y-130998414D02*
X180418853Y-130926985D01*
X180418853Y-130926985D02*
X180490281Y-130855557D01*
X180490281Y-130855557D02*
X180490281Y-130998414D01*
D10*
D11*
X91391598Y-131720500D02*
X91605884Y-131791928D01*
X91605884Y-131791928D02*
X91963026Y-131791928D01*
X91963026Y-131791928D02*
X92105884Y-131720500D01*
X92105884Y-131720500D02*
X92177312Y-131649071D01*
X92177312Y-131649071D02*
X92248741Y-131506214D01*
X92248741Y-131506214D02*
X92248741Y-131363357D01*
X92248741Y-131363357D02*
X92177312Y-131220500D01*
X92177312Y-131220500D02*
X92105884Y-131149071D01*
X92105884Y-131149071D02*
X91963026Y-131077642D01*
X91963026Y-131077642D02*
X91677312Y-131006214D01*
X91677312Y-131006214D02*
X91534455Y-130934785D01*
X91534455Y-130934785D02*
X91463026Y-130863357D01*
X91463026Y-130863357D02*
X91391598Y-130720500D01*
X91391598Y-130720500D02*
X91391598Y-130577642D01*
X91391598Y-130577642D02*
X91463026Y-130434785D01*
X91463026Y-130434785D02*
X91534455Y-130363357D01*
X91534455Y-130363357D02*
X91677312Y-130291928D01*
X91677312Y-130291928D02*
X92034455Y-130291928D01*
X92034455Y-130291928D02*
X92248741Y-130363357D01*
X92891597Y-131791928D02*
X92891597Y-130791928D01*
X92891597Y-130291928D02*
X92820169Y-130363357D01*
X92820169Y-130363357D02*
X92891597Y-130434785D01*
X92891597Y-130434785D02*
X92963026Y-130363357D01*
X92963026Y-130363357D02*
X92891597Y-130291928D01*
X92891597Y-130291928D02*
X92891597Y-130434785D01*
X93463026Y-130791928D02*
X94248741Y-130791928D01*
X94248741Y-130791928D02*
X93463026Y-131791928D01*
X93463026Y-131791928D02*
X94248741Y-131791928D01*
X95391598Y-131720500D02*
X95248741Y-131791928D01*
X95248741Y-131791928D02*
X94963027Y-131791928D01*
X94963027Y-131791928D02*
X94820169Y-131720500D01*
X94820169Y-131720500D02*
X94748741Y-131577642D01*
X94748741Y-131577642D02*
X94748741Y-131006214D01*
X94748741Y-131006214D02*
X94820169Y-130863357D01*
X94820169Y-130863357D02*
X94963027Y-130791928D01*
X94963027Y-130791928D02*
X95248741Y-130791928D01*
X95248741Y-130791928D02*
X95391598Y-130863357D01*
X95391598Y-130863357D02*
X95463027Y-131006214D01*
X95463027Y-131006214D02*
X95463027Y-131149071D01*
X95463027Y-131149071D02*
X94748741Y-131291928D01*
X96105883Y-131649071D02*
X96177312Y-131720500D01*
X96177312Y-131720500D02*
X96105883Y-131791928D01*
X96105883Y-131791928D02*
X96034455Y-131720500D01*
X96034455Y-131720500D02*
X96105883Y-131649071D01*
X96105883Y-131649071D02*
X96105883Y-131791928D01*
X96105883Y-130863357D02*
X96177312Y-130934785D01*
X96177312Y-130934785D02*
X96105883Y-131006214D01*
X96105883Y-131006214D02*
X96034455Y-130934785D01*
X96034455Y-130934785D02*
X96105883Y-130863357D01*
X96105883Y-130863357D02*
X96105883Y-131006214D01*
X97891598Y-131363357D02*
X98605884Y-131363357D01*
X97748741Y-131791928D02*
X98248741Y-130291928D01*
X98248741Y-130291928D02*
X98748741Y-131791928D01*
X99963026Y-130291928D02*
X99248740Y-130291928D01*
X99248740Y-130291928D02*
X99177312Y-131006214D01*
X99177312Y-131006214D02*
X99248740Y-130934785D01*
X99248740Y-130934785D02*
X99391598Y-130863357D01*
X99391598Y-130863357D02*
X99748740Y-130863357D01*
X99748740Y-130863357D02*
X99891598Y-130934785D01*
X99891598Y-130934785D02*
X99963026Y-131006214D01*
X99963026Y-131006214D02*
X100034455Y-131149071D01*
X100034455Y-131149071D02*
X100034455Y-131506214D01*
X100034455Y-131506214D02*
X99963026Y-131649071D01*
X99963026Y-131649071D02*
X99891598Y-131720500D01*
X99891598Y-131720500D02*
X99748740Y-131791928D01*
X99748740Y-131791928D02*
X99391598Y-131791928D01*
X99391598Y-131791928D02*
X99248740Y-131720500D01*
X99248740Y-131720500D02*
X99177312Y-131649071D01*
D10*
D11*
X176463026Y-134591928D02*
X176463026Y-133091928D01*
X177820170Y-134591928D02*
X177820170Y-133091928D01*
X177820170Y-134520500D02*
X177677312Y-134591928D01*
X177677312Y-134591928D02*
X177391598Y-134591928D01*
X177391598Y-134591928D02*
X177248741Y-134520500D01*
X177248741Y-134520500D02*
X177177312Y-134449071D01*
X177177312Y-134449071D02*
X177105884Y-134306214D01*
X177105884Y-134306214D02*
X177105884Y-133877642D01*
X177105884Y-133877642D02*
X177177312Y-133734785D01*
X177177312Y-133734785D02*
X177248741Y-133663357D01*
X177248741Y-133663357D02*
X177391598Y-133591928D01*
X177391598Y-133591928D02*
X177677312Y-133591928D01*
X177677312Y-133591928D02*
X177820170Y-133663357D01*
X178534455Y-134449071D02*
X178605884Y-134520500D01*
X178605884Y-134520500D02*
X178534455Y-134591928D01*
X178534455Y-134591928D02*
X178463027Y-134520500D01*
X178463027Y-134520500D02*
X178534455Y-134449071D01*
X178534455Y-134449071D02*
X178534455Y-134591928D01*
X178534455Y-133663357D02*
X178605884Y-133734785D01*
X178605884Y-133734785D02*
X178534455Y-133806214D01*
X178534455Y-133806214D02*
X178463027Y-133734785D01*
X178463027Y-133734785D02*
X178534455Y-133663357D01*
X178534455Y-133663357D02*
X178534455Y-133806214D01*
X181177313Y-134591928D02*
X180320170Y-134591928D01*
X180748741Y-134591928D02*
X180748741Y-133091928D01*
X180748741Y-133091928D02*
X180605884Y-133306214D01*
X180605884Y-133306214D02*
X180463027Y-133449071D01*
X180463027Y-133449071D02*
X180320170Y-133520500D01*
X182891598Y-133020500D02*
X181605884Y-134949071D01*
X184177313Y-134591928D02*
X183320170Y-134591928D01*
X183748741Y-134591928D02*
X183748741Y-133091928D01*
X183748741Y-133091928D02*
X183605884Y-133306214D01*
X183605884Y-133306214D02*
X183463027Y-133449071D01*
X183463027Y-133449071D02*
X183320170Y-133520500D01*
D10*
D11*
X90007200Y-125505800D02*
X198007200Y-125505800D01*
D10*
D13*
X91698928Y-126210238D02*
X92841785Y-126210238D01*
X92020357Y-128210238D02*
X92270357Y-126210238D01*
X93258452Y-128210238D02*
X93425119Y-126876904D01*
X93508452Y-126210238D02*
X93401309Y-126305476D01*
X93401309Y-126305476D02*
X93484643Y-126400714D01*
X93484643Y-126400714D02*
X93591786Y-126305476D01*
X93591786Y-126305476D02*
X93508452Y-126210238D01*
X93508452Y-126210238D02*
X93484643Y-126400714D01*
X94091786Y-126876904D02*
X94853690Y-126876904D01*
X94460833Y-126210238D02*
X94246548Y-127924523D01*
X94246548Y-127924523D02*
X94317976Y-128115000D01*
X94317976Y-128115000D02*
X94496548Y-128210238D01*
X94496548Y-128210238D02*
X94687024Y-128210238D01*
X95639405Y-128210238D02*
X95460833Y-128115000D01*
X95460833Y-128115000D02*
X95389405Y-127924523D01*
X95389405Y-127924523D02*
X95603690Y-126210238D01*
X97175119Y-128115000D02*
X96972738Y-128210238D01*
X96972738Y-128210238D02*
X96591785Y-128210238D01*
X96591785Y-128210238D02*
X96413214Y-128115000D01*
X96413214Y-128115000D02*
X96341785Y-127924523D01*
X96341785Y-127924523D02*
X96437024Y-127162619D01*
X96437024Y-127162619D02*
X96556071Y-126972142D01*
X96556071Y-126972142D02*
X96758452Y-126876904D01*
X96758452Y-126876904D02*
X97139404Y-126876904D01*
X97139404Y-126876904D02*
X97317976Y-126972142D01*
X97317976Y-126972142D02*
X97389404Y-127162619D01*
X97389404Y-127162619D02*
X97365595Y-127353095D01*
X97365595Y-127353095D02*
X96389404Y-127543571D01*
X98139405Y-128019761D02*
X98222738Y-128115000D01*
X98222738Y-128115000D02*
X98115595Y-128210238D01*
X98115595Y-128210238D02*
X98032262Y-128115000D01*
X98032262Y-128115000D02*
X98139405Y-128019761D01*
X98139405Y-128019761D02*
X98115595Y-128210238D01*
X98270357Y-126972142D02*
X98353690Y-127067380D01*
X98353690Y-127067380D02*
X98246548Y-127162619D01*
X98246548Y-127162619D02*
X98163214Y-127067380D01*
X98163214Y-127067380D02*
X98270357Y-126972142D01*
X98270357Y-126972142D02*
X98246548Y-127162619D01*
X101734643Y-128210238D02*
X101187024Y-127257857D01*
X100591786Y-128210238D02*
X100841786Y-126210238D01*
X100841786Y-126210238D02*
X101603691Y-126210238D01*
X101603691Y-126210238D02*
X101782262Y-126305476D01*
X101782262Y-126305476D02*
X101865596Y-126400714D01*
X101865596Y-126400714D02*
X101937024Y-126591190D01*
X101937024Y-126591190D02*
X101901310Y-126876904D01*
X101901310Y-126876904D02*
X101782262Y-127067380D01*
X101782262Y-127067380D02*
X101675120Y-127162619D01*
X101675120Y-127162619D02*
X101472739Y-127257857D01*
X101472739Y-127257857D02*
X100710834Y-127257857D01*
X102591786Y-128210238D02*
X102841786Y-126210238D01*
X102841786Y-126210238D02*
X103603691Y-126210238D01*
X103603691Y-126210238D02*
X103782262Y-126305476D01*
X103782262Y-126305476D02*
X103865596Y-126400714D01*
X103865596Y-126400714D02*
X103937024Y-126591190D01*
X103937024Y-126591190D02*
X103901310Y-126876904D01*
X103901310Y-126876904D02*
X103782262Y-127067380D01*
X103782262Y-127067380D02*
X103675120Y-127162619D01*
X103675120Y-127162619D02*
X103472739Y-127257857D01*
X103472739Y-127257857D02*
X102710834Y-127257857D01*
X104722739Y-126400714D02*
X104829881Y-126305476D01*
X104829881Y-126305476D02*
X105032262Y-126210238D01*
X105032262Y-126210238D02*
X105508453Y-126210238D01*
X105508453Y-126210238D02*
X105687024Y-126305476D01*
X105687024Y-126305476D02*
X105770358Y-126400714D01*
X105770358Y-126400714D02*
X105841786Y-126591190D01*
X105841786Y-126591190D02*
X105817977Y-126781666D01*
X105817977Y-126781666D02*
X105687024Y-127067380D01*
X105687024Y-127067380D02*
X104401310Y-128210238D01*
X104401310Y-128210238D02*
X105639405Y-128210238D01*
X107127501Y-126210238D02*
X107317977Y-126210238D01*
X107317977Y-126210238D02*
X107496548Y-126305476D01*
X107496548Y-126305476D02*
X107579882Y-126400714D01*
X107579882Y-126400714D02*
X107651310Y-126591190D01*
X107651310Y-126591190D02*
X107698929Y-126972142D01*
X107698929Y-126972142D02*
X107639405Y-127448333D01*
X107639405Y-127448333D02*
X107496548Y-127829285D01*
X107496548Y-127829285D02*
X107377501Y-128019761D01*
X107377501Y-128019761D02*
X107270358Y-128115000D01*
X107270358Y-128115000D02*
X107067977Y-128210238D01*
X107067977Y-128210238D02*
X106877501Y-128210238D01*
X106877501Y-128210238D02*
X106698929Y-128115000D01*
X106698929Y-128115000D02*
X106615596Y-128019761D01*
X106615596Y-128019761D02*
X106544167Y-127829285D01*
X106544167Y-127829285D02*
X106496548Y-127448333D01*
X106496548Y-127448333D02*
X106556072Y-126972142D01*
X106556072Y-126972142D02*
X106698929Y-126591190D01*
X106698929Y-126591190D02*
X106817977Y-126400714D01*
X106817977Y-126400714D02*
X106925120Y-126305476D01*
X106925120Y-126305476D02*
X107127501Y-126210238D01*
X109425120Y-126876904D02*
X109258453Y-128210238D01*
X109044167Y-126115000D02*
X108389405Y-127543571D01*
X108389405Y-127543571D02*
X109627501Y-127543571D01*
X110937025Y-126210238D02*
X111127501Y-126210238D01*
X111127501Y-126210238D02*
X111306072Y-126305476D01*
X111306072Y-126305476D02*
X111389406Y-126400714D01*
X111389406Y-126400714D02*
X111460834Y-126591190D01*
X111460834Y-126591190D02*
X111508453Y-126972142D01*
X111508453Y-126972142D02*
X111448929Y-127448333D01*
X111448929Y-127448333D02*
X111306072Y-127829285D01*
X111306072Y-127829285D02*
X111187025Y-128019761D01*
X111187025Y-128019761D02*
X111079882Y-128115000D01*
X111079882Y-128115000D02*
X110877501Y-128210238D01*
X110877501Y-128210238D02*
X110687025Y-128210238D01*
X110687025Y-128210238D02*
X110508453Y-128115000D01*
X110508453Y-128115000D02*
X110425120Y-128019761D01*
X110425120Y-128019761D02*
X110353691Y-127829285D01*
X110353691Y-127829285D02*
X110306072Y-127448333D01*
X110306072Y-127448333D02*
X110365596Y-126972142D01*
X110365596Y-126972142D02*
X110508453Y-126591190D01*
X110508453Y-126591190D02*
X110627501Y-126400714D01*
X110627501Y-126400714D02*
X110734644Y-126305476D01*
X110734644Y-126305476D02*
X110937025Y-126210238D01*
X112306072Y-127448333D02*
X113829882Y-127448333D01*
X115484643Y-127162619D02*
X115758453Y-127257857D01*
X115758453Y-127257857D02*
X115841786Y-127353095D01*
X115841786Y-127353095D02*
X115913215Y-127543571D01*
X115913215Y-127543571D02*
X115877500Y-127829285D01*
X115877500Y-127829285D02*
X115758453Y-128019761D01*
X115758453Y-128019761D02*
X115651310Y-128115000D01*
X115651310Y-128115000D02*
X115448929Y-128210238D01*
X115448929Y-128210238D02*
X114687024Y-128210238D01*
X114687024Y-128210238D02*
X114937024Y-126210238D01*
X114937024Y-126210238D02*
X115603691Y-126210238D01*
X115603691Y-126210238D02*
X115782262Y-126305476D01*
X115782262Y-126305476D02*
X115865596Y-126400714D01*
X115865596Y-126400714D02*
X115937024Y-126591190D01*
X115937024Y-126591190D02*
X115913215Y-126781666D01*
X115913215Y-126781666D02*
X115794167Y-126972142D01*
X115794167Y-126972142D02*
X115687024Y-127067380D01*
X115687024Y-127067380D02*
X115484643Y-127162619D01*
X115484643Y-127162619D02*
X114817977Y-127162619D01*
X117317977Y-126210238D02*
X117698929Y-126210238D01*
X117698929Y-126210238D02*
X117877500Y-126305476D01*
X117877500Y-126305476D02*
X118044167Y-126495952D01*
X118044167Y-126495952D02*
X118091786Y-126876904D01*
X118091786Y-126876904D02*
X118008453Y-127543571D01*
X118008453Y-127543571D02*
X117865596Y-127924523D01*
X117865596Y-127924523D02*
X117651310Y-128115000D01*
X117651310Y-128115000D02*
X117448929Y-128210238D01*
X117448929Y-128210238D02*
X117067977Y-128210238D01*
X117067977Y-128210238D02*
X116889405Y-128115000D01*
X116889405Y-128115000D02*
X116722739Y-127924523D01*
X116722739Y-127924523D02*
X116675119Y-127543571D01*
X116675119Y-127543571D02*
X116758453Y-126876904D01*
X116758453Y-126876904D02*
X116901310Y-126495952D01*
X116901310Y-126495952D02*
X117115596Y-126305476D01*
X117115596Y-126305476D02*
X117317977Y-126210238D01*
X118758453Y-127638809D02*
X119710834Y-127638809D01*
X118496548Y-128210238D02*
X119413215Y-126210238D01*
X119413215Y-126210238D02*
X119829881Y-128210238D01*
X121639405Y-128210238D02*
X121091786Y-127257857D01*
X120496548Y-128210238D02*
X120746548Y-126210238D01*
X120746548Y-126210238D02*
X121508453Y-126210238D01*
X121508453Y-126210238D02*
X121687024Y-126305476D01*
X121687024Y-126305476D02*
X121770358Y-126400714D01*
X121770358Y-126400714D02*
X121841786Y-126591190D01*
X121841786Y-126591190D02*
X121806072Y-126876904D01*
X121806072Y-126876904D02*
X121687024Y-127067380D01*
X121687024Y-127067380D02*
X121579882Y-127162619D01*
X121579882Y-127162619D02*
X121377501Y-127257857D01*
X121377501Y-127257857D02*
X120615596Y-127257857D01*
X122496548Y-128210238D02*
X122746548Y-126210238D01*
X122746548Y-126210238D02*
X123222739Y-126210238D01*
X123222739Y-126210238D02*
X123496548Y-126305476D01*
X123496548Y-126305476D02*
X123663215Y-126495952D01*
X123663215Y-126495952D02*
X123734643Y-126686428D01*
X123734643Y-126686428D02*
X123782263Y-127067380D01*
X123782263Y-127067380D02*
X123746548Y-127353095D01*
X123746548Y-127353095D02*
X123603691Y-127734047D01*
X123603691Y-127734047D02*
X123484643Y-127924523D01*
X123484643Y-127924523D02*
X123270358Y-128115000D01*
X123270358Y-128115000D02*
X122972739Y-128210238D01*
X122972739Y-128210238D02*
X122496548Y-128210238D01*
D10*
D11*
X91963026Y-123606214D02*
X91463026Y-123606214D01*
X91463026Y-124391928D02*
X91463026Y-122891928D01*
X91463026Y-122891928D02*
X92177312Y-122891928D01*
X92748740Y-124391928D02*
X92748740Y-123391928D01*
X92748740Y-122891928D02*
X92677312Y-122963357D01*
X92677312Y-122963357D02*
X92748740Y-123034785D01*
X92748740Y-123034785D02*
X92820169Y-122963357D01*
X92820169Y-122963357D02*
X92748740Y-122891928D01*
X92748740Y-122891928D02*
X92748740Y-123034785D01*
X93677312Y-124391928D02*
X93534455Y-124320500D01*
X93534455Y-124320500D02*
X93463026Y-124177642D01*
X93463026Y-124177642D02*
X93463026Y-122891928D01*
X94820169Y-124320500D02*
X94677312Y-124391928D01*
X94677312Y-124391928D02*
X94391598Y-124391928D01*
X94391598Y-124391928D02*
X94248740Y-124320500D01*
X94248740Y-124320500D02*
X94177312Y-124177642D01*
X94177312Y-124177642D02*
X94177312Y-123606214D01*
X94177312Y-123606214D02*
X94248740Y-123463357D01*
X94248740Y-123463357D02*
X94391598Y-123391928D01*
X94391598Y-123391928D02*
X94677312Y-123391928D01*
X94677312Y-123391928D02*
X94820169Y-123463357D01*
X94820169Y-123463357D02*
X94891598Y-123606214D01*
X94891598Y-123606214D02*
X94891598Y-123749071D01*
X94891598Y-123749071D02*
X94177312Y-123891928D01*
X95534454Y-124249071D02*
X95605883Y-124320500D01*
X95605883Y-124320500D02*
X95534454Y-124391928D01*
X95534454Y-124391928D02*
X95463026Y-124320500D01*
X95463026Y-124320500D02*
X95534454Y-124249071D01*
X95534454Y-124249071D02*
X95534454Y-124391928D01*
X95534454Y-123463357D02*
X95605883Y-123534785D01*
X95605883Y-123534785D02*
X95534454Y-123606214D01*
X95534454Y-123606214D02*
X95463026Y-123534785D01*
X95463026Y-123534785D02*
X95534454Y-123463357D01*
X95534454Y-123463357D02*
X95534454Y-123606214D01*
X97391597Y-124391928D02*
X97391597Y-123391928D01*
X97391597Y-123677642D02*
X97463026Y-123534785D01*
X97463026Y-123534785D02*
X97534455Y-123463357D01*
X97534455Y-123463357D02*
X97677312Y-123391928D01*
X97677312Y-123391928D02*
X97820169Y-123391928D01*
X98320168Y-123391928D02*
X98320168Y-124891928D01*
X98320168Y-123463357D02*
X98463026Y-123391928D01*
X98463026Y-123391928D02*
X98748740Y-123391928D01*
X98748740Y-123391928D02*
X98891597Y-123463357D01*
X98891597Y-123463357D02*
X98963026Y-123534785D01*
X98963026Y-123534785D02*
X99034454Y-123677642D01*
X99034454Y-123677642D02*
X99034454Y-124106214D01*
X99034454Y-124106214D02*
X98963026Y-124249071D01*
X98963026Y-124249071D02*
X98891597Y-124320500D01*
X98891597Y-124320500D02*
X98748740Y-124391928D01*
X98748740Y-124391928D02*
X98463026Y-124391928D01*
X98463026Y-124391928D02*
X98320168Y-124320500D01*
X99605883Y-123034785D02*
X99677311Y-122963357D01*
X99677311Y-122963357D02*
X99820169Y-122891928D01*
X99820169Y-122891928D02*
X100177311Y-122891928D01*
X100177311Y-122891928D02*
X100320169Y-122963357D01*
X100320169Y-122963357D02*
X100391597Y-123034785D01*
X100391597Y-123034785D02*
X100463026Y-123177642D01*
X100463026Y-123177642D02*
X100463026Y-123320500D01*
X100463026Y-123320500D02*
X100391597Y-123534785D01*
X100391597Y-123534785D02*
X99534454Y-124391928D01*
X99534454Y-124391928D02*
X100463026Y-124391928D01*
X101391597Y-122891928D02*
X101534454Y-122891928D01*
X101534454Y-122891928D02*
X101677311Y-122963357D01*
X101677311Y-122963357D02*
X101748740Y-123034785D01*
X101748740Y-123034785D02*
X101820168Y-123177642D01*
X101820168Y-123177642D02*
X101891597Y-123463357D01*
X101891597Y-123463357D02*
X101891597Y-123820500D01*
X101891597Y-123820500D02*
X101820168Y-124106214D01*
X101820168Y-124106214D02*
X101748740Y-124249071D01*
X101748740Y-124249071D02*
X101677311Y-124320500D01*
X101677311Y-124320500D02*
X101534454Y-124391928D01*
X101534454Y-124391928D02*
X101391597Y-124391928D01*
X101391597Y-124391928D02*
X101248740Y-124320500D01*
X101248740Y-124320500D02*
X101177311Y-124249071D01*
X101177311Y-124249071D02*
X101105882Y-124106214D01*
X101105882Y-124106214D02*
X101034454Y-123820500D01*
X101034454Y-123820500D02*
X101034454Y-123463357D01*
X101034454Y-123463357D02*
X101105882Y-123177642D01*
X101105882Y-123177642D02*
X101177311Y-123034785D01*
X101177311Y-123034785D02*
X101248740Y-122963357D01*
X101248740Y-122963357D02*
X101391597Y-122891928D01*
X103177311Y-123391928D02*
X103177311Y-124391928D01*
X102820168Y-122820500D02*
X102463025Y-123891928D01*
X102463025Y-123891928D02*
X103391596Y-123891928D01*
X104248739Y-122891928D02*
X104391596Y-122891928D01*
X104391596Y-122891928D02*
X104534453Y-122963357D01*
X104534453Y-122963357D02*
X104605882Y-123034785D01*
X104605882Y-123034785D02*
X104677310Y-123177642D01*
X104677310Y-123177642D02*
X104748739Y-123463357D01*
X104748739Y-123463357D02*
X104748739Y-123820500D01*
X104748739Y-123820500D02*
X104677310Y-124106214D01*
X104677310Y-124106214D02*
X104605882Y-124249071D01*
X104605882Y-124249071D02*
X104534453Y-124320500D01*
X104534453Y-124320500D02*
X104391596Y-124391928D01*
X104391596Y-124391928D02*
X104248739Y-124391928D01*
X104248739Y-124391928D02*
X104105882Y-124320500D01*
X104105882Y-124320500D02*
X104034453Y-124249071D01*
X104034453Y-124249071D02*
X103963024Y-124106214D01*
X103963024Y-124106214D02*
X103891596Y-123820500D01*
X103891596Y-123820500D02*
X103891596Y-123463357D01*
X103891596Y-123463357D02*
X103963024Y-123177642D01*
X103963024Y-123177642D02*
X104034453Y-123034785D01*
X104034453Y-123034785D02*
X104105882Y-122963357D01*
X104105882Y-122963357D02*
X104248739Y-122891928D01*
X105391595Y-123820500D02*
X106534453Y-123820500D01*
X107248738Y-124391928D02*
X107248738Y-122891928D01*
X107248738Y-123463357D02*
X107391596Y-123391928D01*
X107391596Y-123391928D02*
X107677310Y-123391928D01*
X107677310Y-123391928D02*
X107820167Y-123463357D01*
X107820167Y-123463357D02*
X107891596Y-123534785D01*
X107891596Y-123534785D02*
X107963024Y-123677642D01*
X107963024Y-123677642D02*
X107963024Y-124106214D01*
X107963024Y-124106214D02*
X107891596Y-124249071D01*
X107891596Y-124249071D02*
X107820167Y-124320500D01*
X107820167Y-124320500D02*
X107677310Y-124391928D01*
X107677310Y-124391928D02*
X107391596Y-124391928D01*
X107391596Y-124391928D02*
X107248738Y-124320500D01*
X109248739Y-124391928D02*
X109248739Y-123606214D01*
X109248739Y-123606214D02*
X109177310Y-123463357D01*
X109177310Y-123463357D02*
X109034453Y-123391928D01*
X109034453Y-123391928D02*
X108748739Y-123391928D01*
X108748739Y-123391928D02*
X108605881Y-123463357D01*
X109248739Y-124320500D02*
X109105881Y-124391928D01*
X109105881Y-124391928D02*
X108748739Y-124391928D01*
X108748739Y-124391928D02*
X108605881Y-124320500D01*
X108605881Y-124320500D02*
X108534453Y-124177642D01*
X108534453Y-124177642D02*
X108534453Y-124034785D01*
X108534453Y-124034785D02*
X108605881Y-123891928D01*
X108605881Y-123891928D02*
X108748739Y-123820500D01*
X108748739Y-123820500D02*
X109105881Y-123820500D01*
X109105881Y-123820500D02*
X109248739Y-123749071D01*
X109891596Y-124320500D02*
X110034453Y-124391928D01*
X110034453Y-124391928D02*
X110320167Y-124391928D01*
X110320167Y-124391928D02*
X110463024Y-124320500D01*
X110463024Y-124320500D02*
X110534453Y-124177642D01*
X110534453Y-124177642D02*
X110534453Y-124106214D01*
X110534453Y-124106214D02*
X110463024Y-123963357D01*
X110463024Y-123963357D02*
X110320167Y-123891928D01*
X110320167Y-123891928D02*
X110105882Y-123891928D01*
X110105882Y-123891928D02*
X109963024Y-123820500D01*
X109963024Y-123820500D02*
X109891596Y-123677642D01*
X109891596Y-123677642D02*
X109891596Y-123606214D01*
X109891596Y-123606214D02*
X109963024Y-123463357D01*
X109963024Y-123463357D02*
X110105882Y-123391928D01*
X110105882Y-123391928D02*
X110320167Y-123391928D01*
X110320167Y-123391928D02*
X110463024Y-123463357D01*
X111177310Y-124391928D02*
X111177310Y-123391928D01*
X111177310Y-122891928D02*
X111105882Y-122963357D01*
X111105882Y-122963357D02*
X111177310Y-123034785D01*
X111177310Y-123034785D02*
X111248739Y-122963357D01*
X111248739Y-122963357D02*
X111177310Y-122891928D01*
X111177310Y-122891928D02*
X111177310Y-123034785D01*
X112534454Y-124320500D02*
X112391596Y-124391928D01*
X112391596Y-124391928D02*
X112105882Y-124391928D01*
X112105882Y-124391928D02*
X111963025Y-124320500D01*
X111963025Y-124320500D02*
X111891596Y-124249071D01*
X111891596Y-124249071D02*
X111820168Y-124106214D01*
X111820168Y-124106214D02*
X111820168Y-123677642D01*
X111820168Y-123677642D02*
X111891596Y-123534785D01*
X111891596Y-123534785D02*
X111963025Y-123463357D01*
X111963025Y-123463357D02*
X112105882Y-123391928D01*
X112105882Y-123391928D02*
X112391596Y-123391928D01*
X112391596Y-123391928D02*
X112534454Y-123463357D01*
X113177310Y-123820500D02*
X114320168Y-123820500D01*
X115034453Y-124391928D02*
X115034453Y-123391928D01*
X115034453Y-123534785D02*
X115105882Y-123463357D01*
X115105882Y-123463357D02*
X115248739Y-123391928D01*
X115248739Y-123391928D02*
X115463025Y-123391928D01*
X115463025Y-123391928D02*
X115605882Y-123463357D01*
X115605882Y-123463357D02*
X115677311Y-123606214D01*
X115677311Y-123606214D02*
X115677311Y-124391928D01*
X115677311Y-123606214D02*
X115748739Y-123463357D01*
X115748739Y-123463357D02*
X115891596Y-123391928D01*
X115891596Y-123391928D02*
X116105882Y-123391928D01*
X116105882Y-123391928D02*
X116248739Y-123463357D01*
X116248739Y-123463357D02*
X116320168Y-123606214D01*
X116320168Y-123606214D02*
X116320168Y-124391928D01*
X117820168Y-124391928D02*
X116963025Y-124391928D01*
X117391596Y-124391928D02*
X117391596Y-122891928D01*
X117391596Y-122891928D02*
X117248739Y-123106214D01*
X117248739Y-123106214D02*
X117105882Y-123249071D01*
X117105882Y-123249071D02*
X116963025Y-123320500D01*
X118463024Y-124249071D02*
X118534453Y-124320500D01*
X118534453Y-124320500D02*
X118463024Y-124391928D01*
X118463024Y-124391928D02*
X118391596Y-124320500D01*
X118391596Y-124320500D02*
X118463024Y-124249071D01*
X118463024Y-124249071D02*
X118463024Y-124391928D01*
X119177310Y-124391928D02*
X119177310Y-122891928D01*
X119320168Y-123820500D02*
X119748739Y-124391928D01*
X119748739Y-123391928D02*
X119177310Y-123963357D01*
X120391596Y-124391928D02*
X120391596Y-123391928D01*
X120391596Y-122891928D02*
X120320168Y-122963357D01*
X120320168Y-122963357D02*
X120391596Y-123034785D01*
X120391596Y-123034785D02*
X120463025Y-122963357D01*
X120463025Y-122963357D02*
X120391596Y-122891928D01*
X120391596Y-122891928D02*
X120391596Y-123034785D01*
X121748740Y-124320500D02*
X121605882Y-124391928D01*
X121605882Y-124391928D02*
X121320168Y-124391928D01*
X121320168Y-124391928D02*
X121177311Y-124320500D01*
X121177311Y-124320500D02*
X121105882Y-124249071D01*
X121105882Y-124249071D02*
X121034454Y-124106214D01*
X121034454Y-124106214D02*
X121034454Y-123677642D01*
X121034454Y-123677642D02*
X121105882Y-123534785D01*
X121105882Y-123534785D02*
X121177311Y-123463357D01*
X121177311Y-123463357D02*
X121320168Y-123391928D01*
X121320168Y-123391928D02*
X121605882Y-123391928D01*
X121605882Y-123391928D02*
X121748740Y-123463357D01*
X123034454Y-124391928D02*
X123034454Y-123606214D01*
X123034454Y-123606214D02*
X122963025Y-123463357D01*
X122963025Y-123463357D02*
X122820168Y-123391928D01*
X122820168Y-123391928D02*
X122534454Y-123391928D01*
X122534454Y-123391928D02*
X122391596Y-123463357D01*
X123034454Y-124320500D02*
X122891596Y-124391928D01*
X122891596Y-124391928D02*
X122534454Y-124391928D01*
X122534454Y-124391928D02*
X122391596Y-124320500D01*
X122391596Y-124320500D02*
X122320168Y-124177642D01*
X122320168Y-124177642D02*
X122320168Y-124034785D01*
X122320168Y-124034785D02*
X122391596Y-123891928D01*
X122391596Y-123891928D02*
X122534454Y-123820500D01*
X122534454Y-123820500D02*
X122891596Y-123820500D01*
X122891596Y-123820500D02*
X123034454Y-123749071D01*
X124391597Y-124391928D02*
X124391597Y-122891928D01*
X124391597Y-124320500D02*
X124248739Y-124391928D01*
X124248739Y-124391928D02*
X123963025Y-124391928D01*
X123963025Y-124391928D02*
X123820168Y-124320500D01*
X123820168Y-124320500D02*
X123748739Y-124249071D01*
X123748739Y-124249071D02*
X123677311Y-124106214D01*
X123677311Y-124106214D02*
X123677311Y-123677642D01*
X123677311Y-123677642D02*
X123748739Y-123534785D01*
X123748739Y-123534785D02*
X123820168Y-123463357D01*
X123820168Y-123463357D02*
X123963025Y-123391928D01*
X123963025Y-123391928D02*
X124248739Y-123391928D01*
X124248739Y-123391928D02*
X124391597Y-123463357D01*
X124748740Y-124534785D02*
X125891597Y-124534785D01*
X126248739Y-123391928D02*
X126248739Y-124891928D01*
X126248739Y-123463357D02*
X126391597Y-123391928D01*
X126391597Y-123391928D02*
X126677311Y-123391928D01*
X126677311Y-123391928D02*
X126820168Y-123463357D01*
X126820168Y-123463357D02*
X126891597Y-123534785D01*
X126891597Y-123534785D02*
X126963025Y-123677642D01*
X126963025Y-123677642D02*
X126963025Y-124106214D01*
X126963025Y-124106214D02*
X126891597Y-124249071D01*
X126891597Y-124249071D02*
X126820168Y-124320500D01*
X126820168Y-124320500D02*
X126677311Y-124391928D01*
X126677311Y-124391928D02*
X126391597Y-124391928D01*
X126391597Y-124391928D02*
X126248739Y-124320500D01*
X128248740Y-124320500D02*
X128105882Y-124391928D01*
X128105882Y-124391928D02*
X127820168Y-124391928D01*
X127820168Y-124391928D02*
X127677311Y-124320500D01*
X127677311Y-124320500D02*
X127605882Y-124249071D01*
X127605882Y-124249071D02*
X127534454Y-124106214D01*
X127534454Y-124106214D02*
X127534454Y-123677642D01*
X127534454Y-123677642D02*
X127605882Y-123534785D01*
X127605882Y-123534785D02*
X127677311Y-123463357D01*
X127677311Y-123463357D02*
X127820168Y-123391928D01*
X127820168Y-123391928D02*
X128105882Y-123391928D01*
X128105882Y-123391928D02*
X128248740Y-123463357D01*
X128891596Y-124391928D02*
X128891596Y-122891928D01*
X128891596Y-123463357D02*
X129034454Y-123391928D01*
X129034454Y-123391928D02*
X129320168Y-123391928D01*
X129320168Y-123391928D02*
X129463025Y-123463357D01*
X129463025Y-123463357D02*
X129534454Y-123534785D01*
X129534454Y-123534785D02*
X129605882Y-123677642D01*
X129605882Y-123677642D02*
X129605882Y-124106214D01*
X129605882Y-124106214D02*
X129534454Y-124249071D01*
X129534454Y-124249071D02*
X129463025Y-124320500D01*
X129463025Y-124320500D02*
X129320168Y-124391928D01*
X129320168Y-124391928D02*
X129034454Y-124391928D01*
X129034454Y-124391928D02*
X128891596Y-124320500D01*
D10*
D11*
X90007200Y-119505800D02*
X198007200Y-119505800D01*
D10*
D11*
X91391598Y-121620500D02*
X91605884Y-121691928D01*
X91605884Y-121691928D02*
X91963026Y-121691928D01*
X91963026Y-121691928D02*
X92105884Y-121620500D01*
X92105884Y-121620500D02*
X92177312Y-121549071D01*
X92177312Y-121549071D02*
X92248741Y-121406214D01*
X92248741Y-121406214D02*
X92248741Y-121263357D01*
X92248741Y-121263357D02*
X92177312Y-121120500D01*
X92177312Y-121120500D02*
X92105884Y-121049071D01*
X92105884Y-121049071D02*
X91963026Y-120977642D01*
X91963026Y-120977642D02*
X91677312Y-120906214D01*
X91677312Y-120906214D02*
X91534455Y-120834785D01*
X91534455Y-120834785D02*
X91463026Y-120763357D01*
X91463026Y-120763357D02*
X91391598Y-120620500D01*
X91391598Y-120620500D02*
X91391598Y-120477642D01*
X91391598Y-120477642D02*
X91463026Y-120334785D01*
X91463026Y-120334785D02*
X91534455Y-120263357D01*
X91534455Y-120263357D02*
X91677312Y-120191928D01*
X91677312Y-120191928D02*
X92034455Y-120191928D01*
X92034455Y-120191928D02*
X92248741Y-120263357D01*
X92891597Y-121691928D02*
X92891597Y-120191928D01*
X93534455Y-121691928D02*
X93534455Y-120906214D01*
X93534455Y-120906214D02*
X93463026Y-120763357D01*
X93463026Y-120763357D02*
X93320169Y-120691928D01*
X93320169Y-120691928D02*
X93105883Y-120691928D01*
X93105883Y-120691928D02*
X92963026Y-120763357D01*
X92963026Y-120763357D02*
X92891597Y-120834785D01*
X94820169Y-121620500D02*
X94677312Y-121691928D01*
X94677312Y-121691928D02*
X94391598Y-121691928D01*
X94391598Y-121691928D02*
X94248740Y-121620500D01*
X94248740Y-121620500D02*
X94177312Y-121477642D01*
X94177312Y-121477642D02*
X94177312Y-120906214D01*
X94177312Y-120906214D02*
X94248740Y-120763357D01*
X94248740Y-120763357D02*
X94391598Y-120691928D01*
X94391598Y-120691928D02*
X94677312Y-120691928D01*
X94677312Y-120691928D02*
X94820169Y-120763357D01*
X94820169Y-120763357D02*
X94891598Y-120906214D01*
X94891598Y-120906214D02*
X94891598Y-121049071D01*
X94891598Y-121049071D02*
X94177312Y-121191928D01*
X96105883Y-121620500D02*
X95963026Y-121691928D01*
X95963026Y-121691928D02*
X95677312Y-121691928D01*
X95677312Y-121691928D02*
X95534454Y-121620500D01*
X95534454Y-121620500D02*
X95463026Y-121477642D01*
X95463026Y-121477642D02*
X95463026Y-120906214D01*
X95463026Y-120906214D02*
X95534454Y-120763357D01*
X95534454Y-120763357D02*
X95677312Y-120691928D01*
X95677312Y-120691928D02*
X95963026Y-120691928D01*
X95963026Y-120691928D02*
X96105883Y-120763357D01*
X96105883Y-120763357D02*
X96177312Y-120906214D01*
X96177312Y-120906214D02*
X96177312Y-121049071D01*
X96177312Y-121049071D02*
X95463026Y-121191928D01*
X96605883Y-120691928D02*
X97177311Y-120691928D01*
X96820168Y-120191928D02*
X96820168Y-121477642D01*
X96820168Y-121477642D02*
X96891597Y-121620500D01*
X96891597Y-121620500D02*
X97034454Y-121691928D01*
X97034454Y-121691928D02*
X97177311Y-121691928D01*
X97677311Y-121549071D02*
X97748740Y-121620500D01*
X97748740Y-121620500D02*
X97677311Y-121691928D01*
X97677311Y-121691928D02*
X97605883Y-121620500D01*
X97605883Y-121620500D02*
X97677311Y-121549071D01*
X97677311Y-121549071D02*
X97677311Y-121691928D01*
X97677311Y-120763357D02*
X97748740Y-120834785D01*
X97748740Y-120834785D02*
X97677311Y-120906214D01*
X97677311Y-120906214D02*
X97605883Y-120834785D01*
X97605883Y-120834785D02*
X97677311Y-120763357D01*
X97677311Y-120763357D02*
X97677311Y-120906214D01*
D10*
D12*
X91561710Y-117898414D02*
X92061710Y-117898414D01*
X92275996Y-118684128D02*
X91561710Y-118684128D01*
X91561710Y-118684128D02*
X91561710Y-117184128D01*
X91561710Y-117184128D02*
X92275996Y-117184128D01*
X92847425Y-118612700D02*
X93061711Y-118684128D01*
X93061711Y-118684128D02*
X93418853Y-118684128D01*
X93418853Y-118684128D02*
X93561711Y-118612700D01*
X93561711Y-118612700D02*
X93633139Y-118541271D01*
X93633139Y-118541271D02*
X93704568Y-118398414D01*
X93704568Y-118398414D02*
X93704568Y-118255557D01*
X93704568Y-118255557D02*
X93633139Y-118112700D01*
X93633139Y-118112700D02*
X93561711Y-118041271D01*
X93561711Y-118041271D02*
X93418853Y-117969842D01*
X93418853Y-117969842D02*
X93133139Y-117898414D01*
X93133139Y-117898414D02*
X92990282Y-117826985D01*
X92990282Y-117826985D02*
X92918853Y-117755557D01*
X92918853Y-117755557D02*
X92847425Y-117612700D01*
X92847425Y-117612700D02*
X92847425Y-117469842D01*
X92847425Y-117469842D02*
X92918853Y-117326985D01*
X92918853Y-117326985D02*
X92990282Y-117255557D01*
X92990282Y-117255557D02*
X93133139Y-117184128D01*
X93133139Y-117184128D02*
X93490282Y-117184128D01*
X93490282Y-117184128D02*
X93704568Y-117255557D01*
X95204567Y-118541271D02*
X95133139Y-118612700D01*
X95133139Y-118612700D02*
X94918853Y-118684128D01*
X94918853Y-118684128D02*
X94775996Y-118684128D01*
X94775996Y-118684128D02*
X94561710Y-118612700D01*
X94561710Y-118612700D02*
X94418853Y-118469842D01*
X94418853Y-118469842D02*
X94347424Y-118326985D01*
X94347424Y-118326985D02*
X94275996Y-118041271D01*
X94275996Y-118041271D02*
X94275996Y-117826985D01*
X94275996Y-117826985D02*
X94347424Y-117541271D01*
X94347424Y-117541271D02*
X94418853Y-117398414D01*
X94418853Y-117398414D02*
X94561710Y-117255557D01*
X94561710Y-117255557D02*
X94775996Y-117184128D01*
X94775996Y-117184128D02*
X94918853Y-117184128D01*
X94918853Y-117184128D02*
X95133139Y-117255557D01*
X95133139Y-117255557D02*
X95204567Y-117326985D01*
X97633139Y-118612700D02*
X97490281Y-118684128D01*
X97490281Y-118684128D02*
X97204567Y-118684128D01*
X97204567Y-118684128D02*
X97061710Y-118612700D01*
X97061710Y-118612700D02*
X96990281Y-118541271D01*
X96990281Y-118541271D02*
X96918853Y-118398414D01*
X96918853Y-118398414D02*
X96918853Y-117969842D01*
X96918853Y-117969842D02*
X96990281Y-117826985D01*
X96990281Y-117826985D02*
X97061710Y-117755557D01*
X97061710Y-117755557D02*
X97204567Y-117684128D01*
X97204567Y-117684128D02*
X97490281Y-117684128D01*
X97490281Y-117684128D02*
X97633139Y-117755557D01*
X98275995Y-118684128D02*
X98275995Y-117684128D01*
X98275995Y-117969842D02*
X98347424Y-117826985D01*
X98347424Y-117826985D02*
X98418853Y-117755557D01*
X98418853Y-117755557D02*
X98561710Y-117684128D01*
X98561710Y-117684128D02*
X98704567Y-117684128D01*
X99847424Y-118684128D02*
X99847424Y-117898414D01*
X99847424Y-117898414D02*
X99775995Y-117755557D01*
X99775995Y-117755557D02*
X99633138Y-117684128D01*
X99633138Y-117684128D02*
X99347424Y-117684128D01*
X99347424Y-117684128D02*
X99204566Y-117755557D01*
X99847424Y-118612700D02*
X99704566Y-118684128D01*
X99704566Y-118684128D02*
X99347424Y-118684128D01*
X99347424Y-118684128D02*
X99204566Y-118612700D01*
X99204566Y-118612700D02*
X99133138Y-118469842D01*
X99133138Y-118469842D02*
X99133138Y-118326985D01*
X99133138Y-118326985D02*
X99204566Y-118184128D01*
X99204566Y-118184128D02*
X99347424Y-118112700D01*
X99347424Y-118112700D02*
X99704566Y-118112700D01*
X99704566Y-118112700D02*
X99847424Y-118041271D01*
X100490281Y-118612700D02*
X100633138Y-118684128D01*
X100633138Y-118684128D02*
X100918852Y-118684128D01*
X100918852Y-118684128D02*
X101061709Y-118612700D01*
X101061709Y-118612700D02*
X101133138Y-118469842D01*
X101133138Y-118469842D02*
X101133138Y-118398414D01*
X101133138Y-118398414D02*
X101061709Y-118255557D01*
X101061709Y-118255557D02*
X100918852Y-118184128D01*
X100918852Y-118184128D02*
X100704567Y-118184128D01*
X100704567Y-118184128D02*
X100561709Y-118112700D01*
X100561709Y-118112700D02*
X100490281Y-117969842D01*
X100490281Y-117969842D02*
X100490281Y-117898414D01*
X100490281Y-117898414D02*
X100561709Y-117755557D01*
X100561709Y-117755557D02*
X100704567Y-117684128D01*
X100704567Y-117684128D02*
X100918852Y-117684128D01*
X100918852Y-117684128D02*
X101061709Y-117755557D01*
X102418853Y-118612700D02*
X102275995Y-118684128D01*
X102275995Y-118684128D02*
X101990281Y-118684128D01*
X101990281Y-118684128D02*
X101847424Y-118612700D01*
X101847424Y-118612700D02*
X101775995Y-118541271D01*
X101775995Y-118541271D02*
X101704567Y-118398414D01*
X101704567Y-118398414D02*
X101704567Y-117969842D01*
X101704567Y-117969842D02*
X101775995Y-117826985D01*
X101775995Y-117826985D02*
X101847424Y-117755557D01*
X101847424Y-117755557D02*
X101990281Y-117684128D01*
X101990281Y-117684128D02*
X102275995Y-117684128D01*
X102275995Y-117684128D02*
X102418853Y-117755557D01*
X103061709Y-118684128D02*
X103061709Y-117684128D01*
X103061709Y-117184128D02*
X102990281Y-117255557D01*
X102990281Y-117255557D02*
X103061709Y-117326985D01*
X103061709Y-117326985D02*
X103133138Y-117255557D01*
X103133138Y-117255557D02*
X103061709Y-117184128D01*
X103061709Y-117184128D02*
X103061709Y-117326985D01*
D10*
D11*
X91748741Y-114191928D02*
X92034455Y-114191928D01*
X92034455Y-114191928D02*
X92177312Y-114263357D01*
X92177312Y-114263357D02*
X92320169Y-114406214D01*
X92320169Y-114406214D02*
X92391598Y-114691928D01*
X92391598Y-114691928D02*
X92391598Y-115191928D01*
X92391598Y-115191928D02*
X92320169Y-115477642D01*
X92320169Y-115477642D02*
X92177312Y-115620500D01*
X92177312Y-115620500D02*
X92034455Y-115691928D01*
X92034455Y-115691928D02*
X91748741Y-115691928D01*
X91748741Y-115691928D02*
X91605884Y-115620500D01*
X91605884Y-115620500D02*
X91463026Y-115477642D01*
X91463026Y-115477642D02*
X91391598Y-115191928D01*
X91391598Y-115191928D02*
X91391598Y-114691928D01*
X91391598Y-114691928D02*
X91463026Y-114406214D01*
X91463026Y-114406214D02*
X91605884Y-114263357D01*
X91605884Y-114263357D02*
X91748741Y-114191928D01*
X93034455Y-115691928D02*
X93034455Y-114191928D01*
X93034455Y-114191928D02*
X93891598Y-115691928D01*
X93891598Y-115691928D02*
X93891598Y-114191928D01*
X95391599Y-114263357D02*
X95248742Y-114191928D01*
X95248742Y-114191928D02*
X95034456Y-114191928D01*
X95034456Y-114191928D02*
X94820170Y-114263357D01*
X94820170Y-114263357D02*
X94677313Y-114406214D01*
X94677313Y-114406214D02*
X94605884Y-114549071D01*
X94605884Y-114549071D02*
X94534456Y-114834785D01*
X94534456Y-114834785D02*
X94534456Y-115049071D01*
X94534456Y-115049071D02*
X94605884Y-115334785D01*
X94605884Y-115334785D02*
X94677313Y-115477642D01*
X94677313Y-115477642D02*
X94820170Y-115620500D01*
X94820170Y-115620500D02*
X95034456Y-115691928D01*
X95034456Y-115691928D02*
X95177313Y-115691928D01*
X95177313Y-115691928D02*
X95391599Y-115620500D01*
X95391599Y-115620500D02*
X95463027Y-115549071D01*
X95463027Y-115549071D02*
X95463027Y-115049071D01*
X95463027Y-115049071D02*
X95177313Y-115049071D01*
X96391599Y-114191928D02*
X96677313Y-114191928D01*
X96677313Y-114191928D02*
X96820170Y-114263357D01*
X96820170Y-114263357D02*
X96963027Y-114406214D01*
X96963027Y-114406214D02*
X97034456Y-114691928D01*
X97034456Y-114691928D02*
X97034456Y-115191928D01*
X97034456Y-115191928D02*
X96963027Y-115477642D01*
X96963027Y-115477642D02*
X96820170Y-115620500D01*
X96820170Y-115620500D02*
X96677313Y-115691928D01*
X96677313Y-115691928D02*
X96391599Y-115691928D01*
X96391599Y-115691928D02*
X96248742Y-115620500D01*
X96248742Y-115620500D02*
X96105884Y-115477642D01*
X96105884Y-115477642D02*
X96034456Y-115191928D01*
X96034456Y-115191928D02*
X96034456Y-114691928D01*
X96034456Y-114691928D02*
X96105884Y-114406214D01*
X96105884Y-114406214D02*
X96248742Y-114263357D01*
X96248742Y-114263357D02*
X96391599Y-114191928D01*
X98534456Y-115549071D02*
X98463028Y-115620500D01*
X98463028Y-115620500D02*
X98248742Y-115691928D01*
X98248742Y-115691928D02*
X98105885Y-115691928D01*
X98105885Y-115691928D02*
X97891599Y-115620500D01*
X97891599Y-115620500D02*
X97748742Y-115477642D01*
X97748742Y-115477642D02*
X97677313Y-115334785D01*
X97677313Y-115334785D02*
X97605885Y-115049071D01*
X97605885Y-115049071D02*
X97605885Y-114834785D01*
X97605885Y-114834785D02*
X97677313Y-114549071D01*
X97677313Y-114549071D02*
X97748742Y-114406214D01*
X97748742Y-114406214D02*
X97891599Y-114263357D01*
X97891599Y-114263357D02*
X98105885Y-114191928D01*
X98105885Y-114191928D02*
X98248742Y-114191928D01*
X98248742Y-114191928D02*
X98463028Y-114263357D01*
X98463028Y-114263357D02*
X98534456Y-114334785D01*
X99177313Y-115120500D02*
X100320171Y-115120500D01*
X101534456Y-114906214D02*
X101034456Y-114906214D01*
X101034456Y-115691928D02*
X101034456Y-114191928D01*
X101034456Y-114191928D02*
X101748742Y-114191928D01*
X102605885Y-114191928D02*
X102891599Y-114191928D01*
X102891599Y-114191928D02*
X103034456Y-114263357D01*
X103034456Y-114263357D02*
X103177313Y-114406214D01*
X103177313Y-114406214D02*
X103248742Y-114691928D01*
X103248742Y-114691928D02*
X103248742Y-115191928D01*
X103248742Y-115191928D02*
X103177313Y-115477642D01*
X103177313Y-115477642D02*
X103034456Y-115620500D01*
X103034456Y-115620500D02*
X102891599Y-115691928D01*
X102891599Y-115691928D02*
X102605885Y-115691928D01*
X102605885Y-115691928D02*
X102463028Y-115620500D01*
X102463028Y-115620500D02*
X102320170Y-115477642D01*
X102320170Y-115477642D02*
X102248742Y-115191928D01*
X102248742Y-115191928D02*
X102248742Y-114691928D01*
X102248742Y-114691928D02*
X102320170Y-114406214D01*
X102320170Y-114406214D02*
X102463028Y-114263357D01*
X102463028Y-114263357D02*
X102605885Y-114191928D01*
X104748742Y-115691928D02*
X104248742Y-114977642D01*
X103891599Y-115691928D02*
X103891599Y-114191928D01*
X103891599Y-114191928D02*
X104463028Y-114191928D01*
X104463028Y-114191928D02*
X104605885Y-114263357D01*
X104605885Y-114263357D02*
X104677314Y-114334785D01*
X104677314Y-114334785D02*
X104748742Y-114477642D01*
X104748742Y-114477642D02*
X104748742Y-114691928D01*
X104748742Y-114691928D02*
X104677314Y-114834785D01*
X104677314Y-114834785D02*
X104605885Y-114906214D01*
X104605885Y-114906214D02*
X104463028Y-114977642D01*
X104463028Y-114977642D02*
X103891599Y-114977642D01*
X105034457Y-115834785D02*
X106177314Y-115834785D01*
X106463028Y-115263357D02*
X107177314Y-115263357D01*
X106320171Y-115691928D02*
X106820171Y-114191928D01*
X106820171Y-114191928D02*
X107320171Y-115691928D01*
X107820170Y-115691928D02*
X107820170Y-114191928D01*
X107820170Y-114191928D02*
X108177313Y-114191928D01*
X108177313Y-114191928D02*
X108391599Y-114263357D01*
X108391599Y-114263357D02*
X108534456Y-114406214D01*
X108534456Y-114406214D02*
X108605885Y-114549071D01*
X108605885Y-114549071D02*
X108677313Y-114834785D01*
X108677313Y-114834785D02*
X108677313Y-115049071D01*
X108677313Y-115049071D02*
X108605885Y-115334785D01*
X108605885Y-115334785D02*
X108534456Y-115477642D01*
X108534456Y-115477642D02*
X108391599Y-115620500D01*
X108391599Y-115620500D02*
X108177313Y-115691928D01*
X108177313Y-115691928D02*
X107820170Y-115691928D01*
X109320170Y-115691928D02*
X109320170Y-114191928D01*
X109320170Y-114191928D02*
X109820170Y-115263357D01*
X109820170Y-115263357D02*
X110320170Y-114191928D01*
X110320170Y-114191928D02*
X110320170Y-115691928D01*
X111034456Y-115691928D02*
X111034456Y-114191928D01*
X111748742Y-115691928D02*
X111748742Y-114191928D01*
X111748742Y-114191928D02*
X112605885Y-115691928D01*
X112605885Y-115691928D02*
X112605885Y-114191928D01*
X112963029Y-115834785D02*
X114105886Y-115834785D01*
X114748743Y-114191928D02*
X115034457Y-114191928D01*
X115034457Y-114191928D02*
X115177314Y-114263357D01*
X115177314Y-114263357D02*
X115320171Y-114406214D01*
X115320171Y-114406214D02*
X115391600Y-114691928D01*
X115391600Y-114691928D02*
X115391600Y-115191928D01*
X115391600Y-115191928D02*
X115320171Y-115477642D01*
X115320171Y-115477642D02*
X115177314Y-115620500D01*
X115177314Y-115620500D02*
X115034457Y-115691928D01*
X115034457Y-115691928D02*
X114748743Y-115691928D01*
X114748743Y-115691928D02*
X114605886Y-115620500D01*
X114605886Y-115620500D02*
X114463028Y-115477642D01*
X114463028Y-115477642D02*
X114391600Y-115191928D01*
X114391600Y-115191928D02*
X114391600Y-114691928D01*
X114391600Y-114691928D02*
X114463028Y-114406214D01*
X114463028Y-114406214D02*
X114605886Y-114263357D01*
X114605886Y-114263357D02*
X114748743Y-114191928D01*
X116034457Y-115691928D02*
X116034457Y-114191928D01*
X116034457Y-114191928D02*
X116891600Y-115691928D01*
X116891600Y-115691928D02*
X116891600Y-114191928D01*
X118320172Y-115691928D02*
X117605886Y-115691928D01*
X117605886Y-115691928D02*
X117605886Y-114191928D01*
X119105887Y-114977642D02*
X119105887Y-115691928D01*
X118605887Y-114191928D02*
X119105887Y-114977642D01*
X119105887Y-114977642D02*
X119605887Y-114191928D01*
D10*
D11*
D10*
D11*
D10*
D11*
D10*
D11*
X110007200Y-129505800D02*
X110007200Y-132505800D01*
D10*
D11*
X174007200Y-129505800D02*
X174007200Y-136005800D01*
M02*
