%TF.GenerationSoftware,KiCad,Pcbnew,7.0.10*%
%TF.CreationDate,2024-01-28T16:31:56+05:30*%
%TF.ProjectId,rp2040-basic-m1,72703230-3430-42d6-9261-7369632d6d31,rev?*%
%TF.SameCoordinates,Original*%
%TF.FileFunction,Drillmap*%
%TF.FilePolarity,Positive*%
%FSLAX45Y45*%
G04 Gerber Fmt 4.5, Leading zero omitted, Abs format (unit mm)*
G04 Created by KiCad (PCBNEW 7.0.10) date 2024-01-28 16:31:56*
%MOMM*%
%LPD*%
G01*
G04 APERTURE LIST*
%ADD10C,0.100000*%
%ADD11C,0.200000*%
G04 APERTURE END LIST*
D10*
X8398000Y-2113050D02*
X8401000Y-2164050D01*
X11573000Y-1530050D02*
X11574000Y-2161050D01*
X7454000Y-2168050D02*
X7455000Y-2114050D01*
X7143000Y-8821050D02*
X7144000Y-2171050D01*
X12620000Y-8670000D02*
X12352500Y-8883000D01*
X10949000Y-9075050D02*
X7674000Y-9076050D01*
X7455000Y-2114050D02*
X8398000Y-2113050D01*
X11212500Y-8885000D02*
X10949000Y-9075050D01*
X8401000Y-2164050D02*
X10375000Y-2165050D01*
X10379000Y-1534050D02*
X11573000Y-1530050D01*
X10375000Y-2165050D02*
X10379000Y-1534050D01*
X7419000Y-8823050D02*
X7143000Y-8821050D01*
X7674000Y-9076050D02*
X7419000Y-8823050D01*
X12352500Y-8883000D02*
X11212500Y-8885000D01*
X11574000Y-2161050D02*
X12620000Y-2160000D01*
X12620000Y-2160000D02*
X12620000Y-8670000D01*
X7144000Y-2171050D02*
X7454000Y-2168050D01*
D11*
D10*
X7526400Y-3552830D02*
X7566400Y-3592830D01*
X7566400Y-3552830D02*
X7526400Y-3592830D01*
X7530000Y-3306050D02*
X7570000Y-3346050D01*
X7570000Y-3306050D02*
X7530000Y-3346050D01*
X7550000Y-4056050D02*
X7590000Y-4096050D01*
X7590000Y-4056050D02*
X7550000Y-4096050D01*
X7822940Y-4236680D02*
X7862940Y-4276680D01*
X7862940Y-4236680D02*
X7822940Y-4276680D01*
X7858000Y-6474050D02*
X7898000Y-6514050D01*
X7898000Y-6474050D02*
X7858000Y-6514050D01*
X7950600Y-4409650D02*
X7990600Y-4449650D01*
X7990600Y-4409650D02*
X7950600Y-4449650D01*
X8035000Y-3856050D02*
X8075000Y-3896050D01*
X8075000Y-3856050D02*
X8035000Y-3896050D01*
X8359500Y-4743878D02*
X8399500Y-4783878D01*
X8399500Y-4743878D02*
X8359500Y-4783878D01*
X8470000Y-2946050D02*
X8510000Y-2986050D01*
X8510000Y-2946050D02*
X8470000Y-2986050D01*
X8555000Y-2366050D02*
X8595000Y-2406050D01*
X8595000Y-2366050D02*
X8555000Y-2406050D01*
X8559000Y-3076000D02*
X8599000Y-3116000D01*
X8599000Y-3076000D02*
X8559000Y-3116000D01*
X8560000Y-2751050D02*
X8600000Y-2791050D01*
X8600000Y-2751050D02*
X8560000Y-2791050D01*
X8645900Y-4700383D02*
X8685900Y-4740383D01*
X8685900Y-4700383D02*
X8645900Y-4740383D01*
X8660000Y-7740000D02*
X8700000Y-7780000D01*
X8700000Y-7740000D02*
X8660000Y-7780000D01*
X8660000Y-8190000D02*
X8700000Y-8230000D01*
X8700000Y-8190000D02*
X8660000Y-8230000D01*
X8660000Y-8420000D02*
X8700000Y-8460000D01*
X8700000Y-8420000D02*
X8660000Y-8460000D01*
X8669691Y-4603314D02*
X8709691Y-4643314D01*
X8709691Y-4603314D02*
X8669691Y-4643314D01*
X8703500Y-4497960D02*
X8743500Y-4537960D01*
X8743500Y-4497960D02*
X8703500Y-4537960D01*
X8764400Y-4418640D02*
X8804400Y-4458640D01*
X8804400Y-4418640D02*
X8764400Y-4458640D01*
X8765900Y-4576040D02*
X8805900Y-4616040D01*
X8805900Y-4576040D02*
X8765900Y-4616040D01*
X8794000Y-7277000D02*
X8834000Y-7317000D01*
X8834000Y-7277000D02*
X8794000Y-7317000D01*
X8794000Y-7661000D02*
X8834000Y-7701000D01*
X8834000Y-7661000D02*
X8794000Y-7701000D01*
X8800000Y-8931000D02*
X8840000Y-8971000D01*
X8840000Y-8931000D02*
X8800000Y-8971000D01*
X8841200Y-5280580D02*
X8881200Y-5320580D01*
X8881200Y-5280580D02*
X8841200Y-5320580D01*
X8843730Y-4938920D02*
X8883730Y-4978920D01*
X8883730Y-4938920D02*
X8843730Y-4978920D01*
X8855000Y-5818250D02*
X8895000Y-5858250D01*
X8895000Y-5818250D02*
X8855000Y-5858250D01*
X8855950Y-4227450D02*
X8895950Y-4267450D01*
X8895950Y-4227450D02*
X8855950Y-4267450D01*
X8857000Y-3075000D02*
X8897000Y-3115000D01*
X8897000Y-3075000D02*
X8857000Y-3115000D01*
X8858300Y-4384550D02*
X8898300Y-4424550D01*
X8898300Y-4384550D02*
X8858300Y-4424550D01*
X8924000Y-6019000D02*
X8964000Y-6059000D01*
X8964000Y-6019000D02*
X8924000Y-6059000D01*
X8925000Y-3732250D02*
X8965000Y-3772250D01*
X8965000Y-3732250D02*
X8925000Y-3772250D01*
X8955300Y-4939180D02*
X8995300Y-4979180D01*
X8995300Y-4939180D02*
X8955300Y-4979180D01*
X8956000Y-5416050D02*
X8996000Y-5456050D01*
X8996000Y-5416050D02*
X8956000Y-5456050D01*
X8958200Y-4382930D02*
X8998200Y-4422930D01*
X8998200Y-4382930D02*
X8958200Y-4422930D01*
X9034000Y-5129050D02*
X9074000Y-5169050D01*
X9074000Y-5129050D02*
X9034000Y-5169050D01*
X9035000Y-5006050D02*
X9075000Y-5046050D01*
X9075000Y-5006050D02*
X9035000Y-5046050D01*
X9054000Y-4353050D02*
X9094000Y-4393050D01*
X9094000Y-4353050D02*
X9054000Y-4393050D01*
X9076000Y-8363550D02*
X9116000Y-8403550D01*
X9116000Y-8363550D02*
X9076000Y-8403550D01*
X9132000Y-5163050D02*
X9172000Y-5203050D01*
X9172000Y-5163050D02*
X9132000Y-5203050D01*
X9139000Y-3472250D02*
X9179000Y-3512250D01*
X9179000Y-3472250D02*
X9139000Y-3512250D01*
X9170000Y-2366050D02*
X9210000Y-2406050D01*
X9210000Y-2366050D02*
X9170000Y-2406050D01*
X9180000Y-2761050D02*
X9220000Y-2801050D01*
X9220000Y-2761050D02*
X9180000Y-2801050D01*
X9189400Y-3367400D02*
X9229400Y-3407400D01*
X9229400Y-3367400D02*
X9189400Y-3407400D01*
X9222000Y-8345000D02*
X9262000Y-8385000D01*
X9262000Y-8345000D02*
X9222000Y-8385000D01*
X9231806Y-5169288D02*
X9271806Y-5209288D01*
X9271806Y-5169288D02*
X9231806Y-5209288D01*
X9237000Y-5663050D02*
X9277000Y-5703050D01*
X9277000Y-5663050D02*
X9237000Y-5703050D01*
X9258000Y-5287050D02*
X9298000Y-5327050D01*
X9298000Y-5287050D02*
X9258000Y-5327050D01*
X9258000Y-5287050D02*
X9298000Y-5327050D01*
X9298000Y-5287050D02*
X9258000Y-5327050D01*
X9310000Y-6450000D02*
X9350000Y-6490000D01*
X9350000Y-6450000D02*
X9310000Y-6490000D01*
X9330906Y-5192010D02*
X9370906Y-5232010D01*
X9370906Y-5192010D02*
X9330906Y-5232010D01*
X9371000Y-8921000D02*
X9411000Y-8961000D01*
X9411000Y-8921000D02*
X9371000Y-8961000D01*
X9388000Y-4812100D02*
X9428000Y-4852100D01*
X9428000Y-4812100D02*
X9388000Y-4852100D01*
X9430000Y-8143000D02*
X9470000Y-8183000D01*
X9470000Y-8143000D02*
X9430000Y-8183000D01*
X9432000Y-7286000D02*
X9472000Y-7326000D01*
X9472000Y-7286000D02*
X9432000Y-7326000D01*
X9434000Y-5859000D02*
X9474000Y-5899000D01*
X9474000Y-5859000D02*
X9434000Y-5899000D01*
X9434000Y-7667000D02*
X9474000Y-7707000D01*
X9474000Y-7667000D02*
X9434000Y-7707000D01*
X9485000Y-8224000D02*
X9525000Y-8264000D01*
X9525000Y-8224000D02*
X9485000Y-8264000D01*
X9501000Y-4532250D02*
X9541000Y-4572250D01*
X9541000Y-4532250D02*
X9501000Y-4572250D01*
X9501000Y-4633850D02*
X9541000Y-4673850D01*
X9541000Y-4633850D02*
X9501000Y-4673850D01*
X9501000Y-4735450D02*
X9541000Y-4775450D01*
X9541000Y-4735450D02*
X9501000Y-4775450D01*
X9570000Y-8370000D02*
X9610000Y-8410000D01*
X9610000Y-8370000D02*
X9570000Y-8410000D01*
X9595800Y-3367400D02*
X9635800Y-3407400D01*
X9635800Y-3367400D02*
X9595800Y-3407400D01*
X9601975Y-8508025D02*
X9641975Y-8548025D01*
X9641975Y-8508025D02*
X9601975Y-8548025D01*
X9602600Y-4532250D02*
X9642600Y-4572250D01*
X9642600Y-4532250D02*
X9602600Y-4572250D01*
X9602600Y-4633850D02*
X9642600Y-4673850D01*
X9642600Y-4633850D02*
X9602600Y-4673850D01*
X9650000Y-7720000D02*
X9690000Y-7760000D01*
X9690000Y-7720000D02*
X9650000Y-7760000D01*
X9675000Y-5549050D02*
X9715000Y-5589050D01*
X9715000Y-5549050D02*
X9675000Y-5589050D01*
X9682434Y-5252781D02*
X9722434Y-5292781D01*
X9722434Y-5252781D02*
X9682434Y-5292781D01*
X9729600Y-4532250D02*
X9769600Y-4572250D01*
X9769600Y-4532250D02*
X9729600Y-4572250D01*
X9729600Y-4633850D02*
X9769600Y-4673850D01*
X9769600Y-4633850D02*
X9729600Y-4673850D01*
X9740000Y-5171050D02*
X9780000Y-5211050D01*
X9780000Y-5171050D02*
X9740000Y-5211050D01*
X9780400Y-3413050D02*
X9820400Y-3453050D01*
X9820400Y-3413050D02*
X9780400Y-3453050D01*
X9790000Y-3570000D02*
X9830000Y-3610000D01*
X9830000Y-3570000D02*
X9790000Y-3610000D01*
X9821634Y-5679227D02*
X9861634Y-5719227D01*
X9861634Y-5679227D02*
X9821634Y-5719227D01*
X9844000Y-2936000D02*
X9884000Y-2976000D01*
X9884000Y-2936000D02*
X9844000Y-2976000D01*
X9870000Y-5370000D02*
X9910000Y-5410000D01*
X9910000Y-5370000D02*
X9870000Y-5410000D01*
X9898000Y-5199050D02*
X9938000Y-5239050D01*
X9938000Y-5199050D02*
X9898000Y-5239050D01*
X9957200Y-4258790D02*
X9997200Y-4298790D01*
X9997200Y-4258790D02*
X9957200Y-4298790D01*
X10026000Y-3560250D02*
X10066000Y-3600250D01*
X10066000Y-3560250D02*
X10026000Y-3600250D01*
X10030000Y-5209050D02*
X10070000Y-5249050D01*
X10070000Y-5209050D02*
X10030000Y-5249050D01*
X10085000Y-4281050D02*
X10125000Y-4321050D01*
X10125000Y-4281050D02*
X10085000Y-4321050D01*
X10115100Y-5156710D02*
X10155100Y-5196710D01*
X10155100Y-5156710D02*
X10115100Y-5196710D01*
X10180500Y-4336460D02*
X10220500Y-4376460D01*
X10220500Y-4336460D02*
X10180500Y-4376460D01*
X10186800Y-3871850D02*
X10226800Y-3911850D01*
X10226800Y-3871850D02*
X10186800Y-3911850D01*
X10189187Y-5750810D02*
X10229187Y-5790810D01*
X10229187Y-5750810D02*
X10189187Y-5790810D01*
X10190000Y-5650000D02*
X10230000Y-5690000D01*
X10230000Y-5650000D02*
X10190000Y-5690000D01*
X10216000Y-5116050D02*
X10256000Y-5156050D01*
X10256000Y-5116050D02*
X10216000Y-5156050D01*
X10282000Y-5020050D02*
X10322000Y-5060050D01*
X10322000Y-5020050D02*
X10282000Y-5060050D01*
X10284000Y-4370050D02*
X10324000Y-4410050D01*
X10324000Y-4370050D02*
X10284000Y-4410050D01*
X10310100Y-5871670D02*
X10350100Y-5911670D01*
X10350100Y-5871670D02*
X10310100Y-5911670D01*
X10340000Y-3790000D02*
X10380000Y-3830000D01*
X10380000Y-3790000D02*
X10340000Y-3830000D01*
X10351000Y-2321050D02*
X10391000Y-2361050D01*
X10391000Y-2321050D02*
X10351000Y-2361050D01*
X10356000Y-5102050D02*
X10396000Y-5142050D01*
X10396000Y-5102050D02*
X10356000Y-5142050D01*
X10363000Y-4691050D02*
X10403000Y-4731050D01*
X10403000Y-4691050D02*
X10363000Y-4731050D01*
X10377500Y-3673550D02*
X10417500Y-3713550D01*
X10417500Y-3673550D02*
X10377500Y-3713550D01*
X10381000Y-4451050D02*
X10421000Y-4491050D01*
X10421000Y-4451050D02*
X10381000Y-4491050D01*
X10382000Y-4560050D02*
X10422000Y-4600050D01*
X10422000Y-4560050D02*
X10382000Y-4600050D01*
X10382200Y-5214980D02*
X10422200Y-5254980D01*
X10422200Y-5214980D02*
X10382200Y-5254980D01*
X10383477Y-2951523D02*
X10423477Y-2991523D01*
X10423477Y-2951523D02*
X10383477Y-2991523D01*
X10400000Y-5335960D02*
X10440000Y-5375960D01*
X10440000Y-5335960D02*
X10400000Y-5375960D01*
X10475400Y-6059690D02*
X10515400Y-6099690D01*
X10515400Y-6059690D02*
X10475400Y-6099690D01*
X10503000Y-7909000D02*
X10543000Y-7949000D01*
X10543000Y-7909000D02*
X10503000Y-7949000D01*
X10538100Y-6528300D02*
X10578100Y-6568300D01*
X10578100Y-6528300D02*
X10538100Y-6568300D01*
X10570600Y-6009490D02*
X10610600Y-6049490D01*
X10610600Y-6009490D02*
X10570600Y-6049490D01*
X10580000Y-7653000D02*
X10620000Y-7693000D01*
X10620000Y-7653000D02*
X10580000Y-7693000D01*
X10647500Y-5659430D02*
X10687500Y-5699430D01*
X10687500Y-5659430D02*
X10647500Y-5699430D01*
X10668400Y-5501850D02*
X10708400Y-5541850D01*
X10708400Y-5501850D02*
X10668400Y-5541850D01*
X10683426Y-3803426D02*
X10723426Y-3843426D01*
X10723426Y-3803426D02*
X10683426Y-3843426D01*
X10750457Y-5050268D02*
X10790457Y-5090268D01*
X10790457Y-5050268D02*
X10750457Y-5090268D01*
X10765000Y-5837100D02*
X10805000Y-5877100D01*
X10805000Y-5837100D02*
X10765000Y-5877100D01*
X10823600Y-5118460D02*
X10863600Y-5158460D01*
X10863600Y-5118460D02*
X10823600Y-5158460D01*
X10859000Y-4150000D02*
X10899000Y-4190000D01*
X10899000Y-4150000D02*
X10859000Y-4190000D01*
X10896100Y-5263470D02*
X10936100Y-5303470D01*
X10936100Y-5263470D02*
X10896100Y-5303470D01*
X10942000Y-3160000D02*
X10982000Y-3200000D01*
X10982000Y-3160000D02*
X10942000Y-3200000D01*
X10956000Y-3283000D02*
X10996000Y-3323000D01*
X10996000Y-3283000D02*
X10956000Y-3323000D01*
X10958900Y-6784310D02*
X10998900Y-6824310D01*
X10998900Y-6784310D02*
X10958900Y-6824310D01*
X10998000Y-2730000D02*
X11038000Y-2770000D01*
X11038000Y-2730000D02*
X10998000Y-2770000D01*
X11030000Y-3490000D02*
X11070000Y-3530000D01*
X11070000Y-3490000D02*
X11030000Y-3530000D01*
X11070000Y-8180000D02*
X11110000Y-8220000D01*
X11110000Y-8180000D02*
X11070000Y-8220000D01*
X11080000Y-8380000D02*
X11120000Y-8420000D01*
X11120000Y-8380000D02*
X11080000Y-8420000D01*
X11089800Y-7375620D02*
X11129800Y-7415620D01*
X11129800Y-7375620D02*
X11089800Y-7415620D01*
X11130000Y-3280000D02*
X11170000Y-3320000D01*
X11170000Y-3280000D02*
X11130000Y-3320000D01*
X11150000Y-5505000D02*
X11190000Y-5545000D01*
X11190000Y-5505000D02*
X11150000Y-5545000D01*
X11162500Y-7887500D02*
X11202500Y-7927500D01*
X11202500Y-7887500D02*
X11162500Y-7927500D01*
X11162526Y-5023525D02*
X11202526Y-5063525D01*
X11202526Y-5023525D02*
X11162526Y-5063525D01*
X11170000Y-7500000D02*
X11210000Y-7540000D01*
X11210000Y-7500000D02*
X11170000Y-7540000D01*
X11177800Y-6739550D02*
X11217800Y-6779550D01*
X11217800Y-6739550D02*
X11177800Y-6779550D01*
X11265700Y-5932940D02*
X11305700Y-5972940D01*
X11305700Y-5932940D02*
X11265700Y-5972940D01*
X11289800Y-6185850D02*
X11329800Y-6225850D01*
X11329800Y-6185850D02*
X11289800Y-6225850D01*
X11305000Y-4966050D02*
X11345000Y-5006050D01*
X11345000Y-4966050D02*
X11305000Y-5006050D01*
X11325000Y-7975000D02*
X11365000Y-8015000D01*
X11365000Y-7975000D02*
X11325000Y-8015000D01*
X11330000Y-6730000D02*
X11370000Y-6770000D01*
X11370000Y-6730000D02*
X11330000Y-6770000D01*
X11330030Y-8380000D02*
X11370030Y-8420000D01*
X11370030Y-8380000D02*
X11330030Y-8420000D01*
X11340000Y-8200000D02*
X11380000Y-8240000D01*
X11380000Y-8200000D02*
X11340000Y-8240000D01*
X11378050Y-5927090D02*
X11418050Y-5967090D01*
X11418050Y-5927090D02*
X11378050Y-5967090D01*
X11402500Y-8285000D02*
X11442500Y-8325000D01*
X11442500Y-8285000D02*
X11402500Y-8325000D01*
X11420000Y-5034720D02*
X11460000Y-5074720D01*
X11460000Y-5034720D02*
X11420000Y-5074720D01*
X11440000Y-3210000D02*
X11480000Y-3250000D01*
X11480000Y-3210000D02*
X11440000Y-3250000D01*
X11480000Y-2333050D02*
X11520000Y-2373050D01*
X11520000Y-2333050D02*
X11480000Y-2373050D01*
X11517500Y-6972500D02*
X11557500Y-7012500D01*
X11557500Y-6972500D02*
X11517500Y-7012500D01*
X11527500Y-7667500D02*
X11567500Y-7707500D01*
X11567500Y-7667500D02*
X11527500Y-7707500D01*
X11530000Y-8170000D02*
X11570000Y-8210000D01*
X11570000Y-8170000D02*
X11530000Y-8210000D01*
X11532500Y-7340000D02*
X11572500Y-7380000D01*
X11572500Y-7340000D02*
X11532500Y-7380000D01*
X11532500Y-8002500D02*
X11572500Y-8042500D01*
X11572500Y-8002500D02*
X11532500Y-8042500D01*
X11532500Y-8500000D02*
X11572500Y-8540000D01*
X11572500Y-8500000D02*
X11532500Y-8540000D01*
X11549600Y-5328170D02*
X11589600Y-5368170D01*
X11589600Y-5328170D02*
X11549600Y-5368170D01*
X11549600Y-6143660D02*
X11589600Y-6183660D01*
X11589600Y-6143660D02*
X11549600Y-6183660D01*
X11580000Y-4390050D02*
X11620000Y-4430050D01*
X11620000Y-4390050D02*
X11580000Y-4430050D01*
X11645000Y-4989720D02*
X11685000Y-5029720D01*
X11685000Y-4989720D02*
X11645000Y-5029720D01*
X11828130Y-5107220D02*
X11868130Y-5147220D01*
X11868130Y-5107220D02*
X11828130Y-5147220D01*
X11925560Y-5318920D02*
X11965560Y-5358920D01*
X11965560Y-5318920D02*
X11925560Y-5358920D01*
X11934930Y-5543910D02*
X11974930Y-5583910D01*
X11974930Y-5543910D02*
X11934930Y-5583910D01*
X11935400Y-6192780D02*
X11975400Y-6232780D01*
X11975400Y-6192780D02*
X11935400Y-6232780D01*
X11962340Y-5211200D02*
X12002340Y-5251200D01*
X12002340Y-5211200D02*
X11962340Y-5251200D01*
X12025000Y-4951050D02*
X12065000Y-4991050D01*
X12065000Y-4951050D02*
X12025000Y-4991050D01*
X12057500Y-6985000D02*
X12097500Y-7025000D01*
X12097500Y-6985000D02*
X12057500Y-7025000D01*
X12060000Y-8332500D02*
X12100000Y-8372500D01*
X12100000Y-8332500D02*
X12060000Y-8372500D01*
X12062500Y-7132500D02*
X12102500Y-7172500D01*
X12102500Y-7132500D02*
X12062500Y-7172500D01*
X12065000Y-6795000D02*
X12105000Y-6835000D01*
X12105000Y-6795000D02*
X12065000Y-6835000D01*
X12065000Y-7645000D02*
X12105000Y-7685000D01*
X12105000Y-7645000D02*
X12065000Y-7685000D01*
X12065000Y-8665000D02*
X12105000Y-8705000D01*
X12105000Y-8665000D02*
X12065000Y-8705000D01*
X12067500Y-7982500D02*
X12107500Y-8022500D01*
X12107500Y-7982500D02*
X12067500Y-8022500D01*
X12075000Y-7317500D02*
X12115000Y-7357500D01*
X12115000Y-7317500D02*
X12075000Y-7357500D01*
X12090000Y-2710000D02*
X12130000Y-2750000D01*
X12130000Y-2710000D02*
X12090000Y-2750000D01*
X12169977Y-8720000D02*
X12209977Y-8760000D01*
X12209977Y-8720000D02*
X12169977Y-8760000D01*
X12210000Y-3076050D02*
X12250000Y-3116050D01*
X12250000Y-3076050D02*
X12210000Y-3116050D01*
X12438850Y-3811830D02*
X12478850Y-3851830D01*
X12478850Y-3811830D02*
X12438850Y-3851830D01*
X12500000Y-2720000D02*
X12540000Y-2760000D01*
X12540000Y-2720000D02*
X12500000Y-2760000D01*
X10545500Y-1841050D02*
G75*
G03*
X10485500Y-1841050I-30000J0D01*
G01*
X10485500Y-1841050D02*
G75*
G03*
X10545500Y-1841050I30000J0D01*
G01*
X10545500Y-1881050D02*
X10545500Y-1801050D01*
X10545500Y-1801050D02*
G75*
G03*
X10485500Y-1801050I-30000J0D01*
G01*
X10485500Y-1801050D02*
X10485500Y-1881050D01*
X10485500Y-1881050D02*
G75*
G03*
X10545500Y-1881050I30000J0D01*
G01*
X10545500Y-2261050D02*
G75*
G03*
X10485500Y-2261050I-30000J0D01*
G01*
X10485500Y-2261050D02*
G75*
G03*
X10545500Y-2261050I30000J0D01*
G01*
X10545500Y-2316050D02*
X10545500Y-2206050D01*
X10545500Y-2206050D02*
G75*
G03*
X10485500Y-2206050I-30000J0D01*
G01*
X10485500Y-2206050D02*
X10485500Y-2316050D01*
X10485500Y-2316050D02*
G75*
G03*
X10545500Y-2316050I30000J0D01*
G01*
X11409500Y-1841050D02*
G75*
G03*
X11349500Y-1841050I-30000J0D01*
G01*
X11349500Y-1841050D02*
G75*
G03*
X11409500Y-1841050I30000J0D01*
G01*
X11409500Y-1881050D02*
X11409500Y-1801050D01*
X11409500Y-1801050D02*
G75*
G03*
X11349500Y-1801050I-30000J0D01*
G01*
X11349500Y-1801050D02*
X11349500Y-1881050D01*
X11349500Y-1881050D02*
G75*
G03*
X11409500Y-1881050I30000J0D01*
G01*
X11409500Y-2261050D02*
G75*
G03*
X11349500Y-2261050I-30000J0D01*
G01*
X11349500Y-2261050D02*
G75*
G03*
X11409500Y-2261050I30000J0D01*
G01*
X11409500Y-2316050D02*
X11409500Y-2206050D01*
X11409500Y-2206050D02*
G75*
G03*
X11349500Y-2206050I-30000J0D01*
G01*
X11349500Y-2206050D02*
X11349500Y-2316050D01*
X11349500Y-2316050D02*
G75*
G03*
X11409500Y-2316050I30000J0D01*
G01*
X7420000Y-7200000D02*
X7420000Y-7300000D01*
X7370000Y-7250000D02*
X7470000Y-7250000D01*
X7420000Y-7454000D02*
X7420000Y-7554000D01*
X7370000Y-7504000D02*
X7470000Y-7504000D01*
X7420000Y-7708000D02*
X7420000Y-7808000D01*
X7370000Y-7758000D02*
X7470000Y-7758000D01*
X7420000Y-7962000D02*
X7420000Y-8062000D01*
X7370000Y-8012000D02*
X7470000Y-8012000D01*
X7420000Y-8216000D02*
X7420000Y-8316000D01*
X7370000Y-8266000D02*
X7470000Y-8266000D01*
X7420000Y-8470000D02*
X7420000Y-8570000D01*
X7370000Y-8520000D02*
X7470000Y-8520000D01*
X7440000Y-4919050D02*
X7440000Y-5019050D01*
X7390000Y-4969050D02*
X7490000Y-4969050D01*
X7440000Y-5173050D02*
X7440000Y-5273050D01*
X7390000Y-5223050D02*
X7490000Y-5223050D01*
X7440000Y-5427050D02*
X7440000Y-5527050D01*
X7390000Y-5477050D02*
X7490000Y-5477050D01*
X7440000Y-5681050D02*
X7440000Y-5781050D01*
X7390000Y-5731050D02*
X7490000Y-5731050D01*
X7440000Y-5935050D02*
X7440000Y-6035050D01*
X7390000Y-5985050D02*
X7490000Y-5985050D01*
X7440000Y-6189050D02*
X7440000Y-6289050D01*
X7390000Y-6239050D02*
X7490000Y-6239050D01*
X7440000Y-6443050D02*
X7440000Y-6543050D01*
X7390000Y-6493050D02*
X7490000Y-6493050D01*
X7440000Y-6697050D02*
X7440000Y-6797050D01*
X7390000Y-6747050D02*
X7490000Y-6747050D01*
X7449800Y-2749250D02*
X7449800Y-2849250D01*
X7399800Y-2799250D02*
X7499800Y-2799250D01*
X7399800Y-2699250D02*
X7399800Y-2899250D01*
X7399800Y-2899250D02*
G75*
G03*
X7499800Y-2899250I50000J0D01*
G01*
X7499800Y-2899250D02*
X7499800Y-2699250D01*
X7499800Y-2699250D02*
G75*
G03*
X7399800Y-2699250I-50000J0D01*
G01*
X7919800Y-2449250D02*
X7919800Y-2549250D01*
X7869800Y-2499250D02*
X7969800Y-2499250D01*
X8019800Y-2449250D02*
X7819800Y-2449250D01*
X7819800Y-2449250D02*
G75*
G03*
X7819800Y-2549250I0J-50000D01*
G01*
X7819800Y-2549250D02*
X8019800Y-2549250D01*
X8019800Y-2549250D02*
G75*
G03*
X8019800Y-2449250I0J50000D01*
G01*
X7919800Y-3049250D02*
X7919800Y-3149250D01*
X7869800Y-3099250D02*
X7969800Y-3099250D01*
X8019800Y-3049250D02*
X7819800Y-3049250D01*
X7819800Y-3049250D02*
G75*
G03*
X7819800Y-3149250I0J-50000D01*
G01*
X7819800Y-3149250D02*
X8019800Y-3149250D01*
X8019800Y-3149250D02*
G75*
G03*
X8019800Y-3049250I0J50000D01*
G01*
X9782000Y-8770000D02*
X9782000Y-8870000D01*
X9732000Y-8820000D02*
X9832000Y-8820000D01*
X10036000Y-8770000D02*
X10036000Y-8870000D01*
X9986000Y-8820000D02*
X10086000Y-8820000D01*
X10290000Y-8770000D02*
X10290000Y-8870000D01*
X10240000Y-8820000D02*
X10340000Y-8820000D01*
X10785000Y-7118050D02*
X10785000Y-7218050D01*
X10735000Y-7168050D02*
X10835000Y-7168050D01*
X10785000Y-7372050D02*
X10785000Y-7472050D01*
X10735000Y-7422050D02*
X10835000Y-7422050D01*
X10785000Y-7626050D02*
X10785000Y-7726050D01*
X10735000Y-7676050D02*
X10835000Y-7676050D01*
X10785000Y-7880050D02*
X10785000Y-7980050D01*
X10735000Y-7930050D02*
X10835000Y-7930050D01*
X10785000Y-8134050D02*
X10785000Y-8234050D01*
X10735000Y-8184050D02*
X10835000Y-8184050D01*
X10785000Y-8388050D02*
X10785000Y-8488050D01*
X10735000Y-8438050D02*
X10835000Y-8438050D01*
X12272000Y-4026050D02*
X12272000Y-4126050D01*
X12222000Y-4076050D02*
X12322000Y-4076050D01*
X12272000Y-4280050D02*
X12272000Y-4380050D01*
X12222000Y-4330050D02*
X12322000Y-4330050D01*
X12272000Y-4534050D02*
X12272000Y-4634050D01*
X12222000Y-4584050D02*
X12322000Y-4584050D01*
X12272000Y-4788050D02*
X12272000Y-4888050D01*
X12222000Y-4838050D02*
X12322000Y-4838050D01*
X12272000Y-5042050D02*
X12272000Y-5142050D01*
X12222000Y-5092050D02*
X12322000Y-5092050D01*
X12272000Y-5296050D02*
X12272000Y-5396050D01*
X12222000Y-5346050D02*
X12322000Y-5346050D01*
X12272000Y-5550050D02*
X12272000Y-5650050D01*
X12222000Y-5600050D02*
X12322000Y-5600050D01*
X12272000Y-5804050D02*
X12272000Y-5904050D01*
X12222000Y-5854050D02*
X12322000Y-5854050D01*
X12272000Y-6058050D02*
X12272000Y-6158050D01*
X12222000Y-6108050D02*
X12322000Y-6108050D01*
X12272000Y-6312050D02*
X12272000Y-6412050D01*
X12222000Y-6362050D02*
X12322000Y-6362050D01*
X12277500Y-6720000D02*
X12277500Y-6820000D01*
X12227500Y-6770000D02*
X12327500Y-6770000D01*
X12277500Y-6974000D02*
X12277500Y-7074000D01*
X12227500Y-7024000D02*
X12327500Y-7024000D01*
X12277500Y-7228000D02*
X12277500Y-7328000D01*
X12227500Y-7278000D02*
X12327500Y-7278000D01*
X12277500Y-7482000D02*
X12277500Y-7582000D01*
X12227500Y-7532000D02*
X12327500Y-7532000D01*
X12277500Y-7736000D02*
X12277500Y-7836000D01*
X12227500Y-7786000D02*
X12327500Y-7786000D01*
X12277500Y-7990000D02*
X12277500Y-8090000D01*
X12227500Y-8040000D02*
X12327500Y-8040000D01*
X12277500Y-8244000D02*
X12277500Y-8344000D01*
X12227500Y-8294000D02*
X12327500Y-8294000D01*
X12277500Y-8498000D02*
X12277500Y-8598000D01*
X12227500Y-8548000D02*
X12327500Y-8548000D01*
D11*
X7398777Y-9392534D02*
X7398777Y-9192534D01*
X7398777Y-9192534D02*
X7446396Y-9192534D01*
X7446396Y-9192534D02*
X7474967Y-9202058D01*
X7474967Y-9202058D02*
X7494015Y-9221105D01*
X7494015Y-9221105D02*
X7503539Y-9240153D01*
X7503539Y-9240153D02*
X7513062Y-9278248D01*
X7513062Y-9278248D02*
X7513062Y-9306820D01*
X7513062Y-9306820D02*
X7503539Y-9344915D01*
X7503539Y-9344915D02*
X7494015Y-9363962D01*
X7494015Y-9363962D02*
X7474967Y-9383010D01*
X7474967Y-9383010D02*
X7446396Y-9392534D01*
X7446396Y-9392534D02*
X7398777Y-9392534D01*
X7598777Y-9392534D02*
X7598777Y-9259200D01*
X7598777Y-9297296D02*
X7608301Y-9278248D01*
X7608301Y-9278248D02*
X7617824Y-9268724D01*
X7617824Y-9268724D02*
X7636872Y-9259200D01*
X7636872Y-9259200D02*
X7655920Y-9259200D01*
X7722586Y-9392534D02*
X7722586Y-9259200D01*
X7722586Y-9192534D02*
X7713062Y-9202058D01*
X7713062Y-9202058D02*
X7722586Y-9211581D01*
X7722586Y-9211581D02*
X7732110Y-9202058D01*
X7732110Y-9202058D02*
X7722586Y-9192534D01*
X7722586Y-9192534D02*
X7722586Y-9211581D01*
X7846396Y-9392534D02*
X7827348Y-9383010D01*
X7827348Y-9383010D02*
X7817824Y-9363962D01*
X7817824Y-9363962D02*
X7817824Y-9192534D01*
X7951158Y-9392534D02*
X7932110Y-9383010D01*
X7932110Y-9383010D02*
X7922586Y-9363962D01*
X7922586Y-9363962D02*
X7922586Y-9192534D01*
X8179729Y-9392534D02*
X8179729Y-9192534D01*
X8179729Y-9192534D02*
X8246396Y-9335391D01*
X8246396Y-9335391D02*
X8313062Y-9192534D01*
X8313062Y-9192534D02*
X8313062Y-9392534D01*
X8494015Y-9392534D02*
X8494015Y-9287772D01*
X8494015Y-9287772D02*
X8484491Y-9268724D01*
X8484491Y-9268724D02*
X8465444Y-9259200D01*
X8465444Y-9259200D02*
X8427348Y-9259200D01*
X8427348Y-9259200D02*
X8408301Y-9268724D01*
X8494015Y-9383010D02*
X8474967Y-9392534D01*
X8474967Y-9392534D02*
X8427348Y-9392534D01*
X8427348Y-9392534D02*
X8408301Y-9383010D01*
X8408301Y-9383010D02*
X8398777Y-9363962D01*
X8398777Y-9363962D02*
X8398777Y-9344915D01*
X8398777Y-9344915D02*
X8408301Y-9325867D01*
X8408301Y-9325867D02*
X8427348Y-9316343D01*
X8427348Y-9316343D02*
X8474967Y-9316343D01*
X8474967Y-9316343D02*
X8494015Y-9306820D01*
X8589253Y-9259200D02*
X8589253Y-9459200D01*
X8589253Y-9268724D02*
X8608301Y-9259200D01*
X8608301Y-9259200D02*
X8646396Y-9259200D01*
X8646396Y-9259200D02*
X8665444Y-9268724D01*
X8665444Y-9268724D02*
X8674967Y-9278248D01*
X8674967Y-9278248D02*
X8684491Y-9297296D01*
X8684491Y-9297296D02*
X8684491Y-9354439D01*
X8684491Y-9354439D02*
X8674967Y-9373486D01*
X8674967Y-9373486D02*
X8665444Y-9383010D01*
X8665444Y-9383010D02*
X8646396Y-9392534D01*
X8646396Y-9392534D02*
X8608301Y-9392534D01*
X8608301Y-9392534D02*
X8589253Y-9383010D01*
X8770205Y-9373486D02*
X8779729Y-9383010D01*
X8779729Y-9383010D02*
X8770205Y-9392534D01*
X8770205Y-9392534D02*
X8760682Y-9383010D01*
X8760682Y-9383010D02*
X8770205Y-9373486D01*
X8770205Y-9373486D02*
X8770205Y-9392534D01*
X8770205Y-9268724D02*
X8779729Y-9278248D01*
X8779729Y-9278248D02*
X8770205Y-9287772D01*
X8770205Y-9287772D02*
X8760682Y-9278248D01*
X8760682Y-9278248D02*
X8770205Y-9268724D01*
X8770205Y-9268724D02*
X8770205Y-9287772D01*
D10*
X7098000Y-9701050D02*
X7138000Y-9741050D01*
X7138000Y-9701050D02*
X7098000Y-9741050D01*
D11*
X7436872Y-9612534D02*
X7455920Y-9612534D01*
X7455920Y-9612534D02*
X7474967Y-9622058D01*
X7474967Y-9622058D02*
X7484491Y-9631581D01*
X7484491Y-9631581D02*
X7494015Y-9650629D01*
X7494015Y-9650629D02*
X7503539Y-9688724D01*
X7503539Y-9688724D02*
X7503539Y-9736343D01*
X7503539Y-9736343D02*
X7494015Y-9774439D01*
X7494015Y-9774439D02*
X7484491Y-9793486D01*
X7484491Y-9793486D02*
X7474967Y-9803010D01*
X7474967Y-9803010D02*
X7455920Y-9812534D01*
X7455920Y-9812534D02*
X7436872Y-9812534D01*
X7436872Y-9812534D02*
X7417824Y-9803010D01*
X7417824Y-9803010D02*
X7408301Y-9793486D01*
X7408301Y-9793486D02*
X7398777Y-9774439D01*
X7398777Y-9774439D02*
X7389253Y-9736343D01*
X7389253Y-9736343D02*
X7389253Y-9688724D01*
X7389253Y-9688724D02*
X7398777Y-9650629D01*
X7398777Y-9650629D02*
X7408301Y-9631581D01*
X7408301Y-9631581D02*
X7417824Y-9622058D01*
X7417824Y-9622058D02*
X7436872Y-9612534D01*
X7589253Y-9793486D02*
X7598777Y-9803010D01*
X7598777Y-9803010D02*
X7589253Y-9812534D01*
X7589253Y-9812534D02*
X7579729Y-9803010D01*
X7579729Y-9803010D02*
X7589253Y-9793486D01*
X7589253Y-9793486D02*
X7589253Y-9812534D01*
X7770205Y-9679200D02*
X7770205Y-9812534D01*
X7722586Y-9603010D02*
X7674967Y-9745867D01*
X7674967Y-9745867D02*
X7798777Y-9745867D01*
X7913062Y-9612534D02*
X7932110Y-9612534D01*
X7932110Y-9612534D02*
X7951158Y-9622058D01*
X7951158Y-9622058D02*
X7960682Y-9631581D01*
X7960682Y-9631581D02*
X7970205Y-9650629D01*
X7970205Y-9650629D02*
X7979729Y-9688724D01*
X7979729Y-9688724D02*
X7979729Y-9736343D01*
X7979729Y-9736343D02*
X7970205Y-9774439D01*
X7970205Y-9774439D02*
X7960682Y-9793486D01*
X7960682Y-9793486D02*
X7951158Y-9803010D01*
X7951158Y-9803010D02*
X7932110Y-9812534D01*
X7932110Y-9812534D02*
X7913062Y-9812534D01*
X7913062Y-9812534D02*
X7894015Y-9803010D01*
X7894015Y-9803010D02*
X7884491Y-9793486D01*
X7884491Y-9793486D02*
X7874967Y-9774439D01*
X7874967Y-9774439D02*
X7865443Y-9736343D01*
X7865443Y-9736343D02*
X7865443Y-9688724D01*
X7865443Y-9688724D02*
X7874967Y-9650629D01*
X7874967Y-9650629D02*
X7884491Y-9631581D01*
X7884491Y-9631581D02*
X7894015Y-9622058D01*
X7894015Y-9622058D02*
X7913062Y-9612534D01*
X8103539Y-9612534D02*
X8122586Y-9612534D01*
X8122586Y-9612534D02*
X8141634Y-9622058D01*
X8141634Y-9622058D02*
X8151158Y-9631581D01*
X8151158Y-9631581D02*
X8160682Y-9650629D01*
X8160682Y-9650629D02*
X8170205Y-9688724D01*
X8170205Y-9688724D02*
X8170205Y-9736343D01*
X8170205Y-9736343D02*
X8160682Y-9774439D01*
X8160682Y-9774439D02*
X8151158Y-9793486D01*
X8151158Y-9793486D02*
X8141634Y-9803010D01*
X8141634Y-9803010D02*
X8122586Y-9812534D01*
X8122586Y-9812534D02*
X8103539Y-9812534D01*
X8103539Y-9812534D02*
X8084491Y-9803010D01*
X8084491Y-9803010D02*
X8074967Y-9793486D01*
X8074967Y-9793486D02*
X8065443Y-9774439D01*
X8065443Y-9774439D02*
X8055920Y-9736343D01*
X8055920Y-9736343D02*
X8055920Y-9688724D01*
X8055920Y-9688724D02*
X8065443Y-9650629D01*
X8065443Y-9650629D02*
X8074967Y-9631581D01*
X8074967Y-9631581D02*
X8084491Y-9622058D01*
X8084491Y-9622058D02*
X8103539Y-9612534D01*
X8255920Y-9812534D02*
X8255920Y-9679200D01*
X8255920Y-9698248D02*
X8265443Y-9688724D01*
X8265443Y-9688724D02*
X8284491Y-9679200D01*
X8284491Y-9679200D02*
X8313063Y-9679200D01*
X8313063Y-9679200D02*
X8332110Y-9688724D01*
X8332110Y-9688724D02*
X8341634Y-9707772D01*
X8341634Y-9707772D02*
X8341634Y-9812534D01*
X8341634Y-9707772D02*
X8351158Y-9688724D01*
X8351158Y-9688724D02*
X8370205Y-9679200D01*
X8370205Y-9679200D02*
X8398777Y-9679200D01*
X8398777Y-9679200D02*
X8417825Y-9688724D01*
X8417825Y-9688724D02*
X8427348Y-9707772D01*
X8427348Y-9707772D02*
X8427348Y-9812534D01*
X8522586Y-9812534D02*
X8522586Y-9679200D01*
X8522586Y-9698248D02*
X8532110Y-9688724D01*
X8532110Y-9688724D02*
X8551158Y-9679200D01*
X8551158Y-9679200D02*
X8579729Y-9679200D01*
X8579729Y-9679200D02*
X8598777Y-9688724D01*
X8598777Y-9688724D02*
X8608301Y-9707772D01*
X8608301Y-9707772D02*
X8608301Y-9812534D01*
X8608301Y-9707772D02*
X8617825Y-9688724D01*
X8617825Y-9688724D02*
X8636872Y-9679200D01*
X8636872Y-9679200D02*
X8665444Y-9679200D01*
X8665444Y-9679200D02*
X8684491Y-9688724D01*
X8684491Y-9688724D02*
X8694015Y-9707772D01*
X8694015Y-9707772D02*
X8694015Y-9812534D01*
X9084491Y-9603010D02*
X8913063Y-9860153D01*
X9341634Y-9612534D02*
X9360682Y-9612534D01*
X9360682Y-9612534D02*
X9379729Y-9622058D01*
X9379729Y-9622058D02*
X9389253Y-9631581D01*
X9389253Y-9631581D02*
X9398777Y-9650629D01*
X9398777Y-9650629D02*
X9408301Y-9688724D01*
X9408301Y-9688724D02*
X9408301Y-9736343D01*
X9408301Y-9736343D02*
X9398777Y-9774439D01*
X9398777Y-9774439D02*
X9389253Y-9793486D01*
X9389253Y-9793486D02*
X9379729Y-9803010D01*
X9379729Y-9803010D02*
X9360682Y-9812534D01*
X9360682Y-9812534D02*
X9341634Y-9812534D01*
X9341634Y-9812534D02*
X9322587Y-9803010D01*
X9322587Y-9803010D02*
X9313063Y-9793486D01*
X9313063Y-9793486D02*
X9303539Y-9774439D01*
X9303539Y-9774439D02*
X9294015Y-9736343D01*
X9294015Y-9736343D02*
X9294015Y-9688724D01*
X9294015Y-9688724D02*
X9303539Y-9650629D01*
X9303539Y-9650629D02*
X9313063Y-9631581D01*
X9313063Y-9631581D02*
X9322587Y-9622058D01*
X9322587Y-9622058D02*
X9341634Y-9612534D01*
X9494015Y-9793486D02*
X9503539Y-9803010D01*
X9503539Y-9803010D02*
X9494015Y-9812534D01*
X9494015Y-9812534D02*
X9484491Y-9803010D01*
X9484491Y-9803010D02*
X9494015Y-9793486D01*
X9494015Y-9793486D02*
X9494015Y-9812534D01*
X9627348Y-9612534D02*
X9646396Y-9612534D01*
X9646396Y-9612534D02*
X9665444Y-9622058D01*
X9665444Y-9622058D02*
X9674968Y-9631581D01*
X9674968Y-9631581D02*
X9684491Y-9650629D01*
X9684491Y-9650629D02*
X9694015Y-9688724D01*
X9694015Y-9688724D02*
X9694015Y-9736343D01*
X9694015Y-9736343D02*
X9684491Y-9774439D01*
X9684491Y-9774439D02*
X9674968Y-9793486D01*
X9674968Y-9793486D02*
X9665444Y-9803010D01*
X9665444Y-9803010D02*
X9646396Y-9812534D01*
X9646396Y-9812534D02*
X9627348Y-9812534D01*
X9627348Y-9812534D02*
X9608301Y-9803010D01*
X9608301Y-9803010D02*
X9598777Y-9793486D01*
X9598777Y-9793486D02*
X9589253Y-9774439D01*
X9589253Y-9774439D02*
X9579729Y-9736343D01*
X9579729Y-9736343D02*
X9579729Y-9688724D01*
X9579729Y-9688724D02*
X9589253Y-9650629D01*
X9589253Y-9650629D02*
X9598777Y-9631581D01*
X9598777Y-9631581D02*
X9608301Y-9622058D01*
X9608301Y-9622058D02*
X9627348Y-9612534D01*
X9884491Y-9812534D02*
X9770206Y-9812534D01*
X9827348Y-9812534D02*
X9827348Y-9612534D01*
X9827348Y-9612534D02*
X9808301Y-9641105D01*
X9808301Y-9641105D02*
X9789253Y-9660153D01*
X9789253Y-9660153D02*
X9770206Y-9669677D01*
X10065444Y-9612534D02*
X9970206Y-9612534D01*
X9970206Y-9612534D02*
X9960682Y-9707772D01*
X9960682Y-9707772D02*
X9970206Y-9698248D01*
X9970206Y-9698248D02*
X9989253Y-9688724D01*
X9989253Y-9688724D02*
X10036872Y-9688724D01*
X10036872Y-9688724D02*
X10055920Y-9698248D01*
X10055920Y-9698248D02*
X10065444Y-9707772D01*
X10065444Y-9707772D02*
X10074968Y-9726820D01*
X10074968Y-9726820D02*
X10074968Y-9774439D01*
X10074968Y-9774439D02*
X10065444Y-9793486D01*
X10065444Y-9793486D02*
X10055920Y-9803010D01*
X10055920Y-9803010D02*
X10036872Y-9812534D01*
X10036872Y-9812534D02*
X9989253Y-9812534D01*
X9989253Y-9812534D02*
X9970206Y-9803010D01*
X9970206Y-9803010D02*
X9960682Y-9793486D01*
X10141634Y-9612534D02*
X10274968Y-9612534D01*
X10274968Y-9612534D02*
X10189253Y-9812534D01*
X10341634Y-9612534D02*
X10341634Y-9650629D01*
X10417825Y-9612534D02*
X10417825Y-9650629D01*
X10713063Y-9888724D02*
X10703539Y-9879200D01*
X10703539Y-9879200D02*
X10684491Y-9850629D01*
X10684491Y-9850629D02*
X10674968Y-9831581D01*
X10674968Y-9831581D02*
X10665444Y-9803010D01*
X10665444Y-9803010D02*
X10655920Y-9755391D01*
X10655920Y-9755391D02*
X10655920Y-9717296D01*
X10655920Y-9717296D02*
X10665444Y-9669677D01*
X10665444Y-9669677D02*
X10674968Y-9641105D01*
X10674968Y-9641105D02*
X10684491Y-9622058D01*
X10684491Y-9622058D02*
X10703539Y-9593486D01*
X10703539Y-9593486D02*
X10713063Y-9583962D01*
X10894015Y-9812534D02*
X10779730Y-9812534D01*
X10836872Y-9812534D02*
X10836872Y-9612534D01*
X10836872Y-9612534D02*
X10817825Y-9641105D01*
X10817825Y-9641105D02*
X10798777Y-9660153D01*
X10798777Y-9660153D02*
X10779730Y-9669677D01*
X11065444Y-9612534D02*
X11027349Y-9612534D01*
X11027349Y-9612534D02*
X11008301Y-9622058D01*
X11008301Y-9622058D02*
X10998777Y-9631581D01*
X10998777Y-9631581D02*
X10979730Y-9660153D01*
X10979730Y-9660153D02*
X10970206Y-9698248D01*
X10970206Y-9698248D02*
X10970206Y-9774439D01*
X10970206Y-9774439D02*
X10979730Y-9793486D01*
X10979730Y-9793486D02*
X10989253Y-9803010D01*
X10989253Y-9803010D02*
X11008301Y-9812534D01*
X11008301Y-9812534D02*
X11046396Y-9812534D01*
X11046396Y-9812534D02*
X11065444Y-9803010D01*
X11065444Y-9803010D02*
X11074968Y-9793486D01*
X11074968Y-9793486D02*
X11084491Y-9774439D01*
X11084491Y-9774439D02*
X11084491Y-9726820D01*
X11084491Y-9726820D02*
X11074968Y-9707772D01*
X11074968Y-9707772D02*
X11065444Y-9698248D01*
X11065444Y-9698248D02*
X11046396Y-9688724D01*
X11046396Y-9688724D02*
X11008301Y-9688724D01*
X11008301Y-9688724D02*
X10989253Y-9698248D01*
X10989253Y-9698248D02*
X10979730Y-9707772D01*
X10979730Y-9707772D02*
X10970206Y-9726820D01*
X11198777Y-9698248D02*
X11179730Y-9688724D01*
X11179730Y-9688724D02*
X11170206Y-9679200D01*
X11170206Y-9679200D02*
X11160682Y-9660153D01*
X11160682Y-9660153D02*
X11160682Y-9650629D01*
X11160682Y-9650629D02*
X11170206Y-9631581D01*
X11170206Y-9631581D02*
X11179730Y-9622058D01*
X11179730Y-9622058D02*
X11198777Y-9612534D01*
X11198777Y-9612534D02*
X11236872Y-9612534D01*
X11236872Y-9612534D02*
X11255920Y-9622058D01*
X11255920Y-9622058D02*
X11265444Y-9631581D01*
X11265444Y-9631581D02*
X11274968Y-9650629D01*
X11274968Y-9650629D02*
X11274968Y-9660153D01*
X11274968Y-9660153D02*
X11265444Y-9679200D01*
X11265444Y-9679200D02*
X11255920Y-9688724D01*
X11255920Y-9688724D02*
X11236872Y-9698248D01*
X11236872Y-9698248D02*
X11198777Y-9698248D01*
X11198777Y-9698248D02*
X11179730Y-9707772D01*
X11179730Y-9707772D02*
X11170206Y-9717296D01*
X11170206Y-9717296D02*
X11160682Y-9736343D01*
X11160682Y-9736343D02*
X11160682Y-9774439D01*
X11160682Y-9774439D02*
X11170206Y-9793486D01*
X11170206Y-9793486D02*
X11179730Y-9803010D01*
X11179730Y-9803010D02*
X11198777Y-9812534D01*
X11198777Y-9812534D02*
X11236872Y-9812534D01*
X11236872Y-9812534D02*
X11255920Y-9803010D01*
X11255920Y-9803010D02*
X11265444Y-9793486D01*
X11265444Y-9793486D02*
X11274968Y-9774439D01*
X11274968Y-9774439D02*
X11274968Y-9736343D01*
X11274968Y-9736343D02*
X11265444Y-9717296D01*
X11265444Y-9717296D02*
X11255920Y-9707772D01*
X11255920Y-9707772D02*
X11236872Y-9698248D01*
X11513063Y-9812534D02*
X11513063Y-9612534D01*
X11598777Y-9812534D02*
X11598777Y-9707772D01*
X11598777Y-9707772D02*
X11589253Y-9688724D01*
X11589253Y-9688724D02*
X11570206Y-9679200D01*
X11570206Y-9679200D02*
X11541634Y-9679200D01*
X11541634Y-9679200D02*
X11522587Y-9688724D01*
X11522587Y-9688724D02*
X11513063Y-9698248D01*
X11722587Y-9812534D02*
X11703539Y-9803010D01*
X11703539Y-9803010D02*
X11694015Y-9793486D01*
X11694015Y-9793486D02*
X11684491Y-9774439D01*
X11684491Y-9774439D02*
X11684491Y-9717296D01*
X11684491Y-9717296D02*
X11694015Y-9698248D01*
X11694015Y-9698248D02*
X11703539Y-9688724D01*
X11703539Y-9688724D02*
X11722587Y-9679200D01*
X11722587Y-9679200D02*
X11751158Y-9679200D01*
X11751158Y-9679200D02*
X11770206Y-9688724D01*
X11770206Y-9688724D02*
X11779730Y-9698248D01*
X11779730Y-9698248D02*
X11789253Y-9717296D01*
X11789253Y-9717296D02*
X11789253Y-9774439D01*
X11789253Y-9774439D02*
X11779730Y-9793486D01*
X11779730Y-9793486D02*
X11770206Y-9803010D01*
X11770206Y-9803010D02*
X11751158Y-9812534D01*
X11751158Y-9812534D02*
X11722587Y-9812534D01*
X11903539Y-9812534D02*
X11884491Y-9803010D01*
X11884491Y-9803010D02*
X11874968Y-9783962D01*
X11874968Y-9783962D02*
X11874968Y-9612534D01*
X12055920Y-9803010D02*
X12036872Y-9812534D01*
X12036872Y-9812534D02*
X11998777Y-9812534D01*
X11998777Y-9812534D02*
X11979730Y-9803010D01*
X11979730Y-9803010D02*
X11970206Y-9783962D01*
X11970206Y-9783962D02*
X11970206Y-9707772D01*
X11970206Y-9707772D02*
X11979730Y-9688724D01*
X11979730Y-9688724D02*
X11998777Y-9679200D01*
X11998777Y-9679200D02*
X12036872Y-9679200D01*
X12036872Y-9679200D02*
X12055920Y-9688724D01*
X12055920Y-9688724D02*
X12065444Y-9707772D01*
X12065444Y-9707772D02*
X12065444Y-9726820D01*
X12065444Y-9726820D02*
X11970206Y-9745867D01*
X12141634Y-9803010D02*
X12160682Y-9812534D01*
X12160682Y-9812534D02*
X12198777Y-9812534D01*
X12198777Y-9812534D02*
X12217825Y-9803010D01*
X12217825Y-9803010D02*
X12227349Y-9783962D01*
X12227349Y-9783962D02*
X12227349Y-9774439D01*
X12227349Y-9774439D02*
X12217825Y-9755391D01*
X12217825Y-9755391D02*
X12198777Y-9745867D01*
X12198777Y-9745867D02*
X12170206Y-9745867D01*
X12170206Y-9745867D02*
X12151158Y-9736343D01*
X12151158Y-9736343D02*
X12141634Y-9717296D01*
X12141634Y-9717296D02*
X12141634Y-9707772D01*
X12141634Y-9707772D02*
X12151158Y-9688724D01*
X12151158Y-9688724D02*
X12170206Y-9679200D01*
X12170206Y-9679200D02*
X12198777Y-9679200D01*
X12198777Y-9679200D02*
X12217825Y-9688724D01*
X12294015Y-9888724D02*
X12303539Y-9879200D01*
X12303539Y-9879200D02*
X12322587Y-9850629D01*
X12322587Y-9850629D02*
X12332111Y-9831581D01*
X12332111Y-9831581D02*
X12341634Y-9803010D01*
X12341634Y-9803010D02*
X12351158Y-9755391D01*
X12351158Y-9755391D02*
X12351158Y-9717296D01*
X12351158Y-9717296D02*
X12341634Y-9669677D01*
X12341634Y-9669677D02*
X12332111Y-9641105D01*
X12332111Y-9641105D02*
X12322587Y-9622058D01*
X12322587Y-9622058D02*
X12303539Y-9593486D01*
X12303539Y-9593486D02*
X12294015Y-9583962D01*
D10*
X7138000Y-9985050D02*
G75*
G03*
X7078000Y-9985050I-30000J0D01*
G01*
X7078000Y-9985050D02*
G75*
G03*
X7138000Y-9985050I30000J0D01*
G01*
D11*
X7436872Y-9876534D02*
X7455920Y-9876534D01*
X7455920Y-9876534D02*
X7474967Y-9886058D01*
X7474967Y-9886058D02*
X7484491Y-9895581D01*
X7484491Y-9895581D02*
X7494015Y-9914629D01*
X7494015Y-9914629D02*
X7503539Y-9952724D01*
X7503539Y-9952724D02*
X7503539Y-10000343D01*
X7503539Y-10000343D02*
X7494015Y-10038439D01*
X7494015Y-10038439D02*
X7484491Y-10057486D01*
X7484491Y-10057486D02*
X7474967Y-10067010D01*
X7474967Y-10067010D02*
X7455920Y-10076534D01*
X7455920Y-10076534D02*
X7436872Y-10076534D01*
X7436872Y-10076534D02*
X7417824Y-10067010D01*
X7417824Y-10067010D02*
X7408301Y-10057486D01*
X7408301Y-10057486D02*
X7398777Y-10038439D01*
X7398777Y-10038439D02*
X7389253Y-10000343D01*
X7389253Y-10000343D02*
X7389253Y-9952724D01*
X7389253Y-9952724D02*
X7398777Y-9914629D01*
X7398777Y-9914629D02*
X7408301Y-9895581D01*
X7408301Y-9895581D02*
X7417824Y-9886058D01*
X7417824Y-9886058D02*
X7436872Y-9876534D01*
X7589253Y-10057486D02*
X7598777Y-10067010D01*
X7598777Y-10067010D02*
X7589253Y-10076534D01*
X7589253Y-10076534D02*
X7579729Y-10067010D01*
X7579729Y-10067010D02*
X7589253Y-10057486D01*
X7589253Y-10057486D02*
X7589253Y-10076534D01*
X7770205Y-9876534D02*
X7732110Y-9876534D01*
X7732110Y-9876534D02*
X7713062Y-9886058D01*
X7713062Y-9886058D02*
X7703539Y-9895581D01*
X7703539Y-9895581D02*
X7684491Y-9924153D01*
X7684491Y-9924153D02*
X7674967Y-9962248D01*
X7674967Y-9962248D02*
X7674967Y-10038439D01*
X7674967Y-10038439D02*
X7684491Y-10057486D01*
X7684491Y-10057486D02*
X7694015Y-10067010D01*
X7694015Y-10067010D02*
X7713062Y-10076534D01*
X7713062Y-10076534D02*
X7751158Y-10076534D01*
X7751158Y-10076534D02*
X7770205Y-10067010D01*
X7770205Y-10067010D02*
X7779729Y-10057486D01*
X7779729Y-10057486D02*
X7789253Y-10038439D01*
X7789253Y-10038439D02*
X7789253Y-9990820D01*
X7789253Y-9990820D02*
X7779729Y-9971772D01*
X7779729Y-9971772D02*
X7770205Y-9962248D01*
X7770205Y-9962248D02*
X7751158Y-9952724D01*
X7751158Y-9952724D02*
X7713062Y-9952724D01*
X7713062Y-9952724D02*
X7694015Y-9962248D01*
X7694015Y-9962248D02*
X7684491Y-9971772D01*
X7684491Y-9971772D02*
X7674967Y-9990820D01*
X7913062Y-9876534D02*
X7932110Y-9876534D01*
X7932110Y-9876534D02*
X7951158Y-9886058D01*
X7951158Y-9886058D02*
X7960682Y-9895581D01*
X7960682Y-9895581D02*
X7970205Y-9914629D01*
X7970205Y-9914629D02*
X7979729Y-9952724D01*
X7979729Y-9952724D02*
X7979729Y-10000343D01*
X7979729Y-10000343D02*
X7970205Y-10038439D01*
X7970205Y-10038439D02*
X7960682Y-10057486D01*
X7960682Y-10057486D02*
X7951158Y-10067010D01*
X7951158Y-10067010D02*
X7932110Y-10076534D01*
X7932110Y-10076534D02*
X7913062Y-10076534D01*
X7913062Y-10076534D02*
X7894015Y-10067010D01*
X7894015Y-10067010D02*
X7884491Y-10057486D01*
X7884491Y-10057486D02*
X7874967Y-10038439D01*
X7874967Y-10038439D02*
X7865443Y-10000343D01*
X7865443Y-10000343D02*
X7865443Y-9952724D01*
X7865443Y-9952724D02*
X7874967Y-9914629D01*
X7874967Y-9914629D02*
X7884491Y-9895581D01*
X7884491Y-9895581D02*
X7894015Y-9886058D01*
X7894015Y-9886058D02*
X7913062Y-9876534D01*
X8103539Y-9876534D02*
X8122586Y-9876534D01*
X8122586Y-9876534D02*
X8141634Y-9886058D01*
X8141634Y-9886058D02*
X8151158Y-9895581D01*
X8151158Y-9895581D02*
X8160682Y-9914629D01*
X8160682Y-9914629D02*
X8170205Y-9952724D01*
X8170205Y-9952724D02*
X8170205Y-10000343D01*
X8170205Y-10000343D02*
X8160682Y-10038439D01*
X8160682Y-10038439D02*
X8151158Y-10057486D01*
X8151158Y-10057486D02*
X8141634Y-10067010D01*
X8141634Y-10067010D02*
X8122586Y-10076534D01*
X8122586Y-10076534D02*
X8103539Y-10076534D01*
X8103539Y-10076534D02*
X8084491Y-10067010D01*
X8084491Y-10067010D02*
X8074967Y-10057486D01*
X8074967Y-10057486D02*
X8065443Y-10038439D01*
X8065443Y-10038439D02*
X8055920Y-10000343D01*
X8055920Y-10000343D02*
X8055920Y-9952724D01*
X8055920Y-9952724D02*
X8065443Y-9914629D01*
X8065443Y-9914629D02*
X8074967Y-9895581D01*
X8074967Y-9895581D02*
X8084491Y-9886058D01*
X8084491Y-9886058D02*
X8103539Y-9876534D01*
X8255920Y-10076534D02*
X8255920Y-9943200D01*
X8255920Y-9962248D02*
X8265443Y-9952724D01*
X8265443Y-9952724D02*
X8284491Y-9943200D01*
X8284491Y-9943200D02*
X8313063Y-9943200D01*
X8313063Y-9943200D02*
X8332110Y-9952724D01*
X8332110Y-9952724D02*
X8341634Y-9971772D01*
X8341634Y-9971772D02*
X8341634Y-10076534D01*
X8341634Y-9971772D02*
X8351158Y-9952724D01*
X8351158Y-9952724D02*
X8370205Y-9943200D01*
X8370205Y-9943200D02*
X8398777Y-9943200D01*
X8398777Y-9943200D02*
X8417825Y-9952724D01*
X8417825Y-9952724D02*
X8427348Y-9971772D01*
X8427348Y-9971772D02*
X8427348Y-10076534D01*
X8522586Y-10076534D02*
X8522586Y-9943200D01*
X8522586Y-9962248D02*
X8532110Y-9952724D01*
X8532110Y-9952724D02*
X8551158Y-9943200D01*
X8551158Y-9943200D02*
X8579729Y-9943200D01*
X8579729Y-9943200D02*
X8598777Y-9952724D01*
X8598777Y-9952724D02*
X8608301Y-9971772D01*
X8608301Y-9971772D02*
X8608301Y-10076534D01*
X8608301Y-9971772D02*
X8617825Y-9952724D01*
X8617825Y-9952724D02*
X8636872Y-9943200D01*
X8636872Y-9943200D02*
X8665444Y-9943200D01*
X8665444Y-9943200D02*
X8684491Y-9952724D01*
X8684491Y-9952724D02*
X8694015Y-9971772D01*
X8694015Y-9971772D02*
X8694015Y-10076534D01*
X9084491Y-9867010D02*
X8913063Y-10124153D01*
X9341634Y-9876534D02*
X9360682Y-9876534D01*
X9360682Y-9876534D02*
X9379729Y-9886058D01*
X9379729Y-9886058D02*
X9389253Y-9895581D01*
X9389253Y-9895581D02*
X9398777Y-9914629D01*
X9398777Y-9914629D02*
X9408301Y-9952724D01*
X9408301Y-9952724D02*
X9408301Y-10000343D01*
X9408301Y-10000343D02*
X9398777Y-10038439D01*
X9398777Y-10038439D02*
X9389253Y-10057486D01*
X9389253Y-10057486D02*
X9379729Y-10067010D01*
X9379729Y-10067010D02*
X9360682Y-10076534D01*
X9360682Y-10076534D02*
X9341634Y-10076534D01*
X9341634Y-10076534D02*
X9322587Y-10067010D01*
X9322587Y-10067010D02*
X9313063Y-10057486D01*
X9313063Y-10057486D02*
X9303539Y-10038439D01*
X9303539Y-10038439D02*
X9294015Y-10000343D01*
X9294015Y-10000343D02*
X9294015Y-9952724D01*
X9294015Y-9952724D02*
X9303539Y-9914629D01*
X9303539Y-9914629D02*
X9313063Y-9895581D01*
X9313063Y-9895581D02*
X9322587Y-9886058D01*
X9322587Y-9886058D02*
X9341634Y-9876534D01*
X9494015Y-10057486D02*
X9503539Y-10067010D01*
X9503539Y-10067010D02*
X9494015Y-10076534D01*
X9494015Y-10076534D02*
X9484491Y-10067010D01*
X9484491Y-10067010D02*
X9494015Y-10057486D01*
X9494015Y-10057486D02*
X9494015Y-10076534D01*
X9627348Y-9876534D02*
X9646396Y-9876534D01*
X9646396Y-9876534D02*
X9665444Y-9886058D01*
X9665444Y-9886058D02*
X9674968Y-9895581D01*
X9674968Y-9895581D02*
X9684491Y-9914629D01*
X9684491Y-9914629D02*
X9694015Y-9952724D01*
X9694015Y-9952724D02*
X9694015Y-10000343D01*
X9694015Y-10000343D02*
X9684491Y-10038439D01*
X9684491Y-10038439D02*
X9674968Y-10057486D01*
X9674968Y-10057486D02*
X9665444Y-10067010D01*
X9665444Y-10067010D02*
X9646396Y-10076534D01*
X9646396Y-10076534D02*
X9627348Y-10076534D01*
X9627348Y-10076534D02*
X9608301Y-10067010D01*
X9608301Y-10067010D02*
X9598777Y-10057486D01*
X9598777Y-10057486D02*
X9589253Y-10038439D01*
X9589253Y-10038439D02*
X9579729Y-10000343D01*
X9579729Y-10000343D02*
X9579729Y-9952724D01*
X9579729Y-9952724D02*
X9589253Y-9914629D01*
X9589253Y-9914629D02*
X9598777Y-9895581D01*
X9598777Y-9895581D02*
X9608301Y-9886058D01*
X9608301Y-9886058D02*
X9627348Y-9876534D01*
X9770206Y-9895581D02*
X9779729Y-9886058D01*
X9779729Y-9886058D02*
X9798777Y-9876534D01*
X9798777Y-9876534D02*
X9846396Y-9876534D01*
X9846396Y-9876534D02*
X9865444Y-9886058D01*
X9865444Y-9886058D02*
X9874968Y-9895581D01*
X9874968Y-9895581D02*
X9884491Y-9914629D01*
X9884491Y-9914629D02*
X9884491Y-9933677D01*
X9884491Y-9933677D02*
X9874968Y-9962248D01*
X9874968Y-9962248D02*
X9760682Y-10076534D01*
X9760682Y-10076534D02*
X9884491Y-10076534D01*
X9951158Y-9876534D02*
X10074968Y-9876534D01*
X10074968Y-9876534D02*
X10008301Y-9952724D01*
X10008301Y-9952724D02*
X10036872Y-9952724D01*
X10036872Y-9952724D02*
X10055920Y-9962248D01*
X10055920Y-9962248D02*
X10065444Y-9971772D01*
X10065444Y-9971772D02*
X10074968Y-9990820D01*
X10074968Y-9990820D02*
X10074968Y-10038439D01*
X10074968Y-10038439D02*
X10065444Y-10057486D01*
X10065444Y-10057486D02*
X10055920Y-10067010D01*
X10055920Y-10067010D02*
X10036872Y-10076534D01*
X10036872Y-10076534D02*
X9979729Y-10076534D01*
X9979729Y-10076534D02*
X9960682Y-10067010D01*
X9960682Y-10067010D02*
X9951158Y-10057486D01*
X10246396Y-9876534D02*
X10208301Y-9876534D01*
X10208301Y-9876534D02*
X10189253Y-9886058D01*
X10189253Y-9886058D02*
X10179729Y-9895581D01*
X10179729Y-9895581D02*
X10160682Y-9924153D01*
X10160682Y-9924153D02*
X10151158Y-9962248D01*
X10151158Y-9962248D02*
X10151158Y-10038439D01*
X10151158Y-10038439D02*
X10160682Y-10057486D01*
X10160682Y-10057486D02*
X10170206Y-10067010D01*
X10170206Y-10067010D02*
X10189253Y-10076534D01*
X10189253Y-10076534D02*
X10227349Y-10076534D01*
X10227349Y-10076534D02*
X10246396Y-10067010D01*
X10246396Y-10067010D02*
X10255920Y-10057486D01*
X10255920Y-10057486D02*
X10265444Y-10038439D01*
X10265444Y-10038439D02*
X10265444Y-9990820D01*
X10265444Y-9990820D02*
X10255920Y-9971772D01*
X10255920Y-9971772D02*
X10246396Y-9962248D01*
X10246396Y-9962248D02*
X10227349Y-9952724D01*
X10227349Y-9952724D02*
X10189253Y-9952724D01*
X10189253Y-9952724D02*
X10170206Y-9962248D01*
X10170206Y-9962248D02*
X10160682Y-9971772D01*
X10160682Y-9971772D02*
X10151158Y-9990820D01*
X10341634Y-9876534D02*
X10341634Y-9914629D01*
X10417825Y-9876534D02*
X10417825Y-9914629D01*
X10713063Y-10152724D02*
X10703539Y-10143200D01*
X10703539Y-10143200D02*
X10684491Y-10114629D01*
X10684491Y-10114629D02*
X10674968Y-10095581D01*
X10674968Y-10095581D02*
X10665444Y-10067010D01*
X10665444Y-10067010D02*
X10655920Y-10019391D01*
X10655920Y-10019391D02*
X10655920Y-9981296D01*
X10655920Y-9981296D02*
X10665444Y-9933677D01*
X10665444Y-9933677D02*
X10674968Y-9905105D01*
X10674968Y-9905105D02*
X10684491Y-9886058D01*
X10684491Y-9886058D02*
X10703539Y-9857486D01*
X10703539Y-9857486D02*
X10713063Y-9847962D01*
X10827349Y-9876534D02*
X10846396Y-9876534D01*
X10846396Y-9876534D02*
X10865444Y-9886058D01*
X10865444Y-9886058D02*
X10874968Y-9895581D01*
X10874968Y-9895581D02*
X10884491Y-9914629D01*
X10884491Y-9914629D02*
X10894015Y-9952724D01*
X10894015Y-9952724D02*
X10894015Y-10000343D01*
X10894015Y-10000343D02*
X10884491Y-10038439D01*
X10884491Y-10038439D02*
X10874968Y-10057486D01*
X10874968Y-10057486D02*
X10865444Y-10067010D01*
X10865444Y-10067010D02*
X10846396Y-10076534D01*
X10846396Y-10076534D02*
X10827349Y-10076534D01*
X10827349Y-10076534D02*
X10808301Y-10067010D01*
X10808301Y-10067010D02*
X10798777Y-10057486D01*
X10798777Y-10057486D02*
X10789253Y-10038439D01*
X10789253Y-10038439D02*
X10779730Y-10000343D01*
X10779730Y-10000343D02*
X10779730Y-9952724D01*
X10779730Y-9952724D02*
X10789253Y-9914629D01*
X10789253Y-9914629D02*
X10798777Y-9895581D01*
X10798777Y-9895581D02*
X10808301Y-9886058D01*
X10808301Y-9886058D02*
X10827349Y-9876534D01*
X11132111Y-10076534D02*
X11132111Y-9876534D01*
X11217825Y-10076534D02*
X11217825Y-9971772D01*
X11217825Y-9971772D02*
X11208301Y-9952724D01*
X11208301Y-9952724D02*
X11189253Y-9943200D01*
X11189253Y-9943200D02*
X11160682Y-9943200D01*
X11160682Y-9943200D02*
X11141634Y-9952724D01*
X11141634Y-9952724D02*
X11132111Y-9962248D01*
X11341634Y-10076534D02*
X11322587Y-10067010D01*
X11322587Y-10067010D02*
X11313063Y-10057486D01*
X11313063Y-10057486D02*
X11303539Y-10038439D01*
X11303539Y-10038439D02*
X11303539Y-9981296D01*
X11303539Y-9981296D02*
X11313063Y-9962248D01*
X11313063Y-9962248D02*
X11322587Y-9952724D01*
X11322587Y-9952724D02*
X11341634Y-9943200D01*
X11341634Y-9943200D02*
X11370206Y-9943200D01*
X11370206Y-9943200D02*
X11389253Y-9952724D01*
X11389253Y-9952724D02*
X11398777Y-9962248D01*
X11398777Y-9962248D02*
X11408301Y-9981296D01*
X11408301Y-9981296D02*
X11408301Y-10038439D01*
X11408301Y-10038439D02*
X11398777Y-10057486D01*
X11398777Y-10057486D02*
X11389253Y-10067010D01*
X11389253Y-10067010D02*
X11370206Y-10076534D01*
X11370206Y-10076534D02*
X11341634Y-10076534D01*
X11522587Y-10076534D02*
X11503539Y-10067010D01*
X11503539Y-10067010D02*
X11494015Y-10047962D01*
X11494015Y-10047962D02*
X11494015Y-9876534D01*
X11674968Y-10067010D02*
X11655920Y-10076534D01*
X11655920Y-10076534D02*
X11617825Y-10076534D01*
X11617825Y-10076534D02*
X11598777Y-10067010D01*
X11598777Y-10067010D02*
X11589253Y-10047962D01*
X11589253Y-10047962D02*
X11589253Y-9971772D01*
X11589253Y-9971772D02*
X11598777Y-9952724D01*
X11598777Y-9952724D02*
X11617825Y-9943200D01*
X11617825Y-9943200D02*
X11655920Y-9943200D01*
X11655920Y-9943200D02*
X11674968Y-9952724D01*
X11674968Y-9952724D02*
X11684491Y-9971772D01*
X11684491Y-9971772D02*
X11684491Y-9990820D01*
X11684491Y-9990820D02*
X11589253Y-10009867D01*
X11760682Y-10067010D02*
X11779730Y-10076534D01*
X11779730Y-10076534D02*
X11817825Y-10076534D01*
X11817825Y-10076534D02*
X11836872Y-10067010D01*
X11836872Y-10067010D02*
X11846396Y-10047962D01*
X11846396Y-10047962D02*
X11846396Y-10038439D01*
X11846396Y-10038439D02*
X11836872Y-10019391D01*
X11836872Y-10019391D02*
X11817825Y-10009867D01*
X11817825Y-10009867D02*
X11789253Y-10009867D01*
X11789253Y-10009867D02*
X11770206Y-10000343D01*
X11770206Y-10000343D02*
X11760682Y-9981296D01*
X11760682Y-9981296D02*
X11760682Y-9971772D01*
X11760682Y-9971772D02*
X11770206Y-9952724D01*
X11770206Y-9952724D02*
X11789253Y-9943200D01*
X11789253Y-9943200D02*
X11817825Y-9943200D01*
X11817825Y-9943200D02*
X11836872Y-9952724D01*
X12084492Y-10000343D02*
X12236873Y-10000343D01*
X12160682Y-10076534D02*
X12160682Y-9924153D01*
X12570206Y-9943200D02*
X12570206Y-10076534D01*
X12522587Y-9867010D02*
X12474968Y-10009867D01*
X12474968Y-10009867D02*
X12598777Y-10009867D01*
X12817825Y-10067010D02*
X12836873Y-10076534D01*
X12836873Y-10076534D02*
X12874968Y-10076534D01*
X12874968Y-10076534D02*
X12894015Y-10067010D01*
X12894015Y-10067010D02*
X12903539Y-10047962D01*
X12903539Y-10047962D02*
X12903539Y-10038439D01*
X12903539Y-10038439D02*
X12894015Y-10019391D01*
X12894015Y-10019391D02*
X12874968Y-10009867D01*
X12874968Y-10009867D02*
X12846396Y-10009867D01*
X12846396Y-10009867D02*
X12827349Y-10000343D01*
X12827349Y-10000343D02*
X12817825Y-9981296D01*
X12817825Y-9981296D02*
X12817825Y-9971772D01*
X12817825Y-9971772D02*
X12827349Y-9952724D01*
X12827349Y-9952724D02*
X12846396Y-9943200D01*
X12846396Y-9943200D02*
X12874968Y-9943200D01*
X12874968Y-9943200D02*
X12894015Y-9952724D01*
X13017825Y-10076534D02*
X12998777Y-10067010D01*
X12998777Y-10067010D02*
X12989254Y-10047962D01*
X12989254Y-10047962D02*
X12989254Y-9876534D01*
X13122587Y-10076534D02*
X13103539Y-10067010D01*
X13103539Y-10067010D02*
X13094015Y-10057486D01*
X13094015Y-10057486D02*
X13084492Y-10038439D01*
X13084492Y-10038439D02*
X13084492Y-9981296D01*
X13084492Y-9981296D02*
X13094015Y-9962248D01*
X13094015Y-9962248D02*
X13103539Y-9952724D01*
X13103539Y-9952724D02*
X13122587Y-9943200D01*
X13122587Y-9943200D02*
X13151158Y-9943200D01*
X13151158Y-9943200D02*
X13170206Y-9952724D01*
X13170206Y-9952724D02*
X13179730Y-9962248D01*
X13179730Y-9962248D02*
X13189254Y-9981296D01*
X13189254Y-9981296D02*
X13189254Y-10038439D01*
X13189254Y-10038439D02*
X13179730Y-10057486D01*
X13179730Y-10057486D02*
X13170206Y-10067010D01*
X13170206Y-10067010D02*
X13151158Y-10076534D01*
X13151158Y-10076534D02*
X13122587Y-10076534D01*
X13246396Y-9943200D02*
X13322587Y-9943200D01*
X13274968Y-9876534D02*
X13274968Y-10047962D01*
X13274968Y-10047962D02*
X13284492Y-10067010D01*
X13284492Y-10067010D02*
X13303539Y-10076534D01*
X13303539Y-10076534D02*
X13322587Y-10076534D01*
X13379730Y-10067010D02*
X13398777Y-10076534D01*
X13398777Y-10076534D02*
X13436873Y-10076534D01*
X13436873Y-10076534D02*
X13455920Y-10067010D01*
X13455920Y-10067010D02*
X13465444Y-10047962D01*
X13465444Y-10047962D02*
X13465444Y-10038439D01*
X13465444Y-10038439D02*
X13455920Y-10019391D01*
X13455920Y-10019391D02*
X13436873Y-10009867D01*
X13436873Y-10009867D02*
X13408301Y-10009867D01*
X13408301Y-10009867D02*
X13389254Y-10000343D01*
X13389254Y-10000343D02*
X13379730Y-9981296D01*
X13379730Y-9981296D02*
X13379730Y-9971772D01*
X13379730Y-9971772D02*
X13389254Y-9952724D01*
X13389254Y-9952724D02*
X13408301Y-9943200D01*
X13408301Y-9943200D02*
X13436873Y-9943200D01*
X13436873Y-9943200D02*
X13455920Y-9952724D01*
X13532111Y-10152724D02*
X13541635Y-10143200D01*
X13541635Y-10143200D02*
X13560682Y-10114629D01*
X13560682Y-10114629D02*
X13570206Y-10095581D01*
X13570206Y-10095581D02*
X13579730Y-10067010D01*
X13579730Y-10067010D02*
X13589254Y-10019391D01*
X13589254Y-10019391D02*
X13589254Y-9981296D01*
X13589254Y-9981296D02*
X13579730Y-9933677D01*
X13579730Y-9933677D02*
X13570206Y-9905105D01*
X13570206Y-9905105D02*
X13560682Y-9886058D01*
X13560682Y-9886058D02*
X13541635Y-9857486D01*
X13541635Y-9857486D02*
X13532111Y-9847962D01*
D10*
X7088000Y-10199050D02*
X7088000Y-10299050D01*
X7038000Y-10249050D02*
X7138000Y-10249050D01*
D11*
X7503539Y-10340534D02*
X7389253Y-10340534D01*
X7446396Y-10340534D02*
X7446396Y-10140534D01*
X7446396Y-10140534D02*
X7427348Y-10169105D01*
X7427348Y-10169105D02*
X7408301Y-10188153D01*
X7408301Y-10188153D02*
X7389253Y-10197677D01*
X7589253Y-10321486D02*
X7598777Y-10331010D01*
X7598777Y-10331010D02*
X7589253Y-10340534D01*
X7589253Y-10340534D02*
X7579729Y-10331010D01*
X7579729Y-10331010D02*
X7589253Y-10321486D01*
X7589253Y-10321486D02*
X7589253Y-10340534D01*
X7722586Y-10140534D02*
X7741634Y-10140534D01*
X7741634Y-10140534D02*
X7760682Y-10150058D01*
X7760682Y-10150058D02*
X7770205Y-10159581D01*
X7770205Y-10159581D02*
X7779729Y-10178629D01*
X7779729Y-10178629D02*
X7789253Y-10216724D01*
X7789253Y-10216724D02*
X7789253Y-10264343D01*
X7789253Y-10264343D02*
X7779729Y-10302439D01*
X7779729Y-10302439D02*
X7770205Y-10321486D01*
X7770205Y-10321486D02*
X7760682Y-10331010D01*
X7760682Y-10331010D02*
X7741634Y-10340534D01*
X7741634Y-10340534D02*
X7722586Y-10340534D01*
X7722586Y-10340534D02*
X7703539Y-10331010D01*
X7703539Y-10331010D02*
X7694015Y-10321486D01*
X7694015Y-10321486D02*
X7684491Y-10302439D01*
X7684491Y-10302439D02*
X7674967Y-10264343D01*
X7674967Y-10264343D02*
X7674967Y-10216724D01*
X7674967Y-10216724D02*
X7684491Y-10178629D01*
X7684491Y-10178629D02*
X7694015Y-10159581D01*
X7694015Y-10159581D02*
X7703539Y-10150058D01*
X7703539Y-10150058D02*
X7722586Y-10140534D01*
X7913062Y-10140534D02*
X7932110Y-10140534D01*
X7932110Y-10140534D02*
X7951158Y-10150058D01*
X7951158Y-10150058D02*
X7960682Y-10159581D01*
X7960682Y-10159581D02*
X7970205Y-10178629D01*
X7970205Y-10178629D02*
X7979729Y-10216724D01*
X7979729Y-10216724D02*
X7979729Y-10264343D01*
X7979729Y-10264343D02*
X7970205Y-10302439D01*
X7970205Y-10302439D02*
X7960682Y-10321486D01*
X7960682Y-10321486D02*
X7951158Y-10331010D01*
X7951158Y-10331010D02*
X7932110Y-10340534D01*
X7932110Y-10340534D02*
X7913062Y-10340534D01*
X7913062Y-10340534D02*
X7894015Y-10331010D01*
X7894015Y-10331010D02*
X7884491Y-10321486D01*
X7884491Y-10321486D02*
X7874967Y-10302439D01*
X7874967Y-10302439D02*
X7865443Y-10264343D01*
X7865443Y-10264343D02*
X7865443Y-10216724D01*
X7865443Y-10216724D02*
X7874967Y-10178629D01*
X7874967Y-10178629D02*
X7884491Y-10159581D01*
X7884491Y-10159581D02*
X7894015Y-10150058D01*
X7894015Y-10150058D02*
X7913062Y-10140534D01*
X8103539Y-10140534D02*
X8122586Y-10140534D01*
X8122586Y-10140534D02*
X8141634Y-10150058D01*
X8141634Y-10150058D02*
X8151158Y-10159581D01*
X8151158Y-10159581D02*
X8160682Y-10178629D01*
X8160682Y-10178629D02*
X8170205Y-10216724D01*
X8170205Y-10216724D02*
X8170205Y-10264343D01*
X8170205Y-10264343D02*
X8160682Y-10302439D01*
X8160682Y-10302439D02*
X8151158Y-10321486D01*
X8151158Y-10321486D02*
X8141634Y-10331010D01*
X8141634Y-10331010D02*
X8122586Y-10340534D01*
X8122586Y-10340534D02*
X8103539Y-10340534D01*
X8103539Y-10340534D02*
X8084491Y-10331010D01*
X8084491Y-10331010D02*
X8074967Y-10321486D01*
X8074967Y-10321486D02*
X8065443Y-10302439D01*
X8065443Y-10302439D02*
X8055920Y-10264343D01*
X8055920Y-10264343D02*
X8055920Y-10216724D01*
X8055920Y-10216724D02*
X8065443Y-10178629D01*
X8065443Y-10178629D02*
X8074967Y-10159581D01*
X8074967Y-10159581D02*
X8084491Y-10150058D01*
X8084491Y-10150058D02*
X8103539Y-10140534D01*
X8255920Y-10340534D02*
X8255920Y-10207200D01*
X8255920Y-10226248D02*
X8265443Y-10216724D01*
X8265443Y-10216724D02*
X8284491Y-10207200D01*
X8284491Y-10207200D02*
X8313063Y-10207200D01*
X8313063Y-10207200D02*
X8332110Y-10216724D01*
X8332110Y-10216724D02*
X8341634Y-10235772D01*
X8341634Y-10235772D02*
X8341634Y-10340534D01*
X8341634Y-10235772D02*
X8351158Y-10216724D01*
X8351158Y-10216724D02*
X8370205Y-10207200D01*
X8370205Y-10207200D02*
X8398777Y-10207200D01*
X8398777Y-10207200D02*
X8417825Y-10216724D01*
X8417825Y-10216724D02*
X8427348Y-10235772D01*
X8427348Y-10235772D02*
X8427348Y-10340534D01*
X8522586Y-10340534D02*
X8522586Y-10207200D01*
X8522586Y-10226248D02*
X8532110Y-10216724D01*
X8532110Y-10216724D02*
X8551158Y-10207200D01*
X8551158Y-10207200D02*
X8579729Y-10207200D01*
X8579729Y-10207200D02*
X8598777Y-10216724D01*
X8598777Y-10216724D02*
X8608301Y-10235772D01*
X8608301Y-10235772D02*
X8608301Y-10340534D01*
X8608301Y-10235772D02*
X8617825Y-10216724D01*
X8617825Y-10216724D02*
X8636872Y-10207200D01*
X8636872Y-10207200D02*
X8665444Y-10207200D01*
X8665444Y-10207200D02*
X8684491Y-10216724D01*
X8684491Y-10216724D02*
X8694015Y-10235772D01*
X8694015Y-10235772D02*
X8694015Y-10340534D01*
X9084491Y-10131010D02*
X8913063Y-10388153D01*
X9341634Y-10140534D02*
X9360682Y-10140534D01*
X9360682Y-10140534D02*
X9379729Y-10150058D01*
X9379729Y-10150058D02*
X9389253Y-10159581D01*
X9389253Y-10159581D02*
X9398777Y-10178629D01*
X9398777Y-10178629D02*
X9408301Y-10216724D01*
X9408301Y-10216724D02*
X9408301Y-10264343D01*
X9408301Y-10264343D02*
X9398777Y-10302439D01*
X9398777Y-10302439D02*
X9389253Y-10321486D01*
X9389253Y-10321486D02*
X9379729Y-10331010D01*
X9379729Y-10331010D02*
X9360682Y-10340534D01*
X9360682Y-10340534D02*
X9341634Y-10340534D01*
X9341634Y-10340534D02*
X9322587Y-10331010D01*
X9322587Y-10331010D02*
X9313063Y-10321486D01*
X9313063Y-10321486D02*
X9303539Y-10302439D01*
X9303539Y-10302439D02*
X9294015Y-10264343D01*
X9294015Y-10264343D02*
X9294015Y-10216724D01*
X9294015Y-10216724D02*
X9303539Y-10178629D01*
X9303539Y-10178629D02*
X9313063Y-10159581D01*
X9313063Y-10159581D02*
X9322587Y-10150058D01*
X9322587Y-10150058D02*
X9341634Y-10140534D01*
X9494015Y-10321486D02*
X9503539Y-10331010D01*
X9503539Y-10331010D02*
X9494015Y-10340534D01*
X9494015Y-10340534D02*
X9484491Y-10331010D01*
X9484491Y-10331010D02*
X9494015Y-10321486D01*
X9494015Y-10321486D02*
X9494015Y-10340534D01*
X9627348Y-10140534D02*
X9646396Y-10140534D01*
X9646396Y-10140534D02*
X9665444Y-10150058D01*
X9665444Y-10150058D02*
X9674968Y-10159581D01*
X9674968Y-10159581D02*
X9684491Y-10178629D01*
X9684491Y-10178629D02*
X9694015Y-10216724D01*
X9694015Y-10216724D02*
X9694015Y-10264343D01*
X9694015Y-10264343D02*
X9684491Y-10302439D01*
X9684491Y-10302439D02*
X9674968Y-10321486D01*
X9674968Y-10321486D02*
X9665444Y-10331010D01*
X9665444Y-10331010D02*
X9646396Y-10340534D01*
X9646396Y-10340534D02*
X9627348Y-10340534D01*
X9627348Y-10340534D02*
X9608301Y-10331010D01*
X9608301Y-10331010D02*
X9598777Y-10321486D01*
X9598777Y-10321486D02*
X9589253Y-10302439D01*
X9589253Y-10302439D02*
X9579729Y-10264343D01*
X9579729Y-10264343D02*
X9579729Y-10216724D01*
X9579729Y-10216724D02*
X9589253Y-10178629D01*
X9589253Y-10178629D02*
X9598777Y-10159581D01*
X9598777Y-10159581D02*
X9608301Y-10150058D01*
X9608301Y-10150058D02*
X9627348Y-10140534D01*
X9760682Y-10140534D02*
X9884491Y-10140534D01*
X9884491Y-10140534D02*
X9817825Y-10216724D01*
X9817825Y-10216724D02*
X9846396Y-10216724D01*
X9846396Y-10216724D02*
X9865444Y-10226248D01*
X9865444Y-10226248D02*
X9874968Y-10235772D01*
X9874968Y-10235772D02*
X9884491Y-10254820D01*
X9884491Y-10254820D02*
X9884491Y-10302439D01*
X9884491Y-10302439D02*
X9874968Y-10321486D01*
X9874968Y-10321486D02*
X9865444Y-10331010D01*
X9865444Y-10331010D02*
X9846396Y-10340534D01*
X9846396Y-10340534D02*
X9789253Y-10340534D01*
X9789253Y-10340534D02*
X9770206Y-10331010D01*
X9770206Y-10331010D02*
X9760682Y-10321486D01*
X9979729Y-10340534D02*
X10017825Y-10340534D01*
X10017825Y-10340534D02*
X10036872Y-10331010D01*
X10036872Y-10331010D02*
X10046396Y-10321486D01*
X10046396Y-10321486D02*
X10065444Y-10292915D01*
X10065444Y-10292915D02*
X10074968Y-10254820D01*
X10074968Y-10254820D02*
X10074968Y-10178629D01*
X10074968Y-10178629D02*
X10065444Y-10159581D01*
X10065444Y-10159581D02*
X10055920Y-10150058D01*
X10055920Y-10150058D02*
X10036872Y-10140534D01*
X10036872Y-10140534D02*
X9998777Y-10140534D01*
X9998777Y-10140534D02*
X9979729Y-10150058D01*
X9979729Y-10150058D02*
X9970206Y-10159581D01*
X9970206Y-10159581D02*
X9960682Y-10178629D01*
X9960682Y-10178629D02*
X9960682Y-10226248D01*
X9960682Y-10226248D02*
X9970206Y-10245296D01*
X9970206Y-10245296D02*
X9979729Y-10254820D01*
X9979729Y-10254820D02*
X9998777Y-10264343D01*
X9998777Y-10264343D02*
X10036872Y-10264343D01*
X10036872Y-10264343D02*
X10055920Y-10254820D01*
X10055920Y-10254820D02*
X10065444Y-10245296D01*
X10065444Y-10245296D02*
X10074968Y-10226248D01*
X10246396Y-10207200D02*
X10246396Y-10340534D01*
X10198777Y-10131010D02*
X10151158Y-10273867D01*
X10151158Y-10273867D02*
X10274968Y-10273867D01*
X10341634Y-10140534D02*
X10341634Y-10178629D01*
X10417825Y-10140534D02*
X10417825Y-10178629D01*
X10713063Y-10416724D02*
X10703539Y-10407200D01*
X10703539Y-10407200D02*
X10684491Y-10378629D01*
X10684491Y-10378629D02*
X10674968Y-10359581D01*
X10674968Y-10359581D02*
X10665444Y-10331010D01*
X10665444Y-10331010D02*
X10655920Y-10283391D01*
X10655920Y-10283391D02*
X10655920Y-10245296D01*
X10655920Y-10245296D02*
X10665444Y-10197677D01*
X10665444Y-10197677D02*
X10674968Y-10169105D01*
X10674968Y-10169105D02*
X10684491Y-10150058D01*
X10684491Y-10150058D02*
X10703539Y-10121486D01*
X10703539Y-10121486D02*
X10713063Y-10111962D01*
X10874968Y-10207200D02*
X10874968Y-10340534D01*
X10827349Y-10131010D02*
X10779730Y-10273867D01*
X10779730Y-10273867D02*
X10903539Y-10273867D01*
X11084491Y-10340534D02*
X10970206Y-10340534D01*
X11027349Y-10340534D02*
X11027349Y-10140534D01*
X11027349Y-10140534D02*
X11008301Y-10169105D01*
X11008301Y-10169105D02*
X10989253Y-10188153D01*
X10989253Y-10188153D02*
X10970206Y-10197677D01*
X11322587Y-10340534D02*
X11322587Y-10140534D01*
X11408301Y-10340534D02*
X11408301Y-10235772D01*
X11408301Y-10235772D02*
X11398777Y-10216724D01*
X11398777Y-10216724D02*
X11379730Y-10207200D01*
X11379730Y-10207200D02*
X11351158Y-10207200D01*
X11351158Y-10207200D02*
X11332110Y-10216724D01*
X11332110Y-10216724D02*
X11322587Y-10226248D01*
X11532110Y-10340534D02*
X11513063Y-10331010D01*
X11513063Y-10331010D02*
X11503539Y-10321486D01*
X11503539Y-10321486D02*
X11494015Y-10302439D01*
X11494015Y-10302439D02*
X11494015Y-10245296D01*
X11494015Y-10245296D02*
X11503539Y-10226248D01*
X11503539Y-10226248D02*
X11513063Y-10216724D01*
X11513063Y-10216724D02*
X11532110Y-10207200D01*
X11532110Y-10207200D02*
X11560682Y-10207200D01*
X11560682Y-10207200D02*
X11579730Y-10216724D01*
X11579730Y-10216724D02*
X11589253Y-10226248D01*
X11589253Y-10226248D02*
X11598777Y-10245296D01*
X11598777Y-10245296D02*
X11598777Y-10302439D01*
X11598777Y-10302439D02*
X11589253Y-10321486D01*
X11589253Y-10321486D02*
X11579730Y-10331010D01*
X11579730Y-10331010D02*
X11560682Y-10340534D01*
X11560682Y-10340534D02*
X11532110Y-10340534D01*
X11713063Y-10340534D02*
X11694015Y-10331010D01*
X11694015Y-10331010D02*
X11684491Y-10311962D01*
X11684491Y-10311962D02*
X11684491Y-10140534D01*
X11865444Y-10331010D02*
X11846396Y-10340534D01*
X11846396Y-10340534D02*
X11808301Y-10340534D01*
X11808301Y-10340534D02*
X11789253Y-10331010D01*
X11789253Y-10331010D02*
X11779730Y-10311962D01*
X11779730Y-10311962D02*
X11779730Y-10235772D01*
X11779730Y-10235772D02*
X11789253Y-10216724D01*
X11789253Y-10216724D02*
X11808301Y-10207200D01*
X11808301Y-10207200D02*
X11846396Y-10207200D01*
X11846396Y-10207200D02*
X11865444Y-10216724D01*
X11865444Y-10216724D02*
X11874968Y-10235772D01*
X11874968Y-10235772D02*
X11874968Y-10254820D01*
X11874968Y-10254820D02*
X11779730Y-10273867D01*
X11951158Y-10331010D02*
X11970206Y-10340534D01*
X11970206Y-10340534D02*
X12008301Y-10340534D01*
X12008301Y-10340534D02*
X12027349Y-10331010D01*
X12027349Y-10331010D02*
X12036872Y-10311962D01*
X12036872Y-10311962D02*
X12036872Y-10302439D01*
X12036872Y-10302439D02*
X12027349Y-10283391D01*
X12027349Y-10283391D02*
X12008301Y-10273867D01*
X12008301Y-10273867D02*
X11979730Y-10273867D01*
X11979730Y-10273867D02*
X11960682Y-10264343D01*
X11960682Y-10264343D02*
X11951158Y-10245296D01*
X11951158Y-10245296D02*
X11951158Y-10235772D01*
X11951158Y-10235772D02*
X11960682Y-10216724D01*
X11960682Y-10216724D02*
X11979730Y-10207200D01*
X11979730Y-10207200D02*
X12008301Y-10207200D01*
X12008301Y-10207200D02*
X12027349Y-10216724D01*
X12274968Y-10264343D02*
X12427349Y-10264343D01*
X12351158Y-10340534D02*
X12351158Y-10188153D01*
X12655920Y-10140534D02*
X12779730Y-10140534D01*
X12779730Y-10140534D02*
X12713063Y-10216724D01*
X12713063Y-10216724D02*
X12741634Y-10216724D01*
X12741634Y-10216724D02*
X12760682Y-10226248D01*
X12760682Y-10226248D02*
X12770206Y-10235772D01*
X12770206Y-10235772D02*
X12779730Y-10254820D01*
X12779730Y-10254820D02*
X12779730Y-10302439D01*
X12779730Y-10302439D02*
X12770206Y-10321486D01*
X12770206Y-10321486D02*
X12760682Y-10331010D01*
X12760682Y-10331010D02*
X12741634Y-10340534D01*
X12741634Y-10340534D02*
X12684492Y-10340534D01*
X12684492Y-10340534D02*
X12665444Y-10331010D01*
X12665444Y-10331010D02*
X12655920Y-10321486D01*
X13008301Y-10331010D02*
X13027349Y-10340534D01*
X13027349Y-10340534D02*
X13065444Y-10340534D01*
X13065444Y-10340534D02*
X13084492Y-10331010D01*
X13084492Y-10331010D02*
X13094015Y-10311962D01*
X13094015Y-10311962D02*
X13094015Y-10302439D01*
X13094015Y-10302439D02*
X13084492Y-10283391D01*
X13084492Y-10283391D02*
X13065444Y-10273867D01*
X13065444Y-10273867D02*
X13036873Y-10273867D01*
X13036873Y-10273867D02*
X13017825Y-10264343D01*
X13017825Y-10264343D02*
X13008301Y-10245296D01*
X13008301Y-10245296D02*
X13008301Y-10235772D01*
X13008301Y-10235772D02*
X13017825Y-10216724D01*
X13017825Y-10216724D02*
X13036873Y-10207200D01*
X13036873Y-10207200D02*
X13065444Y-10207200D01*
X13065444Y-10207200D02*
X13084492Y-10216724D01*
X13208301Y-10340534D02*
X13189254Y-10331010D01*
X13189254Y-10331010D02*
X13179730Y-10311962D01*
X13179730Y-10311962D02*
X13179730Y-10140534D01*
X13313063Y-10340534D02*
X13294015Y-10331010D01*
X13294015Y-10331010D02*
X13284492Y-10321486D01*
X13284492Y-10321486D02*
X13274968Y-10302439D01*
X13274968Y-10302439D02*
X13274968Y-10245296D01*
X13274968Y-10245296D02*
X13284492Y-10226248D01*
X13284492Y-10226248D02*
X13294015Y-10216724D01*
X13294015Y-10216724D02*
X13313063Y-10207200D01*
X13313063Y-10207200D02*
X13341635Y-10207200D01*
X13341635Y-10207200D02*
X13360682Y-10216724D01*
X13360682Y-10216724D02*
X13370206Y-10226248D01*
X13370206Y-10226248D02*
X13379730Y-10245296D01*
X13379730Y-10245296D02*
X13379730Y-10302439D01*
X13379730Y-10302439D02*
X13370206Y-10321486D01*
X13370206Y-10321486D02*
X13360682Y-10331010D01*
X13360682Y-10331010D02*
X13341635Y-10340534D01*
X13341635Y-10340534D02*
X13313063Y-10340534D01*
X13436873Y-10207200D02*
X13513063Y-10207200D01*
X13465444Y-10140534D02*
X13465444Y-10311962D01*
X13465444Y-10311962D02*
X13474968Y-10331010D01*
X13474968Y-10331010D02*
X13494015Y-10340534D01*
X13494015Y-10340534D02*
X13513063Y-10340534D01*
X13570206Y-10331010D02*
X13589254Y-10340534D01*
X13589254Y-10340534D02*
X13627349Y-10340534D01*
X13627349Y-10340534D02*
X13646396Y-10331010D01*
X13646396Y-10331010D02*
X13655920Y-10311962D01*
X13655920Y-10311962D02*
X13655920Y-10302439D01*
X13655920Y-10302439D02*
X13646396Y-10283391D01*
X13646396Y-10283391D02*
X13627349Y-10273867D01*
X13627349Y-10273867D02*
X13598777Y-10273867D01*
X13598777Y-10273867D02*
X13579730Y-10264343D01*
X13579730Y-10264343D02*
X13570206Y-10245296D01*
X13570206Y-10245296D02*
X13570206Y-10235772D01*
X13570206Y-10235772D02*
X13579730Y-10216724D01*
X13579730Y-10216724D02*
X13598777Y-10207200D01*
X13598777Y-10207200D02*
X13627349Y-10207200D01*
X13627349Y-10207200D02*
X13646396Y-10216724D01*
X13722587Y-10416724D02*
X13732111Y-10407200D01*
X13732111Y-10407200D02*
X13751158Y-10378629D01*
X13751158Y-10378629D02*
X13760682Y-10359581D01*
X13760682Y-10359581D02*
X13770206Y-10331010D01*
X13770206Y-10331010D02*
X13779730Y-10283391D01*
X13779730Y-10283391D02*
X13779730Y-10245296D01*
X13779730Y-10245296D02*
X13770206Y-10197677D01*
X13770206Y-10197677D02*
X13760682Y-10169105D01*
X13760682Y-10169105D02*
X13751158Y-10150058D01*
X13751158Y-10150058D02*
X13732111Y-10121486D01*
X13732111Y-10121486D02*
X13722587Y-10111962D01*
M02*
