%TF.GenerationSoftware,KiCad,Pcbnew,7.0.10*%
%TF.CreationDate,2024-01-30T02:50:09+05:30*%
%TF.ProjectId,rp2040-basic-m1,72703230-3430-42d6-9261-7369632d6d31,rev?*%
%TF.SameCoordinates,Original*%
%TF.FileFunction,Other,User*%
%FSLAX46Y46*%
G04 Gerber Fmt 4.6, Leading zero omitted, Abs format (unit mm)*
G04 Created by KiCad (PCBNEW 7.0.10) date 2024-01-30 02:50:09*
%MOMM*%
%LPD*%
G01*
G04 APERTURE LIST*
%ADD10C,0.050000*%
G04 APERTURE END LIST*
D10*
%TO.C,Q6*%
X116242500Y-67300000D02*
X120082500Y-67300000D01*
X116242500Y-70700000D02*
X116242500Y-67300000D01*
X120082500Y-67300000D02*
X120082500Y-70700000D01*
X120082500Y-70700000D02*
X116242500Y-70700000D01*
%TO.C,R21*%
X121605000Y-74125000D02*
X120145000Y-74125000D01*
X120145000Y-74125000D02*
X120145000Y-77425000D01*
X121605000Y-77425000D02*
X121605000Y-74125000D01*
X120145000Y-77425000D02*
X121605000Y-77425000D01*
%TO.C,Q5*%
X116242500Y-70700000D02*
X120082500Y-70700000D01*
X116242500Y-74100000D02*
X116242500Y-70700000D01*
X120082500Y-70700000D02*
X120082500Y-74100000D01*
X120082500Y-74100000D02*
X116242500Y-74100000D01*
%TO.C,R12*%
X116230000Y-74350000D02*
X114770000Y-74350000D01*
X114770000Y-74350000D02*
X114770000Y-77650000D01*
X116230000Y-77650000D02*
X116230000Y-74350000D01*
X114770000Y-77650000D02*
X116230000Y-77650000D01*
%TO.C,R14*%
X116180000Y-67350000D02*
X114720000Y-67350000D01*
X114720000Y-67350000D02*
X114720000Y-70650000D01*
X116180000Y-70650000D02*
X116180000Y-67350000D01*
X114720000Y-70650000D02*
X116180000Y-70650000D01*
%TO.C,R23*%
X121580000Y-67450000D02*
X120120000Y-67450000D01*
X120120000Y-67450000D02*
X120120000Y-70750000D01*
X121580000Y-70750000D02*
X121580000Y-67450000D01*
X120120000Y-70750000D02*
X121580000Y-70750000D01*
%TO.C,R22*%
X121580000Y-70800000D02*
X120120000Y-70800000D01*
X120120000Y-70800000D02*
X120120000Y-74100000D01*
X121580000Y-74100000D02*
X121580000Y-70800000D01*
X120120000Y-74100000D02*
X121580000Y-74100000D01*
%TO.C,Q3*%
X116242500Y-77500000D02*
X120082500Y-77500000D01*
X116242500Y-80900000D02*
X116242500Y-77500000D01*
X120082500Y-77500000D02*
X120082500Y-80900000D01*
X120082500Y-80900000D02*
X116242500Y-80900000D01*
%TO.C,Q4*%
X116242500Y-74100000D02*
X120082500Y-74100000D01*
X116242500Y-77500000D02*
X116242500Y-74100000D01*
X120082500Y-74100000D02*
X120082500Y-77500000D01*
X120082500Y-77500000D02*
X116242500Y-77500000D01*
%TO.C,R13*%
X116230000Y-71012500D02*
X114770000Y-71012500D01*
X114770000Y-71012500D02*
X114770000Y-74312500D01*
X116230000Y-74312500D02*
X116230000Y-71012500D01*
X114770000Y-74312500D02*
X116230000Y-74312500D01*
%TO.C,R11*%
X116230000Y-77650000D02*
X114770000Y-77650000D01*
X114770000Y-77650000D02*
X114770000Y-80950000D01*
X116230000Y-80950000D02*
X116230000Y-77650000D01*
X114770000Y-80950000D02*
X116230000Y-80950000D01*
%TO.C,R20*%
X121605000Y-77450000D02*
X120145000Y-77450000D01*
X120145000Y-77450000D02*
X120145000Y-80750000D01*
X121605000Y-80750000D02*
X121605000Y-77450000D01*
X120145000Y-80750000D02*
X121605000Y-80750000D01*
%TD*%
M02*
