%TF.GenerationSoftware,KiCad,Pcbnew,7.0.10*%
%TF.CreationDate,2024-01-30T02:50:09+05:30*%
%TF.ProjectId,rp2040-basic-m1,72703230-3430-42d6-9261-7369632d6d31,rev?*%
%TF.SameCoordinates,Original*%
%TF.FileFunction,Other,User*%
%FSLAX46Y46*%
G04 Gerber Fmt 4.6, Leading zero omitted, Abs format (unit mm)*
G04 Created by KiCad (PCBNEW 7.0.10) date 2024-01-30 02:50:09*
%MOMM*%
%LPD*%
G01*
G04 APERTURE LIST*
%ADD10C,0.050000*%
G04 APERTURE END LIST*
D10*
%TO.C,SW2*%
X84700000Y-22810500D02*
X93200000Y-22810500D01*
X84700000Y-28810500D02*
X84700000Y-22810500D01*
X93200000Y-22810500D02*
X93200000Y-28810500D01*
X93200000Y-28810500D02*
X84700000Y-28810500D01*
%TO.C,C6*%
X86480000Y-48370000D02*
X83180000Y-48370000D01*
X86480000Y-46910000D02*
X86480000Y-48370000D01*
X83180000Y-48370000D02*
X83180000Y-46910000D01*
X83180000Y-46910000D02*
X86480000Y-46910000D01*
%TO.C,U2*%
X113400000Y-31000000D02*
X113400000Y-38200000D01*
X113400000Y-38200000D02*
X122200000Y-38200000D01*
X122200000Y-31000000D02*
X113400000Y-31000000D01*
X122200000Y-38200000D02*
X122200000Y-31000000D01*
%TO.C,J7*%
X106050000Y-69880500D02*
X109600000Y-69880500D01*
X106050000Y-86130500D02*
X106050000Y-69880500D01*
X109600000Y-69880500D02*
X109600000Y-86130500D01*
X109600000Y-86130500D02*
X106050000Y-86130500D01*
%TO.C,REF\u002A\u002A*%
X98870000Y-24760500D02*
G75*
G03*
X93870000Y-24760500I-2500000J0D01*
G01*
X93870000Y-24760500D02*
G75*
G03*
X98870000Y-24760500I2500000J0D01*
G01*
%TO.C,J5*%
X76000000Y-87000000D02*
X72450000Y-87000000D01*
X76000000Y-70750000D02*
X76000000Y-87000000D01*
X72450000Y-87000000D02*
X72450000Y-70750000D01*
X72450000Y-70750000D02*
X76000000Y-70750000D01*
%TO.C,J6*%
X72600000Y-47890500D02*
X76150000Y-47890500D01*
X72600000Y-69240500D02*
X72600000Y-47890500D01*
X76150000Y-47890500D02*
X76150000Y-69240500D01*
X76150000Y-69240500D02*
X72600000Y-69240500D01*
%TO.C,R8*%
X124650000Y-34480500D02*
X124650000Y-37840500D01*
X122750000Y-34480500D02*
X124650000Y-34480500D01*
X124650000Y-37840500D02*
X122750000Y-37840500D01*
X122750000Y-37840500D02*
X122750000Y-34480500D01*
%TO.C,R7*%
X71875000Y-40560500D02*
X71875000Y-36860500D01*
X73775000Y-40560500D02*
X71875000Y-40560500D01*
X71875000Y-36860500D02*
X73775000Y-36860500D01*
X73775000Y-36860500D02*
X73775000Y-40560500D01*
%TO.C,C5*%
X95000538Y-40522914D02*
X92667086Y-38189462D01*
X96032914Y-39490538D02*
X95000538Y-40522914D01*
X92667086Y-38189462D02*
X93699462Y-37157086D01*
X93699462Y-37157086D02*
X96032914Y-39490538D01*
%TO.C,R16*%
X90250000Y-59552500D02*
X90250000Y-56252500D01*
X91710000Y-59552500D02*
X90250000Y-59552500D01*
X90250000Y-56252500D02*
X91710000Y-56252500D01*
X91710000Y-56252500D02*
X91710000Y-59552500D01*
%TO.C,J3*%
X124520000Y-65420500D02*
X120970000Y-65420500D01*
X124520000Y-39020500D02*
X124520000Y-65420500D01*
X120970000Y-65420500D02*
X120970000Y-39020500D01*
X120970000Y-39020500D02*
X124520000Y-39020500D01*
%TO.C,C7*%
X91272000Y-43204500D02*
X87972000Y-43204500D01*
X91272000Y-41744500D02*
X91272000Y-43204500D01*
X87972000Y-43204500D02*
X87972000Y-41744500D01*
X87972000Y-41744500D02*
X91272000Y-41744500D01*
%TO.C,C1*%
X93027500Y-59330000D02*
X96327500Y-59330000D01*
X93027500Y-60790000D02*
X93027500Y-59330000D01*
X96327500Y-59330000D02*
X96327500Y-60790000D01*
X96327500Y-60790000D02*
X93027500Y-60790000D01*
%TO.C,D3*%
X102498000Y-31489000D02*
X99098000Y-31489000D01*
X99098000Y-31489000D02*
X99098000Y-35329000D01*
X102498000Y-35329000D02*
X102498000Y-31489000D01*
X99098000Y-35329000D02*
X102498000Y-35329000D01*
%TO.C,Y1*%
X88130000Y-61400000D02*
X88130000Y-64800000D01*
X88130000Y-64800000D02*
X92330000Y-64800000D01*
X92330000Y-61400000D02*
X88130000Y-61400000D01*
X92330000Y-64800000D02*
X92330000Y-61400000D01*
%TO.C,F1*%
X84862500Y-29820000D02*
X89762500Y-29820000D01*
X84862500Y-32060000D02*
X84862500Y-29820000D01*
X89762500Y-29820000D02*
X89762500Y-32060000D01*
X89762500Y-32060000D02*
X84862500Y-32060000D01*
%TO.C,C15*%
X87477500Y-34190000D02*
X90777500Y-34190000D01*
X87477500Y-35650000D02*
X87477500Y-34190000D01*
X90777500Y-34190000D02*
X90777500Y-35650000D01*
X90777500Y-35650000D02*
X87477500Y-35650000D01*
%TO.C,C3*%
X92634300Y-36540000D02*
X92634300Y-33240000D01*
X94094300Y-36540000D02*
X92634300Y-36540000D01*
X92634300Y-33240000D02*
X94094300Y-33240000D01*
X94094300Y-33240000D02*
X94094300Y-36540000D01*
%TO.C,C9*%
X104455462Y-48455586D02*
X106788914Y-50789038D01*
X103423086Y-49487962D02*
X104455462Y-48455586D01*
X106788914Y-50789038D02*
X105756538Y-51821414D01*
X105756538Y-51821414D02*
X103423086Y-49487962D01*
%TO.C,U4*%
X113350000Y-23700000D02*
X113350000Y-30900000D01*
X113350000Y-30900000D02*
X122150000Y-30900000D01*
X122150000Y-23700000D02*
X113350000Y-23700000D01*
X122150000Y-30900000D02*
X122150000Y-23700000D01*
%TO.C,R4*%
X99530000Y-38032500D02*
X99530000Y-41332500D01*
X98070000Y-38032500D02*
X99530000Y-38032500D01*
X99530000Y-41332500D02*
X98070000Y-41332500D01*
X98070000Y-41332500D02*
X98070000Y-38032500D01*
%TO.C,JP2*%
X91300000Y-81450000D02*
X93800000Y-81450000D01*
X91300000Y-81450000D02*
X91300000Y-78150000D01*
X93800000Y-78150000D02*
X93800000Y-81450000D01*
X93800000Y-78150000D02*
X91300000Y-78150000D01*
%TO.C,J2*%
X87500000Y-84530000D02*
X94800000Y-84530000D01*
X87500000Y-90580000D02*
X87500000Y-84530000D01*
X94800000Y-84530000D02*
X94800000Y-90580000D01*
X94800000Y-90580000D02*
X87500000Y-90580000D01*
%TO.C,C14*%
X109750000Y-37682500D02*
X109750000Y-34382500D01*
X111210000Y-37682500D02*
X109750000Y-37682500D01*
X109750000Y-34382500D02*
X111210000Y-34382500D01*
X111210000Y-34382500D02*
X111210000Y-37682500D01*
%TO.C,D5*%
X122800000Y-30010500D02*
X122800000Y-26310500D01*
X124700000Y-30010500D02*
X122800000Y-30010500D01*
X122800000Y-26310500D02*
X124700000Y-26310500D01*
X124700000Y-26310500D02*
X124700000Y-30010500D01*
%TO.C,C12*%
X99790000Y-41440000D02*
X99790000Y-38140000D01*
X101250000Y-41440000D02*
X99790000Y-41440000D01*
X99790000Y-38140000D02*
X101250000Y-38140000D01*
X101250000Y-38140000D02*
X101250000Y-41440000D01*
%TO.C,R2*%
X106362914Y-28419462D02*
X104029462Y-30752914D01*
X105330538Y-27387086D02*
X106362914Y-28419462D01*
X104029462Y-30752914D02*
X102997086Y-29720538D01*
X102997086Y-29720538D02*
X105330538Y-27387086D01*
%TO.C,U1*%
X92106000Y-42418500D02*
X92106000Y-50658500D01*
X92106000Y-50658500D02*
X100346000Y-50658500D01*
X100346000Y-42418500D02*
X92106000Y-42418500D01*
X100346000Y-50658500D02*
X100346000Y-42418500D01*
%TO.C,R6*%
X73900000Y-32885500D02*
X73900000Y-36585500D01*
X72000000Y-32885500D02*
X73900000Y-32885500D01*
X73900000Y-36585500D02*
X72000000Y-36585500D01*
X72000000Y-36585500D02*
X72000000Y-32885500D01*
%TO.C,JP1*%
X89140000Y-81330000D02*
X91640000Y-81330000D01*
X89140000Y-81330000D02*
X89140000Y-78030000D01*
X91640000Y-78030000D02*
X91640000Y-81330000D01*
X91640000Y-78030000D02*
X89140000Y-78030000D01*
%TO.C,J1*%
X114795000Y-24335500D02*
X104155000Y-24335500D01*
X114795000Y-15305500D02*
X114795000Y-24335500D01*
X104155000Y-24335500D02*
X104155000Y-15305500D01*
X104155000Y-15305500D02*
X114795000Y-15305500D01*
%TO.C,C11*%
X96520000Y-53193000D02*
X96520000Y-56493000D01*
X95060000Y-53193000D02*
X96520000Y-53193000D01*
X96520000Y-56493000D02*
X95060000Y-56493000D01*
X95060000Y-56493000D02*
X95060000Y-53193000D01*
%TO.C,R5*%
X98020000Y-38002500D02*
X98020000Y-41302500D01*
X96560000Y-38002500D02*
X98020000Y-38002500D01*
X98020000Y-41302500D02*
X96560000Y-41302500D01*
X96560000Y-41302500D02*
X96560000Y-38002500D01*
%TO.C,C10*%
X102500000Y-40230500D02*
X105800000Y-40230500D01*
X102500000Y-41690500D02*
X102500000Y-40230500D01*
X105800000Y-40230500D02*
X105800000Y-41690500D01*
X105800000Y-41690500D02*
X102500000Y-41690500D01*
%TO.C,D4*%
X124700000Y-30460500D02*
X124700000Y-34160500D01*
X122800000Y-30460500D02*
X124700000Y-30460500D01*
X124700000Y-34160500D02*
X122800000Y-34160500D01*
X122800000Y-34160500D02*
X122800000Y-30460500D01*
%TO.C,U3*%
X77606000Y-34026500D02*
X77606000Y-39746500D01*
X77606000Y-39746500D02*
X86906000Y-39746500D01*
X86906000Y-34026500D02*
X77606000Y-34026500D01*
X86906000Y-39746500D02*
X86906000Y-34026500D01*
%TO.C,SW1*%
X87130000Y-71930000D02*
X95630000Y-71930000D01*
X87130000Y-77930000D02*
X87130000Y-71930000D01*
X95630000Y-71930000D02*
X95630000Y-77930000D01*
X95630000Y-77930000D02*
X87130000Y-77930000D01*
%TO.C,R1*%
X124750000Y-22580500D02*
X124750000Y-25940500D01*
X122850000Y-22580500D02*
X124750000Y-22580500D01*
X124750000Y-25940500D02*
X122850000Y-25940500D01*
X122850000Y-25940500D02*
X122850000Y-22580500D01*
%TO.C,J4*%
X124575000Y-87280000D02*
X121025000Y-87280000D01*
X124575000Y-65930000D02*
X124575000Y-87280000D01*
X121025000Y-87280000D02*
X121025000Y-65930000D01*
X121025000Y-65930000D02*
X124575000Y-65930000D01*
%TO.C,C4*%
X94158300Y-36540000D02*
X94158300Y-33240000D01*
X95618300Y-36540000D02*
X94158300Y-36540000D01*
X94158300Y-33240000D02*
X95618300Y-33240000D01*
X95618300Y-33240000D02*
X95618300Y-36540000D01*
%TO.C,R33*%
X98100000Y-56412500D02*
X98100000Y-53112500D01*
X99560000Y-56412500D02*
X98100000Y-56412500D01*
X98100000Y-53112500D02*
X99560000Y-53112500D01*
X99560000Y-53112500D02*
X99560000Y-56412500D01*
%TO.C,J9*%
X74448000Y-16992500D02*
X83948000Y-16992500D01*
X74448000Y-25992500D02*
X74448000Y-16992500D01*
X72448000Y-25992500D02*
X74448000Y-25992500D01*
X74448000Y-29992500D02*
X72448000Y-29992500D01*
X72448000Y-29992500D02*
X72448000Y-25992500D01*
X83948000Y-31992500D02*
X83948000Y-16992500D01*
X83698000Y-31992500D02*
X83948000Y-31992500D01*
X83698000Y-31992500D02*
X81198000Y-31992500D01*
X81198000Y-31992500D02*
X81198000Y-32992500D01*
X77198000Y-31992500D02*
X74448000Y-31992500D01*
X74448000Y-31992500D02*
X74448000Y-29992500D01*
X81198000Y-32992500D02*
X77198000Y-32992500D01*
X77198000Y-32992500D02*
X77198000Y-31992500D01*
%TO.C,C2*%
X88002500Y-59130000D02*
X84702500Y-59130000D01*
X88002500Y-57670000D02*
X88002500Y-59130000D01*
X84702500Y-59130000D02*
X84702500Y-57670000D01*
X84702500Y-57670000D02*
X88002500Y-57670000D01*
%TO.C,J8*%
X96020000Y-90000000D02*
X96020000Y-86450000D01*
X104670000Y-90000000D02*
X96020000Y-90000000D01*
X96020000Y-86450000D02*
X104670000Y-86450000D01*
X104670000Y-86450000D02*
X104670000Y-90000000D01*
%TO.C,C13*%
X112272500Y-33760000D02*
X108972500Y-33760000D01*
X112272500Y-32300000D02*
X112272500Y-33760000D01*
X108972500Y-33760000D02*
X108972500Y-32300000D01*
X108972500Y-32300000D02*
X112272500Y-32300000D01*
%TO.C,R3*%
X102922914Y-25829462D02*
X100589462Y-28162914D01*
X101890538Y-24797086D02*
X102922914Y-25829462D01*
X100589462Y-28162914D02*
X99557086Y-27130538D01*
X99557086Y-27130538D02*
X101890538Y-24797086D01*
%TO.C,REF\u002A\u002A*%
X110130000Y-88050500D02*
G75*
G03*
X105130000Y-88050500I-2500000J0D01*
G01*
X105130000Y-88050500D02*
G75*
G03*
X110130000Y-88050500I2500000J0D01*
G01*
%TO.C,C8*%
X116800000Y-38480500D02*
X120100000Y-38480500D01*
X116800000Y-39940500D02*
X116800000Y-38480500D01*
X120100000Y-38480500D02*
X120100000Y-39940500D01*
X120100000Y-39940500D02*
X116800000Y-39940500D01*
%TO.C,REF\u002A\u002A*%
X82300000Y-87950000D02*
G75*
G03*
X77300000Y-87950000I-2500000J0D01*
G01*
X77300000Y-87950000D02*
G75*
G03*
X82300000Y-87950000I2500000J0D01*
G01*
%TO.C,R15*%
X91730000Y-84400000D02*
X91730000Y-81100000D01*
X93190000Y-84400000D02*
X91730000Y-84400000D01*
X91730000Y-81100000D02*
X93190000Y-81100000D01*
X93190000Y-81100000D02*
X93190000Y-84400000D01*
%TO.C,R17*%
X90230000Y-84300000D02*
X90230000Y-81000000D01*
X91690000Y-84300000D02*
X90230000Y-84300000D01*
X90230000Y-81000000D02*
X91690000Y-81000000D01*
X91690000Y-81000000D02*
X91690000Y-84300000D01*
%TO.C,D1*%
X110300000Y-31850000D02*
X113300000Y-31850000D01*
X110300000Y-31850000D02*
X110300000Y-25550000D01*
X110300000Y-25550000D02*
X113300000Y-25550000D01*
X113300000Y-25550000D02*
X113300000Y-31850000D01*
%TD*%
M02*
