%TF.GenerationSoftware,KiCad,Pcbnew,7.0.10*%
%TF.CreationDate,2024-01-30T02:50:09+05:30*%
%TF.ProjectId,rp2040-basic-m1,72703230-3430-42d6-9261-7369632d6d31,rev?*%
%TF.SameCoordinates,Original*%
%TF.FileFunction,Soldermask,Bot*%
%TF.FilePolarity,Negative*%
%FSLAX46Y46*%
G04 Gerber Fmt 4.6, Leading zero omitted, Abs format (unit mm)*
G04 Created by KiCad (PCBNEW 7.0.10) date 2024-01-30 02:50:09*
%MOMM*%
%LPD*%
G01*
G04 APERTURE LIST*
G04 Aperture macros list*
%AMRoundRect*
0 Rectangle with rounded corners*
0 $1 Rounding radius*
0 $2 $3 $4 $5 $6 $7 $8 $9 X,Y pos of 4 corners*
0 Add a 4 corners polygon primitive as box body*
4,1,4,$2,$3,$4,$5,$6,$7,$8,$9,$2,$3,0*
0 Add four circle primitives for the rounded corners*
1,1,$1+$1,$2,$3*
1,1,$1+$1,$4,$5*
1,1,$1+$1,$6,$7*
1,1,$1+$1,$8,$9*
0 Add four rect primitives between the rounded corners*
20,1,$1+$1,$2,$3,$4,$5,0*
20,1,$1+$1,$4,$5,$6,$7,0*
20,1,$1+$1,$6,$7,$8,$9,0*
20,1,$1+$1,$8,$9,$2,$3,0*%
G04 Aperture macros list end*
%ADD10R,1.700000X1.700000*%
%ADD11O,1.700000X1.700000*%
%ADD12C,2.700000*%
%ADD13C,0.650000*%
%ADD14O,1.000000X2.100000*%
%ADD15O,1.000000X1.800000*%
%ADD16R,3.500000X3.500000*%
%ADD17RoundRect,0.750000X-1.000000X0.750000X-1.000000X-0.750000X1.000000X-0.750000X1.000000X0.750000X0*%
%ADD18RoundRect,0.875000X-0.875000X0.875000X-0.875000X-0.875000X0.875000X-0.875000X0.875000X0.875000X0*%
%ADD19RoundRect,0.150000X-0.587500X-0.150000X0.587500X-0.150000X0.587500X0.150000X-0.587500X0.150000X0*%
%ADD20RoundRect,0.237500X-0.237500X0.250000X-0.237500X-0.250000X0.237500X-0.250000X0.237500X0.250000X0*%
G04 APERTURE END LIST*
D10*
%TO.C,J7*%
X107850000Y-71680500D03*
D11*
X107850000Y-74220500D03*
X107850000Y-76760500D03*
X107850000Y-79300500D03*
X107850000Y-81840500D03*
X107850000Y-84380500D03*
%TD*%
D12*
%TO.C,REF\u002A\u002A*%
X96370000Y-24760500D03*
%TD*%
D10*
%TO.C,J5*%
X74200000Y-85200000D03*
D11*
X74200000Y-82660000D03*
X74200000Y-80120000D03*
X74200000Y-77580000D03*
X74200000Y-75040000D03*
X74200000Y-72500000D03*
%TD*%
D10*
%TO.C,J6*%
X74400000Y-49690500D03*
D11*
X74400000Y-52230500D03*
X74400000Y-54770500D03*
X74400000Y-57310500D03*
X74400000Y-59850500D03*
X74400000Y-62390500D03*
X74400000Y-64930500D03*
X74400000Y-67470500D03*
%TD*%
D10*
%TO.C,J3*%
X122720000Y-63620500D03*
D11*
X122720000Y-61080500D03*
X122720000Y-58540500D03*
X122720000Y-56000500D03*
X122720000Y-53460500D03*
X122720000Y-50920500D03*
X122720000Y-48380500D03*
X122720000Y-45840500D03*
X122720000Y-43300500D03*
X122720000Y-40760500D03*
%TD*%
D13*
%TO.C,J1*%
X112365000Y-22090500D03*
X106585000Y-22090500D03*
D14*
X113795000Y-22610500D03*
D15*
X113795000Y-18410500D03*
D14*
X105155000Y-22610500D03*
D15*
X105155000Y-18410500D03*
%TD*%
D10*
%TO.C,J4*%
X122775000Y-85480000D03*
D11*
X122775000Y-82940000D03*
X122775000Y-80400000D03*
X122775000Y-77860000D03*
X122775000Y-75320000D03*
X122775000Y-72780000D03*
X122775000Y-70240000D03*
X122775000Y-67700000D03*
%TD*%
D16*
%TO.C,J9*%
X79198000Y-30992500D03*
D17*
X79198000Y-24992500D03*
D18*
X74498000Y-27992500D03*
%TD*%
D10*
%TO.C,J8*%
X97820000Y-88200000D03*
D11*
X100360000Y-88200000D03*
X102900000Y-88200000D03*
%TD*%
D12*
%TO.C,REF\u002A\u002A*%
X107630000Y-88050500D03*
%TD*%
%TO.C,REF\u002A\u002A*%
X79800000Y-87950000D03*
%TD*%
D19*
%TO.C,Q6*%
X117225000Y-69950000D03*
X117225000Y-68050000D03*
X119100000Y-69000000D03*
%TD*%
D20*
%TO.C,R21*%
X120875000Y-74862500D03*
X120875000Y-76687500D03*
%TD*%
D19*
%TO.C,Q5*%
X117225000Y-73350000D03*
X117225000Y-71450000D03*
X119100000Y-72400000D03*
%TD*%
D20*
%TO.C,R12*%
X115500000Y-75087500D03*
X115500000Y-76912500D03*
%TD*%
%TO.C,R14*%
X115450000Y-68087500D03*
X115450000Y-69912500D03*
%TD*%
%TO.C,R23*%
X120850000Y-68187500D03*
X120850000Y-70012500D03*
%TD*%
%TO.C,R22*%
X120850000Y-71537500D03*
X120850000Y-73362500D03*
%TD*%
D19*
%TO.C,Q3*%
X117225000Y-80150000D03*
X117225000Y-78250000D03*
X119100000Y-79200000D03*
%TD*%
%TO.C,Q4*%
X117225000Y-76750000D03*
X117225000Y-74850000D03*
X119100000Y-75800000D03*
%TD*%
D20*
%TO.C,R13*%
X115500000Y-71750000D03*
X115500000Y-73575000D03*
%TD*%
%TO.C,R11*%
X115500000Y-78387500D03*
X115500000Y-80212500D03*
%TD*%
%TO.C,R20*%
X120875000Y-78187500D03*
X120875000Y-80012500D03*
%TD*%
M02*
