M48
; DRILL file {KiCad 7.0.10} date Thu Jan 11 23:09:00 2024
; FORMAT={-:-/ absolute / inch / decimal}
; #@! TF.CreationDate,2024-01-11T23:09:00+05:30
; #@! TF.GenerationSoftware,Kicad,Pcbnew,7.0.10
; #@! TF.FileFunction,Plated,1,2,PTH
FMAT,2
INCH
; #@! TA.AperFunction,Plated,PTH,ViaDrill
T1C0.0157
; #@! TA.AperFunction,Plated,PTH,ComponentDrill
T2C0.0236
; #@! TA.AperFunction,Plated,PTH,ComponentDrill
T3C0.0394
; #@! TA.AperFunction,Plated,PTH,ComponentDrill
T4C0.0433
%
G90
G05
T1
X8.973Y-2.2527
X9.0304Y-2.3783
X9.0897Y-2.5219
X9.1035Y-3.4028
X9.1489Y-2.3479
X9.3146Y-2.5951
X9.4154Y-2.7069
X9.4222Y-1.9114
X9.4239Y-2.6685
X9.4364Y-2.6248
X9.4404Y-2.5183
X9.4604Y-2.5935
X9.461Y-2.6555
X9.4906Y-2.9329
X9.4961Y-3.1446
X9.4974Y-2.5801
X9.5213Y-2.7618
X9.5236Y-2.3233
X9.5356Y-2.7985
X9.5367Y-2.5795
X9.5622Y-2.7294
X9.5665Y-2.8732
X9.5669Y-2.8248
X9.5744Y-2.5677
X9.5814Y-3.0005
X9.6051Y-2.8866
X9.6079Y-2.2209
X9.6277Y-2.1797
X9.6303Y-3.2786
X9.6444Y-2.8891
X9.6834Y-2.898
X9.7059Y-2.7484
X9.7232Y-3.165
X9.7504Y-2.6383
X9.7504Y-2.6783
X9.7504Y-2.7183
X9.7877Y-2.1797
X9.7904Y-2.6383
X9.7904Y-2.6783
X9.7943Y-4.2077
X9.8165Y-2.9295
X9.8189Y-3.0386
X9.8404Y-2.6383
X9.8404Y-2.6783
X9.8445Y-2.8898
X9.8713Y-2.2501
X9.9067Y-2.9008
X9.9137Y-3.0924
X9.93Y-2.5306
X9.9571Y-2.2556
X9.9587Y-2.9047
X9.9803Y-2.5394
X9.9922Y-2.8841
X10.0179Y-2.5612
X10.0204Y-2.3783
X10.0319Y-2.8681
X10.0351Y-3.0954
X10.0579Y-2.8303
X10.0587Y-2.5744
X10.0689Y-3.1656
X10.0799Y-2.7465
X10.085Y-1.7677
X10.087Y-2.8626
X10.0898Y-2.7008
X10.0955Y-2.3002
X10.0969Y-2.6063
X10.0972Y-2.6492
X10.0973Y-2.9071
X10.1043Y-2.9547
X10.1134Y-2.8126
X10.134Y-3.2396
X10.1587Y-3.4241
X10.1715Y-3.2199
X10.2018Y-3.082
X10.248Y-3.152
X10.25Y-2.5378
X10.2596Y-2.4573
X10.2861Y-2.1665
X10.2996Y-2.9261
X10.3244Y-3.5249
X10.332Y-1.9198
X10.3759Y-3.7577
X10.4008Y-3.0398
X10.403Y-2.8129
X10.4106Y-3.5073
X10.4125Y-2.1547
X10.4153Y-2.0878
X10.4299Y-2.4094
X10.432Y-1.9798
X10.4452Y-3.1897
X10.4546Y-3.2893
X10.4894Y-3.1874
X10.5165Y-2.8352
X10.5295Y-1.7724
X10.5569Y-2.9516
X10.5569Y-3.2727
X10.5689Y-2.5823
X10.5968Y-2.8061
X10.6666Y-2.8646
X10.7049Y-2.948
X10.7086Y-3.0366
X10.7088Y-3.292
X10.7194Y-2.9056
X10.7408Y-4.0304
X10.907Y-2.3546
T3
X8.928Y-3.6343
X8.928Y-3.7343
X8.928Y-3.8343
X8.928Y-3.9343
X8.928Y-4.0343
X8.928Y-4.1343
X8.9311Y-2.8024
X8.9311Y-2.9024
X8.9311Y-3.0024
X8.9311Y-3.1024
X8.9311Y-3.2024
X8.9311Y-3.3024
X8.9311Y-3.4024
X8.9311Y-3.5024
X9.6957Y-4.3169
X9.7957Y-4.3169
X9.8957Y-4.3169
X10.248Y-3.6681
X10.248Y-3.7681
X10.248Y-3.8681
X10.248Y-3.9681
X10.248Y-4.0681
X10.248Y-4.1681
X10.5201Y-2.2894
X10.5201Y-2.3894
X10.8335Y-2.4508
X10.8335Y-2.5508
X10.8335Y-2.6508
X10.8335Y-2.7508
X10.8335Y-2.8508
X10.8335Y-2.9508
X10.8335Y-3.0508
X10.8335Y-3.1508
X10.8335Y-3.2508
X10.8335Y-3.3508
X10.8366Y-3.5098
X10.8366Y-3.6098
X10.8366Y-3.7098
X10.8366Y-3.8098
X10.8366Y-3.9098
X10.8366Y-4.0098
X10.8366Y-4.1098
X10.8366Y-4.2098
T4
X9.376Y-1.7864
X9.376Y-1.9636
X9.6319Y-1.7864
X9.6319Y-1.9636
T2
G00X10.1419Y-1.5866
M15
G01X10.1419Y-1.5551
M16
G05
G00X10.1419Y-1.7579
M15
G01X10.1419Y-1.7146
M16
G05
G00X10.4821Y-1.5866
M15
G01X10.4821Y-1.5551
M16
G05
G00X10.4821Y-1.7579
M15
G01X10.4821Y-1.7146
M16
G05
T3
G00X8.938Y-1.9439
M15
G01X8.938Y-2.0226
M16
G05
G00X9.1624Y-1.8652
M15
G01X9.0837Y-1.8652
M16
G05
G00X9.1624Y-2.1014
M15
G01X9.0837Y-2.1014
M16
G05
M30
