%TF.GenerationSoftware,KiCad,Pcbnew,7.0.10*%
%TF.CreationDate,2024-01-11T23:08:57+05:30*%
%TF.ProjectId,rp2040-basic-m1,72703230-3430-42d6-9261-7369632d6d31,rev?*%
%TF.SameCoordinates,Original*%
%TF.FileFunction,Soldermask,Bot*%
%TF.FilePolarity,Negative*%
%FSLAX46Y46*%
G04 Gerber Fmt 4.6, Leading zero omitted, Abs format (unit mm)*
G04 Created by KiCad (PCBNEW 7.0.10) date 2024-01-11 23:08:57*
%MOMM*%
%LPD*%
G01*
G04 APERTURE LIST*
G04 Aperture macros list*
%AMRoundRect*
0 Rectangle with rounded corners*
0 $1 Rounding radius*
0 $2 $3 $4 $5 $6 $7 $8 $9 X,Y pos of 4 corners*
0 Add a 4 corners polygon primitive as box body*
4,1,4,$2,$3,$4,$5,$6,$7,$8,$9,$2,$3,0*
0 Add four circle primitives for the rounded corners*
1,1,$1+$1,$2,$3*
1,1,$1+$1,$4,$5*
1,1,$1+$1,$6,$7*
1,1,$1+$1,$8,$9*
0 Add four rect primitives between the rounded corners*
20,1,$1+$1,$2,$3,$4,$5,0*
20,1,$1+$1,$4,$5,$6,$7,0*
20,1,$1+$1,$6,$7,$8,$9,0*
20,1,$1+$1,$8,$9,$2,$3,0*%
G04 Aperture macros list end*
%ADD10R,1.700000X1.700000*%
%ADD11O,1.700000X1.700000*%
%ADD12C,2.700000*%
%ADD13C,2.000000*%
%ADD14C,0.650000*%
%ADD15O,1.000000X2.100000*%
%ADD16O,1.000000X1.800000*%
%ADD17R,3.500000X3.500000*%
%ADD18RoundRect,0.750000X-1.000000X0.750000X-1.000000X-0.750000X1.000000X-0.750000X1.000000X0.750000X0*%
%ADD19RoundRect,0.875000X-0.875000X0.875000X-0.875000X-0.875000X0.875000X-0.875000X0.875000X0.875000X0*%
G04 APERTURE END LIST*
D10*
%TO.C,J7*%
X260300000Y-93170000D03*
D11*
X260300000Y-95710000D03*
X260300000Y-98250000D03*
X260300000Y-100790000D03*
X260300000Y-103330000D03*
X260300000Y-105870000D03*
%TD*%
D12*
%TO.C,REF\u002A\u002A*%
X248820000Y-46250000D03*
%TD*%
%TO.C,REF\u002A\u002A*%
X260080000Y-109540000D03*
%TD*%
%TO.C,REF\u002A\u002A*%
X230560000Y-109360000D03*
%TD*%
D13*
%TO.C,SW2*%
X238150000Y-45375000D03*
X244650000Y-45375000D03*
X238150000Y-49875000D03*
X244650000Y-49875000D03*
%TD*%
D10*
%TO.C,5V*%
X267210000Y-58150000D03*
D11*
X267210000Y-60690000D03*
%TD*%
D10*
%TO.C,J6*%
X226850000Y-71180000D03*
D11*
X226850000Y-73720000D03*
X226850000Y-76260000D03*
X226850000Y-78800000D03*
X226850000Y-81340000D03*
X226850000Y-83880000D03*
X226850000Y-86420000D03*
X226850000Y-88960000D03*
%TD*%
D10*
%TO.C,J3*%
X275170000Y-85110000D03*
D11*
X275170000Y-82570000D03*
X275170000Y-80030000D03*
X275170000Y-77490000D03*
X275170000Y-74950000D03*
X275170000Y-72410000D03*
X275170000Y-69870000D03*
X275170000Y-67330000D03*
X275170000Y-64790000D03*
X275170000Y-62250000D03*
%TD*%
D10*
%TO.C,J4*%
X275250000Y-106930000D03*
D11*
X275250000Y-104390000D03*
X275250000Y-101850000D03*
X275250000Y-99310000D03*
X275250000Y-96770000D03*
X275250000Y-94230000D03*
X275250000Y-91690000D03*
X275250000Y-89150000D03*
%TD*%
D10*
%TO.C,J5*%
X226770000Y-105010000D03*
D11*
X226770000Y-102470000D03*
X226770000Y-99930000D03*
X226770000Y-97390000D03*
X226770000Y-94850000D03*
X226770000Y-92310000D03*
%TD*%
D14*
%TO.C,J1*%
X264815000Y-43580000D03*
X259035000Y-43580000D03*
D15*
X266245000Y-44100000D03*
D16*
X266245000Y-39900000D03*
D15*
X257605000Y-44100000D03*
D16*
X257605000Y-39900000D03*
%TD*%
D17*
%TO.C,J9*%
X231725000Y-53375000D03*
D18*
X231725000Y-47375000D03*
D19*
X227025000Y-50375000D03*
%TD*%
D10*
%TO.C,J8*%
X246270000Y-109650000D03*
D11*
X248810000Y-109650000D03*
X251350000Y-109650000D03*
%TD*%
M02*
